<?xml version="1.0" encoding="UTF-8" standalone="no"?>
<svg width="23px" height="21px" viewBox="0 0 23 21" version="1.1" xmlns="http://www.w3.org/2000/svg" xmlns:xlink="http://www.w3.org/1999/xlink">
    <!-- Generator: Sketch 49 (51002) - http://www.bohemiancoding.com/sketch -->
    <title>“</title>
    <desc>Created with Sketch.</desc>
    <defs></defs>
    <g id="Symbols" stroke="none" stroke-width="1" fill="none" fill-rule="evenodd">
        <g id="Component-/-Testimonial" transform="translate(-270.000000, -71.000000)" fill="#F36B32">
            <g id="Group-9">
                <g>
                    <g id="Group-2" transform="translate(230.000000, 0.000000)">
                        <path d="M48.9514784,91.223 L40.0054784,91.223 L40.0054784,81.584 C39.9634781,80.1979931 40.1629761,78.8960061 40.6039784,77.678 C41.0449806,76.4599939 41.6644744,75.3890046 42.4624784,74.465 C43.2604823,73.5409954 44.2159728,72.774503 45.3289784,72.1655 C46.4419839,71.556497 47.6494718,71.1680008 48.9514784,71 L48.9514784,75.158 C47.3554704,75.7040027 46.2634813,76.5124946 45.6754784,77.5835 C45.0874754,78.6545054 44.7934784,79.9669922 44.7934784,81.521 L48.9514784,81.521 L48.9514784,91.223 Z M62.3704784,91.223 L53.4244784,91.223 L53.4244784,81.584 C53.3824781,80.1979931 53.5819761,78.8960061 54.0229784,77.678 C54.4639806,76.4599939 55.0834744,75.3890046 55.8814784,74.465 C56.6794823,73.5409954 57.6349728,72.774503 58.7479784,72.1655 C59.8609839,71.556497 61.0684718,71.1680008 62.3704784,71 L62.3704784,75.158 C60.7744704,75.7040027 59.6824813,76.5124946 59.0944784,77.5835 C58.5064754,78.6545054 58.2124784,79.9669922 58.2124784,81.521 L62.3704784,81.521 L62.3704784,91.223 Z" id="“"></path>
                    </g>
                </g>
            </g>
        </g>
    </g>
</svg>