<?xml version="1.0" encoding="UTF-8"?>
<svg width="20px" height="19px" viewBox="0 0 20 19" version="1.1" xmlns="http://www.w3.org/2000/svg" xmlns:xlink="http://www.w3.org/1999/xlink">
    <!-- Generator: Sketch 49 (51002) - http://www.bohemiancoding.com/sketch -->
    <title>Icons / icon-save</title>
    <desc>Created with Sketch.</desc>
    <defs></defs>
    <g id="Pages" stroke="none" stroke-width="1" fill="none" fill-rule="evenodd">
        <g id="Form-/-page-2" transform="translate(-660.000000, -834.000000)" fill="#424242" fill-rule="nonzero">
            <g id="Group-2" transform="translate(230.000000, 40.000000)">
                <g id="Group-9" transform="translate(0.000000, 794.000000)">
                    <g id="Group-7" transform="translate(430.000000, 0.000000)">
                        <g id="Icons-/-icon-save">
                            <path d="M1.66666667,1.66666667 L1.66666667,16.6666667 L18.3333333,16.6666667 L18.3333333,1.66666667 L1.66666667,1.66666667 Z M1.66666667,0 L18.3333333,0 C19.2538079,0 20,0.746192084 20,1.66666667 L20,16.6666667 C20,17.5871412 19.2538079,18.3333333 18.3333333,18.3333333 L1.66666667,18.3333333 C0.746192084,18.3333333 0,17.5871412 0,16.6666667 L0,1.66666667 C0,0.746192084 0.746192084,0 1.66666667,0 Z M7.5,1.66666667 L7.5,4.16666667 L12.5,4.16666667 L12.5,1.66666667 L7.5,1.66666667 Z M7.5,0 L12.5,0 C13.4204746,0 14.1666667,0.746192084 14.1666667,1.66666667 L14.1666667,4.16666667 C14.1666667,5.08714125 13.4204746,5.83333333 12.5,5.83333333 L7.5,5.83333333 C6.57952542,5.83333333 5.83333333,5.08714125 5.83333333,4.16666667 L5.83333333,1.66666667 C5.83333333,0.746192084 6.57952542,0 7.5,0 Z M10,12.5 C10.9204746,12.5 11.6666667,11.7538079 11.6666667,10.8333333 C11.6666667,9.91285875 10.9204746,9.16666667 10,9.16666667 C9.07952542,9.16666667 8.33333333,9.91285875 8.33333333,10.8333333 C8.33333333,11.7538079 9.07952542,12.5 10,12.5 Z M10,14.1666667 C8.15905083,14.1666667 6.66666667,12.6742825 6.66666667,10.8333333 C6.66666667,8.99238417 8.15905083,7.5 10,7.5 C11.8409492,7.5 13.3333333,8.99238417 13.3333333,10.8333333 C13.3333333,12.6742825 11.8409492,14.1666667 10,14.1666667 Z" id="Combined-Shape"></path>
                        </g>
                    </g>
                </g>
            </g>
        </g>
    </g>
</svg>