<svg height="460" viewBox="0 0 764 460" width="764" xmlns="http://www.w3.org/2000/svg" xmlns:xlink="http://www.w3.org/1999/xlink"><defs><path id="a" d="m612.983987 618.169374c202.793932 0 359.273028-114.180553 297.287475-312.967023-17.238109-49.26158-56.77069-185.315272-183.008676-261.6793656-55.078634-33.3182596-461.054726-110.8905649-447.373398 84.6059176 4.938143 70.562573-279.889388 115.367984-279.889388 330.187697 0 130.285669 115.90376 226.344709 279.889388 230.607281 106.399794 2.76571 253.292838-70.754507 333.094599-70.754507z"/><path id="b" d="m603.833442 601.384259c190.503391 0 337.498905-107.386064 279.270052-294.343441-16.193375-46.330195-53.330041-174.287803-171.91724-246.1077345-51.740536-31.3356056-433.112016-104.2918521-420.25986 79.5713135 4.638862 66.363638-262.926394 108.502835-262.926394 310.539372 0 122.532821 108.87929 212.87572 262.926394 216.884641 99.951323 2.601133 237.941758-66.544151 312.907048-66.544151z"/><path id="c" d="m577.025626 554.720507c155.168085 0 274.898302-87.499756 227.469962-239.835396-13.189765-37.750529-43.438179-142.012284-140.029365-200.532228-42.143501-25.5327158-352.776722-84.9785463-342.308434 64.835885 3.778428 54.074075-214.157789 88.409717-214.157789 253.032081 0 99.841557 88.683938 173.454291 214.157789 176.720819 81.411964 2.119441 193.807399-54.221161 254.867837-54.221161z"/></defs><g fill="none" fill-rule="evenodd" transform="matrix(-1 0 0 1 924 0)"><g transform="matrix(1 0 0 -1 0 689)"><use fill="#25c0da" xlink:href="#a"/><use fill="#000" fill-opacity=".1" xlink:href="#a"/></g><g transform="matrix(1 0 0 -1 0 688)"><use fill="#25c0da" xlink:href="#b"/><use fill="#000" fill-opacity=".2" xlink:href="#b"/></g><g transform="matrix(1 0 0 -1 0 690)"><use fill="#25c0da" xlink:href="#c"/><use fill="#000" fill-opacity=".3" xlink:href="#c"/></g></g></svg>