<svg xmlns="http://www.w3.org/2000/svg" xmlns:xlink="http://www.w3.org/1999/xlink" width="116" height="101" viewBox="0 0 116 101">
    <defs>
        <path id="a" d="M47.955 13.559c-7.838 8.875-16.442 16.826-25.802 23.645-10.817 8.23-19.921 15.889-21.054 23.182a158.258 158.258 0 0 0-.97 9.128c-.805 7.903 8.42 17.519 23.633 24.972 12.872 6.123 26.12 13.05 39.733 20.54 11.756 6.496 24.332 9.003 33.203 5.13a148.604 148.604 0 0 0 28.443-16.186c10.22-7.234 11.034-25.085 4.557-43.799a1697.4 1697.4 0 0 1-7.2-21.503c-6.163-18.441-16.645-32.92-27.03-35.414C86.958 1.114 78.685 0 70.714 0c-.47 0-.94.004-1.408.012-7.233.114-14.57 5.905-21.351 13.547z"/>
        <linearGradient id="b" x1="0%" y1="50%" y2="50%">
            <stop offset="0%" stop-color="#FF7E3F"/>
            <stop offset="100%" stop-color="#FFA13A"/>
        </linearGradient>
        <filter id="d" width="160.4%" height="165%" x="-30.2%" y="-32.5%" filterUnits="objectBoundingBox">
            <feOffset dy="2" in="SourceAlpha" result="shadowOffsetOuter1"/>
            <feGaussianBlur in="shadowOffsetOuter1" result="shadowBlurOuter1" stdDeviation="7.5"/>
            <feColorMatrix in="shadowBlurOuter1" result="shadowMatrixOuter1" values="0 0 0 0 0 0 0 0 0 0 0 0 0 0 0 0 0 0 0.15 0"/>
            <feMerge>
                <feMergeNode in="shadowMatrixOuter1"/>
                <feMergeNode in="SourceGraphic"/>
            </feMerge>
        </filter>
        <path id="e" d="M0 .04h22.399v38.747H0z"/>
        <path id="g" d="M.039.114h11.367V11.11H.04z"/>
    </defs>
    <g fill="none" fill-rule="evenodd">
        <g transform="translate(-46)">
            <mask id="c" fill="#fff">
                <use xlink:href="#a"/>
            </mask>
            <path fill="url(#b)" d="M69.306.012c-7.233.114-14.57 5.905-21.351 13.547-7.838 8.875-16.442 16.826-25.802 23.645-10.817 8.23-19.921 15.889-21.054 23.182a158.258 158.258 0 0 0-.97 9.128c-.805 7.903 8.42 17.519 23.633 24.972 12.872 6.123 26.12 13.05 39.733 20.54 11.756 6.496 24.332 9.003 33.203 5.13a148.604 148.604 0 0 0 28.443-16.186c10.22-7.234 11.034-25.085 4.557-43.799a1697.4 1697.4 0 0 1-7.2-21.503c-6.163-18.441-16.645-32.92-27.03-35.414C86.958 1.114 78.685 0 70.714 0c-.47 0-.94.004-1.408.012z" mask="url(#c)"/>
        </g>
        <g filter="url(#d)" transform="translate(-8 18)">
            <path fill="#C0C0C0" d="M65.872 51.491c2.008-2.778 4.568-4.41 6.737-5.896 2.38-1.632 4.29-3.088 4.456-5.686.109-1.69-.59-3.143-1.508-4.564-1.78-2.753-4.404-5.382-3.694-9.366.197-1.105.529-2.972 2.05-3.756.926-.478 2.7-.572 3.997-.524a16.235 16.235 0 0 0-1.661-2.578c-.038-.048-.09-.103-.132-.153-1.336.485-5.956-3.777-7.728-5.48.163.529.255 1.048.283 1.551.011.21.012.42 0 .624.528 1.042 1.363 3.008 1.242 4.849-.15 2.3-.974 4.524-4.949 6.235a6.597 6.597 0 0 1 1.604 1.569c.053.073.093.15.143.224.57.859.927 1.78 1.061 2.812.018.14.03.356.026.58.498.637.96 1.283 1.375 1.927.678 1.056 1.228 2.106 1.597 3.091.369.986.557 1.907.513 2.705-.03.533-.163 1.011-.416 1.418-2.9 4.68-14.065 2.507-25.373.162-.857-.352-1.403-.878-1.705-1.52a2.773 2.773 0 0 1-.098-.239l-.005-.017a3.091 3.091 0 0 1-.151-.668c-.11-.934.14-2.025.662-3.184 1.02-2.266 3.049-4.776 5.345-6.838a26.48 26.48 0 0 1 1.684-1.392 15.11 15.11 0 0 1-4.052-2.212 29.665 29.665 0 0 1-.282.315c.47.391.76.79.46 1.246-.553.848-1.56 1.535-2.127 3.093-.147.406-.262.745-.347 1.035-.236.82-.217 1.232.062 1.603l.148.164c.062.07.113.137.154.2.267.417.104.702.088.728l-.001.002-1.816 1.212c-.141.042-.345.03-.61-.174a2.03 2.03 0 0 1-.237-.22l-.262-.28c-1.705 1.147-3.731 2.456-5.839 3.818-.978 4.752-2.365 8.673-4.003 10.205l-.012.011a.657.657 0 0 1-.789.517l-8.16-1.703H23.6l-3.514-.733-1.935-.13a31.058 31.058 0 0 1 2.64 5.095c.329.817.625 1.633.858 2.444.145.504.27 1.006.375 1.503.209.995.334 1.972.366 2.918.128 3.806-1.252 7.105-4.77 8.985-5.99 3.201-6.283 10.406-6.232 17.46 11.973 12.481 25.177 17.685 38.426 18.497-.715-5.46-9.856-17.1-9.856-17.1s3.297-19.786 14.944-19.43c3.776.116 6.026 1.37 8.252 2.936-1.562-9.068.261-14.491 2.717-17.89"/>
            <path fill="#D6D6D6" d="M105.737 52.537c-1.846 8.388-6.249 20.35-17.382 23.008.137.101.312.16.536.161 5.139.043 14.018-3.82 19.42-17.38 1.64-4.117 1.466-7.37.446-9.68-.815 1.578-1.977 3.182-3.02 3.891"/>
            <path fill="#5F5F5F" d="M45.835 3.815c.302-.309.624-.6.966-.864 0 0 .595-.403 1.277-.82-1.883-.07-7.83.24-13.913 1.957C30.351 5.165 25.073 9.45 21.122 13c3.91-2.469 12.298-6.379 22.55-6.133.57-1.078 1.282-2.147 2.163-3.052"/>
            <path fill="#EBEBEB" d="M89.415 62.438c0 .287-.234.52-.524.52a.523.523 0 0 1-.525-.52c0-.288.235-.52.525-.52.29 0 .524.232.524.52zm-1.485-1.77c0 .287-.235.52-.525.52a.519.519 0 1 1 0-1.041.525.525 0 0 1 .525.52zm-.018 4.304c0 .287-.235.52-.524.52a.522.522 0 0 1-.371-.889.527.527 0 0 1 .742 0 .518.518 0 0 1 .153.369zm-1.328-2.014c0 .288-.235.521-.525.521a.523.523 0 0 1-.37-.889.527.527 0 0 1 .741 0 .518.518 0 0 1 .154.368zm-.77 3.714c0 .288-.234.521-.524.521a.523.523 0 0 1-.524-.52.517.517 0 0 1 .32-.48.526.526 0 0 1 .729.48zm-1.292-4.963c0 .287-.235.52-.525.52a.523.523 0 0 1-.524-.52.516.516 0 0 1 .32-.48.526.526 0 0 1 .729.48zm0 2.742c0 .287-.235.52-.525.52a.523.523 0 0 1-.524-.52.517.517 0 0 1 .32-.48.526.526 0 0 1 .729.48zm-1.33 2.221c0 .288-.234.521-.524.521a.522.522 0 0 1-.524-.52.517.517 0 0 1 .32-.48.526.526 0 0 1 .728.48zm22.545-14.134c-.426.29-.832.432-1.184.359-1.355-.282-2.904-2.441-3.642-3.91a8.651 8.651 0 0 1-1.259-.608c-.116-.067-.203-.14-.3-.21-.646-.468-.898-1.008-.913-1.555-.01-.41.111-.824.3-1.215.19-.39.448-.757.706-1.072a8.497 8.497 0 0 1 .95-.98l.09-.077s.793-.6 1.761-1c-5.328-2.087-13.562-5.434-17.012-7.495-3.858-2.305-4.58-6.693-6.352-10.992a24.08 24.08 0 0 0-.971-2.084c-1.298-.048-3.072.046-3.999.524-1.52.784-1.852 2.651-2.05 3.757-.709 3.983 1.915 6.612 3.695 9.365.919 1.42 1.617 2.874 1.508 4.564-.167 2.597-2.075 4.054-4.456 5.686-2.169 1.486-4.73 3.118-6.737 5.896-2.456 3.4-4.279 8.824-2.717 17.891.707.498 1.413 1.026 2.164 1.56 3.472 2.475 7.923 5.063 18.128 5.15 1.77.015 3.396-.187 4.908-.548 11.133-2.657 15.536-14.619 17.382-23.006z"/>
            <path fill="#C0C0C0" d="M42.102 25.56c-.533-.328-1.217-.018-1.95.143l-.081.019c-.764.157-.47.835-.47.835l3.762 4.158h.002c.182.202.51.069.75-.414a2.8 2.8 0 0 0 .241-.813c.173-1.118-.165-1.954-.524-2.323-.36-.369-1.178-1.265-1.73-1.605M42.85 23.986c-.236.348.943 1.336 1.309 1.714.366.377 1.288 1.227 1.83 1.17.542-.056.307-.488.121-.726-.186-.24-2.14-1.891-2.14-1.891-.455-.388-.881-.614-1.12-.267"/>
            <path fill="#C0C0C0" d="M35.64 11.067c.235.043.358.237.498.429 1.266 1.738 1.871 5.516 1.956 10.025l.005.231c.003.252.005.507.005.763.003.715-.005 1.444-.026 2.187.068.028.144.057.234.086l.038.012c.337.102.804.182 1.35.098a3.445 3.445 0 0 0 1.385-.55c1.79-1.177 1.61-1.592 2.312-1.587.484.003.908.432 1.415.955l.33-.22.132-.087c-3.713-4.17-3.704-9.75-3.485-11.15.14-.905.705-3.166 1.883-5.392-10.252-.245-18.64 3.664-22.55 6.133l-.031.028c.04-.012.083-.032.122-.043 6.835-1.93 13.513-2.084 14.428-1.918M43.725 33.1l-5.738-6.306c-.017.29-.034.58-.054.87l5.339 5.74.453-.304"/>
            <g transform="translate(0 45.692)">
                <mask id="f" fill="#fff">
                    <use xlink:href="#e"/>
                </mask>
                <path fill="#5F5F5F" d="M17.622 21.327c3.517-1.88 4.897-5.179 4.769-8.984a17.06 17.06 0 0 0-.366-2.919c-.105-.497-.23-1-.375-1.503a25.17 25.17 0 0 0-.859-2.444A31.044 31.044 0 0 0 18.152.382L13.056.04c-.567 5.407-2.343 10.176-5.347 14.19C4.896 17.987 4.76 19.294 0 20.98c3.7 8.614 5.273 11.232 11.389 17.807-.05-7.054.242-14.258 6.233-17.46" mask="url(#f)"/>
            </g>
            <path fill="#5F5F5F" d="M67.257 38.108l-.032.047a4.184 4.184 0 0 1-.417.487 4.676 4.676 0 0 1-.758.61 5.382 5.382 0 0 1-.522.3 5.988 5.988 0 0 1-.981.387c-.369.11-.78.197-1.237.249-.457.052-.96.07-1.514.04a13.131 13.131 0 0 1-2.486-.386c-.698-.173-1.45-.41-2.263-.72a26.663 26.663 0 0 1-3.676-1.4c3.008-.812 7.785-5.02 9.576-4.94 2.233.101 4.6 5.048 4.6 5.048s-.095.11-.29.278m-.18-5.746s-.457-1.491-1.517-2.438c-.672-.601-1.584-.985-2.782-.625-3.084.928-5.234 2.784-7.478 3.99-2 1.077-4.718.947-2.587-1.636.967-1.171 1.973-2.322 3.094-3.308a16.786 16.786 0 0 1-4.58-.968c-.57.432-1.135.899-1.684 1.392-2.296 2.062-4.326 4.572-5.345 6.838-.522 1.16-.772 2.25-.662 3.184.028.233.076.456.15.668l.006.017c.03.082.062.161.098.24.302.641.848 1.167 1.705 1.519 11.308 2.345 22.473 4.517 25.373-.162.253-.407.386-.885.416-1.418.044-.798-.144-1.72-.513-2.705-.369-.985-.92-2.035-1.598-3.09a25.518 25.518 0 0 0-1.374-1.927c-.011.696-.167 1.484-.721.429"/>
            <path fill="#929292" d="M64.965 26.747a20.45 20.45 0 0 1-2.143.778c-2.297.7-4.687.984-7.015.82-1.121.986-2.127 2.137-3.094 3.308-2.131 2.583.587 2.713 2.587 1.637 2.244-1.207 4.394-3.063 7.478-3.99 1.198-.36 2.11.023 2.782.624 1.06.947 1.518 2.438 1.518 2.438.554 1.055.71.267.721-.43a4.389 4.389 0 0 0-.026-.58 6.505 6.505 0 0 0-1.061-2.812c-.05-.074-.09-.151-.143-.224a6.59 6.59 0 0 0-1.604-1.569M88.89 61.917a.523.523 0 0 0-.524.52c0 .288.235.522.525.522.29 0 .524-.234.524-.521a.523.523 0 0 0-.524-.52M87.592 64.492a.525.525 0 0 0-.729.48c0 .287.235.52.525.52.29 0 .524-.233.524-.52a.517.517 0 0 0-.32-.48M84.201 61.23a.526.526 0 0 0-.728.479c0 .287.235.52.524.52.29 0 .524-.233.524-.52a.516.516 0 0 0-.32-.48M84.201 63.971a.526.526 0 0 0-.728.48c0 .288.235.52.524.52.29 0 .524-.232.524-.52a.517.517 0 0 0-.32-.48M86.263 62.479a.526.526 0 0 0-.728.48c0 .287.235.52.524.52a.522.522 0 0 0 .37-.889.524.524 0 0 0-.166-.111M87.405 60.147a.525.525 0 0 0-.524.52c0 .288.235.521.524.521.29 0 .525-.233.525-.52a.525.525 0 0 0-.525-.52M85.494 66.193a.526.526 0 0 0-.728.48c0 .287.234.52.524.52.29 0 .524-.233.524-.52a.517.517 0 0 0-.32-.48M82.872 66.193a.526.526 0 0 0-.728.48c0 .287.234.52.524.52.29 0 .524-.233.524-.52a.517.517 0 0 0-.32-.48"/>
            <g transform="translate(98.4 41.805)">
                <mask id="h" fill="#fff">
                    <use xlink:href="#g"/>
                </mask>
                <path fill="#F5A8C9" d="M1.046 2.521A5.596 5.596 0 0 0 .34 3.594c-.19.39-.311.804-.3 1.215.015.547.267 1.087.912 1.554.098.07.184.143.3.21.444.258.863.456 1.26.608.738 1.47 2.286 3.629 3.641 3.91.353.073.759-.069 1.185-.359 1.042-.71 2.204-2.314 3.02-3.891.654-1.264 1.086-2.51 1.046-3.259-.085-1.572-2.265-2.344-3.978-2.89C6.896.524 6.41.376 6.043.235c-.658-.257-1.475-.07-2.197.229-.967.4-1.761 1-1.761 1l-.09.077a8.492 8.492 0 0 0-.95.98" mask="url(#h)"/>
            </g>
            <path fill="#000" d="M62.947 32.782c-1.79-.08-6.569 4.128-9.576 4.94 1.33.616 2.553 1.071 3.676 1.4a26.37 26.37 0 0 1-1.67-.706c.272-.33.565-.652.87-.966l.034-.035c.303-.31.621-.61.946-.9l.034-.03c.331-.292.67-.571 1.012-.835l.008-.006c.346-.267.694-.516 1.039-.746.377-.251.747-.478 1.106-.676l.002-.002c.175-.096.347-.187.516-.27l.016-.008c.158-.077.311-.148.462-.212l.048-.021c.137-.058.27-.108.399-.154l.077-.029c.12-.04.234-.073.346-.102.03-.008.061-.02.09-.026.106-.026.206-.043.303-.058.03-.004.061-.012.09-.016.121-.014.236-.02.342-.015.135.006.27.033.405.075.045.014.091.038.137.056.09.035.178.07.268.118.052.028.104.065.156.097.082.051.164.103.246.163.052.039.103.082.154.125.081.066.162.133.242.207a6.963 6.963 0 0 1 .51.529c.086.098.17.199.254.302l.094.117c.093.12.184.24.272.361l.054.075a14.958 14.958 0 0 1 .301.437l.001.002a18.806 18.806 0 0 1 1.142 1.983s-.032.058-.096.152c.195-.168.29-.278.29-.278s-2.367-4.947-4.6-5.048"/>
            <path fill="#FFF" d="M66.211 35.973v-.002c.044.216.07.438.07.667 0 1.148-.609 2.159-1.535 2.79a3.894 3.894 0 0 1-2.2.677c-.503 0-.982-.095-1.42-.263-1.357-.52-2.314-1.757-2.314-3.204 0-.635.187-1.228.508-1.74-.345.23-.693.48-1.04.746l-.007.006c-.342.264-.68.543-1.012.836l-.034.03c-.325.288-.642.588-.946.9-.012.01-.022.023-.034.034-.305.314-.598.637-.87.966.583.27 1.14.504 1.67.707.812.31 1.565.546 2.263.719.923.23 1.749.35 2.486.387a9.18 9.18 0 0 0 1.514-.041 7.165 7.165 0 0 0 1.237-.249c.368-.11.694-.243.98-.387a5.378 5.378 0 0 0 .747-.455 4.705 4.705 0 0 0 .782-.724c.069-.083.125-.156.169-.218l.032-.047c.064-.094.096-.152.096-.152s-.455-.946-1.142-1.983"/>
            <path fill="#00C1DE" d="M62.206 33.727c1.427 0 2.583 1.009 2.583 2.254s-1.156 2.254-2.583 2.254c-1.426 0-2.582-1.01-2.582-2.254 0-1.245 1.156-2.254 2.582-2.254m-3.394 2.91c0 1.448.957 2.686 2.314 3.205.438.168.917.263 1.42.263.826 0 1.582-.257 2.2-.677.926-.631 1.535-1.642 1.535-2.79 0-.229-.025-.451-.07-.667l-.003-.003a15.187 15.187 0 0 0-.353-.509 11.935 11.935 0 0 0-.272-.36l-.094-.118a9.61 9.61 0 0 0-.377-.44 7.25 7.25 0 0 0-.387-.391 5.09 5.09 0 0 0-.242-.207c-.051-.043-.103-.086-.154-.125a3.495 3.495 0 0 0-.246-.163c-.052-.032-.104-.069-.156-.097a2.394 2.394 0 0 0-.269-.118c-.045-.018-.09-.042-.136-.056a1.615 1.615 0 0 0-.748-.06c-.028.004-.06.012-.089.016a3.478 3.478 0 0 0-.303.058c-.029.007-.06.018-.09.026-.112.03-.226.062-.346.102l-.077.03c-.13.045-.262.095-.4.153l-.047.021a9.796 9.796 0 0 0-.479.22c-.168.083-.34.174-.515.27l-.002.002c-.359.198-.73.425-1.105.676a3.261 3.261 0 0 0-.509 1.74"/>
            <path fill="#222" d="M60.02 35.26c0-.664.546-1.206 1.216-1.206.669 0 1.215.542 1.215 1.206 0 .665-.546 1.207-1.215 1.207-.67 0-1.216-.542-1.216-1.207m2.186 2.975c1.427 0 2.583-1.01 2.583-2.254 0-1.245-1.156-2.254-2.583-2.254-1.426 0-2.582 1.009-2.582 2.254s1.156 2.254 2.582 2.254"/>
            <path fill="#FFF" d="M62.45 35.26c0-.664-.545-1.206-1.214-1.206-.67 0-1.215.542-1.215 1.206 0 .665.545 1.207 1.215 1.207.669 0 1.215-.542 1.215-1.207"/>
            <path fill="#868282" d="M60.72 7.791c-2.664-2.157-6.233-3.092-6.497-3.159-1.004.32-1.874 1.011-2.662 1.691-.175.15-.346.303-.514.449-.596.52-1.191 1.07-1.74 1.66-.446.478-.861.985-1.22 1.52-.986 1.477-.604 3.495-.166 5.09.57 2.07 1.62 3.496 3.302 4.843 1.443 1.153 3.173 2.165 5.036 2.416 1.562.21 3.234.152 4.658-.565.424-.212.837-.444 1.238-.694a8.59 8.59 0 0 0-.334-.676c-2.349-4.297-9.276-9.587-12.006-11.57.617-.717 1.618-1.554 2.364-2.14 1.936 1.07 5.423 3.306 8.053 6.706 0 0-1.75-1.2-3.61-2.018 2.046 2.023 5.139 5.353 6.433 8.144.115.248.216.491.3.73.45-.338.881-.702 1.293-1.086.99-.927 1.894-1.917 2.193-3.202-.73-2.994-3.676-6.157-6.121-8.139M47.168 4.045c-.618.793 1.317 1.741 2.369 2.18.172-.152.354-.31.544-.47-.868-.403-2.314-1.109-2.127-1.542.257-.598 3.143-2.195 3.367-2.315a8.279 8.279 0 0 0-.462-.302c-.871.443-3.03 1.6-3.691 2.449M46.11 26.144c.186.238.421.67-.121.726-.542.057-1.464-.793-1.83-1.17-.366-.378-1.545-1.366-1.308-1.714.238-.347.664-.12 1.12.267 0 0 1.953 1.65 2.139 1.89m-1.754 3.345a2.8 2.8 0 0 1-.241.813c-.24.482-.568.615-.75.414h-.002L39.6 26.557s-.293-.678.47-.835l.083-.019c.733-.161 1.416-.47 1.949-.143.552.34 1.37 1.236 1.73 1.605.359.37.697 1.204.524 2.323m.456-5.772c-.507-.523-.93-.952-1.415-.955-.702-.005-.522.41-2.312 1.587a3.442 3.442 0 0 1-1.385.55 3.036 3.036 0 0 1-1.35-.098l-.038-.012a2.801 2.801 0 0 1-.234-.086c-.02.689-.05 1.387-.091 2.092l5.738 6.306-.453.304.058.062-.832.56-.093.063.262.28c.084.09.162.162.236.22.266.203.47.216.611.174l1.816-1.212v-.002c.017-.026.18-.31-.087-.728a1.656 1.656 0 0 0-.154-.2l-.148-.164c-.28-.37-.298-.784-.062-1.603.085-.29.2-.629.347-1.035.567-1.558 1.574-2.245 2.128-3.093.298-.457.01-.855-.46-1.246-1.076-.597-2.082-1.764-2.082-1.764"/>
            <path fill="#AFADAD" d="M46.402 22.66l-1.128.749-.132.087c.372.394 1.332 1.403 1.858 1.865l.176-.196c.256-.282.524-.575.73-.793-.401-1.584-1.504-1.713-1.504-1.713M49.192 23.76c3.393 2.637 7.296 2.38 10.502 2.038 3.39-.364 5.9-3.178 6.698-3.918.68-.628 1.697-3.784 2-4.764-.348 1.007-1 1.891-1.908 2.573-2.106 1.582-2.124 1.833-4.247 3.03-1.306.737-4.277 1.483-7.21.666-1.667-.465-3.19-1.497-4.545-2.536-1.645-1.262-2.92-2.444-3.553-4.455-.455-1.447-1.15-3.296-.95-4.837.079-.593.43-1.407.963-2.27-1.375 1.846-2.22 4.659-2.1 5.602.1.78.2 3.845 2.223 6.665 0 0 1.671.891 2.127 2.206M47.954 4.213c-.187.433 1.259 1.139 2.127 1.542.951-.798 2.116-1.64 3.35-2.148.607-.248 1.231-.415 1.854-.455a4.048 4.048 0 0 1 1.517.179c2.675.841 5.55 3.278 5.55 3.278s2.218 1.813 3.982 3.776c1.432.963 3.772 2.667 5.939 4.445.133-.268.366-.75.557-1.191 0 0-12.636-9.914-14.821-11.253a2.69 2.69 0 0 0-.535.337c-1.636-1.157-4.65-2.789-5.06-2.72-.452.074-1.077.397-.677.744.093.081.342.256.67.478-.347.2-.784.478-1.086.673-.224.12-3.11 1.717-3.367 2.315"/>
            <path fill="#AFADAD" d="M56.623 11.344c1.858.818 3.61 2.018 3.61 2.018-2.63-3.4-6.118-5.636-8.054-6.706-.746.586-1.747 1.423-2.364 2.14 2.73 1.983 9.657 7.273 12.006 11.57.125.228.237.454.334.676.413-.257.813-.531 1.2-.824a8.41 8.41 0 0 0-.3-.73c-1.294-2.792-4.387-6.12-6.432-8.144"/>
            <path fill="#D2CFCD" d="M45.142 23.496l-.33.22s1.006 1.167 2.081 1.764l.107-.12c-.526-.46-1.486-1.47-1.858-1.864M47.907 24.372a1.556 1.556 0 0 0 1.285-.612c-.455-1.315-2.127-2.206-2.127-2.206-.37.255-.613.66-.663 1.106 0 0 1.103.128 1.505 1.712M66.84 15.93c-.298 1.285-1.202 2.275-2.192 3.202a16.107 16.107 0 0 1-3.73 2.605c-1.425.716-3.098.775-4.66.564-1.862-.251-3.592-1.262-5.035-2.416-1.683-1.347-2.733-2.773-3.302-4.844-.438-1.594-.82-3.612.167-5.088.358-.536.772-1.043 1.22-1.52a22.81 22.81 0 0 1 1.74-1.661c.167-.146.338-.298.513-.449.788-.68 1.658-1.37 2.663-1.69a3.77 3.77 0 0 1 .474-.123c2.623-.498 5.563 1.61 7.508 3.126.899.7 1.754 1.476 2.535 2.304 1.262 1.335 2.233 3.267 2.206 5.128-.005.302-.04.588-.106.861m-.507-5.544C64.57 8.422 62.351 6.61 62.351 6.61s-2.874-2.437-5.55-3.278a4.048 4.048 0 0 0-1.517-.179c-.622.04-1.246.207-1.852.455-1.235.507-2.4 1.35-3.351 2.149-.19.159-.372.317-.544.469-.065.058-.13.115-.192.172a13.763 13.763 0 0 0-2.403 2.89c-.534.863-.884 1.677-.962 2.27-.202 1.541.494 3.39.95 4.837.632 2.01 1.907 3.192 3.552 4.455 1.355 1.039 2.878 2.071 4.544 2.536 2.934.817 5.905.07 7.211-.666 2.123-1.197 2.141-1.448 4.247-3.03.908-.682 1.56-1.566 1.908-2.573a.264.264 0 0 1 .009-.028l.029-.094.01-.03c.013-.044.022-.079.03-.102l.006-.02.002-.009c.002-.003.003-.005.002-.008.106-.373.17-.762.191-1.162a5.453 5.453 0 0 0 0-.624 6.448 6.448 0 0 0-.282-1.55c-.01-.038-.022-.076-.035-.113-.283-.875-1.088-1.955-2.02-2.99M73.127 12.853s-4.556-3.096-7.614-5.346c-3.057-2.248-5.444-4.179-6.155-4.651-.411-.273-.65-.785-1.35-.47C60.195 3.725 72.83 13.64 72.83 13.64a5.87 5.87 0 0 0 .297-.786"/>
            <path fill="#77401B" d="M43.33 33.466l-.058-.062-5.339-5.74c-.236 3.481-.709 7.048-1.367 10.243 2.108-1.362 4.134-2.671 5.839-3.818l.093-.062.832-.56M45.835 3.815c-.881.905-1.593 1.974-2.163 3.052-1.178 2.226-1.742 4.487-1.883 5.392-.219 1.4-.228 6.98 3.485 11.15l1.128-.75c.05-.445.292-.85.663-1.105-2.023-2.82-2.123-5.884-2.222-6.665-.121-.943.724-3.756 2.099-5.603a13.768 13.768 0 0 1 2.403-2.89l.192-.171c-1.052-.439-2.987-1.387-2.37-2.18.662-.85 2.82-2.006 3.692-2.45-.417-.253-.782-.41-.997-.367-.195.038-.496.174-.834.354-.304.16-.636.356-.95.549-.682.417-1.277.82-1.277.82a9.292 9.292 0 0 0-.966.864M68.478 16.833l-.002.01-.006.02c-.008.022-.017.057-.03.1a.6.6 0 0 1-.01.031c-.01.028-.018.06-.03.094a.23.23 0 0 0-.008.028c-.303.98-1.32 4.136-2 4.764-.798.74-3.307 3.554-6.698 3.917-3.207.343-7.11.6-10.502-2.037a1.546 1.546 0 0 1-1.285.612c-.207.218-.475.511-.732.793a15.107 15.107 0 0 0 4.052 2.212 16.78 16.78 0 0 0 4.58.968c2.328.164 4.719-.12 7.015-.82a20.46 20.46 0 0 0 2.143-.778c3.975-1.711 4.798-3.935 4.95-6.235.12-1.84-.715-3.807-1.244-4.849a5.276 5.276 0 0 1-.193 1.17"/>
            <path fill="#A9A9A9" d="M62.206 7.636C60.26 6.121 57.32 4.012 54.698 4.51c-.162.03-.32.071-.474.122.263.067 3.832 1.002 6.496 3.16 2.445 1.981 5.39 5.144 6.12 8.137.066-.273.102-.559.107-.86.027-1.862-.944-3.794-2.206-5.13a22.58 22.58 0 0 0-2.535-2.303"/>
            <path fill="#77401B" d="M68.354 13.376c.013.037.025.074.035.112 1.772 1.704 6.392 5.965 7.728 5.48a.483.483 0 0 0 .304-.27c-.973-1.138-2.511-2.524-4.148-3.868-2.167-1.778-4.507-3.482-5.939-4.445.932 1.036 1.737 2.116 2.02 2.99"/>
            <path fill="#5F5F5F" d="M8.13 44.64c1.585-5.861 6.532-12.845 11.598-16.584 3.371-2.49 8.645 8.797 12.793 19.736.043.113.05.226.03.331l.012-.011c1.638-1.532 3.025-5.453 4.004-10.204.657-3.196 1.13-6.763 1.366-10.243a76.888 76.888 0 0 0 .145-2.964c.021-.742.03-1.47.026-2.186 0-.256-.002-.51-.005-.763l-.005-.231c-.085-4.509-.69-8.287-1.956-10.025-.14-.192-.263-.386-.497-.429-.915-.166-7.593-.012-14.428 1.918-.04.01-.083.031-.122.043l-.032.011c-4.006 1.207-9.543 5.81-13.497 9.409-.072.065-.14.131-.211.197l.028-.03-.182.165c.003.004.018-.012.026-.015l-.022.02c-1.878 1.755-3.529 3.563-4.117 4.098a.635.635 0 0 0-.185.642c.468 1.704 1.427 10.003 5.268 17.532.01.018.027.026.037.042a.597.597 0 0 1-.074-.459"/>
            <path fill="#424242" d="M18.152 46.074l1.935.13 3.514.733 8.161 1.703a.657.657 0 0 0 .79-.517.618.618 0 0 0-.031-.331c-4.148-10.939-9.422-22.226-12.793-19.736C14.662 31.795 9.715 38.78 8.13 44.64a.598.598 0 0 0 .074.46c.039.068.09.125.152.176.023.02.042.043.069.06a.675.675 0 0 0 .311.106l4.32.29 5.096.342z"/>
            <path fill="#D6D6D6" d="M105.627 52.637c-1.825 8.29-6.177 20.11-17.182 22.737.136.1.309.158.53.16 5.08.042 13.857-3.775 19.196-17.176 1.622-4.07 1.45-7.284.442-9.566-.806 1.558-1.955 3.144-2.986 3.845"/>
            <path fill="#929292" d="M88.975 61.907a.516.516 0 0 0-.518.514c0 .284.232.515.518.515.286 0 .518-.23.518-.515a.516.516 0 0 0-.518-.514M87.69 64.451a.52.52 0 0 0-.72.474c0 .284.233.515.519.515.286 0 .518-.23.518-.515a.512.512 0 0 0-.316-.474M84.34 61.227a.521.521 0 0 0-.569.11.51.51 0 0 0-.152.364c0 .284.232.514.519.514.286 0 .518-.23.518-.514a.51.51 0 0 0-.317-.474M84.34 63.936a.521.521 0 0 0-.569.11.51.51 0 0 0-.152.365c0 .284.232.514.519.514.286 0 .518-.23.518-.514a.51.51 0 0 0-.317-.475M86.378 62.461a.52.52 0 0 0-.72.475c0 .284.232.514.518.514.286 0 .518-.23.518-.514a.511.511 0 0 0-.316-.475M87.507 60.157a.519.519 0 0 0-.519.515c0 .284.232.514.519.514.286 0 .518-.23.518-.514a.519.519 0 0 0-.518-.514M85.617 66.132a.52.52 0 0 0-.72.474c0 .284.232.514.519.514.286 0 .518-.23.518-.514a.511.511 0 0 0-.317-.474M83.026 66.132a.52.52 0 0 0-.72.474c0 .284.231.514.518.514.286 0 .518-.23.518-.514a.51.51 0 0 0-.316-.474"/>
            <path fill="#F5A8C9" d="M99.408 44.523c-.256.312-.51.674-.697 1.06-.188.386-.308.795-.298 1.2.015.54.264 1.074.903 1.537.096.07.182.141.296.207.439.255.853.45 1.245.6.73 1.453 2.26 3.587 3.6 3.865.348.072.75-.068 1.17-.355 1.03-.701 2.18-2.287 2.986-3.845.647-1.25 1.074-2.481 1.034-3.22-.084-1.555-2.24-2.317-3.932-2.857-.525-.166-1.005-.312-1.367-.452-.651-.254-1.459-.068-2.172.227-.956.396-1.74.989-1.74.989s-.033.026-.09.075a8.372 8.372 0 0 0-.939.969"/>
            <path fill="#050000" d="M25.862 67.718a.049.049 0 0 1-.005-.01"/>
        </g>
    </g>
</svg>
