<svg width="44" height="44" viewBox="0 0 44 44" fill="none" xmlns="http://www.w3.org/2000/svg">
<circle cx="22" cy="22" r="22" fill="#F4CF18"/>
<path d="M21.9999 2.80666C18.6277 2.80135 15.3138 3.69311 12.3924 5.392C9.47095 7.09089 7.04531 9.53683 5.36012 12.4831C3.67493 15.4294 2.78979 18.7718 2.79396 22.1733C2.79813 25.5748 3.69148 28.915 5.38389 31.8571L2.88389 39.4142C2.78988 39.6986 2.77623 40.0038 2.84449 40.2955C2.91275 40.5873 3.06021 40.8541 3.27034 41.066C3.48048 41.278 3.74499 41.4267 4.03422 41.4956C4.32345 41.5644 4.62598 41.5507 4.90789 41.4558L12.3999 38.9341C14.9502 40.4235 17.8061 41.3007 20.7465 41.4979C23.6869 41.6951 26.6328 41.2069 29.3561 40.0711C32.0794 38.9354 34.507 37.1826 36.4508 34.9484C38.3946 32.7143 39.8025 30.0588 40.5655 27.1877C41.3284 24.3165 41.4259 21.3067 40.8504 18.3915C40.2749 15.4762 39.0419 12.7337 37.2468 10.3763C35.4517 8.01893 33.1428 6.10999 30.4988 4.79734C27.8548 3.48468 24.9468 2.80354 21.9999 2.80666ZM21.9999 38.3128C18.9748 38.3108 16.0127 37.4403 13.4599 35.8031C13.2038 35.6396 12.907 35.5529 12.6039 35.553C12.4324 35.5532 12.2622 35.5818 12.0999 35.6377L6.92789 37.3767L8.65189 32.1597C8.72694 31.9331 8.75116 31.6924 8.7228 31.4552C8.69444 31.218 8.6142 30.99 8.48789 30.7879C6.59311 27.7598 5.7505 24.1821 6.09268 20.6179C6.43487 17.0538 7.94242 13.7057 10.378 11.1006C12.8136 8.49554 16.039 6.78148 19.5463 6.22827C23.0536 5.67506 26.6437 6.31411 29.7515 8.04483C32.8592 9.77554 35.3081 12.4996 36.7126 15.7883C38.1171 19.0769 38.3975 22.7433 37.5096 26.2103C36.6217 29.6773 34.616 32.748 31.8082 34.939C29.0003 37.13 25.5498 38.3168 21.9999 38.3128Z" fill="#0C9372"/>
<path d="M15.6 17.3323C16.0244 17.3323 16.4314 17.5024 16.7314 17.805C17.0315 18.1077 17.2 18.5182 17.2 18.9462C17.2 19.3743 17.3686 19.7848 17.6687 20.0874C17.9687 20.3901 18.3757 20.5601 18.8 20.5601C19.2244 20.5601 19.6314 20.3901 19.9314 20.0874C20.2315 19.7848 20.4 19.3743 20.4 18.9462C20.4 17.6621 19.8943 16.4306 18.9942 15.5226C18.094 14.6146 16.8731 14.1045 15.6 14.1045C14.327 14.1045 13.1061 14.6146 12.2059 15.5226C11.3058 16.4306 10.8 17.6621 10.8 18.9462C10.8 19.3743 10.9686 19.7848 11.2687 20.0874C11.5687 20.3901 11.9757 20.5601 12.4 20.5601C12.8244 20.5601 13.2314 20.3901 13.5314 20.0874C13.8315 19.7848 14 19.3743 14 18.9462C14 18.5182 14.1686 18.1077 14.4687 17.805C14.7687 17.5024 15.1757 17.3323 15.6 17.3323Z" fill="#0C9372"/>
<path d="M28.4001 14.1045C27.1271 14.1045 25.9062 14.6146 25.006 15.5226C24.1058 16.4306 23.6001 17.6621 23.6001 18.9462C23.6001 19.3743 23.7687 19.7848 24.0687 20.0874C24.3688 20.3901 24.7758 20.5601 25.2001 20.5601C25.6244 20.5601 26.0314 20.3901 26.3315 20.0874C26.6315 19.7848 26.8001 19.3743 26.8001 18.9462C26.8001 18.5182 26.9687 18.1077 27.2687 17.805C27.5688 17.5024 27.9758 17.3323 28.4001 17.3323C28.8244 17.3323 29.2314 17.5024 29.5315 17.805C29.8315 18.1077 30.0001 18.5182 30.0001 18.9462C30.0001 19.3743 30.1687 19.7848 30.4687 20.0874C30.7688 20.3901 31.1758 20.5601 31.6001 20.5601C32.0244 20.5601 32.4314 20.3901 32.7315 20.0874C33.0315 19.7848 33.2001 19.3743 33.2001 18.9462C33.2001 17.6621 32.6944 16.4306 31.7942 15.5226C30.894 14.6146 29.6731 14.1045 28.4001 14.1045Z" fill="#0C9372"/>
<path d="M27.2679 25.8734L26.3319 26.8215C25.1641 27.9439 23.6129 28.5699 21.9999 28.5699C20.3869 28.5699 18.8357 27.9439 17.6679 26.8215L16.7319 25.8734C16.4317 25.5705 16.0245 25.4004 15.5999 25.4004C15.1753 25.4004 14.7681 25.5705 14.4679 25.8734C14.1677 26.1762 13.999 26.5869 13.999 27.0152C13.999 27.4435 14.1677 27.8542 14.4679 28.157L15.4079 29.1012C16.2737 29.9771 17.3024 30.6721 18.4349 31.1463C19.5675 31.6205 20.7817 31.8645 22.0079 31.8645C23.2342 31.8645 24.4484 31.6205 25.5809 31.1463C26.7135 30.6721 27.7421 29.9771 28.6079 29.1012L29.5479 28.157C29.8481 27.8542 30.0168 27.4435 30.0168 27.0152C30.0168 26.5869 29.8481 26.1762 29.5479 25.8734C29.2477 25.5705 28.8405 25.4004 28.4159 25.4004C27.9913 25.4004 27.5841 25.5705 27.2839 25.8734H27.2679Z" fill="#0C9372"/>
</svg>
