<svg width="33" height="33" viewBox="0 0 33 33" fill="none" xmlns="http://www.w3.org/2000/svg">
<rect x="2" y="8" width="29" height="14" fill="#DBF3F8"/>
<rect x="5" y="18" width="23" height="14" fill="#DBF3F8"/>
<path d="M23.3336 5.51994V2.79981C23.3336 1.29796 22.1097 0.0800781 20.6001 0.0800781H12.4001C10.8905 0.0800781 9.66663 1.29796 9.66663 2.80021V5.52035H0.100098V21.8403C0.100098 23.341 1.32395 24.5601 2.83357 24.5601V32.7201H30.167V24.5601C31.6762 24.5601 32.9001 23.3438 32.9001 21.8399V5.51994H23.3336ZM12.4001 2.80021H20.6001V5.52035H12.4001V2.80021ZM27.4336 29.9999H5.56663V24.5601H8.3001V27.2802H11.0336V24.5601H21.967V27.2802H24.7001V24.5601H27.4336V29.9999ZM30.1666 21.8399H2.83357V8.24008H30.167V21.8399H30.1666Z" fill="#002469"/>
<path d="M22.9382 15.04C22.9382 14.2897 23.5495 13.6801 24.3047 13.6801H27.4334C26.9049 12.4802 25.7061 11.6401 24.3047 11.6401C22.9033 11.6401 21.7049 12.4802 21.1764 13.6801H11.8235C11.2954 12.4802 10.0958 11.6401 8.69519 11.6401C7.29464 11.6401 6.09456 12.4802 5.56689 13.6801H8.69519C9.45 13.6801 10.0617 14.2885 10.0617 15.04C10.0617 15.7903 9.44959 16.3999 8.69519 16.3999H5.56689C6.09456 17.6002 7.29464 18.4399 8.69519 18.4399C10.0962 18.4399 11.2966 17.599 11.8235 16.3999H21.1768C21.7053 17.6002 22.9037 18.4399 24.3051 18.4399C25.7065 18.4399 26.9053 17.6002 27.4338 16.3999H24.3051C23.5495 16.3999 22.9382 15.7915 22.9382 15.04Z" fill="#002469"/>
</svg>
