<svg xmlns="http://www.w3.org/2000/svg" width="222" height="34" viewBox="0 0 222 34">
    <g fill="#002469" fill-rule="evenodd">
        <path d="M63.6 18.32c0 .499.08.968.24 1.407.16.442.393.826.7 1.151.306.325.677.584 1.11.775.434.193.92.289 1.457.289.536 0 1.022-.096 1.456-.289.434-.19.804-.45 1.111-.775.308-.325.54-.709.7-1.15.16-.44.24-.91.24-1.407 0-.498-.08-.968-.24-1.41-.16-.44-.392-.822-.7-1.149-.307-.325-.677-.584-1.111-.776-.434-.192-.92-.286-1.456-.286-.537 0-1.023.094-1.457.286-.433.192-.804.45-1.11.776-.307.327-.54.71-.7 1.15-.16.441-.24.91-.24 1.409m-1.148 0c0-.678.114-1.3.344-1.869.23-.568.549-1.06.958-1.474.409-.416.9-.738 1.476-.969.574-.23 1.2-.345 1.877-.345s1.299.115 1.867.345c.57.23 1.06.553 1.476.969.415.414.738.906.967 1.474.23.568.345 1.191.345 1.869 0 .677-.114 1.298-.345 1.867-.23.57-.552 1.06-.967 1.475-.416.416-.907.738-1.476.968-.568.23-1.19.345-1.867.345s-1.303-.116-1.877-.345c-.575-.23-1.067-.552-1.476-.968-.41-.415-.728-.905-.958-1.475-.23-.569-.344-1.19-.344-1.867M75.115 18.32c0 .499.096.968.287 1.407.191.442.453.826.786 1.151.332.325.721.584 1.168.775.447.193.933.289 1.457.289.536 0 1.021-.096 1.456-.289.434-.19.804-.45 1.11-.775.307-.325.54-.709.7-1.15.16-.44.24-.91.24-1.407 0-.498-.08-.968-.24-1.41-.16-.44-.393-.822-.7-1.149-.306-.325-.676-.584-1.11-.776-.435-.192-.92-.286-1.456-.286-.524 0-1.01.094-1.457.286-.447.192-.836.45-1.168.776-.333.327-.595.71-.786 1.15-.191.441-.287.91-.287 1.409zm-1.035-4.425h1.15v1.552h.038c.18-.308.403-.573.67-.795.27-.224.559-.409.873-.557.312-.146.641-.256.986-.325.346-.07.683-.106 1.016-.106.676 0 1.299.115 1.868.345.567.23 1.06.553 1.475.969.415.414.737.906.968 1.474.229.568.345 1.191.345 1.869 0 .677-.116 1.298-.345 1.867-.23.57-.553 1.06-.968 1.475-.415.416-.908.738-1.475.968-.569.23-1.192.345-1.868.345-.333 0-.67-.035-1.016-.106-.345-.07-.674-.178-.986-.325-.314-.148-.604-.332-.873-.556-.267-.222-.49-.488-.67-.795h-.038v5.92h-1.15v-13.22zM92.97 17.572c0-.395-.08-.765-.239-1.11-.16-.345-.376-.648-.651-.91s-.6-.47-.977-.622c-.377-.154-.776-.23-1.197-.23-.627 0-1.147.126-1.563.382-.414.256-.743.549-.986.882-.242.332-.415.654-.517.967-.102.313-.153.527-.153.641h6.284zm.883 3.507c-.448.678-1 1.163-1.658 1.457-.658.293-1.383.44-2.175.44-.676 0-1.29-.116-1.839-.345-.55-.23-1.022-.552-1.417-.968-.397-.414-.7-.906-.91-1.475-.211-.569-.317-1.198-.317-1.887 0-.663.108-1.278.326-1.839.218-.562.524-1.05.92-1.467.396-.415.862-.74 1.398-.976.536-.236 1.13-.354 1.782-.354.677 0 1.273.118 1.791.354.517.237.952.55 1.303.939.35.39.617.833.796 1.332.179.498.268 1.003.268 1.514v.803h-7.434c0 .243.047.554.143.93.096.377.271.745.527 1.101.255.359.597.664 1.025.92.428.255.98.383 1.658.383.586 0 1.155-.14 1.705-.421.548-.28.97-.664 1.264-1.15l.844.709zM96.688 16.385c0-.165-.007-.367-.02-.603-.012-.236-.022-.476-.028-.72-.007-.241-.017-.468-.03-.678-.012-.212-.018-.374-.018-.49h1.15c.012.332.021.652.028.959.007.306.022.504.048.594h.057c.23-.485.614-.904 1.15-1.255.536-.352 1.162-.527 1.877-.527.69 0 1.252.108 1.687.325.433.218.775.502 1.024.853.25.35.422.756.518 1.216.095.46.142.933.142 1.419v5.267h-1.148v-5.21c0-.357-.032-.706-.096-1.044-.064-.339-.176-.642-.336-.91-.16-.27-.383-.483-.67-.642-.287-.161-.66-.24-1.12-.24-.422 0-.822.074-1.197.22-.378.147-.703.37-.978.67-.275.302-.492.68-.651 1.132-.16.453-.24.986-.24 1.6v4.424h-1.149v-6.36zM112.014 16.098c-.448-.626-1.047-.939-1.8-.939-.307 0-.608.077-.901.23-.294.153-.44.402-.44.746 0 .28.12.487.363.615.243.126.549.236.92.325.37.09.77.182 1.198.278.427.096.826.242 1.197.44.37.198.677.47.92.814.242.346.363.818.363 1.418 0 .549-.118 1.013-.354 1.39-.237.377-.543.68-.92.909-.377.23-.802.396-1.274.499-.472.102-.945.153-1.418.153-.715 0-1.373-.103-1.973-.307-.6-.203-1.137-.575-1.609-1.111l1.532-1.437c.294.333.611.604.95.814.337.21.749.316 1.234.316.166 0 .34-.019.518-.057.18-.038.344-.102.497-.191.155-.09.279-.2.374-.336.096-.133.145-.29.145-.469 0-.32-.122-.555-.364-.709-.243-.155-.55-.279-.92-.374-.37-.095-.77-.185-1.197-.268-.429-.082-.828-.217-1.198-.403-.37-.184-.677-.443-.92-.776-.242-.331-.364-.792-.364-1.378 0-.511.106-.955.317-1.332.21-.378.488-.687.833-.93.345-.242.74-.42 1.188-.536.446-.115.9-.172 1.36-.172.614 0 1.219.106 1.82.316.6.21 1.085.571 1.456 1.082l-1.533 1.38zM114.544 15.503V13.55h1.896v-2.663h2.3v2.663h2.527v1.954h-2.528v4.025c0 .46.086.824.259 1.092.171.267.514.402 1.025.402.204 0 .427-.022.67-.068.243-.045.434-.119.574-.22v1.935c-.242.116-.539.195-.89.24-.352.045-.661.067-.93.067-.613 0-1.114-.067-1.503-.202-.391-.133-.697-.337-.92-.613-.224-.273-.377-.617-.46-1.025-.083-.408-.124-.881-.124-1.417v-4.216h-1.896zM128.682 18.627h-.479c-.32 0-.676.013-1.073.038-.396.026-.77.087-1.12.181-.352.097-.649.238-.891.423-.244.185-.365.444-.365.776 0 .217.049.399.145.545.095.149.22.273.373.375.154.1.326.175.517.219.192.045.384.067.574.067.792 0 1.377-.187 1.754-.565.376-.377.565-.89.565-1.543v-.516zm.134 2.855h-.057c-.334.523-.755.902-1.265 1.14-.51.236-1.072.354-1.686.354-.422 0-.833-.057-1.235-.173-.403-.115-.76-.288-1.073-.517-.313-.23-.565-.516-.757-.862-.191-.345-.287-.747-.287-1.206 0-.499.089-.924.267-1.275.18-.35.419-.645.72-.882.3-.236.647-.423 1.043-.565.396-.14.809-.246 1.235-.316.429-.07.86-.115 1.294-.134.434-.02.843-.029 1.226-.029h.575v-.249c0-.574-.198-1.006-.594-1.293-.397-.288-.9-.431-1.514-.431-.485 0-.938.086-1.36.259-.421.172-.785.405-1.091.699l-1.208-1.207c.512-.524 1.108-.9 1.792-1.13.683-.23 1.389-.345 2.116-.345.651 0 1.201.073 1.648.22.448.147.818.336 1.111.565.294.23.52.496.681.796.16.3.274.602.344.91.071.306.113.603.125.89.013.287.02.54.02.757v5.287h-2.07v-1.263zM135.733 17.803L132.552 13.549 135.348 13.549 137.188 16.308 139.181 13.549 141.805 13.549 138.663 17.803 142.361 22.744 139.564 22.744 137.169 19.451 134.755 22.744 132.034 22.744zM54.148 7.488c-.046.976-.873 1.732-1.852 1.683l-41.312-1.96c-.976-.049-1.728-.88-1.681-1.855l.175-3.669C9.52.71 10.353-.044 11.327.002l41.311 1.963c.976.048 1.732.877 1.686 1.856l-.176 3.667zM40.572 20.912c0 .589-.477 1.064-1.063 1.064h-33.6c-.586 0-1.062-.475-1.062-1.064v-5.253c0-.586.476-1.06 1.062-1.06h33.6c.586 0 1.063.474 1.063 1.06v5.253zM50.903 26.595c.019.584-.424 1.076-.993 1.096l-37.907 1.181c-.566.016-1.042-.446-1.06-1.03l-.099-3.12c-.018-.587.428-1.076.997-1.095l37.907-1.183c.567-.019 1.042.445 1.06 1.03l.095 3.121zM45.812 32.936c0 .587-.447 1.064-.997 1.064H8.628c-.548 0-.995-.477-.995-1.064v-2.085c0-.584.447-1.061.995-1.061h36.187c.55 0 .997.477.997 1.061v2.085zM46.746 12.068c0 .432-.644.785-1.434.785H1.431c-.789 0-1.43-.353-1.43-.785v-1.7c0-.433.641-.784 1.43-.784h43.881c.79 0 1.434.351 1.434.784v1.7zM156.014 14.471L152.985 14.471 152.985 22.627 151.897 22.627 151.897 14.471 148.867 14.471 148.867 13.461 156.014 13.461zM164.624 19.131c0 .501-.063.976-.188 1.425-.125.449-.324.843-.595 1.184-.273.342-.628.614-1.068.816-.44.203-.976.304-1.606.304-.63 0-1.165-.1-1.605-.304-.44-.202-.797-.474-1.068-.816-.272-.34-.47-.735-.596-1.184-.126-.449-.188-.924-.188-1.425v-5.67h1.088v5.515c0 .371.039.73.117 1.075.077.345.206.652.388.919.181.268.423.481.725.64.302.16.682.24 1.14.24.457 0 .836-.08 1.138-.24.303-.159.544-.372.725-.64.182-.267.311-.574.389-.919.078-.345.116-.704.116-1.075V13.46h1.088v5.67zM173.467 14.471L170.438 14.471 170.438 22.627 169.35 22.627 169.35 14.471 166.32 14.471 166.32 13.461 173.467 13.461zM179.46 21.85c.536 0 1.026-.1 1.47-.297.445-.198.827-.47 1.146-.816.32-.345.568-.748.745-1.21.177-.462.265-.956.265-1.483 0-.526-.088-1.02-.265-1.482-.177-.462-.425-.866-.745-1.21-.32-.346-.7-.618-1.145-.817-.445-.198-.935-.297-1.47-.297-.535 0-1.025.1-1.47.297-.444.2-.826.471-1.146.816-.32.345-.567.75-.744 1.21-.177.462-.265.957-.265 1.483 0 .527.088 1.02.265 1.482.177.463.425.866.744 1.21.32.347.702.619 1.146.817.445.198.935.297 1.47.297m0 1.01c-.699 0-1.34-.12-1.923-.362-.582-.241-1.087-.576-1.514-1.004-.427-.426-.76-.936-.998-1.527-.237-.592-.356-1.233-.356-1.923 0-.691.12-1.331.356-1.923.238-.591.57-1.1.998-1.528.427-.427.932-.762 1.514-1.003.583-.241 1.224-.363 1.923-.363.7 0 1.34.122 1.923.363s1.088.576 1.514 1.003c.428.428.76.937.997 1.528.238.592.357 1.232.357 1.923 0 .69-.12 1.331-.357 1.923-.237.59-.57 1.1-.997 1.527-.426.428-.931.763-1.514 1.004s-1.224.362-1.923.362M187.54 17.5h.971c.303 0 .616-.008.94-.026.322-.017.62-.073.893-.168.271-.095.495-.244.672-.447.178-.203.266-.493.266-.873 0-.328-.064-.592-.194-.79-.13-.199-.3-.352-.511-.46-.213-.108-.45-.18-.713-.213-.264-.035-.528-.052-.796-.052h-1.527v3.03zm-1.087-4.039h2.344c.44 0 .878.026 1.313.077.437.052.827.165 1.172.337.345.173.626.425.842.757.216.333.324.783.324 1.354 0 .673-.203 1.216-.61 1.63-.404.416-.966.678-1.681.79l2.6 4.222h-1.332l-2.486-4.118h-1.398v4.118h-1.088V13.46zM199.08 19.895c.227 0 .436-.039.627-.118.192-.078.36-.185.505-.32.145-.136.266-.3.364-.491.097-.192.161-.401.193-.628.03-.226.027-.435-.015-.627-.04-.192-.116-.356-.226-.49-.11-.136-.25-.243-.42-.321-.17-.08-.368-.118-.594-.118-.227 0-.436.039-.628.118-.191.078-.361.185-.51.32-.147.135-.269.3-.363.49-.093.193-.156.402-.189.628-.031.227-.026.436.015.628.04.191.115.355.222.49.107.136.247.243.42.32.172.08.372.12.599.12zm-1.415-6.454h.849l-.463 3.302h.02c.181-.232.424-.416.726-.551.302-.136.614-.204.934-.204.346 0 .65.06.91.18.261.12.476.285.647.495.17.211.287.46.354.746.066.286.076.596.033.929-.051.334-.148.642-.293.925-.145.283-.33.532-.556.745-.227.214-.49.381-.788.5-.3.12-.622.18-.968.18-.301 0-.586-.066-.854-.199-.267-.131-.466-.317-.599-.556h-.019l-.085.641h-.849l1-7.133zM206.118 17.97c.019-.189.013-.361-.019-.518-.032-.158-.091-.294-.18-.41-.089-.117-.209-.208-.361-.275-.152-.066-.336-.099-.552-.099-.209 0-.404.04-.589.118-.183.08-.347.181-.488.307-.143.126-.259.266-.347.42-.09.154-.143.307-.163.457h2.7zm-2.792.68c-.026.195-.007.372.056.533.063.16.156.297.28.41.123.113.272.201.445.264.174.063.359.095.554.095.265 0 .504-.062.715-.184.212-.122.415-.285.61-.486l.566.491c-.554.61-1.255.915-2.104.915-.352 0-.661-.06-.93-.18-.266-.119-.485-.284-.655-.495-.17-.21-.29-.46-.358-.746-.07-.285-.08-.595-.028-.929.044-.333.144-.642.301-.929.158-.286.354-.534.59-.745.236-.211.503-.376.802-.496.3-.119.615-.18.949-.18.396 0 .721.07.976.21.254.137.454.318.6.541.144.223.235.475.272.754.039.28.039.566 0 .855l-.047.301h-3.594zM210.6 16.838h-1.222l-.279 2.029c-.017.126-.032.25-.041.372-.01.123-.002.233.024.33.024.099.076.177.154.236.08.06.2.09.364.09.1 0 .206-.01.316-.029.11-.017.212-.053.307-.103l-.114.774c-.058.032-.122.056-.194.075-.074.019-.146.033-.218.042-.072.01-.142.018-.21.024-.065.006-.12.01-.165.01-.329 0-.577-.045-.744-.137-.167-.091-.284-.21-.35-.354-.067-.144-.095-.307-.086-.486.01-.18.028-.36.052-.542l.33-2.331h-.98l.103-.736h.982l.179-1.255h.849l-.176 1.255h1.223l-.104.736zM213.882 18.423c-.202 0-.41.011-.625.034-.215.022-.414.064-.597.126-.182.064-.338.152-.464.265-.126.113-.202.258-.228.434-.037.257.023.444.18.557.158.113.386.17.683.17.233 0 .437-.04.61-.118.175-.08.321-.182.44-.307.122-.126.214-.266.28-.42.067-.154.11-.307.128-.458l.048-.283h-.455zm-2.149-1.774c.27-.22.571-.385.9-.495.33-.11.654-.165.968-.165.328 0 .604.04.83.122.227.082.406.193.538.331.133.139.22.298.264.476.045.18.053.367.028.562l-.32 2.283c-.026.157-.044.302-.057.434-.013.132-.019.258-.019.378h-.755c.006-.114.014-.227.024-.34.01-.113.023-.226.043-.34h-.02c-.232.29-.485.494-.759.613-.274.12-.58.18-.92.18-.208 0-.4-.028-.58-.085-.18-.056-.332-.142-.457-.255-.127-.113-.22-.253-.28-.42-.06-.167-.073-.36-.042-.58.039-.289.135-.532.293-.727.157-.194.357-.353.599-.476s.516-.211.821-.264c.305-.053.627-.08.967-.08h.623l.028-.19c.018-.112.015-.225-.014-.338-.029-.114-.08-.216-.156-.307-.075-.091-.175-.164-.302-.218-.125-.053-.28-.08-.463-.08-.163 0-.309.016-.437.048-.13.031-.246.07-.35.117-.103.048-.201.103-.292.166-.092.063-.181.122-.27.18l-.433-.53zM217.397 13.99L216.653 13.99 216.653 13.696 218.453 13.696 218.453 13.99 217.71 13.99 217.71 16.004 217.397 16.004zM219.024 13.696L219.491 13.696 220.223 15.444 220.237 15.444 220.964 13.696 221.43 13.696 221.43 16.004 221.117 16.004 221.117 14.107 221.111 14.107 220.331 16.004 220.122 16.004 219.344 14.107 219.337 14.107 219.337 16.004 219.024 16.004z"/>
    </g>
</svg>
