<svg xmlns="http://www.w3.org/2000/svg" width="15" height="9" viewBox="0 0 15 9">
    <path fill="#424242" fill-opacity=".1" fill-rule="nonzero" d="M14.375 0a.6.6 0 0 1 .45.18c.116.121.175.275.175.463v4.74a.944.944 0 0 1-.273.684.892.892 0 0 1-.665.281.892.892 0 0 1-.664-.281l-1.25-1.286-3.75 3.857C8.138 8.88 7.838 9 7.5 9c-.339 0-.638-.12-.898-.362L3.75 5.665 1.953 7.513a.61.61 0 0 1-.45.201.61.61 0 0 1-.448-.2l-.86-.885a.644.644 0 0 1 0-.924l2.657-2.772c.26-.241.56-.362.898-.362.339 0 .638.121.898.362L7.5 5.906l2.852-2.973-1.25-1.286a.944.944 0 0 1-.274-.683c0-.268.091-.495.274-.683A.892.892 0 0 1 9.766 0h4.609z"/>
</svg>
