<?xml version="1.0" encoding="UTF-8"?>
<svg width="194px" height="30px" viewBox="0 0 194 30" version="1.1" xmlns="http://www.w3.org/2000/svg" xmlns:xlink="http://www.w3.org/1999/xlink">
    <title>6D5A35F2-A91D-471F-846D-BF77766F7D9B</title>
    <g id="Page-1" stroke="none" stroke-width="1" fill="none" fill-rule="evenodd">
        <g id="BIT_BRI_Home2---Desktop" transform="translate(-563.000000, -1033.000000)" fill-rule="nonzero">
            <g id="tutor-logo" transform="translate(563.000000, 1033.000000)">
                <path d="M47.4512195,6.58536585 C47.4039684,7.43670269 46.6784644,8.09030995 45.8268293,8.04878049 L9.62926829,6.31463415 C8.77793146,6.26738308 8.1243242,5.54187902 8.16585366,4.6902439 L8.30487805,1.46341463 C8.35212911,0.612077801 9.07763318,-0.0415294632 9.92926829,1.73255507e-16 L46.097561,1.7195122 C46.9488978,1.76676326 47.6025051,2.49226732 47.5609756,3.34390244 L47.4512195,6.58536585 Z" id="Path" fill="#78B042"></path>
                <rect id="Rectangle" fill="#5F6062" x="4.25121951" y="12.7829268" width="31.302439" height="6.46097561" rx="1.27"></rect>
                <path d="M44.6341463,23.2902439 C44.6460736,23.5328921 44.560975,23.7703165 44.3976234,23.9501405 C44.2342718,24.1299645 44.0060897,24.2374123 43.7634146,24.2487805 L10.5439024,25.2878049 C10.3013174,25.2917173 10.0671169,25.1990868 9.89283845,25.0302975 C9.71856,24.8615081 9.61848446,24.630391 9.61463415,24.3878049 L9.51219512,21.6512195 C9.50026782,21.4085713 9.58536645,21.1711469 9.74871805,20.9913229 C9.91206964,20.8114989 10.1402518,20.7040511 10.3829268,20.6926829 L43.602439,19.6536585 C43.8450241,19.6497461 44.0792246,19.7423766 44.253503,19.9111659 C44.4277815,20.0799553 44.527857,20.3110725 44.5317073,20.5536585 L44.6341463,23.2902439 Z" id="Path" fill="#F4CF1C"></path>
                <path d="M40.1487805,28.8512195 C40.1566567,29.0911821 40.0683269,29.3243445 39.9034339,29.4988563 C39.7385409,29.673368 39.5107552,29.7747611 39.2707317,29.7804878 L7.56585366,29.7804878 C7.32583019,29.7747611 7.09804451,29.673368 6.93315151,29.4988563 C6.7682585,29.3243445 6.67992871,29.0911821 6.68780488,28.8512195 L6.68780488,27.0219512 C6.67548911,26.5235735 7.06757837,26.1086124 7.56585366,26.0926829 L39.2707317,26.0926829 C39.769007,26.1086124 40.1610963,26.5235735 40.1487805,27.0219512 L40.1487805,28.8512195 Z" id="Path" fill="#242F66"></path>
                <path d="M40.9756098,10.5731707 C40.9756098,10.9536585 40.4121951,11.2609756 39.7243902,11.2609756 L1.25121951,11.2609756 C0.563414634,11.2536585 0,10.9756098 0,10.5731707 L0,9.1097561 C0,8.72926829 0.563414634,8.42195122 1.25121951,8.42195122 L39.7097561,8.42195122 C40.404878,8.42195122 40.9609756,8.72926829 40.9609756,9.1097561 L40.9756098,10.5731707 Z" id="Path" fill="#F47641"></path>
                <path d="M58.8365854,11.9707317 C59.9307981,11.9207856 60.9958863,12.3315636 61.7731933,13.1033084 C62.5505002,13.8750533 62.9689163,14.9371641 62.9268293,16.0317073 C62.9901463,17.5223485 62.2309724,18.9276714 60.9495603,19.6918723 C59.6681481,20.4560731 58.0708763,20.4560731 56.7894641,19.6918723 C55.508052,18.9276714 54.7488781,17.5223485 54.8121951,16.0317073 C54.7712445,14.9490345 55.1808327,13.8978079 55.943471,13.1282365 C56.7061093,12.3586651 57.7535863,11.9395805 58.8365854,11.9707317 Z M58.8365854,19.1853659 C59.6703602,19.2049378 60.4744812,18.8756966 61.0551134,18.2770066 C61.6357455,17.6783165 61.9402125,16.864492 61.895122,16.0317073 C61.9502984,14.9046341 61.3804103,13.8387405 60.4124965,13.2586702 C59.4445827,12.6786 58.2359051,12.6786 57.2679913,13.2586702 C56.3000775,13.8387405 55.7301894,14.9046341 55.7853659,16.0317073 C55.7403911,16.8631934 56.0438818,17.6758223 56.6228909,18.2742706 C57.2018999,18.8727188 58.0040678,19.2028689 58.8365854,19.1853659 L58.8365854,19.1853659 Z" id="Shape" fill="#5F6062"></path>
                <path d="M64.9170732,12.1756098 L65.9195122,12.1756098 L65.9195122,13.5292683 L65.9195122,13.5292683 C66.6114845,12.5132542 67.779119,11.9266701 69.0073171,11.9780488 C70.0952401,11.9366342 71.1512681,12.3501499 71.9217969,13.1192904 C72.6923257,13.8884308 73.1077452,14.9437114 73.0682927,16.0317073 C73.1098334,17.1209493 72.6953369,18.1781866 71.9245666,18.9489569 C71.1537963,19.7197271 70.096559,20.1342237 69.0073171,20.0926829 C67.779119,20.1440616 66.6114845,19.5574775 65.9195122,18.5414634 L65.9195122,18.5414634 L65.9195122,23.7 L64.9170732,23.7 L64.9170732,12.1756098 Z M69.0439024,19.1853659 C69.8776772,19.2049378 70.6817983,18.8756966 71.2624304,18.2770066 C71.8430626,17.6783165 72.1475296,16.864492 72.102439,16.0317073 C72.1475296,15.1989227 71.8430626,14.3850981 71.2624304,13.7864081 C70.6817983,13.187718 69.8776772,12.8584768 69.0439024,12.8780488 C67.3001644,12.8780488 65.8865854,14.2916278 65.8865854,16.0353659 C65.8865854,17.7791039 67.3001644,19.1926829 69.0439024,19.1926829 L69.0439024,19.1853659 Z" id="Shape" fill="#5F6062"></path>
                <path d="M82.1487805,18.4390244 C81.402707,19.536272 80.1371723,20.1634888 78.8121951,20.0926829 C76.4560976,20.0926829 74.904878,18.4097561 74.904878,16.0170732 C74.848358,14.96136 75.2302643,13.9291597 75.9603185,13.1644729 C76.6903727,12.3997862 77.7037776,11.9704841 78.7609756,11.9780488 C79.734912,11.9348632 80.6828292,12.2992776 81.3770251,12.9837548 C82.0712211,13.668232 82.4489629,14.6109174 82.4195122,15.5853659 L82.4195122,16.3170732 L75.9365854,16.3170732 C75.9225557,17.097533 76.2264099,17.8501628 76.7783675,18.4021203 C77.330325,18.9540779 78.0829548,19.2579321 78.8634146,19.2439024 C79.9013568,19.2498205 80.8734955,18.7362896 81.4536585,17.8756098 L82.1487805,18.4390244 Z M81.4170732,15.3804878 C81.3654058,13.9543143 80.1728576,12.8369129 78.7463415,12.8780488 C77.3095668,12.8767982 76.094722,13.9413529 75.9073171,15.3658537 L81.4170732,15.3804878 Z" id="Shape" fill="#5F6062"></path>
                <path d="M84.6219512,14.3414634 C84.6219512,13.7707317 84.5341463,12.5707317 84.5341463,12.1463415 L85.5365854,12.1463415 C85.5365854,12.7097561 85.5365854,13.3463415 85.602439,13.5 L85.6536585,13.5 C86.1638779,12.5192208 87.1900354,11.916602 88.295122,11.9487805 C90.702439,11.9487805 91.2219512,13.5878049 91.2219512,15.2707317 L91.2219512,19.8658537 L90.2195122,19.8658537 L90.2195122,15.3658537 C90.2195122,14.1146341 89.8682927,12.8926829 88.2804878,12.8926829 C86.6926829,12.8926829 85.6097561,13.902439 85.6097561,16.0317073 L85.6097561,19.8878049 L84.6073171,19.8878049 L84.6219512,14.3414634 Z" id="Path" fill="#5F6062"></path>
                <path d="M97.9829268,14.0926829 C97.6358939,13.5654509 97.0406995,13.2553962 96.4097561,13.2731707 C95.8756098,13.2731707 95.2390244,13.5219512 95.2390244,14.1219512 C95.2390244,15.5853659 99.5634146,14.3926829 99.5634146,17.5097561 C99.5634146,19.4121951 97.7414634,20.0780488 96.1097561,20.0780488 C94.935515,20.1554686 93.7885666,19.7015241 92.9853659,18.8414634 L94.3243902,17.5902439 C94.7740479,18.1931885 95.4749673,18.5571274 96.2268293,18.5780488 C96.8121951,18.5780488 97.5658537,18.2926829 97.5658537,17.6560976 C97.5658537,16.002439 93.2414634,17.304878 93.2414634,14.2463415 C93.2414634,12.4609756 94.8439024,11.6560976 96.4609756,11.6560976 C97.5515611,11.591229 98.6089636,12.0440142 99.3146341,12.8780488 L97.9829268,14.0926829 Z" id="Path" fill="#5F6062"></path>
                <path d="M100.185366,13.5731707 L100.185366,11.8756098 L101.839024,11.8756098 L101.839024,9.54878049 L103.843902,9.54878049 L103.843902,11.8682927 L106.039024,11.8682927 L106.039024,13.5731707 L103.843902,13.5731707 L103.843902,17.0780488 C103.843902,17.8829268 104.078049,18.3804878 104.963415,18.3804878 C105.34028,18.3973944 105.714639,18.311393 106.046341,18.1317073 L106.046341,19.8219512 C105.539304,20.0130786 105.000261,20.1049891 104.458537,20.0926829 C102.336585,20.0926829 101.839024,19.1414634 101.839024,17.2536585 L101.839024,13.595122 L100.185366,13.5731707 Z" id="Path" fill="#5F6062"></path>
                <path d="M112.631707,18.7902439 L112.580488,18.7902439 C112.018049,19.6514835 111.039343,20.1478078 110.012195,20.0926829 C108.54878,20.0926829 107.085366,19.2731707 107.085366,17.6853659 C107.085366,15.0804878 110.121951,14.897561 112.126829,14.897561 L112.631707,14.897561 L112.631707,14.6780488 C112.631707,13.6902439 111.863415,13.1780488 110.795122,13.1780488 C110.003475,13.1780739 109.240792,13.4758337 108.658537,14.0121951 L107.604878,12.9585366 C108.525925,12.1030131 109.751441,11.6523394 111.007317,11.7073171 C114.431707,11.7073171 114.431707,14.1804878 114.431707,15.3146341 L114.431707,19.9243902 L112.631707,19.9243902 L112.631707,18.7902439 Z M112.514634,16.302439 L112.097561,16.302439 C110.992683,16.302439 109.090244,16.3829268 109.090244,17.5390244 C109.090244,18.2707317 109.821951,18.5926829 110.495122,18.5926829 C111.863415,18.5926829 112.514634,17.8609756 112.514634,16.7560976 L112.514634,16.302439 Z" id="Shape" fill="#5F6062"></path>
                <polygon id="Path" fill="#5F6062" points="118.660976 15.5780488 115.887805 11.8682927 118.32439 11.8682927 119.926829 14.2756098 121.660976 11.8682927 123.95122 11.8682927 121.214634 15.5780488 124.434146 19.8878049 121.997561 19.8878049 119.912195 17.0121951 117.804878 19.8878049 115.434146 19.8878049"></polygon>
                <polygon id="Path" fill="#F47641" points="136.404878 12.7390244 133.756098 12.7390244 133.756098 19.8585366 132.804878 19.8585366 132.804878 12.7390244 130.163415 12.7390244 130.163415 11.8609756 136.404878 11.8609756"></polygon>
                <path d="M143.926829,16.8292683 C143.930003,17.2492945 143.875844,17.6677893 143.765854,18.0731707 C143.664059,18.4485995 143.487341,18.7995454 143.246341,19.104878 C142.9991,19.4191282 142.68055,19.6699549 142.317073,19.8365854 C141.416393,20.190207 140.415315,20.190207 139.514634,19.8365854 C139.151009,19.6701971 138.832406,19.4193288 138.585366,19.104878 C138.344366,18.7995454 138.167648,18.4485995 138.065854,18.0731707 C137.955863,17.6677893 137.901705,17.2492945 137.904878,16.8292683 L137.904878,11.8609756 L138.856098,11.8609756 L138.856098,16.6756098 C138.855677,16.9906232 138.890031,17.3047205 138.958537,17.6121951 C139.018982,17.8993095 139.133184,18.1724015 139.295122,18.4170732 C139.455463,18.6518018 139.671724,18.8429157 139.92439,18.9731707 C140.558531,19.2518855 141.280493,19.2518855 141.914634,18.9731707 C142.167127,18.8426613 142.38333,18.6515977 142.543902,18.4170732 C142.705685,18.1723185 142.819875,17.8992571 142.880488,17.6121951 C142.948993,17.3047205 142.983348,16.9906232 142.982927,16.6756098 L142.982927,11.8609756 L143.934146,11.8609756 L143.926829,16.8292683 Z" id="Path" fill="#F47641"></path>
                <polygon id="Path" fill="#F47641" points="151.660976 12.7390244 149.019512 12.7390244 149.019512 19.8585366 148.068293 19.8585366 148.068293 12.7390244 145.426829 12.7390244 145.426829 11.8609756 151.668293 11.8609756"></polygon>
                <path d="M156.9,20.0634146 C156.326135,20.0705732 155.756569,19.963624 155.22439,19.7487805 C154.728958,19.5470279 154.278719,19.2485272 153.9,18.8707317 C153.524764,18.497034 153.228633,18.0515929 153.029268,17.5609756 C152.614703,16.4798426 152.614703,15.283572 153.029268,14.202439 C153.226025,13.7039912 153.522298,13.2508691 153.9,12.8707317 C154.278967,12.49324 154.729141,12.1947823 155.22439,11.9926829 C156.304072,11.5703508 157.503245,11.5703508 158.582927,11.9926829 C159.078176,12.1947823 159.52835,12.49324 159.907317,12.8707317 C160.285019,13.2508691 160.581292,13.7039912 160.778049,14.202439 C161.192614,15.283572 161.192614,16.4798426 160.778049,17.5609756 C160.581292,18.0594234 160.285019,18.5125455 159.907317,18.8926829 C159.528598,19.2704784 159.078359,19.5689791 158.582927,19.7707317 C158.046939,19.979031 157.474842,20.0785262 156.9,20.0634146 L156.9,20.0634146 Z M156.9,19.1853659 C157.340144,19.1915891 157.776595,19.104299 158.180488,18.9292683 C158.561552,18.7571625 158.90286,18.5080324 159.182927,18.197561 C159.465275,17.8911361 159.686329,17.5334752 159.834146,17.1439024 C160.143414,16.308182 160.143414,15.389379 159.834146,14.5536585 C159.686492,14.1640054 159.46542,13.806315 159.182927,13.5 C158.90286,13.1895286 158.561552,12.9403985 158.180488,12.7682927 C157.359513,12.4214875 156.43317,12.4214875 155.612195,12.7682927 C155.231131,12.9403985 154.889823,13.1895286 154.609756,13.5 C154.327263,13.806315 154.10619,14.1640054 153.958537,14.5536585 C153.649269,15.389379 153.649269,16.308182 153.958537,17.1439024 C154.106354,17.5334752 154.327408,17.8911361 154.609756,18.197561 C154.889823,18.5080324 155.231131,18.7571625 155.612195,18.9292683 C156.018343,19.1053184 156.457397,19.1926302 156.9,19.1853659 Z" id="Shape" fill="#F47641"></path>
                <path d="M163.017073,11.8609605 L165.065854,11.8609605 C165.449743,11.8603005 165.833337,11.88229 166.214634,11.9268293 C166.570505,11.9641544 166.917151,12.0631962 167.239024,12.2195122 C167.537685,12.3692661 167.790454,12.5967587 167.970732,12.8780488 C168.176804,13.2352618 168.275859,13.6441795 168.256098,14.0560976 C168.279325,14.5845293 168.086482,15.0996558 167.721951,15.4829268 C167.322446,15.8659988 166.808412,16.1075949 166.258537,16.1707317 L168.526829,19.8292683 L167.363415,19.8292683 L165.168293,16.2365854 L163.946341,16.2365854 L163.946341,19.8292683 L162.995122,19.8292683 L163.017073,11.8609605 Z M163.968293,15.3878049 L164.817073,15.3878049 C165.080488,15.3878049 165.35122,15.3878049 165.636585,15.3878049 C165.903197,15.3765485 166.166835,15.3272704 166.419512,15.2414634 C166.645348,15.1659333 166.847263,15.0321645 167.004878,14.8536585 C167.166229,14.644714 167.249097,14.3857513 167.239024,14.1219512 C167.250745,13.8812205 167.192278,13.6422691 167.070732,13.4341463 C166.96057,13.2625387 166.806448,13.1235757 166.62439,13.0317073 C166.429172,12.935324 166.218753,12.873436 166.002439,12.8487805 C165.77195,12.8188714 165.539738,12.8042054 165.307317,12.8048559 L163.97561,12.8048559 L163.968293,15.3878049 Z" id="Shape" fill="#F47641"></path>
                <path d="M190.039024,12.3658537 L189.402439,12.3658537 L189.402439,12.0439024 L190.97561,12.0439024 L190.97561,12.3658537 L190.339024,12.3658537 L190.339024,14.0634146 L190.017073,14.0634146 L190.039024,12.3658537 Z M191.407317,12.0439024 L191.919512,12.0439024 L192.519512,13.5804878 L193.126829,12.0439024 L193.62439,12.0439024 L193.62439,14.0634146 L193.302439,14.0634146 L193.302439,12.3658537 L193.302439,12.3658537 L192.636585,14.0634146 L192.439024,14.0634146 L191.707317,12.3658537 L191.707317,12.3658537 L191.707317,14.0634146 L191.385366,14.0634146 L191.407317,12.0439024 Z" id="Shape" fill="#F47641"></path>
                <path d="M172.74878,11.795122 L173.480488,11.795122 L173.070732,14.7219512 L173.070732,14.7219512 C173.436792,14.2954741 173.972127,14.0518967 174.534146,14.0560976 C175.063057,14.015928 175.579344,14.2307907 175.923592,14.6343419 C176.26784,15.0378931 176.398642,15.5815927 176.27561,16.097561 C176.152124,17.2698018 175.164092,18.1599777 173.985366,18.1609756 C173.474256,18.1833513 172.990645,17.9289667 172.719512,17.495122 L172.719512,17.495122 L172.639024,18.0585366 L171.907317,18.0585366 L172.74878,11.795122 Z M175.478049,16.097561 C175.573467,15.7624211 175.500619,15.4018225 175.282584,15.1300059 C175.06455,14.8581894 174.728347,14.7088382 174.380488,14.7292683 C173.614948,14.7450008 172.984144,15.334803 172.917073,16.097561 C172.824665,16.4336893 172.899716,16.79375 173.11872,17.0649672 C173.337724,17.3361843 173.6739,17.485391 174.021951,17.4658537 C174.791617,17.4636328 175.428024,16.8656023 175.478049,16.097561 Z" id="Shape" fill="#F47641"></path>
                <path d="M177.746341,16.3756098 C177.643902,17.0634146 178.221951,17.5170732 178.909756,17.5170732 C179.363424,17.4972917 179.786913,17.2842156 180.073171,16.9317073 L180.578049,17.3634146 C180.108844,17.8944486 179.427824,18.1893782 178.719512,18.1682927 C178.185059,18.2079932 177.664072,17.9885181 177.31913,17.5783569 C176.974189,17.1681956 176.847296,16.6172921 176.978049,16.097561 C177.126124,14.9380191 178.099641,14.0609205 179.268293,14.0341463 C180.65122,14.0341463 181.031707,15.095122 180.892683,16.104878 L180.892683,16.3682927 L177.746341,16.3756098 Z M180.182927,15.7756098 C180.259067,15.4850557 180.187696,15.1756365 179.991981,14.9477889 C179.796265,14.7199413 179.501154,14.6027094 179.202439,14.6341463 C178.529522,14.647976 177.952809,15.1190088 177.804878,15.7756098 L180.182927,15.7756098 Z" id="Shape" fill="#F47641"></path>
                <path d="M184.119512,14.7804878 L183.05122,14.7804878 L182.795122,16.5658537 C182.736585,17.004878 182.670732,17.4731707 183.234146,17.4731707 C183.423938,17.480109 183.61249,17.4398847 183.782927,17.3560976 L183.687805,18.0365854 C183.455152,18.1289358 183.20635,18.1737202 182.956098,18.1682927 C181.8,18.1682927 181.887805,17.4365854 181.97561,16.8365854 L182.268293,14.7878049 L181.463415,14.7878049 L181.55122,14.1439024 L182.414634,14.1439024 L182.560976,13.0390244 L183.292683,13.0390244 L183.146341,14.1439024 L184.214634,14.1439024 L184.119512,14.7804878 Z" id="Path" fill="#F47641"></path>
                <path d="M185.121951,14.6341463 C185.587731,14.2626079 186.165171,14.0589571 186.760976,14.0560976 C187.92439,14.0560976 188.319512,14.6853659 188.22439,15.3658537 L187.946341,17.3707317 C187.909924,17.6131153 187.887934,17.8574479 187.880488,18.102439 L187.214634,18.102439 C187.214634,17.904878 187.214634,17.7073171 187.273171,17.502439 L187.273171,17.502439 C186.937441,17.9745755 186.388903,18.2488446 185.809756,18.2341463 C185.078049,18.2341463 184.507317,17.8170732 184.617073,17.0560976 C184.756098,16.0463415 185.780488,15.695122 186.973171,15.695122 L187.521951,15.695122 L187.521951,15.5268293 C187.580488,15.1170732 187.339024,14.7 186.702439,14.7 C186.269651,14.7064848 185.852818,14.8644155 185.52439,15.1463415 L185.121951,14.6341463 Z M187.009756,16.1926829 C186.278049,16.1926829 185.429268,16.3170732 185.334146,16.9243902 C185.27561,17.3707317 185.57561,17.5609756 186.065854,17.5609756 C186.728831,17.5792519 187.292215,17.0798894 187.353659,16.4195122 L187.353659,16.1707317 L187.009756,16.1926829 Z" id="Shape" fill="#F47641"></path>
            </g>
        </g>
    </g>
</svg>