<svg xmlns="http://www.w3.org/2000/svg" xmlns:xlink="http://www.w3.org/1999/xlink" width="531" height="477" viewBox="0 0 531 477">
    <defs>
        <path id="a" d="M5.232 2.614V.336H.504v2.278h4.728z"/>
        <path id="c" d="M39.915.195H.329v8.134h39.586V.195z"/>
        <path id="e" d="M.17 3.957h33.568V.225H.17z"/>
        <path id="g" d="M32.703.158H.269v6.608h32.434V.158z"/>
        <path id="i" d="M.14 3.215h27.502V.183H.139z"/>
    </defs>
    <g fill="none" fill-rule="evenodd">
        <path fill="#0C9372" d="M256.894 597.03c-26.43 30.449-49.23 55.264-61.71 63.252a5748973.14 5748973.14 0 0 0-92.688 55.943c-12.613 7.975-22.627-11.16-32.487-52.542-23.244-99.318-71.864-207.53-147.874-316.638-31.25-45.254-58.093-99.228-61.945-138.415-9.08-95.061-11.047-177.929-3.691-254.068 2.607-31.454 38.347-45.688 91.444-38.903l382.062 49.709c52.969 6.818 72.01-18.83 123.422 72.168 51.412 90.998 77.565 201.548 77.565 258.074 0 56.527-25.082 67.426-58.723 94.442-81.252 65.519-152.306 132.69-215.375 206.979z"/>
        <path fill="#3F3D56" fill-rule="nonzero" d="M356.463 231.871V453.84c0 12.79-10.347 23.16-23.11 23.16H194.968a23.076 23.076 0 0 1-16.338-6.785 23.187 23.187 0 0 1-6.765-16.375V124.154c0-12.788 10.344-23.154 23.103-23.154h138.387c12.76 0 23.105 10.365 23.109 23.154V231.87z"/>
        <path fill="#FFF" d="M346 128.677V455.33a14.63 14.63 0 0 1-5.16 11.165 14.679 14.679 0 0 1-9.52 3.506H198.68a14.642 14.642 0 0 1-6.78-1.652 13.712 13.712 0 0 1-1.425-.843A14.688 14.688 0 0 1 184 455.33V128.677A14.676 14.676 0 0 1 198.68 114h19.852v2.547c0 6.674 91.633 6.674 91.633 0V114h21.155A14.676 14.676 0 0 1 346 128.677z"/>
        <path fill="#5E6062" d="M254.918 293.903c0 .442.07.858.21 1.248.14.391.346.731.615 1.02.27.288.595.518.976.687.382.17.81.256 1.281.256.472 0 .898-.086 1.28-.256a2.97 2.97 0 0 0 .977-.687c.27-.289.474-.629.616-1.02.14-.39.21-.806.21-1.248 0-.442-.07-.858-.21-1.25a2.941 2.941 0 0 0-.616-1.018 2.961 2.961 0 0 0-.977-.688 3.108 3.108 0 0 0-1.28-.254c-.471 0-.899.084-1.28.254-.382.17-.708.4-.977.688a2.95 2.95 0 0 0-.615 1.018 3.67 3.67 0 0 0-.21 1.25m-1.01 0c0-.6.1-1.153.303-1.656.202-.504.482-.94.841-1.308.36-.368.792-.654 1.298-.858a4.355 4.355 0 0 1 1.65-.306c.595 0 1.143.102 1.642.306.5.204.932.49 1.297.858.365.368.65.804.85 1.308a4.4 4.4 0 0 1 .304 1.656c0 .6-.1 1.152-.303 1.656-.202.504-.486.94-.85 1.308-.366.37-.798.654-1.298.858-.5.204-1.047.306-1.642.306a4.368 4.368 0 0 1-1.65-.306 3.726 3.726 0 0 1-1.298-.858 3.938 3.938 0 0 1-.841-1.308 4.394 4.394 0 0 1-.304-1.656M265.04 293.903a3.194 3.194 0 0 0 .943 2.268c.293.288.635.518 1.028.687.393.17.82.256 1.282.256.47 0 .897-.086 1.28-.256.38-.17.707-.399.975-.687.27-.289.475-.629.616-1.02.14-.39.21-.806.21-1.248 0-.442-.07-.858-.21-1.25a2.941 2.941 0 0 0-.616-1.018 2.956 2.956 0 0 0-.975-.688 3.115 3.115 0 0 0-1.28-.254c-.462 0-.889.084-1.282.254a3.21 3.21 0 0 0-1.718 1.706 3.124 3.124 0 0 0-.252 1.25zm-.908-3.923h1.01v1.375h.034c.157-.272.353-.507.589-.705a3.6 3.6 0 0 1 .766-.493 3.82 3.82 0 0 1 .868-.288c.304-.064.6-.094.894-.094.594 0 1.142.102 1.641.306.5.204.932.49 1.297.858.365.368.649.804.851 1.308.202.503.303 1.056.303 1.656 0 .6-.101 1.152-.303 1.656a3.835 3.835 0 0 1-2.148 2.166 4.31 4.31 0 0 1-1.641.306 4.37 4.37 0 0 1-.894-.094 3.787 3.787 0 0 1-.868-.288 3.597 3.597 0 0 1-.766-.493 2.638 2.638 0 0 1-.59-.705h-.033v5.249h-1.01v-11.72zM280.74 293.24c0-.35-.071-.679-.211-.984a2.639 2.639 0 0 0-1.432-1.36 2.735 2.735 0 0 0-1.052-.203c-.55 0-1.009.112-1.373.339a3.013 3.013 0 0 0-.868.782c-.213.294-.365.58-.454.858-.09.277-.135.466-.135.568h5.525zm.775 3.109c-.394.601-.879 1.031-1.458 1.292-.578.26-1.215.39-1.911.39a4.13 4.13 0 0 1-1.617-.306 3.622 3.622 0 0 1-1.247-.858 3.767 3.767 0 0 1-.8-1.308 4.806 4.806 0 0 1-.278-1.673c0-.588.095-1.133.286-1.63a3.806 3.806 0 0 1 2.039-2.167 3.82 3.82 0 0 1 1.566-.314c.596 0 1.12.105 1.575.314.455.21.837.488 1.146.833.308.345.542.738.7 1.18.156.442.234.89.234 1.343v.712h-6.535c0 .215.042.492.126.825a2.927 2.927 0 0 0 1.364 1.791c.377.227.863.34 1.458.34.516 0 1.015-.124 1.499-.373a2.711 2.711 0 0 0 1.112-1.02l.741.629zM284.008 292.187c0-.147-.006-.325-.017-.535-.011-.21-.02-.422-.026-.637a17.054 17.054 0 0 0-.025-.602 7.782 7.782 0 0 1-.017-.434h1.011c.011.294.02.577.025.85.006.272.02.446.042.526h.05c.203-.43.54-.801 1.011-1.113.472-.312 1.022-.467 1.652-.467.605 0 1.1.096 1.482.289.381.192.682.444.9.756.22.31.371.67.455 1.078.084.408.126.827.126 1.258v4.67h-1.01v-4.62a5.01 5.01 0 0 0-.084-.925c-.056-.3-.155-.57-.295-.807a1.55 1.55 0 0 0-.59-.57c-.252-.141-.58-.212-.984-.212-.371 0-.722.066-1.053.195-.332.131-.618.329-.86.595-.241.267-.432.601-.572 1.003-.14.402-.21.875-.21 1.419v3.922h-1.011v-5.639zM297.483 291.932c-.394-.554-.921-.832-1.583-.832-.27 0-.534.068-.792.204-.258.136-.388.357-.388.662 0 .249.107.431.32.544.214.113.483.21.808.29.327.078.677.16 1.054.245.376.085.727.216 1.052.39.327.177.596.417.81.722.213.307.32.726.32 1.257 0 .488-.105.899-.313 1.233a2.452 2.452 0 0 1-.809.806c-.33.204-.704.35-1.12.442-.415.09-.83.136-1.246.136a5.33 5.33 0 0 1-1.735-.272c-.528-.18-1-.51-1.414-.985l1.346-1.275c.259.295.537.537.835.723.297.186.66.28 1.086.28.146 0 .298-.017.455-.05.157-.035.303-.091.437-.17.136-.08.245-.178.33-.298a.7.7 0 0 0 .125-.416c0-.284-.106-.492-.32-.628a2.784 2.784 0 0 0-.808-.332 18.12 18.12 0 0 0-1.053-.239 4.018 4.018 0 0 1-1.053-.356 2.214 2.214 0 0 1-.809-.688c-.212-.294-.319-.702-.319-1.222 0-.454.093-.847.278-1.181.185-.335.43-.609.733-.824a3.146 3.146 0 0 1 1.044-.475 4.73 4.73 0 0 1 2.796.127c.528.187.954.506 1.28.96l-1.347 1.222zM299.706 291.406v-1.733h1.667v-2.361h2.022v2.36h2.223v1.734h-2.223v3.568c0 .407.076.73.228.967.15.238.452.357.9.357.18 0 .376-.019.59-.06.213-.039.382-.105.505-.195v1.716a2.579 2.579 0 0 1-.783.213c-.31.04-.581.059-.817.059-.54 0-.98-.06-1.323-.18a1.724 1.724 0 0 1-.808-.542 2.077 2.077 0 0 1-.404-.91 6.449 6.449 0 0 1-.11-1.256v-3.737h-1.667zM312.137 294.175h-.42c-.282 0-.596.012-.944.034a5.023 5.023 0 0 0-.986.16c-.308.087-.57.21-.782.375-.216.165-.321.394-.321.688 0 .192.042.353.126.484.085.131.195.241.328.332.135.089.287.155.456.195.168.04.337.059.504.059.697 0 1.21-.167 1.542-.501.331-.334.497-.79.497-1.369v-.457zm.118 2.532h-.05c-.294.463-.664.8-1.112 1.01-.45.21-.944.314-1.483.314-.37 0-.732-.05-1.086-.154a2.92 2.92 0 0 1-.943-.458 2.324 2.324 0 0 1-.665-.764 2.183 2.183 0 0 1-.253-1.07c0-.442.079-.819.235-1.13.158-.31.368-.571.632-.782.264-.209.57-.375.918-.501.348-.124.71-.217 1.086-.28a9.514 9.514 0 0 1 1.137-.118c.382-.018.742-.026 1.078-.026h.506v-.221c0-.51-.174-.892-.522-1.146-.349-.256-.792-.383-1.331-.383a3.106 3.106 0 0 0-2.155.85l-1.063-1.07a3.93 3.93 0 0 1 1.575-1.003 5.759 5.759 0 0 1 1.862-.306c.572 0 1.055.065 1.448.195.394.131.72.298.978.502.257.203.457.439.598.705.14.267.24.535.303.806.061.273.099.536.11.79.01.255.016.48.016.671v4.688h-1.82v-1.12zM318.336 293.445l-2.797-3.772H318l1.617 2.446 1.751-2.446h2.308l-2.762 3.772 3.25 4.381h-2.459l-2.105-2.92-2.123 2.92h-2.392z"/>
        <g transform="translate(324.575 289.337)">
            <mask id="b" fill="#fff">
                <use xlink:href="#a"/>
            </mask>
            <path fill="#5E6062" d="M2.748.336h.577l.673 1.731.676-1.731h.558v2.278H4.87V.7h-.01l-.747 1.914h-.246L3.12.7h-.01v1.914h-.362V.336zM1.218.7H.503V.336h1.787V.7H1.58v1.914h-.362V.7z" mask="url(#b)"/>
        </g>
        <g transform="translate(206.848 277.465)">
            <mask id="d" fill="#fff">
                <use xlink:href="#c"/>
            </mask>
            <path fill="#77AF42" d="M39.758 6.833a1.56 1.56 0 0 1-1.628 1.494L1.808 6.588A1.567 1.567 0 0 1 .33 4.944L.485 1.69A1.559 1.559 0 0 1 2.109.196l36.322 1.74a1.57 1.57 0 0 1 1.482 1.646l-.155 3.251z" mask="url(#d)"/>
        </g>
        <path fill="#5E6062" d="M234.67 296.2a.94.94 0 0 1-.934.945h-29.541a.938.938 0 0 1-.933-.944v-4.658c0-.52.418-.939.933-.939h29.54c.517 0 .936.42.936.939v4.658z"/>
        <path fill="#F4CF18" d="M243.754 301.24c.016.518-.373.954-.873.971l-33.328 1.049c-.497.013-.916-.397-.932-.915l-.087-2.767c-.016-.52.377-.953.877-.97l33.327-1.049c.499-.016.916.395.932.913l.084 2.768z"/>
        <g transform="translate(205.54 303.848)">
            <mask id="f" fill="#fff">
                <use xlink:href="#e"/>
            </mask>
            <path fill="#00246A" d="M33.738 3.014c0 .52-.394.944-.877.944H1.046c-.483 0-.876-.424-.876-.944V1.166c0-.519.393-.94.876-.94H32.86c.483 0 .877.421.877.94v1.848z" mask="url(#f)"/>
        </g>
        <path fill="#F47541" d="M240.099 288.36c0 .382-.566.696-1.261.696h-38.58c-.694 0-1.258-.314-1.258-.696v-1.508c0-.383.564-.695 1.258-.695h38.58c.695 0 1.26.312 1.26.695v1.508z"/>
        <g transform="translate(353 182)">
            <path fill="#F8BE8E" fill-rule="nonzero" d="M50.304 38.976s-1.554 5.717 1.553 7.797C54.964 48.852 56 58.728 56 58.728L49.786 75.88 33.214 79 27 67.045V49.372s2.071-8.837 1.554-11.436c-.518-2.6 21.75 1.04 21.75 1.04z"/>
            <path fill="#000" fill-rule="nonzero" d="M50.304 38.976s-1.554 5.717 1.553 7.797C54.964 48.852 56 58.728 56 58.728L49.786 75.88 33.214 79 27 67.045V49.372s2.071-8.837 1.554-11.436c-.518-2.6 21.75 1.04 21.75 1.04z" opacity=".2"/>
            <path fill="#2F2E41" fill-rule="nonzero" d="M66.835 138l13.697 2.616s1.053 15.17 0 18.832c-1.054 3.662-2.108 7.847-1.054 8.893 1.054 1.046-4.741 27.725-4.214 29.295.526 1.57 1.58 6.277 1.053 9.416-.527 3.139-2.107 2.093-1.053 5.231 1.053 3.139 2.107 3.662 1.053 5.755-1.053 2.092-6.322 52.835-7.902 53.358-1.58.523-15.804 1.046-15.804 0s4.741-8.893 3.16-10.986c-1.58-2.092.527-37.664.527-39.234 0-1.57 3.161-4.185 1.58-5.23-1.58-1.047-2.633-2.093-2.106-3.663.526-1.57 1.58-2.092.526-3.662-1.053-1.569-1.053-32.956-4.741-34.003 0 0-4.741 23.018-3.16 28.772 1.58 5.754-.528 7.847-.528 7.847l7.376 6.277-10.01 18.833L34.7 224.315s0-3.139-2.107-3.662c-2.107-.523-3.161-1.046-3.161-2.615 0-1.57-3.688-11.51-3.688-11.51s-10.536-32.956-5.268-49.696c5.268-16.74 7.298-16.185 7.298-16.185L66.835 138z"/>
            <path fill="#F8BE8E" fill-rule="nonzero" d="M75.296 246L81 252.4 78.926 270h-4.667L67 253.466z"/>
            <path fill="#2F2E41" fill-rule="nonzero" d="M79.084 257.303s-2.087 4.682-3.653 3.642c-1.566-1.04-2.085-2.602-4.435-2.602-2.35 0-4.437.52-3.915 1.561.522 1.04 6.784 12.487 6.784 12.487a14.667 14.667 0 0 1 0 12.487c-3.131 6.764 8.35 10.406 10.438 3.122 2.088-7.284 2.61-15.609 2.088-18.73-.522-3.122 2.609-19.251 2.609-19.251s-8.431-3.875-11-4.019c0 0 2.128 9.222 1.084 11.303zM64.874 269l2.117 6.226s0 6.226 2.116 9.339c2.116 3.113 4.233 9.858-4.233 10.377-8.465.519-12.169-2.594-12.169-2.594s1.588-4.151 0-5.708c-1.587-1.556 0-4.67 0-4.67l1.588-12.451L64.874 269z"/>
            <path fill="#2F2E41" fill-rule="nonzero" d="M50.791 217h4.702L79 247.975S74.82 257.95 68.552 259c0 0-1.045-.525-5.746-3.675-4.702-3.15-17.239-18.9-17.239-18.9L44 227.5l6.791-10.5z"/>
            <ellipse cx="39" cy="29.5" fill="#F8BE8E" fill-rule="nonzero" rx="17" ry="16.5"/>
            <path fill="#F1F1F1" d="M59.348 51.09L54.13 49s-.521 18.291-10.434 18.291c-9.913 0-20.348-2.613-20.348-7.839 0-5.226-8.348 9.407-8.348 9.407s7.826 52.26 7.304 52.782c-.521.523 5.74 28.22 5.74 28.22s26.608 1.046 35.478-2.612C72.392 143.59 75 136.797 75 136.797l-3.652-45.989-7.305-35.537-4.695-4.18z"/>
            <g transform="rotate(-10 499.917 -148.892)">
                <mask id="h" fill="#fff">
                    <use xlink:href="#g"/>
                </mask>
                <path fill="#77AF42" d="M32.574 5.552a1.273 1.273 0 0 1-1.334 1.213L1.482 5.352A1.277 1.277 0 0 1 .27 4.016l.126-2.642A1.273 1.273 0 0 1 1.728.159l29.759 1.414A1.28 1.28 0 0 1 32.7 2.91l-.127 2.642z" mask="url(#h)"/>
            </g>
            <path fill="#5E6062" d="M58.542 95.58a.766.766 0 0 1-.622.888l-23.835 4.203a.765.765 0 0 1-.886-.623l-.657-3.726a.763.763 0 0 1 .62-.884l23.836-4.203a.764.764 0 0 1 .887.618l.657 3.727z"/>
            <path fill="#F4CF18" d="M66.581 98.32a.755.755 0 0 1-.567.9L39.27 104.8a.757.757 0 0 1-.881-.598L37.93 102a.755.755 0 0 1 .57-.9l26.742-5.581c.4-.084.795.185.881.597l.458 2.203z"/>
            <g transform="rotate(-10 622.95 -153.485)">
                <mask id="j" fill="#fff">
                    <use xlink:href="#i"/>
                </mask>
                <path fill="#00246A" d="M27.642 2.449c0 .422-.323.766-.719.766H.857c-.396 0-.718-.344-.718-.766V.947C.14.526.461.183.857.183h26.066c.396 0 .719.343.719.764v1.502z" mask="url(#j)"/>
            </g>
            <path fill="#F47541" d="M61.815 88.534c.054.306-.359.638-.92.736l-31.127 5.49c-.56.098-1.06-.073-1.114-.38l-.213-1.205c-.054-.307.358-.636.918-.735l31.128-5.489c.56-.099 1.061.07 1.115.377l.213 1.206z"/>
            <path fill="#3F3D56" fill-rule="nonzero" d="M51 45.928s2.082-2.088 5.21 0c3.127 2.089 22.415 6.787 22.415 8.354V74.12s.52 3.132-1.043 5.22c-1.564 2.089-5.213 9.92-3.128 13.575 2.085 3.655 9.905 45.943 8.34 51.164-1.563 5.221-5.733 9.92-5.733 9.92s-22.415-47.51-22.415-61.084c0-13.574.217-30.228.217-30.228L51 45.928z"/>
            <path fill="#3F3D56" fill-rule="nonzero" d="M73.604 55h4.688S96 89.073 96 95.888c0 6.814-11.458 44.557-12.5 45.081-1.042.524-4.167-5.766-4.167-5.766l-2.604-20.968s5.208-12.581 3.646-14.678C78.813 97.46 71 81.21 71 81.21L73.604 55zM27.418 46s-6.026 4.185-7.077 5.754c-1.05 1.57-16.8 10.462-17.325 12.555-.525 2.092 12.075 19.878 12.075 19.878s5.25 29.294 5.25 31.387c0 2.092 2.1 37.664 2.1 37.664s21.526 6.277 21.526 2.615.525-55.973-2.625-67.481C38.192 76.863 27.418 46 27.418 46z"/>
            <path fill="#F8BE8E" fill-rule="nonzero" d="M31.148 154s17.358 24.525 8.168 23.991C30.126 177.458 24 156.666 24 156.666L31.148 154z"/>
            <path fill="#3F3D56" fill-rule="nonzero" d="M9.357 63L3.09 64.562s-5.222 45.833-2.089 52.083c3.133 6.25 19.844 46.874 19.844 45.311 0-1.562 14.7-4.347 14.14-5.82-.562-1.471-3.695-7.721-4.74-9.805-1.044-2.083-2.61-4.687-2.089-7.291.523-2.604-5.744-13.75-5.744-13.75s-1.567-6.562-2.089-9.687c-.522-3.125-5.222-37.5-5.222-37.5L9.357 63z"/>
            <path fill="#2F2E41" fill-rule="nonzero" d="M55.577 16.351A4.195 4.195 0 0 0 53.682 14a9.09 9.09 0 0 0-.4-3.104c-1.043-2.93-3.513-2.762-5.843-4.057-1.011-.562-.949-1.059-1.475-1.982a7.546 7.546 0 0 0-2.982-2.892A11.027 11.027 0 0 0 38.14.012c-3.717-.24-6.567 3.083-10.12 4.15-1.565.47-3.247.489-4.822.933-1.574.445-3.144 1.506-3.379 3.05-.108.714.083 1.446-.027 2.159-.218 1.417-1.526 2.41-2.402 3.575-1.936 2.578-1.715 6.22-.166 9.024.328.583.701 1.138 1.116 1.661a9.845 9.845 0 0 0 1.18 3.794c1.548 2.805 4.212 4.9 6.996 6.642a14.97 14.97 0 0 1-.413-2.832c-.04-.319.004-.642.126-.939.31-.616 1.13-.78 1.754-1.117a4.142 4.142 0 0 0 1.838-3.659c.038-1.413-.278-2.83-.122-4.236a2.27 2.27 0 0 1 .834-1.703 3 3 0 0 1 1.571-.356c2.65-.103 5.42-.149 7.757-1.34a11.736 11.736 0 0 1 2.415-1.161c1.987-.493 4.017.83 5.162 2.45 1.145 1.62 1.716 3.549 2.772 5.222 1.057 1.674 2.882 3.166 4.924 2.968.23.002.45-.092.61-.258a.834.834 0 0 0 .112-.494l.114-7.422a10.688 10.688 0 0 0-.393-3.772z"/>
        </g>
    </g>
</svg>
