<svg xmlns="http://www.w3.org/2000/svg" xmlns:xlink="http://www.w3.org/1999/xlink" width="88" height="122" viewBox="0 0 88 122">
    <defs>
        <path id="a" d="M0 0h88v123H0z"/>
        <path id="c" d="M1.15.59V.076H.11V.59h1.04z"/>
        <path id="e" d="M8.77.044H.071V1.88H8.77V.044z"/>
        <path id="g" d="M.037.894h7.375V.05H.037z"/>
        <path id="i" d="M6.022.032H.05v1.34h5.972V.031z"/>
        <path id="k" d="M.026.5h5.11V.028H.025z"/>
    </defs>
    <g fill="none" fill-rule="evenodd" transform="translate(0 -1)">
        <mask id="b" fill="#fff">
            <use xlink:href="#a"/>
        </mask>
        <path fill="#0C9372" d="M26.236 149.767c-5.955 6.854-11.093 12.441-13.905 14.24L-8.555 176.6c-2.842 1.796-5.098-2.512-7.32-11.828-5.238-22.36-16.194-46.72-33.321-71.283-7.042-10.188-13.09-22.339-13.959-31.16-2.045-21.401-2.489-40.057-.831-57.197.587-7.081 8.64-10.286 20.605-8.758C-14.684.104 58.937 3.325 70.522 23.81 82.107 44.297 88 69.184 88 81.91c0 12.725-5.652 15.179-13.232 21.261-18.309 14.75-34.32 29.872-48.532 46.596z" mask="url(#b)"/>
        <g mask="url(#b)">
            <path fill="#3F3D56" fill-rule="nonzero" d="M48 67.585v50.18c0 2.89-2.298 5.235-5.133 5.235H12.131a5.08 5.08 0 0 1-3.628-1.534A5.29 5.29 0 0 1 7 117.764v-74.53C7 40.344 9.297 38 12.131 38h30.736C45.702 38 48 40.343 48 43.234v24.351z"/>
            <path fill="#FFF" d="M46 43.34v74.322c0 .978-.418 1.907-1.146 2.54-.59.515-1.34.798-2.116.798H13.262a3.193 3.193 0 0 1-1.823-.568 3.364 3.364 0 0 1-1.439-2.77V43.339c0-.885.344-1.735.955-2.36A3.224 3.224 0 0 1 13.262 40h4.412v.58c0 1.518 20.363 1.518 20.363 0V40h4.7c.866 0 1.696.351 2.308.978A3.38 3.38 0 0 1 46 43.339z"/>
            <path fill="#5E6062" d="M25.618 80.817c0 .1.016.194.047.282a.654.654 0 0 0 .63.443.667.667 0 0 0 .496-.213.665.665 0 0 0 .136-.23.849.849 0 0 0 .046-.282c0-.1-.016-.194-.046-.282a.651.651 0 0 0-.631-.443.668.668 0 0 0-.496.213.67.67 0 0 0-.135.23.85.85 0 0 0-.047.282m-.222 0c0-.136.022-.26.067-.374a.895.895 0 0 1 .185-.295.82.82 0 0 1 .285-.194.934.934 0 0 1 .362-.07c.131 0 .251.024.361.07a.843.843 0 0 1 .472.489c.045.114.067.238.067.374 0 .135-.022.26-.067.374a.841.841 0 0 1-.472.49.924.924 0 0 1-.36.068.937.937 0 0 1-.363-.07.817.817 0 0 1-.285-.193.892.892 0 0 1-.185-.295 1.017 1.017 0 0 1-.067-.374M27.842 80.817a.719.719 0 0 0 .207.512c.065.065.14.117.226.155.087.039.18.058.282.058a.668.668 0 0 0 .495-.213.665.665 0 0 0 .136-.23.849.849 0 0 0 .046-.282c0-.1-.016-.194-.046-.282a.65.65 0 0 0-.63-.443.684.684 0 0 0-.283.057.725.725 0 0 0-.433.668zm-.2-.886h.223v.31h.007a.59.59 0 0 1 .13-.159.789.789 0 0 1 .358-.176.922.922 0 0 1 .557.048.843.843 0 0 1 .472.489c.045.114.067.238.067.374 0 .135-.022.26-.067.374a.841.841 0 0 1-.472.49.924.924 0 0 1-.557.047.816.816 0 0 1-.359-.177.592.592 0 0 1-.13-.159h-.006v1.185h-.222v-2.646zM31.291 80.667a.54.54 0 0 0-.046-.222.596.596 0 0 0-.546-.353.551.551 0 0 0-.301.076.706.706 0 0 0-.32.499h1.213zm.17.702a.758.758 0 0 1-.32.292.99.99 0 0 1-.42.088.886.886 0 0 1-.355-.07.795.795 0 0 1-.274-.193.855.855 0 0 1-.175-.295 1.113 1.113 0 0 1-.062-.378c0-.133.021-.256.063-.368a.837.837 0 0 1 .448-.49.82.82 0 0 1 .344-.07.763.763 0 0 1 .751.525c.035.1.052.201.052.303v.161h-1.435c0 .049.009.111.027.186a.666.666 0 0 0 .3.405.6.6 0 0 0 .32.077.696.696 0 0 0 .33-.085.602.602 0 0 0 .244-.23l.163.142zM32.01 80.43a2.42 2.42 0 0 0-.004-.122 5.743 5.743 0 0 1-.006-.143 3.957 3.957 0 0 0-.006-.136 1.806 1.806 0 0 1-.003-.098h.222l.005.191a.611.611 0 0 0 .01.12h.01a.615.615 0 0 1 .223-.252.63.63 0 0 1 .362-.105c.134 0 .242.021.326.065.084.043.15.1.198.17.048.07.081.152.1.244.018.092.028.187.028.284v1.055h-.222V80.66c0-.072-.007-.142-.019-.21a.562.562 0 0 0-.065-.182.345.345 0 0 0-.13-.128.43.43 0 0 0-.216-.048.613.613 0 0 0-.23.044.496.496 0 0 0-.19.134.655.655 0 0 0-.125.227.996.996 0 0 0-.047.32v.886h-.222v-1.274zM34.97 80.372a.403.403 0 0 0-.348-.188.361.361 0 0 0-.174.046.157.157 0 0 0-.085.15.13.13 0 0 0 .07.122.759.759 0 0 0 .178.066l.231.055c.083.02.16.049.231.088.072.04.131.094.178.163a.5.5 0 0 1 .07.284c0 .11-.023.203-.068.278a.546.546 0 0 1-.178.182.77.77 0 0 1-.246.1 1.242 1.242 0 0 1-.655-.03.72.72 0 0 1-.31-.223l.295-.288a.837.837 0 0 0 .183.163.474.474 0 0 0 .339.052.32.32 0 0 0 .096-.038.23.23 0 0 0 .072-.067.161.161 0 0 0 .028-.094c0-.064-.023-.111-.07-.142a.603.603 0 0 0-.178-.075 3.89 3.89 0 0 0-.231-.054.867.867 0 0 1-.231-.08.49.49 0 0 1-.178-.156.473.473 0 0 1-.07-.276c0-.102.02-.19.06-.266a.548.548 0 0 1 .162-.186.683.683 0 0 1 .23-.108 1.012 1.012 0 0 1 .613.029c.116.042.21.114.282.217l-.296.276zM35.458 80.253v-.391h.366v-.534h.445v.534h.488v.39h-.488v.807c0 .091.016.165.05.218.033.054.099.08.197.08.04 0 .083-.004.13-.013a.265.265 0 0 0 .11-.044v.388a.555.555 0 0 1-.171.048 1.37 1.37 0 0 1-.18.013.872.872 0 0 1-.29-.04.379.379 0 0 1-.178-.123.475.475 0 0 1-.089-.205 1.496 1.496 0 0 1-.024-.284v-.844h-.366zM38.19 80.878h-.093c-.062 0-.131.003-.208.008a1.076 1.076 0 0 0-.216.036.49.49 0 0 0-.172.085.186.186 0 0 0-.07.155c0 .043.009.08.027.11.019.029.043.054.072.074.03.02.063.035.1.044a.47.47 0 0 0 .111.014c.153 0 .266-.038.34-.113a.426.426 0 0 0 .108-.31v-.103zm.025.572h-.01a.584.584 0 0 1-.245.228.743.743 0 0 1-.326.07.823.823 0 0 1-.239-.034.634.634 0 0 1-.207-.103.504.504 0 0 1-.202-.414.522.522 0 0 1 .19-.432.703.703 0 0 1 .203-.113 1.36 1.36 0 0 1 .238-.063c.083-.014.166-.023.25-.027.084-.004.163-.006.237-.006h.111v-.05c0-.115-.038-.201-.115-.259a.473.473 0 0 0-.292-.086.666.666 0 0 0-.474.192l-.233-.242a.86.86 0 0 1 .346-.226 1.234 1.234 0 0 1 .727-.025c.087.03.158.067.215.113.057.046.1.1.132.16.03.06.052.12.066.181.014.062.022.121.024.179.002.057.004.108.004.151v1.059h-.4v-.253zM39.551 80.713l-.614-.851h.54l.355.552.385-.552h.507l-.607.851.714.99h-.54l-.462-.66-.467.66h-.525z"/>
            <g transform="translate(40.922 79.786)">
                <mask id="d" fill="#fff">
                    <use xlink:href="#c"/>
                </mask>
                <path fill="#5E6062" d="M.604.076H.73l.148.76.149-.76h.123v1h-.08v-.84h-.002l-.164.84H.85L.686.236H.683v.84h-.08v-1zm-.337.16H.111v-.16h.392v.16H.347v.84h-.08v-.84z" mask="url(#d)"/>
            </g>
            <g transform="translate(15.058 77.105)">
                <mask id="f" fill="#fff">
                    <use xlink:href="#e"/>
                </mask>
                <path fill="#77AF42" d="M8.735 1.543a.346.346 0 0 1-.358.337l-7.98-.392a.35.35 0 0 1-.324-.372L.106.382A.346.346 0 0 1 .463.044l7.98.393c.189.01.335.176.326.372l-.034.734z" mask="url(#f)"/>
            </g>
            <path fill="#5E6062" d="M21.17 81.336a.21.21 0 0 1-.205.213h-6.49a.209.209 0 0 1-.205-.213v-1.052c0-.117.092-.212.205-.212h6.49c.113 0 .205.095.205.212v1.052z"/>
            <path fill="#F4CF18" d="M23.166 82.474c.003.116-.082.215-.192.219l-7.322.237c-.11.003-.201-.09-.205-.207l-.019-.625c-.004-.117.083-.215.193-.219l7.321-.237c.11-.003.202.09.205.206l.019.626z"/>
            <g transform="translate(14.77 83.062)">
                <mask id="h" fill="#fff">
                    <use xlink:href="#g"/>
                </mask>
                <path fill="#00246A" d="M7.412.68c0 .118-.086.214-.193.214H.23C.125.894.038.798.038.68V.263C.037.146.124.051.23.051h6.99c.106 0 .192.095.192.212v.418z" mask="url(#h)"/>
            </g>
            <path fill="#F47541" d="M22.363 79.745c0 .116-.125.21-.277.21H13.61c-.153 0-.277-.094-.277-.21v-.457c0-.117.124-.211.277-.211h8.476c.152 0 .277.094.277.21v.458z"/>
            <g transform="translate(47 57)">
                <path fill="#F8BE8E" fill-rule="nonzero" d="M11.528 8.72s-.356 1.28.356 1.744c.712.466.95 2.675.95 2.675l-1.425 3.838-3.797.698L6.187 15v-3.954s.475-1.977.357-2.559c-.12-.581 4.984.233 4.984.233z"/>
                <path fill="#000" fill-rule="nonzero" d="M11.528 8.72s-.356 1.28.356 1.744c.712.466.95 2.675.95 2.675l-1.425 3.838-3.797.698L6.187 15v-3.954s.475-1.977.357-2.559c-.12-.581 4.984.233 4.984.233z" opacity=".2"/>
                <path fill="#2F2E41" fill-rule="nonzero" d="M15.316 30.875l3.14.585s.24 3.394 0 4.213c-.242.82-.484 1.756-.242 1.99.241.234-1.087 6.203-.966 6.554.12.35.362 1.404.241 2.107-.12.702-.483.468-.241 1.17.241.702.483.82.241 1.287-.241.468-1.448 11.821-1.81 11.938-.363.117-3.622.234-3.622 0s1.086-1.99.724-2.458c-.362-.468.12-8.426.12-8.777 0-.352.725-.937.363-1.17-.362-.235-.604-.469-.483-.82.12-.351.362-.468.12-.82-.24-.35-.24-7.373-1.086-7.607 0 0-1.086 5.15-.724 6.437.362 1.288-.12 1.756-.12 1.756l1.69 1.404-2.295 4.214-2.414-2.692s0-.702-.483-.82c-.483-.117-.724-.234-.724-.585 0-.35-.846-2.575-.846-2.575s-2.414-7.373-1.207-11.118 1.673-3.621 1.673-3.621l8.951-.592z"/>
                <path fill="#F8BE8E" fill-rule="nonzero" d="M17.255 55.037l1.308 1.432-.476 3.938h-1.07l-1.663-3.7z"/>
                <path fill="#2F2E41" fill-rule="nonzero" d="M18.123 57.566s-.478 1.048-.837.815c-.359-.233-.477-.582-1.016-.582s-1.017.116-.897.35c.12.232 1.554 2.793 1.554 2.793a3.211 3.211 0 0 1 0 2.793c-.717 1.514 1.914 2.329 2.392.699.479-1.63.598-3.492.479-4.19-.12-.7.598-4.308.598-4.308s-1.932-.867-2.521-.899c0 0 .488 2.063.248 2.529zM14.867 60.183l.485 1.393s0 1.393.485 2.09c.485.696.97 2.205-.97 2.32-1.94.117-2.789-.58-2.789-.58s.364-.928 0-1.276c-.363-.349 0-1.045 0-1.045l.364-2.786 2.425-.116z"/>
                <path fill="#2F2E41" fill-rule="nonzero" d="M11.64 48.55h1.077l5.387 6.93s-.958 2.23-2.394 2.466c0 0-.24-.118-1.317-.822-1.077-.705-3.95-4.229-3.95-4.229l-.36-1.997 1.557-2.349z"/>
                <ellipse cx="8.938" cy="6.6" fill="#F8BE8E" fill-rule="nonzero" rx="3.896" ry="3.692"/>
                <path fill="#F1F1F1" d="M13.6 11.43l-1.195-.467s-.12 4.092-2.391 4.092c-2.272 0-4.663-.585-4.663-1.754 0-1.17-1.913 2.105-1.913 2.105S5.23 27.098 5.11 27.215c-.12.117 1.316 6.313 1.316 6.313s6.097.234 8.13-.584c2.033-.819 2.63-2.339 2.63-2.339l-.836-10.289-1.674-7.95-1.076-.936z"/>
                <g transform="rotate(-10 113.904 -37.854)">
                    <mask id="j" fill="#fff">
                        <use xlink:href="#i"/>
                    </mask>
                    <path fill="#77AF42" d="M5.998 1.125c-.006.143-.116.253-.245.246l-5.48-.286C.143 1.078.043.956.05.814L.073.278C.08.136.19.026.318.032l5.48.287c.13.007.23.128.224.27l-.024.536z" mask="url(#j)"/>
                </g>
                <path fill="#5E6062" d="M13.108 21.407a.138.138 0 0 1-.114.158l-4.36.769a.138.138 0 0 1-.16-.11l-.117-.66a.137.137 0 0 1 .115-.157l4.358-.769a.138.138 0 0 1 .162.109l.116.66z"/>
                <path fill="#F4CF18" d="M14.478 21.601c.018.084-.031.166-.11.182l-5.232 1.099c-.078.016-.156-.04-.173-.123l-.093-.447c-.018-.084.032-.166.11-.183l5.232-1.098c.079-.017.156.039.174.122l.092.448z"/>
                <g transform="rotate(-10 137.874 -38.896)">
                    <mask id="l" fill="#fff">
                        <use xlink:href="#k"/>
                    </mask>
                    <path fill="#00246A" d="M5.135.38c0 .067-.06.12-.133.12H.159C.086.5.026.447.026.38V.148c0-.065.06-.119.133-.119h4.843c.073 0 .133.054.133.12V.38z" mask="url(#l)"/>
                </g>
                <path fill="#F47541" d="M13.588 20.3c.023.13-.047.254-.156.273l-6.075 1.071c-.11.02-.217-.072-.24-.203l-.09-.514c-.024-.13.046-.253.156-.272l6.074-1.071c.11-.02.218.071.24.202l.091.514z"/>
                <path fill="#3F3D56" fill-rule="nonzero" d="M11.688 10.275s.477-.467 1.193 0c.717.468 5.137 1.519 5.137 1.87v4.438s.12.7-.239 1.168c-.358.467-1.194 2.22-.717 3.037.478.818 2.27 10.279 1.912 11.447-.359 1.168-1.314 2.22-1.314 2.22s-5.137-10.63-5.137-13.667c0-3.037.05-6.763.05-6.763l-.886-3.75z"/>
                <path fill="#3F3D56" fill-rule="nonzero" d="M16.868 12.305h1.074S22 19.928 22 21.453c0 1.524-2.626 9.969-2.865 10.086-.238.117-.954-1.29-.954-1.29l-.597-4.691s1.193-2.815.835-3.284c-.358-.47-2.148-4.105-2.148-4.105l.597-5.864zM6.283 10.292s-1.38.936-1.621 1.287c-.241.351-3.85 2.34-3.97 2.809-.121.468 2.766 4.447 2.766 4.447s1.204 6.554 1.204 7.022c0 .468.48 8.427.48 8.427s4.934 1.404 4.934.585c0-.82.12-12.523-.602-15.098-.722-2.574-3.19-9.48-3.19-9.48z"/>
                <path fill="#F8BE8E" fill-rule="nonzero" d="M7.138 34.454s3.978 5.487 1.872 5.368c-2.106-.12-3.51-4.771-3.51-4.771l1.638-.597z"/>
                <path fill="#3F3D56" fill-rule="nonzero" d="M2.144 14.095l-1.436.35S-.489 24.697.23 26.096c.718 1.398 4.548 10.487 4.548 10.137 0-.35 3.369-.972 3.24-1.302-.128-.33-.846-1.727-1.086-2.193-.24-.467-.598-1.05-.478-1.632.12-.582-1.317-3.076-1.317-3.076s-.359-1.468-.479-2.167c-.12-.7-1.196-8.39-1.196-8.39l-1.317-3.38z"/>
                <path fill="#2F2E41" fill-rule="nonzero" d="M12.736 3.658a.943.943 0 0 0-.434-.526c.01-.235-.02-.47-.092-.694-.239-.656-.805-.618-1.339-.908-.231-.126-.217-.237-.338-.443A1.711 1.711 0 0 0 9.85.44C9.52.21 9.14.06 8.74.003 7.89-.051 7.236.693 6.421.93c-.358.105-.744.11-1.105.209-.36.1-.72.337-.774.682-.025.16.019.324-.006.483-.05.317-.35.54-.55.8-.445.577-.394 1.392-.039 2.02.075.13.16.254.256.37.03.299.122.588.27.85.355.627.966 1.096 1.603 1.486a3.275 3.275 0 0 1-.094-.634.408.408 0 0 1 .029-.21c.07-.138.259-.175.402-.25a.92.92 0 0 0 .421-.819c.009-.316-.064-.633-.028-.947a.504.504 0 0 1 .191-.381.701.701 0 0 1 .36-.08c.608-.023 1.242-.033 1.778-.3.174-.107.36-.194.553-.26.456-.11.92.186 1.183.549.263.362.393.793.636 1.168.242.374.66.708 1.128.664.053 0 .103-.02.14-.058a.183.183 0 0 0 .025-.11l.027-1.66a2.337 2.337 0 0 0-.09-.845z"/>
            </g>
        </g>
    </g>
</svg>
