<svg xmlns="http://www.w3.org/2000/svg" width="64" height="65" viewBox="0 0 64 65">
    <g fill="none" fill-rule="evenodd">
        <g fill="#213469" fill-rule="nonzero">
            <g>
                <path d="M50.929 21.986v-5.278c0-.61-.336-1.236-.886-1.534-4.014-2.21-8.393-3.566-12.943-4.078-4.357-.49-8.85-.092-13.064 1.123-2.479.71-4.879 1.719-7.136 2.955-.55.298-.886.916-.886 1.534v5.278l2.686-1.534c-1.35-.69-2.707-1.378-4.057-2.06-2.164-1.101-4.336-2.202-6.5-3.303-.493-.25-.986-.505-1.486-.753v3.068c.922-.468 1.843-.937 2.772-1.406 2.207-1.123 4.407-2.245 6.614-3.36 2.664-1.357 5.328-2.714 8-4.064 2.307-1.172 4.607-2.344 6.914-3.516 1.122-.568 2.264-1.108 3.372-1.712.014-.007.035-.014.05-.029h-1.8c.921.47 1.842.938 2.771 1.407 2.207 1.122 4.407 2.245 6.614 3.36 2.665 1.357 5.329 2.714 8 4.064 2.307 1.172 4.607 2.344 6.915 3.516 1.121.568 2.228 1.18 3.371 1.712.014.007.036.014.05.028v-3.068c-1.35.689-2.707 1.378-4.057 2.06-2.164 1.1-4.336 2.202-6.5 3.303-.493.249-.986.504-1.486.753-.836.426-1.143 1.655-.643 2.43.55.845 1.55 1.086 2.443.639 1.35-.69 2.707-1.378 4.057-2.06l6.5-3.304c.493-.248.986-.504 1.486-.753 1.164-.59 1.164-2.472 0-3.068-.921-.47-1.843-.938-2.771-1.407-2.215-1.13-4.429-2.252-6.643-3.381-2.686-1.364-5.372-2.735-8.057-4.1-2.3-1.171-4.608-2.344-6.908-3.509-1.1-.56-2.185-1.143-3.292-1.676-.643-.313-1.236-.313-1.879 0-.121.057-.243.12-.357.185-.572.29-1.136.575-1.707.866L24.22 4.497C21.557 5.854 18.9 7.203 16.236 8.56c-2.415 1.23-4.829 2.45-7.243 3.68l-3.936 2.003-.178.093c-1.165.59-1.165 2.472 0 3.068 1.35.69 2.707 1.379 4.057 2.06 2.164 1.102 4.335 2.203 6.5 3.304.493.248.985.504 1.485.753 1.186.604 2.686-.128 2.686-1.535v-5.278c-.293.512-.593 1.023-.886 1.535.958-.526 1.936-1.002 2.936-1.435.407-.178-.364.142.05-.022.122-.05.243-.1.364-.142.2-.078.4-.156.608-.234.521-.192 1.057-.377 1.585-.547.979-.306 1.979-.568 2.979-.782.5-.106 1.007-.198 1.507-.284.25-.042.507-.106.757-.113-.5.02-.078.007.029 0 .171-.022.335-.043.507-.057 2.028-.213 4.078-.242 6.114-.071.5.042 1.029.064 1.522.163-.5-.092-.072-.007.028.007.129.022.25.036.379.057l.885.15c1.008.191 2.008.425 2.993.71 1.122.32 2.215.71 3.293 1.143.414.164-.357-.156.05.022.157.07.322.135.479.206.278.12.557.248.828.383.55.263 1.093.547 1.629.839-.293-.512-.593-1.023-.886-1.535v5.278c0 .93.822 1.819 1.786 1.776.971-.035 1.786-.774 1.786-1.769z" transform="translate(-781 -1721) translate(781 1721)"/>
                <path d="M47.357 16.715v14.343l1.786-1.776H21.657c-1.264 0-2.543-.043-3.807 0h-.057l1.786 1.776v-4.83-7.744-1.769c-.293.512-.593 1.023-.886 1.535.957-.526 1.936-1.002 2.936-1.435.407-.178-.365.142.05-.022.121-.05.242-.099.364-.142.2-.078.4-.156.607-.234.521-.192 1.057-.377 1.586-.547.978-.306 1.978-.568 2.978-.781.5-.107 1.007-.2 1.507-.285.25-.042.508-.106.758-.113-.5.021-.079.007.028 0 .172-.022.336-.043.507-.057 2.029-.213 4.079-.242 6.115-.071.5.042 1.028.064 1.521.163-.5-.092-.071-.007.029.007.128.022.25.036.378.057l.886.15c1.007.191 2.007.426 2.993.71 1.121.32 2.214.71 3.293 1.143.414.164-.358-.156.05.022.157.07.321.135.478.206.279.12.557.248.829.383.55.263 1.093.547 1.628.839.815.447 1.986.227 2.443-.64.443-.83.236-1.946-.643-2.43-4.014-2.209-8.393-3.565-12.943-4.077-4.357-.49-8.85-.092-13.064 1.123-2.478.71-4.878 1.719-7.136 2.955-.55.298-.885.916-.885 1.534v14.343c0 .959.821 1.776 1.785 1.776H45.257c1.264 0 2.536.028 3.807 0h.057c.965 0 1.786-.817 1.786-1.776v-4.83-7.744-1.769c0-.93-.821-1.818-1.786-1.776-.942.05-1.764.789-1.764 1.783zM3.979 15.863v9.135c0 .931.821 1.819 1.785 1.776.965-.042 1.786-.781 1.786-1.776V17v-1.136c0-.93-.821-1.819-1.786-1.776-.971.043-1.785.781-1.785 1.776zM60.371 51.027v10.676c0 .257-.028.527 0 .775-.035-.327.272-.795.579-.966.029-.014.479-.192.536-.135-.007-.007-.057 0-.065 0-.935-.057-1.885 0-2.821 0H10.364c-.978 0-1.957-.028-2.935 0H7.35c.464-.05 1.214.547 1.107 1.115.043-.199 0-.44 0-.646V58.06v-4.61-1.67-.512c0-.05.029-.191 0-.234v-.007c.079.454-.436.973-.836 1.08-1.428.369-.35.028-.271.035h.071c.115.007.229 0 .343 0h53.279c.114 0 .236.007.35 0 .021 0 .057.007.078 0h.015c0-.007 4.957.703-.143-.014-.55-.085-.936-.554-.972-1.101.072.923.772 1.818 1.786 1.776.907-.043 1.857-.782 1.786-1.776-.1-1.357-1.05-2.387-2.45-2.437H7.357c-1.371.043-2.443 1.066-2.478 2.444-.022.796 0 1.591 0 2.387v8.496c0 .227-.008.447.007.675.078 1.342 1.157 2.309 2.493 2.337.292.007.585 0 .878 0H60.671c.265 0 .536.007.8 0 1.372-.028 2.436-1.08 2.479-2.444.007-.248 0-.497 0-.746v-8.574-2.131c0-.93-.821-1.819-1.786-1.776-.978.035-1.793.774-1.793 1.769z" transform="translate(-781 -1721) translate(781 1721)"/>
                <path d="M54.836 40.336v8.538c0 .256-.036.533 0 .789-.072-.533.585-1.172 1.114-1.108h-.064c-.107-.007-.215 0-.322 0H5.321c-.907 0-1.814-.029-2.721 0h-.079c.486-.057 1.208.554 1.108 1.115.035-.22 0-.483 0-.71v-3.922-3.95c0-.042.021-.745 0-.745.064.007-.15.554-.136.532-.186.285-.607.64-.986.576h.007c.007.007.057 0 .072 0 .9.042 1.807 0 2.707 0H55.529c.107 0 .214.007.321 0 .021 0 .057.007.079 0h.014c.028-.007 8.9 1.264-.143-.014-.543-.086-.921-.562-.964-1.101.071.923.771 1.818 1.785 1.775.908-.042 1.858-.78 1.786-1.775-.1-1.357-1.05-2.387-2.45-2.437H3.307c-.257 0-.514-.007-.771 0-1.372.028-2.443 1.073-2.479 2.437-.007.241 0 .49 0 .731v7.95c0 .248-.007.504.007.752.079 1.329 1.15 2.316 2.479 2.338.271.007.536 0 .807 0H55.921c1.379-.043 2.429-1.073 2.479-2.444.029-.846 0-1.698 0-2.543v-4.49-2.294c0-.931-.821-1.82-1.786-1.776-.964.042-1.778.781-1.778 1.776zM14.221 57.74c.029 0 .058 0 .086.007l-.471-.064c.014 0 .164.021.164.036-.093-.036-.186-.071-.279-.114-.235-.199-.3-.249-.2-.15.065.065.043.036-.064-.085-.071-.07-.121-.156-.15-.248-.121-.291-.036-.05-.021.028l-.065-.469c.008.057.008.114 0 .17l.065-.468c0 .014-.022.163-.036.163.036-.092.071-.184.114-.277.2-.234.25-.298.15-.199-.064.064-.035.043.086-.063.071-.071.157-.121.25-.15.293-.12.05-.035-.029-.02l.472-.065c-.057.007-.114.007-.172 0l.472.064c-.014 0-.164-.021-.164-.035.092.035.185.07.278.113.236.2.3.249.2.15-.064-.065-.043-.036.064.085.072.07.122.156.15.248.122.292.036.05.022-.028l.064.469c-.007-.057-.007-.114 0-.17l-.064.468c0-.014.021-.163.036-.163-.036.092-.072.184-.115.277-.2.234-.25.298-.15.199.065-.064.036-.043-.085.064-.072.07-.158.12-.25.149-.293.12-.05.035.028.021l-.471.064c.028-.007.057-.007.085-.007.929-.05 1.829-.782 1.786-1.776-.043-.916-.786-1.833-1.786-1.776-1.4.078-2.585 1.122-2.585 2.572 0 1.42 1.185 2.536 2.585 2.571 1.4.036 2.55-1.172 2.586-2.529.014-.66-.257-1.364-.728-1.833-.515-.511-1.143-.746-1.858-.781-.935-.05-1.828.852-1.785 1.776.043 1.009.785 1.726 1.785 1.776z" transform="translate(-781 -1721) translate(781 1721)"/>
                <path d="M54.593 63.153v-4.305-6.905-1.577c0-.93-.822-1.818-1.786-1.776-.964.043-1.786.782-1.786 1.776v12.787c0 .93.822 1.819 1.786 1.776.964-.043 1.786-.781 1.786-1.776zM8.629 39.675v10.663c0 .93.821 1.818 1.785 1.776.965-.043 1.786-.782 1.786-1.776V41.01v-1.335c0-.93-.821-1.819-1.786-1.776-.964.043-1.785.781-1.785 1.776zM49.836 50.33v-9.327-1.335c0-.93-.822-1.819-1.786-1.776-.964.042-1.786.781-1.786 1.776V50.33c0 .93.822 1.818 1.786 1.776.964-.043 1.786-.782 1.786-1.776z" transform="translate(-781 -1721) translate(781 1721)"/>
            </g>
        </g>
    </g>
</svg>
