<svg xmlns="http://www.w3.org/2000/svg" width="53" height="41" viewBox="0 0 53 41">
    <g fill="none" fill-rule="evenodd">
        <g fill="#213469" fill-rule="nonzero">
            <g>
                <path d="M8.65 13.019l10.645 2.05c.11 0 .221.055.332.055.832 0 1.553-.554 1.72-1.385.165-.942-.444-1.828-1.387-2.05L9.315 9.64c-.943-.166-1.83.444-2.052 1.385-.166.942.444 1.829 1.386 1.995zM19.96 19.833l-10.645-2.05c-.943-.222-1.83.443-2.052 1.385-.166.942.444 1.828 1.386 2.05l10.646 2.05c.11 0 .221.055.332.055.832 0 1.553-.554 1.72-1.385.165-.997-.444-1.884-1.387-2.105zM19.96 27.976l-10.645-2.05c-.943-.22-1.83.444-2.052 1.386-.166.941.444 1.828 1.386 2.05l10.646 2.05c.11 0 .221.055.332.055.832 0 1.553-.554 1.72-1.385.165-.998-.444-1.884-1.387-2.106z" transform="translate(-786 -1828) translate(786 1828)"/>
                <path d="M52.34.443C51.95.111 51.397 0 50.898.055L26.613 4.82 2.33.11C1.829 0 1.275.167.887.5c-.388.332-.61.83-.61 1.33v32.63c0 .83.61 1.55 1.386 1.716l24.618 4.765c.11 0 .221.055.332.055.111 0 .222 0 .333-.055l24.617-4.82c.832-.166 1.386-.886 1.386-1.717V1.773c0-.499-.221-.997-.61-1.33zM3.77 3.878l21.125 4.1v29.14L3.77 32.961V3.878zm45.686 29.084l-21.124 4.155V8.033l21.124-4.155v29.084z" transform="translate(-786 -1828) translate(786 1828)"/>
                <path d="M33.6 15.124c.11 0 .221 0 .332-.055l10.645-2.05c.943-.166 1.553-1.108 1.386-2.05-.166-.942-1.108-1.551-2.051-1.385l-10.645 2.105c-.943.166-1.553 1.108-1.386 2.05.166.83.887 1.385 1.718 1.385zM33.6 23.268c.11 0 .221 0 .332-.056l10.645-2.05c.943-.166 1.553-1.108 1.386-2.05-.166-.941-1.108-1.55-2.051-1.384l-10.645 2.105c-.943.166-1.553 1.108-1.386 2.05.166.83.887 1.385 1.718 1.385zM43.912 25.927l-10.645 2.05c-.943.166-1.553 1.107-1.386 2.05.166.83.887 1.384 1.718 1.384.111 0 .222 0 .333-.055l10.645-2.05c.943-.166 1.553-1.108 1.386-2.05-.221-.886-1.108-1.55-2.051-1.33z" transform="translate(-786 -1828) translate(786 1828)"/>
            </g>
        </g>
    </g>
</svg>
