<svg xmlns="http://www.w3.org/2000/svg" width="67" height="65" viewBox="0 0 67 65">
    <g fill="none" fill-rule="evenodd">
        <g fill="#213469" fill-rule="nonzero">
            <g>
                <path d="M45.222 19H27.778c-.982 0-1.778.895-1.778 2s.796 2 1.778 2h17.444c.982 0 1.778-.895 1.778-2s-.796-2-1.778-2zM17.98 15.59l-5.672 5.996-2.311-2.329c-.7-.69-1.807-.673-2.487.039-.68.712-.68 1.855-.002 2.568l3.545 3.609c.33.337.776.526 1.24.527.47-.005.92-.202 1.249-.55l6.933-7.32c.454-.465.63-1.146.462-1.783-.168-.636-.656-1.13-1.276-1.291-.62-.162-1.276.034-1.717.512l.036.022zM18.008 29.554L12.32 35.57l-2.317-2.336c-.701-.692-1.811-.675-2.492.04-.682.713-.683 1.86-.003 2.576l3.554 3.621c.332.338.779.528 1.244.529.471-.005.921-.203 1.251-.55l6.952-7.347c.67-.727.65-1.875-.043-2.578-.694-.703-1.805-.7-2.495.007l.036.022z" transform="translate(-786 -1625) translate(786 1625)"/>
                <path d="M54.969 31.503V8.861C54.965 3.97 51.008.004 46.125 0H8.845C3.96.004.003 3.969 0 8.861v33.353c.004 4.893 3.961 8.858 8.844 8.861H33.1c1.568 8.24 8.86 14.131 17.23 13.92 8.37-.212 15.356-6.464 16.507-14.773 1.151-8.31-3.871-16.231-11.867-18.719zM8.844 3.544h37.28c2.574.006 4.774 1.857 5.222 4.396H3.623C4.07 5.4 6.27 3.55 8.844 3.544zm33.142 28.951H28.875c-.977 0-1.77.794-1.77 1.773 0 .978.793 1.772 1.77 1.772h8.674c-2.974 3.093-4.674 7.197-4.761 11.491H8.844c-2.929-.004-5.302-2.382-5.306-5.317v-30.73H51.43v19.317c-.51-.042-1.026-.07-1.542-.07-2.628-.008-5.222.596-7.578 1.764-.108-.01-.217-.01-.325 0zm14.08 13.973l-6.92 7.089c-.328.335-.776.526-1.245.531-.464 0-.909-.184-1.239-.51l-3.537-3.495c-.457-.442-.643-1.094-.489-1.711.154-.617.625-1.105 1.235-1.28.61-.175 1.267-.01 1.723.432l2.285 2.254 5.66-5.806c.688-.682 1.794-.685 2.484-.006.69.678.71 1.786.043 2.487v.015z" transform="translate(-786 -1625) translate(786 1625)"/>
            </g>
        </g>
    </g>
</svg>
