<svg xmlns="http://www.w3.org/2000/svg" xmlns:xlink="http://www.w3.org/1999/xlink" viewBox="0 0 1400 770.67"><defs><style>.cls-1{fill:#9a9a9b;}.cls-2{fill:url(#New_Gradient_Swatch_1);}</style><linearGradient id="New_Gradient_Swatch_1" x1="700" y1="770.67" x2="700" y2="51.35" gradientUnits="userSpaceOnUse"><stop offset="0" stop-color="#cebd65"/><stop offset="0.06" stop-color="#b0bd78"/><stop offset="0.15" stop-color="#85be92"/><stop offset="0.24" stop-color="#60bfa9"/><stop offset="0.34" stop-color="#42bfbc"/><stop offset="0.45" stop-color="#2ac0ca"/><stop offset="0.56" stop-color="#1ac0d4"/><stop offset="0.68" stop-color="#10c0da"/><stop offset="0.84" stop-color="#0dc0dc"/></linearGradient></defs><title>bergs</title><g id="Layer_2" data-name="Layer 2"><g id="learn_more" data-name="learn more"><path class="cls-1" d="M1327.14,172.7l-29.74-43.3a4.37,4.37,0,0,0-.33-.3l-51-26.31a.57.57,0,0,0-.27-.06l-38.62-60.45,0-.12a1.24,1.24,0,0,0-.56-.78l-.37-.59a.52.52,0,0,0-.32-.23.54.54,0,0,0-.39.07l-.68.44a.52.52,0,0,0-.16.72v0a4.64,4.64,0,0,0-.34.54.53.53,0,0,0-.15.2l-11.68,28L1176,62.07l-8.32-23.94a.51.51,0,0,0-.1-.17.5.5,0,0,0-.1-.15L1132.16.16a.51.51,0,0,0-.73,0l-.07.07-.1,0a.52.52,0,0,0-.64.35l-6.38,21.68L1064.11,96,1049,80.7a.54.54,0,0,0-.15-.11.52.52,0,0,0-.18-.11l-33.35-12.14a.51.51,0,0,0-.39,0l-.07,0h-.1a.48.48,0,0,0-.37.14l-54.62,51L911.94,158.4l-12-5a.51.51,0,0,0-.4,0,.5.5,0,0,0-.15.1.44.44,0,0,0-.18,0,.52.52,0,0,0-.34.19l-14.47,18.62a.52.52,0,0,0,.08.73l.12.1v.15a.52.52,0,0,0,.51.52h440.47a.52.52,0,0,0,.33.22h.09a.51.51,0,0,0,.3-.1l.66-.47A.52.52,0,0,0,1327.14,172.7Zm-1.24,0H885.67a.52.52,0,0,0-.1-.21l13.85-17.82a.51.51,0,0,0,.64-.17l11.77,5a.51.51,0,0,0,.52-.07l48-39.12,54.27-50.65a.53.53,0,0,0,.4.08.52.52,0,0,0,.33-.23l32.41,11.8a.52.52,0,0,0,.78.51l3.32,3.35.11-.08.32.51,11.44,11.52a.5.5,0,0,0,.39.15.52.52,0,0,0,.37-.19l60.56-74.27a.52.52,0,0,0,.1-.18l6.26-21.3a.41.41,0,0,0,.29-.07l34.67,36.91a.52.52,0,0,0,.49.8l.58,1.68h0l0,.17,7.58,21.81a.52.52,0,0,0,.25.29l17.14,8.82a.5.5,0,0,0,.41,0,.51.51,0,0,0,.3-.29l11.81-28.33a.5.5,0,0,0,.11-.15,3,3,0,0,1,.51-.76.49.49,0,0,0,.12-.17.53.53,0,0,0,.19.17.27.27,0,0,1,.15.16l.51-.09-.49.24a.52.52,0,0,0,.07.2l39,61.07a.54.54,0,0,0,.46.24.52.52,0,0,0,.3-.12l50.16,25.86a.52.52,0,0,0,.69.61l29.06,42.31Z"/><path class="cls-1" d="M1167.72,41.45l-.16-.65,0-.17h0l-.19,0C1167.45,40.94,1167.59,41.19,1167.72,41.45Z"/><path class="cls-1" d="M1051.74,85.12,1015.35,71l-.26.7-.63.37.49.85-.08.1-.16-.19L920.93,157l.47.53-7.83,2.63.25.77,10.55-3.54,29.44-7.54-.3.33h-.14l0,.18L935.1,170.53l.59.55L953.85,151,1068,161.49l0-.4v.4h81.71v-.41l.15-.37-68.47-27.86.08-.05-.41-.64.42-1.1-1.49-.56-3.25-5.06.35-.22-.29-.48.34-.63-1.14-.63-23.65-37.89-.32-.51-.11.08-.24.16Zm-72.1,29.28,35.74-40.76,30.25,52.15-.46-.08,0-.1-.22.06-64.17-10.9.51-.66-.63-.5-.79,1-.44-.07-.13.8h0l-26.63,34-27,6.91,0-.11-1.49.5-2.19.56,89.81-80.64L979,113.86ZM1043,126.16,953.93,149l26.25-33.49Zm-121.08,31,0,.14-.3.1Zm32.89-7.62,90.14-23.1,1.2.2.44.76.65-.39h.26l19.77,33.54L954.53,150.27l.46-.51Zm110.38-15-.22,0-5.14-9.47.39-1,19.2,7.25.13.41-13.68,4.47-.61-1.12Zm14.82-1.87.06,0,0,0Zm-.44.15-11.67,27.24.74.32,11.63-27.16,67.37,27.41h-79.41l-.87-1.47.5-.06-2.37-21.68Zm-.85-2.86-19.11-7.22-.06.17-.23-.42-1.61.89,6.76,12.43-.64.21.55,1.76.35-.11,2.28,20.86-19-32.18.54-16.2,26.13,14.64.84,1.35.51-.33Zm-27-43.52L1075,123.84l-27.41-15.35L1047,126h-.08l-31.08-53.59.08-.1,34.47,13.39-.35.91,1.26.13Z"/><polygon class="cls-1" points="899.88 156.6 935.78 172.25 936.1 171.51 900.2 155.86 899.88 156.6"/><path class="cls-1" d="M1317.69,168.78h-.49l-21.67-38.92-.35.2-.29-.28,0,0-47.29-18.54.38-3.73a.52.52,0,0,0-.46-.57l-.66-.06-24.36-18a.5.5,0,0,0-.46-.08l1.23-15.3a.52.52,0,0,0-.05-.28.53.53,0,0,0-.07-.27l-15.27-25.91a.51.51,0,0,0-.7-.18l-.27.16-.3.06h0l-.14-.05-.07.19a.49.49,0,0,0-.19.45v0L1196,75.67l.38.14L1196,76l.08.13-15.21-5.84.06-.1-.13-.09-.05-.18-.15,0-4.63-3.12-.41-.16-.29.21c-.22-.28-.42-.58-.62-.89l-.3-.25-.09-.34-.05-.13a34.39,34.39,0,0,1-2.83-8c-.29-1.09-.57-2.16-.88-3.18-.43-1.4-.89-2.8-1.36-4.21a87.21,87.21,0,0,1-2.75-9.52l0-.15L1135.71,7.85l-.2-1-.62.13-.67-.71-.34.32-.06,0-.08.17-.85.81.31.32L1112.44,51,1069.05,97.4l.29.28-.33.22,19.65,29.94-.05.06.23.21,1.07,1.63.33-.22.2.35.95-.55-.22.57,77.69,30.49.15-.38,0,.4,90.58,8.57V169l57.18.53.34.61.7-.39-.12-.21h0ZM1222,73.08a.52.52,0,0,0,.2.87l-1.29,16a.52.52,0,0,0,.47.56l.28,0a.5.5,0,0,0,.46-.21l.18-.24,24.06,17.79a.38.38,0,0,0,.26.1l.28,0-.37,3.6a.52.52,0,0,0,.33.54l47.27,18.53-.21.22-38.1,11.84v-.05l3.37-17.61a.53.53,0,0,0-.08-.39.52.52,0,0,0-.33-.22l-.27,0h-.09a.51.51,0,0,0-.49.36l-.09.28-39-12.44c0-.06,0-.11-.06-.17h.62l0-.81-1.11,0-11-63.45Zm-29.47,40.78,42.11,20.48-64.77,24.91Zm-23.33,44.93-13.49-65.61,35.93,19.88.31.17Zm66.43-24,18.26,8.88,0,.11a.51.51,0,0,0,.44.35l4.71,23.95-88.28-8.35Zm19.25,7.3-.86.26a.52.52,0,0,0-.3.26s0,.05,0,.07l-17.05-8.29,20.92-8-.16-.43.52.17Zm-37.92-32.2-20.15-34.16,9.65-26.43Zm.06,1.69-23.88.49,0,.81,24.23-.5,0,.26a.52.52,0,0,0,.21.34l.08,0a.52.52,0,0,0,.34.34l38.84,12.39-21.22,8.16-43.15-21-.18.36-.21-.11.83-1.53-.79-.43-11-40,15.62,6Zm-51.59-70.88a89.65,89.65,0,0,0,2.75,9.49c.46,1.4.92,2.79,1.35,4.18.31,1,.59,2.07.87,3.14a35.57,35.57,0,0,0,2.9,8.2l.16.66.39.27c.19.3.4.59.61.87a1,1,0,0,0,1.19.34l1.4.94-.38-.15-.29.75,3.06,1.18-.62,1,1.21-.36L1191,111l-.67.2L1155.64,92l-.3-.17,9.76-23.28-6.62-17.43-8.06,9.84-.69,0h0l-.22-.2L1148,28.87l0-.34-9.64-3.73-3.29-16.13ZM1146.94,62.9,1071.46,96l41.2-44.11.17.08.26-.55,24.21-25.92,9.69,3.75,1.51,31.89ZM1133.78,8.47l.24.25,3.09,15.12-.46,1.2L1114.28,49Zm-63.93,89.25.21-.23,75.56-33.14-56.42,62.86Zm19.82,30.19,57.74-64.34,1.39-.61-.27-.63.05-.06,1.25,1,8.33-10.17L1164,68.51l-10,23.93L1090.37,129Zm64.65-34.74.57.24,13.56,65.95-76.85-30.17Zm106.07,75.08h0l-.52,0L1255.12,144l37.33-11.6L1260.06,167l.58.56L1294,131.9l.91-.28a.51.51,0,0,0,.34-.61l21,37.75Z"/><path class="cls-2" d="M.64,163.22l53.63-47.41L60,101.87a.51.51,0,0,1,.57-.23l.09,0,.07,0a.59.59,0,0,1,.65,0l31.54,24.2a.33.33,0,0,1,.09.09.32.32,0,0,1,.09.11l7.42,15.39,14.69,5.44,10.42-18a.38.38,0,0,1,.13-.13,3,3,0,0,1,.3-.35h0c-.14-.16-.07-.36.14-.46l.6-.28a.64.64,0,0,1,.35,0,.49.49,0,0,1,.29.15l.33.38a.86.86,0,0,1,.5.5l0,.08,34.44,38.87a.68.68,0,0,1,.24,0l8.26,3.07H551l17.19-9.1,77.5-47a.92.92,0,0,1,.53-.13h.14l.1,0a1.09,1.09,0,0,1,.56,0l47.33,11.2a.87.87,0,0,1,.26.1.84.84,0,0,1,.22.1l21.5,14.08,85.32-68,9-20a.85.85,0,0,1,.91-.32l.14,0,.11-.07a1,1,0,0,1,1,0l50.18,34.73a.5.5,0,0,1,.14.14.48.48,0,0,1,.15.16l11.81,22.09,23.36,7.81,16.57-25.83a.58.58,0,0,1,.21-.19,4.54,4.54,0,0,1,.48-.5l0,0c-.22-.22-.12-.52.22-.66l1-.4a1.11,1.11,0,0,1,.55-.06A.81.81,0,0,1,918,89l.53.55a1.31,1.31,0,0,1,.79.72l0,.11,54.8,55.77a1.18,1.18,0,0,1,.38.05l72.41,24.27a.73.73,0,0,1,.26.15.7.7,0,0,1,.15.1H1400v600H0Z"/></g></g></svg>