<svg xmlns="http://www.w3.org/2000/svg" viewBox="0 0 1452 760.53"><defs><style>.cls-1{fill:#333333;}</style></defs><title>bottom-divider</title><g id="Layer_2" data-name="Layer 2"><g id="footer"><rect class="cls-1" x="22.45" y="250.53" width="1400" height="510"/></g><g id="learn_more" data-name="learn more"><path class="cls-1" d="M64.17,274.37l-12.4-8-7.44-8.92,6.51,1h.07l11.34-.75a.18.18,0,0,0,.16-.19v-.13l0-.12a.18.18,0,0,0-.12-.22l-4-1.14-15.88-8.5-2.31-3.57,2,.75.05.09a.18.18,0,0,0,.24.06l.05,0,.1,0a.18.18,0,0,0,.09-.09l0,0a.18.18,0,0,0,.07-.24h0v0a.18.18,0,0,0-.1-.23l-.08,0-.35-.58,2.38,1.6.09,0,.08,0,12.61.86.12.08a.18.18,0,0,0,.24-.05l.17-.27a.18.18,0,0,0,0-.24l-.09-.06,0-.05a.18.18,0,0,0-.12-.06l-5.3-3.51-8.09-10,3.43,1a.18.18,0,0,0,.18.12H48a.16.16,0,0,0,.12,0l6.07-.49a.18.18,0,0,0,.16-.19v-.14l0-.13a.18.18,0,0,0-.14-.2l-5.19-.94a.18.18,0,0,0-.07-.06l-7.93-4.07-.48-1.6L45,227.51a.17.17,0,0,0,.14,0h0a.17.17,0,0,0,.13,0l.25-.2a.18.18,0,0,0,0-.25l-.13-.16,7,1.06a.17.17,0,0,0,.13,0,.18.18,0,0,0,.07-.12l0-.14.05-.13a.18.18,0,0,0-.1-.23l-2.15-.84-9.94-7.69-.71-2.16,3.61-.07,4,1.4a.18.18,0,0,0,.22-.11l0-.12.08-.09a.18.18,0,0,0,0-.25l-9.93-9.14-1.56-5.46a.17.17,0,0,0,0-.08.18.18,0,0,0-.05-.08l-1.11-1a.18.18,0,0,0-.18,0l-2.7-11a.17.17,0,0,0-.08-.11.17.17,0,0,0-.13,0l-.12,0-.12,0a.17.17,0,0,0-.2.14l-2.24,13.66L17.18,217.88a.18.18,0,0,0,0,.25l.07.06v.09a.17.17,0,0,0,.2.15l4-.55.08,0a.18.18,0,0,0,.13,0l.11-.07.31,0a.18.18,0,0,0,.15-.2v0l3.89-2.41L13.4,226.89a.18.18,0,0,0,0,.25l.22.24a.18.18,0,0,0,.12.06h0a.18.18,0,0,0,.23.09L24.82,223l-2,3.76-12.61,8.56a.18.18,0,0,0,0,.24l.06.09v.11a.17.17,0,0,0,.18.17l1.6-.06-2.78,5a.18.18,0,0,0,.07.24l.1.05.06.1a.18.18,0,0,0,.24.06l13.69-8.22L22,237.06l-12.2,9.81a.18.18,0,0,0,0,.25l.2.25a.18.18,0,0,0,.25,0l.2-.16.07,0a.17.17,0,0,0,.14,0l13-5.77-2.29,3.3L8.06,252.47a.18.18,0,0,0-.07.07l-1.36.12a.18.18,0,0,0-.17.19l0,.31a.19.19,0,0,0,.07.12.21.21,0,0,0,.14,0l11.45-.79-2.18.94a.18.18,0,0,0-.09.23l0,.11v.12a.18.18,0,0,0,.17.18l2.7.1-5,2.93L.13,260.77A.18.18,0,0,0,0,261l.08.3a.17.17,0,0,0,.21.12h0l1,1a.18.18,0,0,0,.11,0,.17.17,0,0,0,.11,0l6.68.06L.33,268.68a.18.18,0,0,0,0,.25l.08.1.05.12a.18.18,0,0,0,.23.1l14.28-5.79-.85,2.93a.18.18,0,0,0,.12.22l.09,0,.06.08a.18.18,0,0,0,.25,0l10.11-7.35-4.9,11.87a.18.18,0,0,0,.09.23l.11,0,.08.09a.18.18,0,0,0,.12.06.21.21,0,0,0,.13,0l8-7.41V279a2.51,2.51,0,0,0,.33.33h5.55a.17.17,0,0,0,.15-.08h0a.18.18,0,0,0,.18-.18v-16l11.49,11a.19.19,0,0,1,.16.14.17.17,0,0,0,.13,0l.31,0a.18.18,0,0,0,.16-.18l-.33-6,6,4a.18.18,0,0,0,.23,0l11.21,3a.18.18,0,0,0,.22-.12l0-.13.07-.11A.18.18,0,0,0,64.17,274.37Z"/><path class="cls-1" d="M134.51,271l-12.4-8-7.44-8.92,6.51,1h.07l11.34-.75a.18.18,0,0,0,.16-.19v-.13l0-.12a.18.18,0,0,0-.12-.22l-4-1.14-15.88-8.5-2.31-3.57,2,.75.05.09a.18.18,0,0,0,.24.06l.05,0,.1,0a.18.18,0,0,0,.09-.09l0,0a.18.18,0,0,0,.07-.24h0v0a.18.18,0,0,0-.1-.23l-.08,0-.35-.58,2.38,1.6.09,0,.08,0,12.61.86.12.08a.18.18,0,0,0,.24-.05l.17-.27a.18.18,0,0,0,0-.24l-.09-.06,0-.05a.18.18,0,0,0-.12-.06l-5.3-3.51-8.09-10,3.43,1a.18.18,0,0,0,.18.12h.2a.16.16,0,0,0,.12,0l6.07-.49a.18.18,0,0,0,.16-.19v-.14l0-.13a.18.18,0,0,0-.14-.2l-5.19-.94a.18.18,0,0,0-.07-.06l-7.93-4.07-.48-1.6,4.45,2.37a.17.17,0,0,0,.14,0h0a.17.17,0,0,0,.13,0l.25-.2a.18.18,0,0,0,0-.25l-.13-.16,7,1.06a.17.17,0,0,0,.13,0,.18.18,0,0,0,.07-.12l0-.14.05-.13a.18.18,0,0,0-.1-.23l-2.15-.84-9.94-7.69-.71-2.16,3.61-.07,4,1.4a.18.18,0,0,0,.22-.11l0-.12.08-.09a.18.18,0,0,0,0-.25l-9.93-9.14-1.56-5.46a.17.17,0,0,0,0-.08.18.18,0,0,0-.05-.08l-1.11-1a.18.18,0,0,0-.18,0l-2.7-11a.17.17,0,0,0-.08-.11.17.17,0,0,0-.13,0l-.12,0-.12,0a.17.17,0,0,0-.2.14L99.57,201,87.52,214.54a.18.18,0,0,0,0,.25l.07.06v.09a.17.17,0,0,0,.2.15l4-.55.08,0a.18.18,0,0,0,.13,0l.11-.07.31,0a.18.18,0,0,0,.15-.2v0l3.89-2.41-12.8,11.75a.18.18,0,0,0,0,.25l.22.24a.18.18,0,0,0,.12.06h0a.18.18,0,0,0,.23.09l10.83-4.49-2,3.76L80.52,232a.18.18,0,0,0,0,.24l.06.09v.11a.17.17,0,0,0,.18.17l1.6-.06-2.78,5a.18.18,0,0,0,.07.24l.1.05.06.1a.18.18,0,0,0,.24.06l13.69-8.22-1.4,3.89-12.2,9.81a.18.18,0,0,0,0,.25l.2.25a.18.18,0,0,0,.25,0l.2-.16.07,0a.17.17,0,0,0,.14,0l13-5.77-2.29,3.3L78.4,249.14a.18.18,0,0,0-.07.07l-1.36.12a.18.18,0,0,0-.17.19l0,.31a.19.19,0,0,0,.07.12.21.21,0,0,0,.14,0l11.45-.79-2.18.94a.18.18,0,0,0-.09.23l0,.11v.12a.18.18,0,0,0,.17.18l2.7.1-5,2.93-13.68,3.61a.18.18,0,0,0-.12.22l.08.3a.17.17,0,0,0,.21.12h0l1,1a3.49,3.49,0,0,0,.23.09l6.68.06-7.92,6.17a.18.18,0,0,0,0,.25l.08.1.05.12a.18.18,0,0,0,.23.1l14.28-5.79-.85,2.93a.18.18,0,0,0,.12.22l.09,0,.06.08a.18.18,0,0,0,.25,0l10.11-7.35-4.9,11.87a.18.18,0,0,0,.09.23l.11,0,.08.09a.18.18,0,0,0,.12.06.21.21,0,0,0,.13,0l8-7.41v14.78A2.51,2.51,0,0,0,99,276h5.55a.17.17,0,0,0,.15-.08h0a.18.18,0,0,0,.18-.18v-16l11.49,11a.19.19,0,0,1,.16.14.17.17,0,0,0,.13,0l.31,0a.18.18,0,0,0,.16-.18l-.33-6,6,4a.18.18,0,0,0,.23,0l11.21,3a.18.18,0,0,0,.22-.12l0-.13.07-.11A.18.18,0,0,0,134.51,271Z"/><path class="cls-1" d="M182.82,278.81l-12.4-8L163,261.93l6.51,1h.07l11.34-.75a.18.18,0,0,0,.16-.19v-.13l0-.12a.18.18,0,0,0-.12-.22l-4-1.14-15.88-8.5-2.31-3.57,2,.75.05.09a.18.18,0,0,0,.24.06l.05,0,.1,0a.18.18,0,0,0,.09-.09l0,0a.18.18,0,0,0,.07-.24h0v0a.18.18,0,0,0-.1-.23l-.08,0-.35-.58,2.38,1.6.09,0,.08,0,12.61.86.12.08a.18.18,0,0,0,.24-.05l.17-.27a.18.18,0,0,0,0-.24l-.09-.06,0-.05a.18.18,0,0,0-.12-.06l-5.3-3.51-8.09-10,3.43,1a.18.18,0,0,0,.18.12h.2a.16.16,0,0,0,.12,0l6.07-.49a.18.18,0,0,0,.16-.19v-.14l0-.13a.18.18,0,0,0-.14-.2l-5.19-.94a.18.18,0,0,0-.07-.06l-7.93-4.07-.48-1.6,4.45,2.37a.17.17,0,0,0,.14,0h0a.17.17,0,0,0,.13,0l.25-.2a.18.18,0,0,0,0-.25l-.13-.16,7,1.06a.17.17,0,0,0,.13,0,.18.18,0,0,0,.07-.12l0-.14.05-.13a.18.18,0,0,0-.1-.23l-2.15-.84-9.94-7.69-.71-2.16,3.61-.07,4,1.4a.18.18,0,0,0,.22-.11l0-.12.08-.09a.18.18,0,0,0,0-.25l-9.93-9.14-1.56-5.46a.17.17,0,0,0,0-.08.18.18,0,0,0-.05-.08l-1.11-1a.18.18,0,0,0-.18,0l-2.7-11a.17.17,0,0,0-.08-.11.17.17,0,0,0-.13,0l-.12,0-.12,0a.17.17,0,0,0-.2.14l-2.24,13.66-12.06,13.56a.18.18,0,0,0,0,.25l.07.06v.09a.17.17,0,0,0,.2.15l4-.55.08,0a.18.18,0,0,0,.13,0l.11-.07.31,0a.18.18,0,0,0,.15-.2v0l3.89-2.41L132,231.33a.18.18,0,0,0,0,.25l.22.24a.18.18,0,0,0,.12.06h0a.18.18,0,0,0,.23.09l10.83-4.49-2,3.76-12.61,8.56a.18.18,0,0,0,0,.24l.06.09v.11a.17.17,0,0,0,.18.17l1.6-.06-2.78,5a.18.18,0,0,0,.07.24l.1.05.06.1a.18.18,0,0,0,.24.06L142,237.61l-1.4,3.89-12.2,9.81a.18.18,0,0,0,0,.25l.2.25a.18.18,0,0,0,.25,0l.2-.16.07,0a.17.17,0,0,0,.14,0l13-5.77-2.29,3.3-13.24,7.67a.18.18,0,0,0-.07.07l-1.36.12a.18.18,0,0,0-.17.19l0,.31a.19.19,0,0,0,.07.12.21.21,0,0,0,.14,0l11.45-.79-2.18.94a.18.18,0,0,0-.09.23l0,.11v.12a.18.18,0,0,0,.17.18l2.7.1-5,2.93-13.68,3.61a.18.18,0,0,0-.12.22l.08.3a.17.17,0,0,0,.21.12h0l1,1a3.49,3.49,0,0,0,.23.09l6.68.06L119,273.12a.18.18,0,0,0,0,.25l.08.1.05.12a.18.18,0,0,0,.23.1l14.28-5.79-.85,2.93a.18.18,0,0,0,.12.22l.09,0,.06.08a.18.18,0,0,0,.25,0l10.11-7.35-4.9,11.87a.18.18,0,0,0,.09.23l.11,0,.08.09a.18.18,0,0,0,.12.06.21.21,0,0,0,.13,0l8-7.41v14.78a2.51,2.51,0,0,0,.33.33h5.55a.17.17,0,0,0,.15-.08h0a.18.18,0,0,0,.18-.18v-16l11.49,11a.19.19,0,0,1,.16.14.17.17,0,0,0,.13,0l.31,0a.18.18,0,0,0,.16-.18l-.33-6,6,4a.18.18,0,0,0,.23,0l11.21,3a.18.18,0,0,0,.22-.12l0-.13.07-.11A.18.18,0,0,0,182.82,278.81Z"/><path class="cls-1" d="M304.19,270.07l-12.4-8-7.44-8.92,6.51,1h.07l11.34-.75a.18.18,0,0,0,.16-.19v-.13l0-.12a.18.18,0,0,0-.12-.22l-4-1.14-15.88-8.5-2.31-3.57,2,.75.05.09a.18.18,0,0,0,.24.06l.05,0,.1,0a.18.18,0,0,0,.09-.09l0,0a.18.18,0,0,0,.07-.24h0v0a.18.18,0,0,0-.1-.23l-.08,0-.35-.58,2.38,1.6.09,0,.08,0,12.61.86.12.08a.18.18,0,0,0,.24-.05l.17-.27a.18.18,0,0,0,0-.24l-.09-.06,0-.05a.18.18,0,0,0-.12-.06l-5.3-3.51-8.09-10,3.43,1a.18.18,0,0,0,.18.12h.2a.16.16,0,0,0,.12,0l6.07-.49a.18.18,0,0,0,.16-.19v-.14l0-.13a.18.18,0,0,0-.14-.2l-5.19-.94a.18.18,0,0,0-.07-.06l-7.93-4.07-.48-1.6,4.45,2.37a.17.17,0,0,0,.14,0h0a.17.17,0,0,0,.13,0l.25-.2a.18.18,0,0,0,0-.25l-.13-.16,7,1.06a.17.17,0,0,0,.13,0,.18.18,0,0,0,.07-.12l0-.14.05-.13a.18.18,0,0,0-.1-.23l-2.15-.84-9.94-7.69-.71-2.16,3.61-.07,4,1.4a.18.18,0,0,0,.22-.11l0-.12.08-.09a.18.18,0,0,0,0-.25l-9.93-9.14-1.56-5.46a.17.17,0,0,0,0-.08.18.18,0,0,0-.05-.08l-1.11-1a.18.18,0,0,0-.18,0l-2.7-11a.17.17,0,0,0-.08-.11.17.17,0,0,0-.13,0l-.12,0-.12,0a.17.17,0,0,0-.2.14L269.25,200,257.2,213.57a.18.18,0,0,0,0,.25l.07.06V214a.17.17,0,0,0,.2.15l4-.55.08,0a.18.18,0,0,0,.13,0l.11-.07.31,0a.18.18,0,0,0,.15-.2v0l3.89-2.41-12.8,11.75a.18.18,0,0,0,0,.25l.22.24a.18.18,0,0,0,.12.06h0a.18.18,0,0,0,.23.09l10.83-4.49-2,3.76L250.2,231a.18.18,0,0,0,0,.24l.06.09v.11a.17.17,0,0,0,.18.17l1.6-.06-2.78,5a.18.18,0,0,0,.07.24l.1.05.06.1a.18.18,0,0,0,.24.06l13.69-8.22-1.4,3.89-12.2,9.81a.18.18,0,0,0,0,.25l.2.25a.18.18,0,0,0,.25,0l.2-.16.07,0a.17.17,0,0,0,.14,0l13-5.77-2.29,3.3-13.24,7.67a.18.18,0,0,0-.07.07l-1.36.12a.18.18,0,0,0-.17.19l0,.31a.19.19,0,0,0,.07.12.21.21,0,0,0,.14,0l11.45-.79-2.18.94a.18.18,0,0,0-.09.23l0,.11v.12a.18.18,0,0,0,.17.18l2.7.1-5,2.93-13.68,3.61a.18.18,0,0,0-.12.22l.08.3a.17.17,0,0,0,.21.12h0l1,1a3.49,3.49,0,0,0,.23.09l6.68.06-7.92,6.17a.18.18,0,0,0,0,.25l.08.1.05.12a.18.18,0,0,0,.23.1L255,259.16l-.85,2.93a.18.18,0,0,0,.12.22l.09,0,.06.08a.18.18,0,0,0,.25,0l10.11-7.35L259.83,267a.18.18,0,0,0,.09.23l.11,0,.08.09a.18.18,0,0,0,.12.06.21.21,0,0,0,.13,0l8-7.41v14.78a2.51,2.51,0,0,0,.33.33h5.55a.17.17,0,0,0,.15-.08h0a.18.18,0,0,0,.18-.18v-16l11.49,11a.19.19,0,0,1,.16.14.17.17,0,0,0,.13,0l.31,0a.18.18,0,0,0,.16-.18l-.33-6,6,4a.18.18,0,0,0,.23,0l11.21,3a.18.18,0,0,0,.22-.12l0-.13.07-.11A.18.18,0,0,0,304.19,270.07Z"/><path class="cls-1" d="M90.24,277.74l-.22-.07a.18.18,0,0,0,0-.11l-12.06-17.8,7.64,2.29a.18.18,0,0,0,.22-.12l0-.16.14-.09a.18.18,0,0,0,.05-.24L74,242.78l5.53,1.56a.18.18,0,0,0,.13,0,.18.18,0,0,0,.08-.11l0-.15L80,244a.18.18,0,0,0,.05-.24l-13.4-20.44a.18.18,0,0,0-.24-.05l-.21.14-.21-.14a.18.18,0,0,0-.24.05l-13.4,20.44a.18.18,0,0,0,.05.24l.13.09,0,.15a.18.18,0,0,0,.08.11.18.18,0,0,0,.13,0l5.53-1.56-12,18.66a.18.18,0,0,0,.05.24l.14.09,0,.16a.18.18,0,0,0,.22.12l7.63-2.29-12.06,17.8a.18.18,0,0,0,0,.11l-.22.07A.18.18,0,0,0,42,278l.14.43a.18.18,0,0,0,.22.11l20.59-6.71v14.5a.18.18,0,0,0,.18.18h0v.05a.18.18,0,0,0,.18.18H69a.18.18,0,0,0,.18-.18v-.05h0a.18.18,0,0,0,.18-.18V271.8L90,278.51a.18.18,0,0,0,.22-.11l.14-.43a.18.18,0,0,0-.11-.22Z"/><path class="cls-1" d="M217.84,262.15l-.22-.07a.18.18,0,0,0,0-.11l-12.06-17.8,7.64,2.29a.18.18,0,0,0,.22-.12l0-.16.14-.09a.18.18,0,0,0,.05-.24l-12-18.66,5.53,1.56a.18.18,0,0,0,.13,0,.18.18,0,0,0,.08-.11l0-.15.13-.09a.18.18,0,0,0,.05-.24l-13.4-20.44a.18.18,0,0,0-.24-.05l-.21.14-.21-.14a.18.18,0,0,0-.24.05l-13.4,20.44a.18.18,0,0,0,.05.24l.13.09,0,.15a.18.18,0,0,0,.08.11.18.18,0,0,0,.13,0l5.53-1.56-12,18.66a.18.18,0,0,0,.05.24l.14.09,0,.16a.18.18,0,0,0,.22.12l7.63-2.29L169.91,262a.18.18,0,0,0,0,.11l-.22.07a.18.18,0,0,0-.11.22l.14.43a.18.18,0,0,0,.22.11l20.59-6.71v14.5a.18.18,0,0,0,.18.18h0v.05a.18.18,0,0,0,.18.18h5.68a.18.18,0,0,0,.18-.18v-.05h0a.18.18,0,0,0,.18-.18V256.2l20.59,6.71a.18.18,0,0,0,.22-.11l.14-.43a.18.18,0,0,0-.11-.22Z"/><path class="cls-1" d="M250.45,270.39l-.22-.07a.18.18,0,0,0,0-.11l-12.06-17.8,7.64,2.29a.18.18,0,0,0,.22-.12l0-.16.14-.09a.18.18,0,0,0,.05-.24l-12-18.66,5.53,1.56a.18.18,0,0,0,.13,0,.18.18,0,0,0,.08-.11l0-.15.13-.09a.18.18,0,0,0,.05-.24l-13.4-20.44a.18.18,0,0,0-.24-.05l-.21.14-.21-.14a.18.18,0,0,0-.24.05l-13.4,20.44a.18.18,0,0,0,.05.24l.13.09,0,.15a.18.18,0,0,0,.08.11.18.18,0,0,0,.13,0l5.53-1.56-12,18.66a.18.18,0,0,0,.05.24l.14.09,0,.16a.18.18,0,0,0,.22.12l7.63-2.29-12.06,17.8a.18.18,0,0,0,0,.11l-.22.07a.18.18,0,0,0-.11.22l.14.43a.18.18,0,0,0,.22.11l20.59-6.71v14.5a.18.18,0,0,0,.18.18h0v.05a.18.18,0,0,0,.18.18h5.68a.18.18,0,0,0,.18-.18v-.05h0a.18.18,0,0,0,.18-.18v-14.5l20.59,6.71a.18.18,0,0,0,.22-.11l.14-.43a.18.18,0,0,0-.11-.22Z"/><path class="cls-1" d="M351.11,274.37l-12.4-8-7.44-8.92,6.51,1h.07l11.34-.75a.18.18,0,0,0,.16-.19v-.13l0-.12a.18.18,0,0,0-.12-.22l-4-1.14-15.88-8.5-2.31-3.57,2,.75.05.09a.18.18,0,0,0,.24.06l.05,0,.1,0a.18.18,0,0,0,.09-.09l0,0a.18.18,0,0,0,.07-.24h0v0a.18.18,0,0,0-.1-.23l-.08,0-.35-.58,2.38,1.6.09,0,.08,0,12.61.86.12.08a.18.18,0,0,0,.24-.05l.17-.27a.18.18,0,0,0,0-.24l-.09-.06,0-.05a.18.18,0,0,0-.12-.06l-5.3-3.51-8.09-10,3.43,1a.18.18,0,0,0,.18.12h.2a.16.16,0,0,0,.12,0l6.07-.49a.18.18,0,0,0,.16-.19v-.14l0-.13a.18.18,0,0,0-.14-.2l-5.19-.94a.18.18,0,0,0-.07-.06L328,226.74l-.48-1.6,4.45,2.37a.17.17,0,0,0,.14,0h0a.17.17,0,0,0,.13,0l.25-.2a.18.18,0,0,0,0-.25l-.13-.16,7,1.06a.17.17,0,0,0,.13,0,.18.18,0,0,0,.07-.12l0-.14.05-.13a.18.18,0,0,0-.1-.23l-2.15-.84-9.94-7.69-.71-2.16,3.61-.07,4,1.4a.18.18,0,0,0,.22-.11l0-.12.08-.09a.18.18,0,0,0,0-.25l-9.93-9.14-1.56-5.46a.17.17,0,0,0,0-.08.18.18,0,0,0-.05-.08l-1.11-1a.18.18,0,0,0-.18,0l-2.7-11a.17.17,0,0,0-.08-.11.17.17,0,0,0-.13,0l-.12,0-.12,0a.17.17,0,0,0-.2.14l-2.24,13.66-12.06,13.56a.18.18,0,0,0,0,.25l.07.06v.09a.17.17,0,0,0,.2.15l4-.55.08,0a.18.18,0,0,0,.13,0l.11-.07.31,0a.18.18,0,0,0,.15-.2v0l3.89-2.41-12.8,11.75a.18.18,0,0,0,0,.25l.22.24a.18.18,0,0,0,.12.06h0a.18.18,0,0,0,.23.09L311.75,223l-2,3.76-12.61,8.56a.18.18,0,0,0,0,.24l.06.09v.11a.17.17,0,0,0,.18.17l1.6-.06-2.78,5a.18.18,0,0,0,.07.24l.1.05.06.1a.18.18,0,0,0,.24.06l13.69-8.22-1.4,3.89-12.2,9.81a.18.18,0,0,0,0,.25l.2.25a.18.18,0,0,0,.25,0l.2-.16.07,0a.17.17,0,0,0,.14,0l13-5.77-2.29,3.3L295,252.47a.18.18,0,0,0-.07.07l-1.36.12a.18.18,0,0,0-.17.19l0,.31a.19.19,0,0,0,.07.12.21.21,0,0,0,.14,0l11.45-.79-2.18.94a.18.18,0,0,0-.09.23l0,.11v.12a.18.18,0,0,0,.17.18l2.7.1-5,2.93-13.68,3.61a.18.18,0,0,0-.12.22l.08.3a.17.17,0,0,0,.21.12h0l1,1a3.49,3.49,0,0,0,.23.09l6.68.06-7.92,6.17a.18.18,0,0,0,0,.25l.08.1.05.12a.18.18,0,0,0,.23.1l14.28-5.79-.85,2.93a.18.18,0,0,0,.12.22l.09,0,.06.08a.18.18,0,0,0,.25,0l10.11-7.35-4.9,11.87a.18.18,0,0,0,.09.23l.11,0,.08.09a.18.18,0,0,0,.12.06.21.21,0,0,0,.13,0l8-7.41V279a2.51,2.51,0,0,0,.33.33h5.55a.17.17,0,0,0,.15-.08h0a.18.18,0,0,0,.18-.18v-16l11.49,11a.19.19,0,0,1,.16.14.17.17,0,0,0,.13,0l.31,0a.18.18,0,0,0,.16-.18l-.33-6,6,4a.18.18,0,0,0,.23,0l11.21,3a.18.18,0,0,0,.22-.12l0-.13.07-.11A.18.18,0,0,0,351.11,274.37Z"/><path class="cls-1" d="M421.44,271l-12.4-8-7.44-8.92,6.51,1h.07l11.34-.75a.18.18,0,0,0,.16-.19v-.13l0-.12a.18.18,0,0,0-.12-.22l-4-1.14-15.88-8.5-2.31-3.57,2,.75.05.09a.18.18,0,0,0,.24.06l.05,0,.1,0a.18.18,0,0,0,.09-.09l0,0a.18.18,0,0,0,.07-.24h0v0a.18.18,0,0,0-.1-.23l-.08,0-.35-.58,2.38,1.6.09,0,.08,0,12.61.86.12.08a.18.18,0,0,0,.24-.05l.17-.27a.18.18,0,0,0,0-.24l-.09-.06,0-.05a.18.18,0,0,0-.12-.06l-5.3-3.51-8.09-10,3.43,1a.18.18,0,0,0,.18.12h.2a.16.16,0,0,0,.12,0l6.07-.49a.18.18,0,0,0,.16-.19v-.14l0-.13a.18.18,0,0,0-.14-.2l-5.19-.94a.18.18,0,0,0-.07-.06l-7.93-4.07-.48-1.6,4.45,2.37a.17.17,0,0,0,.14,0h0a.17.17,0,0,0,.13,0l.25-.2a.18.18,0,0,0,0-.25l-.13-.16,7,1.06a.17.17,0,0,0,.13,0,.18.18,0,0,0,.07-.12l0-.14.05-.13a.18.18,0,0,0-.1-.23l-2.15-.84-9.94-7.69-.71-2.16,3.61-.07,4,1.4a.18.18,0,0,0,.22-.11l0-.12.08-.09a.18.18,0,0,0,0-.25l-9.93-9.14-1.56-5.46a.17.17,0,0,0,0-.08.18.18,0,0,0-.05-.08l-1.11-1a.18.18,0,0,0-.18,0l-2.7-11a.17.17,0,0,0-.08-.11.17.17,0,0,0-.13,0l-.12,0-.12,0a.17.17,0,0,0-.2.14L386.51,201l-12.06,13.56a.18.18,0,0,0,0,.25l.07.06v.09a.17.17,0,0,0,.2.15l4-.55.08,0a.18.18,0,0,0,.13,0l.11-.07.31,0a.18.18,0,0,0,.15-.2v0l3.89-2.41-12.8,11.75a.18.18,0,0,0,0,.25l.22.24a.18.18,0,0,0,.12.06h0a.18.18,0,0,0,.23.09l10.83-4.49-2,3.76L367.45,232a.18.18,0,0,0,0,.24l.06.09v.11a.17.17,0,0,0,.18.17l1.6-.06-2.78,5a.18.18,0,0,0,.07.24l.1.05.06.1a.18.18,0,0,0,.24.06l13.69-8.22-1.4,3.89L367,243.54a.18.18,0,0,0,0,.25l.2.25a.18.18,0,0,0,.25,0l.2-.16.07,0a.17.17,0,0,0,.14,0l13-5.77-2.29,3.3-13.24,7.67a.18.18,0,0,0-.07.07l-1.36.12a.18.18,0,0,0-.17.19l0,.31a.19.19,0,0,0,.07.12.21.21,0,0,0,.14,0l11.45-.79-2.18.94a.18.18,0,0,0-.09.23l0,.11v.12a.18.18,0,0,0,.17.18l2.7.1-5,2.93-13.68,3.61a.18.18,0,0,0-.12.22l.08.3a.17.17,0,0,0,.21.12h0l1,1a3.49,3.49,0,0,0,.23.09l6.68.06-7.92,6.17a.18.18,0,0,0,0,.25l.08.1.05.12a.18.18,0,0,0,.23.1l14.28-5.79-.85,2.93a.18.18,0,0,0,.12.22l.09,0,.06.08a.18.18,0,0,0,.25,0L382,256.07l-4.9,11.87a.18.18,0,0,0,.09.23l.11,0,.08.09a.18.18,0,0,0,.12.06.21.21,0,0,0,.13,0l8-7.41v14.78a2.51,2.51,0,0,0,.33.33h5.55a.17.17,0,0,0,.15-.08h0a.18.18,0,0,0,.18-.18v-16l11.49,11a.19.19,0,0,1,.16.14.17.17,0,0,0,.13,0l.31,0a.18.18,0,0,0,.16-.18l-.33-6,6,4a.18.18,0,0,0,.23,0l11.21,3a.18.18,0,0,0,.22-.12l0-.13.07-.11A.18.18,0,0,0,421.44,271Z"/><path class="cls-1" d="M469.76,278.81l-12.4-8-7.44-8.92,6.51,1h.07l11.34-.75A.18.18,0,0,0,468,262v-.13l0-.12a.18.18,0,0,0-.12-.22l-4-1.14L448,251.93l-2.31-3.57,2,.75.05.09a.18.18,0,0,0,.24.06l.05,0,.1,0a.18.18,0,0,0,.09-.09l0,0a.18.18,0,0,0,.07-.24h0v0a.18.18,0,0,0-.1-.23l-.08,0-.35-.58,2.38,1.6.09,0,.08,0,12.61.86.12.08a.18.18,0,0,0,.24-.05l.17-.27a.18.18,0,0,0,0-.24l-.09-.06,0-.05a.18.18,0,0,0-.12-.06l-5.3-3.51-8.09-10,3.43,1a.18.18,0,0,0,.18.12h.2a.16.16,0,0,0,.12,0l6.07-.49a.18.18,0,0,0,.16-.19v-.14l0-.13a.18.18,0,0,0-.14-.2l-5.19-.94a.18.18,0,0,0-.07-.06l-7.93-4.07-.48-1.6,4.45,2.37a.17.17,0,0,0,.14,0h0a.17.17,0,0,0,.13,0l.25-.2a.18.18,0,0,0,0-.25l-.13-.16,7,1.06a.17.17,0,0,0,.13,0,.18.18,0,0,0,.07-.12l0-.14.05-.13a.18.18,0,0,0-.1-.23L456,230.9l-9.94-7.69-.71-2.16L449,221l4,1.4a.18.18,0,0,0,.22-.11l0-.12.08-.09a.18.18,0,0,0,0-.25l-9.93-9.14-1.56-5.46a.17.17,0,0,0,0-.08.18.18,0,0,0-.05-.08l-1.11-1a.18.18,0,0,0-.18,0l-2.7-11a.17.17,0,0,0-.08-.11.17.17,0,0,0-.13,0l-.12,0-.12,0a.17.17,0,0,0-.2.14l-2.24,13.66-12.06,13.56a.18.18,0,0,0,0,.25l.07.06v.09a.17.17,0,0,0,.2.15l4-.55.08,0a.18.18,0,0,0,.13,0l.11-.07.31,0a.18.18,0,0,0,.15-.2v0l3.89-2.41L419,231.33a.18.18,0,0,0,0,.25l.22.24a.18.18,0,0,0,.12.06h0a.18.18,0,0,0,.23.09l10.83-4.49-2,3.76-12.61,8.56a.18.18,0,0,0,0,.24l.06.09v.11a.17.17,0,0,0,.18.17l1.6-.06-2.78,5a.18.18,0,0,0,.07.24l.1.05.06.1a.18.18,0,0,0,.24.06l13.69-8.22-1.4,3.89-12.2,9.81a.18.18,0,0,0,0,.25l.2.25a.18.18,0,0,0,.25,0l.2-.16.07,0a.17.17,0,0,0,.14,0l13-5.77-2.29,3.3-13.24,7.67a.18.18,0,0,0-.07.07l-1.36.12a.18.18,0,0,0-.17.19l0,.31a.19.19,0,0,0,.07.12.21.21,0,0,0,.14,0l11.45-.79-2.18.94a.18.18,0,0,0-.09.23l0,.11v.12a.18.18,0,0,0,.17.18l2.7.1-5,2.93-13.68,3.61a.18.18,0,0,0-.12.22l.08.3a.17.17,0,0,0,.21.12h0l1,1a3.49,3.49,0,0,0,.23.09l6.68.06-7.92,6.17a.18.18,0,0,0,0,.25l.08.1.05.12a.18.18,0,0,0,.23.1l14.28-5.79-.85,2.93a.18.18,0,0,0,.12.22l.09,0,.06.08a.18.18,0,0,0,.25,0l10.11-7.35-4.9,11.87a.18.18,0,0,0,.09.23l.11,0,.08.09a.18.18,0,0,0,.12.06.21.21,0,0,0,.13,0l8-7.41v14.78a2.51,2.51,0,0,0,.33.33h5.55a.17.17,0,0,0,.15-.08h0a.18.18,0,0,0,.18-.18v-16l11.49,11a.19.19,0,0,1,.16.14.17.17,0,0,0,.13,0l.31,0a.18.18,0,0,0,.16-.18l-.33-6,6,4a.18.18,0,0,0,.23,0l11.21,3a.18.18,0,0,0,.22-.12l0-.13.07-.11A.18.18,0,0,0,469.76,278.81Z"/><path class="cls-1" d="M591.12,270.07l-12.4-8-7.44-8.92,6.51,1h.07l11.34-.75a.18.18,0,0,0,.16-.19v-.13l0-.12a.18.18,0,0,0-.12-.22l-4-1.14-15.88-8.5-2.31-3.57,2,.75.05.09a.18.18,0,0,0,.24.06l.05,0,.1,0a.18.18,0,0,0,.09-.09l0,0a.18.18,0,0,0,.07-.24h0v0a.18.18,0,0,0-.1-.23l-.08,0-.35-.58,2.38,1.6.09,0,.08,0,12.61.86.12.08a.18.18,0,0,0,.24-.05l.17-.27a.18.18,0,0,0,0-.24l-.09-.06,0-.05a.18.18,0,0,0-.12-.06l-5.3-3.51-8.09-10,3.43,1a.18.18,0,0,0,.18.12h.2a.16.16,0,0,0,.12,0l6.07-.49a.18.18,0,0,0,.16-.19v-.14l0-.13a.18.18,0,0,0-.14-.2l-5.19-.94a.18.18,0,0,0-.07-.06L568,222.44l-.48-1.6,4.45,2.37a.17.17,0,0,0,.14,0h0a.17.17,0,0,0,.13,0l.25-.2a.18.18,0,0,0,0-.25l-.13-.16,7,1.06a.17.17,0,0,0,.13,0,.18.18,0,0,0,.07-.12l0-.14.05-.13a.18.18,0,0,0-.1-.23l-2.15-.84-9.94-7.69-.71-2.16,3.61-.07,4,1.4a.18.18,0,0,0,.22-.11l0-.12.08-.09a.18.18,0,0,0,0-.25l-9.93-9.14-1.56-5.46a.17.17,0,0,0,0-.08.18.18,0,0,0-.05-.08l-1.11-1a.18.18,0,0,0-.18,0l-2.7-11a.17.17,0,0,0-.08-.11.17.17,0,0,0-.13,0l-.12,0-.12,0a.17.17,0,0,0-.2.14L556.19,200l-12.06,13.56a.18.18,0,0,0,0,.25l.07.06V214a.17.17,0,0,0,.2.15l4-.55.08,0a.18.18,0,0,0,.13,0l.11-.07.31,0a.18.18,0,0,0,.15-.2v0l3.89-2.41-12.8,11.75a.18.18,0,0,0,0,.25l.22.24a.18.18,0,0,0,.12.06h0a.18.18,0,0,0,.23.09l10.83-4.49-2,3.76L537.13,231a.18.18,0,0,0,0,.24l.06.09v.11a.17.17,0,0,0,.18.17l1.6-.06-2.78,5a.18.18,0,0,0,.07.24l.1.05.06.1a.18.18,0,0,0,.24.06l13.69-8.22-1.4,3.89-12.2,9.81a.18.18,0,0,0,0,.25l.2.25a.18.18,0,0,0,.25,0l.2-.16.07,0a.17.17,0,0,0,.14,0l13-5.77-2.29,3.3L535,248.17a.18.18,0,0,0-.07.07l-1.36.12a.18.18,0,0,0-.17.19l0,.31a.19.19,0,0,0,.07.12.21.21,0,0,0,.14,0l11.45-.79-2.18.94a.18.18,0,0,0-.09.23l0,.11v.12a.18.18,0,0,0,.17.18l2.7.1-5,2.93-13.68,3.61a.18.18,0,0,0-.12.22l.08.3a.17.17,0,0,0,.21.12h0l1,1a3.49,3.49,0,0,0,.23.09l6.68.06-7.92,6.17a.18.18,0,0,0,0,.25l.08.1.05.12a.18.18,0,0,0,.23.1l14.28-5.79-.85,2.93a.18.18,0,0,0,.12.22l.09,0,.06.08a.18.18,0,0,0,.25,0l10.11-7.35L546.77,267a.18.18,0,0,0,.09.23l.11,0,.08.09a.18.18,0,0,0,.12.06.21.21,0,0,0,.13,0l8-7.41v14.78a2.51,2.51,0,0,0,.33.33h5.55a.17.17,0,0,0,.15-.08h0a.18.18,0,0,0,.18-.18v-16l11.49,11a.19.19,0,0,1,.16.14.17.17,0,0,0,.13,0l.31,0a.18.18,0,0,0,.16-.18l-.33-6,6,4a.18.18,0,0,0,.23,0l11.21,3a.18.18,0,0,0,.22-.12l0-.13.07-.11A.18.18,0,0,0,591.12,270.07Z"/><path class="cls-1" d="M377.18,277.74l-.22-.07a.18.18,0,0,0,0-.11l-12.06-17.8,7.64,2.29a.18.18,0,0,0,.22-.12l0-.16.14-.09a.18.18,0,0,0,.05-.24l-12-18.66,5.53,1.56a.18.18,0,0,0,.13,0,.18.18,0,0,0,.08-.11l0-.15.13-.09a.18.18,0,0,0,.05-.24l-13.4-20.44a.18.18,0,0,0-.24-.05l-.21.14-.21-.14a.18.18,0,0,0-.24.05l-13.4,20.44a.18.18,0,0,0,.05.24l.13.09,0,.15a.18.18,0,0,0,.08.11.18.18,0,0,0,.13,0l5.53-1.56-12,18.66a.18.18,0,0,0,.05.24l.14.09,0,.16a.18.18,0,0,0,.22.12l7.63-2.29-12.06,17.8a.18.18,0,0,0,0,.11l-.22.07a.18.18,0,0,0-.11.22l.14.43a.18.18,0,0,0,.22.11l20.59-6.71v14.5a.18.18,0,0,0,.18.18h0v.05a.18.18,0,0,0,.18.18h5.68a.18.18,0,0,0,.18-.18v-.05h0a.18.18,0,0,0,.18-.18V271.8l20.59,6.71a.18.18,0,0,0,.22-.11l.14-.43a.18.18,0,0,0-.11-.22Z"/><path class="cls-1" d="M504.77,262.15l-.22-.07a.18.18,0,0,0,0-.11l-12.06-17.8,7.64,2.29a.18.18,0,0,0,.22-.12l0-.16.14-.09a.18.18,0,0,0,.05-.24l-12-18.66,5.53,1.56a.18.18,0,0,0,.13,0,.18.18,0,0,0,.08-.11l0-.15.13-.09a.18.18,0,0,0,.05-.24l-13.4-20.44a.18.18,0,0,0-.24-.05l-.21.14-.21-.14a.18.18,0,0,0-.24.05l-13.4,20.44a.18.18,0,0,0,.05.24l.13.09,0,.15a.18.18,0,0,0,.08.11.18.18,0,0,0,.13,0l5.53-1.56-12,18.66a.18.18,0,0,0,.05.24l.14.09,0,.16a.18.18,0,0,0,.22.12l7.63-2.29L456.85,262a.18.18,0,0,0,0,.11l-.22.07a.18.18,0,0,0-.11.22l.14.43a.18.18,0,0,0,.22.11l20.59-6.71v14.5a.18.18,0,0,0,.18.18h0v.05a.18.18,0,0,0,.18.18h5.68a.18.18,0,0,0,.18-.18v-.05h0a.18.18,0,0,0,.18-.18V256.2l20.59,6.71a.18.18,0,0,0,.22-.11l.14-.43a.18.18,0,0,0-.11-.22Z"/><path class="cls-1" d="M537.38,270.39l-.22-.07a.18.18,0,0,0,0-.11l-12.06-17.8,7.64,2.29a.18.18,0,0,0,.22-.12l0-.16.14-.09a.18.18,0,0,0,.05-.24l-12-18.66L526.7,237a.18.18,0,0,0,.13,0,.18.18,0,0,0,.08-.11l0-.15.13-.09a.18.18,0,0,0,.05-.24l-13.4-20.44a.18.18,0,0,0-.24-.05l-.21.14-.21-.14a.18.18,0,0,0-.24.05l-13.4,20.44a.18.18,0,0,0,.05.24l.13.09,0,.15a.18.18,0,0,0,.08.11.18.18,0,0,0,.13,0l5.53-1.56-12,18.66a.18.18,0,0,0,.05.24l.14.09,0,.16a.18.18,0,0,0,.22.12l7.63-2.29-12.06,17.8a.18.18,0,0,0,0,.11l-.22.07a.18.18,0,0,0-.11.22l.14.43a.18.18,0,0,0,.22.11l20.59-6.71v14.5a.18.18,0,0,0,.18.18h0v.05a.18.18,0,0,0,.18.18h5.68a.18.18,0,0,0,.18-.18v-.05h0a.18.18,0,0,0,.18-.18v-14.5l20.59,6.71a.18.18,0,0,0,.22-.11l.14-.43a.18.18,0,0,0-.11-.22Z"/><path class="cls-1" d="M638,274.37l-12.4-8-7.44-8.92,6.51,1h.07l11.34-.75a.18.18,0,0,0,.16-.19v-.13l0-.12a.18.18,0,0,0-.12-.22l-4-1.14-15.88-8.5L614,243.91l2,.75.05.09a.18.18,0,0,0,.24.06l.05,0,.1,0a.18.18,0,0,0,.09-.09l0,0a.18.18,0,0,0,.07-.24h0v0a.18.18,0,0,0-.1-.23l-.08,0-.35-.58,2.38,1.6.09,0,.08,0,12.61.86.12.08a.18.18,0,0,0,.24-.05l.17-.27a.18.18,0,0,0,0-.24l-.09-.06,0-.05a.18.18,0,0,0-.12-.06l-5.3-3.51-8.09-10,3.43,1a.18.18,0,0,0,.18.12h.2a.16.16,0,0,0,.12,0l6.07-.49a.18.18,0,0,0,.16-.19v-.14l0-.13a.18.18,0,0,0-.14-.2l-5.19-.94a.18.18,0,0,0-.07-.06l-7.93-4.07-.48-1.6,4.45,2.37a.17.17,0,0,0,.14,0h0a.17.17,0,0,0,.13,0l.25-.2a.18.18,0,0,0,0-.25l-.13-.16,7,1.06a.17.17,0,0,0,.13,0,.18.18,0,0,0,.07-.12l0-.14.05-.13a.18.18,0,0,0-.1-.23l-2.15-.84-9.94-7.69-.71-2.16,3.61-.07,4,1.4a.18.18,0,0,0,.22-.11l0-.12.08-.09a.18.18,0,0,0,0-.25l-9.93-9.14-1.56-5.46a.17.17,0,0,0,0-.08.18.18,0,0,0-.05-.08l-1.11-1a.18.18,0,0,0-.18,0l-2.7-11a.17.17,0,0,0-.08-.11.17.17,0,0,0-.13,0l-.12,0-.12,0a.17.17,0,0,0-.2.14l-2.24,13.66L591,217.88a.18.18,0,0,0,0,.25l.07.06v.09a.17.17,0,0,0,.2.15l4-.55.08,0a.18.18,0,0,0,.13,0l.11-.07.31,0a.18.18,0,0,0,.15-.2v0l3.89-2.41-12.8,11.75a.18.18,0,0,0,0,.25l.22.24a.18.18,0,0,0,.12.06h0a.18.18,0,0,0,.23.09L598.69,223l-2,3.76L584,235.35a.18.18,0,0,0,0,.24l.06.09v.11a.17.17,0,0,0,.18.17l1.6-.06-2.78,5a.18.18,0,0,0,.07.24l.1.05.06.1a.18.18,0,0,0,.24.06l13.69-8.22-1.4,3.89-12.2,9.81a.18.18,0,0,0,0,.25l.2.25a.18.18,0,0,0,.25,0l.2-.16.07,0a.17.17,0,0,0,.14,0l13-5.77-2.29,3.3-13.24,7.67a.18.18,0,0,0-.07.07l-1.36.12a.18.18,0,0,0-.17.19l0,.31a.19.19,0,0,0,.07.12.21.21,0,0,0,.14,0l11.45-.79-2.18.94a.18.18,0,0,0-.09.23l0,.11v.12a.18.18,0,0,0,.17.18l2.7.1-5,2.93L574,260.77a.18.18,0,0,0-.12.22l.08.3a.17.17,0,0,0,.21.12h0l1,1a3.49,3.49,0,0,0,.23.09l6.68.06-7.92,6.17a.18.18,0,0,0,0,.25l.08.1.05.12a.18.18,0,0,0,.23.1l14.28-5.79-.85,2.93a.18.18,0,0,0,.12.22l.09,0,.06.08a.18.18,0,0,0,.25,0l10.11-7.35-4.9,11.87a.18.18,0,0,0,.09.23l.11,0,.08.09a.18.18,0,0,0,.12.06.21.21,0,0,0,.13,0l8-7.41V279a2.51,2.51,0,0,0,.33.33h5.55a.17.17,0,0,0,.15-.08h0a.18.18,0,0,0,.18-.18v-16l11.49,11a.19.19,0,0,1,.16.14.17.17,0,0,0,.13,0l.31,0a.18.18,0,0,0,.16-.18l-.33-6,6,4a.18.18,0,0,0,.23,0l11.21,3a.18.18,0,0,0,.22-.12l0-.13.07-.11A.18.18,0,0,0,638,274.37Z"/><path class="cls-1" d="M708.37,271l-12.4-8-7.44-8.92,6.51,1h.07l11.34-.75a.18.18,0,0,0,.16-.19v-.13l0-.12a.18.18,0,0,0-.12-.22l-4-1.14-15.88-8.5-2.31-3.57,2,.75.05.09a.18.18,0,0,0,.24.06l.05,0,.1,0a.18.18,0,0,0,.09-.09l0,0a.18.18,0,0,0,.07-.24h0v0a.18.18,0,0,0-.1-.23l-.08,0-.35-.58,2.38,1.6.09,0,.08,0,12.61.86.12.08a.18.18,0,0,0,.24-.05l.17-.27a.18.18,0,0,0,0-.24l-.09-.06,0-.05a.18.18,0,0,0-.12-.06l-5.3-3.51-8.09-10,3.43,1a.18.18,0,0,0,.18.12h.2a.16.16,0,0,0,.12,0l6.07-.49a.18.18,0,0,0,.16-.19v-.14l0-.13a.18.18,0,0,0-.14-.2l-5.19-.94a.18.18,0,0,0-.07-.06l-7.93-4.07-.48-1.6,4.45,2.37a.17.17,0,0,0,.14,0h0a.17.17,0,0,0,.13,0l.25-.2a.18.18,0,0,0,0-.25l-.13-.16,7,1.06a.17.17,0,0,0,.13,0,.18.18,0,0,0,.07-.12l0-.14.05-.13a.18.18,0,0,0-.1-.23l-2.15-.84-9.94-7.69-.71-2.16,3.61-.07,4,1.4a.18.18,0,0,0,.22-.11l0-.12.08-.09a.18.18,0,0,0,0-.25L682,204.9l-1.56-5.46a.17.17,0,0,0,0-.08.18.18,0,0,0-.05-.08l-1.11-1a.18.18,0,0,0-.18,0l-2.7-11a.17.17,0,0,0-.08-.11.17.17,0,0,0-.13,0l-.12,0-.12,0a.17.17,0,0,0-.2.14L673.44,201l-12.06,13.56a.18.18,0,0,0,0,.25l.07.06v.09a.17.17,0,0,0,.2.15l4-.55.08,0a.18.18,0,0,0,.13,0l.11-.07.31,0a.18.18,0,0,0,.15-.2v0l3.89-2.41-12.8,11.75a.18.18,0,0,0,0,.25l.22.24a.18.18,0,0,0,.12.06h0a.18.18,0,0,0,.23.09L669,219.7l-2,3.76L654.38,232a.18.18,0,0,0,0,.24l.06.09v.11a.17.17,0,0,0,.18.17l1.6-.06-2.78,5a.18.18,0,0,0,.07.24l.1.05.06.1a.18.18,0,0,0,.24.06l13.69-8.22-1.4,3.89L654,243.54a.18.18,0,0,0,0,.25l.2.25a.18.18,0,0,0,.25,0l.2-.16.07,0a.17.17,0,0,0,.14,0l13-5.77-2.29,3.3-13.24,7.67a.18.18,0,0,0-.07.07l-1.36.12a.18.18,0,0,0-.17.19l0,.31a.19.19,0,0,0,.07.12.21.21,0,0,0,.14,0l11.45-.79-2.18.94a.18.18,0,0,0-.09.23l0,.11v.12a.18.18,0,0,0,.17.18l2.7.1-5,2.93-13.68,3.61a.18.18,0,0,0-.12.22l.08.3a.17.17,0,0,0,.21.12h0l1,1a3.49,3.49,0,0,0,.23.09l6.68.06-7.92,6.17a.18.18,0,0,0,0,.25l.08.1.05.12a.18.18,0,0,0,.23.1l14.28-5.79-.85,2.93a.18.18,0,0,0,.12.22l.09,0,.06.08a.18.18,0,0,0,.25,0l10.11-7.35L664,267.94a.18.18,0,0,0,.09.23l.11,0,.08.09a.18.18,0,0,0,.12.06.21.21,0,0,0,.13,0l8-7.41v14.78a2.51,2.51,0,0,0,.33.33h5.55a.17.17,0,0,0,.15-.08h0a.18.18,0,0,0,.18-.18v-16l11.49,11a.19.19,0,0,1,.16.14.17.17,0,0,0,.13,0l.31,0a.18.18,0,0,0,.16-.18l-.33-6,6,4a.18.18,0,0,0,.23,0l11.21,3a.18.18,0,0,0,.22-.12l0-.13.07-.11A.18.18,0,0,0,708.37,271Z"/><path class="cls-1" d="M756.69,278.81l-12.4-8-7.44-8.92,6.51,1h.07l11.34-.75a.18.18,0,0,0,.16-.19v-.13l0-.12a.18.18,0,0,0-.12-.22l-4-1.14L735,251.93l-2.31-3.57,2,.75.05.09a.18.18,0,0,0,.24.06l.05,0,.1,0a.18.18,0,0,0,.09-.09l0,0a.18.18,0,0,0,.07-.24h0v0a.18.18,0,0,0-.1-.23l-.08,0-.35-.58,2.38,1.6.09,0,.08,0,12.61.86.12.08a.18.18,0,0,0,.24-.05l.17-.27a.18.18,0,0,0,0-.24l-.09-.06,0-.05a.18.18,0,0,0-.12-.06l-5.3-3.51-8.09-10,3.43,1a.18.18,0,0,0,.18.12h.2a.16.16,0,0,0,.12,0l6.07-.49a.18.18,0,0,0,.16-.19v-.14l0-.13a.18.18,0,0,0-.14-.2l-5.19-.94a.18.18,0,0,0-.07-.06l-7.93-4.07-.48-1.6,4.45,2.37a.17.17,0,0,0,.14,0h0a.17.17,0,0,0,.13,0l.25-.2a.18.18,0,0,0,0-.25l-.13-.16,7,1.06a.17.17,0,0,0,.13,0,.18.18,0,0,0,.07-.12l0-.14.05-.13a.18.18,0,0,0-.1-.23L743,230.9,733,223.22l-.71-2.16,3.61-.07,4,1.4a.18.18,0,0,0,.22-.11l0-.12.08-.09a.18.18,0,0,0,0-.25l-9.93-9.14-1.56-5.46a.17.17,0,0,0,0-.08.18.18,0,0,0-.05-.08l-1.11-1a.18.18,0,0,0-.18,0l-2.7-11a.17.17,0,0,0-.08-.11.17.17,0,0,0-.13,0l-.12,0-.12,0a.17.17,0,0,0-.2.14l-2.24,13.66L709.7,222.32a.18.18,0,0,0,0,.25l.07.06v.09a.17.17,0,0,0,.2.15l4-.55.08,0a.18.18,0,0,0,.13,0l.11-.07.31,0a.18.18,0,0,0,.15-.2v0l3.89-2.41-12.8,11.75a.18.18,0,0,0,0,.25l.22.24a.18.18,0,0,0,.12.06h0a.18.18,0,0,0,.23.09l10.83-4.49-2,3.76-12.61,8.56a.18.18,0,0,0,0,.24l.06.09v.11a.17.17,0,0,0,.18.17l1.6-.06-2.78,5a.18.18,0,0,0,.07.24l.1.05.06.1a.18.18,0,0,0,.24.06l13.69-8.22-1.4,3.89-12.2,9.81a.18.18,0,0,0,0,.25l.2.25a.18.18,0,0,0,.25,0l.2-.16.07,0a.17.17,0,0,0,.14,0l13-5.77-2.29,3.3-13.24,7.67a.18.18,0,0,0-.07.07l-1.36.12a.18.18,0,0,0-.17.19l0,.31a.19.19,0,0,0,.07.12.21.21,0,0,0,.14,0l11.45-.79-2.18.94a.18.18,0,0,0-.09.23l0,.11v.12a.18.18,0,0,0,.17.18l2.7.1-5,2.93-13.68,3.61a.18.18,0,0,0-.12.22l.08.3a.17.17,0,0,0,.21.12h0l1,1a3.49,3.49,0,0,0,.23.09l6.68.06-7.92,6.17a.18.18,0,0,0,0,.25l.08.1.05.12a.18.18,0,0,0,.23.1l14.28-5.79-.85,2.93a.18.18,0,0,0,.12.22l.09,0,.06.08a.18.18,0,0,0,.25,0l10.11-7.35-4.9,11.87a.18.18,0,0,0,.09.23l.11,0,.08.09a.18.18,0,0,0,.12.06.21.21,0,0,0,.13,0l8-7.41v14.78a2.51,2.51,0,0,0,.33.33h5.55a.17.17,0,0,0,.15-.08h0a.18.18,0,0,0,.18-.18v-16l11.49,11a.19.19,0,0,1,.16.14.17.17,0,0,0,.13,0l.31,0a.18.18,0,0,0,.16-.18l-.33-6,6,4a.18.18,0,0,0,.23,0l11.21,3a.18.18,0,0,0,.22-.12l0-.13.07-.11A.18.18,0,0,0,756.69,278.81Z"/><path class="cls-1" d="M878.06,270.07l-12.4-8-7.44-8.92,6.51,1h.07l11.34-.75a.18.18,0,0,0,.16-.19v-.13l0-.12a.18.18,0,0,0-.12-.22l-4-1.14-15.88-8.5L854,239.61l2,.75.05.09a.18.18,0,0,0,.24.06l.05,0,.1,0a.18.18,0,0,0,.09-.09l0,0a.18.18,0,0,0,.07-.24h0v0a.18.18,0,0,0-.1-.23l-.08,0-.35-.58,2.38,1.6.09,0,.08,0,12.61.86.12.08a.18.18,0,0,0,.24-.05l.17-.27a.18.18,0,0,0,0-.24l-.09-.06,0-.05a.18.18,0,0,0-.12-.06l-5.3-3.51-8.09-10,3.43,1a.18.18,0,0,0,.18.12h.2a.16.16,0,0,0,.12,0l6.07-.49a.18.18,0,0,0,.16-.19v-.14l0-.13a.18.18,0,0,0-.14-.2l-5.19-.94a.18.18,0,0,0-.07-.06L855,222.44l-.48-1.6,4.45,2.37a.17.17,0,0,0,.14,0h0a.17.17,0,0,0,.13,0l.25-.2a.18.18,0,0,0,0-.25l-.13-.16,7,1.06a.17.17,0,0,0,.13,0,.18.18,0,0,0,.07-.12l0-.14.05-.13a.18.18,0,0,0-.1-.23l-2.15-.84-9.94-7.69-.71-2.16,3.61-.07,4,1.4a.18.18,0,0,0,.22-.11l0-.12.08-.09a.18.18,0,0,0,0-.25l-9.93-9.14-1.56-5.46a.17.17,0,0,0,0-.08.18.18,0,0,0-.05-.08l-1.11-1a.18.18,0,0,0-.18,0l-2.7-11a.17.17,0,0,0-.08-.11.17.17,0,0,0-.13,0l-.12,0-.12,0a.17.17,0,0,0-.2.14L843.12,200l-12.06,13.56a.18.18,0,0,0,0,.25l.07.06V214a.17.17,0,0,0,.2.15l4-.55.08,0a.18.18,0,0,0,.13,0l.11-.07.31,0a.18.18,0,0,0,.15-.2v0l3.89-2.41-12.8,11.75a.18.18,0,0,0,0,.25l.22.24a.18.18,0,0,0,.12.06h0a.18.18,0,0,0,.23.09l10.83-4.49-2,3.76L824.07,231a.18.18,0,0,0,0,.24l.06.09v.11a.17.17,0,0,0,.18.17l1.6-.06-2.78,5a.18.18,0,0,0,.07.24l.1.05.06.1a.18.18,0,0,0,.24.06l13.69-8.22-1.4,3.89-12.2,9.81a.18.18,0,0,0,0,.25l.2.25a.18.18,0,0,0,.25,0l.2-.16.07,0a.17.17,0,0,0,.14,0l13-5.77-2.29,3.3-13.24,7.67a.18.18,0,0,0-.07.07l-1.36.12a.18.18,0,0,0-.17.19l0,.31a.19.19,0,0,0,.07.12.21.21,0,0,0,.14,0l11.45-.79-2.18.94a.18.18,0,0,0-.09.23l0,.11v.12a.18.18,0,0,0,.17.18l2.7.1-5,2.93L814,256.47a.18.18,0,0,0-.12.22l.08.3a.17.17,0,0,0,.21.12h0l1,1a3.49,3.49,0,0,0,.23.09l6.68.06-7.92,6.17a.18.18,0,0,0,0,.25l.08.1.05.12a.18.18,0,0,0,.23.1l14.28-5.79-.85,2.93a.18.18,0,0,0,.12.22l.09,0,.06.08a.18.18,0,0,0,.25,0l10.11-7.35L833.7,267a.18.18,0,0,0,.09.23l.11,0,.08.09a.18.18,0,0,0,.12.06.21.21,0,0,0,.13,0l8-7.41v14.78a2.51,2.51,0,0,0,.33.33h5.55a.17.17,0,0,0,.15-.08h0a.18.18,0,0,0,.18-.18v-16l11.49,11a.19.19,0,0,1,.16.14.17.17,0,0,0,.13,0l.31,0a.18.18,0,0,0,.16-.18l-.33-6,6,4a.18.18,0,0,0,.23,0l11.21,3a.18.18,0,0,0,.22-.12l0-.13.07-.11A.18.18,0,0,0,878.06,270.07Z"/><path class="cls-1" d="M664.11,277.74l-.22-.07a.18.18,0,0,0,0-.11l-12.06-17.8,7.64,2.29a.18.18,0,0,0,.22-.12l0-.16.14-.09a.18.18,0,0,0,.05-.24l-12-18.66,5.53,1.56a.18.18,0,0,0,.13,0,.18.18,0,0,0,.08-.11l0-.15.13-.09a.18.18,0,0,0,.05-.24l-13.4-20.44a.18.18,0,0,0-.24-.05l-.21.14-.21-.14a.18.18,0,0,0-.24.05l-13.4,20.44a.18.18,0,0,0,.05.24l.13.09,0,.15a.18.18,0,0,0,.08.11.18.18,0,0,0,.13,0l5.53-1.56-12,18.66a.18.18,0,0,0,.05.24l.14.09,0,.16a.18.18,0,0,0,.22.12l7.63-2.29-12.06,17.8a.18.18,0,0,0,0,.11l-.22.07a.18.18,0,0,0-.11.22l.14.43a.18.18,0,0,0,.22.11l20.59-6.71v14.5a.18.18,0,0,0,.18.18h0v.05a.18.18,0,0,0,.18.18h5.68a.18.18,0,0,0,.18-.18v-.05h0a.18.18,0,0,0,.18-.18V271.8l20.59,6.71a.18.18,0,0,0,.22-.11l.14-.43a.18.18,0,0,0-.11-.22Z"/><path class="cls-1" d="M791.71,262.15l-.22-.07a.18.18,0,0,0,0-.11l-12.06-17.8,7.64,2.29a.18.18,0,0,0,.22-.12l0-.16.14-.09a.18.18,0,0,0,.05-.24l-12-18.66,5.53,1.56a.18.18,0,0,0,.13,0,.18.18,0,0,0,.08-.11l0-.15.13-.09a.18.18,0,0,0,.05-.24l-13.4-20.44a.18.18,0,0,0-.24-.05l-.21.14-.21-.14a.18.18,0,0,0-.24.05l-13.4,20.44a.18.18,0,0,0,.05.24l.13.09,0,.15a.18.18,0,0,0,.08.11.18.18,0,0,0,.13,0l5.53-1.56-12,18.66a.18.18,0,0,0,.05.24l.14.09,0,.16a.18.18,0,0,0,.22.12l7.63-2.29L743.78,262a.18.18,0,0,0,0,.11l-.22.07a.18.18,0,0,0-.11.22l.14.43a.18.18,0,0,0,.22.11l20.59-6.71v14.5a.18.18,0,0,0,.18.18h0v.05a.18.18,0,0,0,.18.18h5.68a.18.18,0,0,0,.18-.18v-.05h0a.18.18,0,0,0,.18-.18V256.2l20.59,6.71a.18.18,0,0,0,.22-.11l.14-.43a.18.18,0,0,0-.11-.22Z"/><path class="cls-1" d="M824.31,270.39l-.22-.07a.18.18,0,0,0,0-.11L812,252.4l7.64,2.29a.18.18,0,0,0,.22-.12l0-.16.14-.09a.18.18,0,0,0,.05-.24l-12-18.66,5.53,1.56a.18.18,0,0,0,.13,0,.18.18,0,0,0,.08-.11l0-.15.13-.09a.18.18,0,0,0,.05-.24l-13.4-20.44a.18.18,0,0,0-.24-.05l-.21.14-.21-.14a.18.18,0,0,0-.24.05l-13.4,20.44a.18.18,0,0,0,.05.24l.13.09,0,.15a.18.18,0,0,0,.08.11.18.18,0,0,0,.13,0l5.53-1.56-12,18.66a.18.18,0,0,0,.05.24l.14.09,0,.16a.18.18,0,0,0,.22.12l7.63-2.29-12.06,17.8a.18.18,0,0,0,0,.11l-.22.07a.18.18,0,0,0-.11.22l.14.43a.18.18,0,0,0,.22.11L797,264.44v14.5a.18.18,0,0,0,.18.18h0v.05a.18.18,0,0,0,.18.18h5.68a.18.18,0,0,0,.18-.18v-.05h0a.18.18,0,0,0,.18-.18v-14.5l20.59,6.71a.18.18,0,0,0,.22-.11l.14-.43a.18.18,0,0,0-.11-.22Z"/><path class="cls-1" d="M925,274.37l-12.4-8-7.44-8.92,6.51,1h.07l11.34-.75a.18.18,0,0,0,.16-.19v-.13l0-.12a.18.18,0,0,0-.12-.22l-4-1.14-15.88-8.5-2.31-3.57,2,.75.05.09a.18.18,0,0,0,.24.06l.05,0,.1,0a.18.18,0,0,0,.09-.09l0,0a.18.18,0,0,0,.07-.24h0v0a.18.18,0,0,0-.1-.23l-.08,0-.35-.58,2.38,1.6.09,0,.08,0,12.61.86.12.08a.18.18,0,0,0,.24-.05l.17-.27a.18.18,0,0,0,0-.24l-.09-.06,0-.05a.18.18,0,0,0-.12-.06l-5.3-3.51-8.09-10,3.43,1a.18.18,0,0,0,.18.12h.2a.16.16,0,0,0,.12,0l6.07-.49a.18.18,0,0,0,.16-.19v-.14l0-.13a.18.18,0,0,0-.14-.2l-5.19-.94a.18.18,0,0,0-.07-.06l-7.93-4.07-.48-1.6,4.45,2.37a.17.17,0,0,0,.14,0h0a.17.17,0,0,0,.13,0l.25-.2a.18.18,0,0,0,0-.25l-.13-.16,7,1.06a.17.17,0,0,0,.13,0,.18.18,0,0,0,.07-.12l0-.14.05-.13a.18.18,0,0,0-.1-.23l-2.15-.84-9.94-7.69-.71-2.16,3.61-.07,4,1.4a.18.18,0,0,0,.22-.11l0-.12.08-.09a.18.18,0,0,0,0-.25l-9.93-9.14L897,202.78a.17.17,0,0,0,0-.08.18.18,0,0,0-.05-.08l-1.11-1a.18.18,0,0,0-.18,0l-2.7-11a.17.17,0,0,0-.08-.11.17.17,0,0,0-.13,0l-.12,0-.12,0a.17.17,0,0,0-.2.14L890,204.31,878,217.88a.18.18,0,0,0,0,.25l.07.06v.09a.17.17,0,0,0,.2.15l4-.55.08,0a.18.18,0,0,0,.13,0l.11-.07.31,0a.18.18,0,0,0,.15-.2v0l3.89-2.41-12.8,11.75a.18.18,0,0,0,0,.25l.22.24a.18.18,0,0,0,.12.06h0a.18.18,0,0,0,.23.09L885.62,223l-2,3.76L871,235.35a.18.18,0,0,0,0,.24l.06.09v.11a.17.17,0,0,0,.18.17l1.6-.06-2.78,5a.18.18,0,0,0,.07.24l.1.05.06.1a.18.18,0,0,0,.24.06l13.69-8.22-1.4,3.89-12.2,9.81a.18.18,0,0,0,0,.25l.2.25a.18.18,0,0,0,.25,0l.2-.16.07,0a.17.17,0,0,0,.14,0l13-5.77-2.29,3.3-13.24,7.67a.18.18,0,0,0-.07.07l-1.36.12a.18.18,0,0,0-.17.19l0,.31a.19.19,0,0,0,.07.12.21.21,0,0,0,.14,0l11.45-.79-2.18.94a.18.18,0,0,0-.09.23l0,.11v.12a.18.18,0,0,0,.17.18l2.7.1-5,2.93-13.68,3.61a.18.18,0,0,0-.12.22l.08.3a.17.17,0,0,0,.21.12h0l1,1a3.49,3.49,0,0,0,.23.09l6.68.06-7.92,6.17a.18.18,0,0,0,0,.25l.08.1.05.12a.18.18,0,0,0,.23.1l14.28-5.79-.85,2.93a.18.18,0,0,0,.12.22l.09,0,.06.08a.18.18,0,0,0,.25,0l10.11-7.35-4.9,11.87a.18.18,0,0,0,.09.23l.11,0,.08.09a.18.18,0,0,0,.12.06.21.21,0,0,0,.13,0l8-7.41V279a2.51,2.51,0,0,0,.33.33H895a.17.17,0,0,0,.15-.08h0a.18.18,0,0,0,.18-.18v-16l11.49,11a.19.19,0,0,1,.16.14.17.17,0,0,0,.13,0l.31,0a.18.18,0,0,0,.16-.18l-.33-6,6,4a.18.18,0,0,0,.23,0l11.21,3a.18.18,0,0,0,.22-.12l0-.13.07-.11A.18.18,0,0,0,925,274.37Z"/><path class="cls-1" d="M995.31,271l-12.4-8-7.44-8.92,6.51,1h.07l11.34-.75a.18.18,0,0,0,.16-.19v-.13l0-.12a.18.18,0,0,0-.12-.22l-4-1.14-15.88-8.5-2.31-3.57,2,.75.05.09a.18.18,0,0,0,.24.06l.05,0,.1,0a.18.18,0,0,0,.09-.09l0,0a.18.18,0,0,0,.07-.24h0v0a.18.18,0,0,0-.1-.23l-.08,0-.35-.58,2.38,1.6.09,0,.08,0,12.61.86.12.08a.18.18,0,0,0,.24-.05l.17-.27a.18.18,0,0,0,0-.24l-.09-.06,0-.05a.18.18,0,0,0-.12-.06l-5.3-3.51-8.09-10,3.43,1a.18.18,0,0,0,.18.12h.2a.16.16,0,0,0,.12,0l6.07-.49a.18.18,0,0,0,.16-.19v-.14l0-.13a.18.18,0,0,0-.14-.2l-5.19-.94a.18.18,0,0,0-.07-.06l-7.93-4.07-.48-1.6,4.45,2.37a.17.17,0,0,0,.14,0h0a.17.17,0,0,0,.13,0l.25-.2a.18.18,0,0,0,0-.25l-.13-.16,7,1.06a.17.17,0,0,0,.13,0,.18.18,0,0,0,.07-.12l0-.14.05-.13a.18.18,0,0,0-.1-.23l-2.15-.84-9.94-7.69-.71-2.16,3.61-.07,4,1.4a.18.18,0,0,0,.22-.11l0-.12.08-.09a.18.18,0,0,0,0-.25l-9.93-9.14-1.56-5.46a.17.17,0,0,0,0-.08.18.18,0,0,0-.05-.08l-1.11-1a.18.18,0,0,0-.18,0l-2.7-11a.17.17,0,0,0-.08-.11.17.17,0,0,0-.13,0l-.12,0-.12,0a.17.17,0,0,0-.2.14L960.37,201l-12.06,13.56a.18.18,0,0,0,0,.25l.07.06v.09a.17.17,0,0,0,.2.15l4-.55.08,0a.18.18,0,0,0,.13,0l.11-.07.31,0a.18.18,0,0,0,.15-.2v0l3.89-2.41-12.8,11.75a.18.18,0,0,0,0,.25l.22.24a.18.18,0,0,0,.12.06h0a.18.18,0,0,0,.23.09L956,219.7l-2,3.76L941.32,232a.18.18,0,0,0,0,.24l.06.09v.11a.17.17,0,0,0,.18.17l1.6-.06-2.78,5a.18.18,0,0,0,.07.24l.1.05.06.1a.18.18,0,0,0,.24.06l13.69-8.22-1.4,3.89-12.2,9.81a.18.18,0,0,0,0,.25l.2.25a.18.18,0,0,0,.25,0l.2-.16.07,0a.17.17,0,0,0,.14,0l13-5.77-2.29,3.3-13.24,7.67a.18.18,0,0,0-.07.07l-1.36.12a.18.18,0,0,0-.17.19l0,.31a.19.19,0,0,0,.07.12.21.21,0,0,0,.14,0l11.45-.79-2.18.94a.18.18,0,0,0-.09.23l0,.11v.12a.18.18,0,0,0,.17.18l2.7.1-5,2.93-13.68,3.61a.18.18,0,0,0-.12.22l.08.3a.17.17,0,0,0,.21.12h0l1,1a3.49,3.49,0,0,0,.23.09l6.68.06-7.92,6.17a.18.18,0,0,0,0,.25l.08.1.05.12a.18.18,0,0,0,.23.1l14.28-5.79-.85,2.93a.18.18,0,0,0,.12.22l.09,0,.06.08a.18.18,0,0,0,.25,0l10.11-7.35L951,267.94a.18.18,0,0,0,.09.23l.11,0,.08.09a.18.18,0,0,0,.12.06.21.21,0,0,0,.13,0l8-7.41v14.78a2.51,2.51,0,0,0,.33.33h5.55a.17.17,0,0,0,.15-.08h0a.18.18,0,0,0,.18-.18v-16l11.49,11a.19.19,0,0,1,.16.14.17.17,0,0,0,.13,0l.31,0a.18.18,0,0,0,.16-.18l-.33-6,6,4a.18.18,0,0,0,.23,0l11.21,3a.18.18,0,0,0,.22-.12l0-.13.07-.11A.18.18,0,0,0,995.31,271Z"/><path class="cls-1" d="M1043.62,278.81l-12.4-8-7.44-8.92,6.51,1h.07l11.34-.75a.18.18,0,0,0,.16-.19v-.13l0-.12a.18.18,0,0,0-.12-.22l-4-1.14-15.88-8.5-2.31-3.57,2,.75.05.09a.18.18,0,0,0,.24.06l.05,0,.1,0a.18.18,0,0,0,.09-.09l0,0a.18.18,0,0,0,.07-.24h0v0a.18.18,0,0,0-.1-.23l-.08,0-.35-.58,2.38,1.6.09,0,.08,0,12.61.86.12.08a.18.18,0,0,0,.24-.05l.17-.27a.18.18,0,0,0,0-.24l-.09-.06,0-.05a.18.18,0,0,0-.12-.06l-5.3-3.51-8.09-10,3.43,1a.18.18,0,0,0,.18.12h.2a.16.16,0,0,0,.12,0l6.07-.49a.18.18,0,0,0,.16-.19v-.14l0-.13a.18.18,0,0,0-.14-.2l-5.19-.94a.18.18,0,0,0-.07-.06l-7.93-4.07-.48-1.6,4.45,2.37a.17.17,0,0,0,.14,0h0a.17.17,0,0,0,.13,0l.25-.2a.18.18,0,0,0,0-.25l-.13-.16,7,1.06a.17.17,0,0,0,.13,0,.18.18,0,0,0,.07-.12l0-.14.05-.13a.18.18,0,0,0-.1-.23l-2.15-.84-9.94-7.69-.71-2.16,3.61-.07,4,1.4a.18.18,0,0,0,.22-.11l0-.12.08-.09a.18.18,0,0,0,0-.25l-9.93-9.14-1.56-5.46a.17.17,0,0,0,0-.08.18.18,0,0,0-.05-.08l-1.11-1a.18.18,0,0,0-.18,0l-2.7-11a.17.17,0,0,0-.08-.11.17.17,0,0,0-.13,0l-.12,0-.12,0a.17.17,0,0,0-.2.14l-2.24,13.66-12.06,13.56a.18.18,0,0,0,0,.25l.07.06v.09a.17.17,0,0,0,.2.15l4-.55.08,0a.18.18,0,0,0,.13,0l.11-.07.31,0a.18.18,0,0,0,.15-.2v0l3.89-2.41-12.8,11.75a.18.18,0,0,0,0,.25l.22.24a.18.18,0,0,0,.12.06h0a.18.18,0,0,0,.23.09l10.83-4.49-2,3.76-12.61,8.56a.18.18,0,0,0,0,.24l.06.09v.11a.17.17,0,0,0,.18.17l1.6-.06-2.78,5a.18.18,0,0,0,.07.24l.1.05.06.1a.18.18,0,0,0,.24.06l13.69-8.22-1.4,3.89-12.2,9.81a.18.18,0,0,0,0,.25l.2.25a.18.18,0,0,0,.25,0l.2-.16.07,0a.17.17,0,0,0,.14,0l13-5.77-2.29,3.3-13.24,7.67a.18.18,0,0,0-.07.07l-1.36.12a.18.18,0,0,0-.17.19l0,.31a.19.19,0,0,0,.07.12.21.21,0,0,0,.14,0l11.45-.79-2.18.94a.18.18,0,0,0-.09.23l0,.11v.12a.18.18,0,0,0,.17.18l2.7.1-5,2.93-13.68,3.61a.18.18,0,0,0-.12.22l.08.3a.17.17,0,0,0,.21.12h0l1,1a3.49,3.49,0,0,0,.23.09l6.68.06-7.92,6.17a.18.18,0,0,0,0,.25l.08.1.05.12a.18.18,0,0,0,.23.1l14.28-5.79-.85,2.93a.18.18,0,0,0,.12.22l.09,0,.06.08a.18.18,0,0,0,.25,0l10.11-7.35-4.9,11.87a.18.18,0,0,0,.09.23l.11,0,.08.09a.18.18,0,0,0,.12.06.21.21,0,0,0,.13,0l8-7.41v14.78a2.51,2.51,0,0,0,.33.33h5.55a.17.17,0,0,0,.15-.08h0a.18.18,0,0,0,.18-.18v-16l11.49,11a.19.19,0,0,1,.16.14.17.17,0,0,0,.13,0l.31,0a.18.18,0,0,0,.16-.18l-.33-6,6,4a.18.18,0,0,0,.23,0l11.21,3a.18.18,0,0,0,.22-.12l0-.13.07-.11A.18.18,0,0,0,1043.62,278.81Z"/><path class="cls-1" d="M1165,270.07l-12.4-8-7.44-8.92,6.51,1h.07l11.34-.75a.18.18,0,0,0,.16-.19v-.13l0-.12a.18.18,0,0,0-.12-.22l-4-1.14-15.88-8.5-2.31-3.57,2,.75.05.09a.18.18,0,0,0,.24.06l.05,0,.1,0a.18.18,0,0,0,.09-.09l0,0a.18.18,0,0,0,.07-.24h0v0a.18.18,0,0,0-.1-.23l-.08,0-.35-.58,2.38,1.6.09,0,.08,0,12.61.86.12.08a.18.18,0,0,0,.24-.05l.17-.27a.18.18,0,0,0,0-.24l-.09-.06,0-.05a.18.18,0,0,0-.12-.06l-5.3-3.51-8.09-10,3.43,1a.18.18,0,0,0,.18.12h.2a.16.16,0,0,0,.12,0l6.07-.49a.18.18,0,0,0,.16-.19v-.14l0-.13a.18.18,0,0,0-.14-.2l-5.19-.94a.18.18,0,0,0-.07-.06l-7.93-4.07-.48-1.6,4.45,2.37a.17.17,0,0,0,.14,0h0a.17.17,0,0,0,.13,0l.25-.2a.18.18,0,0,0,0-.25l-.13-.16,7,1.06a.17.17,0,0,0,.13,0,.18.18,0,0,0,.07-.12l0-.14.05-.13a.18.18,0,0,0-.1-.23l-2.15-.84-9.94-7.69-.71-2.16,3.61-.07,4,1.4a.18.18,0,0,0,.22-.11l0-.12.08-.09a.18.18,0,0,0,0-.25l-9.93-9.14-1.56-5.46a.17.17,0,0,0,0-.08.18.18,0,0,0-.05-.08l-1.11-1a.18.18,0,0,0-.18,0l-2.7-11a.17.17,0,0,0-.08-.11.17.17,0,0,0-.13,0l-.12,0-.12,0a.17.17,0,0,0-.2.14L1130.06,200,1118,213.57a.18.18,0,0,0,0,.25l.07.06V214a.17.17,0,0,0,.2.15l4-.55.08,0a.18.18,0,0,0,.13,0l.11-.07.31,0a.18.18,0,0,0,.15-.2v0l3.89-2.41-12.8,11.75a.18.18,0,0,0,0,.25l.22.24a.18.18,0,0,0,.12.06h0a.18.18,0,0,0,.23.09l10.83-4.49-2,3.76L1111,231a.18.18,0,0,0,0,.24l.06.09v.11a.17.17,0,0,0,.18.17l1.6-.06-2.78,5a.18.18,0,0,0,.07.24l.1.05.06.1a.18.18,0,0,0,.24.06l13.69-8.22-1.4,3.89-12.2,9.81a.18.18,0,0,0,0,.25l.2.25a.18.18,0,0,0,.25,0l.2-.16.07,0a.17.17,0,0,0,.14,0l13-5.77-2.29,3.3-13.24,7.67a.18.18,0,0,0-.07.07l-1.36.12a.18.18,0,0,0-.17.19l0,.31a.19.19,0,0,0,.07.12.21.21,0,0,0,.14,0l11.45-.79-2.18.94a.18.18,0,0,0-.09.23l0,.11v.12a.18.18,0,0,0,.17.18l2.7.1-5,2.93-13.68,3.61a.18.18,0,0,0-.12.22l.08.3a.17.17,0,0,0,.21.12h0l1,1a3.49,3.49,0,0,0,.23.09l6.68.06-7.92,6.17a.18.18,0,0,0,0,.25l.08.1.05.12a.18.18,0,0,0,.23.1l14.28-5.79-.85,2.93a.18.18,0,0,0,.12.22l.09,0,.06.08a.18.18,0,0,0,.25,0l10.11-7.35-4.9,11.87a.18.18,0,0,0,.09.23l.11,0,.08.09a.18.18,0,0,0,.12.06.21.21,0,0,0,.13,0l8-7.41v14.78a2.51,2.51,0,0,0,.33.33h5.55a.17.17,0,0,0,.15-.08h0a.18.18,0,0,0,.18-.18v-16l11.49,11a.19.19,0,0,1,.16.14.17.17,0,0,0,.13,0l.31,0a.18.18,0,0,0,.16-.18l-.33-6,6,4a.18.18,0,0,0,.23,0l11.21,3a.18.18,0,0,0,.22-.12l0-.13.07-.11A.18.18,0,0,0,1165,270.07Z"/><path class="cls-1" d="M951,277.74l-.22-.07a.18.18,0,0,0,0-.11l-12.06-17.8,7.64,2.29a.18.18,0,0,0,.22-.12l0-.16.14-.09a.18.18,0,0,0,.05-.24l-12-18.66,5.53,1.56a.18.18,0,0,0,.13,0,.18.18,0,0,0,.08-.11l0-.15.13-.09a.18.18,0,0,0,.05-.24l-13.4-20.44a.18.18,0,0,0-.24-.05l-.21.14-.21-.14a.18.18,0,0,0-.24.05l-13.4,20.44a.18.18,0,0,0,.05.24l.13.09,0,.15a.18.18,0,0,0,.08.11.18.18,0,0,0,.13,0l5.53-1.56-12,18.66a.18.18,0,0,0,.05.24l.14.09,0,.16a.18.18,0,0,0,.22.12l7.63-2.29-12.06,17.8a.18.18,0,0,0,0,.11l-.22.07a.18.18,0,0,0-.11.22l.14.43a.18.18,0,0,0,.22.11l20.59-6.71v14.5a.18.18,0,0,0,.18.18h0v.05a.18.18,0,0,0,.18.18h5.68a.18.18,0,0,0,.18-.18v-.05h0a.18.18,0,0,0,.18-.18V271.8l20.59,6.71a.18.18,0,0,0,.22-.11l.14-.43a.18.18,0,0,0-.11-.22Z"/><path class="cls-1" d="M1078.64,262.15l-.22-.07a.18.18,0,0,0,0-.11l-12.06-17.8,7.64,2.29a.18.18,0,0,0,.22-.12l0-.16.14-.09a.18.18,0,0,0,.05-.24l-12-18.66,5.53,1.56a.18.18,0,0,0,.13,0,.18.18,0,0,0,.08-.11l0-.15.13-.09a.18.18,0,0,0,.05-.24L1055,207.69a.18.18,0,0,0-.24-.05l-.21.14-.21-.14a.18.18,0,0,0-.24.05l-13.4,20.44a.18.18,0,0,0,.05.24l.13.09,0,.15a.18.18,0,0,0,.08.11.18.18,0,0,0,.13,0l5.53-1.56-12,18.66a.18.18,0,0,0,.05.24l.14.09,0,.16a.18.18,0,0,0,.22.12l7.63-2.29L1030.71,262a.18.18,0,0,0,0,.11l-.22.07a.18.18,0,0,0-.11.22l.14.43a.18.18,0,0,0,.22.11l20.59-6.71v14.5a.18.18,0,0,0,.18.18h0v.05a.18.18,0,0,0,.18.18h5.68a.18.18,0,0,0,.18-.18v-.05h0a.18.18,0,0,0,.18-.18V256.2l20.59,6.71a.18.18,0,0,0,.22-.11l.14-.43a.18.18,0,0,0-.11-.22Z"/><path class="cls-1" d="M1111.25,270.39l-.22-.07a.18.18,0,0,0,0-.11l-12.06-17.8,7.64,2.29a.18.18,0,0,0,.22-.12l0-.16.14-.09a.18.18,0,0,0,.05-.24l-12-18.66,5.53,1.56a.18.18,0,0,0,.13,0,.18.18,0,0,0,.08-.11l0-.15.13-.09a.18.18,0,0,0,.05-.24l-13.4-20.44a.18.18,0,0,0-.24-.05l-.21.14-.21-.14a.18.18,0,0,0-.24.05l-13.4,20.44a.18.18,0,0,0,.05.24l.13.09,0,.15a.18.18,0,0,0,.08.11.18.18,0,0,0,.13,0l5.53-1.56-12,18.66a.18.18,0,0,0,.05.24l.14.09,0,.16a.18.18,0,0,0,.22.12l7.63-2.29-12.06,17.8a.18.18,0,0,0,0,.11l-.22.07a.18.18,0,0,0-.11.22l.14.43a.18.18,0,0,0,.22.11l20.59-6.71v14.5a.18.18,0,0,0,.18.18h0v.05a.18.18,0,0,0,.18.18H1090a.18.18,0,0,0,.18-.18v-.05h0a.18.18,0,0,0,.18-.18v-14.5l20.59,6.71a.18.18,0,0,0,.22-.11l.14-.43a.18.18,0,0,0-.11-.22Z"/><path class="cls-1" d="M1211.91,274.37l-12.4-8-7.44-8.92,6.51,1h.07l11.34-.75a.18.18,0,0,0,.16-.19v-.13l0-.12a.18.18,0,0,0-.12-.22l-4-1.14-15.88-8.5-2.31-3.57,2,.75.05.09a.18.18,0,0,0,.24.06l.05,0,.1,0a.18.18,0,0,0,.09-.09l0,0a.18.18,0,0,0,.07-.24h0v0a.18.18,0,0,0-.1-.23l-.08,0-.35-.58,2.38,1.6.09,0,.08,0,12.61.86.12.08a.18.18,0,0,0,.24-.05l.17-.27a.18.18,0,0,0,0-.24l-.09-.06,0-.05a.18.18,0,0,0-.12-.06l-5.3-3.51-8.09-10,3.43,1a.18.18,0,0,0,.18.12h.2a.16.16,0,0,0,.12,0l6.07-.49a.18.18,0,0,0,.16-.19v-.14l0-.13a.18.18,0,0,0-.14-.2l-5.19-.94a.18.18,0,0,0-.07-.06l-7.93-4.07-.48-1.6,4.45,2.37a.17.17,0,0,0,.14,0h0a.17.17,0,0,0,.13,0l.25-.2a.18.18,0,0,0,0-.25l-.13-.16,7,1.06a.17.17,0,0,0,.13,0,.18.18,0,0,0,.07-.12l0-.14.05-.13a.18.18,0,0,0-.1-.23l-2.15-.84-9.94-7.69-.71-2.16,3.61-.07,4,1.4a.18.18,0,0,0,.22-.11l0-.12.08-.09a.18.18,0,0,0,0-.25l-9.93-9.14-1.56-5.46a.17.17,0,0,0,0-.08.18.18,0,0,0-.05-.08l-1.11-1a.18.18,0,0,0-.18,0l-2.7-11a.17.17,0,0,0-.08-.11.17.17,0,0,0-.13,0l-.12,0-.12,0a.17.17,0,0,0-.2.14L1177,204.31l-12.06,13.56a.18.18,0,0,0,0,.25l.07.06v.09a.17.17,0,0,0,.2.15l4-.55.08,0a.18.18,0,0,0,.13,0l.11-.07.31,0a.18.18,0,0,0,.15-.2v0l3.89-2.41-12.8,11.75a.18.18,0,0,0,0,.25l.22.24a.18.18,0,0,0,.12.06h0a.18.18,0,0,0,.23.09l10.83-4.49-2,3.76-12.61,8.56a.18.18,0,0,0,0,.24l.06.09v.11a.17.17,0,0,0,.18.17l1.6-.06-2.78,5a.18.18,0,0,0,.07.24l.1.05.06.1a.18.18,0,0,0,.24.06l13.69-8.22-1.4,3.89-12.2,9.81a.18.18,0,0,0,0,.25l.2.25a.18.18,0,0,0,.25,0l.2-.16.07,0a.17.17,0,0,0,.14,0l13-5.77-2.29,3.3-13.24,7.67a.18.18,0,0,0-.07.07l-1.36.12a.18.18,0,0,0-.17.19l0,.31a.19.19,0,0,0,.07.12.21.21,0,0,0,.14,0l11.45-.79-2.18.94a.18.18,0,0,0-.09.23l0,.11v.12a.18.18,0,0,0,.17.18l2.7.1-5,2.93-13.68,3.61a.18.18,0,0,0-.12.22l.08.3a.17.17,0,0,0,.21.12h0l1,1a3.49,3.49,0,0,0,.23.09l6.68.06-7.92,6.17a.18.18,0,0,0,0,.25l.08.1.05.12a.18.18,0,0,0,.23.1l14.28-5.79-.85,2.93a.18.18,0,0,0,.12.22l.09,0,.06.08a.18.18,0,0,0,.25,0l10.11-7.35-4.9,11.87a.18.18,0,0,0,.09.23l.11,0,.08.09a.18.18,0,0,0,.12.06.21.21,0,0,0,.13,0l8-7.41V279a2.51,2.51,0,0,0,.33.33H1182a.17.17,0,0,0,.15-.08h0a.18.18,0,0,0,.18-.18v-16l11.49,11a.19.19,0,0,1,.16.14.17.17,0,0,0,.13,0l.31,0a.18.18,0,0,0,.16-.18l-.33-6,6,4a.18.18,0,0,0,.23,0l11.21,3a.18.18,0,0,0,.22-.12l0-.13.07-.11A.18.18,0,0,0,1211.91,274.37Z"/><path class="cls-1" d="M1282.24,271l-12.4-8-7.44-8.92,6.51,1h.07l11.34-.75a.18.18,0,0,0,.16-.19v-.13l0-.12a.18.18,0,0,0-.12-.22l-4-1.14-15.88-8.5-2.31-3.57,2,.75.05.09a.18.18,0,0,0,.24.06l.05,0,.1,0a.18.18,0,0,0,.09-.09l0,0a.18.18,0,0,0,.07-.24h0v0a.18.18,0,0,0-.1-.23l-.08,0-.35-.58,2.38,1.6.09,0,.08,0,12.61.86.12.08a.18.18,0,0,0,.24-.05l.17-.27a.18.18,0,0,0,0-.24l-.09-.06,0-.05a.18.18,0,0,0-.12-.06l-5.3-3.51-8.09-10,3.43,1a.18.18,0,0,0,.18.12h.2a.16.16,0,0,0,.12,0l6.07-.49a.18.18,0,0,0,.16-.19v-.14l0-.13a.18.18,0,0,0-.14-.2l-5.19-.94a.18.18,0,0,0-.07-.06l-7.93-4.07-.48-1.6,4.45,2.37a.17.17,0,0,0,.14,0h0a.17.17,0,0,0,.13,0l.25-.2a.18.18,0,0,0,0-.25l-.13-.16,7,1.06a.17.17,0,0,0,.13,0,.18.18,0,0,0,.07-.12l0-.14.05-.13a.18.18,0,0,0-.1-.23l-2.15-.84-9.94-7.69-.71-2.16,3.61-.07,4,1.4a.18.18,0,0,0,.22-.11l0-.12.08-.09a.18.18,0,0,0,0-.25l-9.93-9.14-1.56-5.46a.17.17,0,0,0,0-.08.18.18,0,0,0-.05-.08l-1.11-1a.18.18,0,0,0-.18,0l-2.7-11a.17.17,0,0,0-.08-.11.17.17,0,0,0-.13,0l-.12,0-.12,0a.17.17,0,0,0-.2.14L1247.31,201l-12.06,13.56a.18.18,0,0,0,0,.25l.07.06v.09a.17.17,0,0,0,.2.15l4-.55.08,0a.18.18,0,0,0,.13,0l.11-.07.31,0a.18.18,0,0,0,.15-.2v0l3.89-2.41-12.8,11.75a.18.18,0,0,0,0,.25l.22.24a.18.18,0,0,0,.12.06h0a.18.18,0,0,0,.23.09l10.83-4.49-2,3.76L1228.25,232a.18.18,0,0,0,0,.24l.06.09v.11a.17.17,0,0,0,.18.17l1.6-.06-2.78,5a.18.18,0,0,0,.07.24l.1.05.06.1a.18.18,0,0,0,.24.06l13.69-8.22-1.4,3.89-12.2,9.81a.18.18,0,0,0,0,.25l.2.25a.18.18,0,0,0,.25,0l.2-.16.07,0a.17.17,0,0,0,.14,0l13-5.77-2.29,3.3-13.24,7.67a.18.18,0,0,0-.07.07l-1.36.12a.18.18,0,0,0-.17.19l0,.31a.19.19,0,0,0,.07.12.21.21,0,0,0,.14,0l11.45-.79-2.18.94a.18.18,0,0,0-.09.23l0,.11v.12a.18.18,0,0,0,.17.18l2.7.1-5,2.93-13.68,3.61a.18.18,0,0,0-.12.22l.08.3a.17.17,0,0,0,.21.12h0l1,1a3.49,3.49,0,0,0,.23.09l6.68.06-7.92,6.17a.18.18,0,0,0,0,.25l.08.1.05.12a.18.18,0,0,0,.23.1l14.28-5.79-.85,2.93a.18.18,0,0,0,.12.22l.09,0,.06.08a.18.18,0,0,0,.25,0l10.11-7.35-4.9,11.87a.18.18,0,0,0,.09.23l.11,0,.08.09a.18.18,0,0,0,.12.06.21.21,0,0,0,.13,0l8-7.41v14.78a2.51,2.51,0,0,0,.33.33h5.55a.17.17,0,0,0,.15-.08h0a.18.18,0,0,0,.18-.18v-16l11.49,11a.19.19,0,0,1,.16.14.17.17,0,0,0,.13,0l.31,0a.18.18,0,0,0,.16-.18l-.33-6,6,4a.18.18,0,0,0,.23,0l11.21,3a.18.18,0,0,0,.22-.12l0-.13.07-.11A.18.18,0,0,0,1282.24,271Z"/><path class="cls-1" d="M1330.56,278.81l-12.4-8-7.44-8.92,6.51,1h.07l11.34-.75a.18.18,0,0,0,.16-.19v-.13l0-.12a.18.18,0,0,0-.12-.22l-4-1.14-15.88-8.5-2.31-3.57,2,.75.05.09a.18.18,0,0,0,.24.06l.05,0,.1,0a.18.18,0,0,0,.09-.09l0,0a.18.18,0,0,0,.07-.24h0v0a.18.18,0,0,0-.1-.23l-.08,0-.35-.58,2.38,1.6.09,0,.08,0,12.61.86.12.08a.18.18,0,0,0,.24-.05l.17-.27a.18.18,0,0,0,0-.24l-.09-.06,0-.05a.18.18,0,0,0-.12-.06l-5.3-3.51-8.09-10,3.43,1a.18.18,0,0,0,.18.12h.2a.16.16,0,0,0,.12,0l6.07-.49a.18.18,0,0,0,.16-.19v-.14l0-.13a.18.18,0,0,0-.14-.2l-5.19-.94a.18.18,0,0,0-.07-.06l-7.93-4.07-.48-1.6,4.45,2.37a.17.17,0,0,0,.14,0h0a.17.17,0,0,0,.13,0l.25-.2a.18.18,0,0,0,0-.25l-.13-.16,7,1.06a.17.17,0,0,0,.13,0,.18.18,0,0,0,.07-.12l0-.14.05-.13a.18.18,0,0,0-.1-.23l-2.15-.84-9.94-7.69-.71-2.16,3.61-.07,4,1.4a.18.18,0,0,0,.22-.11l0-.12.08-.09a.18.18,0,0,0,0-.25l-9.93-9.14-1.56-5.46a.17.17,0,0,0,0-.08.18.18,0,0,0-.05-.08l-1.11-1a.18.18,0,0,0-.18,0l-2.7-11a.17.17,0,0,0-.08-.11.17.17,0,0,0-.13,0l-.12,0-.12,0a.17.17,0,0,0-.2.14l-2.24,13.66-12.06,13.56a.18.18,0,0,0,0,.25l.07.06v.09a.17.17,0,0,0,.2.15l4-.55.08,0a.18.18,0,0,0,.13,0l.11-.07.31,0a.18.18,0,0,0,.15-.2v0l3.89-2.41-12.8,11.75a.18.18,0,0,0,0,.25l.22.24a.18.18,0,0,0,.12.06h0a.18.18,0,0,0,.23.09l10.83-4.49-2,3.76-12.61,8.56a.18.18,0,0,0,0,.24l.06.09v.11a.17.17,0,0,0,.18.17l1.6-.06-2.78,5a.18.18,0,0,0,.07.24l.1.05.06.1a.18.18,0,0,0,.24.06l13.69-8.22-1.4,3.89-12.2,9.81a.18.18,0,0,0,0,.25l.2.25a.18.18,0,0,0,.25,0l.2-.16.07,0a.17.17,0,0,0,.14,0l13-5.77-2.29,3.3-13.24,7.67a.18.18,0,0,0-.07.07l-1.36.12a.18.18,0,0,0-.17.19l0,.31a.19.19,0,0,0,.07.12.21.21,0,0,0,.14,0l11.45-.79-2.18.94a.18.18,0,0,0-.09.23l0,.11v.12a.18.18,0,0,0,.17.18l2.7.1-5,2.93-13.68,3.61a.18.18,0,0,0-.12.22l.08.3a.17.17,0,0,0,.21.12h0l1,1a3.49,3.49,0,0,0,.23.09l6.68.06-7.92,6.17a.18.18,0,0,0,0,.25l.08.1.05.12a.18.18,0,0,0,.23.1l14.28-5.79-.85,2.93a.18.18,0,0,0,.12.22l.09,0,.06.08a.18.18,0,0,0,.25,0l10.11-7.35-4.9,11.87a.18.18,0,0,0,.09.23l.11,0,.08.09a.18.18,0,0,0,.12.06.21.21,0,0,0,.13,0l8-7.41v14.78a2.51,2.51,0,0,0,.33.33h5.55a.17.17,0,0,0,.15-.08h0a.18.18,0,0,0,.18-.18v-16l11.49,11a.19.19,0,0,1,.16.14.17.17,0,0,0,.13,0l.31,0a.18.18,0,0,0,.16-.18l-.33-6,6,4a.18.18,0,0,0,.23,0l11.21,3a.18.18,0,0,0,.22-.12l0-.13.07-.11A.18.18,0,0,0,1330.56,278.81Z"/><path class="cls-1" d="M1451.92,270.07l-12.4-8-7.44-8.92,6.51,1h.07l11.34-.75a.18.18,0,0,0,.16-.19v-.13l0-.12a.18.18,0,0,0-.12-.22l-4-1.14-15.88-8.5-2.31-3.57,2,.75.05.09a.18.18,0,0,0,.24.06l.05,0,.1,0a.18.18,0,0,0,.09-.09l0,0a.18.18,0,0,0,.07-.24h0v0a.18.18,0,0,0-.1-.23l-.08,0-.35-.58,2.38,1.6.09,0,.08,0,12.61.86.12.08a.18.18,0,0,0,.24-.05l.17-.27a.18.18,0,0,0,0-.24l-.09-.06,0-.05a.18.18,0,0,0-.12-.06l-5.3-3.51-8.09-10,3.43,1a.18.18,0,0,0,.18.12h.2a.16.16,0,0,0,.12,0l6.07-.49a.18.18,0,0,0,.16-.19v-.14l0-.13a.18.18,0,0,0-.14-.2l-5.19-.94a.18.18,0,0,0-.07-.06l-7.93-4.07-.48-1.6,4.45,2.37a.17.17,0,0,0,.14,0h0a.17.17,0,0,0,.13,0l.25-.2a.18.18,0,0,0,0-.25l-.13-.16,7,1.06a.17.17,0,0,0,.13,0,.18.18,0,0,0,.07-.12l0-.14.05-.13a.18.18,0,0,0-.1-.23l-2.15-.84-9.94-7.69-.71-2.16,3.61-.07,4,1.4a.18.18,0,0,0,.22-.11l0-.12.08-.09a.18.18,0,0,0,0-.25l-9.93-9.14-1.56-5.46a.17.17,0,0,0,0-.08.18.18,0,0,0-.05-.08l-1.11-1a.18.18,0,0,0-.18,0l-2.7-11a.17.17,0,0,0-.08-.11.17.17,0,0,0-.13,0l-.12,0-.12,0a.17.17,0,0,0-.2.14L1417,200l-12.06,13.56a.18.18,0,0,0,0,.25l.07.06V214a.17.17,0,0,0,.2.15l4-.55.08,0a.18.18,0,0,0,.13,0l.11-.07.31,0a.18.18,0,0,0,.15-.2v0l3.89-2.41-12.8,11.75a.18.18,0,0,0,0,.25l.22.24a.18.18,0,0,0,.12.06h0a.18.18,0,0,0,.23.09l10.83-4.49-2,3.76L1397.93,231a.18.18,0,0,0,0,.24l.06.09v.11a.17.17,0,0,0,.18.17l1.6-.06-2.78,5a.18.18,0,0,0,.07.24l.1.05.06.1a.18.18,0,0,0,.24.06l13.69-8.22-1.4,3.89-12.2,9.81a.18.18,0,0,0,0,.25l.2.25a.18.18,0,0,0,.25,0l.2-.16.07,0a.17.17,0,0,0,.14,0l13-5.77-2.29,3.3-13.24,7.67a.18.18,0,0,0-.07.07l-1.36.12a.18.18,0,0,0-.17.19l0,.31a.19.19,0,0,0,.07.12.21.21,0,0,0,.14,0l11.45-.79-2.18.94a.18.18,0,0,0-.09.23l0,.11v.12a.18.18,0,0,0,.17.18l2.7.1-5,2.93-13.68,3.61a.18.18,0,0,0-.12.22l.08.3a.17.17,0,0,0,.21.12h0l1,1a3.49,3.49,0,0,0,.23.09l6.68.06-7.92,6.17a.18.18,0,0,0,0,.25l.08.1.05.12a.18.18,0,0,0,.23.1l14.28-5.79-.85,2.93a.18.18,0,0,0,.12.22l.09,0,.06.08a.18.18,0,0,0,.25,0l10.11-7.35-4.9,11.87a.18.18,0,0,0,.09.23l.11,0,.08.09a.18.18,0,0,0,.12.06.21.21,0,0,0,.13,0l8-7.41v14.78a2.51,2.51,0,0,0,.33.33H1422a.17.17,0,0,0,.15-.08h0a.18.18,0,0,0,.18-.18v-16l11.49,11a.19.19,0,0,1,.16.14.17.17,0,0,0,.13,0l.31,0a.18.18,0,0,0,.16-.18l-.33-6,6,4a.18.18,0,0,0,.23,0l11.21,3a.18.18,0,0,0,.22-.12l0-.13.07-.11A.18.18,0,0,0,1451.92,270.07Z"/><path class="cls-1" d="M1238,277.74l-.22-.07a.18.18,0,0,0,0-.11l-12.06-17.8,7.64,2.29a.18.18,0,0,0,.22-.12l0-.16.14-.09a.18.18,0,0,0,.05-.24l-12-18.66,5.53,1.56a.18.18,0,0,0,.13,0,.18.18,0,0,0,.08-.11l0-.15.13-.09a.18.18,0,0,0,.05-.24l-13.4-20.44a.18.18,0,0,0-.24-.05l-.21.14-.21-.14a.18.18,0,0,0-.24.05L1200,243.73a.18.18,0,0,0,.05.24l.13.09,0,.15a.18.18,0,0,0,.08.11.18.18,0,0,0,.13,0l5.53-1.56-12,18.66a.18.18,0,0,0,.05.24l.14.09,0,.16a.18.18,0,0,0,.22.12l7.63-2.29L1190,277.56a.18.18,0,0,0,0,.11l-.22.07a.18.18,0,0,0-.11.22l.14.43a.18.18,0,0,0,.22.11l20.59-6.71v14.5a.18.18,0,0,0,.18.18h0v.05a.18.18,0,0,0,.18.18h5.68a.18.18,0,0,0,.18-.18v-.05h0a.18.18,0,0,0,.18-.18V271.8l20.59,6.71a.18.18,0,0,0,.22-.11l.14-.43a.18.18,0,0,0-.11-.22Z"/><path class="cls-1" d="M1365.57,262.15l-.22-.07a.18.18,0,0,0,0-.11l-12.06-17.8,7.64,2.29a.18.18,0,0,0,.22-.12l0-.16.14-.09a.18.18,0,0,0,.05-.24l-12-18.66,5.53,1.56a.18.18,0,0,0,.13,0,.18.18,0,0,0,.08-.11l0-.15.13-.09a.18.18,0,0,0,.05-.24l-13.4-20.44a.18.18,0,0,0-.24-.05l-.21.14-.21-.14a.18.18,0,0,0-.24.05l-13.4,20.44a.18.18,0,0,0,.05.24l.13.09,0,.15a.18.18,0,0,0,.08.11.18.18,0,0,0,.13,0l5.53-1.56-12,18.66a.18.18,0,0,0,.05.24l.14.09,0,.16a.18.18,0,0,0,.22.12l7.63-2.29L1317.65,262a.18.18,0,0,0,0,.11l-.22.07a.18.18,0,0,0-.11.22l.14.43a.18.18,0,0,0,.22.11l20.59-6.71v14.5a.18.18,0,0,0,.18.18h0v.05a.18.18,0,0,0,.18.18h5.68a.18.18,0,0,0,.18-.18v-.05h0a.18.18,0,0,0,.18-.18V256.2l20.59,6.71a.18.18,0,0,0,.22-.11l.14-.43a.18.18,0,0,0-.11-.22Z"/><path class="cls-1" d="M1398.18,270.39l-.22-.07a.18.18,0,0,0,0-.11l-12.06-17.8,7.64,2.29a.18.18,0,0,0,.22-.12l0-.16.14-.09a.18.18,0,0,0,.05-.24l-12-18.66,5.53,1.56a.18.18,0,0,0,.13,0,.18.18,0,0,0,.08-.11l0-.15.13-.09a.18.18,0,0,0,.05-.24l-13.4-20.44a.18.18,0,0,0-.24-.05l-.21.14-.21-.14a.18.18,0,0,0-.24.05l-13.4,20.44a.18.18,0,0,0,.05.24l.13.09,0,.15a.18.18,0,0,0,.08.11.18.18,0,0,0,.13,0l5.53-1.56-12,18.66a.18.18,0,0,0,.05.24l.14.09,0,.16a.18.18,0,0,0,.22.12l7.63-2.29-12.06,17.8a.18.18,0,0,0,0,.11l-.22.07a.18.18,0,0,0-.11.22l.14.43a.18.18,0,0,0,.22.11l20.59-6.71v14.5a.18.18,0,0,0,.18.18h0v.05a.18.18,0,0,0,.18.18h5.68a.18.18,0,0,0,.18-.18v-.05h0a.18.18,0,0,0,.18-.18v-14.5l20.59,6.71a.18.18,0,0,0,.22-.11l.14-.43a.18.18,0,0,0-.11-.22Z"/><path class="cls-1" d="M173.21,150.75a.48.48,0,0,0,0,.12l.47-.28A.48.48,0,0,0,173.21,150.75Z"/><path class="cls-1" d="M243.29,238.78,208,216.1l-21.17-25.4,18.54,3h.21l32.29-2.14a.5.5,0,0,0,.47-.53l0-.37.1-.35a.5.5,0,0,0-.34-.62l-11.43-3.24-45.21-24.18-6.59-10.17,5.64,2.14.15.26a.5.5,0,0,0,.68.18l.15-.08a.5.5,0,0,0,.53-.31l.11-.06a.5.5,0,0,0,.19-.69h0l0-.09a.5.5,0,0,0-.29-.64l-.24-.09-1-1.66,6.78,4.56a12.41,12.41,0,0,0,.47.16L224,158.18l.34.23a.5.5,0,0,0,.69-.14l.5-.76a.5.5,0,0,0-.14-.69l-.25-.17a.48.48,0,0,0-.09-.16.5.5,0,0,0-.35-.17l-15.1-10-23-28.5,9.75,2.8a.5.5,0,0,0,.51.34l.52,0h.05a.46.46,0,0,0,.34-.05L215,119.5a.5.5,0,0,0,.46-.54l0-.39.06-.38a.5.5,0,0,0-.4-.57l-14.78-2.67a.5.5,0,0,0-.19-.17l-22.56-11.59-1.38-4.55,12.66,6.76a.49.49,0,0,0,.39,0l.11,0a.49.49,0,0,0,.37-.11l.71-.57a.5.5,0,0,0,.07-.71l-.37-.45,19.79,3a.49.49,0,0,0,.38-.08.5.5,0,0,0,.21-.33l.06-.39.15-.38a.5.5,0,0,0-.28-.65l-6.12-2.39L176,80.51l-2-6.16,10.28-.2,11.26,4a.5.5,0,0,0,.64-.3l.12-.33.24-.26a.5.5,0,0,0,0-.71l-28.26-26L163.76,35a.49.49,0,0,0-.14-.23.5.5,0,0,0-.15-.23l-3.16-2.71a.5.5,0,0,0-.51-.08L152.1.38a.5.5,0,0,0-.23-.31A.49.49,0,0,0,151.5,0l-.33.08L150.81,0a.5.5,0,0,0-.57.41l-6.39,38.88L109.52,78a.5.5,0,0,0,0,.71l.2.18,0,.27a.5.5,0,0,0,.56.43L121.86,78a.5.5,0,0,0,.62.07l.32-.2.9-.12a.5.5,0,0,0,.43-.57l0-.12,11.08-6.85L98.75,103.62a.5.5,0,0,0,0,.71l.61.67a.5.5,0,0,0,.35.16h.1a.5.5,0,0,0,.65.27l30.83-12.79-5.75,10.69L89.6,127.7a.5.5,0,0,0-.13.7l.17.25V129a.5.5,0,0,0,.52.48l4.56-.16-7.91,14.33a.5.5,0,0,0,.2.68l.28.15.17.27a.5.5,0,0,0,.69.17l39-23.4-4,11.08L88.41,160.48a.5.5,0,0,0-.08.7l.56.7a.5.5,0,0,0,.71.08l.56-.45a.5.5,0,0,0,.2.14.49.49,0,0,0,.38,0l37-16.43-6.51,9.39L83.56,176.44a.5.5,0,0,0-.2.21l-3.88.34a.5.5,0,0,0-.5.54l.06.89a.53.53,0,0,0,.19.35.61.61,0,0,0,.39.12l32.59-2.25-6.2,2.69a.5.5,0,0,0-.26.66l.14.31v.34a.5.5,0,0,0,.48.52l7.69.3-14.12,8.34L61,200a.5.5,0,0,0-.35.61l.23.87a.5.5,0,0,0,.61.35h0l2.94,2.71a9.93,9.93,0,0,0,.64.25l19,.17L61.55,222.58a.5.5,0,0,0-.08.71l.24.3.14.35a.5.5,0,0,0,.65.27l40.65-16.48-2.41,8.33a.5.5,0,0,0,.34.62l.27.08.16.22a.5.5,0,0,0,.7.11L131,196.16,117,230a.5.5,0,0,0,.27.65l.31.13.23.25a.51.51,0,0,0,.35.16.6.6,0,0,0,.36-.13l22.79-21.1V252a7.14,7.14,0,0,0,1,1H158.1a.5.5,0,0,0,.42-.22h0a.5.5,0,0,0,.5-.5V206.74L191.76,238a.53.53,0,0,1,.45.39.48.48,0,0,0,.36.13l.89-.05a.5.5,0,0,0,.47-.53L193,220.77,210,232a.5.5,0,0,0,.65-.08l31.92,8.56a.5.5,0,0,0,.61-.35l.1-.36.2-.31A.5.5,0,0,0,243.29,238.78Zm-1,.62-31.78-8.52a.5.5,0,0,0-.39.06l-17.41-11.55a.5.5,0,0,0-.78.44l.93,17.09a.5.5,0,0,0-.21-.15.49.49,0,0,0-.53.12l0,0L158.9,205.21a.5.5,0,0,0-.85.36v46.15a.5.5,0,0,0-.37.22H142.79a.5.5,0,0,0-.45-.45V208.78a.5.5,0,0,0-.84-.37l-23.26,21.54-.1-.07,14.44-35a.5.5,0,0,0-.76-.59L102,216a.5.5,0,0,0-.18-.13l2.55-8.84a.5.5,0,0,0-.67-.6L62.58,223.09l0,0,23.28-18.13a.5.5,0,0,0-.3-.89l-20-.18a.5.5,0,0,0-.83-.33l-2.2-2a.5.5,0,0,0-.21-.77l37.93-10,.13-.05L116,181.44a.5.5,0,0,0-.23-.93l-8.9-.34a.51.51,0,0,0,0-.13l8.42-3.65a.5.5,0,0,0,.29-.58.49.49,0,0,0-.52-.38l-31,2.14a.5.5,0,0,0,.35-.49l37.4-21.66a.5.5,0,0,0,.16-.15l7.59-10.95a.5.5,0,0,0-.61-.74L90.8,160.53a.5.5,0,0,0-.34-.28.39.39,0,0,0-.14,0l33.54-27A.51.51,0,0,0,124,133l4.5-12.54a.5.5,0,0,0-.73-.6L88.06,143.77a.53.53,0,0,0-.12-.12L96,129a.5.5,0,0,0,0-.5.48.48,0,0,0-.44-.24l-4.94.17a.51.51,0,0,0-.06-.17l35.6-24.16a.5.5,0,0,0,.16-.18l6.48-12a.5.5,0,0,0-.63-.7l-31.67,13.14-.05-.13a.5.5,0,0,0-.36-.3h-.16l39.8-36.53a.5.5,0,0,0,.07-.65l-1.17.17-15.35,9.49a.5.5,0,0,0-.24.44l-.51.07a.51.51,0,0,0-.2.07l-.06,0a.51.51,0,0,0-.26,0l-11.31,1.53a.49.49,0,0,0-.12-.23L144.69,39.9a.5.5,0,0,0,.12-.25l6.33-38.54h.11L159,32.82a.5.5,0,0,0,.86.21l.13-.15,2.41,2.06a.5.5,0,0,0,.5.78l4.34,15.2a.5.5,0,0,0,.14.23l28,25.77-.06.09-10.88-3.84a.66.66,0,0,0-.18,0l-11,.22a.5.5,0,0,0-.47.66L175.07,81a.5.5,0,0,0,.17.24l28.47,22,.12.07,5.72,2.24h0l-20.62-3.12a.49.49,0,0,0-.51.25.5.5,0,0,0,.05.56l.82,1h-.17a.5.5,0,0,0-.23.08l-13.34-7.12a.5.5,0,0,0-.71.59l1.79,5.91a.5.5,0,0,0,.25.3l22.41,11.51,0,.08a.5.5,0,0,0,.36.28l14.71,2.66v0l-16.93,1.36-.09,0h-.25a.5.5,0,0,0-.26-.18l-11.59-3.32a.5.5,0,0,0-.53.79L208.82,147a.49.49,0,0,0,.11.1l15.16,10.06-35.47-2.42a.5.5,0,0,0-.88-.3L179.54,149a.5.5,0,0,0-.71.67l2.2,3.71h0l-6.67-2.53-1.08.64,7.41,11.45a.5.5,0,0,0,.18.17l45.37,24.27.1,0,11,3.12a.67.67,0,0,0,0,.08L206,192.64a.5.5,0,0,0-.47-.41.48.48,0,0,0-.51.37l-19.36-3.09a.5.5,0,0,0-.46.81l22.07,26.48a.49.49,0,0,0,.11.1l34.93,22.45Z"/><path class="cls-1" d="M142.67,71.1,117.32,91.45l-.43.12.05.18-.51.41.34.43.81-.65,27.17-7.64L114,119.1l.16.14-5.79.22v.21L97.84,133.3l.43.33.26-.33,0,0,24.18-13.45-.23-.41,7.29-.28,6.67,22.28-10.21,15.94-.06-.12L99.74,171.4l.13.24.08.26.24-.07,22.5,4-5.33,11.21-.11-.35L81.8,197.56l.08.26-.05.27,27.66,5.53L106,211l.49.23L123.24,176l.12,0,.08-.45,2.54-5.34,14.77,16.13-.17,0-.16-.22-33.27,24.18.32.44,32.9-23.92,9.21,61.91.54-.08-9.25-62.2,13.46,14.7-.07,0,.13.24-.27,0-3.82,47.27.54,0,3.81-47.12.06,0,.21.23.2-.18.26.08.2-.61,3.33-1.85,30,30.74.2-.19.27,0L181.58,187l-.54.1L188.7,229l-29.29-30,35-19.41,22.64,10.55L182.25,187l0,.54,36.36,3.27,0-.27.11-.25L194.55,179l-25.06-19.25-.33.43,24.76,19-37.54,20.82-.14-.9,15-46.51,2-1.2,1.08-.64,6.54-3.87,27.58,6.9.21.32.45-.3-11.45-17.18-.23.15-.14-.23-.54.32v-.08l.15-.23-44.06-28.8v-.27h0l14.69-33.62L174,121.46l.54-.07-3.3-24.24,15-2,.21.24.37-.31h0l0,0,0-.05-.06-.45-.29,0L167.93,73.11l-.08.07,4.63-10.59.25-.16-.11-.18.06-.14.11-.1,0-.06.09-.2-.25-.11,0-.27-.26,0-7.91-9.33.47-.16L152.12,14.67l-.26.09-.27,0-4.3,25.08L121.48,69.11l.41.36.67-.76.07.49,16-2.33,1.17-.17,1.66-.24ZM83,197.76l34.25-10.45-7.52,15.8ZM118.66,91.07l24.16-19.39,3,11.74-.31.09,0,0-.07.08Zm27.06-7L146,84l6.17,23.94.16,0V108l0,.06,0,0-.32,9.52-.16-.1-.21.33-37,1.4ZM99.31,132.29l9.55-12.3,13.47-.51Zm31-13.11,20.89-.79-14.4,22.49Zm6.34,23.09.52-.16-.16-.54L152,118.3l-.73,21.53h0v.26l-.17-.19-27,24.27.34.38-2.09.07,14.36-22.44Zm13.72,21.43-26,.85,26.76-24.06Zm-28.78.94h-.15v.21l-.09.15-.1.1,0,0,0,.07-19,5.46,23.52-12.53Zm1.29,10.73-21.56-3.87,20.08-5.77.1.07.08-.12.13,0v0l3.84,4.19Zm-.82-10.2,28.45-.93-.29.17.14.24-.27,0,5.52,34.44-.52,1.62-.3.17Zm72.3,14.11h0Zm-38.55,21.06h0v0ZM156,198l-5.32-33.2,19.8-11.71Zm15-46.6-.29.91-20.07,11.87V164H151l.8-23.63,44.65-3.21-22.77,13.46-.47.28-1.69,1,.11-.33Zm37,1.78-26.46-6.62,15.82-9.35Zm-12.07-16.55-44.17,3.17,1.06-31.35Zm-24.77-40-3.05-22.43,17.72,20.52ZM152.48,107l-9.2-35.69.21-.17-.34-.43h0L142,66.38,172.07,62l0,.06-.07.16L145.36,78.79l.29.46,26-16.15ZM152,15.86,164.29,52,151.05,36.36l.29-.33-.41-.36-.24.27-.07-.09-.42.35.13.15L148,39ZM150.9,37h-.44l.23-.26ZM122.62,68.65l25-28.42.13,0,0-.21,2.6-3,.82,27.22.55,0L151,37.09l20.69,24.43Z"/><path class="cls-1" d="M371.63,228.45l-.61-.2a.5.5,0,0,0-.08-.32l-34.34-50.68,21.74,6.52a.5.5,0,0,0,.62-.33l.14-.45.39-.25a.5.5,0,0,0,.15-.69l-34.14-53.13,15.74,4.43a.51.51,0,0,0,.38,0,.5.5,0,0,0,.24-.3l.12-.44.38-.25a.5.5,0,0,0,.15-.69L304.35,73.43a.5.5,0,0,0-.69-.15l-.6.38-.6-.38a.5.5,0,0,0-.69.15l-38.14,58.18a.5.5,0,0,0,.15.69l.38.25.12.44a.5.5,0,0,0,.24.3.51.51,0,0,0,.38,0l15.74-4.43L246.5,182a.5.5,0,0,0,.15.69l.39.25.14.45a.5.5,0,0,0,.62.33l21.73-6.52L235.2,227.93a.5.5,0,0,0-.08.32l-.61.2a.5.5,0,0,0-.32.63l.41,1.24a.5.5,0,0,0,.63.32l58.62-19.11v41.28a.5.5,0,0,0,.5.5h.14v.15a.5.5,0,0,0,.5.5h16.17a.5.5,0,0,0,.5-.5v-.15h.14a.5.5,0,0,0,.5-.5V211.53l58.62,19.11a.5.5,0,0,0,.63-.32l.41-1.24a.5.5,0,0,0-.32-.63Zm-.88,1.08-58.8-19.17a.48.48,0,0,0-.15,0l-.5,1.5v40.46h-.14a.5.5,0,0,0-.5.5V253H295.48v-.15a.5.5,0,0,0-.5-.5h-.14V210.84a.5.5,0,0,0-.65-.48l-58.8,19.17-.09-.29.89-.29a.5.5,0,0,0,.14-.88l34.83-51.43a.5.5,0,0,0-.56-.76L248,182.67l0-.15a.5.5,0,0,0-.21-.27l-.13-.08,34.59-53.82a.5.5,0,0,0-.56-.75l-16.52,4.65,0-.14a.5.5,0,0,0-.21-.29l-.12-.08L302.34,74.4l.45.29a.5.5,0,0,0,.54,0l.45-.29,37.59,57.35-.12.08a.5.5,0,0,0-.21.29l0,.14-16.52-4.65a.5.5,0,0,0-.56.75l34.59,53.82-.13.08a.5.5,0,0,0-.21.27l0,.15-22.61-6.78a.51.51,0,0,0-.55.18.5.5,0,0,0,0,.58l34.84,51.43a.5.5,0,0,0,.14.88l.89.29Z"/><path class="cls-1" d="M330.49,206.25l.85,5.84.54-.08v0L357.42,221l.09-.26.23-.15L326,171.17l27.46,6.51.06-.26.22-.15-22.69-33,.1-.43-.27-.06.19-.2-23.71-22.3,31.5,8.44.07-.26.22-.16L314,93.5l.38-1.07-.26-.09,0-.27-5.95.6L303,76.84l-.26.09-.25-.1-6.93,17.12-2.93.3,0,.27-.06,0-.11-.22-.49.24.15.3-20.59,31.62-.77.15.1.54.64-.12.22.14.14-.21,12.36-2.37,3.18,8-8.7,6.25.16.22-.26.08,2.25,7.13-28.91,31.87.4.37.33-.36.12.29,33.49-13.72-5.47,13.54-9.69-7-.32.44,9.8,7.06-.21.53.11,0-31.71,43.66.44.32.26-.36v0L292.56,209l0-.05L309,215.44l-11.74,31.23.13-35.57h-.55l-.14,37.09H297l.26.1,12.27-32.64.19.07.1-.25.26.09,1.23-3.69.5-1.5,4.06-12.14ZM316,197.69l8.69-26,.39-.33-.18-.21.25-.1,0-.08.29.07h-.1l5,34.53Zm-34.74-51.91-2.12-6.71,24.51-17.6L286.8,163.28l-5.35-17,.19-.21Zm11.49-51,15-1.52,2.76,8.38-6.13,17.24-11.7-24Zm-5.86,69.68.24-.07,0-.1L317,152l-.21-.5-29.54,12.1,17.26-42.76.13-.09-.06-.08,0-.08h0l19.85,50.1-.08.25-43.13,7.53ZM324,171.58l-21.67,18.59-20.48-11.24Zm-.09.79-8.37,25-12.69-7Zm2.15-.16L356.71,220,331,205.9Zm5,34.36,23.34,12.81-22.59-8,0,.1ZM352.94,177l-27.82-6.59L330.93,145Zm-22.33-33.17-.31.22.22.31-5.82,25.47-19.48-49.15,1.07.29ZM338.32,129l-31.76-8.51L306,120l-.27.29L305,120l-.1-.25-.21.08h0l.2-.1-.1-.2,6.18-17.38.33-.11-.14-.43,2.67-7.51ZM313.76,92.65l-2.9,8.14-2.5-7.59ZM302.68,77.72l4.95,15-11.49,1.16ZM292.39,95.37l11.79,24.22-.21.59-31.7,6.09Zm-7.63,29.06,18.93-3.63-15.84,11.37ZM281,146.78,286.44,164,253,177.66ZM250,222.21l31.24-43,20.69,11.36-17.5,15,.36.41.43-.37L285,206l6.81,2.67Zm59.67-7.12-24.36-9.56,17.14-14.71,13,7.11Z"/></g></g></svg>
