<svg xmlns="http://www.w3.org/2000/svg" viewBox="0 0 939.72 457.89"><defs><style>.cls-1{fill:#332a22;}.cls-2{fill:#5e3f29;}.cls-3{fill:#263d54;}.cls-4{fill:#255151;}.cls-5{opacity:0.5;}.cls-6{fill:#203444;}.cls-7{fill:#1f3242;}.cls-8{fill:#e6e6e6;}.cls-9{fill:#fff;}.cls-10{fill:#eaeaea;}</style></defs><title>dm-trees-left</title><g id="Layer_2" data-name="Layer 2"><g id="Layer_2-2" data-name="Layer 2"><polygon class="cls-1" points="167.37 239.66 150.28 239.66 150.28 192.65 164.52 192.65 167.37 239.66"/><path class="cls-2" d="M151.13,229.83l-.85-.29v10.12s6.4.71,8.54.71,8.55-.71,8.55-.71l-.28-4.57Z"/><path class="cls-3" d="M133.46,104.39l12.85-54.87C151.45,53.89,154.75,60,157.75,66a332.14,332.14,0,0,1,27.53,79.69,67.3,67.3,0,0,0-23.45,18.45q8.88-.78,17.82-.72a46.78,46.78,0,0,1-7.58,13.63,14.69,14.69,0,0,0,9.56-1.53,209.35,209.35,0,0,1,9.54,50.75l-36.33-10.89L116,199l17.46-94.56Z"/><path class="cls-4" d="M157.46,65.46c-2.92-5.85-6.17-11.71-11.15-15.94q-1.38,5.91-2.77,11.83Q150.51,63.38,157.46,65.46Z"/><path class="cls-4" d="M178.9,120.21c-.45-1.52-.9-3-1.37-4.55l-10.84-3.51c-10.84-3.51-21.77-6.75-32.73-9.9-.16.71-.33,1.42-.5,2.14l-1,5.22C148,113.18,163.44,116.64,178.9,120.21Z"/><path class="cls-4" d="M172.07,177.08a46.74,46.74,0,0,0,7.55-13.55l-.34-.08q-8.75,0-17.45.72,1.68-2.08,3.53-4c-13.48-3.15-27-6.2-40.48-9.31L116,199l38.84,16.46,36.33,10.89a209.35,209.35,0,0,0-9.54-50.75A14.69,14.69,0,0,1,172.07,177.08Z"/><g class="cls-5"><path class="cls-6" d="M166.5,163.82c-1.56.1-3.12.22-4.67.35,1.19-1.48,2.46-2.91,3.77-4.28-7.86-35.07-13.6-70.6-15.38-106.34a30.37,30.37,0,0,0-3.91-4Q139.89,77,133.46,104.39L116,199l38.84,16.46L182,223.54C176.36,203.82,171.09,183.9,166.5,163.82Z"/></g><polygon class="cls-1" points="129.62 239.66 108.96 239.66 108.96 192.65 126.77 192.65 129.62 239.66"/><path class="cls-2" d="M109,217.05v22.61s7.47.71,10,.71c2.68,0,10.69-.71,10.69-.71l-.93-15.31Q118.76,220.86,109,217.05Z"/><path class="cls-3" d="M152.41,219.71c-3.6-23.08-8.15-37.79-11.76-60.87a12.68,12.68,0,0,1,0-5.55,24.42,24.42,0,0,1-8.23-3.6c2.83-1.94,5.88-4.21,6.55-7.58s-3-7.34-5.93-5.56c-2.18-1.78,1.12-4.68,2.92-6.84,2.94-3.55,1.45-8.82.05-13.21-12-37.63-6.86-79.27-20-116.5A873.1,873.1,0,0,1,86,115.19L74.77,209Z"/><path class="cls-4" d="M126.22,56.37c-1.82-19.19-3.9-38.3-10.3-56.37q-4.76,25.32-11,50.34Q115.56,53.36,126.22,56.37Z"/><path class="cls-4" d="M94.12,100.32c13.27,3.41,26.6,6.57,39.95,9.65q-1.09-4.11-2-8.26c-9.29-2.67-18.6-5.27-27.9-7.91l-10.45-3q-1.32,4.35-2.67,8.69Z"/><path class="cls-4" d="M140.39,154.4C121.2,150,102,145.61,83,140.71L74.77,209l77.64,10.68c-3.6-23.08-8.15-37.79-11.76-60.87A15.83,15.83,0,0,1,140.39,154.4Z"/><g class="cls-5"><path class="cls-7" d="M118.63,187c-4.23-20.47-8.37-41-11.88-61.58-3.08-18-5.71-36.13-7.32-54.29Q93.3,93.34,86,115.19L74.77,209l50.16,6.9C122.69,206.33,120.63,196.69,118.63,187Z"/></g><polygon class="cls-1" points="88.31 242.51 67.65 242.51 67.65 195.5 86.17 195.5 88.31 242.51"/><path class="cls-2" d="M85.27,224a115.69,115.69,0,0,1-17.62-6.66v25.15s8,1.44,10.68,1.42a94.55,94.55,0,0,0,10-1.42l-.81-18A18.67,18.67,0,0,1,85.27,224Z"/><path class="cls-3" d="M40.55,201.9,67,79.22a399.46,399.46,0,0,1,25.25,58,13.65,13.65,0,0,1,1.09,6.18c-.74,5.51-7.75,9-7.48,14.55l13-5.72-4.8,10.32,4.56-.08,11.5,58.18Z"/><path class="cls-4" d="M75.08,95.21q-2.73-5.71-5.62-11.35l-3.22-.93-2,9.16C67.86,93.15,71.47,94.2,75.08,95.21Z"/><path class="cls-4" d="M94.12,162.51l4.8-10.32-13,5.72c-.27-5.56,6.74-9,7.48-14.55v0c-12.73-3.15-25.4-6.49-38-10.16Q48,167.55,40.55,201.9l69.63,18.71q-5.75-29.1-11.5-58.18Z"/><polygon class="cls-1" points="242.37 313.66 225.28 313.66 225.28 266.65 239.52 266.65 242.37 313.66"/><path class="cls-2" d="M226.13,303.83l-.85-.29v10.12s6.4.71,8.54.71,8.55-.71,8.55-.71l-.28-4.57Z"/><path class="cls-3" d="M208.46,178.39l12.85-54.87c5.14,4.37,8.44,10.47,11.44,16.51a332.14,332.14,0,0,1,27.53,79.69,67.3,67.3,0,0,0-23.45,18.45q8.88-.78,17.82-.72a46.78,46.78,0,0,1-7.58,13.63,14.69,14.69,0,0,0,9.56-1.53,209.35,209.35,0,0,1,9.54,50.75l-36.33-10.89L191,273l17.46-94.56Z"/><path class="cls-4" d="M232.46,139.46c-2.92-5.85-6.17-11.71-11.15-15.94q-1.38,5.91-2.77,11.83Q225.52,137.38,232.46,139.46Z"/><path class="cls-4" d="M253.9,194.21c-.45-1.52-.9-3-1.37-4.55l-10.84-3.51c-10.84-3.51-21.77-6.75-32.73-9.9-.16.71-.33,1.42-.5,2.14l-1,5.22C223,187.18,238.44,190.64,253.9,194.21Z"/><path class="cls-4" d="M247.07,251.08c3.25-4.05,9.37-8.3,11.1-13.19-.11,0,5.12-5,5-5-5.82,0-20.54,4.77-26.34,5.28q1.68-2.08,3.53-4c-13.48-3.15-27-6.2-40.48-9.31L191,273l38.84,16.46,36.33,10.89a209.35,209.35,0,0,0-9.54-50.75A14.69,14.69,0,0,1,247.07,251.08Z"/><g class="cls-5"><path class="cls-6" d="M241.5,237.82c-1.56.1-3.12.22-4.67.35,1.19-1.48,2.46-2.91,3.77-4.28-7.86-35.07-13.6-70.6-15.38-106.34a30.37,30.37,0,0,0-3.91-4q-6.42,27.44-12.85,54.87L191,273l38.84,16.46L257,297.54C251.36,277.82,246.09,257.9,241.5,237.82Z"/></g><polygon class="cls-1" points="204.62 313.66 183.96 313.66 183.96 266.65 201.77 266.65 204.62 313.66"/><path class="cls-2" d="M184,291.05v22.61s7.47.71,10,.71c2.68,0,10.69-.71,10.69-.71l-.93-15.31Q193.76,294.85,184,291.05Z"/><path class="cls-3" d="M227.41,293.71c-3.6-23.08-8.15-37.79-11.76-60.87a12.68,12.68,0,0,1,0-5.55,24.42,24.42,0,0,1-8.23-3.6c2.83-1.94,5.88-4.21,6.55-7.58s-3-7.34-5.93-5.56c-2.18-1.78,1.12-4.68,2.92-6.84,2.94-3.55,1.45-8.82.05-13.21-12-37.63-6.86-79.27-20.05-116.5A873.1,873.1,0,0,1,161,189.19L149.77,283Z"/><path class="cls-4" d="M201.22,130.37c-1.82-19.19-3.9-38.3-10.3-56.37q-4.75,25.32-11,50.34Q190.56,127.35,201.22,130.37Z"/><path class="cls-4" d="M169.12,174.32c13.27,3.41,26.6,6.57,39.95,9.65q-1.09-4.11-2-8.26c-9.29-2.67-18.6-5.27-27.9-7.91l-10.45-3q-1.32,4.35-2.67,8.69Z"/><path class="cls-4" d="M215.39,228.4C196.2,224,177,219.61,158,214.71L149.77,283l77.64,10.68c-3.6-23.08-8.15-37.79-11.76-60.87A15.83,15.83,0,0,1,215.39,228.4Z"/><g class="cls-5"><path class="cls-7" d="M193.63,261c-4.23-20.47-8.37-41-11.88-61.58-3.08-18-5.71-36.13-7.32-54.29q-6.13,22.17-13.42,44L149.77,283l50.16,6.9C197.69,280.33,195.63,270.69,193.63,261Z"/></g><polygon class="cls-1" points="163.31 316.51 142.65 316.51 142.65 269.5 161.17 269.5 163.31 316.51"/><path class="cls-2" d="M160.27,298a115.69,115.69,0,0,1-17.62-6.66v25.15s8,1.44,10.68,1.42a94.55,94.55,0,0,0,10-1.42l-.81-18A18.67,18.67,0,0,1,160.27,298Z"/><path class="cls-3" d="M115.55,275.9,142,153.22a399.46,399.46,0,0,1,25.25,58,13.65,13.65,0,0,1,1.09,6.18c-.74,5.51-7.75,9-7.48,14.55l13-5.72-4.8,10.32,4.56-.08,11.5,58.18Z"/><path class="cls-4" d="M150.08,169.21q-2.73-5.72-5.62-11.35l-3.22-.93-2,9.16C142.86,167.15,146.47,168.2,150.08,169.21Z"/><path class="cls-4" d="M169.12,236.51l4.8-10.32-13,5.72c-.27-5.56,6.74-9,7.48-14.55v0c-12.73-3.15-25.4-6.49-38-10.16Q123,241.55,115.55,275.9l69.63,18.71q-5.75-29.1-11.5-58.18Z"/><path class="cls-8" d="M60.71,319.08c63.8-2.89,127.68-5.93,191.1-13.66C295.47,299,338.74,290,381,277q-4.79-1.26-9.57-2.54-18.83-5.08-37.51-10.5Q295.16,252.71,257.15,240c-1-.33-2-.68-3.08-1l-4.35-1.47-3.55-1.22-5.9-2h0l-1-.33,0,0q-15.45-5.37-30.71-11c-2.6-1-5.19-1.92-7.77-2.89q-5.26-2-10.51-4h0l-6-2.32h0c-1.9-.73-3.79-1.48-5.68-2.22q-6.54-2.58-13-5.21l-.2-.08-6-2.44-.07,0q-4.52-1.86-9-3.74l-1.61-.67q-7.62-3.2-15.17-6.48l-4.3-1.88c-3.6-1.57-7.17-3.16-10.74-4.77h0l-.07,0-2.68-1.21q-6.94-3.14-13.82-6.35-5.57-2.6-11.1-5.25h0q-5.55-2.66-11.07-5.36-4.87-2.41-9.74-4.85-6.26-3.15-12.46-6.36l-2.26-1.18L51,153.36h0q-16.11-8.47-31.86-17.45V321Q39.95,320,60.71,319.08Z"/><path class="cls-9" d="M939.72,457.89H19.17V150.24c8.33,4.44,17.71,9.28,28.15,14.41l1.15.56.09,0q3.13,1.55,6.42,3.12L59,170.32q6.59,3.15,13.65,6.4l5.64,2.58c2.33,1.06,4.71,2.13,7.12,3.2l4,1.78,6.93,3,7.89,3.39,4.69,2q3.75,1.59,7.61,3.18l1.4.58,2.89,1.18,2.51,1,3.86,1.56c1.41.57,2.83,1.14,4.26,1.7h0q3.27,1.32,6.61,2.62,6,2.36,12.14,4.7l.38.15c2.5,1,5,1.91,7.59,2.86l.58.22.12,0,2.34.87c1.52.58,3.06,1.14,4.6,1.71l2.53.93q5.63,2.05,11.4,4.11l1.33.47,4.73,1.67,5.14,1.79,8.48,2.91q7.9,2.68,16.08,5.35,13,4.25,26.6,8.43h0l9.72,2.94,1.85.55q18.81,5.61,38.82,11,16.37,4.41,33.52,8.66l.19.05q21.9,5.4,45.11,10.47c27.09,5.89,55.51,11.38,85.23,16.3,110,18.23,267-4.85,394.92,60,14,7.07,28.51,21.32,42.42,38.53C911,410.31,927,435.73,939.72,457.89Z"/><polygon class="cls-10" points="292.57 255.25 158.82 212.47 116.17 209.89 85.17 210.89 51.17 206.89 34.17 211.89 68.17 221.89 33.17 241.89 88.92 246.56 67.17 258.89 257.17 281.89 223.18 271.53 303.17 270.89 336.67 266.65 292.57 255.25"/><polygon class="cls-1" points="51.37 211.66 34.28 211.66 34.28 164.65 48.52 164.65 51.37 211.66"/><path class="cls-2" d="M35.13,201.83l-.85-.29v10.12s6.4.71,8.54.71,8.55-.71,8.55-.71l-.28-4.57Z"/><path class="cls-3" d="M17.46,76.39,30.31,21.52C35.45,25.89,38.75,32,41.75,38a332.14,332.14,0,0,1,27.53,79.69,67.3,67.3,0,0,0-23.45,18.45q8.88-.78,17.82-.72a46.78,46.78,0,0,1-7.58,13.63,14.69,14.69,0,0,0,9.56-1.53,209.35,209.35,0,0,1,9.54,50.75L38.84,187.41,0,171,17.46,76.39Z"/><path class="cls-4" d="M41.46,37.46c-2.92-5.85-6.17-11.71-11.15-15.94q-1.38,5.91-2.77,11.83Q34.52,35.38,41.46,37.46Z"/><path class="cls-4" d="M62.9,92.21c-.45-1.52-.9-3-1.37-4.55L50.69,84.15C39.85,80.64,28.92,77.4,18,74.25c-.16.71-.33,1.42-.5,2.14l-1,5.22C32,85.18,47.44,88.64,62.9,92.21Z"/><path class="cls-4" d="M56.07,149.08a46.74,46.74,0,0,0,7.55-13.55l-.34-.08q-8.74,0-17.45.72,1.68-2.08,3.53-4c-13.48-3.15-27-6.2-40.48-9.31L0,171l38.84,16.46L75.17,198.3a209.35,209.35,0,0,0-9.54-50.75A14.69,14.69,0,0,1,56.07,149.08Z"/><g class="cls-5"><path class="cls-6" d="M50.5,135.82c-1.56.1-3.12.22-4.67.35,1.19-1.48,2.46-2.91,3.77-4.28C41.74,96.82,36,61.29,34.22,25.55a30.37,30.37,0,0,0-3.91-4Q23.89,49,17.46,76.39L0,171l38.84,16.46L66,195.54C60.36,175.82,55.09,155.9,50.5,135.82Z"/></g><polygon class="cls-1" points="140.62 245.66 119.96 245.66 119.96 198.65 137.77 198.65 140.62 245.66"/><path class="cls-2" d="M120,223.05v22.61s7.47.71,10,.71c2.68,0,10.69-.71,10.69-.71l-.93-15.31Q129.76,226.86,120,223.05Z"/><path class="cls-3" d="M163.41,225.71c-3.6-23.08-8.15-37.79-11.76-60.87a12.68,12.68,0,0,1,0-5.55,24.42,24.42,0,0,1-8.23-3.6c2.83-1.94,5.88-4.21,6.55-7.58s-3-7.34-5.93-5.56c-2.18-1.78,1.12-4.68,2.92-6.84,2.94-3.55,1.45-8.82.05-13.21-12-37.63-6.86-79.27-20-116.5A873.1,873.1,0,0,1,97,121.19L85.77,215Z"/><path class="cls-4" d="M137.22,62.37c-1.82-19.19-3.9-38.3-10.3-56.37q-4.76,25.32-11,50.34Q126.56,59.36,137.22,62.37Z"/><path class="cls-4" d="M105.12,106.32c13.27,3.41,26.6,6.57,39.95,9.65q-1.09-4.11-2-8.26c-9.29-2.67-18.6-5.27-27.9-7.91l-10.45-3q-1.32,4.35-2.67,8.69Z"/><path class="cls-4" d="M151.39,160.4C132.2,156,113,151.61,94,146.71L85.77,215l77.64,10.68c-3.6-23.08-8.15-37.79-11.76-60.87A15.83,15.83,0,0,1,151.39,160.4Z"/><g class="cls-5"><path class="cls-7" d="M129.63,193c-4.23-20.47-8.37-41-11.88-61.58-3.08-18-5.71-36.13-7.32-54.29q-6.14,22.17-13.42,44L85.77,215l50.16,6.9C133.69,212.33,131.63,202.69,129.63,193Z"/></g><polygon class="cls-1" points="98.31 229.51 77.65 229.51 77.65 182.5 96.17 182.5 98.31 229.51"/><path class="cls-2" d="M95.27,211a115.69,115.69,0,0,1-17.62-6.66v25.15s8,1.44,10.68,1.42a94.55,94.55,0,0,0,10-1.42l-.81-18A18.67,18.67,0,0,1,95.27,211Z"/><path class="cls-3" d="M50.55,188.9,77,66.22a399.46,399.46,0,0,1,25.25,58,13.65,13.65,0,0,1,1.09,6.18c-.74,5.51-7.75,9-7.48,14.55l13-5.72-4.8,10.32,4.56-.08,11.5,58.18Z"/><path class="cls-4" d="M85.08,82.21q-2.73-5.71-5.62-11.35l-3.22-.93-2,9.16C77.86,80.15,81.47,81.2,85.08,82.21Z"/><path class="cls-4" d="M104.12,149.51l4.8-10.32-13,5.72c-.27-5.56,6.74-9,7.48-14.55v0c-12.73-3.15-25.4-6.49-38-10.16Q58,154.55,50.55,188.9l69.63,18.71q-5.75-29.1-11.5-58.18Z"/></g></g></svg>