<svg xmlns="http://www.w3.org/2000/svg" viewBox="0 0 1657.17 521.9"><defs><style>.cls-1{fill:#332a22;}.cls-2{fill:#5e3f29;}.cls-3{fill:#263d54;}.cls-4{fill:#255151;}.cls-5{opacity:0.5;}.cls-6{fill:#203444;}.cls-7{fill:#1f3242;}.cls-10,.cls-8,.cls-9{fill:#1d2e43;}.cls-9{opacity:0.8;}.cls-10{opacity:0.6;}.cls-11{fill:#e6e6e6;}.cls-12{fill:#fff;}.cls-13{fill:#eaeaea;}</style></defs><title>dm-trees</title><g id="Layer_2" data-name="Layer 2"><g id="Layer_2-2" data-name="Layer 2"><polygon class="cls-1" points="167.37 250.67 150.28 250.67 150.28 203.66 164.52 203.66 167.37 250.67"/><path class="cls-2" d="M151.13,240.84l-.85-.29v10.12s6.4.71,8.54.71,8.55-.71,8.55-.71l-.28-4.57Z"/><path class="cls-3" d="M133.46,115.4l12.85-54.87C151.45,64.89,154.75,71,157.75,77a332.14,332.14,0,0,1,27.53,79.69,67.3,67.3,0,0,0-23.45,18.45q8.88-.78,17.82-.72a46.78,46.78,0,0,1-7.58,13.63,14.69,14.69,0,0,0,9.56-1.53,209.35,209.35,0,0,1,9.54,50.75l-36.33-10.89L116,210l17.46-94.56"/><path class="cls-4" d="M157.46,76.47c-2.92-5.85-6.17-11.71-11.15-15.94q-1.38,5.91-2.77,11.83Q150.51,74.38,157.46,76.47Z"/><path class="cls-4" d="M178.9,131.22c-.45-1.52-.9-3-1.37-4.55l-10.84-3.51c-10.84-3.51-21.77-6.75-32.73-9.9-.16.71-.33,1.42-.5,2.14l-1,5.22C148,124.19,163.44,127.65,178.9,131.22Z"/><path class="cls-4" d="M172.07,188.09a46.74,46.74,0,0,0,7.55-13.55l-.34-.08q-8.75,0-17.45.72,1.68-2.09,3.53-4c-13.48-3.15-27-6.2-40.48-9.31L116,210l38.84,16.46,36.33,10.89a209.35,209.35,0,0,0-9.54-50.75A14.69,14.69,0,0,1,172.07,188.09Z"/><g class="cls-5"><path class="cls-6" d="M166.5,174.83c-1.56.1-3.12.22-4.67.35,1.19-1.48,2.46-2.91,3.77-4.28-7.86-35.07-13.6-70.6-15.38-106.34a30.37,30.37,0,0,0-3.91-4Q139.89,88,133.46,115.4L116,210l38.84,16.46L182,234.55C176.36,214.83,171.09,194.91,166.5,174.83Z"/></g><polygon class="cls-1" points="129.62 250.67 108.96 250.67 108.96 203.66 126.77 203.66 129.62 250.67"/><path class="cls-2" d="M109,228.06v22.61s7.47.7,10,.71c2.68,0,10.69-.71,10.69-.71l-.93-15.31Q118.76,231.87,109,228.06Z"/><path class="cls-3" d="M152.41,230.72c-3.6-23.08-8.15-37.79-11.76-60.87a12.68,12.68,0,0,1,0-5.55,24.42,24.42,0,0,1-8.23-3.6c2.83-1.94,5.88-4.21,6.55-7.58s-3-7.34-5.93-5.56c-2.18-1.78,1.12-4.68,2.92-6.84,2.94-3.55,1.45-8.82.05-13.21-12-37.63-6.86-79.27-20-116.5A873.1,873.1,0,0,1,86,126.2L74.77,220Z"/><path class="cls-4" d="M126.22,67.38c-1.82-19.19-3.9-38.3-10.3-56.37q-4.76,25.32-11,50.34Q115.56,64.36,126.22,67.38Z"/><path class="cls-4" d="M94.12,111.33c13.27,3.41,26.6,6.57,39.95,9.65q-1.09-4.11-2-8.26c-9.29-2.67-18.6-5.27-27.9-7.91l-10.45-3q-1.32,4.35-2.67,8.69Z"/><path class="cls-4" d="M140.39,165.41C121.2,161,102,156.62,83,151.72L74.77,220l77.64,10.68c-3.6-23.08-8.15-37.79-11.76-60.87A15.83,15.83,0,0,1,140.39,165.41Z"/><g class="cls-5"><path class="cls-7" d="M118.63,198.05c-4.23-20.47-8.37-41-11.88-61.58-3.08-18-5.71-36.13-7.32-54.29Q93.3,104.35,86,126.2L74.77,220l50.16,6.9C122.69,217.34,120.63,207.7,118.63,198.05Z"/></g><polygon class="cls-1" points="88.31 253.52 67.65 253.52 67.65 206.5 86.17 206.5 88.31 253.52"/><path class="cls-2" d="M85.27,235a115.69,115.69,0,0,1-17.62-6.66v25.15s8,1.44,10.68,1.42a94.55,94.55,0,0,0,10-1.42l-.81-18A16.85,16.85,0,0,1,85.27,235Z"/><path class="cls-3" d="M40.55,212.91,67,90.23a399.46,399.46,0,0,1,25.25,58,13.65,13.65,0,0,1,1.09,6.18c-.74,5.51-7.75,9-7.48,14.55l13-5.72-4.8,10.32,4.56-.08,11.5,58.18"/><path class="cls-4" d="M75.08,106.22q-2.73-5.72-5.62-11.35l-3.22-.93-2,9.16C67.86,104.16,71.47,105.21,75.08,106.22Z"/><path class="cls-4" d="M94.12,173.52l4.8-10.32-13,5.72c-.27-5.56,6.74-9,7.48-14.55v0c-12.73-3.15-25.4-6.49-38-10.16Q48,178.56,40.55,212.91l69.63,18.71q-5.75-29.1-11.5-58.18Z"/><polygon class="cls-1" points="242.37 324.67 225.28 324.67 225.28 277.66 239.52 277.66 242.37 324.67"/><path class="cls-2" d="M226.13,314.84l-.85-.29v10.12s6.4.71,8.54.71,8.55-.71,8.55-.71l-.28-4.57Z"/><path class="cls-3" d="M208.46,189.4l12.85-54.87c5.14,4.36,8.44,10.47,11.44,16.51a332.14,332.14,0,0,1,27.53,79.69,67.3,67.3,0,0,0-23.45,18.45q8.88-.78,17.82-.72a46.78,46.78,0,0,1-7.58,13.63,14.69,14.69,0,0,0,9.56-1.53,209.35,209.35,0,0,1,9.54,50.75l-36.33-10.89L191,284l17.46-94.56"/><path class="cls-4" d="M232.46,150.47c-2.92-5.85-6.17-11.71-11.15-15.94q-1.38,5.91-2.77,11.83Q225.52,148.39,232.46,150.47Z"/><path class="cls-4" d="M253.9,205.22c-.45-1.52-.9-3-1.37-4.55l-10.84-3.51c-10.84-3.51-21.77-6.75-32.73-9.9-.16.71-.33,1.42-.5,2.14l-1,5.22C223,198.19,238.44,201.65,253.9,205.22Z"/><path class="cls-4" d="M247.07,262.09c3.25-4,9.37-8.3,11.1-13.19-.11,0,5.12-5,5-5-5.82,0-20.54,4.77-26.34,5.28q1.68-2.09,3.53-4c-13.48-3.15-27-6.2-40.48-9.31L191,284l38.84,16.46,36.33,10.89a209.35,209.35,0,0,0-9.54-50.75A14.69,14.69,0,0,1,247.07,262.09Z"/><g class="cls-5"><path class="cls-6" d="M241.5,248.83c-1.56.1-3.12.22-4.67.35,1.19-1.48,2.46-2.91,3.77-4.28-7.86-35.07-13.6-70.6-15.38-106.34a30.37,30.37,0,0,0-3.91-4Q214.89,162,208.46,189.4L191,284l38.84,16.46L257,308.55C251.36,288.83,246.09,268.91,241.5,248.83Z"/></g><polygon class="cls-1" points="204.62 324.67 183.96 324.67 183.96 277.66 201.77 277.66 204.62 324.67"/><path class="cls-2" d="M184,302.06v22.61s7.47.7,10,.71c2.68,0,10.69-.71,10.69-.71l-.93-15.31Q193.76,305.86,184,302.06Z"/><path class="cls-3" d="M227.41,304.72c-3.6-23.08-8.15-37.79-11.76-60.87a12.68,12.68,0,0,1,0-5.55,24.42,24.42,0,0,1-8.23-3.6c2.83-1.94,5.88-4.21,6.55-7.58s-3-7.34-5.93-5.56c-2.18-1.78,1.12-4.68,2.92-6.84,2.94-3.55,1.45-8.82.05-13.21-12-37.63-6.86-79.27-20.05-116.5A873.1,873.1,0,0,1,161,200.2L149.77,294Z"/><path class="cls-4" d="M201.22,141.38c-1.82-19.19-3.9-38.3-10.3-56.37q-4.75,25.32-11,50.34Q190.56,138.37,201.22,141.38Z"/><path class="cls-4" d="M169.12,185.33c13.27,3.41,26.6,6.57,39.95,9.65q-1.09-4.11-2-8.26c-9.29-2.67-18.6-5.27-27.9-7.91l-10.45-3q-1.32,4.35-2.67,8.69Z"/><path class="cls-4" d="M215.39,239.41C196.2,235,177,230.62,158,225.72L149.77,294l77.64,10.68c-3.6-23.08-8.15-37.79-11.76-60.87A15.83,15.83,0,0,1,215.39,239.41Z"/><g class="cls-5"><path class="cls-7" d="M193.63,272.05c-4.23-20.47-8.37-41-11.88-61.58-3.08-18-5.71-36.13-7.32-54.29q-6.13,22.17-13.42,44L149.77,294l50.16,6.9C197.69,291.34,195.63,281.7,193.63,272.05Z"/></g><polygon class="cls-1" points="163.31 327.52 142.65 327.52 142.65 280.5 161.17 280.5 163.31 327.52"/><path class="cls-2" d="M160.27,309a115.69,115.69,0,0,1-17.62-6.66v25.15s8,1.44,10.68,1.42a94.55,94.55,0,0,0,10-1.42l-.81-18A16.85,16.85,0,0,1,160.27,309Z"/><path class="cls-3" d="M115.55,286.91,142,164.23a399.46,399.46,0,0,1,25.25,58,13.65,13.65,0,0,1,1.09,6.18c-.74,5.51-7.75,9-7.48,14.55l13-5.72-4.8,10.32,4.56-.08,11.5,58.18"/><path class="cls-4" d="M150.08,180.22q-2.73-5.72-5.62-11.35l-3.22-.93-2,9.16C142.86,178.16,146.47,179.21,150.08,180.22Z"/><path class="cls-4" d="M169.12,247.52l4.8-10.32-13,5.72c-.27-5.56,6.74-9,7.48-14.55v0c-12.73-3.15-25.4-6.49-38-10.16q-7.42,34.37-14.84,68.72l69.63,18.71q-5.75-29.1-11.5-58.18Z"/><polygon class="cls-1" points="1423.36 285.67 1440.45 285.67 1440.45 238.66 1426.2 238.66 1423.36 285.67"/><path class="cls-2" d="M1439.6,275.84l.85-.29v10.12s-6.4.71-8.55.71-8.55-.71-8.55-.71l.28-4.57Z"/><path class="cls-3" d="M1457.26,150.4l-12.85-54.87C1439.27,99.89,1436,106,1433,112a332.6,332.6,0,0,0-27.54,79.69,67.34,67.34,0,0,1,23.46,18.45q-8.89-.78-17.82-.72a46.75,46.75,0,0,0,7.57,13.63,14.67,14.67,0,0,1-9.55-1.53,209.37,209.37,0,0,0-9.55,50.75l36.33-10.89L1474.73,245l-17.47-94.56"/><path class="cls-4" d="M1433.27,111.47c2.92-5.85,6.17-11.71,11.14-15.94q1.39,5.91,2.77,11.83Q1440.22,109.39,1433.27,111.47Z"/><path class="cls-4" d="M1411.83,166.22c.44-1.52.9-3,1.36-4.55l10.85-3.51c10.84-3.51,21.77-6.75,32.72-9.9.17.71.34,1.42.5,2.14l1,5.22C1442.77,159.19,1427.29,162.65,1411.83,166.22Z"/><path class="cls-4" d="M1418.65,223.09a46.94,46.94,0,0,1-7.54-13.55l.34-.08c5.82,0,11.65.21,17.45.72q-1.68-2.09-3.54-4c13.49-3.15,27-6.2,40.48-9.31l8.89,48.11-38.85,16.46-36.33,10.89a209.37,209.37,0,0,1,9.55-50.75A14.67,14.67,0,0,0,1418.65,223.09Z"/><g class="cls-5"><path class="cls-6" d="M1424.23,209.83c1.56.1,3.11.22,4.67.35q-1.8-2.22-3.78-4.28c7.86-35.07,13.6-70.6,15.39-106.34a30.93,30.93,0,0,1,3.9-4q6.43,27.43,12.85,54.87L1474.73,245l-38.85,16.46-27.12,8.13C1414.36,249.83,1419.63,229.91,1424.23,209.83Z"/></g><polygon class="cls-1" points="1461.11 285.67 1481.76 285.67 1481.76 238.66 1463.96 238.66 1461.11 285.67"/><path class="cls-2" d="M1481.76,263.06v22.61s-7.47.7-10,.71c-2.68,0-10.68-.71-10.68-.71l.92-15.31Q1472,266.86,1481.76,263.06Z"/><path class="cls-3" d="M1438.31,265.72c3.61-23.08,8.16-37.79,11.76-60.87a12.53,12.53,0,0,0,0-5.55,24.39,24.39,0,0,0,8.24-3.6c-2.83-1.94-5.88-4.21-6.56-7.58s3-7.34,5.93-5.56c2.19-1.78-1.11-4.68-2.91-6.84-2.94-3.55-1.46-8.82,0-13.21,12-37.63,6.86-79.27,20-116.5a873.13,873.13,0,0,0,29.92,115.19L1516,255Z"/><path class="cls-4" d="M1464.51,102.38c1.82-19.19,3.89-38.3,10.29-56.37q4.77,25.32,11,50.34Q1475.17,99.37,1464.51,102.38Z"/><path class="cls-4" d="M1496.6,146.33c-13.27,3.41-26.6,6.57-39.94,9.65.73-2.74,1.38-5.49,2-8.26,9.3-2.67,18.61-5.27,27.9-7.91l10.46-3c.87,2.9,1.77,5.8,2.67,8.69Z"/><path class="cls-4" d="M1450.34,200.41c19.19-4.39,38.38-8.79,57.43-13.69L1516,255l-77.65,10.68c3.61-23.08,8.16-37.79,11.76-60.87A16.22,16.22,0,0,0,1450.34,200.41Z"/><g class="cls-5"><path class="cls-7" d="M1472.09,233.05c4.23-20.47,8.37-41,11.89-61.58,3.07-18,5.71-36.13,7.32-54.29q6.14,22.17,13.42,44L1516,255l-50.16,6.9C1468,252.34,1470.1,242.7,1472.09,233.05Z"/></g><polygon class="cls-1" points="1502.42 288.52 1523.08 288.52 1523.08 241.5 1504.56 241.5 1502.42 288.52"/><path class="cls-2" d="M1505.45,270a116.2,116.2,0,0,0,17.63-6.66v25.15s-8,1.44-10.69,1.42a95,95,0,0,1-10-1.42l.82-18A16.71,16.71,0,0,0,1505.45,270Z"/><path class="cls-3" d="M1550.17,247.91l-26.48-122.68a399.46,399.46,0,0,0-25.25,58,13.65,13.65,0,0,0-1.09,6.18c.74,5.51,7.74,9,7.48,14.55l-13-5.72,4.81,10.32-4.57-.08-11.5,58.18"/><path class="cls-4" d="M1515.64,141.22q2.73-5.72,5.63-11.35l3.22-.93q1,4.58,2,9.16C1522.87,139.16,1519.26,140.21,1515.64,141.22Z"/><path class="cls-4" d="M1496.61,208.52l-4.81-10.32,13,5.72c.26-5.56-6.74-9-7.48-14.55v0c12.72-3.15,25.4-6.49,38-10.16q7.41,34.37,14.83,68.72l-69.63,18.71q5.76-29.1,11.5-58.18Z"/><polygon class="cls-1" points="1335.36 387.67 1352.45 387.67 1352.45 340.66 1338.2 340.66 1335.36 387.67"/><path class="cls-2" d="M1351.6,377.84l.85-.29v10.12s-6.4.71-8.55.71-8.55-.71-8.55-.71l.28-4.57Z"/><path class="cls-3" d="M1369.26,252.4l-12.85-54.87C1351.27,201.89,1348,208,1345,214a332.6,332.6,0,0,0-27.54,79.69,67.34,67.34,0,0,1,23.46,18.45q-8.89-.78-17.82-.72a46.75,46.75,0,0,0,7.57,13.63,14.67,14.67,0,0,1-9.55-1.53,209.37,209.37,0,0,0-9.55,50.75l36.33-10.89L1386.73,347l-17.47-94.56"/><path class="cls-4" d="M1345.27,213.47c2.92-5.85,6.17-11.71,11.14-15.94q1.39,5.91,2.77,11.83Q1352.22,211.39,1345.27,213.47Z"/><path class="cls-4" d="M1323.83,268.22c.44-1.52.9-3,1.36-4.55l10.85-3.51c10.84-3.51,21.77-6.75,32.72-9.9.17.71.34,1.42.5,2.14l1,5.22C1354.77,261.19,1339.29,264.65,1323.83,268.22Z"/><path class="cls-4" d="M1330.65,325.09a46.94,46.94,0,0,1-7.54-13.55l.34-.08c5.82,0,11.65.21,17.45.72q-1.68-2.08-3.54-4c13.49-3.15,27-6.2,40.48-9.31l8.89,48.11-38.85,16.46-36.33,10.89a209.37,209.37,0,0,1,9.55-50.75A14.67,14.67,0,0,0,1330.65,325.09Z"/><g class="cls-5"><path class="cls-6" d="M1336.23,311.83c1.56.1,3.11.22,4.67.35q-1.8-2.22-3.78-4.28c7.86-35.07,13.6-70.6,15.39-106.34a30.93,30.93,0,0,1,3.9-4q6.43,27.43,12.85,54.87L1386.73,347l-38.85,16.46-27.12,8.13C1326.36,351.83,1331.63,331.91,1336.23,311.83Z"/></g><polygon class="cls-1" points="1395.11 387.67 1415.76 387.67 1415.76 340.66 1397.96 340.66 1395.11 387.67"/><path class="cls-2" d="M1415.76,365.06v22.61s-7.47.7-10,.71c-2.68,0-10.68-.71-10.68-.71l.92-15.31Q1406,368.86,1415.76,365.06Z"/><path class="cls-3" d="M1372.31,367.72c3.61-23.08,8.16-37.79,11.76-60.87a12.53,12.53,0,0,0,0-5.55,24.39,24.39,0,0,0,8.24-3.6c-2.83-1.94-5.88-4.21-6.56-7.58s3-7.34,5.93-5.56c2.19-1.78-1.11-4.68-2.91-6.84-2.94-3.55-1.46-8.82,0-13.21,12-37.63,6.86-79.27,20-116.5a873.13,873.13,0,0,0,29.92,115.19L1450,357Z"/><path class="cls-4" d="M1398.51,204.38c1.82-19.19,3.89-38.3,10.29-56.37q4.77,25.32,11,50.34Q1409.17,201.37,1398.51,204.38Z"/><path class="cls-4" d="M1430.6,248.33c-13.27,3.41-26.6,6.57-39.94,9.65.73-2.74,1.38-5.49,2-8.26,9.3-2.67,18.61-5.27,27.9-7.91l10.46-3c.87,2.9,1.77,5.8,2.67,8.69Z"/><path class="cls-4" d="M1384.34,302.41c19.19-4.39,38.38-8.79,57.43-13.69L1450,357l-77.65,10.68c3.61-23.08,8.16-37.79,11.76-60.87A16.22,16.22,0,0,0,1384.34,302.41Z"/><g class="cls-5"><path class="cls-7" d="M1406.09,335.05c4.23-20.47,8.37-41,11.89-61.58,3.07-18,5.71-36.13,7.32-54.29q6.14,22.17,13.42,44L1450,357l-50.16,6.9C1402,354.34,1404.1,344.7,1406.09,335.05Z"/></g><polygon class="cls-1" points="1436.42 390.52 1457.08 390.52 1457.08 343.5 1438.56 343.5 1436.42 390.52"/><path class="cls-2" d="M1439.45,372a116.2,116.2,0,0,0,17.63-6.66v25.15s-8,1.44-10.69,1.42a95,95,0,0,1-10-1.42l.82-18A16.71,16.71,0,0,0,1439.45,372Z"/><path class="cls-3" d="M1484.17,349.91l-26.48-122.68a399.46,399.46,0,0,0-25.25,58,13.65,13.65,0,0,0-1.09,6.18c.74,5.51,7.74,9,7.48,14.55l-13-5.72,4.81,10.32-4.57-.08-11.5,58.18"/><path class="cls-4" d="M1449.64,243.22q2.73-5.72,5.63-11.35l3.22-.93q1,4.58,2,9.16C1456.87,241.16,1453.26,242.21,1449.64,243.22Z"/><path class="cls-4" d="M1430.61,310.52l-4.81-10.32,13,5.72c.26-5.56-6.74-9-7.48-14.55v0c12.72-3.15,25.4-6.49,38-10.16q7.41,34.37,14.83,68.72l-69.63,18.71q5.76-29.1,11.5-58.18Z"/><polygon class="cls-1" points="1512.67 273.07 1532.15 273.07 1532.15 219.5 1515.92 219.5 1512.67 273.07"/><path class="cls-2" d="M1531.18,261.87l1-.32v11.52s-7.29.81-9.74.81-9.74-.81-9.74-.81l.32-5.2Q1522.08,264.87,1531.18,261.87Z"/><path class="cls-3" d="M1551.31,118.94l-14.64-62.51c-5.86,5-9.62,11.92-13,18.81a378.58,378.58,0,0,0-31.38,90.8,76.75,76.75,0,0,1,26.73,21c-6.75-.59-13.53-.87-20.3-.83a52.66,52.66,0,0,0,8.63,15.54,16.73,16.73,0,0,1-10.89-1.74,238.22,238.22,0,0,0-10.88,57.82l41.4-12.41,44.26-18.76-19.9-107.74"/><path class="cls-4" d="M1524,74.58c3.32-6.66,7-13.34,12.7-18.15l3.15,13.47Q1531.89,72.21,1524,74.58Z"/><path class="cls-4" d="M1499.54,137c.51-1.73,1-3.46,1.55-5.18l12.36-4c12.35-4,24.81-7.7,37.29-11.29l.57,2.44,1.1,6C1534.8,129,1517.15,132.9,1499.54,137Z"/><path class="cls-4" d="M1507.32,201.77a53.23,53.23,0,0,1-8.6-15.44l.39-.09c6.63,0,13.27.24,19.88.82q-1.92-2.37-4-4.58c15.36-3.59,30.75-7.06,46.12-10.61l10.13,54.81L1527,245.44l-41.4,12.41A238.22,238.22,0,0,1,1496.43,200,16.73,16.73,0,0,0,1507.32,201.77Z"/><g class="cls-5"><path class="cls-6" d="M1513.67,186.66c1.78.11,3.55.25,5.32.4-1.36-1.69-2.8-3.31-4.3-4.88,9-40,15.49-80.44,17.53-121.16a34.46,34.46,0,0,1,4.45-4.59l14.64,62.51,19.9,107.74L1527,245.44,1496,254.71C1502.43,232.24,1508.43,209.54,1513.67,186.66Z"/></g><polygon class="cls-1" points="1555.69 273.07 1579.23 273.07 1579.23 219.5 1558.94 219.5 1555.69 273.07"/><path class="cls-2" d="M1579.23,247.31v25.76s-8.52.81-11.37.81c-3,0-12.17-.81-12.17-.81l1.06-17.44Q1568.06,251.65,1579.23,247.31Z"/><path class="cls-3" d="M1529.72,250.35c4.11-26.3,9.29-43.06,13.4-69.36a14.39,14.39,0,0,0,0-6.33,27.72,27.72,0,0,0,9.38-4.1c-3.22-2.21-6.7-4.8-7.46-8.63s3.41-8.37,6.75-6.35c2.49-2-1.27-5.32-3.32-7.79-3.35-4-1.66-10-.06-15,13.7-42.87,7.82-90.32,22.85-132.74a993.34,993.34,0,0,0,34.08,131.25l12.8,106.92Z"/><path class="cls-4" d="M1559.56,64.23C1561.64,42.37,1564,20.59,1571.3,0q5.42,28.86,12.55,57.36Z"/><path class="cls-4" d="M1596.13,114.3c-15.12,3.89-30.3,7.49-45.51,11,.83-3.12,1.58-6.25,2.25-9.41,10.59-3,21.2-6,31.79-9l11.91-3.38q1.5,4.95,3,9.9C1598.46,113.7,1597.3,114,1596.13,114.3Z"/><path class="cls-4" d="M1543.42,175.92c21.87-5,43.73-10,65.44-15.59l9.32,77.84-88.46,12.18c4.11-26.3,9.29-43.06,13.4-69.36A18.44,18.44,0,0,0,1543.42,175.92Z"/><g class="cls-5"><path class="cls-7" d="M1568.21,213.12c4.81-23.33,9.53-46.69,13.54-70.16,3.5-20.53,6.5-41.17,8.34-61.87q7,25.27,15.29,50.16l12.8,106.92L1561,246C1563.58,235.1,1565.93,224.11,1568.21,213.12Z"/></g><polygon class="cls-1" points="1602.76 276.32 1626.3 276.32 1626.3 222.75 1605.2 222.75 1602.76 276.32"/><path class="cls-2" d="M1606.22,255.26a131.65,131.65,0,0,0,20.08-7.6v28.66s-9.1,1.64-12.17,1.62c-2.87,0-11.37-1.62-11.37-1.62l.94-20.53A21.7,21.7,0,0,0,1606.22,255.26Z"/><path class="cls-3" d="M1657.17,230.05,1627,90.27a456.07,456.07,0,0,0-28.77,66c-.78,2.28-1.55,4.66-1.24,7,.84,6.29,8.83,10.25,8.53,16.58l-14.85-6.51,5.48,11.76-5.2-.1-13.11,66.29"/><path class="cls-4" d="M1617.83,108.48q3.11-6.51,6.41-12.93l3.67-1.06,2.25,10.44Q1624,106.75,1617.83,108.48Z"/><path class="cls-4" d="M1596.14,185.17l-5.48-11.76,14.85,6.51c.3-6.33-7.69-10.29-8.53-16.58h0c14.5-3.6,29-7.4,43.29-11.58q8.45,39.15,16.9,78.3l-79.34,21.31,13.11-66.29Z"/><polygon class="cls-1" points="1587.67 223.07 1607.15 223.07 1607.15 169.5 1590.92 169.5 1587.67 223.07"/><path class="cls-2" d="M1606.18,211.87l1-.32v11.52s-7.29.81-9.74.81-9.74-.81-9.74-.81l.32-5.2Q1597.08,214.87,1606.18,211.87Z"/><path class="cls-8" d="M1626.31,68.94,1611.67,6.43c-5.86,5-9.62,11.92-13,18.81a378.58,378.58,0,0,0-31.38,90.8,76.75,76.75,0,0,1,26.73,21c-6.75-.59-13.53-.87-20.3-.83a52.66,52.66,0,0,0,8.63,15.54,16.73,16.73,0,0,1-10.89-1.74,238.22,238.22,0,0,0-10.88,57.82l41.4-12.41,44.26-18.76-19.9-107.74"/><path class="cls-4" d="M1599,24.58c3.32-6.66,7-13.34,12.7-18.15l3.15,13.47Q1606.89,22.21,1599,24.58Z"/><path class="cls-4" d="M1574.54,87c.51-1.73,1-3.46,1.55-5.18l12.36-4c12.35-4,24.81-7.7,37.29-11.29l.57,2.44,1.1,6C1609.8,79,1592.15,82.9,1574.54,87Z"/><path class="cls-4" d="M1582.32,151.77a53.23,53.23,0,0,1-8.6-15.44l.39-.09c6.63,0,13.27.24,19.88.82q-1.92-2.37-4-4.58c15.36-3.59,30.75-7.06,46.12-10.61l10.13,54.81L1602,195.44l-41.4,12.41A238.22,238.22,0,0,1,1571.43,150,16.73,16.73,0,0,0,1582.32,151.77Z"/><g class="cls-5"><path class="cls-6" d="M1588.67,136.66c1.78.11,3.55.25,5.32.4-1.36-1.69-2.8-3.31-4.3-4.88,9-39.95,15.49-80.44,17.53-121.16a34.46,34.46,0,0,1,4.45-4.59l14.64,62.51,19.9,107.74L1602,195.44,1571,204.71C1577.43,182.24,1583.43,159.54,1588.67,136.66Z"/></g><path class="cls-9" d="M1448.17,11.9s-28,91-18,159l10,68s161-43,206-67c0,0-37-151-32-165,0,0-13.5,10.5-26.5,45.5,0,0-3,18-16-52,0,0-12.72,12.08-20.36,118.54L1537.67,56.4s-31,38-38,81c0,0-14-34-25-91a198.41,198.41,0,0,0-9,42S1455.67,46.4,1448.17,11.9Z"/><path class="cls-9" d="M1448.17,11.9s-16.54,53.76-19.65,109.51c-.57,10.15-16.35,34.49-16.35,43.49,0,6.52-3.91-23.22-3-17,0,0-4,3-9,41-2.58,19.61-7,59-7,63l47-13s161-43,206-67c0,0-37-151-32-165,0,0-13.5,10.5-26.5,45.5,0,0-3,18-16-52,0,0-12.72,12.08-20.36,118.54L1537.67,56.4s-31,38-38,81c0,0-14-34-25-91a198.41,198.41,0,0,0-9,42S1455.67,46.4,1448.17,11.9Z"/><path class="cls-10" d="M1356.17,197.9,1370.23,256l-45.69,9.79S1342.17,209.9,1356.17,197.9Z"/><path class="cls-11" d="M223.63,349.49c73.65-14.77,147.3-29.65,220.72-45.55l-9.17-2.19c-34-8.24-67.8-17.08-101.3-26.8-111-32.22-218.34-73.1-314.71-128V391.09C87.23,376.78,155.44,363.16,223.63,349.49Z"/><path class="cls-12" d="M1619.17,184.07V521.9H19.17V161.25c67.48,37.85,208.25,104.31,416,140.5,104.61,18.23,226.21,28.79,364,24.15,227.3-7.65,412.71-35.69,550.81-65.42h0q3.67-.78,7.29-1.58,15.72-3.42,30.6-6.87,24.75-5.73,47.13-11.41,6.87-1.74,13.51-3.47,11.87-3.07,23-6.1,13.48-3.64,25.91-7.2,7.55-2.16,14.71-4.26,22.48-6.62,41-12.58C1583.05,197.44,1605.16,189.43,1619.17,184.07Z"/><polygon class="cls-13" points="290.14 269.33 155.17 225.9 116.17 220.9 85.17 221.9 51.17 217.9 34.17 222.9 68.17 232.9 33.17 252.9 88.92 257.57 67.17 269.9 257.17 292.9 223.18 282.54 303.17 281.9 332.04 280.22 290.14 269.33"/><polygon class="cls-1" points="51.37 222.67 34.28 222.67 34.28 175.66 48.52 175.66 51.37 222.67"/><path class="cls-2" d="M35.13,212.84l-.85-.29v10.12s6.4.71,8.54.71,8.55-.71,8.55-.71l-.28-4.57Z"/><path class="cls-3" d="M17.46,87.4,30.31,32.53C35.45,36.89,38.75,43,41.75,49a332.14,332.14,0,0,1,27.53,79.69,67.3,67.3,0,0,0-23.45,18.45q8.88-.78,17.82-.72a46.78,46.78,0,0,1-7.58,13.63,14.69,14.69,0,0,0,9.56-1.53,209.35,209.35,0,0,1,9.54,50.75L38.84,198.42,0,182,17.46,87.4"/><path class="cls-4" d="M41.46,48.47c-2.92-5.85-6.17-11.71-11.15-15.94q-1.38,5.91-2.77,11.83Q34.52,46.39,41.46,48.47Z"/><path class="cls-4" d="M62.9,103.22c-.45-1.52-.9-3-1.37-4.55L50.69,95.16C39.85,91.65,28.92,88.41,18,85.26c-.16.71-.33,1.42-.5,2.14l-1,5.22C32,96.19,47.44,99.65,62.9,103.22Z"/><path class="cls-4" d="M56.07,160.09a46.74,46.74,0,0,0,7.55-13.55l-.34-.08q-8.74,0-17.45.72,1.68-2.09,3.53-4c-13.48-3.15-27-6.2-40.48-9.31L0,182l38.84,16.46,36.33,10.89a209.35,209.35,0,0,0-9.54-50.75A14.69,14.69,0,0,1,56.07,160.09Z"/><g class="cls-5"><path class="cls-6" d="M50.5,146.83c-1.56.1-3.12.22-4.67.35,1.19-1.48,2.46-2.91,3.77-4.28C41.74,107.83,36,72.3,34.22,36.56a30.37,30.37,0,0,0-3.91-4Q23.89,60,17.46,87.4L0,182l38.84,16.46L66,206.55C60.36,186.83,55.09,166.91,50.5,146.83Z"/></g><polygon class="cls-1" points="140.62 256.67 119.96 256.67 119.96 209.66 137.77 209.66 140.62 256.67"/><path class="cls-2" d="M120,234.06v22.61s7.47.7,10,.71c2.68,0,10.69-.71,10.69-.71l-.93-15.31Q129.76,237.87,120,234.06Z"/><path class="cls-3" d="M163.41,236.72c-3.6-23.08-8.15-37.79-11.76-60.87a12.68,12.68,0,0,1,0-5.55,24.42,24.42,0,0,1-8.23-3.6c2.83-1.94,5.88-4.21,6.55-7.58s-3-7.34-5.93-5.56c-2.18-1.78,1.12-4.68,2.92-6.84,2.94-3.55,1.45-8.82.05-13.21-12-37.63-6.86-79.27-20-116.5A873.1,873.1,0,0,1,97,132.2L85.77,226Z"/><path class="cls-4" d="M137.22,73.38c-1.82-19.19-3.9-38.3-10.3-56.37q-4.76,25.32-11,50.34Q126.56,70.37,137.22,73.38Z"/><path class="cls-4" d="M105.12,117.33c13.27,3.41,26.6,6.57,39.95,9.65q-1.09-4.11-2-8.26c-9.29-2.67-18.6-5.27-27.9-7.91l-10.45-3q-1.32,4.35-2.67,8.69Z"/><path class="cls-4" d="M151.39,171.41C132.2,167,113,162.62,94,157.72L85.77,226l77.64,10.68c-3.6-23.08-8.15-37.79-11.76-60.87A15.83,15.83,0,0,1,151.39,171.41Z"/><g class="cls-5"><path class="cls-7" d="M129.63,204.05c-4.23-20.47-8.37-41-11.88-61.58-3.08-18-5.71-36.13-7.32-54.29q-6.14,22.17-13.42,44L85.77,226l50.16,6.9C133.69,223.34,131.63,213.7,129.63,204.05Z"/></g><polygon class="cls-1" points="98.31 240.52 77.65 240.52 77.65 193.5 96.17 193.5 98.31 240.52"/><path class="cls-2" d="M95.27,222a115.69,115.69,0,0,1-17.62-6.66v25.15s8,1.44,10.68,1.42a94.55,94.55,0,0,0,10-1.42l-.81-18A16.85,16.85,0,0,1,95.27,222Z"/><path class="cls-3" d="M50.55,199.91,77,77.23a399.46,399.46,0,0,1,25.25,58,13.65,13.65,0,0,1,1.09,6.18c-.74,5.51-7.75,9-7.48,14.55l13-5.72-4.8,10.32,4.56-.08,11.5,58.18"/><path class="cls-4" d="M85.08,93.22q-2.73-5.72-5.62-11.35l-3.22-.93-2,9.16C77.86,91.16,81.47,92.21,85.08,93.22Z"/><path class="cls-4" d="M104.12,160.52l4.8-10.32-13,5.72c-.27-5.56,6.74-9,7.48-14.55v0c-12.73-3.15-25.4-6.49-38-10.16Q58,165.56,50.55,199.91l69.63,18.71q-5.75-29.1-11.5-58.18Z"/><path class="cls-13" d="M1619.17,338.18v40.25l-27,8.47-56-4.3-31.5-.27-42,1.61-28-1.61-31.67.83a40.13,40.13,0,0,0-4.41-.5l-2.07-.5c-1.42-.34-6.49-1.56-6.62-1.56h0l-.2-.05c-.29-.07-1.91-.64-3-1-.28-.17-.56-.34-.83-.52s-.79-.46-1.2-.67c-.59-1,0-2,2.68-2.66.41-.1.88-.2,1.4-.29a56.89,56.89,0,0,1,7.8-.67l14.05-.07,19.13-.1,12.85-9.51,1.58-1.17,29.14-8.59,1.13-.33,31.52-3.67,7.54-.88,22.52-2.62Z"/><polygon class="cls-1" points="1384.68 375.45 1410.63 375.45 1410.63 304.1 1389.01 304.1 1384.68 375.45"/><path class="cls-2" d="M1409.34,360.53l1.29-.43v15.36s-9.72,1.08-13,1.08-13-1.08-13-1.08l.42-6.94C1393.18,365.85,1401.26,363.21,1409.34,360.53Z"/><path class="cls-3" d="M1436.15,170.13l-19.5-83.27c-7.81,6.62-12.81,15.88-17.36,25-19,38.33-37.4,99.11-46.12,141,13-4,17-6,23-3-8,0-18,8.94-27,9,2.64,7.48,23.42,15.38,28.37,21.57-4.91.89-24-.19-28.37-2.57-2,24,1,51.14-.62,77.28l55.15-16.53,59-25-26.51-143.53Z"/><path class="cls-4" d="M1399.72,111c4.44-8.88,9.37-17.77,16.93-24.18l4.2,17.94Q1410.28,107.88,1399.72,111Z"/><path class="cls-4" d="M1367.19,194.15c.67-2.3,1.36-4.61,2.06-6.9l16.47-5.34c16.45-5.32,33-10.24,49.67-15,.25,1.09.51,2.17.76,3.25l1.46,7.92C1414.15,183.48,1390.65,188.72,1367.19,194.15Z"/><path class="cls-4" d="M1377.54,280.47c-4.92-6.15-25.73-14.14-28.37-21.57.18,0,21.83,0,22,0,8,1,13.12,1.2,21.93,2-1.71-2.11-3.5-4.14-5.37-6.11,20.46-4.78,41-9.4,61.44-14.13l13.49,73-59,25-55.15,16.53c1.63-26.14-1.38-55.28.62-77.28C1353.56,280.28,1372.63,281.36,1377.54,280.47Z"/><g class="cls-5"><path class="cls-6" d="M1386,260.35c2.36.15,4.73.32,7.09.53q-2.73-3.37-5.74-6.5C1399.3,201.15,1408,147.22,1410.72,93a46.25,46.25,0,0,1,5.93-6.11l19.5,83.27,26.51,143.53-59,25L1362.52,351C1371,321.06,1379,290.82,1386,260.35Z"/></g><polygon class="cls-1" points="1441.98 375.45 1473.34 375.45 1473.34 304.1 1446.31 304.1 1441.98 375.45"/><path class="cls-2" d="M1473.34,341.14v34.32s-11.34,1.07-15.14,1.08c-4.06,0-16.22-1.08-16.22-1.08l1.41-23.23Q1458.47,346.92,1473.34,341.14Z"/><path class="cls-3" d="M1407.39,345.18c5.47-35,12.38-57.36,17.85-92.39.44-2.8.87-5.72,0-8.43a37.16,37.16,0,0,0,12.5-5.46c-4.29-3-8.92-6.4-9.94-11.5s4.54-11.15,9-8.45c3.31-2.7-1.7-7.1-4.42-10.38-4.47-5.39-2.21-13.39-.09-20.06,18.25-57.11,10.42-120.31,30.43-176.82a1326,1326,0,0,0,45.41,174.84L1525.24,329Z"/><path class="cls-3" d="M1407.39,345.18c5.47-35,12.38-57.36,17.85-92.39.44-2.8.87-5.72,0-8.43a37.16,37.16,0,0,0,12.5-5.46c-4.29-3-8.92-6.4-9.94-11.5s4.54-11.15,9-8.45c3.31-2.7-1.7-7.1-4.42-10.38-4.47-5.39-2.21-13.39-.09-20.06,18.25-57.11,10.42-120.31,30.43-176.82a1326,1326,0,0,0,45.41,174.84L1525.24,329Z"/><path class="cls-4" d="M1447.15,97.25c2.76-29.12,5.91-58.13,15.62-85.56q7.23,38.45,16.72,76.41Q1463.32,92.68,1447.15,97.25Z"/><path class="cls-4" d="M1495.86,164c-20.14,5.18-40.37,10-60.63,14.64,1.1-4.15,2.11-8.33,3-12.53,14.1-4,28.24-8,42.34-12l15.87-4.51q2,6.6,4.06,13.19Z"/><path class="cls-4" d="M1425.64,246c29.13-6.66,58.25-13.33,87.18-20.77L1525.24,329l-117.85,16.22c5.47-35,12.38-57.36,17.85-92.39A24.37,24.37,0,0,0,1425.64,246Z"/><g class="cls-5"><path class="cls-7" d="M1458.66,295.59c6.42-31.07,12.7-62.19,18-93.47,4.67-27.34,8.66-54.84,11.11-82.41q9.32,33.66,20.37,66.82L1525.24,329l-76.13,10.48C1452.5,324.87,1455.63,310.24,1458.66,295.59Z"/></g><polygon class="cls-1" points="1504.69 379.78 1536.05 379.78 1536.05 308.42 1507.94 308.42 1504.69 379.78"/><path class="cls-2" d="M1509.29,351.72a176.46,176.46,0,0,0,26.76-10.11v38.17s-12.13,2.18-16.22,2.16c-3.82,0-15.14-2.16-15.14-2.16l1.25-27.34A27.36,27.36,0,0,0,1509.29,351.72Z"/><path class="cls-3" d="M1577.17,318.14,1537,131.94a605.83,605.83,0,0,0-38.32,88c-1.05,3-2.08,6.2-1.66,9.37,1.12,8.37,11.76,13.66,11.36,22.09l-19.78-8.68,7.3,15.67-6.93-.13-17.46,88.31Z"/><path class="cls-4" d="M1524.76,156.2q4.14-8.67,8.54-17.22l4.88-1.42q1.52,6.94,3,13.9Q1533,153.89,1524.76,156.2Z"/><path class="cls-4" d="M1495.87,258.36q-3.64-7.85-7.3-15.67l19.78,8.68c.4-8.43-10.24-13.72-11.36-22.09v0c19.32-4.79,38.56-9.85,57.66-15.42q11.26,52.14,22.52,104.3l-105.69,28.4,17.46-88.31Z"/></g></g></svg>