<svg xmlns="http://www.w3.org/2000/svg" viewBox="0 0 1365.88 521.9"><defs><style>.cls-1{fill:#332a22;}.cls-2{fill:#5e3f29;}.cls-3{fill:#263d54;}.cls-4{fill:#255151;}.cls-5{opacity:0.5;}.cls-6{fill:#203444;}.cls-7{fill:#1f3242;}.cls-10,.cls-8,.cls-9{fill:#1d2e43;}.cls-9{opacity:0.8;}.cls-10{opacity:0.6;}.cls-11{fill:#fff;}.cls-12{fill:#eaeaea;}</style></defs><title>dm-tree-right</title><g id="Layer_2" data-name="Layer 2"><g id="Layer_2-2" data-name="Layer 2"><polygon class="cls-1" points="1132.06 285.67 1149.16 285.67 1149.16 238.66 1134.91 238.66 1132.06 285.67"/><path class="cls-2" d="M1148.31,275.84l.85-.29v10.12s-6.4.71-8.55.71-8.55-.71-8.55-.71l.28-4.57Z"/><path class="cls-3" d="M1166,150.4l-12.85-54.87c-5.14,4.36-8.44,10.47-11.43,16.51a332.16,332.16,0,0,0-27.54,79.69,67.34,67.34,0,0,1,23.46,18.45q-8.89-.78-17.82-.72a46.75,46.75,0,0,0,7.57,13.63,14.67,14.67,0,0,1-9.55-1.53,209.37,209.37,0,0,0-9.55,50.75l36.33-10.89L1183.43,245,1166,150.4"/><path class="cls-4" d="M1142,111.47c2.92-5.85,6.17-11.71,11.15-15.94q1.39,5.91,2.77,11.83Q1148.93,109.39,1142,111.47Z"/><path class="cls-4" d="M1120.54,166.22c.44-1.52.89-3,1.36-4.55l10.85-3.51c10.84-3.51,21.76-6.75,32.72-9.9.17.71.34,1.42.5,2.14l1,5.22C1151.48,159.19,1136,162.65,1120.54,166.22Z"/><path class="cls-4" d="M1127.36,223.09a46.48,46.48,0,0,1-7.54-13.55l.34-.08c5.82,0,11.65.21,17.45.72-1.12-1.39-2.31-2.73-3.54-4,13.48-3.15,27-6.2,40.48-9.31l8.88,48.11-38.84,16.46-36.33,10.89a209.37,209.37,0,0,1,9.55-50.75A14.67,14.67,0,0,0,1127.36,223.09Z"/><g class="cls-5"><path class="cls-6" d="M1132.94,209.83c1.56.1,3.11.22,4.67.35q-1.8-2.22-3.78-4.28c7.86-35.07,13.6-70.6,15.39-106.34a30.93,30.93,0,0,1,3.9-4Q1159.56,123,1166,150.4L1183.43,245l-38.84,16.46-27.13,8.13C1123.07,249.83,1128.34,229.91,1132.94,209.83Z"/></g><polygon class="cls-1" points="1169.82 285.67 1190.47 285.67 1190.47 238.66 1172.66 238.66 1169.82 285.67"/><path class="cls-2" d="M1190.47,263.06v22.61s-7.47.7-10,.71c-2.68,0-10.68-.71-10.68-.71l.92-15.31Q1180.67,266.86,1190.47,263.06Z"/><path class="cls-3" d="M1147,265.72c3.61-23.08,8.16-37.79,11.76-60.87a12.53,12.53,0,0,0,0-5.55,24.47,24.47,0,0,0,8.24-3.6c-2.83-1.94-5.88-4.21-6.56-7.58s3-7.34,5.93-5.56c2.19-1.78-1.11-4.68-2.91-6.84-2.94-3.55-1.46-8.82,0-13.21,12-37.63,6.86-79.27,20-116.5a873.13,873.13,0,0,0,29.92,115.19L1224.66,255Z"/><path class="cls-4" d="M1173.22,102.38c1.82-19.19,3.89-38.3,10.29-56.37q4.77,25.32,11,50.34Q1183.87,99.37,1173.22,102.38Z"/><path class="cls-4" d="M1205.31,146.33c-13.27,3.41-26.6,6.57-40,9.65q1.1-4.11,2-8.26c9.3-2.67,18.61-5.27,27.9-7.91l10.46-3c.87,2.9,1.77,5.8,2.67,8.69Z"/><path class="cls-4" d="M1159.05,200.41c19.19-4.39,38.38-8.79,57.43-13.69l8.18,68.32L1147,265.72c3.61-23.08,8.16-37.79,11.76-60.87A16.22,16.22,0,0,0,1159.05,200.41Z"/><g class="cls-5"><path class="cls-7" d="M1180.8,233.05c4.23-20.47,8.37-41,11.89-61.58,3.07-18,5.71-36.13,7.32-54.29q6.13,22.17,13.42,44L1224.66,255l-50.15,6.9C1176.74,252.34,1178.81,242.7,1180.8,233.05Z"/></g><polygon class="cls-1" points="1211.13 288.52 1231.79 288.52 1231.79 241.5 1213.27 241.5 1211.13 288.52"/><path class="cls-2" d="M1214.16,270a116.2,116.2,0,0,0,17.63-6.66v25.15s-8,1.44-10.69,1.42a94.55,94.55,0,0,1-10-1.42l.82-18A17.05,17.05,0,0,0,1214.16,270Z"/><path class="cls-3" d="M1258.88,247.91,1232.4,125.23a398.37,398.37,0,0,0-25.25,58,13.65,13.65,0,0,0-1.09,6.18c.74,5.51,7.74,9,7.48,14.55l-13-5.72,4.81,10.32-4.57-.08-11.5,58.18"/><path class="cls-4" d="M1224.35,141.22q2.73-5.72,5.63-11.35l3.22-.93q1,4.58,2,9.16C1231.57,139.16,1228,140.21,1224.35,141.22Z"/><path class="cls-4" d="M1205.32,208.52q-2.41-5.16-4.81-10.32l13,5.72c.26-5.56-6.74-9-7.48-14.55v0c12.72-3.15,25.4-6.49,38-10.16q7.41,34.37,14.83,68.72l-69.63,18.71q5.74-29.1,11.5-58.18Z"/><polygon class="cls-1" points="1044.06 387.67 1061.16 387.67 1061.16 340.66 1046.91 340.66 1044.06 387.67"/><path class="cls-2" d="M1060.31,377.84l.85-.29v10.12s-6.4.71-8.55.71-8.55-.71-8.55-.71l.28-4.57Z"/><path class="cls-3" d="M1078,252.4l-12.85-54.87c-5.14,4.36-8.44,10.47-11.43,16.51a332.16,332.16,0,0,0-27.54,79.69,67.34,67.34,0,0,1,23.46,18.45q-8.89-.78-17.82-.72a46.75,46.75,0,0,0,7.57,13.63,14.67,14.67,0,0,1-9.55-1.53,209.37,209.37,0,0,0-9.55,50.75l36.33-10.89L1095.43,347,1078,252.4"/><path class="cls-4" d="M1054,213.47c2.92-5.85,6.17-11.71,11.15-15.94q1.39,5.91,2.77,11.83Q1060.93,211.39,1054,213.47Z"/><path class="cls-4" d="M1032.54,268.22c.44-1.52.89-3,1.36-4.55l10.85-3.51c10.84-3.51,21.76-6.75,32.72-9.9.17.71.34,1.42.5,2.14l1,5.22C1063.48,261.19,1048,264.65,1032.54,268.22Z"/><path class="cls-4" d="M1039.36,325.09a46.48,46.48,0,0,1-7.54-13.55l.34-.08c5.82,0,11.65.21,17.45.72-1.12-1.39-2.31-2.73-3.54-4,13.48-3.15,27-6.2,40.48-9.31l8.88,48.11-38.84,16.46-36.33,10.89a209.37,209.37,0,0,1,9.55-50.75A14.67,14.67,0,0,0,1039.36,325.09Z"/><g class="cls-5"><path class="cls-6" d="M1044.94,311.83c1.56.1,3.11.22,4.67.35q-1.8-2.22-3.78-4.28c7.86-35.07,13.6-70.6,15.39-106.34a30.93,30.93,0,0,1,3.9-4Q1071.56,225,1078,252.4L1095.43,347l-38.84,16.46-27.13,8.13C1035.07,351.83,1040.34,331.91,1044.94,311.83Z"/></g><polygon class="cls-1" points="1103.82 387.67 1124.47 387.67 1124.47 340.66 1106.66 340.66 1103.82 387.67"/><path class="cls-2" d="M1124.47,365.06v22.61s-7.47.7-10,.71c-2.68,0-10.68-.71-10.68-.71l.92-15.31Q1114.67,368.86,1124.47,365.06Z"/><path class="cls-3" d="M1081,367.72c3.61-23.08,8.16-37.79,11.76-60.87a12.53,12.53,0,0,0,0-5.55,24.47,24.47,0,0,0,8.24-3.6c-2.83-1.94-5.88-4.21-6.56-7.58s3-7.34,5.93-5.56c2.19-1.78-1.11-4.68-2.91-6.84-2.94-3.55-1.46-8.82,0-13.21,12-37.63,6.86-79.27,20-116.5a873.13,873.13,0,0,0,29.92,115.19L1158.66,357Z"/><path class="cls-4" d="M1107.22,204.38c1.82-19.19,3.89-38.3,10.29-56.37q4.77,25.32,11,50.34Q1117.87,201.37,1107.22,204.38Z"/><path class="cls-4" d="M1139.31,248.33c-13.27,3.41-26.6,6.57-40,9.65q1.1-4.11,2-8.26c9.3-2.67,18.61-5.27,27.9-7.91l10.46-3c.87,2.9,1.77,5.8,2.67,8.69Z"/><path class="cls-4" d="M1093.05,302.41c19.19-4.39,38.38-8.79,57.43-13.69l8.18,68.32L1081,367.72c3.61-23.08,8.16-37.79,11.76-60.87A16.22,16.22,0,0,0,1093.05,302.41Z"/><g class="cls-5"><path class="cls-7" d="M1114.8,335.05c4.23-20.47,8.37-41,11.89-61.58,3.07-18,5.71-36.13,7.32-54.29q6.13,22.17,13.42,44L1158.66,357l-50.15,6.9C1110.74,354.34,1112.81,344.7,1114.8,335.05Z"/></g><polygon class="cls-1" points="1145.13 390.52 1165.79 390.52 1165.79 343.5 1147.27 343.5 1145.13 390.52"/><path class="cls-2" d="M1148.16,372a116.2,116.2,0,0,0,17.63-6.66v25.15s-8,1.44-10.69,1.42a94.55,94.55,0,0,1-10-1.42l.82-18A17.05,17.05,0,0,0,1148.16,372Z"/><path class="cls-3" d="M1192.88,349.91,1166.4,227.23a398.37,398.37,0,0,0-25.25,58,13.65,13.65,0,0,0-1.09,6.18c.74,5.51,7.74,9,7.48,14.55l-13-5.72,4.81,10.32-4.57-.08-11.5,58.18"/><path class="cls-4" d="M1158.35,243.22q2.73-5.72,5.63-11.35l3.22-.93q1,4.58,2,9.16C1165.57,241.16,1162,242.21,1158.35,243.22Z"/><path class="cls-4" d="M1139.32,310.52q-2.41-5.16-4.81-10.32l13,5.72c.26-5.56-6.74-9-7.48-14.55v0c12.72-3.15,25.4-6.49,38-10.16q7.41,34.37,14.83,68.72l-69.63,18.71q5.74-29.1,11.5-58.18Z"/><polygon class="cls-1" points="1221.38 273.07 1240.86 273.07 1240.86 219.5 1224.63 219.5 1221.38 273.07"/><path class="cls-2" d="M1239.89,261.87l1-.32v11.52s-7.29.81-9.74.81-9.74-.81-9.74-.81l.32-5.2Q1230.79,264.87,1239.89,261.87Z"/><path class="cls-3" d="M1260,118.94l-14.64-62.51c-5.86,5-9.62,11.92-13,18.81A378.58,378.58,0,0,0,1201,166a76.75,76.75,0,0,1,26.73,21q-10.12-.88-20.31-.83a53.12,53.12,0,0,0,8.63,15.54,16.71,16.71,0,0,1-10.88-1.74,238.22,238.22,0,0,0-10.88,57.82l41.4-12.41,44.26-18.76L1260,118.94"/><path class="cls-4" d="M1232.67,74.58c3.33-6.66,7-13.34,12.71-18.15l3.15,13.47Q1240.6,72.21,1232.67,74.58Z"/><path class="cls-4" d="M1208.25,137c.51-1.73,1-3.46,1.55-5.18l12.36-4c12.35-4,24.8-7.7,37.29-11.29l.57,2.44,1.1,6C1243.5,129,1225.86,132.9,1208.25,137Z"/><path class="cls-4" d="M1216,201.77a53.2,53.2,0,0,1-8.59-15.44l.39-.09c6.63,0,13.27.24,19.88.82-1.28-1.58-2.63-3.11-4-4.58,15.36-3.59,30.75-7.06,46.12-10.61l10.13,54.81-44.26,18.76-41.4,12.41A238.22,238.22,0,0,1,1205.14,200,16.71,16.71,0,0,0,1216,201.77Z"/><g class="cls-5"><path class="cls-6" d="M1222.38,186.66c1.77.11,3.55.25,5.32.4-1.36-1.69-2.8-3.31-4.3-4.88,8.95-40,15.49-80.44,17.53-121.16a33.85,33.85,0,0,1,4.45-4.59L1260,118.94l19.9,107.74-44.26,18.76-30.91,9.27C1211.14,232.24,1217.14,209.54,1222.38,186.66Z"/></g><polygon class="cls-1" points="1264.4 273.07 1287.93 273.07 1287.93 219.5 1267.64 219.5 1264.4 273.07"/><path class="cls-2" d="M1287.94,247.31v25.76s-8.52.81-11.37.81c-3,0-12.17-.81-12.17-.81l1.06-17.44Q1276.76,251.65,1287.94,247.31Z"/><path class="cls-3" d="M1238.43,250.35c4.1-26.3,9.29-43.06,13.4-69.36a14.39,14.39,0,0,0,0-6.33,27.89,27.89,0,0,0,9.38-4.1c-3.22-2.21-6.7-4.8-7.47-8.63s3.42-8.37,6.76-6.35c2.49-2-1.27-5.32-3.32-7.79-3.35-4-1.66-10-.06-15C1270.86,89.87,1265,42.42,1280,0a994.94,994.94,0,0,0,34.09,131.25l12.8,106.92Z"/><path class="cls-4" d="M1268.27,64.23c2.08-21.86,4.44-43.64,11.73-64.23q5.43,28.86,12.56,57.36Q1280.41,60.8,1268.27,64.23Z"/><path class="cls-4" d="M1304.84,114.3c-15.12,3.89-30.3,7.49-45.51,11,.83-3.12,1.58-6.25,2.25-9.41,10.59-3,21.2-6,31.79-9l11.91-3.38q1.5,4.95,3,9.9Z"/><path class="cls-4" d="M1252.13,175.92c21.86-5,43.73-10,65.44-15.59l9.32,77.84-88.46,12.18c4.1-26.3,9.29-43.06,13.4-69.36A18.44,18.44,0,0,0,1252.13,175.92Z"/><g class="cls-5"><path class="cls-7" d="M1276.91,213.12c4.82-23.33,9.54-46.69,13.55-70.16,3.5-20.53,6.5-41.17,8.34-61.87q7,25.27,15.29,50.16l12.8,106.92L1269.74,246C1272.29,235.1,1274.64,224.11,1276.91,213.12Z"/></g><polygon class="cls-1" points="1311.47 276.32 1335.01 276.32 1335.01 222.75 1313.91 222.75 1311.47 276.32"/><path class="cls-2" d="M1314.93,255.26a131.65,131.65,0,0,0,20.08-7.6v28.66s-9.1,1.64-12.17,1.62c-2.87,0-11.37-1.62-11.37-1.62l.94-20.53A22.14,22.14,0,0,0,1314.93,255.26Z"/><path class="cls-3" d="M1365.88,230.05,1335.7,90.27a456.07,456.07,0,0,0-28.77,66c-.78,2.28-1.56,4.66-1.24,7,.84,6.29,8.83,10.25,8.52,16.58l-14.84-6.51,5.48,11.76-5.2-.1-13.11,66.29"/><path class="cls-4" d="M1326.54,108.48q3.11-6.51,6.41-12.93l3.66-1.06q1.14,5.22,2.26,10.44Q1332.72,106.75,1326.54,108.48Z"/><path class="cls-4" d="M1304.85,185.17l-5.48-11.76,14.84,6.51c.31-6.33-7.68-10.29-8.52-16.58h0c14.5-3.6,28.94-7.4,43.29-11.58q8.44,39.15,16.9,78.3l-79.34,21.31,13.11-66.29Z"/><polygon class="cls-1" points="1296.38 223.07 1315.86 223.07 1315.86 169.5 1299.63 169.5 1296.38 223.07"/><path class="cls-2" d="M1314.89,211.87l1-.32v11.52s-7.29.81-9.74.81-9.74-.81-9.74-.81l.32-5.2Q1305.79,214.87,1314.89,211.87Z"/><path class="cls-8" d="M1335,68.94,1320.38,6.43c-5.86,5-9.62,11.92-13,18.81A378.58,378.58,0,0,0,1276,116a76.75,76.75,0,0,1,26.73,21q-10.12-.88-20.31-.83a53.12,53.12,0,0,0,8.63,15.54,16.71,16.71,0,0,1-10.88-1.74,238.22,238.22,0,0,0-10.88,57.82l41.4-12.41,44.26-18.76L1335,68.94"/><path class="cls-4" d="M1307.67,24.58c3.33-6.66,7-13.34,12.71-18.15l3.15,13.47Q1315.6,22.21,1307.67,24.58Z"/><path class="cls-4" d="M1283.25,87c.51-1.73,1-3.46,1.55-5.18l12.36-4c12.35-4,24.8-7.7,37.29-11.29l.57,2.44,1.1,6C1318.5,79,1300.86,82.9,1283.25,87Z"/><path class="cls-4" d="M1291,151.77a53.2,53.2,0,0,1-8.59-15.44l.39-.09c6.63,0,13.27.24,19.88.82-1.28-1.58-2.63-3.11-4-4.58,15.36-3.59,30.75-7.06,46.12-10.61l10.13,54.81-44.26,18.76-41.4,12.41A238.22,238.22,0,0,1,1280.14,150,16.71,16.71,0,0,0,1291,151.77Z"/><g class="cls-5"><path class="cls-6" d="M1297.38,136.66c1.77.11,3.55.25,5.32.4-1.36-1.69-2.8-3.31-4.3-4.88,8.95-39.95,15.49-80.44,17.53-121.16a33.85,33.85,0,0,1,4.45-4.59L1335,68.94l19.9,107.74-44.26,18.76-30.91,9.27C1286.14,182.24,1292.14,159.54,1297.38,136.66Z"/></g><path class="cls-9" d="M1156.88,11.9s-28,91-18,159l10,68s161-43,206-67c0,0-37-151-32-165,0,0-13.5,10.5-26.5,45.5,0,0-3,18-16-52,0,0-12.73,12.08-20.36,118.54L1246.38,56.4s-31,38-38,81c0,0-14-34-25-91a198.41,198.41,0,0,0-9,42S1164.38,46.4,1156.88,11.9Z"/><path class="cls-9" d="M1156.88,11.9s-16.54,53.76-19.65,109.51c-.57,10.15-16.35,34.49-16.35,43.49,0,6.52-3.91-23.22-3-17,0,0-4,3-9,41-2.58,19.61-7,59-7,63l47-13s161-43,206-67c0,0-37-151-32-165,0,0-13.5,10.5-26.5,45.5,0,0-3,18-16-52,0,0-12.73,12.08-20.36,118.54L1246.38,56.4s-31,38-38,81c0,0-14-34-25-91a198.41,198.41,0,0,0-9,42S1164.38,46.4,1156.88,11.9Z"/><path class="cls-10" d="M1064.88,197.9,1078.94,256l-45.69,9.79S1050.88,209.9,1064.88,197.9Z"/><path class="cls-11" d="M328.45,360.1c258.2-69.66,513.68-69.89,678.39-99.62h0q4.38-.78,8.69-1.58,18.75-3.42,36.5-6.87,29.51-5.73,56.21-11.41,8.19-1.74,16.11-3.47,14.15-3.07,27.42-6.1,16.08-3.64,30.9-7.2,9-2.16,17.54-4.26,26.82-6.62,49-12.58c35.63-9.56,62-17.57,78.71-22.93V521.9H0S228.3,387.12,328.45,360.1Z"/><path class="cls-12" d="M1327.88,338.18v40.25l-27,8.47-56-4.3-31.5-.27-42,1.61-28-1.61-31.67.83a40.13,40.13,0,0,0-4.41-.5l-2.07-.5c-1.42-.34-6.49-1.56-6.62-1.56h0l-.2-.05c-.29-.07-1.91-.64-3-1-.28-.17-.56-.34-.83-.52s-.79-.46-1.2-.67c-.59-1-.05-2,2.68-2.66.41-.1.88-.2,1.4-.29a56.89,56.89,0,0,1,7.8-.67l14-.07,19.13-.1,12.85-9.51,1.58-1.17,29.14-8.59,1.13-.33,31.52-3.67,7.54-.88,22.52-2.62Z"/><polygon class="cls-1" points="1093.39 375.45 1119.34 375.45 1119.34 304.1 1097.71 304.1 1093.39 375.45"/><path class="cls-2" d="M1118.05,360.53l1.29-.43v15.36s-9.72,1.08-13,1.08-13-1.08-13-1.08l.42-6.94C1101.89,365.85,1110,363.21,1118.05,360.53Z"/><path class="cls-3" d="M1144.86,170.13l-19.51-83.27c-7.8,6.62-12.81,15.88-17.35,25-19,38.33-37.4,99.11-46.12,141,13-4,17-6,23-3-8,0-18,8.94-27,9,2.64,7.48,23.42,15.38,28.37,21.57-4.91.89-24-.19-28.37-2.57-2,24,1,51.14-.62,77.28l55.15-16.53,58.95-25-26.5-143.53Z"/><path class="cls-4" d="M1108.43,111c4.43-8.88,9.37-17.77,16.92-24.18q2.12,9,4.21,17.94Q1119,107.88,1108.43,111Z"/><path class="cls-4" d="M1075.9,194.15c.67-2.3,1.36-4.61,2.06-6.9l16.47-5.34c16.45-5.32,33-10.24,49.67-15,.25,1.09.5,2.17.76,3.25l1.46,7.92C1122.86,183.48,1099.36,188.72,1075.9,194.15Z"/><path class="cls-4" d="M1086.25,280.47c-4.93-6.15-25.73-14.14-28.37-21.57.17,0,21.83,0,22,0,8,1,13.12,1.2,21.93,2-1.71-2.11-3.5-4.14-5.37-6.11,20.46-4.78,41-9.4,61.44-14.13l13.48,73-58.95,25-55.15,16.53c1.63-26.14-1.38-55.28.62-77.28C1062.27,280.28,1081.34,281.36,1086.25,280.47Z"/><g class="cls-5"><path class="cls-6" d="M1094.72,260.35c2.36.15,4.73.32,7.09.53q-2.73-3.37-5.74-6.5C1108,201.15,1116.72,147.22,1119.43,93a46.81,46.81,0,0,1,5.92-6.11q9.76,41.63,19.51,83.27l26.5,143.53-58.95,25L1071.23,351C1079.74,321.06,1087.74,290.82,1094.72,260.35Z"/></g><polygon class="cls-1" points="1150.69 375.45 1182.05 375.45 1182.05 304.1 1155.02 304.1 1150.69 375.45"/><path class="cls-2" d="M1182.05,341.14v34.32s-11.35,1.07-15.14,1.08c-4.06,0-16.22-1.08-16.22-1.08l1.41-23.23Q1167.16,346.92,1182.05,341.14Z"/><path class="cls-3" d="M1116.09,345.18c5.48-35,12.39-57.36,17.86-92.39.43-2.8.87-5.72,0-8.43a37.16,37.16,0,0,0,12.5-5.46c-4.29-3-8.92-6.4-10-11.5s4.55-11.15,9-8.45c3.32-2.7-1.69-7.1-4.42-10.38-4.46-5.39-2.21-13.39-.08-20.06,18.25-57.11,10.42-120.31,30.43-176.82a1326,1326,0,0,0,45.41,174.84l17,142.43Z"/><path class="cls-3" d="M1116.09,345.18c5.48-35,12.39-57.36,17.86-92.39.43-2.8.87-5.72,0-8.43a37.16,37.16,0,0,0,12.5-5.46c-4.29-3-8.92-6.4-10-11.5s4.55-11.15,9-8.45c3.32-2.7-1.69-7.1-4.42-10.38-4.46-5.39-2.21-13.39-.08-20.06,18.25-57.11,10.42-120.31,30.43-176.82a1326,1326,0,0,0,45.41,174.84l17,142.43Z"/><path class="cls-4" d="M1155.86,97.25c2.76-29.12,5.91-58.13,15.62-85.56q7.23,38.45,16.72,76.41Q1172,92.68,1155.86,97.25Z"/><path class="cls-4" d="M1204.57,164c-20.14,5.18-40.37,10-60.63,14.64q1.65-6.22,3-12.53c14.1-4,28.24-8,42.34-12l15.87-4.51q2,6.6,4.06,13.19Z"/><path class="cls-4" d="M1134.34,246c29.14-6.66,58.26-13.33,87.19-20.77L1233.94,329l-117.85,16.22c5.48-35,12.39-57.36,17.86-92.39A24,24,0,0,0,1134.34,246Z"/><g class="cls-5"><path class="cls-7" d="M1167.37,295.59c6.42-31.07,12.7-62.19,18-93.47,4.66-27.34,8.66-54.84,11.11-82.41q9.3,33.66,20.37,66.82l17,142.43-76.13,10.48C1161.2,324.87,1164.34,310.24,1167.37,295.59Z"/></g><polygon class="cls-1" points="1213.4 379.78 1244.76 379.78 1244.76 308.42 1216.64 308.42 1213.4 379.78"/><path class="cls-2" d="M1218,351.72a176.46,176.46,0,0,0,26.76-10.11v38.17s-12.13,2.18-16.22,2.16c-3.82,0-15.14-2.16-15.14-2.16l1.24-27.34A27.52,27.52,0,0,0,1218,351.72Z"/><path class="cls-3" d="M1285.88,318.14l-40.2-186.2a605.83,605.83,0,0,0-38.32,88c-1,3-2.08,6.2-1.66,9.37,1.12,8.37,11.76,13.66,11.35,22.09l-19.77-8.68,7.3,15.67-6.93-.13-17.46,88.31Z"/><path class="cls-4" d="M1233.47,156.2q4.14-8.67,8.54-17.22l4.88-1.42q1.5,6.94,3,13.9Q1241.7,153.89,1233.47,156.2Z"/><path class="cls-4" d="M1204.58,258.36q-3.64-7.85-7.3-15.67l19.77,8.68c.41-8.43-10.23-13.72-11.35-22.09v0c19.32-4.79,38.56-9.85,57.66-15.42q11.27,52.14,22.52,104.3l-105.69,28.4,17.46-88.31Z"/></g></g></svg>