<svg xmlns="http://www.w3.org/2000/svg" xmlns:xlink="http://www.w3.org/1999/xlink" viewBox="0 0 62.89 54.79"><defs><style>.cls-1{isolation:isolate;}.cls-2,.cls-3{fill:#0dc0dc;}.cls-2{opacity:0.1;}.cls-4,.cls-5,.cls-8{fill:#007297;}.cls-4{opacity:0.3;}.cls-6{fill:#ccc;}.cls-7{fill:#fff;}.cls-8{opacity:0.2;}.cls-9{mix-blend-mode:multiply;fill:url(#linear-gradient);}.cls-10{fill:#11aaba;}.cls-11{fill:#8dc2c9;}.cls-12{fill:#85b6ba;}.cls-13{fill:none;stroke:#fdbd3e;stroke-linecap:round;stroke-linejoin:round;}</style><linearGradient id="linear-gradient" x1="34.8" y1="20.15" x2="47.84" y2="10.6" gradientTransform="translate(10.59 -15.8) rotate(25.16)" gradientUnits="userSpaceOnUse"><stop offset="0" stop-color="#002469"/><stop offset="0.11" stop-color="#003875" stop-opacity="0.74"/><stop offset="0.24" stop-color="#004d81" stop-opacity="0.47"/><stop offset="0.39" stop-color="#005d8b" stop-opacity="0.26"/><stop offset="0.55" stop-color="#006992" stop-opacity="0.11"/><stop offset="0.74" stop-color="#007096" stop-opacity="0.03"/><stop offset="1" stop-color="#007297" stop-opacity="0"/></linearGradient></defs><title>icon-megaphone</title><g class="cls-1"><g id="Layer_2" data-name="Layer 2"><g id="Layer_2-2" data-name="Layer 2"><path class="cls-2" d="M13.64,3.29C29.71-3.36,59.12,24.41,54.46,39.34c-4,12.74-34.83,22.94-48.38,8.11C-5.84,34.4,1.43,8.34,13.64,3.29Z"/><path class="cls-3" d="M12.43,23.77,34.06,1.66,47.36,30,16,31.66a4.63,4.63,0,0,1-4.52-2.8h0A4.64,4.64,0,0,1,12.43,23.77Z"/><path class="cls-4" d="M40.59,15.56,36,17.35l-1.14.44A49.2,49.2,0,0,1,29,22.33c-4.56,3-9.9,4.5-15.1,5.93a12.38,12.38,0,0,1-2.43.42,1.27,1.27,0,0,0,.06.18A4.63,4.63,0,0,0,16,31.66L47.36,30Z"/><ellipse class="cls-5" cx="40.71" cy="15.82" rx="6.75" ry="15.64" transform="translate(-2.86 18.81) rotate(-25.16)"/><path class="cls-6" d="M48,11.33a1.7,1.7,0,0,0-2.35-.65h0L33.42,15.89c.35.91.74,1.86,1.17,2.79s.92,1.84,1.39,2.69l11.26-7.48.4-.27a1.72,1.72,0,0,0,.55-1.92Z"/><path class="cls-7" d="M48,11.33a1.7,1.7,0,0,0-2.35-.65h0L33.42,15.89c.35.91.74,1.86,1.17,2.79s.92,1.84,1.39,2.69l11.26-7.48.4-.27a1.72,1.72,0,0,0,.55-1.92Z"/><path class="cls-8" d="M34.6,18.69A28.13,28.13,0,0,0,36,21.37l11.26-7.48.4-.27a1.72,1.72,0,0,0,.55-1.92"/><ellipse class="cls-9" cx="40.71" cy="15.82" rx="6.75" ry="15.64" transform="translate(-2.86 18.81) rotate(-25.16)"/><path class="cls-8" d="M47.81,13.48a1.8,1.8,0,0,0,.38-1.78L48,11.33a1.56,1.56,0,0,0-1.57-.82A10.59,10.59,0,0,1,47.81,13.48Z"/><path class="cls-10" d="M19.48,32.4l6.3,11.06a1.77,1.77,0,0,0,1.33.9l2.74.34.66-.28L28.42,32.36l-2.32-.14Z"/><path class="cls-11" d="M28.52,32.87,30.44,44l-.59.27-.69-1.06a1.07,1.07,0,0,1-.09-.27L26.84,32.2Z"/><path class="cls-12" d="M30.21,42.66,30.44,44l-.59.27-.69-1.06a1.07,1.07,0,0,1-.09-.27"/><path class="cls-5" d="M26.86,33.75l.41,0a2.62,2.62,0,0,0,2.9-2.9h0l-13.66.74,1.07.84Q22.22,33.19,26.86,33.75Z"/><line class="cls-13" x1="53.69" y1="9.51" x2="62.39" y2="5.43"/><line class="cls-13" x1="54.72" y1="13.52" x2="62.23" y2="13.52"/><line class="cls-13" x1="51.62" y1="6.45" x2="56.2" y2="0.5"/></g></g></g></svg>