<svg xmlns="http://www.w3.org/2000/svg" viewBox="0 0 513.38 424.62"><defs><style>.cls-1{fill:#007297;}</style></defs><title>Asset 1</title><g id="Layer_2" data-name="Layer 2"><g id="Layer_16" data-name="Layer 16"><path class="cls-1" d="M0,398.76a1.26,1.26,0,0,0,.22.79,1.09,1.09,0,0,0,.26.8A23.55,23.55,0,0,0,4.22,404c.33.25.68.48,1,.71s.59.39.87.59l.31.24c.17.14.33.26.49.38,0,.94,0,1.88.09,2.8s.12,2,.08,3l0,.85a18,18,0,0,0,.08,3.74A2.58,2.58,0,0,0,7,418.58a2.1,2.1,0,0,0,1.81,1.19c1.42.13,2.87.38,4.27.62,1.62.28,3.29.57,5,.69,1.1.08,2.18.09,3.09.09h2.35a35.34,35.34,0,0,1,4.27.2,33.29,33.29,0,0,0,8.31,0l.58-.08a.81.81,0,0,0,.53-.31.93.93,0,0,0,.14-.26,1,1,0,0,0,.38-.62,4.87,4.87,0,0,0-.52-2.55L37,417.1c-.09-.25-.17-.52-.24-.78a11,11,0,0,0-.5-1.44,1,1,0,0,0-.75-.58,20.67,20.67,0,0,0-3.55-3.42l-.68-.56c-1.58-1.31-3.12-2.65-4.66-4l-.82-.71c-1.06-.91-2.11-1.81-3.18-2.7-.84-3.14-1.7-6.37-2.26-9.64l-.13-.7c-.14-.8-.29-1.61-.44-2.42.11-.64.23-1.27.35-1.89a101.15,101.15,0,0,1,3.52-13.72c.79-2.31,1.57-4.64,2.34-7,2.27-6.83,4.62-13.9,7.54-20.6,2.65-6.07,5.72-12.07,8.69-17.88,1.35-2.65,2.7-5.29,4-8,1.46-3,2.84-5.91,4-8.43L51.3,312c.93-.59,1.87-1.18,2.8-1.74,1.59-1,3.21-1.88,4.82-2.79,2.16-1.23,4.39-2.49,6.54-3.85,2.51-1.59,5-3.12,7.58-4.66,4.78-2.9,9.73-5.89,14.39-9.19,1.42-1,2.85-2,4.28-3,2.08-1.42,4.24-2.9,6.32-4.42,1.57-1.15,3.11-2.35,4.64-3.55,1.78-1.39,3.62-2.83,5.48-4.16,1.67-1.19,3.13-2.25,4.52-3.32a30.85,30.85,0,0,1-1.45,5.75c-.16.5-.32,1-.48,1.51a38.62,38.62,0,0,0-1.21,6.31c-.23,1.8-.61,3.66-1,5.46l-.08.4c-.36.54-.71,1.09-1.06,1.63-.79,1.28-1.62,2.55-2.45,3.82a87.83,87.83,0,0,0-5.13,8.54,1.13,1.13,0,0,0-1.32.71,7.74,7.74,0,0,0,.2,4.34,14.21,14.21,0,0,1,.38,2c.05.61.08,1.23.1,1.86a18,18,0,0,0,.5,4.24,1.09,1.09,0,0,0,.91.8c.16.3.33.59.5.88.28.47.55.94.77,1.42.86,1.9,1.76,3.76,2.67,5.52.47.9,1,1.8,1.44,2.69a47.86,47.86,0,0,1,3.81,8.16,76.25,76.25,0,0,0,3.78,8.9c.55,1.16,1.1,2.31,1.62,3.47,1,2.26,1.92,4.65,2.8,7,.66,1.75,1.33,3.5,2,5.22,5.71,13.72,10.32,29.64,14.53,50.1a1.1,1.1,0,0,0,1.14.87l7.43,8.17a5,5,0,0,0,.82.37l22.25.25a.47.47,0,0,0,.23.13l1,.22a.61.61,0,0,0,.48-.08.63.63,0,0,0,.28-.4l1-4.52a.63.63,0,0,0-.1-.5v0a.63.63,0,0,0-.15-.46l-15.09-17.69a.63.63,0,0,0,0-.36L126,335.2l-1-23.52,33.63-53.8,5.79,1.84c3.87,1.22,7.88,2.48,11.79,3.82l1,.33c2.92,1,5.94,2,9,2.93l.88.25a30.93,30.93,0,0,1,4.24,1.43,6.41,6.41,0,0,0,.89.31l0,.11a1,1,0,0,0,1,.68l.19,0a18.42,18.42,0,0,1,2.39-.21,21.27,21.27,0,0,0,2.37-.2l.57-.09c1.52-.25,3-.5,4.57-.69,1.86-.23,3.75-.54,5.57-.84,1.12-.18,2.23-.36,3.35-.53,7.19-1.07,13.77-2,20.09-2.84,4.87-.65,9.75-1.23,14.63-1.81,7.48-.89,15.21-1.81,22.79-3a.86.86,0,0,0,.61.38,2.64,2.64,0,0,0,.46,0c1.35,0,2.72-1,3.82-1.74h0c-.31.83-.63,1.7-.93,2.57A166.69,166.69,0,0,0,268.32,282c-.45,2.23-.9,4.45-1.37,6.66-2.14,10-4.21,20.1-6,28.63-.2,1-.39,1.9-.58,2.86-.73,3.64-1.48,7.41-2.55,11l-.53,1.79c-1,3.31-2,6.73-2.93,10.13a4.32,4.32,0,0,0-.82.62l-.32.27-.42.33a5.34,5.34,0,0,1-.85.6l-.42.23c-.29.16-.62.33-.92.52a1.17,1.17,0,0,0-1.12,1,1.92,1.92,0,0,0-.2,1.36h0a83,83,0,0,1-2.39,10c-.41,1.46-.82,2.91-1.2,4.36-.55,2.16-1.06,4.34-1.56,6.51-.68,2.94-1.39,6-2.21,8.93-.41,1.45-.79,2.91-1.17,4.36-.87,3.29-1.76,6.7-2.92,10-.19.55-.37,1.13-.54,1.73-.61,2-1.23,4.13-2.78,5.31a6.07,6.07,0,0,0-1.47,1.88,5.37,5.37,0,0,1-1.09,1.47,1.41,1.41,0,0,0-.53,1.46,1.71,1.71,0,0,0,.94,1.12,1.6,1.6,0,0,0,1.38,1,9,9,0,0,1,3.48,1.49,16.64,16.64,0,0,0,2.37,1.25l1.21.44c2,.7,3.42,1.21,4.12,3.29a39.49,39.49,0,0,1,1.56,5.73,12.51,12.51,0,0,0,.66,2.1,7.36,7.36,0,0,1,.67,2.63,1.51,1.51,0,0,0,.43,1.1,1.55,1.55,0,0,0,1.11.49h0a53.51,53.51,0,0,0,8.33-1l1.39-.24h.05l1,0a39.64,39.64,0,0,0,5.92-.6c.9-.14,1.79-.27,2.68-.38s2-.2,3-.29c1.46-.12,3-.25,4.45-.48a1.12,1.12,0,0,0,1.29-.58,1.17,1.17,0,0,0-.14-1.24,32.32,32.32,0,0,0-4.2-4.2c-.8-.71-1.61-1.42-2.35-2.16-1.77-1.75-3.61-3.66-5.61-5.83-.52-.56-1-1.14-1.56-1.72-1.15-1.28-2.33-2.59-3.58-3.8-.33-1.79-.81-3.55-1.27-5.25-.18-.65-.35-1.28-.5-1.89-.31-1.18-.68-2.33-1-3.32.18-1.32.32-2.65.47-4l.17-1.5a96.08,96.08,0,0,1,2.13-11l.4-1.7c.31-1.32.67-2.65,1-4a57.27,57.27,0,0,0,1.78-8.12,23.37,23.37,0,0,1,1.46-6.33c0-.06.06-.14.09-.22a5.4,5.4,0,0,0,.54-.4c.4-.32.82-.6,1.26-.89l.45-.31a6.18,6.18,0,0,0,1.57-1.36,1.41,1.41,0,0,0,.35-.4,63.59,63.59,0,0,0,3.84-9.13c.49-1.35,1-2.69,1.49-4,.65-1.64,1.32-3.28,2-4.91,1.21-3,2.45-6,3.59-9.08,1.37-3.7,2.68-7.4,4-11.11,2.22-6.26,4.51-12.74,7-19,.43-1.05.87-2.11,1.31-3.17a110.5,110.5,0,0,0,4.43-11.95,99.46,99.46,0,0,1,4.27-11.33c.51-1.2,1-2.4,1.51-3.59,1-2.43,2.12-4.73,3.11-6.67,1.88-1.1,3.86-2.3,5.72-3.63.64-.45,1.3-1,2.09-1.59,5.42,6.36,11.15,12.64,16.7,18.72,4.95,5.43,10.07,11,14.94,16.67,3,3.51,6.05,7.13,9,10.63s6.14,7.34,9.27,11c3.31,3.83,6.28,7.36,9.1,10.81l1.38,1.68c1.61,3,3.32,6.11,5,9.21q2.23,4.07,4.45,8.14c3.34,6.16,6.21,11.72,8.79,17L393,358.3c1,2,2,4.1,2.92,6.19.38.92.82,1.83,1.28,2.76.25,1.7.42,3.3.51,4.89a18.84,18.84,0,0,0,.47,2.84c.14.66.29,1.31.37,2,.26,2,.43,4,.53,6.2a1.62,1.62,0,0,0-1.2,1.44,3.71,3.71,0,0,0,1.34,2.68,1.62,1.62,0,0,0,1,1.1c.91,1.09,1.7,2.2,2.55,3.37.46.63.92,1.27,1.39,1.91s.75,1,1.13,1.47a41.09,41.09,0,0,1,2.87,4c.53.87,1,1.78,1.48,2.69s1.12,2.14,1.77,3.15c.43.67.81,1.38,1.19,2.09,1.23,2.29,2.51,4.66,5.3,5.7a13.57,13.57,0,0,1,2.78,1.59,17.16,17.16,0,0,0,2.57,1.53,30.19,30.19,0,0,0,3.65,1.27,1.17,1.17,0,0,0,1,.55,1.39,1.39,0,0,0,.76.7,1.63,1.63,0,0,0,2.3-1,55.77,55.77,0,0,0,1.58-10.67,1.6,1.6,0,0,0-.46-1.14,1.67,1.67,0,0,0-1.1-.47,5.32,5.32,0,0,1-1.88-.42c-.3-.11-.61-.22-.92-.31a19.66,19.66,0,0,0-.51-6.17,1.75,1.75,0,0,0-.15-1.43,1.49,1.49,0,0,0-.54-.53,4.45,4.45,0,0,0-.56-1.21l-.15-.26A21.75,21.75,0,0,1,425,392c-.58-1.63-1.21-3.24-1.83-4.85l-2-5.17q-1.64-4.29-3.3-8.57c-3.24-8.32-6.41-16.47-9.49-24.66-1.47-3.93-3.13-7.84-4.73-11.61-1.74-4.12-3.55-8.38-5.11-12.66-.46-1.26-.94-2.51-1.42-3.75-.9-2.34-1.84-4.77-2.59-7.24-.49-1.65-1.13-3.27-1.74-4.84-.54-1.37-1.09-2.78-1.54-4.2a1,1,0,0,0-.12-.92,3.32,3.32,0,0,0-.21-.27l-.05-.07c-.06-.21-.11-.4-.16-.58a.94.94,0,0,0-1-.75,19.12,19.12,0,0,0-5.45-3.33c-.71-.33-1.42-.66-2.13-1-.87-.45-1.72-.92-2.57-1.39-3.39-5.93-7-11.83-10.56-17.55-2-3.28-4-6.56-6-9.86-4-6.63-7.82-12.43-11.72-17.71,1.26-8.39,2.25-16.89,3.13-24.83.22-2,.46-4.06.69-6.1.38-3.26.75-6.53,1.08-9.8.78-.42,1.56-.84,2.35-1.24,4.65-2.32,9.44-4.35,14.35-6.41,4.74-2,9-3.8,13.3-5.86q.93,5.8,1.83,11.6c1.07,6.81,2.18,13.85,2.63,20.81a114.25,114.25,0,0,1-.22,13.73c-.08,1.43-.16,2.86-.23,4.29a1,1,0,0,0,.28.77,1.12,1.12,0,0,0,1.19.24,1.82,1.82,0,0,0,1.81-.38h.27l.42,0,.42,0a6,6,0,0,0,1.25-.19c.14,0,.35-.14.61-.25a6.91,6.91,0,0,1,1.56-.56.76.76,0,0,0,.45.11,1.16,1.16,0,0,0,1.14-1.12v0a1.65,1.65,0,0,0,.44-1.22c.63-1.82,1.32-3.6,2-5.39,1.2-3.12,2.44-6.35,3.35-9.68,1.53-5.65,3.47-11.2,5.33-16.36l.09-.25a11.48,11.48,0,0,0,1.46-1c.26-.2.51-.39.77-.57,1-.72,2.18-1.34,3.28-1.94s2.12-1.16,3.13-1.84c2.77-1.83,5.5-3.83,8.14-5.75l2.71-2c2.27-1.65,5.08-3.69,7.61-5.89l.79.38c3,1.46,6.14,3,9.14,4.57l10.6,5.68c.41.22.88.53,1.39.85a11,11,0,0,0,4.51,2.07,1.37,1.37,0,0,0,1.71.1,8.83,8.83,0,0,1,3-1,13.68,13.68,0,0,0,2.45-.66c2.19-.91,4.09-1.63,5.81-2.19.48-.16,1-.39,1.56-.63a8.15,8.15,0,0,1,2.91-.91,11.11,11.11,0,0,0,3.85-.73,1.58,1.58,0,0,0,1.1-1.19c.15-1,.21-1.94.27-2.89s.1-1.63.21-2.45l.09-.59a25.7,25.7,0,0,0,.38-4.31,56.6,56.6,0,0,0-.61-8.4,1.09,1.09,0,0,0,.08-.5,40,40,0,0,0-3.28-10.53c-.44-1-.87-2.05-1.29-3.09a67.44,67.44,0,0,0-3.22-7.08.88.88,0,0,0-.57-.46,20.1,20.1,0,0,0-3.06-2.49l-2.29-1.65c-1.33-1-2.71-2-4.11-2.91-5-3.32-8.94-6.19-12.53-9.06a24.74,24.74,0,0,0-3-2,24.31,24.31,0,0,1-2.7-1.73,3,3,0,0,0-1.86-.52,13,13,0,0,0-2.36.3c-.44.08-.84.16-1.17.19l-.54,0h0c-2.89-3.09-6.05-6.26-9.66-9.68l-1.25-1.17,33.41,3.1a5.76,5.76,0,0,0,.45,0l23.33-7.34.26.21a.63.63,0,0,0,.88-.09L509,105l.11.05a.63.63,0,0,0,.84-.31L513,97.9a.63.63,0,0,0,.32-.76l-.3-1a.63.63,0,0,0-.31-.37.62.62,0,0,0-.48,0L486,104.1l-.86-1.38,8.91-21.32a.63.63,0,0,0-.32-.81l-.93-10.94a.63.63,0,0,0-.22-.43l0,0a.63.63,0,0,0-.31-.43l-3.51-2a.62.62,0,0,0-.48-.06.63.63,0,0,0-.38.3l0,0h0a.64.64,0,0,0-.47.09.63.63,0,0,0-.27.4l-1.11,5.54-27,29-11.51,2.36-.62-4.64,12.63-19a5.64,5.64,0,0,0,.19-.65L459,39l.31-.52a.63.63,0,0,0-.22-.86l-.12-.07v-.15a.63.63,0,0,0-.63-.62h-.62l-2-1.17a4.24,4.24,0,0,0-1.58.45L440.7,62l-1.41,1.07,2.94-12.83a5.12,5.12,0,0,0,0-.48l-7.47-36.13,0-.16a.63.63,0,0,0-.5-.75l-3.51-.67a.63.63,0,0,0-.69.35.64.64,0,0,0-.62.46L424,32.94l-7.12-6.48-1.14-4.13a.59.59,0,0,0-.06-.33l-.09-.16-.14-.6a.63.63,0,0,0-.3-.38L415,20.8,404.3,1.42a.65.65,0,0,0-.6-.32l0-.25a.63.63,0,0,0-.74-.49l-2.3.46-.33-.08a.64.64,0,0,0-.76.46L393.8,24,380,1.42l-.1-.86a.63.63,0,0,0-.23-.42.61.61,0,0,0-.46-.13l-4.35.5a.63.63,0,0,0-.54.48.63.63,0,0,0-.47.56l-1.18,15.94L367,24.63l-22.75-6.94L333.69,9.92a.63.63,0,0,0-.88.13l-.6.8a.63.63,0,0,0,.13.89l.13.09-4.35,22-18.68-4.5a.63.63,0,0,0-.76.46l-.24,1a.63.63,0,0,0,.47.76l.27.06a.62.62,0,0,0,.15.34L339.2,65.31a.63.63,0,0,0,.63.19l11.75,20.78,0,.06a.63.63,0,0,0,.3.83l.38.18a.58.58,0,0,0,.21.12l.09,0,21.62,10.16.06.29,0,.14q1.18,6.85,2.36,13.7c-3.62.56-7.31.76-10.88,1l-.32,0c-4.15.23-8.36.64-12.44,1-2.49.24-5,.48-7.46.68l-2,.17c-6.27.52-12.76,1.07-19.13,1.88l-3.05-.76c-2.74-.67-5.56-1.45-8.28-2.2-8.28-2.29-16.84-4.65-25.46-4.7a1.32,1.32,0,0,0-2.15,0,1,1,0,0,0-.68.37,1.09,1.09,0,0,0-.2.38,18.63,18.63,0,0,1-2.36,1c-.47.18-.88.33-1.17.47l-3.39,1.62-1.63.78c-1.77.85-3.52,1.75-5.26,2.64-1.53.79-3.06,1.57-4.61,2.33a204.39,204.39,0,0,1-22.35,9.11q-6.13,2.14-12.25,4.32c-3.35.08-6.7.19-10.06.31-6.66.23-13.57.46-20.33.38-7.5-.1-15.11-.64-22.47-1.16-6.87-.49-14-1-21-1.14A1,1,0,0,0,157,130h-.37c-2.76,0-5.81,1.07-8.5,2l-1,.34a41.69,41.69,0,0,1-6.92,1.56c-1.3.22-2.64.44-3.95.73-1.08.24-2.18.45-3.28.67a57.19,57.19,0,0,0-8.07,2l-1.59.57c-1.39.5-2.83,1-4.26,1.44a26.8,26.8,0,0,1-2.7.59c-.82.15-1.67.3-2.5.52-1.69.46-3.36,1-5,1.51-1.79.57-3.64,1.16-5.49,1.64-1.53.39-3.07.88-4.56,1.34-1.92.6-3.91,1.23-5.88,1.65l-2.35.48a56.7,56.7,0,0,0-6.93,1.68,7.07,7.07,0,0,1-1.05.24c-.93.16-2.18.38-2.16,2.15-.47.6-1,1.2-1.55,1.79A26.08,26.08,0,0,0,77.1,155,10.81,10.81,0,0,1,75,157.07a12.51,12.51,0,0,0-2.17,2c-.43.55-.82,1.12-1.21,1.68a16.6,16.6,0,0,1-2.27,2.84,19.77,19.77,0,0,0-2.6,3.15c-.28.39-.56.79-.86,1.18s-.45.54-.72.86a8.89,8.89,0,0,0-2,2.93,5.33,5.33,0,0,0,.2,2.83,6.71,6.71,0,0,1,.29,1.62c0,1.25-.13,2.56-.27,3.94a24.66,24.66,0,0,0,0,7.17,1.47,1.47,0,0,0,1.51,1.2,1.82,1.82,0,0,0,1.15-.41c5-4.06,10.18-7.66,16-11.59-.86,5.47-1.84,11.75-2.75,18-.43,2.93-.81,5.85-1.2,8.77-.85,6.39-1.72,13-3,19.47-1.08,5.43-1.93,11-2.75,16.32-.65,4.2-1.32,8.55-2.09,12.81-.37,2-.75,3.94-1.15,5.91-3.09,2.71-6.3,5.32-9.32,7.74-2.76,2.22-5.48,4.56-8.12,6.82-2.82,2.42-5.73,4.92-8.67,7.27-1.39,1.11-2.93,2.16-4.55,3.28-4,2.76-8.15,5.61-10.61,9.56a1.1,1.1,0,0,0,0,1.13,1.16,1.16,0,0,0,.27.33,58.66,58.66,0,0,0-1.52,6.55,52.77,52.77,0,0,0-.07,10.34c-.67,1.66-1.25,3.36-1.82,5-.63,1.86-1.29,3.79-2.08,5.64a22.5,22.5,0,0,0-1.11,3.71c-.2.86-.41,1.74-.7,2.59-.7,2.06-1.37,4.12-2,6.19s-1.24,4.09-1.84,6.14c-.65,2.25-1.31,4.51-2,6.74-1.76,5.49-3.27,11.15-4.74,16.62-.86,3.22-1.72,6.43-2.63,9.64-1.22,4.26-2.65,8.52-4,12.64l-.07.21c-.37,1.12-.67,2.28-1,3.41s-.63,2.49-1,3.67A20.64,20.64,0,0,0,0,398.76Zm1.22,0a20.77,20.77,0,0,1,1.3-5.38c.44-1.24.77-2.53,1.08-3.78s.57-2.24.93-3.32l.07-.21c1.39-4.13,2.82-8.41,4-12.7.92-3.21,1.78-6.44,2.64-9.66,1.46-5.46,3-11.1,4.72-16.56.72-2.24,1.38-4.51,2-6.78.59-2,1.18-4.08,1.83-6.11s1.33-4.12,2-6.17c.3-.9.52-1.81.73-2.7a21.26,21.26,0,0,1,1-3.5c.81-1.9,1.47-3.84,2.11-5.73.57-1.68,1.16-3.41,1.85-5.08a.61.61,0,0,0,0-.3,51.54,51.54,0,0,1,.06-10.24,55.41,55.41,0,0,1,1.64-6.82.63.63,0,0,0-.44-.83c2.34-3.65,6.31-6.38,10.15-9,1.64-1.13,3.19-2.2,4.62-3.33,3-2.36,5.89-4.87,8.71-7.3,2.63-2.26,5.34-4.59,8.09-6.79,3.08-2.47,6.36-5.13,9.52-7.91a.62.62,0,0,0,.2-.35c.41-2,.82-4.08,1.2-6.14.78-4.28,1.45-8.63,2.09-12.85.82-5.34,1.67-10.87,2.75-16.27,1.29-6.51,2.16-13.14,3-19.55.39-2.91.77-5.83,1.2-8.75,1-6.77,2.05-13.59,3-19.36a.63.63,0,0,0-1-.63l-1.07.68c-5.89,4-11.16,7.63-16.22,11.76a.56.56,0,0,1-.35.12c-.23,0-.26-.13-.27-.19a23.87,23.87,0,0,1,0-6.8c.13-1.35.27-2.75.28-4.06a7.74,7.74,0,0,0-.33-1.93,4.33,4.33,0,0,1-.21-2.18,8.38,8.38,0,0,1,1.72-2.44c.3-.34.57-.65.78-.92s.6-.81.88-1.21a18.6,18.6,0,0,1,2.44-3,17.83,17.83,0,0,0,2.45-3c.37-.54.75-1.09,1.16-1.62a11.37,11.37,0,0,1,2-1.82,12,12,0,0,0,2.38-2.3,24.93,24.93,0,0,1,1.72-2c.61-.66,1.23-1.35,1.76-2.06a.62.62,0,0,0,.12-.42c-.06-.86.09-.89,1.11-1.07l.76-.16,0-.09.13,0,.32-.09a55,55,0,0,1,6.78-1.64l2.37-.48c2-.44,4-1.07,6-1.68,1.47-.46,3-.94,4.49-1.32,1.89-.49,3.76-1.08,5.56-1.66,1.6-.51,3.26-1,4.92-1.49.79-.21,1.6-.36,2.4-.5a27.36,27.36,0,0,0,2.83-.62c1.47-.43,2.93-1,4.33-1.46l1.58-.57a56.21,56.21,0,0,1,7.89-1.94c1.11-.22,2.22-.43,3.31-.67,1.28-.28,2.58-.5,3.89-.72a42.57,42.57,0,0,0,7.12-1.61l1-.34c2.6-.91,5.54-2,8.08-2h.15a.63.63,0,0,0,.54.33c7.09.14,14.29.65,21.25,1.14,7.38.52,15,1.07,22.54,1.17,6.79.08,13.71-.15,20.39-.38,3.38-.12,6.76-.23,10.14-.31a.62.62,0,0,0,.2,0q6.16-2.2,12.34-4.35a205.38,205.38,0,0,0,22.48-9.17c1.56-.76,3.1-1.55,4.64-2.34,1.74-.89,3.47-1.78,5.23-2.63l1.63-.78,3.38-1.61c.26-.12.64-.27,1.07-.43a16.57,16.57,0,0,0,2.84-1.28.94.94,0,0,1,.74-.62,1.69,1.69,0,0,0,.31-.43.77.77,0,0,0,.65.61h0c8.67,0,17.24,2.37,25.52,4.66,2.73.76,5.56,1.54,8.32,2.21l3.16.79a.68.68,0,0,0,.24,0c6.38-.82,12.89-1.36,19.19-1.89l2-.17c2.49-.2,5-.44,7.48-.69,4.06-.39,8.26-.8,12.39-1l.32,0a105.52,105.52,0,0,0,11.64-1.07.63.63,0,0,0,.52-.73q-1.22-7.16-2.46-14.33l0-.17c0-.2-.08-.39-.11-.58a.63.63,0,0,0-.35-.48L353,86.3l0,0h0a.63.63,0,0,0-.08-.34L340.58,64.26a.63.63,0,0,0-.85-.24L310.68,31.54a.63.63,0,0,0,.1-.53l0-.09,17.71,4.26a.63.63,0,0,0,.77-.49l4.56-23a.64.64,0,0,0,0-.12l9.81,7.2a.64.64,0,0,0,.19.1L367.05,26a.63.63,0,0,0,.68-.21l6.08-7.62a.63.63,0,0,0,.14-.35L375.1,2.25a.63.63,0,0,0,.55-.56l3.12-.36,0,.37a.62.62,0,0,0,.09.26L393.5,26a.63.63,0,0,0,1.15-.17l4-15.89,1-6,.5.08.47-1.89h.12l1.82-.36.08.37a.62.62,0,0,0,.05.16.68.68,0,0,0,.39.34.7.7,0,0,0,.44,0l10.6,19.19a.62.62,0,0,0,.24.24l.12.38a.52.52,0,0,0,0,.12L415.72,27a.63.63,0,0,0,.18.3l8,7.29a.63.63,0,0,0,.6.14.63.63,0,0,0,.43-.44l5.6-20.47a.65.65,0,0,0,.38-.1.63.63,0,0,0,.24-.29l2.37.45,7.35,35.55a.63.63,0,0,0,0,1.15l-3.19,13.92a.63.63,0,0,0,1,.64l2.9-2.2a.62.62,0,0,0,.18-.21L455,37.22a.63.63,0,0,0,.64-.18l1.59.95a.58.58,0,0,0,.33.09h.18a.63.63,0,0,0,.18.32l-.09.15a.63.63,0,0,0-.09.33l.63,40.64a.63.63,0,0,0-.31,1.06L445.67,99.26a.63.63,0,0,0-.1.43l.74,5.54a.63.63,0,0,0,.26.43.62.62,0,0,0,.49.1l12.37-2.53a.63.63,0,0,0,.33-.19l25.5-27.42,2.18-3.71.71-3.55a.63.63,0,0,0,.47-.22l2.44,1.4a.63.63,0,0,0,.52.83l.91,10.69a.63.63,0,0,0,.16.37l-8.82,21.1a.63.63,0,0,0,0,.57l1.28,2.07a.63.63,0,0,0,.72.27l18.28-5.79,1.64-.89.17.32,6-1.89-2.9,6.4-.08,0a.63.63,0,0,0-.89.51L492,123.75l0,0a.63.63,0,0,0-.58-.11l-23.06,7.26a.63.63,0,0,0-1.16.12l-34.67-3.22a.63.63,0,0,0-.48,1.09c.91.83,1.78,1.62,2.62,2.42,3.67,3.48,6.88,6.7,9.81,9.85a.6.6,0,0,0,.13.09l4.86-.84.08.45h.09l.36-.2.18.34a1.13,1.13,0,0,1,.17.06,25.72,25.72,0,0,0,2.83,1.82,23.7,23.7,0,0,1,2.85,1.85c3.61,2.89,7.62,5.78,12.62,9.12,1.39.93,2.75,1.92,4.07,2.88l2.3,1.66a18.2,18.2,0,0,1,3,2.46.68.68,0,0,0,.33.2,68.76,68.76,0,0,1,3.08,6.82c.43,1,.85,2.09,1.3,3.11A39.3,39.3,0,0,1,485.85,181a.63.63,0,0,0-.09.46,53.87,53.87,0,0,1,.63,8.38A24.75,24.75,0,0,1,486,194l-.09.6c-.12.86-.17,1.7-.22,2.55a27.73,27.73,0,0,1-.25,2.77.46.46,0,0,1-.26.19,11.29,11.29,0,0,1-3.31.66h0a8.89,8.89,0,0,0-3.55,1c-.51.22-1,.44-1.44.59-1.75.58-3.68,1.31-5.9,2.23a12.71,12.71,0,0,1-2.22.59,9.67,9.67,0,0,0-3.45,1.17c-.12,0-.18,0-.23-.05a.63.63,0,0,0-.49-.24c-1.23,0-2.83-1-4.11-1.88-.54-.35-1-.67-1.48-.91l-10.6-5.68c-3-1.61-6.15-3.13-9.19-4.59l-1.16-.56a.63.63,0,0,0-.69.09c-2.56,2.26-5.48,4.39-7.83,6.09l-2.71,2c-2.63,1.92-5.35,3.91-8.09,5.72-1,.65-2,1.22-3,1.78s-2.29,1.26-3.38,2c-.28.19-.55.4-.82.61s-.57.43-.86.62l-2.15,4.12c-1.54,4.35-3.06,8.9-4.32,13.54-.89,3.26-2.12,6.46-3.31,9.56-.71,1.84-1.41,3.68-2.06,5.55a.63.63,0,0,0,0,.29.39.39,0,0,1-.15.4.63.63,0,0,0-.33.65,4.52,4.52,0,0,0-2.35.63l-.48.2a5,5,0,0,1-1,.14l-.48,0-.3,0a5.17,5.17,0,0,0-.65,0,.63.63,0,0,0-.4.24c-.24.22-.32.22-.36.22a.78.78,0,0,1-.24-.05.78.78,0,0,0-.6-.12c.06-1.31.13-2.62.21-3.92a115,115,0,0,0,.22-13.88c-.45-7-1.56-14.08-2.64-20.92q-.9-5.82-1.84-11.64l-.13-.81a.63.63,0,0,0-.9-.47c-4.48,2.2-9,4.11-14,6.2s-9.74,4.11-14.43,6.45c-.87.45-1.74.91-2.61,1.39l-.47,1.28c-.32,3.12-.67,6.24-1,9.35-.23,2-.47,4.07-.69,6.1-.89,8-1.89,16.59-3.16,25a.63.63,0,0,0,.12.47c3.92,5.31,7.78,11.14,11.81,17.83,2,3.3,4,6.59,6,9.87,3.55,5.75,7.22,11.7,10.62,17.66a.63.63,0,0,0,.24.24c.91.5,1.83,1,2.76,1.49.72.38,1.46.72,2.18,1.06a16.94,16.94,0,0,1,5.35,3.33l0,0,.09,0,0,.1a.65.65,0,0,0,.34.09l.13.44a.79.79,0,0,0,.1.22l.16.21.05.06a.63.63,0,0,0,0,.46c.48,1.54,1.07,3.05,1.64,4.52s1.23,3.14,1.71,4.74c.76,2.52,1.71,5,2.62,7.33.48,1.24,1,2.47,1.41,3.73,1.57,4.31,3.39,8.59,5.14,12.72,1.6,3.77,3.24,7.66,4.71,11.56,3.08,8.2,6.25,16.35,9.49,24.67q1.67,4.28,3.29,8.57l2,5.18c.62,1.6,1.24,3.2,1.82,4.82a22.87,22.87,0,0,0,1.31,3l.17.31c.08.14.25.42.34.63a.63.63,0,0,0,.5,1,.27.27,0,0,1,.26.12.49.49,0,0,1,0,.45s0,0,0,.07l.36.39-.33.31a18.88,18.88,0,0,1,.44,6,.72.72,0,0,0,.08.52.66.66,0,0,0,.39.31,8.39,8.39,0,0,1,1.3.39,6.36,6.36,0,0,0,2.18.5c.21,0,.27,0,.33.09a.34.34,0,0,1,.1.23,54.62,54.62,0,0,1-1.55,10.4.32.32,0,0,1-.32.21l0,0a.61.61,0,0,0-.25-.14A.2.2,0,0,1,429,417a.63.63,0,0,0-1.14-.5.58.58,0,0,0-.62-.57h-.08a29.85,29.85,0,0,1-3.38-1.19,16,16,0,0,1-2.38-1.42,14.79,14.79,0,0,0-3.05-1.73c-2.35-.88-3.45-2.93-4.63-5.11-.39-.73-.79-1.47-1.24-2.17-.62-1-1.18-2-1.71-3.06s-1-1.87-1.52-2.76a42.38,42.38,0,0,0-3-4.12c-.37-.48-.75-1-1.12-1.45s-.93-1.26-1.38-1.89c-.85-1.19-1.74-2.42-2.72-3.59a.63.63,0,0,0-.34-.21.34.34,0,0,1-.25-.3.64.64,0,0,0-.17-.37c-.55-.58-1.18-1.26-1.13-1.84a.42.42,0,0,1,.46-.37.7.7,0,0,0,.53-.16.66.66,0,0,0,.23-.48c-.1-2.46-.28-4.72-.57-6.91-.09-.7-.24-1.39-.39-2.08a17.52,17.52,0,0,1-.44-2.65c-.1-1.66-.27-3.32-.54-5.1a.66.66,0,0,0-.06-.18c-.46-.93-.9-1.85-1.29-2.78-.91-2.13-1.95-4.23-3-6.26l-1.07-2.18c-2.59-5.3-5.47-10.87-8.82-17q-2.21-4.07-4.45-8.14-2.55-4.65-5.08-9.31l-1.44-1.78c-2.82-3.46-5.8-7-9.12-10.84-3.13-3.61-6.24-7.34-9.26-10.95s-6-7.13-9-10.64c-4.88-5.65-10-11.26-15-16.7-5.67-6.22-11.54-12.65-17.07-19.16a.63.63,0,0,0-.88-.08c-1,.81-1.75,1.41-2.49,1.93-1.88,1.34-3.89,2.56-5.79,3.67a.64.64,0,0,0-.24.26c-1,2-2.2,4.38-3.23,6.92-.49,1.19-1,2.39-1.5,3.58a100.25,100.25,0,0,0-4.33,11.48,109.71,109.71,0,0,1-4.38,11.81c-.44,1.06-.88,2.12-1.31,3.18-2.55,6.3-4.84,12.79-7.06,19.07-1.31,3.7-2.62,7.41-4,11.09-1.13,3-2.37,6.09-3.57,9-.67,1.64-1.34,3.28-2,4.92-.53,1.34-1,2.7-1.51,4.06a62.67,62.67,0,0,1-3.74,8.93.85.85,0,0,0-.24.24,4.62,4.62,0,0,1-1.21,1.06l-.52.35c-.46.31-.91.61-1.35,1a4,4,0,0,1-.58.41.63.63,0,0,0-.28.32l-.05.16c0,.07,0,.14-.08.21a24.53,24.53,0,0,0-1.56,6.68,56.26,56.26,0,0,1-1.74,7.94c-.36,1.34-.72,2.68-1,4l-.4,1.7A97.07,97.07,0,0,0,256.68,386l-.17,1.5c-.15,1.36-.3,2.72-.48,4.08a.62.62,0,0,0,0,.28c.33,1,.71,2.18,1,3.38.16.61.33,1.25.51,1.91.29,1.09.58,2.2.84,3.32l12,14.33c.61.58,1.23,1.16,1.88,1.73a33.28,33.28,0,0,1,3.86,3.81h0c-1.48.24-3,.37-4.51.5-1,.09-2,.17-3.07.29s-1.81.25-2.72.38a32.91,32.91,0,0,1-6.65.56H259l-1.5.26a52.45,52.45,0,0,1-8.14,1v0a.3.3,0,0,1-.2-.1.25.25,0,0,1-.08-.17,8.15,8.15,0,0,0-.75-3.13,11.55,11.55,0,0,1-.6-1.88,40.53,40.53,0,0,0-1.61-5.91c-.9-2.66-2.84-3.35-4.89-4.07l-1.17-.43a15.5,15.5,0,0,1-2.19-1.16,10,10,0,0,0-4-1.67c-.23,0-.33-.12-.36-.31a.63.63,0,0,0-.49-.52.5.5,0,0,1-.37-.31s0-.09.1-.19a6.34,6.34,0,0,0,1.38-1.81,5.1,5.1,0,0,1,1.14-1.52c1.87-1.43,2.59-3.83,3.22-6,.17-.58.34-1.14.52-1.67,1.17-3.3,2.08-6.74,3-10.05.38-1.45.76-2.9,1.17-4.34.83-3,1.54-6,2.22-9,.5-2.17,1-4.33,1.56-6.48.37-1.44.78-2.88,1.19-4.33A82.4,82.4,0,0,0,250.61,348a.63.63,0,0,0-.06-.37.51.51,0,0,1,.11-.38.63.63,0,0,0,.09-.24l0-.22c.18,0,.25.07.4,0a9.27,9.27,0,0,1,1-.57l.44-.24a6.44,6.44,0,0,0,1-.72l.39-.3c.14-.11.26-.22.39-.33a2.42,2.42,0,0,1,.71-.51.63.63,0,0,0,.41-.43c.94-3.48,2-7,3-10.39l.53-1.79c1.09-3.68,1.85-7.47,2.58-11.14q.28-1.42.57-2.85c1.74-8.53,3.81-18.59,6-28.62.48-2.21.92-4.44,1.38-6.67A165.53,165.53,0,0,1,274.8,261c.53-1.56,1.13-3.11,1.66-4.43a.63.63,0,0,0-.94-.75l-.42.3c-.19.14-.38.27-.58.4l-.72.5a7.27,7.27,0,0,1-2.94,1.5.63.63,0,0,0-.72-.51c-7.78,1.21-15.74,2.16-23.44,3.07-4.89.58-9.77,1.16-14.64,1.81-6.33.84-12.91,1.77-20.11,2.84-1.12.17-2.24.35-3.36.53-1.81.3-3.68.6-5.52.83-1.54.19-3.08.44-4.62.7l-.57.09a20.14,20.14,0,0,1-2.23.18c-.71,0-1.45.07-2.18.17a.54.54,0,0,0,0-.12.63.63,0,0,0-.5-.46,5.2,5.2,0,0,1-1.21-.36,32.13,32.13,0,0,0-4.41-1.49l-.87-.25c-3-.88-6-1.91-8.9-2.91l-1-.33c-3.92-1.34-7.93-2.61-11.81-3.83-2.09-.66-4.17-1.31-6.25-2a.63.63,0,0,0-.73.27l-34,54.38a.64.64,0,0,0-.1.36l1,23.83a.61.61,0,0,0,.05.23l20.49,46.29h.19v.42l7,15.74a.55.55,0,0,0-.05.14.63.63,0,0,0,.13.56l15.05,17.64a.63.63,0,0,0,.24,1l-.73,3.3-.08,0a.58.58,0,0,0-.4-.22l-22-.24a.63.63,0,0,0-.94-.42l-7.26-8a.62.62,0,0,0-.63-.18c-4.21-20.44-8.84-36.38-14.56-50.15-.71-1.71-1.37-3.45-2-5.18-.88-2.33-1.8-4.74-2.83-7-.52-1.16-1.07-2.32-1.63-3.49A75.45,75.45,0,0,1,111,337a49.44,49.44,0,0,0-3.9-8.37c-.48-.88-1-1.77-1.43-2.66-.9-1.74-1.79-3.58-2.65-5.46-.24-.52-.53-1-.83-1.53s-.46-.78-.66-1.19a.62.62,0,0,0-.67-.34,17.89,17.89,0,0,1-.41-3.81c0-.65,0-1.29-.1-1.92a15.46,15.46,0,0,0-.41-2.16,7.67,7.67,0,0,1-.33-3.26.57.57,0,0,0,.3.14.6.6,0,0,0,.66-.26A79,79,0,0,1,106,297c.84-1.28,1.67-2.55,2.47-3.84.35-.56.72-1.14,1.1-1.69a.61.61,0,0,0,.1-.23l.11-.53c.37-1.82.75-3.7,1-5.54a37.56,37.56,0,0,1,1.16-6.1c.15-.5.31-1,.47-1.49a31.83,31.83,0,0,0,1.51-6c.05-.49.12-1,.2-1.46a.63.63,0,0,0-1-.59c-1.75,1.4-3.54,2.71-5.69,4.24-1.89,1.35-3.74,2.8-5.53,4.2-1.52,1.19-3,2.39-4.61,3.53-2.06,1.51-4.21,3-6.29,4.4-1.44,1-2.88,2-4.3,3-4.63,3.27-9.56,6.26-14.32,9.14-2.54,1.54-5.08,3.08-7.59,4.67-2.13,1.34-4.34,2.61-6.49,3.82-1.62.92-3.24,1.84-4.84,2.81-.94.56-1.88,1.16-2.82,1.75l-1.21.76a.65.65,0,0,0-.24.27c-1.18,2.55-2.58,5.56-4.07,8.57-1.32,2.66-2.67,5.3-4,7.94-3,5.82-6.05,11.84-8.72,17.95-2.95,6.75-5.31,13.84-7.59,20.7-.77,2.32-1.54,4.64-2.34,6.95A102.28,102.28,0,0,0,18.89,388c-.13.66-.25,1.34-.38,2a.62.62,0,0,0,0,.23c.16.84.31,1.68.46,2.52l.12.7c.58,3.39,1.47,6.72,2.33,9.94a.63.63,0,0,0,.2.32c1.11.93,2.22,1.87,3.32,2.82l.82.71c1.55,1.35,3.1,2.7,4.68,4l.69.57a18.11,18.11,0,0,1,3.51,3.44.63.63,0,0,0,.51.27,11.39,11.39,0,0,1,.36,1.11c.09.29.17.57.27.85l.2.51a4.84,4.84,0,0,1,.47,1.72.66.66,0,0,0-.31.34l-.22,0a32,32,0,0,1-8,0,36.39,36.39,0,0,0-4.43-.21H21.12c-1,0-2,0-3-.08-1.63-.12-3.27-.4-4.86-.67-1.43-.25-2.9-.5-4.37-.63a.86.86,0,0,1-.78-.47,1.37,1.37,0,0,1,.21-1.3.62.62,0,0,0,.1-.48,15.68,15.68,0,0,1-.1-3.69l0-.87c0-1,0-2.09-.08-3.11a30,30,0,0,1-.08-3,.63.63,0,0,0-.33-.58,4.51,4.51,0,0,1-.65-.46l-.34-.27c-.3-.22-.61-.43-.93-.63s-.66-.43-1-.67a22,22,0,0,1-3.44-3.32.64.64,0,0,0,0-.4A.63.63,0,0,0,1.22,398.79Z"/><path class="cls-1" d="M258.95,402.69l.49.59-.39-.4A.61.61,0,0,1,258.95,402.69Z"/><path class="cls-1" d="M145.4,391l.07-8.65v-.42h-.75l-22.85-25.8L121.63,310l.43-.67.32-.05-.06-.36,34.63-54.78h0l38,10.6.13-.48.48.14.13-.45,82.5-9.38L265,347.71,252.75,346l-.07.5-.49-.13-13.56,52.47.49.13h0l-.26.43,9.7,5.76-.9.18,3.26,16.32.49-.1.08.5,19.83-3.26,0-.11,2.19,1.3.26-.43.38-.32-3.69-4.39-12-14.33-6.64-7.9,4.65-25.93-.11,0,8.83-17.15h.08l.46.18,38.66-97.91-.4-.16,8.36-.95-.11-1-114.58,13,82.43-49.92-.52-.86-83.4,50.5L215,195.49l-.48-.14.15-.44,65.85,17.21,51.82,57.22-.05.15.28.1.82.91.17-.15,38.7,44.79,32.36,60.71.44-.24-.37.34.39.42-.48-.21L400.84,385l.64.28-.41.79,25.11,13.14.23-.45,0,0,.33-.31-.36-.39-20.89-22.61L389.26,303l0-.1-.09,0-.4.09-.3-.4-.26.19-13-7h0l-16.11-19.36L345,238.12l-.26.1,10.11-27.71.47-1.28.2-.54.59,0,0-.5.33.38,29.83-25.35.64,11.61,1-.05,5.7,46.45.33,0-1.62,3.09.89.46,15.28-29.24,2.15-4.12,7.84-15-.3-.16,0-.18,21.15-4.58-.15.27,24.69,13.41.34.84,15.42-6.23.27.27.61-.62.26-.11,0-.1.8-.43L450.13,141l-.18-.34-.36.2-.08,0v0l-.08-.45-4.86.84-5.85,1,.16.94-15.56-13.71,8.28-2.82-.32-1-29.05,9.91h0v0l-35.15,12-.18-.24-.69.51-.17,0,0,.18-82.81,61.36,41.17-87.12,2.36-1.56,39.87,26.47.56-.84-39.57-26.27,52.68-4.58,0,.09.24-.11h0l40.17,7.45.08.06,0,0,31.87,5.91.09-.49.24.44,1.49-.81-.07.12.87.51.92-1.56,50.1-27.37-.31-.56-.17-.32-1.64.89-47,25.67,31.56-53.65-.87-.51-.44.75-2.18,3.71-29.79,50.64-2.8,1.53L421.53,122l34.06-41.92-.78-.63-34.4,42.34-38.35-7.11,71.68-34.13-.43-.91-67.75,32.25,24.23-16.66-.28-.41L410,95l21.26-79.17-1-.26-17.6,65.53L392.09,55.92l8.53-51.87L400.13,4l-.5-.08-1,6-7.4,45L374.42,34.32l2.11-32-1-.07-2,30.91-5.94-7.26-.39.32-.5.07L380,114.48l-54.21,4.72v0l-.91-.43-.24.51L286.93,111l-.11.49-.21-.45-65.78,30.88.19.4-62.91-10.48-.08.49h0l-.12-.49L85.16,150.47,83.76,150l-.13,0,0,.09-.3.86.09,0h0l.25,1,.23-.06.71,71.74L72.76,265,29.43,300.16l.32.39.13.49.12,0,.09,17.22L2.4,397.79h0l-.5.92.44.24-.14.48,17.57,5,.14-.48.5-.08-4.52-28.12-.46.07,16.47-30.38-.34-.18,22.69-51,31.56-8.69.08.12.33-.23.1,0v0l.19-.14,0,0,.24-.24,27.32-19.35,2,12-.5-.17-13.56,39.67.47.16.19.46.56-.23,41,94.61.46-.2h.5v-.11l19.89,8.35.2-.46.41-.29Zm-.17,19.86.15-18.15,18.49,26Zm-24.11-101Zm0,46.45h.24l-.17.15Zm-16.91-39.05,16.4-6.65.24,45.09Zm12.07-38.53,5,30-.48.75-17,6.88-.06-.14-.32.14ZM91,280.87l94.81-94.81,26.31,9Zm27-119.13,40.45-28.1,52.38,59.93Zm41.27-28.68L276.5,152.6,213.92,193.9l0,0-.72.51-.39-.13ZM85.14,284.76,53.81,293.4l-.18-.08-.07.15-21.65,6,52.94-42.92ZM19.33,403.29,3.12,398.65l11.93-22Zm10.78-82.06L30.24,346h.28L5.31,392.5Zm.89-20.5,22-6.07-21.81,49-.14-25.27.12-.35-.12,0Zm53.56-73.58.28,28.08-10.73,8.7Zm.25-75.55.3-.08L184.8,185.7,86.18,284.32l0,0-.6-60.62.18-.62-.18-.05Zm2.08-.53,70.9-18.14-40.92,28.42Zm237.28-30.88-.65,1.37-45.8,30.23L222,142.5,286.88,112Zm84.89-25.64L380.9,113.91,367.93,28l5.46,6.68,0,.59.55,0,38.45,47Zm-83.92,25.95.11-.24.29,0Zm40.57,28.94-10,58.24-72.53,2.93Zm59.21-.42-68.08,57.87,10-58.18,35.28-12,23.49,11.74-.29.24-.08-.06Zm-21.45-12.8.87-.3-.16.59,31.12,8.61-8.21,2.65.1.31Zm25.52,12,8.07-2.6,17,4.71,26.19,48.09-.35.14-51-49.82-.07.08Zm10.47-4.52-.54-.47,10.31-1.77,4.17,7.65-15.84-4.38-.09-.28-.43.14-32-8.86,17.21-5.87,16.58,14.61Zm1,47.52,25-5.42L478.89,199,465,204.58l0,0Zm-21.94,3.73,10.16-45.1,35.93,35.11Zm-29.51.2,28.14,1,0-1-27.86-1,36.36-44.41,1-.82.92.46.33-.66-10.81,48,.12,0-22.68,43.41Zm-2.14-12.42,34.55-29.37-32.78,40-.75.09-.6-10.79Zm-28.77,93.76-.15.13.35.42,13,35.42-37.67-43.59,10.79-29.59Zm14.63,38.38h0Zm-12.51-35.53L374,296h-.1l-1.47,16.85Zm27.13,24.18-14.37,10.55-.27-.73.78.07,1.44-16.56Zm1.13.41,15.34,68.18L373.33,315Zm17,72.84,18.63,20.16L401.8,385.27ZM281.17,211.34l-.37.34.13-.49-65.45-17.1L278,152.84l.49.08.08-.46,44.17-29.16-41,86.82.27.13-.7.52.3.4,0,.5,72.89-2.95-21.72,59.55ZM250.95,391.59l-4.41-5.25-.62.52,9-17.51Zm-.27,1.51.26,0,8,9.54.49.59,12,14.33-31.69-18.83,6-11.72,4.9,5.83Zm-2,12.12L270.13,418l-18.31,3Zm4.39-58.17,11.41,1.6-23.73,46.09Zm26.2-92.62,24.07-2.73-37,93.67Zm-157.18,53-7-42.09-.45.07,98.21-69.57.53.61.41-.35L194.93,263l-.55.06.05.46L139.08,248.1l-.27,1,17.12,4.77ZM144.35,383l.12-.1L144.4,390l-.59.42.58.82-.15,18.36-22.69-52.4Z"/><polygon class="cls-1" points="373.72 93.39 373.32 94.31 354.57 86.28 354.77 85.81 354.33 86.05 331.23 41.86 331.68 41.63 331.18 41.58 334.19 14.13 335.19 14.24 332.19 41.53 355.13 85.42 373.72 93.39"/><rect class="cls-1" x="433.76" y="53.35" width="29.81" height="1" transform="translate(213.28 439.58) rotate(-65.45)"/></g></g></svg>