<svg xmlns="http://www.w3.org/2000/svg" viewBox="0 0 99.76 53.56"><defs><style>.cls-1{fill:#15bfdb;}.cls-2{fill:#fabc3c;}.cls-3,.cls-4{fill:#fff;}.cls-4{fill-rule:evenodd;}</style></defs><title>personalized wbg</title><g id="Layer_2" data-name="Layer 2"><g id="Tutor_icons" data-name="Tutor icons"><g id="all_colors_thin" data-name="all colors thin"><g id="Layer_13" data-name="Layer 13"><circle class="cls-1" cx="10.41" cy="15.01" r="1.8"/><circle class="cls-1" cx="65.81" cy="15.01" r="1.8"/><circle class="cls-1" cx="89.35" cy="15.01" r="1.8"/><circle class="cls-2" cx="37.93" cy="9.85" r="4.49"/><path class="cls-1" d="M13.43,28.27A2.94,2.94,0,0,1,15.26,31v8.07H5.56V31A2.94,2.94,0,0,1,7.4,28.27a6.69,6.69,0,0,0,6,0"/><path class="cls-1" d="M68.83,28.27A2.94,2.94,0,0,1,70.66,31v8.07H61V31a2.94,2.94,0,0,1,1.83-2.72,6.69,6.69,0,0,0,6,0"/><path class="cls-1" d="M92.36,28.27A2.94,2.94,0,0,1,94.2,31v8.07H84.5V31a2.94,2.94,0,0,1,1.83-2.72,6.69,6.69,0,0,0,6,0"/><path class="cls-2" d="M42.74,27.14c1.88.67,4.42,2.68,4.42,5.48V47.39H28.69V32.62c0-2.8,2.55-4.81,4.42-5.48a10.09,10.09,0,0,0,9.63,0"/><path class="cls-3" d="M14.58,22.29a7.21,7.21,0,0,1-8.33,0A7.51,7.51,0,0,0,0,29.67v13A2.32,2.32,0,0,0,2.32,45H18.5a2.32,2.32,0,0,0,2.32-2.32v-13A7.51,7.51,0,0,0,14.58,22.29Zm3.77,20.19H2.48V29.28a4.82,4.82,0,0,1,3-4.46,10.94,10.94,0,0,0,9.87,0,4.81,4.81,0,0,1,3,4.45Z"/><path class="cls-3" d="M70,22.24a7.21,7.21,0,0,1-8.33,0,7.51,7.51,0,0,0-6.25,7.38v13A2.32,2.32,0,0,0,57.72,45H73.9a2.32,2.32,0,0,0,2.32-2.32v-13A7.51,7.51,0,0,0,70,22.24Zm3.77,20.19H57.87V29.23a4.82,4.82,0,0,1,3-4.46,10.94,10.94,0,0,0,9.87,0,4.81,4.81,0,0,1,3,4.45Z"/><path class="cls-3" d="M93.51,22.33a7.21,7.21,0,0,1-8.33,0,7.51,7.51,0,0,0-6.25,7.38v13A2.32,2.32,0,0,0,81.26,45H97.44a2.32,2.32,0,0,0,2.32-2.32v-13A7.51,7.51,0,0,0,93.51,22.33Zm3.77,20.19H81.41V29.31a4.82,4.82,0,0,1,3-4.46,10.94,10.94,0,0,0,9.87,0,4.81,4.81,0,0,1,3,4.45Z"/><path class="cls-3" d="M43.76,20.85a10.93,10.93,0,0,1-5.84,1.82,10.93,10.93,0,0,1-5.84-1.82c-3.6.62-9.25,4.42-9.25,10.39v20a2.32,2.32,0,0,0,2.32,2.32H50.69A2.32,2.32,0,0,0,53,51.24v-20C53,25.27,47.36,21.46,43.76,20.85Zm6.58,30H25.5V31c0-3.77,3.42-6.47,5.94-7.36a14.46,14.46,0,0,0,6.48,1.65,14.46,14.46,0,0,0,6.48-1.65c2.52.89,5.94,3.6,5.94,7.36Z"/><path class="cls-4" d="M37.91,0a9.87,9.87,0,1,0,9.87,9.87A9.87,9.87,0,0,0,37.91,0Zm0,17.23a7.36,7.36,0,1,1,7.36-7.36A7.36,7.36,0,0,1,37.91,17.23Z"/><path class="cls-3" d="M10.41,8.28A6.71,6.71,0,1,0,17.12,15,6.71,6.71,0,0,0,10.41,8.28Zm4.32,7.23a4.35,4.35,0,1,1-3.79-4.84A4.35,4.35,0,0,1,14.73,15.52Z"/><path class="cls-3" d="M65.81,8.36a6.71,6.71,0,1,0,6.71,6.71A6.71,6.71,0,0,0,65.81,8.36Zm4.32,7.23a4.35,4.35,0,1,1-3.79-4.84A4.35,4.35,0,0,1,70.13,15.59Z"/><path class="cls-3" d="M89.35,8.33A6.71,6.71,0,1,0,96.05,15,6.71,6.71,0,0,0,89.35,8.33Zm4.32,7.23a4.35,4.35,0,1,1-3.79-4.84A4.35,4.35,0,0,1,93.66,15.56Z"/></g></g></g></g></svg>