<svg xmlns="http://www.w3.org/2000/svg" viewBox="0 0 260.18 442.24"><defs><style>.cls-1{opacity:0.8;}.cls-2{fill:none;}.cls-3,.cls-4{fill:#007297;}.cls-4{opacity:0.6;}.cls-5,.cls-6,.cls-7{fill:#107ea3;}.cls-5{opacity:0.2;}.cls-6{opacity:0.3;}.cls-7{opacity:0.4;}</style></defs><title>sea-creatures-left</title><g id="Layer_2" data-name="Layer 2"><g id="Layer_16" data-name="Layer 16"><g class="cls-1"><path class="cls-2" d="M105.55,226l-5.61,1.64,5.61,5.28Z"/><path class="cls-2" d="M103.19,221.94c-.48.58-.72.82-.9,1.1-.62.93-1.21,1.87-2.18,3.35l5-1.43Z"/><path class="cls-2" d="M100.33,239.1l4.8-3.54-5.73-5.93Z"/><path class="cls-2" d="M99.32,239.44l-.84-7.87-.52-.06a39.35,39.35,0,0,0-1.8,5.75C95.81,239.42,97.92,238.58,99.32,239.44Z"/><path class="cls-2" d="M65.29,213.83h9C71.2,211.93,67.26,211.89,65.29,213.83Z"/><path class="cls-2" d="M95,237.18l2.68-8.56a16.49,16.49,0,0,0-1.92.63c-1.22.62-2.72,1-3.54,2S93.44,235.85,95,237.18Z"/><path class="cls-2" d="M85.18,218.12l-.2.46,13.47,8.25,3.76-5.64Z"/><path class="cls-2" d="M108.46,222.24l-4.06-.63,1.75,2.75Z"/><path class="cls-2" d="M85.4,216.48l0,.62,14.76,2.61.27-.43c-1.85-1.49-3.69-3-5.57-4.43a1.7,1.7,0,0,0-1.21-.13C90.91,215.28,88.16,215.89,85.4,216.48Z"/><path class="cls-2" d="M90.69,212.89,83,209.74l-.51,3.76h8.08Z"/><path class="cls-2" d="M86.94,215.08l-.09-.58-4.69.46.21,1.07Z"/><path class="cls-2" d="M93.79,212.39l-4.67-11.61-5.64,8,9.87,4.06Z"/><path class="cls-2" d="M82.06,209.64l-10.24,1.58,0,.49,9.63,1.82Z"/><path class="cls-2" d="M109.32,219.52l-11-3.77C101.4,219.46,104.52,221.31,109.32,219.52Z"/><path class="cls-2" d="M90.19,231.54l-.32-.8L78,229l-.18.54a101.43,101.43,0,0,0,9.37,4.25C87.84,234.05,89.17,232.35,90.19,231.54Z"/><path class="cls-2" d="M108.66,232.08c1.3-1.38,2.57-2.77,4.15-4.47l-6-1.59v7.82C107.76,232.95,108.24,232.54,108.66,232.08Z"/><path class="cls-2" d="M109.66,222.76l-2.43,2.18,5.14,1.43Z"/><path class="cls-2" d="M83,228.24c3.68.56,7.35,2.7,11,0Z"/><path class="cls-2" d="M114.1,232.86l2.76-2.17-2.47-2.13Z"/><path class="cls-2" d="M5.21,247l.39.32,4.09-3.72L7.8,242.39Z"/><path class="cls-2" d="M14.12,238.32v-5.39l-4.58,2Z"/><path class="cls-2" d="M13.77,224.37l-.55.21.39,3.58h3.13Z"/><path class="cls-2" d="M9.58,236.93l1.34,5.51,3-2.85-3.85-2.88Z"/><path class="cls-2" d="M2.9,213.56l-.43.37,2.27,4.29,1.62-2.68Z"/><path class="cls-2" d="M10.14,227.53l2.09.45v-3.06l-.43-.19Z"/><path class="cls-2" d="M10.47,220.3l-3.15-4-1.79,2.8,4.56,1.65Z"/><path class="cls-2" d="M11.87,222.37,6.49,220.6l-.36.42,3.07,5.78Z"/><path class="cls-2" d="M76.21,222.53A2.77,2.77,0,0,0,78,221.39a34.81,34.81,0,0,0,2.09-3.71l-24.15,4.9C62.89,222.58,69.55,222.61,76.21,222.53Z"/><path class="cls-2" d="M91.38,226.63c-1.74-.41-3.48-.84-5.22-1.23a29.54,29.54,0,0,1-4.76-1.06c-3-1.24-5,.06-6.87,2.67H91.3Z"/><path class="cls-2" d="M94.05,226l.21-.48-12.91-7.9-2.7,5Z"/><path class="cls-2" d="M70.38,228.47l-.05-.51-3.92-.64L68,230Z"/><path class="cls-2" d="M70,230.45l7.09.6C74.64,228.31,72.38,228.07,70,230.45Z"/><path class="cls-2" d="M81,214.86H73.53C76.4,216.33,80.31,216.36,81,214.86Z"/><path class="cls-2" d="M75.72,223.92h-20l-.06.61c2.33.4,4.65.84,7,1.21a50.36,50.36,0,0,1,6.71,1C72.43,227.67,74,226,75.72,223.92Z"/><path class="cls-2" d="M62.67,227.47c-2.54.54-5.14.82-7.72,1.22l.08.54,11.34.92C65.81,228,64.85,227,62.67,227.47Z"/><path class="cls-2" d="M123.2,229.05l-3.14.14.25,3Z"/><path class="cls-2" d="M42.65,224.16l-.22-.89-4.46.81.18,1Z"/><path class="cls-2" d="M104.24,241l1.17-4.27L101.1,240Z"/><path class="cls-2" d="M93.77,238.13c-.46-1.88-2.18-2.87-4.78-2.24l3,6.35.66.13C93,240.95,94.07,239.38,93.77,238.13Z"/><path class="cls-2" d="M89.06,253.75l.5.11L92,249.62l-4-2.56Z"/><path class="cls-2" d="M88.43,245.91l3.82,2.56L92,244.09Z"/><path class="cls-2" d="M49,232.33l-.16.54,11.71,10.59,6.32-12Z"/><path class="cls-2" d="M88.17,236.77a1.82,1.82,0,0,0-1.61-.68C79.74,238.35,73,240.7,66.18,243l.05.53,24.67-.91C89.86,240.35,89.11,238.51,88.17,236.77Z"/><path class="cls-2" d="M57,241.74,48.5,234C48.16,238.59,50.35,240.62,57,241.74Z"/><path class="cls-2" d="M85.94,234.49c-1.82-.68-3.58-1.67-5.46-2-3.65-.56-7.36-.75-11-1a2,2,0,0,0-1.62.6,87.78,87.78,0,0,0-5.34,11l23.41-8Z"/><path class="cls-2" d="M129.21,231.65l-3.41.54,1.72,2,1.91-2Z"/><path class="cls-2" d="M105.44,241l5.66-1.73,0-.57-4.41-2.45Z"/><path class="cls-2" d="M122.9,235.08l.27.44,3.22-1-1.8-1.69Z"/><path class="cls-2" d="M109.21,236.44c1,.54,2,1,3.3,1.72l.41-3.26-4.54.65C108.84,236.05,109,236.32,109.21,236.44Z"/><path class="cls-2" d="M114.06,235l-.38,3.44,4.85-1.52-.2-.5Z"/><path class="cls-2" d="M108.44,234.14c4.85.16,4.9-.3,4.59-4.2Z"/><path class="cls-2" d="M46.75,224.49l-8.2,1.61,0,.44,8.7,1.94Z"/><path class="cls-2" d="M47.81,220.38l-5,1.72C47,223.54,47.21,223.48,47.81,220.38Z"/><path class="cls-2" d="M59.75,226.91l0-.55L47.92,224.5l.49,4.07Z"/><path class="cls-2" d="M51.75,222.4l24.63-5.09,0-.56-13.18-1.59a1.06,1.06,0,0,0-.62.12Q57,218.55,51.5,221.83Z"/><path class="cls-2" d="M42.42,230.83c1.44-.26,3,1.22,4.38-.23l-.06-.7-4.37.34Z"/><path class="cls-2" d="M42.79,228.55l-7.33-1.61-.16,2.93,7.4-.7Z"/><path class="cls-2" d="M60.38,213.56,52,208.23C54,213.1,54.72,213.55,60.38,213.56Z"/><path class="cls-2" d="M51.79,217.85l7.56-2.6C56,213.37,54.17,214,51.79,217.85Z"/><path class="cls-2" d="M54.59,218c-1.79,1.23-4.76.53-5.24,3.92l5.57-3.36Z"/><path class="cls-2" d="M50.1,243.81l5.44-.31.05-.59-5.93-2.34Z"/><path class="cls-2" d="M31.05,232.12l5.2,2C34.7,230.93,34.43,230.82,31.05,232.12Z"/><path class="cls-2" d="M39.82,235.53l8.29,3.27-1.58-6.11Z"/><path class="cls-2" d="M48,231.32l8.4-.47C53.14,229.48,48.55,229.64,48,231.32Z"/><path class="cls-2" d="M36.15,231.2c2.36,4.26,3,4.32,8.07,1Z"/><path class="cls-2" d="M34,226.92l-7.56,1.56v.58l7.56.81Z"/><path class="cls-2" d="M48.34,247.32l5.41-2.09-.18-.5C51.79,245,49.63,244.29,48.34,247.32Z"/><path class="cls-3" d="M128.27,230.41a12.28,12.28,0,0,0,1.47-1.09c.63-.67,1.83-1.71,1.67-2a4.5,4.5,0,0,0-2.28-2.11c-6.1-2.18-12.26-4.22-18.39-6.3-4.45-1.51-8.88-3.1-13.36-4.51a3.91,3.91,0,0,1-2.73-2.63c-1.59-4.17-3.34-8.28-5.27-13a47.79,47.79,0,0,0-3.85,5.38,9.3,9.3,0,0,1-8.81,5.42c-2.12,0-4.22.69-6.35.89a9.3,9.3,0,0,0-6,2.48c-1,1-1.88.82-3,.09-3.15-2.08-6.37-4-9.58-6-.63-.39-1.3-.7-2-1l-.61.52c.76,1.27,1.5,2.54,2.28,3.8,2.11,3.44,2,3.31-.5,6.52-1.44,1.87-3.06,2.07-5,1.7-1.46-.27-2.73-.42-2.35,1.89-1,0-1.79-.09-2.55-.11s-1.41,0-2.26,0l-.57,2.1a21.43,21.43,0,0,0-3.58.27,15.08,15.08,0,0,0-2.32,1.28,8.81,8.81,0,0,1-2.3.68c-1.49.22-3.28-.62-4.08,1.68-.14.41-1.95.32-3,.34s-1.85-.06-2.53,1.27-2.06.64-2.89-.38c-2.29-2.82-4.69-5.57-6.77-8.54A19.72,19.72,0,0,0,2.29,212,19.75,19.75,0,0,0,0,211.42c.69,1.42,1.06,2.23,1.47,3,2.12,4,4.19,8.1,6.39,12.09,1.48,2.68.06,5.3.09,7.94.06,5.42-2.17,10.05-5.07,14.45-.44.66-.75,1.4-1.12,2.1l.54.47a12.79,12.79,0,0,0,1.52-1c3.52-3.22,7.22-6.29,10.44-9.79,1.55-1.69,2.25-4.19,3.23-6.37s2.44-2.5,4.29-.82a2.09,2.09,0,0,0,1.66.25,29.27,29.27,0,0,0,3.18-1.19c.78,3.84,3.32,1.5,5.36,1.51.39,2.07,1.92,2.11,3.57,2,1.18-.07,2.51-.31,2.93,1.34,0,.11.2.21.33.25,2.51.77,5,1.49,7.54,2.3.79.26,2,.65,2.15,1.17.27,1.33,1.28,2.81-.22,4.18a12,12,0,0,0-2.75,3.78,4.58,4.58,0,0,0,1.62-.19c7.57-4.12,15.83-4.33,24.15-4.43,5.41-.06,10.82-.45,16.22-.69a5.59,5.59,0,0,1,1.75.2c-3.37,1.22-2.28,3.57-1.91,5.74.26,1.54.47,3.1.75,4.64.13.72.4,1.41.78,2.72.74-1.16,1.18-1.77,1.54-2.41,1.81-3.24,3.53-6.52,5.43-9.69a3.89,3.89,0,0,1,2.25-1.55c2.74-.66,5.6-.89,8.31-1.66,6.57-1.88,13.06-4,19.61-6,2.8-.83,4.2-3.16,6-5.38ZM12.24,228l-2.09-.45,1.66-2.79.43.19Zm1.61,2v1.28L9.78,233v-4.06ZM2.48,213.93l.43-.37,3.47,2-1.62,2.68Zm4.84,2.34,3.15,4-.38.42-4.56-1.65ZM6.14,221l.36-.42,5.38,1.77L9.21,226.8ZM5.6,247.32,5.21,247l2.59-4.61,1.89,1.21Zm2.26-6,1-3.32,1,4.49Zm3.06,1.1-1.34-5.51.48-.23,3.85,2.88Zm3.2-4.11L9.54,235l4.58-2Zm-.5-10.16-.39-3.58.55-.21,3,3.79Zm1.72,9.11V230h1.93ZM129.25,226l.53,1.83L126.58,230l-1.39-5.24Zm-5.56-1.28.43,2.62-13.58-7.33ZM116,228.93h3.35v1.46Zm.88,1.77-2.76,2.17.28-4.3Zm-2-2.83,2.49-3.4,5.63,3.85Zm8.37,1.18-2.89,3.13-.25-3Zm-13.46-8.68,6.72,3.74-2.07,3.33L109.34,221Zm-47.06,5.36c-2.33-.37-4.66-.8-7-1.21l.06-.61h20c-1.73,2.11-3.29,3.76-6.32,2.84A50.36,50.36,0,0,0,62.69,225.73Zm3.69,4.43L55,229.23l-.08-.54c2.58-.4,5.18-.68,7.72-1.22C64.85,227,65.81,228,66.37,230.15Zm7.16-15.29H81C80.31,216.36,76.4,216.33,73.53,214.86Zm7.81,2.78,12.91,7.9-.21.48-15.4-3.33Zm-1.27,0A34.81,34.81,0,0,1,78,221.39a2.77,2.77,0,0,1-1.79,1.15c-6.66.08-13.32.05-20.28.05ZM70.32,228l.05.51L68,230l-1.58-2.71ZM77.13,231l-7.09-.6C72.38,228.07,74.64,228.31,77.13,231Zm-2.61-4c1.92-2.6,3.85-3.91,6.87-2.67a29.54,29.54,0,0,0,4.76,1.06c1.74.39,3.48.82,5.22,1.23l-.08.37ZM78,229l11.87,1.71.32.8c-1,.81-2.35,2.51-3,2.28a101.43,101.43,0,0,1-9.37-4.25Zm5-.79h11C90.39,230.95,86.72,228.8,83,228.24Zm9.19,3c.82-1,2.32-1.39,3.54-2a16.49,16.49,0,0,1,1.92-.63L95,237.18C93.44,235.85,91.52,232.09,92.22,231.25Zm3.93,6a39.35,39.35,0,0,1,1.8-5.75l.52.06.84,7.87C97.92,238.58,95.81,239.42,96.16,237.26Zm2.3-10.43L85,218.58l.2-.46,17,3.07Zm3.84-3.79c.19-.28.43-.53.9-1.1l2,3-5,1.43C101.07,224.91,101.67,224,102.29,223Zm-2.35,4.63,5.61-1.64V233Zm5.19,7.88-4.8,3.54-.93-9.48Zm-.73-13.94,4.06.63-2.31,2.12Zm5.26,1.14,2.7,3.61-5.14-1.43ZM106.82,226l6,1.59c-1.57,1.7-2.85,3.09-4.15,4.47-.43.45-.9.86-1.84,1.77Zm2.5-6.51c-4.8,1.79-7.92-.06-11-3.77Zm-14.43-4.67c1.89,1.44,3.72,2.95,5.57,4.43l-.27.43L85.43,217.1l0-.62c2.76-.59,5.51-1.2,8.27-1.76A1.7,1.7,0,0,1,94.89,214.85Zm-5.76-14.07,4.67,11.61-.43.4-9.87-4.06Zm-6.08,9,7.64,3.15-.06.61H82.54Zm3.8,4.77.09.58-4.56,1L82.16,215Zm-15-3.28,10.24-1.58-.63,3.89-9.63-1.82Zm2.52,2.61h-9C67.26,211.89,71.2,211.93,74.34,213.83Zm-11.78,1.45a1.06,1.06,0,0,1,.62-.12l13.18,1.59,0,.56L51.75,222.4l-.25-.56Q57,218.56,62.56,215.28ZM52,208.23l8.38,5.33C54.72,213.55,54,213.1,52,208.23Zm7.36,7-7.56,2.6C54.17,214,56,213.37,59.35,215.25ZM54.59,218l.32.56-5.57,3.36C49.83,218.49,52.8,219.19,54.59,218Zm5.18,8.4,0,.55-11.34,1.65-.49-4.07Zm-12-6c-.6,3.09-.77,3.16-5,1.72Zm-9.22,6.16,0-.44,8.2-1.61.53,4Zm8.21,4.06c-1.34,1.45-2.94,0-4.38.23l-.05-.6,4.37-.34Zm-4.36-7.33.22.89-4.51.87-.18-1Zm-7,3.67,7.33,1.61-.1.62-7.4.7Zm-9,2.12v-.58L34,226.92v2.95Zm4.62,3.06c3.38-1.29,3.64-1.19,5.2,2Zm5.09-.92,8.07,1C39.1,235.52,38.51,235.46,36.15,231.2Zm3.68,4.34,6.71-2.85,1.58,6.11Zm8.2-4.22c.53-1.67,5.12-1.84,8.4-.47Zm.31,16c1.29-3,3.45-2.27,5.24-2.59l.18.5Zm7.2-3.82-5.44.31-.43-3.23,5.93,2.34Zm-7-9.47L57,241.74C50.35,240.62,48.16,238.59,48.5,234Zm.33-1.16.16-.54,17.87-.92-6.32,12Zm19-.76a2,2,0,0,1,1.62-.6c3.69.26,7.4.46,11,1,1.88.29,3.64,1.28,5.46,2l-.06.67-23.41,8A87.78,87.78,0,0,1,67.81,232.11Zm-1.58,11.44-.05-.53c6.79-2.33,13.57-4.67,20.38-6.93a1.82,1.82,0,0,1,1.61.68c.94,1.74,1.7,3.58,2.74,5.88Zm23.33,10.31-.5-.11-1-6.69,4,2.56Zm-1.13-8L92,244.09l.24,4.37ZM92,242.24l-3-6.35c2.61-.63,4.33.36,4.78,2.24.3,1.25-.73,2.82-1.16,4.24Zm1.46,5.62-.62-3.35,2.85-.64Zm0-4.6,1.5-4.06,6.85,2.14ZM104.24,241,101.1,240l4.31-3.21Zm6.86-1.79L105.44,241l1.28-4.76,4.41,2.45Zm1.41-1.08c-1.31-.68-2.32-1.18-3.3-1.72-.22-.12-.37-.38-.83-.89l4.54-.65Zm-4.07-4,4.59-4.2C113.34,233.84,113.29,234.3,108.44,234.14Zm5.25,4.31.38-3.44,4.28,1.42.2.5Zm.71-4.42,3.57-3.35,1.76.78.45,2.21-.45,1.5-.84.5Zm5.33,2.6,1.39-3,3.53-4.71.53,2-3.85,4.92Zm3.44-1.11-.27-.44,1.69-2.25,1.8,1.69Zm4.35-1.35-1.72-2,3.41-.54.23.48Z"/></g><path class="cls-2" d="M217.35,300.34,208.26,303l9.08,8.54Z"/><path class="cls-2" d="M208.9,321.5l7.76-5.74-9.28-9.61Z"/><path class="cls-2" d="M192.48,309.27,192,308l-19.21-2.77-.3.87c5,2.38,10,5,15.18,6.89C188.68,313.33,190.83,310.58,192.48,309.27Z"/><path class="cls-2" d="M213.54,293.72c-.77.93-1.16,1.33-1.46,1.79-1,1.5-2,3-3.52,5.43l8.17-2.31Z"/><path class="cls-2" d="M180.9,303.93c6,.9,11.9,4.38,17.85,0Z"/><path class="cls-2" d="M184.37,287.53l-.32.75,21.81,13.36,6.08-9.14Z"/><path class="cls-2" d="M200.27,318.39l4.34-13.86a26.68,26.68,0,0,0-3.1,1c-2,1-4.41,1.67-5.73,3.25C194.64,310.15,197.74,316.25,200.27,318.39Z"/><path class="cls-2" d="M207.26,322.06l-1.37-12.74-.84-.1c-1,3.1-2.4,6.13-2.91,9.3C201.58,322,205,320.65,207.26,322.06Z"/><path class="cls-2" d="M222.06,294.21l-6.57-1,2.83,4.45Z"/><path class="cls-2" d="M193.29,279.06,180.92,274l-.83,6.09h13.09Z"/><path class="cls-2" d="M187.22,282.61l-.15-.93-7.59.75.34,1.74Z"/><path class="cls-2" d="M179.32,273.8l-16.58,2.57,0,.79,15.59,2.94Z"/><path class="cls-2" d="M130.24,294.46l39.88-8.24,0-.9q-10.67-1.29-21.34-2.57a1.71,1.71,0,0,0-1,.2q-9,5.28-17.91,10.6Z"/><path class="cls-2" d="M152.17,280.59h14.65C161.74,277.52,155.36,277.45,152.17,280.59Z"/><path class="cls-2" d="M223.45,289.79l-17.74-6.11C210.64,289.7,215.68,292.7,223.45,289.79Z"/><path class="cls-2" d="M198.31,278.26l-7.56-18.8-9.13,12.87,16,6.58Z"/><path class="cls-2" d="M184.73,284.88l0,1,23.89,4.23.43-.7c-3-2.41-6-4.85-9-7.18a2.75,2.75,0,0,0-2-.2C193.65,282.94,189.19,283.92,184.73,284.88Z"/><path class="cls-2" d="M222.39,310.14c2.1-2.23,4.17-4.48,6.72-7.24l-9.7-2.57V313C220.94,311.54,221.7,310.87,222.39,310.14Z"/><path class="cls-2" d="M54.9,334.3l.63.52,6.63-6-3.05-2Z"/><path class="cls-2" d="M69.32,320.24v-8.73l-7.41,3.3Z"/><path class="cls-2" d="M62,318l2.17,8.91L69,322.28l-6.24-4.67Z"/><path class="cls-2" d="M68.76,297.65l-.89.34.64,5.8h5.07Z"/><path class="cls-2" d="M65.69,294.41,57,291.54l-.58.68,5,9.36Z"/><path class="cls-2" d="M62.89,302.77l3.39.74v-4.95l-.7-.3Z"/><path class="cls-2" d="M51.17,280.15l-.69.6,3.68,7,2.62-4.33Z"/><path class="cls-2" d="M231.19,311.4l4.46-3.51-4-3.45Z"/><path class="cls-2" d="M63.42,291.06l-5.1-6.52-2.9,4.53,7.38,2.67Z"/><path class="cls-2" d="M177.61,282.26h-12.1C170.15,284.63,176.49,284.69,177.61,282.26Z"/><path class="cls-2" d="M169.85,294.68a4.49,4.49,0,0,0,2.89-1.86,56.35,56.35,0,0,0,3.38-6L137,294.76C148.28,294.76,159.07,294.81,169.85,294.68Z"/><path class="cls-2" d="M160.41,304.29l-.09-.82-6.34-1,2.56,4.38Z"/><path class="cls-2" d="M159.87,307.49l11.47,1C167.31,304,163.65,303.64,159.87,307.49Z"/><path class="cls-2" d="M198.73,300.32l.34-.77-20.91-12.79-4.36,8.17Z"/><path class="cls-2" d="M245.94,305.24l-5.08.23.4,4.83Z"/><path class="cls-2" d="M194.41,301.32c-2.82-.67-5.63-1.36-8.45-2-2.57-.58-5.31-.73-7.71-1.72-4.9-2-8,.1-11.13,4.32h27.16Z"/><path class="cls-2" d="M169.06,296.92H136.74l-.1,1c3.77.66,7.53,1.35,11.31,2,3.63.57,7.4.61,10.87,1.66C163.73,303,166.26,300.33,169.06,296.92Z"/><path class="cls-2" d="M147.93,302.67c-4.12.88-8.33,1.34-12.5,2l.14.88,18.36,1.5C153,303.46,151.45,301.91,147.93,302.67Z"/><path class="cls-2" d="M224,295l-3.94,3.53,8.32,2.31Z"/><path class="cls-2" d="M189.64,332.52l6.18,4.14-.39-7.08Z"/><path class="cls-2" d="M190.66,345.22l.8.18,4-6.87L189,334.39Z"/><path class="cls-2" d="M198.28,319.93c-.74-3-3.52-4.65-7.75-3.62l4.81,10.28,1.06.21C197.11,324.49,198.77,321.95,198.28,319.93Z"/><path class="cls-2" d="M215.23,324.62l1.9-6.91-7,5.2Z"/><path class="cls-2" d="M125.77,310.54l-.25.87,19,17.15,10.23-19.51Z"/><path class="cls-2" d="M189.21,317.72a2.94,2.94,0,0,0-2.61-1.09c-11,3.65-22,7.45-33,11.22l.09.86,39.95-1.47C192,323.53,190.73,320.55,189.21,317.72Z"/><path class="cls-2" d="M185.6,314c-2.94-1.09-5.8-2.71-8.84-3.17-5.91-.91-11.91-1.22-17.88-1.64a3.28,3.28,0,0,0-2.63,1A142.11,142.11,0,0,0,147.61,328l37.9-12.93Z"/><path class="cls-2" d="M223.28,317.19c1.59.88,3.22,1.69,5.34,2.79l.67-5.27-7.35,1.05C222.69,316.57,222.92,317,223.28,317.19Z"/><path class="cls-2" d="M231.14,314.87l-.61,5.57,7.86-2.47-.32-.8Z"/><path class="cls-2" d="M222,313.47c7.85.26,7.93-.48,7.43-6.81Z"/><path class="cls-2" d="M217.18,324.52l9.16-2.8.06-.93-7.14-4Z"/><path class="cls-2" d="M245.45,315l.43.71,5.22-1.61-2.92-2.74Z"/><path class="cls-2" d="M144.21,280.15l-13.57-8.62C133.91,279.41,135.06,280.13,144.21,280.15Z"/><path class="cls-2" d="M138.78,325.77,125,313.29C124.44,320.68,128,324,138.78,325.77Z"/><path class="cls-2" d="M255.66,309.44l-5.51.87,2.78,3.21,3.09-3.3Z"/><path class="cls-2" d="M115.52,297.32l-.36-1.44-7.23,1.31.28,1.54Z"/><path class="cls-2" d="M123.87,291.2l-8,2.78C122.61,296.32,122.9,296.21,123.87,291.2Z"/><path class="cls-2" d="M122.16,297.85l-13.27,2.6,0,.72L123,304.31Z"/><path class="cls-2" d="M115.14,308.11c2.34-.42,4.93,2,7.09-.37l-.1-1.14-7.07.54Z"/><path class="cls-2" d="M130.32,287.09l12.24-4.21C137.05,279.84,134.17,280.79,130.32,287.09Z"/><path class="cls-2" d="M127.58,329.12l8.81-.5.08-1-9.59-3.78Z"/><path class="cls-2" d="M143.2,301.77l0-.89-19.19-3,.8,6.58Z"/><path class="cls-2" d="M134.84,287.27c-2.9,2-7.71.86-8.49,6.35l9-5.45Z"/><path class="cls-2" d="M115.74,304.42l-11.87-2.6-.27,4.74,12-1.13Z"/><path class="cls-2" d="M105,308.7c3.83,6.9,4.79,7,13.07,1.58Z"/><path class="cls-2" d="M110.94,315.73,124.37,321l-2.56-9.9Z"/><path class="cls-2" d="M124.73,334.82l8.77-3.39-.28-.81C130.31,331.13,126.82,329.91,124.73,334.82Z"/><path class="cls-2" d="M124.22,308.9l13.59-.77C132.5,305.92,125.07,306.19,124.22,308.9Z"/><path class="cls-2" d="M96.74,310.2l8.42,3.17C102.64,308.27,102.21,308.1,96.74,310.2Z"/><path class="cls-2" d="M101.51,301.78l-12.23,2.53v.93l12.25,1.31Z"/><path class="cls-3" d="M254.14,307.43a19.88,19.88,0,0,0,2.38-1.77c1-1.09,3-2.77,2.7-3.31a7.28,7.28,0,0,0-3.69-3.42c-9.88-3.53-19.84-6.82-29.78-10.2-7.2-2.45-14.37-5-21.62-7.3a6.33,6.33,0,0,1-4.42-4.26c-2.58-6.75-5.4-13.4-8.54-21.1-2.49,3.42-4.76,5.86-6.24,8.71-3.06,5.9-7.65,8.66-14.26,8.78-3.43.06-6.83,1.12-10.27,1.44-3.69.35-7,1.39-9.67,4-1.64,1.63-3,1.32-4.83.15-5.1-3.36-10.32-6.55-15.51-9.78-1-.63-2.11-1.13-3.17-1.68l-1,.85c1.23,2,2.43,4.11,3.68,6.14,3.41,5.56,3.17,5.37-.81,10.56-2.32,3-4.95,3.34-8.13,2.75-2.36-.44-4.42-.67-3.81,3.06-1.66-.08-2.89-.15-4.13-.18s-2.29,0-3.65,0l-.92,3.41a34.7,34.7,0,0,0-5.79.43c-1.34.31-2.45,1.49-3.75,2.07a14.27,14.27,0,0,1-3.72,1.1c-2.41.35-5.32-1-6.61,2.72-.23.67-3.15.52-4.83.55s-3-.09-4.09,2.05c-1.21,2.36-3.34,1-4.69-.62-3.71-4.57-7.6-9-11-13.83a31.93,31.93,0,0,0-13.82-11,32,32,0,0,0-3.71-1c1.12,2.29,1.72,3.61,2.39,4.88,3.43,6.54,6.78,13.12,10.34,19.58,2.39,4.34.1,8.58.15,12.86.1,8.78-3.51,16.28-8.2,23.4-.71,1.07-1.22,2.27-1.82,3.4l.87.76a20.7,20.7,0,0,0,2.46-1.69c5.7-5.22,11.69-10.18,16.9-15.85,2.51-2.73,3.64-6.79,5.23-10.31s4-4.05,6.95-1.32a3.38,3.38,0,0,0,2.68.4,47.39,47.39,0,0,0,5.15-1.93c1.26,6.21,5.37,2.42,8.67,2.44.64,3.35,3.1,3.41,5.78,3.25,1.91-.12,4.06-.51,4.75,2.17,0,.17.33.34.53.4,4.07,1.24,8.17,2.41,12.21,3.73,1.28.42,3.31,1,3.48,1.89.44,2.16,2.07,4.56-.36,6.76a19.5,19.5,0,0,0-4.45,6.12,7.42,7.42,0,0,0,2.63-.31c12.26-6.67,25.63-7,39.09-7.17,8.76-.1,17.51-.73,26.27-1.11a9,9,0,0,1,2.83.32c-5.45,2-3.69,5.79-3.09,9.29.42,2.5.75,5,1.22,7.51.21,1.16.64,2.28,1.26,4.4,1.21-1.88,1.91-2.86,2.49-3.91,2.92-5.24,5.71-10.55,8.8-15.69a6.3,6.3,0,0,1,3.64-2.5c4.44-1.06,9.07-1.44,13.45-2.7,10.63-3,21.15-6.5,31.75-9.64,4.54-1.34,6.8-5.11,9.67-8.71ZM66.28,303.51l-3.39-.74,2.69-4.51.7.3Zm2.6,3.26v2.08l-6.58,2.77V305Zm-18.4-26,.69-.6,5.61,3.22-2.62,4.33Zm7.84,3.79,5.1,6.52-.61.67-7.38-2.67Zm-1.92,7.69.58-.68,8.71,2.87-4.31,7.18Zm-.88,42.59-.63-.52,4.2-7.47,3.05,2Zm3.66-9.7,1.56-5.37L62.3,327Zm5,1.78L62,318l.78-.37L69,322.28Zm5.18-6.65-7.41-5.43,7.41-3.3Zm-.81-16.45-.64-5.8.89-.34,4.82,6.14Zm2.79,14.75V306.77h3.12Zm184.42-18.18.87,3-5.19,3.45-2.25-8.48Zm-9-2.08.69,4.24-22-11.86ZM234.22,305h5.43v2.37Zm1.43,2.86-4.46,3.51.46-7Zm-3.27-4.58,4-5.5,9.12,6.23Zm13.56,1.92-4.69,5.06-.4-4.83Zm-21.79-14.06L235,297.24l-3.35,5.38-8.2-10.46ZM148,299.85c-3.78-.6-7.54-1.3-11.31-2l.1-1h32.31c-2.8,3.41-5.33,6.08-10.23,4.6C155.35,300.46,151.58,300.43,148,299.85Zm6,7.17-18.36-1.5-.14-.88c4.17-.64,8.38-1.1,12.5-2C151.45,301.91,153,303.46,153.93,307Zm11.59-24.75h12.1C176.49,284.69,170.15,284.63,165.52,282.26Zm12.65,4.5,20.91,12.79-.34.77-24.93-5.39Zm-2.05.06a56.35,56.35,0,0,1-3.38,6,4.49,4.49,0,0,1-2.89,1.86c-10.78.13-21.56.08-32.84.08Zm-15.8,16.64.09.82-3.87,2.52L154,302.43Zm11,5-11.47-1C163.65,303.64,167.31,304,171.34,308.47Zm-4.23-6.55c3.1-4.22,6.23-6.34,11.13-4.32,2.4,1,5.14,1.14,7.71,1.72,2.82.64,5.64,1.33,8.45,2l-.13.6Zm5.63,3.28L192,308l.52,1.3c-1.65,1.31-3.8,4.07-4.86,3.69-5.22-1.84-10.15-4.51-15.18-6.89Zm8.16-1.27h17.85C192.8,308.3,186.87,304.83,180.9,303.93Zm14.87,4.87c1.32-1.58,3.75-2.25,5.73-3.25a26.68,26.68,0,0,1,3.1-1l-4.34,13.86C197.74,316.25,194.64,310.15,195.78,308.8Zm6.37,9.73c.51-3.18,1.9-6.21,2.91-9.3l.84.1,1.37,12.74C205,320.65,201.58,322,202.14,318.52Zm3.72-16.88L184,288.28l.32-.75,27.58,5Zm6.21-6.13c.3-.46.69-.85,1.46-1.79l3.18,4.9-8.17,2.31C210.11,298.53,211.07,297,212.07,295.51Zm-3.81,7.5,9.08-2.66v11.21Zm8.4,12.76-7.76,5.74-1.51-15.34Zm-1.18-22.57,6.57,1-3.74,3.43ZM224,295l4.38,5.84-8.32-2.31Zm-4.61,5.3,9.7,2.57c-2.55,2.75-4.62,5-6.72,7.24-.69.73-1.45,1.4-3,2.86Zm4.05-10.54c-7.78,2.91-12.82-.09-17.74-6.11Zm-23.37-7.56c3.05,2.33,6,4.77,9,7.18l-.43.7-23.89-4.23,0-1c4.46-1,8.92-1.94,13.39-2.85A2.75,2.75,0,0,1,200.09,282.23Zm-9.33-22.77,7.56,18.8-.7.65-16-6.58ZM180.92,274l12.37,5.1-.1,1H180.09Zm6.16,7.72.15.93-7.39,1.56-.34-1.74Zm-24.34-5.31,16.58-2.57-1,6.29-15.59-2.94Zm4.08,4.22H152.17C155.36,277.45,161.74,277.52,166.82,280.59Zm-19.07,2.35a1.71,1.71,0,0,1,1-.2q10.67,1.27,21.34,2.57l0,.9-39.88,8.24-.4-.91Q138.8,288.24,147.75,282.94Zm-17.11-11.42,13.57,8.62C135.06,280.13,133.91,279.41,130.64,271.53Zm11.91,11.36-12.24,4.21C134.17,280.79,137.05,279.84,142.55,282.88Zm-7.71,4.39.52.9-9,5.45C127.13,288.13,131.94,289.26,134.84,287.27Zm8.39,13.61,0,.89-18.36,2.67-.8-6.58Zm-19.37-9.68c-1,5-1.25,5.12-8,2.78Zm-14.93,10,0-.72,13.27-2.6.86,6.45Zm13.29,6.57c-2.16,2.35-4.75-.05-7.09.37l-.08-1,7.07-.54Zm-7.06-11.86.36,1.44-7.31,1.41-.28-1.54Zm-11.3,5.94,11.87,2.6-.16,1-12,1.13Zm-14.59,3.43v-.93l12.23-2.53v4.78Zm7.47,5c5.47-2.1,5.9-1.93,8.42,3.17ZM105,308.7l13.07,1.58C109.77,315.7,108.81,315.6,105,308.7Zm6,7,10.87-4.61,2.56,9.9Zm13.28-6.83c.85-2.71,8.28-3,13.59-.77Zm.51,25.92c2.09-4.91,5.58-3.68,8.48-4.19l.28.81Zm11.66-6.19-8.81.5-.7-5.24,9.59,3.78ZM125,313.29l13.8,12.48C128,324,124.44,320.68,125,313.29Zm.53-1.88.25-.87,28.93-1.49-10.23,19.51Zm30.73-1.22a3.28,3.28,0,0,1,2.63-1c6,.43,12,.74,17.88,1.64,3,.47,5.9,2.08,8.84,3.17l-.09,1.09L147.61,328A142.11,142.11,0,0,1,156.25,310.19Zm-2.55,18.52-.09-.86c11-3.77,22-7.57,33-11.22a2.94,2.94,0,0,1,2.61,1.09c1.52,2.82,2.74,5.8,4.44,9.52Zm37.77,16.69-.8-.18L189,334.39l6.45,4.14Zm-1.82-12.88,5.79-2.94.39,7.08Zm5.7-5.94-4.81-10.28c4.22-1,7,.58,7.75,3.62.49,2-1.18,4.56-1.88,6.87Zm2.37,9.1-1-5.43,4.62-1Zm0-7.45,2.42-6.58,11.08,3.46Zm17.52-3.61-5.08-1.71,7-5.2Zm11.11-2.9-9.16,2.8,2.08-7.7,7.14,4Zm2.28-1.74c-2.13-1.1-3.75-1.91-5.34-2.79-.36-.2-.59-.62-1.34-1.44l7.35-1.05ZM222,313.47l7.43-6.81C230,313,229.89,313.73,222,313.47Zm8.49,7,.61-5.57,6.93,2.3.32.8Zm1.16-7.15,5.77-5.43,2.86,1.27.72,3.58-.72,2.42-1.35.81Zm8.63,4.21,2.25-4.85,5.71-7.62.87,3.29-6.23,8Zm5.57-1.8-.43-.71,2.73-3.65,2.92,2.74Zm7.05-2.19-2.78-3.21,5.51-.87.36.78Z"/><path class="cls-2" d="M193.07,411.21l-5.61,1.64,5.61,5.28Z"/><path class="cls-2" d="M190.71,407.12c-.48.58-.72.82-.9,1.1-.62.93-1.21,1.87-2.18,3.35l5-1.43Z"/><path class="cls-2" d="M196,407.42l-4.06-.63,1.75,2.75Z"/><path class="cls-2" d="M187.85,424.28l4.8-3.54-5.73-5.93Z"/><path class="cls-2" d="M182.52,422.36l2.68-8.56a16.48,16.48,0,0,0-1.92.63c-1.22.62-2.72,1-3.54,2S181,421,182.52,422.36Z"/><path class="cls-2" d="M177.71,416.72l-.32-.8-11.87-1.71-.18.54a101.43,101.43,0,0,0,9.37,4.25C175.36,419.23,176.69,417.53,177.71,416.72Z"/><path class="cls-2" d="M186.83,424.62l-.84-7.87-.52-.06a39.35,39.35,0,0,0-1.8,5.75C183.33,424.6,185.44,423.76,186.83,424.62Z"/><path class="cls-2" d="M172.7,403.3l-.2.46L186,412l3.76-5.64Z"/><path class="cls-2" d="M170.56,413.43c3.68.56,7.35,2.7,11,0Z"/><path class="cls-2" d="M174.46,400.26l-.09-.58-4.69.46.21,1.07Z"/><path class="cls-2" d="M181.31,397.57,176.64,386l-5.64,8,9.87,4.06Z"/><path class="cls-2" d="M178.2,398.07l-7.64-3.15-.51,3.76h8.08Z"/><path class="cls-2" d="M169.58,394.82l-10.24,1.58,0,.49,9.63,1.82Z"/><path class="cls-2" d="M197.18,407.94l-2.43,2.18,5.14,1.43Z"/><path class="cls-2" d="M196.18,417.26c1.3-1.38,2.57-2.77,4.15-4.47l-6-1.59V419C195.28,418.13,195.76,417.72,196.18,417.26Z"/><path class="cls-2" d="M172.92,401.66l0,.62,14.76,2.61.27-.43c-1.85-1.49-3.69-3-5.57-4.43a1.7,1.7,0,0,0-1.21-.13C178.43,400.46,175.68,401.07,172.92,401.66Z"/><path class="cls-2" d="M196.84,404.7l-11-3.77C188.92,404.64,192,406.49,196.84,404.7Z"/><path class="cls-2" d="M97.1,422.11l1.34,5.51,3-2.85-3.85-2.88Z"/><path class="cls-2" d="M152.81,399h9C158.72,397.11,154.78,397.07,152.81,399Z"/><path class="cls-2" d="M101.64,423.5v-5.39l-4.58,2Z"/><path class="cls-2" d="M178.9,411.81c-1.74-.41-3.48-.84-5.22-1.23a29.55,29.55,0,0,1-4.76-1.06c-3-1.24-5,.06-6.87,2.67h16.78Z"/><path class="cls-2" d="M92.73,432.19l.39.32,4.09-3.72-1.89-1.21Z"/><path class="cls-2" d="M90.42,398.74l-.43.37,2.27,4.29,1.62-2.68Z"/><path class="cls-2" d="M201.62,418l2.76-2.17-2.47-2.13Z"/><path class="cls-2" d="M99.39,407.55,94,405.78l-.36.42L96.73,412Z"/><path class="cls-2" d="M97.66,412.71l2.09.45v-3.06l-.44-.19Z"/><path class="cls-2" d="M98,405.48l-3.15-4-1.79,2.8,4.56,1.65Z"/><path class="cls-2" d="M101.29,409.55l-.55.21.39,3.58h3.13Z"/><path class="cls-2" d="M181.57,411.2l.21-.48-12.91-7.9-2.7,5Z"/><path class="cls-2" d="M163.73,407.71a2.77,2.77,0,0,0,1.79-1.15,34.8,34.8,0,0,0,2.09-3.71l-24.15,4.9C150.41,407.76,157.07,407.79,163.73,407.71Z"/><path class="cls-2" d="M210.72,414.23l-3.14.14.25,3Z"/><path class="cls-2" d="M157.56,415.63l7.09.6C162.16,413.49,159.9,413.25,157.56,415.63Z"/><path class="cls-2" d="M157.9,413.65l-.05-.51-3.92-.64,1.58,2.71Z"/><path class="cls-2" d="M168.52,400h-7.47C163.92,401.51,167.83,401.54,168.52,400Z"/><path class="cls-2" d="M163.24,409.1h-20l-.06.61c2.33.4,4.65.84,7,1.21a50.36,50.36,0,0,1,6.71,1C159.95,412.85,161.51,411.2,163.24,409.1Z"/><path class="cls-2" d="M150.19,412.65c-2.54.54-5.14.82-7.72,1.22l.08.54,11.34.92C153.33,413.13,152.37,412.18,150.19,412.65Z"/><path class="cls-2" d="M129.93,416c1.44-.26,3,1.22,4.38-.23l-.06-.7-4.37.34Z"/><path class="cls-2" d="M176,431.09l3.82,2.56-.24-4.37Z"/><path class="cls-2" d="M176.58,438.93l.5.11,2.45-4.24-4-2.56Z"/><path class="cls-2" d="M181.29,423.31c-.46-1.88-2.18-2.87-4.78-2.24l3,6.35.66.13C180.56,426.13,181.59,424.56,181.29,423.31Z"/><path class="cls-2" d="M136.5,417.51l-.16.54,11.71,10.59,6.32-12Z"/><path class="cls-2" d="M175.68,421.95a1.82,1.82,0,0,0-1.61-.68c-6.81,2.26-13.59,4.6-20.38,6.93l.05.53,24.67-.91C177.38,425.53,176.63,423.69,175.68,421.95Z"/><path class="cls-2" d="M196,419.32c4.85.16,4.9-.3,4.59-4.2Z"/><path class="cls-2" d="M216.73,416.83l-3.4.54,1.72,2,1.91-2Z"/><path class="cls-2" d="M210.42,420.26l.27.44,3.22-1-1.8-1.69Z"/><path class="cls-2" d="M139.27,407.58l24.63-5.09,0-.56-13.18-1.59a1.06,1.06,0,0,0-.62.12Q144.54,403.73,139,407Z"/><path class="cls-2" d="M201.58,420.18l-.38,3.44,4.85-1.52-.2-.5Z"/><path class="cls-2" d="M191.76,426.21l1.17-4.27-4.31,3.21Z"/><path class="cls-2" d="M193,426.15l5.66-1.73,0-.57-4.41-2.45Z"/><path class="cls-2" d="M196.73,421.62c1,.54,2,1,3.3,1.72l.41-3.26-4.54.65C196.36,421.24,196.51,421.5,196.73,421.62Z"/><path class="cls-2" d="M144.54,426.92,136,419.21C135.68,423.77,137.86,425.81,144.54,426.92Z"/><path class="cls-2" d="M173.46,419.67c-1.82-.68-3.58-1.67-5.46-2-3.65-.56-7.36-.75-11-1a2,2,0,0,0-1.62.6,87.78,87.78,0,0,0-5.34,11l23.41-8Z"/><path class="cls-2" d="M135.33,405.56l-5,1.72C134.55,408.73,134.73,408.66,135.33,405.56Z"/><path class="cls-2" d="M137.62,429l5.44-.31.05-.59-5.93-2.34Z"/><path class="cls-2" d="M147.27,412.09l0-.55-11.85-1.86.49,4.07Z"/><path class="cls-2" d="M134.27,409.67l-8.2,1.61,0,.44,8.7,1.94Z"/><path class="cls-2" d="M142.11,403.14c-1.79,1.23-4.76.53-5.24,3.92l5.57-3.36Z"/><path class="cls-2" d="M147.89,398.74l-8.38-5.33C141.53,398.28,142.24,398.73,147.89,398.74Z"/><path class="cls-2" d="M139.31,403l7.56-2.6C143.47,398.55,141.69,399.14,139.31,403Z"/><path class="cls-2" d="M130.17,409.34l-.22-.89-4.46.81.18,1Z"/><path class="cls-2" d="M123.67,416.38c2.36,4.26,3,4.32,8.07,1Z"/><path class="cls-2" d="M127.34,420.72l8.29,3.27-1.58-6.11Z"/><path class="cls-2" d="M118.57,417.3l5.2,2C122.22,416.11,122,416,118.57,417.3Z"/><path class="cls-2" d="M130.3,413.73,123,412.12l-.16,2.93,7.4-.7Z"/><path class="cls-2" d="M135.54,416.5l8.4-.47C140.66,414.66,136.07,414.82,135.54,416.5Z"/><path class="cls-2" d="M135.86,432.5l5.41-2.09-.18-.5C139.31,430.23,137.15,429.47,135.86,432.5Z"/><path class="cls-2" d="M121.52,412.1,114,413.66v.58l7.56.81Z"/><path class="cls-4" d="M215.79,415.59a12.28,12.28,0,0,0,1.47-1.09c.63-.67,1.83-1.71,1.67-2a4.5,4.5,0,0,0-2.28-2.11c-6.1-2.18-12.26-4.22-18.39-6.3-4.45-1.51-8.88-3.1-13.36-4.51a3.91,3.91,0,0,1-2.73-2.63c-1.59-4.17-3.34-8.28-5.27-13a47.8,47.8,0,0,0-3.85,5.38,9.3,9.3,0,0,1-8.81,5.42c-2.12,0-4.22.69-6.35.89a9.3,9.3,0,0,0-6,2.48c-1,1-1.88.82-3,.09-3.15-2.08-6.37-4-9.58-6-.63-.39-1.3-.7-2-1l-.61.52c.76,1.27,1.5,2.54,2.28,3.8,2.11,3.44,2,3.31-.5,6.52-1.44,1.87-3.06,2.07-5,1.7-1.46-.27-2.73-.42-2.35,1.89-1,0-1.79-.09-2.55-.11s-1.41,0-2.26,0l-.57,2.1a21.43,21.43,0,0,0-3.58.27,15.08,15.08,0,0,0-2.32,1.28,8.81,8.81,0,0,1-2.3.68c-1.49.22-3.28-.62-4.08,1.68-.14.41-1.95.32-3,.34s-1.85-.06-2.53,1.27-2.06.64-2.89-.38c-2.29-2.82-4.69-5.57-6.77-8.54a19.72,19.72,0,0,0-8.54-6.82,19.75,19.75,0,0,0-2.29-.62c.69,1.42,1.06,2.23,1.47,3,2.12,4,4.19,8.1,6.39,12.09,1.48,2.68.06,5.3.09,7.94.06,5.42-2.17,10.05-5.07,14.45-.44.66-.75,1.4-1.12,2.1l.54.47a12.8,12.8,0,0,0,1.52-1c3.52-3.22,7.22-6.29,10.44-9.79,1.55-1.69,2.25-4.19,3.23-6.37s2.44-2.5,4.29-.82a2.09,2.09,0,0,0,1.66.25,29.27,29.27,0,0,0,3.18-1.19c.78,3.84,3.32,1.5,5.36,1.51.39,2.07,1.92,2.11,3.57,2,1.18-.07,2.51-.31,2.94,1.34,0,.11.2.21.33.25,2.51.77,5,1.49,7.54,2.3.79.26,2,.65,2.15,1.17.27,1.33,1.28,2.81-.22,4.18a12,12,0,0,0-2.75,3.78,4.58,4.58,0,0,0,1.62-.19c7.57-4.12,15.83-4.33,24.15-4.43,5.41-.06,10.82-.45,16.22-.69a5.59,5.59,0,0,1,1.75.2c-3.37,1.22-2.28,3.57-1.91,5.74.26,1.54.47,3.1.75,4.64.13.72.4,1.41.78,2.72.74-1.16,1.18-1.77,1.54-2.41,1.81-3.24,3.53-6.52,5.43-9.69a3.89,3.89,0,0,1,2.25-1.55c2.74-.66,5.6-.89,8.31-1.66,6.57-1.88,13.06-4,19.61-6,2.8-.83,4.2-3.16,6-5.38Zm-116-2.42-2.09-.45,1.66-2.79.44.19Zm1.61,2v1.28l-4.06,1.71v-4.06ZM90,399.11l.43-.37,3.47,2-1.62,2.68Zm4.84,2.34,3.15,4-.38.42-4.56-1.65Zm-1.19,4.75.36-.42,5.38,1.77L96.73,412Zm-.54,26.31-.39-.32,2.59-4.61,1.89,1.21Zm2.26-6,1-3.32,1,4.49Zm3.06,1.1-1.34-5.51.48-.23,3.85,2.88Zm3.2-4.11-4.58-3.36,4.58-2Zm-.5-10.16-.39-3.58.55-.21,3,3.79Zm1.72,9.11v-7.27h1.93Zm113.91-11.23.53,1.83-3.21,2.13-1.39-5.24Zm-5.56-1.28.43,2.62-13.58-7.33Zm-7.72,4.17h3.35v1.46Zm.88,1.77L201.62,418l.28-4.3Zm-2-2.83,2.49-3.4,5.63,3.85Zm8.37,1.18-2.89,3.13-.25-3Zm-13.46-8.68L204,409.3l-2.07,3.33-5.06-6.46Zm-47.06,5.36c-2.33-.37-4.66-.8-7-1.21l.06-.61h20c-1.73,2.11-3.29,3.76-6.32,2.84A50.36,50.36,0,0,0,150.2,410.91Zm3.69,4.43-11.34-.92-.08-.54c2.58-.4,5.18-.68,7.72-1.22C152.37,412.18,153.33,413.13,153.89,415.33ZM161.05,400h7.47C167.83,401.54,163.92,401.51,161.05,400Zm7.81,2.78,12.91,7.9-.21.48-15.4-3.33Zm-1.27,0a34.8,34.8,0,0,1-2.09,3.71,2.77,2.77,0,0,1-1.79,1.15c-6.66.08-13.32.05-20.28.05Zm-9.76,10.28.05.51-2.39,1.56-1.58-2.71Zm6.81,3.09-7.09-.6C159.9,413.25,162.16,413.49,164.65,416.23Zm-2.61-4c1.92-2.6,3.85-3.91,6.87-2.67a29.55,29.55,0,0,0,4.76,1.06c1.74.39,3.48.82,5.22,1.23l-.08.37Zm3.48,2,11.87,1.71.32.8c-1,.81-2.35,2.51-3,2.28a101.43,101.43,0,0,1-9.37-4.25Zm5-.79h11C177.91,416.13,174.24,414,170.56,413.43Zm9.19,3c.82-1,2.31-1.39,3.54-2a16.48,16.48,0,0,1,1.92-.63l-2.68,8.56C181,421,179,417.27,179.74,416.43Zm3.93,6a39.35,39.35,0,0,1,1.8-5.75l.52.06.84,7.87C185.44,423.76,183.33,424.6,183.67,422.44ZM186,412l-13.47-8.25.2-.46,17,3.07Zm3.84-3.79c.19-.28.43-.53.9-1.1l2,3-5,1.43C188.59,410.09,189.19,409.15,189.81,408.22Zm-2.35,4.63,5.61-1.64v6.92Zm5.19,7.88-4.8,3.54-.93-9.48Zm-.73-13.94,4.06.63-2.31,2.12Zm5.26,1.14,2.7,3.61-5.14-1.43Zm-2.84,3.27,6,1.59c-1.57,1.7-2.85,3.09-4.15,4.47-.43.45-.9.86-1.84,1.77Zm2.5-6.51c-4.8,1.79-7.92-.06-11-3.77ZM182.41,400c1.89,1.44,3.72,2.95,5.57,4.43l-.27.43L173,402.28l0-.62c2.76-.59,5.51-1.2,8.27-1.76A1.7,1.7,0,0,1,182.41,400ZM176.64,386l4.67,11.61-.43.4L171,393.91Zm-6.08,9,7.64,3.15-.06.61h-8.08Zm3.8,4.77.09.58-4.56,1-.21-1.07Zm-15-3.28,10.24-1.58-.63,3.89-9.63-1.82Zm2.52,2.61h-9C154.78,397.07,158.72,397.11,161.86,399Zm-11.78,1.45a1.06,1.06,0,0,1,.62-.12l13.18,1.59,0,.56-24.63,5.09L139,407Q144.55,403.74,150.08,400.47Zm-10.57-7.05,8.38,5.33C142.24,398.73,141.53,398.28,139.51,393.41Zm7.36,7-7.56,2.6C141.69,399.14,143.47,398.55,146.87,400.43Zm-4.76,2.71.32.56-5.57,3.36C137.34,403.67,140.32,404.37,142.11,403.14Zm5.18,8.4,0,.55-11.34,1.65-.49-4.07Zm-12-6c-.6,3.09-.77,3.16-5,1.72Zm-9.22,6.16,0-.44,8.2-1.61.53,4Zm8.21,4.06c-1.34,1.45-2.94,0-4.38.23l-.05-.6,4.37-.34Zm-4.36-7.33.22.89-4.51.87-.18-1Zm-7,3.67,7.33,1.61-.1.62-7.4.7Zm-9,2.12v-.58l7.56-1.56v2.95Zm4.62,3.06c3.38-1.29,3.64-1.19,5.2,2Zm5.09-.92,8.07,1C126.62,420.7,126,420.64,123.67,416.38Zm3.68,4.34,6.71-2.85,1.58,6.11Zm8.2-4.22c.53-1.67,5.12-1.84,8.4-.47Zm.31,16c1.29-3,3.45-2.27,5.24-2.59l.18.5Zm7.2-3.82-5.44.31-.43-3.23,5.93,2.34Zm-7-9.47,8.52,7.71C137.86,425.81,135.68,423.77,136,419.21Zm.33-1.16.16-.54,17.87-.92-6.32,12Zm19-.76a2,2,0,0,1,1.62-.6c3.69.26,7.4.46,11,1,1.88.29,3.64,1.28,5.46,2l-.06.67-23.41,8A87.78,87.78,0,0,1,155.33,417.29Zm-1.58,11.44-.05-.53c6.79-2.33,13.57-4.67,20.38-6.93a1.82,1.82,0,0,1,1.61.68c.94,1.74,1.7,3.58,2.74,5.88ZM177.08,439l-.5-.11-1-6.69,4,2.56Zm-1.13-8,3.58-1.82.24,4.37Zm3.52-3.67-3-6.35c2.61-.63,4.33.36,4.78,2.24.3,1.25-.73,2.82-1.16,4.24Zm1.46,5.62-.62-3.35,2.85-.64Zm0-4.6,1.5-4.06,6.85,2.14Zm10.82-2.23-3.14-1.05,4.31-3.21Zm6.86-1.79L193,426.15l1.28-4.76,4.41,2.45Zm1.41-1.08c-1.31-.68-2.32-1.18-3.3-1.72-.22-.12-.37-.38-.83-.89l4.54-.65Zm-4.07-4,4.59-4.2C200.86,419,200.81,419.48,196,419.32Zm5.25,4.31.38-3.44,4.28,1.42.2.5Zm.71-4.42,3.57-3.35,1.76.78.45,2.21-.45,1.5-.84.5Zm5.33,2.6,1.39-3,3.53-4.71.53,2-3.85,4.92Zm3.44-1.11-.27-.44,1.69-2.25,1.8,1.69Zm4.35-1.35-1.72-2,3.4-.54.23.48Z"/><circle class="cls-5" cx="168.53" cy="151.47" r="19.94"/><circle class="cls-6" cx="178.32" cy="75.79" r="6.65"/><circle class="cls-7" cx="112.64" cy="30.62" r="30.62"/></g></g></svg>