<svg xmlns="http://www.w3.org/2000/svg" xmlns:xlink="http://www.w3.org/1999/xlink" viewBox="0 0 1444.58 221.26"><defs><style>.cls-1{fill:none;}.cls-2{clip-path:url(#clip-path);}.cls-3{fill:#424242;}.cls-4{fill:#f5f5f5;}.cls-5{opacity:0.5;}.cls-6{fill:#5e6062;}.cls-7{fill:#fff;}</style><clipPath id="clip-path" transform="translate(0 -26.79)"><rect class="cls-1" x="50.86" width="277.08" height="183.24" transform="translate(378.8 183.24) rotate(-180)"/></clipPath></defs><title>snowscape</title><g id="Layer_2" data-name="Layer 2"><g id="Layer_16" data-name="Layer 16"><g class="cls-2"><path class="cls-3" d="M60.76,157.42a.64.64,0,0,0,.13.14.25.25,0,0,0,.3.15l.06,0h.11l12.82,5.23c2,.9,4,1.78,6,2.63l3,1.29c3.23,1.41,6.57,2.87,9.88,3.94a.22.22,0,0,0,.12,0l.15,0,.07.07a.25.25,0,0,0,.19,0l.1,0a.24.24,0,0,0,.13,0l0,0,3-.75a114.68,114.68,0,0,0,13.27-3l2.53-.7,3.83-1.06,1.24,5.34a.25.25,0,0,0,.11.16l0,0V171a.25.25,0,0,0,.07.18.25.25,0,0,0,.18.08l18.59.26h0a.25.25,0,0,0,.25-.21l.43-.16a.25.25,0,0,0,.14-.13.25.25,0,0,0,0-.19L136,167a.25.25,0,0,0-.32-.15l-.15.05-6.36-4.94-.94-9.42,13.37-19.1,17.27-4.82.4,1.09-5.81,15.94a.26.26,0,0,0,0,.07l-.09,0a.25.25,0,0,0-.14.32L163,171a.25.25,0,0,0,.19.16l0,.05a.25.25,0,0,0,.16.11l10.58,2a.26.26,0,0,0,.06.08.21.21,0,0,0,.19.07l1.15-.07,13.44-.77a.25.25,0,0,0,.17-.08.25.25,0,0,0,.06-.18v-.11l.29-.19a.25.25,0,0,0,.08-.35l-2.56-4,0-.15a.25.25,0,0,0-.18-.3l-.17,0,0-.07a.25.25,0,0,0-.35-.07l-.06,0-7.67-1.82-7.37-4-3.81-9.73,5.64-16.29,12.34-13.83a.25.25,0,0,0,.06-.19.25.25,0,0,0,.07-.2l-.76-6.77,13.61,8,.11,0a.25.25,0,0,0,.13,0l26.29,1.23L226.13,138l-1.74,3.15-.13,0a.25.25,0,0,0-.17.31l.31,1,8.84,29.74v2.78a.58.58,0,0,1,.27.41.25.25,0,0,0,.17.1l17.11,2.51h0a.25.25,0,0,0,.24-.18h.1l10.18-2.63a.25.25,0,0,0,.25,0l.42-.3a.25.25,0,0,0,.06-.35l-2.12-3v-.09a.25.25,0,0,0-.21-.27L251,170l-2.69-2.13-3.15-4.9,0-.4-1.55-13,4.89-23,6.39-4.57,0,0,.07-.06,4.88-6.55c.41-.37.82-.77,1.22-1.18a73.12,73.12,0,0,0,7.53-9.2c1.74-2.49,3.33-5.13,4.87-7.67.66-1.09,1.33-2.19,2-3.28l.66-1.06c.91-1.45,1.85-2.94,2.64-4.48.09-.18.16-.33.23-.48a1.55,1.55,0,0,1,1-1c.56-.24,1.2-.51,1.77-.68h.11c1.62.16,3.2.26,4.87.36l.46,0a5,5,0,0,1,.79.13,2.81,2.81,0,0,0,1.71,0A5.21,5.21,0,0,0,291,86l.49-.37.39-.25c.77-.47,1.92-1.18,1.91-2a1.71,1.71,0,0,1,.38-.5l.22-.25a8.19,8.19,0,0,0,.7-1.06h0a2,2,0,0,0,1-.33.76.76,0,0,0,.29-.45l0-.07a3,3,0,0,1,.35-.59l.17-.26.58-1a3.36,3.36,0,0,0,.22-.45,2.39,2.39,0,0,1,.23-.45l.11-.14a1.49,1.49,0,0,0,.47-1.21.5.5,0,0,0-.35-.36,5.63,5.63,0,0,1-1.42-.62c-.33-.18-.67-.35-1-.51l-.44-.22-.49-.25c-.34-.17-.67-.35-1-.5L293.6,74a4.18,4.18,0,0,0-.41-.17,2.23,2.23,0,0,0-.87-1.37c-.55-.48-1.06-1-1.56-1.55s-.81-.86-1.24-1.27l-2.24-2.14c.13-.65.26-1.38.38-2.26l.17-1.06.49-.46.21-.19a4.42,4.42,0,0,0,.44-.41.32.32,0,0,0,.31-.28.42.42,0,0,0,0-.21.35.35,0,0,0-.18-.31c-.14-.3-.29-.59-.45-.88-.34-.62-.72-1.23-1.08-1.82l-.49-.8c-.48-.79-.93-1.62-1.37-2.42l-.7-1.27c-.31-.56-.63-1.11-1-1.66l-.32-.54.71-.07a.25.25,0,0,0,.14-.06l.2.05a.25.25,0,0,0,.19,0,.25.25,0,0,0,.12-.15L289.9,34l0-.57a.25.25,0,0,0-.24-.26l-2.4-.07a.25.25,0,0,0-.33,0l-.09.07,0,0-8.39,6.85-4.94.65-2.86-7.28a8.41,8.41,0,0,1-.29-.29l-1.69-.65a.25.25,0,0,0-.19,0l-.08.06a.25.25,0,0,0-.28.06L257.67,43.48a14.24,14.24,0,0,1-.14.28l-.17,1.09-.35,0a.25.25,0,0,0-.35,0L242.16,57h0a.25.25,0,0,0-.32.16l-.06.17-.14.11a.25.25,0,0,0,0,.35h0l-2.07,6.51-.08,0-.06-.36a.26.26,0,0,0-.28-.21l-26.47,3.95-45.84-4.3a.26.26,0,0,0-.12,0,.24.24,0,0,0-.13,0l-1,.42L133.88,77.92l0,0-.07,0L119.6,89.22a.24.24,0,0,0-.06.07.25.25,0,0,0-.07.09l-26.28,51.2c-3.1,2.1-6.62,4.47-10.25,6.49-.92.51-1.91,1-2.86,1.49a38.3,38.3,0,0,0-5.9,3.42,40.07,40.07,0,0,0-5.26,1.46l-1.95.62c-.8.24-1.59.55-2.36.84s-1.5.57-2.26.81a2.66,2.66,0,0,0-1.62,1,.52.52,0,0,0-.09.38h0A.25.25,0,0,0,60.76,157.42Zm.38-.36a2,2,0,0,1,1.36-.86c.79-.24,1.55-.54,2.3-.82s1.54-.59,2.33-.83l2-.63a39.35,39.35,0,0,1,5.25-1.46.25.25,0,0,0,.11,0A37.6,37.6,0,0,1,80.3,149c1-.48,1.94-1,2.88-1.5,3.67-2,7.21-4.43,10.34-6.55a.25.25,0,0,0,.08-.09l26.19-51h0a.25.25,0,0,0,.31-.38h0l13.78-10.93h0a.25.25,0,0,0,.42-.26h0l31.45-14,0-.1.16,0,.6-.27v0a.25.25,0,0,0,.27.14.25.25,0,0,0,.21-.23h0l45.65,4.28,26.29-3.92,0,.26a.25.25,0,0,0,.17.2l.47.15a.25.25,0,0,0,.31-.16l2.19-6.88a.25.25,0,0,0,0-.15h0a.25.25,0,0,0,.08-.11v0a.25.25,0,0,0,.15-.06l14.47-12.14h.05l.68,0a.24.24,0,0,0,.26-.21l.16-1.06h0a.25.25,0,0,0,.22-.42h0l10.09-10.47h0a.24.24,0,0,0,.23.06.25.25,0,0,0,.18-.16h0l1.22.47h0a.25.25,0,0,0,.06.26.25.25,0,0,0,.26.06h0l2.84,7.23a.26.26,0,0,0,.27.16l5.2-.69a.25.25,0,0,0,.13-.05l8.44-6.89h0l2.26.06V34l-4.72,18.37-.19-.05a.25.25,0,0,0-.29.13l-.89.09a.25.25,0,0,0-.19.37l.51.88c.32.55.64,1.09.95,1.65l.7,1.27c.44.81.89,1.64,1.38,2.44l.5.81c.33.54.67,1.09,1,1.64l.15.12,0,.06c.16.3.32.6.46.91v0a.25.25,0,0,0-.08.13,3.66,3.66,0,0,1-.41.39l-.23.2-.56.52a.25.25,0,0,0-.08.14l-.18,1.15c-.13.94-.26,1.69-.41,2.37a.25.25,0,0,0,.07.23L289.18,70c.42.4.83.83,1.22,1.24s1,1.09,1.6,1.58.74.84.69,1.14a.25.25,0,0,0,.2.29,2.43,2.43,0,0,1,.52.19l.19.09c.33.15.66.32,1,.49l.5.26.45.22c.33.16.65.32,1,.5a6.12,6.12,0,0,0,1.55.67c0,.25-.17.51-.39.78l-.12.16a2.81,2.81,0,0,0-.28.55,2.92,2.92,0,0,1-.18.39l-.58,1-.16.24a3.3,3.3,0,0,0-.4.71l0,.08a.4.4,0,0,1-.09.19,1.73,1.73,0,0,1-.91.25.25.25,0,0,0-.19.1,1,1,0,0,0-.09.16,7.68,7.68,0,0,1-.65,1l-.2.22a1.92,1.92,0,0,0-.51.74.26.26,0,0,0,0,.09c0,.56-1.07,1.24-1.67,1.61l-.41.27-.51.39a4.81,4.81,0,0,1-1.12.73,2.25,2.25,0,0,1-1.41,0,5.3,5.3,0,0,0-.87-.14l-.46,0c-1.67-.1-3.25-.2-4.88-.36h-.21l-.1,0c-.56.17-1.21.44-1.78.69a2,2,0,0,0-1.26,1.29c-.06.14-.13.29-.21.45-.78,1.52-1.72,3-2.62,4.44l-.66,1.06c-.68,1.09-1.34,2.19-2,3.29-1.54,2.54-3.13,5.16-4.86,7.64a72.66,72.66,0,0,1-7.47,9.14c-.4.41-.8.8-1.23,1.2l-4.76,6.38h0a.25.25,0,0,0-.35.34h0l-6.27,4.48a.25.25,0,0,0-.1.15l-4.92,23.16a.26.26,0,0,0,0,.08l1.6,13.46a.25.25,0,0,0,0,.11l3.2,5,.06.06,2.53,2,.35.13.52.19,8.06,1.21a.25.25,0,0,0,0,.12l2,2.83-.08.06h-.09l-10.07,2.6,0-.12a.25.25,0,0,0-.24-.18h0l-.1,0a.25.25,0,0,0-.2.21l0,.27L234,175.15h0a.25.25,0,0,0-.25-.29h0v-2.57a.25.25,0,0,0,0-.07l-9.09-30.57a.25.25,0,0,0,.14-.12l1.83-3.31a.25.25,0,0,0,0-.15l-1.5-14.64a.25.25,0,0,0-.24-.22L198.64,122v0a.25.25,0,0,0-.47-.13h0l-13.82-8.17a.25.25,0,0,0-.26,0,.25.25,0,0,0-.11.24l.79,7h0a.25.25,0,0,0-.21.17.25.25,0,0,0,.07.26h0L172.41,135a.25.25,0,0,0,0,.08l-5.69,16.42a.25.25,0,0,0,0,.17l3.88,9.9a.25.25,0,0,0,.11.13l7.48,4,.06,0,7.81,1.85a.25.25,0,0,0,.14,0,.25.25,0,0,0,.1.06h0a.25.25,0,0,0,0,.19l2.48,3.86-.21.13a.25.25,0,0,0-.11.23h0l-14.12.81a.25.25,0,0,0-.15-.09l-10.51-2a.25.25,0,0,0-.08-.24.25.25,0,0,0-.25,0h0l-9.54-24.5L154,146a.25.25,0,0,0,0-.45l5.76-15.79a.25.25,0,0,0,0-.17l-.51-1.39a.25.25,0,0,0-.3-.15L141.42,133a.25.25,0,0,0-.14.1l-13.48,19.25a.25.25,0,0,0,0,.17l1,9.62a.25.25,0,0,0,.1.17l6.55,5.09a.25.25,0,0,0,.24,0l0,0,1.29,3.42h0v0a.25.25,0,0,0-.28-.16.25.25,0,0,0-.21.25V171l-18.08-.25v-.25a.25.25,0,0,0-.23-.25l-1.24-5.36a.25.25,0,0,0-.12-.16.24.24,0,0,0-.2,0c-1.36.39-2.72.76-4.07,1.13l-2.54.7a114.69,114.69,0,0,1-13.24,3l-3.06.78-.07,0-.08,0a.26.26,0,0,0-.14,0l-.24,0c-3.27-1.07-6.58-2.51-9.78-3.91l-3-1.29c-2-.85-4-1.73-6-2.63l-12.89-5.26a.24.24,0,0,0-.12,0h-.16a.15.15,0,0,1-.07-.06h0Z" transform="translate(0 -26.79)"/><path class="cls-3" d="M259.77,173.66l-8.39-3.1-.52-.19-.35-.13-.58-.21L230.1,157.36l-.14.22,19.62,12.53,0,.06.15,0-14.55,1.6-.29-.09-5-14.13-.15-.43-.24.08,5,14.39-.08,0-.08.25.27.08,0,.09.13,0v.13l.3,0,15.72,5,0-.12,0,.12,8.82-3.1.68.25.09-.25-.39-.14-.08-.24Zm-.38.13-8.49,3L235.77,172l14.37-1.59v-.05Z" transform="translate(0 -26.79)"/><polygon class="cls-3" points="274.85 22.42 269.32 7.64 269.57 7.55 272.55 15.52 275.1 22.33 274.85 22.42"/><path class="cls-3" d="M277,66.66c.52,0,1.06.08,1.59.14a20.5,20.5,0,0,1,2.59.41l.54.13-.43-.34-.63-.48L280,66l-.84-.66-.82-.64,0,0c-.22-.08-.47-.14-.7-.2l-.44-.12c-.57-.16-1.14-.34-1.69-.51l-.88-.28c-.72-.23-1.46-.43-2.17-.62l-1.38-.38-.63-.18.52.4,1.66,1.3.86.68c.72.56,1.44,1.15,2.14,1.72l0,0h0Zm0-.25-1.28-.11c-.69-.56-1.4-1.15-2.11-1.7l-.86-.68L271.61,63l.77.21c.71.19,1.45.39,2.16.62l.88.28c.55.18,1.12.36,1.7.52l.45.12c.22.06.45.12.66.19l.81.63.83.65.63.48.19.14c-.6-.12-1.28-.21-2.08-.3C278.08,66.5,277.54,66.45,277,66.41Z" transform="translate(0 -26.79)"/><polygon class="cls-3" points="286.49 48.35 297.38 50.08 297.34 50.34 286.45 48.61 286.49 48.35"/><path class="cls-3" d="M286.68,67.21c.13-.53.26-1.06.36-1.57l.09-.49c0-.19.07-.39.11-.58l.07-.34-.27.22-.15.14-.63.6c-.29.28-.58.56-.89.83l-.1.09,1.35,1.32Zm.12-1.61c-.09.44-.19.88-.31,1.34l-.85-.83c.27-.24.54-.5.79-.75l.49-.47,0,.21Z" transform="translate(0 -26.79)"/><path class="cls-3" d="M259,113.61l0,.32.23-.22c.51-.49,1-.94,1.38-1.39a73.13,73.13,0,0,0,7.93-10.13c1.62-2.41,3.15-4.93,4.63-7.37.74-1.22,1.5-2.48,2.27-3.71.65-1.05,1.23-2,1.76-3,.08-.15.17-.36.26-.57.24-.59.55-1.31,1-1.44l.44-.13c.31-.09.67-.2,1-.28l.54-.12-.54-.12-.92-.19-.51,0,0-.07h0a6.38,6.38,0,0,1-1-.29,4.25,4.25,0,0,1,1.35-.18c.47,0,.94,0,1.4.08l.71.05c.51,0,1.16,0,1.79,0l.93,0a10.39,10.39,0,0,1,1.44.08,15.41,15.41,0,0,0,2.25.13,4.48,4.48,0,0,1,.71.07l.3,0h.12l0-.24a5,5,0,0,0,.1-.76l0-.54h-.26a23.24,23.24,0,0,1-3.78-.35,34.05,34.05,0,0,0-5-.39h-.07a7.91,7.91,0,0,0-1.39.19,8.83,8.83,0,0,1-1.59.21,2,2,0,0,1-1.14-.29.69.69,0,0,1-.23-.78.51.51,0,0,1,.46-.4.59.59,0,0,1,.22,0,12.85,12.85,0,0,0,4.16.7H280c1.3,0,2.67-.13,4-.25l.25,0c.28,0,.57,0,.88,0,.81,0,1.64.08,2.45.16l1.19.11c.4,0,.83,0,1.31,0,.63,0,1.28,0,1.91,0l.5,0,0,0a6.81,6.81,0,0,1,.45-.52c.16-.17.32-.35.48-.55l.42-.58.37-.51-.27,0c-.41,0-.82,0-1.22.05s-.82,0-1.24.06l-1.27.09c-.53,0-1.07.07-1.6.12a11.83,11.83,0,0,1-1.47,0c-.38,0-.76,0-1.14,0a7,7,0,0,1-.81,0c-.22,0-.45,0-.68,0a11.11,11.11,0,0,1-1.28-.06h-.08l0,.06a9.34,9.34,0,0,0-.83-.43c-.27-.13-.54-.26-.79-.4a9.09,9.09,0,0,1-1.67-1.1l.35.17L280,78.4a27.5,27.5,0,0,0-2.19-3c-.52-.62-1-1.12-1.4-1.58l.32.06-.42-.32-.33-.24-.21-.13-.06,0h-.23l-.24-.05,0,.07h-.08c-1,.08-2.1.15-3.13.21l-2.61.17c-1.05.07-2.07.19-3,.3h0l0,0c-.91.85-1.81,1.78-2.74,2.83a15,15,0,0,0-1.42,1.91l0,0v.05c.06.23.11.46.16.68a.81.81,0,0,1,0,.14c.16.71.33,1.41.49,2.09s.29,1.17.42,1.75l0,.15c.06.27.12.56.19.84v0l0,0c.69.53,1.23,1,1.7,1.41a24.42,24.42,0,0,0,3.71,2.94.11.11,0,0,1,.05.09.15.15,0,0,1-.06.12,10.68,10.68,0,0,1-1.83,1l0,0,0,0-.12.21-.08.13a10.52,10.52,0,0,0-.64,1.26c-.31.67-.55,1.37-.79,2l-.22.64c-.49,1.39-1.08,2.77-1.65,4.11l-.5,1.18c-.78,1.89-1.51,3.58-2.24,5.17l-.23.51c-.44,1-.9,2-1.41,3v.05c0,.35,0,.69,0,1,0,.68,0,1.36-.06,2C259,112.2,259,112.93,259,113.61Zm.27-.31c0-.59.06-1.23.08-1.94s0-1.36.06-2q0-.5,0-1c.5-1,1-2,1.4-3l.23-.51c.73-1.59,1.46-3.29,2.24-5.17l.5-1.18c.57-1.34,1.17-2.72,1.66-4.12l.23-.64c.23-.67.48-1.36.77-2a10.42,10.42,0,0,1,.63-1.25l.08-.13.11-.18a10.78,10.78,0,0,0,1.83-1,.4.4,0,0,0,.17-.33.36.36,0,0,0-.17-.3,24.2,24.2,0,0,1-3.67-2.91c-.47-.43-1-.87-1.68-1.4-.06-.26-.12-.53-.18-.79l0-.15c-.13-.59-.28-1.17-.42-1.76s-.34-1.37-.49-2.06a1,1,0,0,0,0-.18c0-.2-.09-.41-.14-.62a14.73,14.73,0,0,1,1.37-1.83c.92-1,1.8-1.94,2.69-2.78.93-.11,1.93-.22,3-.29l2.61-.17c1-.06,2.08-.13,3.12-.21h.19l.08,0h.2l0,0,.06,0h-.06l.37.36.14.14c.45.46.9,1,1.44,1.62a28.2,28.2,0,0,1,2.06,2.8.25.25,0,0,0-.08.11.24.24,0,0,0,0,.26,9,9,0,0,0,1.78,1.19c.26.15.54.28.81.41s.57.27.83.42a.26.26,0,0,0,.12,0,.23.23,0,0,0,.14,0,11.7,11.7,0,0,0,1.24.05c.22,0,.44,0,.66,0a7.44,7.44,0,0,0,.84,0c.37,0,.75,0,1.12,0a12.08,12.08,0,0,0,1.51,0c.53,0,1.07-.09,1.59-.12l1.28-.09c.41,0,.82,0,1.22-.05l1,0-.05.08-.42.58c-.14.19-.31.36-.46.53s-.3.32-.43.49H292c-.62,0-1.27,0-1.9,0-.48,0-.9,0-1.29,0l-1.18-.11c-.81-.08-1.65-.16-2.47-.16-.32,0-.62,0-.9,0L284,82c-1.32.12-2.68.25-4,.25h-.14a12.61,12.61,0,0,1-4.06-.68.74.74,0,0,0-1,.51.93.93,0,0,0,.33,1.06,2.23,2.23,0,0,0,1.28.33,9,9,0,0,0,1.64-.21,7.71,7.71,0,0,1,1.35-.18h.06a33.89,33.89,0,0,1,5,.39,23.45,23.45,0,0,0,3.82.35l0,.27a4.82,4.82,0,0,1-.1.73h0l-.17,0a4.68,4.68,0,0,0-.75-.08,15.15,15.15,0,0,1-2.21-.13,10.6,10.6,0,0,0-1.48-.09l-.94,0c-.62,0-1.27,0-1.77,0l-.71-.05c-.47,0-.95-.08-1.42-.08a4.78,4.78,0,0,0-1.44.18.25.25,0,0,0-.17.23.26.26,0,0,0,.17.24,6.3,6.3,0,0,0,1,.29.25.25,0,0,0,.13.08l.51,0,.38.08-.53.15-.43.13c-.58.16-.9.95-1.17,1.58a5.87,5.87,0,0,1-.25.55c-.54,1-1.11,1.95-1.76,3-.77,1.23-1.53,2.49-2.27,3.71-1.48,2.44-3,5-4.63,7.36a73,73,0,0,1-7.91,10.09C260,112.52,259.65,112.91,259.24,113.31Z" transform="translate(0 -26.79)"/><path class="cls-3" d="M63.34,157.1l-.13.33.46.18c5.27,1.62,10.45,3.73,15.45,5.78l.79.32c1.87.76,3.78,1.5,5.63,2.22,2.57,1,5.23,2,7.81,3.12l0,0h0l8.7-1.65c2.47-.6,5-1.21,7.53-1.93,1.72-.49,3.47-1.06,5.16-1.62l3-1h0l0,0,8.07-11c.12-.73.23-1.47.33-2.18q.07-.51.15-1v-.06l-6.78-19.92-.62.21q-.59.27-1.13.57l0,0-13.77,16.07,3-9.94.28-.14,0-.1a4.51,4.51,0,0,0-.44-.93l-.06-.1-11.48,5.88h0l-.32.13a1.94,1.94,0,0,1-.27.1l-.08,0v.09a.24.24,0,0,1-.05.14l-.1.1-.08.08,0,.07-.05,0A13.61,13.61,0,0,1,92,142.76c-.54.34-1.1.69-1.61,1.08a47.4,47.4,0,0,1-6.08,3.92c-1.72.93-3.41,2-5,3l-.87.53A28,28,0,0,1,75,153l-.38.24-.22,0a13.15,13.15,0,0,1-3,1,16,16,0,0,0-1.7.48l-.73.27a47.76,47.76,0,0,1-5.58,1.86l-.13,0Zm.19.19.07-.17a49.08,49.08,0,0,0,5.48-1.84l.72-.27a15.64,15.64,0,0,1,1.67-.47,13.55,13.55,0,0,0,3-1h.2l.42-.27a28,28,0,0,0,3.34-1.8l.87-.53c1.63-1,3.32-2,5-3A47.59,47.59,0,0,0,90.51,144c.5-.38,1.05-.73,1.59-1.07a13.57,13.57,0,0,0,2.48-1.84l.09-.05,0-.08.06-.06.11-.12a.46.46,0,0,0,.07-.11l11.85-6.08a4.27,4.27,0,0,1,.32.68l-.18.09-3.42,11.18,14.54-17c.35-.19.71-.37,1.08-.54l.37-.13,6.69,19.66-.14,1c-.1.71-.21,1.43-.33,2.15l-8,10.92-3,1c-1.69.55-3.44,1.13-5.15,1.61-2.51.72-5.06,1.33-7.52,1.92l-8.66,1.64c-2.57-1.1-5.22-2.12-7.78-3.11-1.85-.71-3.76-1.45-5.63-2.21l-.79-.32c-5-2-10.19-4.16-15.46-5.78Z" transform="translate(0 -26.79)"/><path class="cls-3" d="M288.2,61.79l0,0,0-.06-.15-.12L272.41,48.84l10.13,3.73,0-.12.12-.05-4.15-10.77,8.95-7.14-.16-.21-9,7.18,0-.12L272.8,42l0,.26,5.31-.58-.22.17.16.21.26-.21,4,10.43-7.59-2.8-2.69-1,0,.1-.09-.08-.09.1-.12,0,0,.12-12.23-1.14,0-.06-.07,0h0l-1.1-1.36,11-11.78.05-.05-.19-.18-11,11.8-.1-.12-.1.08-.12,0-.14.4-.17-.2L242.65,58.4l.09.1-.13,0-2.4,7.1-1.11,3.26H239V69l-1.62,4.79h-.24V74l-.7.34v0L188.6,71.85l51.56-6.31,0-.25-.34,0L187.1,71.77h0l-.56-.38-.07.11-.12.06,24.34,44.19-.23.08L162.8,87.73l-.06.12-.1.08,18.71,21.64-.14.21.62.43.16.11.35.41.62,9.82-10.47,2.77,9.28-12.58-.1-.07-.08-.11-23.08,16.23-16.65-24h0l-.27-.39.21-.25-.18-.16,21.05-14.47,23.83-16.39,0,.18h0l.24,0,0-.19.07,0,.07-.25-.17-.05-.47-4.73-.26,0,.46,4.62L166,64.64l-.08.25L186.29,71,162.52,87.3v0l3.4-22.38.1-.66-.09,0-.16,0,0,.1-.07.47-3.41,22.41-40.34,2.46,43.72-24.88-.12-.23L121.31,89.68l.07.11-.12-.06-.53,1,.12-.41-.24-.08L120.07,92l-24.5,47.05a.37.37,0,0,1,.27,0l23.82-45.74-12.27,40.1.19.28,12.73-41.64L121.43,90l19.7,12.23.12.17-21.69,25.3.48-.16L141.4,102.6l.17.25L127.18,149.7c-.06.39-.12.79-.17,1.18l.08,0,.13-.43.11.07,13-18.15,4.85-6.74-.21-.15-17.67,24.59,8.15-26.52,6.28-20.45,16.4,23.62-22.5-3.11,0,.26,9.42,1.3L158.18,127l0-.19.09.13-.3.21.14.22.31-.22,0,.06.11-.08,0,.13.17,0,13-3.46-16.6,22.48.11.08-.12.05,6,15.65,0,.07.07,0,2.63,6.88-.18.24-.2,0-.07.25.13,0,.18.14.06-.08,11.3,2.93v0l0,0,0,.26h.12l0,0,.07,0,12.3-1.15.39.2.12-.23,0,0,0-.25-.39,0-18.12-9.5-2.84-8.38-.12,0-.11-.07-4.6,7.52,11.7-31-.07,0,9.63-9.13-.08-.09h.12l-.61-9.87v0l15.94,11h0l.15-.22-.07,0,11.79-5.33,13,6.41-.29.37.2.16,13.31-16.42-.1-.08,0-.12-25.62,9.23L186.84,71.92l50.2,34.2-.17.57-9.17,30.78.13,0-.11.08.11.16L225,142.23l.11.07-.09.09,19.32,20.36.09-.09.13,0-4.2-33.53,8.54-4.72-.06-.11.11.06,18.18-35.59.3.24.16-.21-6.48-5-.16.2,6,4.66-18.18,35.6-.64.35-7.78,4.29-2.75-22,10.25,17.62.11-.06.12,0,12.64-40.6,1.37-4.39-.25-.08-13.91,44.71-10.41-17.9,0-.16.09-.26,12.36-37.18.07.1.21-.15-.18-.26,0,0,.21-.58.35.36-.12.05.09.24.23-.09L261.62,79l-24,26.75.19.18,24-26.65.17-.19-.1-.09.1-.09L251.05,68.11l17-6.81-.06.06,5.61,4.93.17-.19-5.07-4.45-.28-.24.19-.13-.21-.32,0-.07h0l-8.68-13.1,12,1.12L269,61.23h-.17v.26l6.63.12,12.3.23V61.6l.23.19-4.55,4.14.08.09-.08.1L291,72.9l-6-1.39-.06.26,6,1.38-5.06,1.64-1-3-1.79-5.48h0l.13-.23-7.78-4.41-.13.23,7.59,4.29-.12,0,2.82,8.64-.06,0,.07.23-7.75-1.42.36.33,7.56,1.39.11.32.24-.08-.06-.19h.09l.05-.25-.23,0L286,75l5.47-1.77.23.21.11-.13.29.07.06-.25-.56-.13-7.83-7,4.56-4.14Zm-77,54.39-.15-.28,25.14-9.06-12.55,15.49-12.47-6.13Zm-70-14.23L121.79,89.9l40.45-2.47,0,.07Zm28.27,60.14,0,0,17.72,9.3-11.83,1.1Zm-5.5,7.22,5.33-7,5.64,9.84Zm-2.47-7.25,5.08-8.3,2.75,8.1-.1.12-.09,0,0,0-5.09,6.68Zm10.58-38.63L158.72,127l22.37-15.73Zm10.55-2.53-26.86,25.46.18.18,17.29-16.38-11.89,31.49-5.87-15.31.09-.13,16.66-22.56ZM210.17,116l-11.76,5.31-15.83-10.87v-.14h-.19l-.22-.16L163.35,88.36ZM228,138,243.5,161.5l-18.23-19.22Zm9.26-31.61,7,55.75-16.08-24.38.18-.3-.22-.14-.12.2v0Zm.21-1.15-.17.52-.11,0-.05.16L187.49,72l49.67,2.65.13,30.52ZM243,58.45,249.48,68l.25.36-12.18,36.62-.13-30.35.16-.45,11.52-5.41L249,68.5l-11.3,5.3,1.6-4.73,9.69-.65.25,0,0-.26-9.83.67,3.47-10.23Zm14.59-12.21L249.83,68l-6.63-9.73Zm1.95,1.84L268.1,61l-17.25,6.92-.52-.53,7.58-21.24,1.24,1.56v0h0l.3.38Zm28.19,13.49-18.45-.34,2.64-12.3.19,0v0Z" transform="translate(0 -26.79)"/></g><path class="cls-4" d="M0,185.81s432.12-34.6,532-34.6,187.52,29.18,248.76,29.18S880.19,166.65,961,166.65s439,37.53,439,37.53v22H0Z" transform="translate(0 -26.79)"/><g class="cls-5"><path class="cls-6" d="M1444.21,158.23a9.1,9.1,0,0,0-2.43-3.43l-2.68-2.6c-2.51-2.45-5.11-5-7.76-7.38-1.73-1.55-3.33-3.1-5.24-5-.32-.31-.72-.65-1.15-1s-1.2-1-1.73-1.58a4.18,4.18,0,0,1-1.17-1.83c-.86-3.94-1.57-8-2.25-12l-.28-1.63c-1.26-7.17-2.56-14.58-4.33-21.68l-.07-1.07c.18.16.34.3.47.4a4.64,4.64,0,0,0,4,1.06,1.6,1.6,0,0,0,1.2-1.63c-.56-5.19-2.35-9.62-4.29-14.07a104,104,0,0,0-7.91-15.35c-2.83-4.31-6-8.51-9.09-12.57l-.52-.69c-2.82-3.74-5.92-7.62-9.92-10.32a24.21,24.21,0,0,0-3.24-1.82,65.12,65.12,0,0,0-8.41-3.08l-2.43-.78c-6.63-2.18-11.74-3.79-16.57-5.22-5.06-1.49-10.45-3-16.5-4.56l-1.43-.37c-4.37-1.14-8.88-2.32-13.48-2.32h-.21a1.12,1.12,0,0,0-.66-.19h0a149.55,149.55,0,0,0-19.38,2.73l-4,.74c-3.86.69-7.76,1.46-11.54,2.2-3.31.65-6.63,1.3-9.95,1.91l-2.39.43c-7.48,1.32-15.45,2.71-23.36,3.89l-1.89.29c-.95-.33-1.9-.64-2.85-1-1.85-.61-3.77-1.25-5.57-2-3.07-1.21-5.79-2.34-8.3-3.47a25.73,25.73,0,0,1-2.66-1.46A20.47,20.47,0,0,0,1230.6,30c-3.8-1.33-8.36-1.5-12.39-1.65l-2.11-.08c-1.6-.08-3.21-.14-4.82-.19l-3.7-.14c-.44,0-.93-.08-1.45-.14-.67-.08-1.37-.17-2.07-.19l-1.81-.82,0,0,0,0-4.87,3.52c-2.05,1.13-4.08,2.38-6,3.59l-2.61,1.6c-3.85,2.34-7.93,4.86-13.24,8.17-2.62,1.63-5.26,3.38-7.81,5.07a179.19,179.19,0,0,1-15.49,9.52.84.84,0,0,0-.41.48l-1.81.63c-1.82.63-3.63,1.26-5.45,1.87l-1.32.45c-2.55.86-5.18,1.76-7.83,2.45a39.39,39.39,0,0,0-9.8-3.12,6.71,6.71,0,0,1-1.15-.43,4.42,4.42,0,0,0-3.1-.5,47,47,0,0,0-5.72,2.72,1.56,1.56,0,0,0-.72,1.81c.34,1,.64,2.1,1,3.25a30.07,30.07,0,0,0,3.14,8.14l-.1.13a67.71,67.71,0,0,0-4.12,6.1c-.68,1.09-1.35,2.17-2.06,3.23l-.43.65a13.7,13.7,0,0,1-2.58,3.23c-.65.51-.88,1.75-1.11,3a9.24,9.24,0,0,1-.3,1.3,34.53,34.53,0,0,0-1.05,3.7c-.69,2.8-1.4,5.7-3.48,7.61a1.63,1.63,0,0,0-.29,1.95c.19.39.39.75.58,1.11a11.56,11.56,0,0,1,.88,1.84,7.24,7.24,0,0,0,.38.83,4,4,0,0,1,.41,1l.07.4s0,.07,0,.1l-.16.3-.79,1.54a62.86,62.86,0,0,1-3.46,6.21c-.93,1.42-1.84,2.89-2.72,4.31-1.41,2.28-2.86,4.65-4.46,6.83-1.09,1.51-2.13,3.06-3.13,4.58l-.2.3c-.66,1-1.41,2.06-1,3.48.43,1.58,2.19,2.31,3.88,3a10,10,0,0,1,2.61,1.36,1.52,1.52,0,0,0,.84,1,7.84,7.84,0,0,1,.72,1.11,4.18,4.18,0,0,0,1.28,1.61,2.46,2.46,0,0,1,.54.69,3.06,3.06,0,0,0,1,1.11,1.23,1.23,0,0,0,1.64-.42c5.39-.61,10.61-2.55,15.66-4.43,1.28-.47,2.54-.95,3.77-1.38a1,1,0,0,0,.22-.09h.46c.83,0,1.65,0,2.51,0a8.08,8.08,0,0,1,1.2,0,6.75,6.75,0,0,0,1.75,0l.23,0a3.63,3.63,0,0,0,1.56-1.11l.22-.22c.54-.54,1.11-1,1.68-1.54s1.08-1,1.6-1.47c1.95-1.91,4-3.67,6.38-5.61l.4-.33c1-.81,2.09-1.57,3.14-2.3s2.33-1.62,3.42-2.52c1.28-.32,2.57-.66,3.84-1,4.28-1.16,8.58-2.28,12.87-3.4l4.42-1.15c-.28,3.85-.57,7.82-.81,11.77-.08,1.41-.16,2.84-.24,4.27l-.08,1.36-.35.75c-.18.4-.37.79-.55,1.19-.87,1.84-1.75,3.66-2.63,5.49-1.43,3-2.9,6-4.3,9.09-2,4.35-3.78,8.62-5.35,12.67l0,.07c-1,.84-1.75,1.57-2.48,2.29a128.79,128.79,0,0,0-9.24,10.06,95.1,95.1,0,0,0-9.19,12.76l-.18.31-.86.37a96.52,96.52,0,0,0-9.51,5.11l-.84.49c-2.06,1.22-4,2.48-6,3.87-.85.6-1.66,1.26-2.42,1.9a7.88,7.88,0,0,0-.68.74l-.32.37c-.75.84-1,1-1.09,1a1.6,1.6,0,0,0-1.54,1.32,1.73,1.73,0,0,0,1.07,1.87,12.88,12.88,0,0,1,2,1.1,11.51,11.51,0,0,0,2.6,1.35h0l.14,0a1.45,1.45,0,0,0,1.43-.3,21.43,21.43,0,0,0,2.56.14,54.15,54.15,0,0,0,6.47-.52l1.61-.19a85.92,85.92,0,0,0,11-1.84l.09.33,1.85-.52-.1-.34a1,1,0,0,0,.47-.49,7.13,7.13,0,0,1,.51-.91c.15-.24.3-.49.44-.74a1.17,1.17,0,0,0,.23-.34c2.18-1,4.41-1.89,6.56-2.8l4.45-1.88c1.6-.69,3.06-1.33,4.43-2l.71.28.3-.76c2.05-1,3.89-1.92,5.59-2.87l2.33-1.31c3-1.7,6.12-3.46,9.26-5.08l.38-.2,1.72-.89,1.07.25.23-.95a27.42,27.42,0,0,0,4.35-2.88l-1,1.58,2.72-2.22.22-.16q2.43-2,4.9-4l.09-.09.23-.31.48-.37a.78.78,0,0,0,.29-.65c1.21-1.6,2.4-3.21,3.59-4.82s2.55-3.45,3.84-5.15c4.84-6.41,9.89-13,15-19.56l.05,0,.74-1c.17.66.35,1.32.55,2,.7,2.2,1.56,4.38,2.4,6.49.69,1.74,1.41,3.54,2,5.34s1.42,3.66,2.18,5.4,1.44,3.29,2,5c.22.63.43,1.27.65,1.91a59.37,59.37,0,0,0,2.83,7.32c-.41.43-.82.86-1.24,1.28s-.87.89-1.29,1.33-.66.67-1,1a27.83,27.83,0,0,0-2.34,2.52l-1.11.59c-.67.06-1.52.14-2.38.29a42,42,0,0,0-7.83,2.2c-3.28,1.24-7.31,3.23-9.38,7.6a1.08,1.08,0,0,0,0,1.06,1.13,1.13,0,0,0,1.38.4l.23-.11.42.18a27.93,27.93,0,0,0,7.36,1.52c1,.12,2,.23,2.94.38s2.12.3,3.14.39c2.1.21,4.37.3,6.91.3,1.16,0,2.3,0,3.42-.06,3.34-.1,6.28-2.11,8.88-3.88l.75-.51c2.05-1.39,4.17-2.75,6.16-4l.43-.27a8.14,8.14,0,0,0,3.44-3.24,1.08,1.08,0,0,0,.08-.62v-.27a2.47,2.47,0,0,1,.2-.29,1.06,1.06,0,0,0,.18-1.08,1.1,1.1,0,0,0-.24-.37c1.29-3,2.34-6.13,3.37-9.18.56-1.66,1.11-3.31,1.7-4.93a61.84,61.84,0,0,0,2.49-8.54c.5-2.4-.19-4.65-.86-6.83l-.07-.23c-2.06-6.8-3.56-12-4.87-17-.52-2-.9-4-1.26-6a55.46,55.46,0,0,0-2-8.49c3.69,1.34,7.4,2.76,11,4.13l3.1,1.18c4.37,1.66,9.06,3.4,14.34,5.3,1.49.53,3,1.16,4.45,1.77a53.05,53.05,0,0,0,8.17,2.91,20.27,20.27,0,0,0,4.7.5,46.29,46.29,0,0,0,6.55-.57l9.27-1.25,5.08-.68c6-.81,11.15-1.7,15.79-2.73-.9,2-1.59,3.64-2.18,5.2-.19.49-.39,1-.6,1.5a25.28,25.28,0,0,0-1.27,3.58,1.51,1.51,0,0,0-.33,1.54l.13.32a147.51,147.51,0,0,1,5.85,17.93c.81,3.16,1.52,6.42,2.2,9.57.63,2.9,1.28,5.9,2,8.84a17.12,17.12,0,0,1-1.82,1.58,20.58,20.58,0,0,1-3.88,2.34,41.26,41.26,0,0,0-4.17,2.17,36.07,36.07,0,0,1-4.65,2.36c-.48.19-1,.41-1.47.63a9,9,0,0,1-4.09,1.16,25.4,25.4,0,0,0-4.6.3c-1,.13-2,.26-3.05.3h-.33a1.74,1.74,0,0,0-1.55,1.19,1.45,1.45,0,0,0,.45,1.63,50.51,50.51,0,0,0,10.23,6c1.15.56,2.3,1.12,3.44,1.7l.3.15c3.31,1.71,7.06,3.65,10.94,4l.77.76.7-.7.56,0,.1.31,1.73-.53a34,34,0,0,0,3.62-1c.67-.21,1.35-.42,2-.6a68,68,0,0,1,9.27-1.57l.5-.06a57.08,57.08,0,0,0,6.51-1.21l.75-.16c1.52-.32,3.25-.68,4.16-2.11a1.45,1.45,0,0,0,0-1.48,125.07,125.07,0,0,0,5.35-19.45c1-4.58,2.1-9.18,3.2-13.63.64-2.55,1.27-5.1,1.88-7.67.32-1.37.7-2.85,1.19-4.6l3.49-4.3q1.85-2,3.68-4.06c1.39-1.54,2.78-3.08,4.19-4.61l.07-.08a26,26,0,0,1,3.38,3.54c.38.45.74.88,1.09,1.27a32.75,32.75,0,0,0,5.13,4.38c2.08,1.55,4.3,3,6.45,4.31,1.71,1.08,3.47,2.2,5.16,3.38,2.13,1.5,4.37,2.91,6.53,4.28s4.43,2.8,6.56,4.3c.4.29.8.56,1.2.82a18.92,18.92,0,0,1,2.22,1.64c.41.36.37.72.23,1.44a7.15,7.15,0,0,0-.11.72A37.35,37.35,0,0,0,1420,185v.06a25.7,25.7,0,0,0-5.58,1.59l-.69.25c-2.76,1-5.72,2-8.81,2.94a1.69,1.69,0,0,0-1.15,1.72A1.45,1.45,0,0,0,1405,193a34.78,34.78,0,0,0,6.18.5c2.37,0,4.79-.17,7.11-.34,2-.15,4.16-.3,6.22-.33,1.39,0,2.78-.1,4.13-.17s3-.17,4.53-.18a3.13,3.13,0,0,0,1.59-.47l.33.15.3-.63a5.14,5.14,0,0,0,1.42-2.34v0a41.73,41.73,0,0,0,3.64-10.28l.42-1.62c1.2-4.57,2.44-9.3,3.38-14.05A9.07,9.07,0,0,0,1444.21,158.23Zm-55.7-111.45c3.87,2.61,6.78,6.25,9.66,10.08l.52.69c3.07,4,6.24,8.23,9,12.51a103,103,0,0,1,7.82,15.19c1.9,4.37,3.66,8.71,4.21,13.75a.55.55,0,0,1-.39.47,3.6,3.6,0,0,1-3.14-.87c-.18-.13-.42-.35-.68-.59a15.63,15.63,0,0,0-1.32-1.11l-1-.7-27.44-50.94A22.91,22.91,0,0,1,1388.51,46.78Zm-22.18,111-.69-71.28,9,20.92,4.29,30.05Zm-10.4,46.61-21.11-15.06,31.61-29.27-10.24,44.51,0,0v-.14Zm-25,8.22,1.45-9.19,22.9,1.77Zm2.75-22.87-2,12.77-13.5-1Zm.8.38,19.82,14.14-21.78-1.68Zm-121.07-41.38-10.33,5.45,26.57-30.32Zm-28.73,34.69-20.13,2,33.59-25.66Zm.52.8.23,0-.34.23Zm-21.72.92,3.73-44.18.3-.65.06-.79,31.09,18.12.11.15-.14.17.2.17Zm2.74-71,32.11,29.3.37,12.83Zm32.27,28.3-33-30.12,42.34-13.45.19.17ZM1164,112.17l-.26.2.41.54-18.59,13.78,17.31-67.2,1.35,52.4-.4.12ZM1137.7,88l.19-.38.14.4,7.1-2.41-3.39,25.61L1123,84.84l5.39-1.91c0,.27,0,.53.09.79s.42.21.5,0l.06-.16a54,54,0,0,0,1.75-5.31c.23-.79.35-1.74.54-2.61a15.92,15.92,0,0,0,1.05-2.21,2.33,2.33,0,0,1,1.88-.51c2.57.26,5.3-1.12,7.52.79,1.71,1.47,3.08,3.39,4.71,5l-.42-.06-.8,6-7.33,2.48-8.49-4.31-.39.76Zm-24.16,55.28L1102.77,146l-3.47-4.54-.43.33.25-.48-5.57-2.88L1108,115.78l-.23,1.61h0l0,.26.15,0,8.32,20,.06,0c-.9,1.88-1.7,3.81-2.71,5.63Zm3.36-6.66-8-19.33.39-2.77,16.8,4,.44.6Zm-7.24-22.88,9-5.27,6.62,8.94Zm9.44-6.09-.34.26,0-.43-9.83,1,12.42-22.67,5.26,31.93Zm-9.58-2.11L1120,79l.91,5.6Zm11.13-28,.13-.33,7.07,5-5.38,1.91-.39-.54-.4.29Zm21.26-6.41a3.39,3.39,0,0,0-2.31-.91c-1.2,0-2.39,0-3.59,0-1,0-2.26.17-3.35.07l30-14L1147.21,78C1145.9,75.65,1144.34,72.48,1141.89,71.08ZM1163.63,57l.17.16,28.6,45.19,0,.07.11.05.26.41-27.7,8.8Zm38.52-28.41.29.4.2-.45,18.95,8.61-55.9,17.75Zm73.12,16.74,6.29-8.05-14.24,46.19-24.78,2.74,32.28-40.31h0l.46-.57Zm6.29-9.12.07.19-.21-.17h.06Zm4.67-.88,52.66-3.8-39.31,48.37h-.06L1282.65,36.6l.21-.68Zm77.51,49.82-23.46,43.4L1346,86.65l-.15.06-4.32-54Zm-21.16-52L1383.48,77l-19.18,7.28ZM1339.22,130l-33.5-25.92L1344.92,88ZM1345,87l-39.26,16.08.08-.09-.31-.29.38.18,34.55-71.8.1,0ZM1298.64,80l-30.4,3.36,14-45.41Zm-24.13,51.54-32.63-44.42,25.4-2.81Zm-32.63-45.89L1223.4,38.21l50.3,7.69Zm-.64.68-.92.1.21.28-31,10.76,13-59.17Zm-42.06,3.09,9.24,8.43-.93.32-13.9,4.42-.21-.33Zm-6.36,12-26.64-42.08,32.33,29.5Zm6.72-12.79L1221,41.21,1208.75,97Zm9.45,9.94.13,0,.13.12,0-.17,31.06-10.78-7.88,31.88-.32.49-23.23-21.19ZM1221.5,38,1198.89,88l-34.77-31.72Zm-12.77,61.74,22.73,20.74L1201,155.33l-1.43.75-.37-12.71Zm23.46,21.76,10.8,5.7-19.93,8.29Zm.81-.54.28-1.13,0-.07,0,0,7.95-32.12,33.54,45.66,0,.12-29.94-6.18Zm35.13-36.81,30.69-3.39-23,52.45-.2-.27Zm8.42,49.48,23-52.41,38.8-47.75-33.2,69-28.6,31.15.63.57,27.49-29.93.38.3-7,36-21.79-6.25Zm29.25-28.48,33.82,26.16-.08.09,5.11,4.46-45.78,4.88Zm34.3,25.61-.14.16v-.06l22.28-41.21-16.47,46.06ZM1364.91,159l-28.47,6,9.06-27.65Zm-18.55-22,.4-.46-.3-.26L1364.6,85.6l-.13,0,.14-.26.16.13.7,73Zm19.1-52.18-.14-.11,18.24-6.93-3.12,19.25L1365.62,85v-.13Zm20-38.41,27,50.11L1384.88,76l-.41.55-.12,0Zm-.94,30.4,27,20.06h-30.23Zm-4.47,21-5,8.46-8.3-19.31ZM1375.56,108l26.78,10.75-.58.71-22.09,17.34Zm.09-.88,5.13-8.64.27.22.15-.9h31.14l-9.23,20.34Zm36.62-10.18.25-.33.18.33Zm-37.58-55.71,2.44.78a72.36,72.36,0,0,1,7.4,2.65l.19.35-1.19,30.77L1342.4,31.65c5.75,1.5,10.91,2.93,15.75,4.36S1368.07,39.05,1374.69,41.23ZM1303,32.07l4-.74a154.53,154.53,0,0,1,19.21-2.74l.16.23h.69a46.88,46.88,0,0,1,11.51,1.84l-45.37,3.27C1296.42,33.3,1299.71,32.66,1303,32.07ZM1207.52,29l3.72.14c1.6.05,3.21.11,4.81.19l2.12.08c4,.15,8.43.31,12.07,1.59a19.66,19.66,0,0,1,3.47,1.79,26.54,26.54,0,0,0,2.77,1.52c2.52,1.13,5.25,2.27,8.34,3.48,1.83.73,3.76,1.37,5.63,2,1,.33,2,.65,3,1l.12,0,2.16-.33c7.92-1.17,15.9-2.57,23.39-3.89l2.18-.4-7,8.91-50.86-7.78.13-.29-.73-.33v0h0l-17.45-7.93.64.07C1206.54,28.93,1207.06,29,1207.52,29Zm-90.71,38.57c-.33-1.16-.63-2.26-1-3.3a.5.5,0,0,1,.23-.53,45.93,45.93,0,0,1,5.58-2.65,3.55,3.55,0,0,1,2.28.49,7.35,7.35,0,0,0,1.36.5,37.66,37.66,0,0,1,9.7,3.12l.19.1.2-.05c2.75-.71,5.47-1.64,8.1-2.53l1.32-.45c1.82-.61,3.64-1.24,5.46-1.88l2.59-.9-.08-.35c5.31-2.79,10.46-6.2,15.44-9.5,2.55-1.69,5.18-3.43,7.78-5.06,5.3-3.31,9.38-5.82,13.22-8.16l2.62-1.6,1-.61-29.67,21.42-.23-.48L1152.61,60,1131,70l.08.18a1.76,1.76,0,0,0-.6,1.4,5.57,5.57,0,0,0-1,2.42,44.54,44.54,0,0,0-1.19,7.48l-7.23-5.16,0-.1-.79-.31-.17.42-.16,0,.11-.14,0-.51-.15-.1C1118.45,73.41,1117.62,70.45,1116.82,67.58Zm15.57,70.55c-.5.49-1,1-1.56,1.43s-1.16,1-1.71,1.58l-.23.23a3,3,0,0,1-1.05.82l-.19,0a6,6,0,0,1-1.46,0,9.23,9.23,0,0,0-1.36,0c-.81.05-1.61,0-2.41,0h-.77l-.25.14c-1.27.45-2.54.92-3.82,1.4-5.08,1.89-10.34,3.85-15.71,4.4l-.38,0-.09.37a.17.17,0,0,1-.2.13,2.1,2.1,0,0,1-.64-.76,3.43,3.43,0,0,0-.79-1,3.1,3.1,0,0,1-1-1.24,9.49,9.49,0,0,0-.91-1.4l-.1-.14-.16-.05a.46.46,0,0,1-.33-.38l0-.18-.13-.13a9.7,9.7,0,0,0-3.07-1.69c-1.46-.6-3-1.22-3.26-2.3s.26-1.7.87-2.59l.22-.32c1-1.5,2-3,3.1-4.53,1.62-2.21,3.09-4.59,4.5-6.9.87-1.42,1.77-2.88,2.7-4.29a63.7,63.7,0,0,0,3.52-6.32l.79-1.54.21-.4.06-.12v-.13a.77.77,0,0,1,0-.11l0-.12-.11-.61a4.84,4.84,0,0,0-.51-1.33,6.27,6.27,0,0,1-.32-.71,12.51,12.51,0,0,0-1-2c-.19-.34-.38-.68-.55-1a.61.61,0,0,1,0-.7c2.32-2.13,3.07-5.19,3.79-8.15a33.44,33.44,0,0,1,1-3.58,9.51,9.51,0,0,0,.35-1.48,5.86,5.86,0,0,1,.72-2.32,14.49,14.49,0,0,0,2.81-3.48l.42-.64c.71-1.07,1.4-2.17,2.08-3.26a66.94,66.94,0,0,1,4-6h0l.1.59-12.61,31.72.79.31.17-.45,0,.36,8.7-.87-8.11,4.76.17.28-.49-.12-.07.28-.22-.14-15.8,24.84.45.29-.25.48,6,3.09,3.61,4.73.43-.33.13.52,11.11-2.88-.08-.31.08,0L1127,119.8l-.2,22.3h.85l.2-22.81.32.16,11,12.68-.4.33C1136.48,134.42,1134.37,136.19,1132.39,138.13Zm10.06-8.35c-.89.62-1.79,1.26-2.66,1.93l.12-.11-.84-1-8.82-10.12,9.15,4.73.39-.76-11.05-5.72-.31-.35-.14.12-.4-.2v-.48h-.45L1122,85l19.34,27.16.26-.19L1140,124.52l-.8,6,.84.11,6.69-50.53,0,0,15.56-22-17.81,69.12.83.21.12-.46.25.33C1144.65,128.24,1143.54,129,1142.45,129.79Zm24.82-8.21-4.35,1.13c-4.3,1.12-8.59,2.24-12.88,3.4-1.17.32-2.35.62-3.53.92l18.13-13.45,32.62,42.31-29.64-17.27c.08-1.4.16-2.81.24-4.19.25-4.2.56-8.43.86-12.51l.06-.79-.75.23ZM1159.62,157c1.39-3,2.86-6.11,4.29-9.07q1.12-2.34,2.24-4.67l-3.58,42.4h0l-.89.08.06.59h0l-6.82-17.14-.5.2C1155.92,165.39,1157.68,161.21,1159.62,157Zm-2.84,43.23,0-.22-19.62,3.83-2.27-7.95,22.16,3.76Zm-21.7-5.16,26.89-7.91-4.64,11.69Zm7.31-12.75a127.63,127.63,0,0,1,9.16-10c.74-.73,1.55-1.47,2.54-2.33l.1-.08,0-.08,6.66,16.75-27.4,8.06A95.46,95.46,0,0,1,1142.39,182.28Zm-15.68,30-1.62.19a53.3,53.3,0,0,1-6.34.51,20,20,0,0,1-2.7-.17l-.33,0-.19.28a.32.32,0,0,1-.29.16l-.2,0-.16-.08h-.05a10.88,10.88,0,0,1-2.28-1.21,13.94,13.94,0,0,0-2.13-1.18.65.65,0,0,1-.43-.7c0-.15.13-.4.56-.43s1.14-.56,1.81-1.33l.33-.38a7.38,7.38,0,0,1,.57-.62c.73-.61,1.52-1.26,2.34-1.84,1.95-1.37,3.89-2.62,5.93-3.82l.84-.49a95.68,95.68,0,0,1,9.39-5.05l1.14-.49,1,.17,2.36,8.27-24.15,4.71h-.06l.16.83,24.28-4.74,1.58,5.52A82.82,82.82,0,0,1,1126.7,212.24Zm25.24-9.44c-1.48.63-3,1.25-4.44,1.87-2.24.94-4.55,1.9-6.81,2.9l-.33.19,0,.3-.13.16c-.13.26-.28.5-.43.74a4.64,4.64,0,0,0-.52,1h-.05l-.11.08-.19,0-1.56-5.47,18.72-3.65C1154.78,201.56,1153.43,202.16,1151.95,202.79Zm22.95-11.88-.38.2c-3.16,1.63-6.28,3.39-9.3,5.1l-2.32,1.31c-1.59.89-3.3,1.77-5.2,2.68l5.2-13.08,13.34,3.11Zm9.63-6.09c-.57.38-1.13.75-1.8,1.18a24.84,24.84,0,0,1-5,3.45l-.21.11,0,.07-14-3.25,20.66-2,0,.08.55.31Zm12.68-14.2c-1.29,1.7-2.57,3.43-3.85,5.16s-2.48,3.35-3.74,5l-.22.29.07.12-.33.25-.13.13-.2.27-2.39,1.91.26-.4-1.13.75,0-.47,14.32-25.21.63-.48-.2-.26.5-.88.72-.82,10.94-5.77-.24.36.26.17C1207.25,157.43,1202.13,164.11,1197.21,170.63Zm27.48,5.82c-.22-.64-.43-1.28-.65-1.92-.6-1.73-1.34-3.43-2.06-5.06s-1.53-3.5-2.15-5.31-1.34-3.63-2-5.39c-.83-2.09-1.69-4.26-2.37-6.42-.26-.83-.47-1.67-.69-2.51l-.3-1.14.58-.89,7.25-11.09v0l20.08-8.35,2,48.64-27.85-29.28-.61.59,28.51,30,0,1.1-16.85,4.37A57,57,0,0,1,1224.69,176.45Zm-1,12c.35-.35.7-.7,1-1s.85-.88,1.28-1.32,1-1,1.51-1.57l.15-.16.06.22,13.39-3.47-19.84,10A24.46,24.46,0,0,1,1223.73,188.5Zm17.68,6.93-.44.27c-2,1.27-4.12,2.64-6.18,4l-.76.51c-2.47,1.69-5.27,3.6-8.3,3.69-1.11,0-2.24.05-3.39.05-2.51,0-4.74-.1-6.82-.3-1-.09-2-.22-3.07-.38s-2-.27-3-.39a27.16,27.16,0,0,1-7.09-1.46c-.2-.07-.4-.17-.6-.27l-.24-.11-.23.12-.19.1a.73.73,0,0,1-.22.09c1.91-4,5.71-5.89,8.79-7.06a41,41,0,0,1,7.63-2.14c.38-.06.76-.11,1.12-.16l-15.82,8.48.4.75,16.82-9v0l-5.07,10.82.77.36,5.07-10.83,23.68-.51-.15.24.28.28A7.22,7.22,0,0,1,1241.41,195.42Zm3.67-57.42c.37,2,.74,4,1.28,6,1.31,4.94,2.82,10.19,4.88,17l.07.24c.66,2.14,1.28,4.16.84,6.3a60.66,60.66,0,0,1-2.45,8.4c-.59,1.63-1.15,3.29-1.71,5-1.07,3.17-2.17,6.45-3.52,9.52l-.31.68.71.09,0,0-22.83.49,22.51-11.35.77,0-.08-2,.17-.17-.19-.2-1.92-47.68A59.18,59.18,0,0,1,1245.08,138Zm65.54,3.55-5.07.68-9.27,1.25a45.39,45.39,0,0,1-6.41.56,19.19,19.19,0,0,1-4.46-.48,52.27,52.27,0,0,1-8-2.85c-1.47-.61-3-1.25-4.5-1.79-5.28-1.91-10-3.64-14.32-5.3l-3.1-1.18c-3.93-1.5-8-3.06-12-4.51l.19-.08.94.2.31.16.05-.09,30.26,6.25-.14.5,23.53,6.75.12-.41,0,.42,28.69-3.06h.08l-.14,0C1322.49,139.72,1317,140.69,1310.62,141.56Zm12.74,9.28.12-.11,0-.16a23.43,23.43,0,0,1,1.25-3.56c.21-.52.43-1,.62-1.54.67-1.79,1.48-3.68,2.6-6.12l.4-.87,16.43-1.75-9.16,28-12-13.51-.42.37-.09-.22A.5.5,0,0,1,1323.36,150.84Zm8.05,28.47c-.69-3.16-1.39-6.42-2.21-9.61a148.14,148.14,0,0,0-5.64-17.39l11.79,13.32-.17.52.54-.12.52.59.64-.56-.21-.23,28.82-6.05-31,28.69-.2-.27-.37.29h-.07v.08l-.58.44.28-.36-.06-.22C1332.73,185.4,1332.05,182.3,1331.41,179.31Zm-14,29.5c-1.15-.59-2.31-1.15-3.47-1.72a48.92,48.92,0,0,1-10-5.86.37.37,0,0,1-.12-.46.68.68,0,0,1,.55-.47h.36c1.07,0,2.12-.18,3.15-.31a28.69,28.69,0,0,1,3.68-.31l.73,0a10,10,0,0,0,4.59-1.25c.48-.21,1-.43,1.42-.61a36.92,36.92,0,0,0,4.79-2.43,40.53,40.53,0,0,1,4.06-2.11,16.3,16.3,0,0,0,1.54-.79l-11.77,8.9h0l-12.19-.94-.07.85,12.45,1,10.66,10.53c-3.51-.47-7-2.25-10.06-3.84Zm12,4.13h-.24l0,0-10.72-10.6,13.14,1-1.48,9.35.38.06-.08,0,0,.08C1330.06,212.91,1329.75,212.93,1329.38,212.93Zm38.85-48.33c-.6,2.56-1.24,5.11-1.87,7.66-1.11,4.46-2.26,9.07-3.21,13.67a123,123,0,0,1-5.4,19.53l-.11.29.19.24a.42.42,0,0,1,.07.52c-.67,1.05-2.1,1.35-3.48,1.64l-.77.17a56,56,0,0,1-6.39,1.19l-.51.06c-1.7.21-3.43.43-5.14.71l14.28-4.35,0,.12.83.19,0-.2.43.31.49-.69-.66-.47,0-.12,10.79-46.9-.56-.13,12.5-20.15,19.67-15.43-29.39,36.22-.13-.11-.12.42-.08.1,0,0-.06.22C1369,161.38,1368.58,163.05,1368.22,164.6Zm65,26.77c-1.53,0-3.08.1-4.57.18-1.34.07-2.73.15-4.09.17-2.1,0-4.22.19-6.28.33-2.31.17-4.7.34-7,.34a33.68,33.68,0,0,1-6-.48.38.38,0,0,1-.33-.4.62.62,0,0,1,.4-.64c3.11-1,6.1-2,8.87-3l.7-.26a22.19,22.19,0,0,1,5.84-1.58l.56,0-.07-.56c0-.19,0-.39-.07-.59a36.47,36.47,0,0,1-.32-7.55,6,6,0,0,1,.1-.61,2.28,2.28,0,0,0-.57-2.44,20,20,0,0,0-2.34-1.73c-.39-.26-.78-.52-1.18-.8-2.15-1.52-4.42-3-6.61-4.33s-4.38-2.76-6.49-4.25c-1.7-1.2-3.48-2.32-5.2-3.41-2.13-1.35-4.33-2.74-6.38-4.26a31.88,31.88,0,0,1-5-4.23c-.34-.39-.71-.81-1.08-1.25a28.73,28.73,0,0,0-3.33-3.52l.26-.21-.92-.91-.67.73-.4.43-1.32,1.45,3.47-4.28,11.19-13.79,8-9.86.62-.48.33.15.29-.63.65-.51-.35-.14,9.37-20.66h.15v-.31c.18.65.34,1.29.51,1.94l0,.16h-.19l5.11,70.21-23.46-40-.73.43,15.42,26.31-26.78-12.66-.37.77,27.44,13,.15-.32,8.46,14.45.08,1,.85-.06,0-.31,0-.4.2-.12-.24-.42-2.71-37.3,23.51,23.71-20.53,14.51.49.7,20.64-14.6.15.16-19.68,26.17.68.51.48-.64,18.17-24.17-8,29.08-10.19-4.92-.37.77,10.33,5-.13.48.82.22.09-.32.53.25A2.07,2.07,0,0,1,1433.18,191.36Zm10-28.38c-.93,4.72-2.11,9.22-3.36,14l-.42,1.62a40.54,40.54,0,0,1-3.58,10.11l-.13.25,0,.08a4.17,4.17,0,0,1-.86,1.46l-1-.5,8.41-30.64.52-.51-20.49-20.66-4.82-4.86-.37.37-2.19-30.05c1.39,6.1,2.5,12.32,3.56,18.37l.28,1.63c.68,4,1.39,8.06,2.26,12a5.15,5.15,0,0,0,1.45,2.34c.56.59,1.22,1.15,1.8,1.65.41.35.79.68,1.09,1,1.51,1.48,3.39,3.32,5.27,5,2.63,2.39,5.22,4.91,7.73,7.35l2.68,2.61a8.12,8.12,0,0,1,2.17,3A8,8,0,0,1,1443.22,163Z" transform="translate(0 -26.79)"/></g><path class="cls-7" d="M0,230.75S270.93,180,357,180s194.1,45.89,267,45.89,193.1-33.87,318.55-33.87S1400,225.93,1400,225.93V248H0" transform="translate(0 -26.79)"/></g></g></svg>