<svg xmlns="http://www.w3.org/2000/svg" viewBox="0 0 87.81 82.1"><defs><style>.cls-1{fill:#fff;}.cls-2{fill:#15c0dc;}</style></defs><title>spaced practice wb</title><g id="Layer_2" data-name="Layer 2"><g id="Layer_1-2" data-name="Layer 1"><path class="cls-1" d="M44.66.05A41.19,41.19,0,0,0,5.81,38.16a41.79,41.79,0,0,0-.07,4.24H.86a.86.86,0,0,0-.6,1.47l7,6.88a.86.86,0,0,0,1.2,0l7-6.88a.86.86,0,0,0-.6-1.47H10c0-1,0-1.92,0-2.9A36.83,36.83,0,1,1,21.63,67.94h0a1.61,1.61,0,0,0-.13-.16l-.07-.07a1.63,1.63,0,0,0-2.3,0l-.7.7a1.63,1.63,0,0,0,0,2.3l.07.07.16.13,0,0A41,41,0,1,0,44.66.05Z"/><circle class="cls-2" cx="46.76" cy="41.05" r="27.55"/><path class="cls-1" d="M59.27,50l-12.08-9V25.32a2,2,0,0,0-2-2H43.58a2,2,0,0,0-2,2v18a2,2,0,0,0,.53,1.36v0a2,2,0,0,0,.2.19l.09.09,13.31,9.87a2,2,0,0,0,2.82-.42l1.15-1.55A2,2,0,0,0,59.27,50Z"/></g></g></svg>