<svg xmlns="http://www.w3.org/2000/svg" viewBox="0 0 108.93 59.47"><defs><style>.cls-1{opacity:0.6;}.cls-2{fill:#0dc0dc;}</style></defs><title>sparkles-3</title><g id="Layer_2" data-name="Layer 2"><g id="Layer_16" data-name="Layer 16"><g class="cls-1"><path class="cls-2" d="M20,10A10,10,0,0,1,10,0,10,10,0,0,1,0,10,10,10,0,0,1,10,20,10,10,0,0,1,20,10Z"/></g><g class="cls-1"><path class="cls-2" d="M108.93,49.47a10,10,0,0,1-10-10,10,10,0,0,1-10,10,10,10,0,0,1,10,10A10,10,0,0,1,108.93,49.47Z"/></g></g></g></svg>