<svg xmlns="http://www.w3.org/2000/svg" viewBox="0 0 173.13 167.16"><defs><style>.cls-1{opacity:0.2;}.cls-2{fill:#0dc0dc;}</style></defs><title>sparkles-1</title><g id="Layer_2" data-name="Layer 2"><g id="Layer_16" data-name="Layer 16"><g class="cls-1"><path class="cls-2" d="M100,60A40,40,0,0,1,60,20,40,40,0,0,1,20,60a40,40,0,0,1,40,40A40,40,0,0,1,100,60Z"/></g><g class="cls-1"><path class="cls-2" d="M173.13,20a20,20,0,0,1-20-20,20,20,0,0,1-20,20,20,20,0,0,1,20,20A20,20,0,0,1,173.13,20Z"/></g><g class="cls-1"><path class="cls-2" d="M40,117.16a20,20,0,0,1-20-20,20,20,0,0,1-20,20,20,20,0,0,1,20,20A20,20,0,0,1,40,117.16Z"/></g><g class="cls-1"><path class="cls-2" d="M75,152.16a15,15,0,0,1-15-15,15,15,0,0,1-15,15,15,15,0,0,1,15,15A15,15,0,0,1,75,152.16Z"/></g></g></g></svg>