<svg xmlns="http://www.w3.org/2000/svg" viewBox="0 0 100.18 54.36"><defs><style>.cls-1{fill:#15c0dc;}.cls-2{fill:#fff;}</style></defs><title>ten dollar bill wb</title><g id="Layer_2" data-name="Layer 2"><g id="Layer_1-2" data-name="Layer 1"><path class="cls-1" d="M82.53,8.8H17a10.29,10.29,0,0,1-7.8,9.42V37.06a10.29,10.29,0,0,1,7.73,8.66H82.6a10.3,10.3,0,0,1,8.29-8.78V18.35A10.29,10.29,0,0,1,82.53,8.8Z"/><path class="cls-2" d="M36.68,39.94H35.36V37.22a9.32,9.32,0,0,1-4-1.18Q29,34.47,29,30.69h3.69A6.71,6.71,0,0,0,33.26,33a2.82,2.82,0,0,0,2.09,1.19V28.35L34.25,28a7.09,7.09,0,0,1-3.68-2.13,5.17,5.17,0,0,1-1.07-3.29,6.15,6.15,0,0,1,.42-2.31,5.29,5.29,0,0,1,1.17-1.79,5.23,5.23,0,0,1,2.16-1.34,9.91,9.91,0,0,1,2.12-.34V15h1.33v1.85a6.8,6.8,0,0,1,3.48,1.09,5.37,5.37,0,0,1,2.38,4.74H39a4.94,4.94,0,0,0-.41-1.78,2.1,2.1,0,0,0-1.86-1.07V25A17.06,17.06,0,0,1,41,27a4.84,4.84,0,0,1,1.84,4,5.43,5.43,0,0,1-2.53,5,8,8,0,0,1-3.66,1.12ZM35.36,19.86a2.4,2.4,0,0,0-1.76.64A2.32,2.32,0,0,0,33,22.15,2.18,2.18,0,0,0,33.88,24a4.9,4.9,0,0,0,1.48.68Zm1.33,14.29a3.43,3.43,0,0,0,1.55-.49,2.53,2.53,0,0,0,.85-2.17,2.32,2.32,0,0,0-.8-1.86,5.75,5.75,0,0,0-1.61-.82Z"/><path class="cls-2" d="M44.92,23V20.38a17.17,17.17,0,0,0,2.58-.25,3.63,3.63,0,0,0,1.91-1,3.42,3.42,0,0,0,.76-1.42,3.25,3.25,0,0,0,.15-.79h3.25V36.7h-4V23Z"/><path class="cls-2" d="M69.5,19.41A15.42,15.42,0,0,1,71,27a15.34,15.34,0,0,1-1.52,7.56Q68,37.19,64.19,37.19t-5.31-2.65A15.34,15.34,0,0,1,57.36,27a15.42,15.42,0,0,1,1.52-7.57q1.52-2.67,5.31-2.67T69.5,19.41ZM61.9,32.21A2.26,2.26,0,0,0,64.19,34a2.23,2.23,0,0,0,2.28-1.81A19.34,19.34,0,0,0,67,27a19.12,19.12,0,0,0-.54-5.3A2.21,2.21,0,0,0,64.19,20a2.24,2.24,0,0,0-2.3,1.72,18.46,18.46,0,0,0-.56,5.3A18.66,18.66,0,0,0,61.9,32.21Z"/><path class="cls-2" d="M95.21,0H5A5,5,0,0,0,0,5V49.4a5,5,0,0,0,5,5H95.21a5,5,0,0,0,5-5V5A5,5,0,0,0,95.21,0ZM97,48.42a2.92,2.92,0,0,1-2.89,3H6a2.92,2.92,0,0,1-2.89-3V6.09A2.92,2.92,0,0,1,6,3.13H94.16a2.92,2.92,0,0,1,2.89,3Z"/></g></g></svg>