<svg xmlns="http://www.w3.org/2000/svg" viewBox="0 0 1452 100.52"><defs><style>.cls-1{fill:#007297;}</style></defs><title>Asset 7</title><g id="Layer_2" data-name="Layer 2"><g id="Layer_14" data-name="Layer 14"><path class="cls-1" d="M64.17,88.18l-12.4-8L44.34,71.3l6.51,1h.07l11.34-.75a.18.18,0,0,0,.16-.19v-.13l0-.12a.18.18,0,0,0-.12-.22l-4-1.14L42.44,61.3l-2.31-3.57,2,.75.05.09a.18.18,0,0,0,.24.06l.05,0,.1,0a.18.18,0,0,0,.09-.09l0,0a.18.18,0,0,0,.07-.24h0v0a.18.18,0,0,0-.1-.23l-.08,0-.35-.58L44.61,59l.09,0,.08,0,12.61.86.12.08a.18.18,0,0,0,.24-.05l.17-.27a.18.18,0,0,0,0-.24l-.09-.06,0-.05a.18.18,0,0,0-.12-.06l-5.3-3.51-8.09-10,3.43,1a.18.18,0,0,0,.18.12H48a.16.16,0,0,0,.12,0l6.07-.49a.18.18,0,0,0,.16-.19V46l0-.13a.18.18,0,0,0-.14-.2l-5.19-.94a.18.18,0,0,0-.07-.06l-7.93-4.07L40.58,39,45,41.33a.17.17,0,0,0,.14,0h0a.17.17,0,0,0,.13,0l.25-.2a.18.18,0,0,0,0-.25l-.13-.16,7,1.06a.17.17,0,0,0,.13,0,.18.18,0,0,0,.07-.12l0-.14.05-.13a.18.18,0,0,0-.1-.23l-2.15-.84-9.94-7.69-.71-2.16,3.61-.07,4,1.4a.18.18,0,0,0,.22-.11l0-.12.08-.09a.18.18,0,0,0,0-.25L37.79,22l-1.56-5.46a.17.17,0,0,0,0-.08.18.18,0,0,0-.05-.08l-1.11-1a.18.18,0,0,0-.18,0l-2.7-11a.17.17,0,0,0-.08-.11.17.17,0,0,0-.13,0l-.12,0-.12,0a.17.17,0,0,0-.2.14L29.24,18.12,17.18,31.69a.18.18,0,0,0,0,.25l.07.06v.09a.17.17,0,0,0,.2.15l4-.55.08,0a.18.18,0,0,0,.13,0l.11-.07.31,0a.18.18,0,0,0,.15-.2v0L26.19,29,13.4,40.7a.18.18,0,0,0,0,.25l.22.24a.18.18,0,0,0,.12.06h0a.18.18,0,0,0,.23.09l10.83-4.49-2,3.76L10.18,49.16a.18.18,0,0,0,0,.24l.06.09v.11a.17.17,0,0,0,.18.17l1.6-.06-2.78,5a.18.18,0,0,0,.07.24l.1.05.06.1a.18.18,0,0,0,.24.06L23.36,47,22,50.87,9.77,60.68a.18.18,0,0,0,0,.25l.2.25a.18.18,0,0,0,.25,0l.2-.16.07,0a.17.17,0,0,0,.14,0l13-5.77-2.29,3.3L8.06,66.28a.18.18,0,0,0-.07.07l-1.36.12a.18.18,0,0,0-.17.19l0,.31a.19.19,0,0,0,.07.12.21.21,0,0,0,.14,0l11.45-.79-2.18.94a.18.18,0,0,0-.09.23l0,.11v.12a.18.18,0,0,0,.17.18l2.7.1-5,2.93L.13,74.58a.18.18,0,0,0-.12.22l.08.3a.17.17,0,0,0,.21.12h0l1,1a.18.18,0,0,0,.11,0,.17.17,0,0,0,.11,0l6.68.06L.33,82.49a.18.18,0,0,0,0,.25l.08.1L.43,83a.18.18,0,0,0,.23.1l14.28-5.79-.85,2.93a.18.18,0,0,0,.12.22l.09,0,.06.08a.18.18,0,0,0,.25,0l10.11-7.35-4.9,11.87a.18.18,0,0,0,.09.23l.11,0,.08.09a.18.18,0,0,0,.12.06.21.21,0,0,0,.13,0l8-7.41V92.83a2.51,2.51,0,0,0,.33.33h5.55a.17.17,0,0,0,.15-.08h0a.18.18,0,0,0,.18-.18v-16l11.49,11a.19.19,0,0,1,.16.14.17.17,0,0,0,.13,0l.31,0a.18.18,0,0,0,.16-.18l-.33-6,6,4a.18.18,0,0,0,.23,0l11.21,3a.18.18,0,0,0,.22-.12l0-.13.07-.11A.18.18,0,0,0,64.17,88.18Z"/><path class="cls-1" d="M134.51,84.85l-12.4-8L114.67,68l6.51,1h.07l11.34-.75a.18.18,0,0,0,.16-.19v-.13l0-.12a.18.18,0,0,0-.12-.22l-4-1.14L112.78,58l-2.31-3.57,2,.75.05.09a.18.18,0,0,0,.24.06l.05,0,.1,0a.18.18,0,0,0,.09-.09l0,0a.18.18,0,0,0,.07-.24h0v0a.18.18,0,0,0-.1-.23l-.08,0-.35-.58,2.38,1.6.09,0,.08,0,12.61.86.12.08a.18.18,0,0,0,.24-.05l.17-.27a.18.18,0,0,0,0-.24l-.09-.06,0-.05a.18.18,0,0,0-.12-.06l-5.3-3.51-8.09-10,3.43,1a.18.18,0,0,0,.18.12h.2a.16.16,0,0,0,.12,0l6.07-.49a.18.18,0,0,0,.16-.19v-.14l0-.13a.18.18,0,0,0-.14-.2l-5.19-.94a.18.18,0,0,0-.07-.06l-7.93-4.07-.48-1.6L115.37,38a.17.17,0,0,0,.14,0h0a.17.17,0,0,0,.13,0l.25-.2a.18.18,0,0,0,0-.25l-.13-.16,7,1.06a.17.17,0,0,0,.13,0,.18.18,0,0,0,.07-.12l0-.14L123,38a.18.18,0,0,0-.1-.23l-2.15-.84-9.94-7.69-.71-2.16,3.61-.07,4,1.4a.18.18,0,0,0,.22-.11l0-.12.08-.09a.18.18,0,0,0,0-.25l-9.93-9.14-1.56-5.46a.17.17,0,0,0,0-.08.18.18,0,0,0-.05-.08l-1.11-1a.18.18,0,0,0-.18,0l-2.7-11a.17.17,0,0,0-.08-.11.17.17,0,0,0-.13,0l-.12,0L102,1a.17.17,0,0,0-.2.14L99.57,14.79,87.52,28.36a.18.18,0,0,0,0,.25l.07.06v.09a.17.17,0,0,0,.2.15l4-.55.08,0a.18.18,0,0,0,.13,0l.11-.07.31,0a.18.18,0,0,0,.15-.2v0l3.89-2.41L83.73,37.37a.18.18,0,0,0,0,.25l.22.24a.18.18,0,0,0,.12.06h0a.18.18,0,0,0,.23.09l10.83-4.49-2,3.76L80.52,45.83a.18.18,0,0,0,0,.24l.06.09v.11a.17.17,0,0,0,.18.17l1.6-.06-2.78,5a.18.18,0,0,0,.07.24l.1.05.06.1a.18.18,0,0,0,.24.06l13.69-8.22-1.4,3.89L80.1,57.35a.18.18,0,0,0,0,.25l.2.25a.18.18,0,0,0,.25,0l.2-.16.07,0a.17.17,0,0,0,.14,0l13-5.77-2.29,3.3L78.4,63a.18.18,0,0,0-.07.07L77,63.14a.18.18,0,0,0-.17.19l0,.31a.19.19,0,0,0,.07.12.21.21,0,0,0,.14,0L88.46,63,86.28,64a.18.18,0,0,0-.09.23l0,.11v.12a.18.18,0,0,0,.17.18l2.7.1-5,2.93L70.47,71.25a.18.18,0,0,0-.12.22l.08.3a.17.17,0,0,0,.21.12h0l1,1a3.49,3.49,0,0,0,.23.09l6.68.06-7.92,6.17a.18.18,0,0,0,0,.25l.08.1.05.12a.18.18,0,0,0,.23.1l14.28-5.79-.85,2.93a.18.18,0,0,0,.12.22l.09,0,.06.08a.18.18,0,0,0,.25,0l10.11-7.35-4.9,11.87a.18.18,0,0,0,.09.23l.11,0,.08.09a.18.18,0,0,0,.12.06.21.21,0,0,0,.13,0l8-7.41V89.5a2.51,2.51,0,0,0,.33.33h5.55a.17.17,0,0,0,.15-.08h0a.18.18,0,0,0,.18-.18v-16l11.49,11a.19.19,0,0,1,.16.14.17.17,0,0,0,.13,0l.31,0a.18.18,0,0,0,.16-.18l-.33-6,6,4a.18.18,0,0,0,.23,0l11.21,3a.18.18,0,0,0,.22-.12l0-.13.07-.11A.18.18,0,0,0,134.51,84.85Z"/><path class="cls-1" d="M182.82,92.62l-12.4-8L163,75.74l6.51,1h.07L180.92,76a.18.18,0,0,0,.16-.19v-.13l0-.12a.18.18,0,0,0-.12-.22l-4-1.14-15.88-8.5-2.31-3.57,2,.75.05.09a.18.18,0,0,0,.24.06l.05,0,.1,0a.18.18,0,0,0,.09-.09l0,0a.18.18,0,0,0,.07-.24h0v0a.18.18,0,0,0-.1-.23l-.08,0-.35-.58,2.38,1.6.09,0,.08,0,12.61.86.12.08a.18.18,0,0,0,.24-.05l.17-.27a.18.18,0,0,0,0-.24l-.09-.06,0-.05a.18.18,0,0,0-.12-.06L171,60.15l-8.09-10,3.43,1a.18.18,0,0,0,.18.12h.2a.16.16,0,0,0,.12,0l6.07-.49a.18.18,0,0,0,.16-.19V50.4l0-.13a.18.18,0,0,0-.14-.2l-5.19-.94a.18.18,0,0,0-.07-.06L159.72,45l-.48-1.6,4.45,2.37a.17.17,0,0,0,.14,0h0a.17.17,0,0,0,.13,0l.25-.2a.18.18,0,0,0,0-.25l-.13-.16,7,1.06a.17.17,0,0,0,.13,0,.18.18,0,0,0,.07-.12l0-.14.05-.13a.18.18,0,0,0-.1-.23l-2.15-.84L159.17,37l-.71-2.16,3.61-.07,4,1.4a.18.18,0,0,0,.22-.11l0-.12.08-.09a.18.18,0,0,0,0-.25l-9.93-9.14L154.88,21a.17.17,0,0,0,0-.08.18.18,0,0,0-.05-.08l-1.11-1a.18.18,0,0,0-.18,0l-2.7-11a.17.17,0,0,0-.08-.11.17.17,0,0,0-.13,0l-.12,0-.12,0a.17.17,0,0,0-.2.14l-2.24,13.66L135.83,36.13a.18.18,0,0,0,0,.25l.07.06v.09a.17.17,0,0,0,.2.15l4-.55.08,0a.18.18,0,0,0,.13,0l.11-.07.31,0a.18.18,0,0,0,.15-.2v0l3.89-2.41L132,45.15a.18.18,0,0,0,0,.25l.22.24a.18.18,0,0,0,.12.06h0a.18.18,0,0,0,.23.09l10.83-4.49-2,3.76L128.83,53.6a.18.18,0,0,0,0,.24l.06.09V54a.17.17,0,0,0,.18.17l1.6-.06-2.78,5a.18.18,0,0,0,.07.24l.1.05.06.1a.18.18,0,0,0,.24.06L142,51.42l-1.4,3.89-12.2,9.81a.18.18,0,0,0,0,.25l.2.25a.18.18,0,0,0,.25,0l.2-.16.07,0a.17.17,0,0,0,.14,0l13-5.77L140,63.06l-13.24,7.67a.18.18,0,0,0-.07.07l-1.36.12a.18.18,0,0,0-.17.19l0,.31a.19.19,0,0,0,.07.12.21.21,0,0,0,.14,0l11.45-.79-2.18.94a.18.18,0,0,0-.09.23l0,.11v.12a.18.18,0,0,0,.17.18l2.7.1-5,2.93L118.78,79a.18.18,0,0,0-.12.22l.08.3a.17.17,0,0,0,.21.12h0l1,1a3.49,3.49,0,0,0,.23.09l6.68.06L119,86.93a.18.18,0,0,0,0,.25l.08.1.05.12a.18.18,0,0,0,.23.1l14.28-5.79-.85,2.93a.18.18,0,0,0,.12.22l.09,0L133,85a.18.18,0,0,0,.25,0l10.11-7.35-4.9,11.87a.18.18,0,0,0,.09.23l.11,0,.08.09a.18.18,0,0,0,.12.06.21.21,0,0,0,.13,0l8-7.41V97.27a2.51,2.51,0,0,0,.33.33h5.55a.17.17,0,0,0,.15-.08h0a.18.18,0,0,0,.18-.18v-16l11.49,11a.19.19,0,0,1,.16.14.17.17,0,0,0,.13,0l.31,0a.18.18,0,0,0,.16-.18l-.33-6,6,4a.18.18,0,0,0,.23,0l11.21,3a.18.18,0,0,0,.22-.12l0-.13.07-.11A.18.18,0,0,0,182.82,92.62Z"/><path class="cls-1" d="M304.19,83.88l-12.4-8L284.35,67l6.51,1h.07l11.34-.75a.18.18,0,0,0,.16-.19V67l0-.12a.18.18,0,0,0-.12-.22l-4-1.14L282.46,57l-2.31-3.57,2,.75.05.09a.18.18,0,0,0,.24.06l.05,0,.1,0a.18.18,0,0,0,.09-.09l0,0a.18.18,0,0,0,.07-.24h0v0a.18.18,0,0,0-.1-.23l-.08,0-.35-.58,2.38,1.6.09,0,.08,0,12.61.86.12.08a.18.18,0,0,0,.24-.05l.17-.27a.18.18,0,0,0,0-.24L297.8,55l0-.05a.18.18,0,0,0-.12-.06l-5.3-3.51-8.09-10,3.43,1a.18.18,0,0,0,.18.12h.2a.16.16,0,0,0,.12,0l6.07-.49a.18.18,0,0,0,.16-.19v-.14l0-.13a.18.18,0,0,0-.14-.2l-5.19-.94a.18.18,0,0,0-.07-.06l-7.93-4.07-.48-1.6L285,37a.17.17,0,0,0,.14,0h0a.17.17,0,0,0,.13,0l.25-.2a.18.18,0,0,0,0-.25l-.13-.16,7,1.06a.17.17,0,0,0,.13,0,.18.18,0,0,0,.07-.12l0-.14.05-.13a.18.18,0,0,0-.1-.23L290.48,36l-9.94-7.69-.71-2.16,3.61-.07,4,1.4a.18.18,0,0,0,.22-.11l0-.12.08-.09a.18.18,0,0,0,0-.25l-9.93-9.14-1.56-5.46a.17.17,0,0,0,0-.08.18.18,0,0,0-.05-.08l-1.11-1a.18.18,0,0,0-.18,0l-2.7-11a.17.17,0,0,0-.08-.11.17.17,0,0,0-.13,0l-.12,0-.12,0a.17.17,0,0,0-.2.14l-2.24,13.66L257.2,27.38a.18.18,0,0,0,0,.25l.07.06v.09a.17.17,0,0,0,.2.15l4-.55.08,0a.18.18,0,0,0,.13,0l.11-.07.31,0a.18.18,0,0,0,.15-.2v0l3.89-2.41L253.41,36.4a.18.18,0,0,0,0,.25l.22.24a.18.18,0,0,0,.12.06h0A.18.18,0,0,0,254,37l10.83-4.49-2,3.76L250.2,44.86a.18.18,0,0,0,0,.24l.06.09v.11a.17.17,0,0,0,.18.17l1.6-.06-2.78,5a.18.18,0,0,0,.07.24l.1.05.06.1a.18.18,0,0,0,.24.06l13.69-8.22L262,46.57l-12.2,9.81a.18.18,0,0,0,0,.25l.2.25a.18.18,0,0,0,.25,0l.2-.16.07,0a.17.17,0,0,0,.14,0l13-5.77-2.29,3.3L248.08,62a.18.18,0,0,0-.07.07l-1.36.12a.18.18,0,0,0-.17.19l0,.31a.19.19,0,0,0,.07.12.21.21,0,0,0,.14,0L258.14,62,256,63a.18.18,0,0,0-.09.23l0,.11v.12a.18.18,0,0,0,.17.18l2.7.1-5,2.93-13.68,3.61a.18.18,0,0,0-.12.22l.08.3a.17.17,0,0,0,.21.12h0l1,1a3.49,3.49,0,0,0,.23.09l6.68.06-7.92,6.17a.18.18,0,0,0,0,.25l.08.1.05.12a.18.18,0,0,0,.23.1L255,73l-.85,2.93a.18.18,0,0,0,.12.22l.09,0,.06.08a.18.18,0,0,0,.25,0l10.11-7.35-4.9,11.87a.18.18,0,0,0,.09.23l.11,0,.08.09a.18.18,0,0,0,.12.06.21.21,0,0,0,.13,0l8-7.41V88.53a2.51,2.51,0,0,0,.33.33h5.55a.17.17,0,0,0,.15-.08h0a.18.18,0,0,0,.18-.18v-16l11.49,11a.19.19,0,0,1,.16.14.17.17,0,0,0,.13,0l.31,0a.18.18,0,0,0,.16-.18l-.33-6,6,4a.18.18,0,0,0,.23,0l11.21,3a.18.18,0,0,0,.22-.12l0-.13.07-.11A.18.18,0,0,0,304.19,83.88Z"/><path class="cls-1" d="M90.24,91.56,90,91.49a.18.18,0,0,0,0-.11L77.93,73.57l7.64,2.29a.18.18,0,0,0,.22-.12l0-.16L86,75.5a.18.18,0,0,0,.05-.24L74,56.59l5.53,1.56a.18.18,0,0,0,.13,0,.18.18,0,0,0,.08-.11l0-.15.13-.09a.18.18,0,0,0,.05-.24L66.61,37.1a.18.18,0,0,0-.24-.05l-.21.14L65.95,37a.18.18,0,0,0-.24.05L52.31,57.54a.18.18,0,0,0,.05.24l.13.09,0,.15a.18.18,0,0,0,.08.11.18.18,0,0,0,.13,0l5.53-1.56-12,18.66a.18.18,0,0,0,.05.24l.14.09,0,.16a.18.18,0,0,0,.22.12l7.63-2.29L42.32,91.37a.18.18,0,0,0,0,.11l-.22.07a.18.18,0,0,0-.11.22l.14.43a.18.18,0,0,0,.22.11l20.59-6.71v14.5a.18.18,0,0,0,.18.18h0v.05a.18.18,0,0,0,.18.18H69a.18.18,0,0,0,.18-.18v-.05h0a.18.18,0,0,0,.18-.18V85.61L90,92.32a.18.18,0,0,0,.22-.11l.14-.43a.18.18,0,0,0-.11-.22Z"/><path class="cls-1" d="M217.84,76l-.22-.07a.18.18,0,0,0,0-.11L205.53,58l7.64,2.29a.18.18,0,0,0,.22-.12l0-.16.14-.09a.18.18,0,0,0,.05-.24L201.63,41l5.53,1.56a.18.18,0,0,0,.13,0,.18.18,0,0,0,.08-.11l0-.15.13-.09a.18.18,0,0,0,.05-.24L194.2,21.5a.18.18,0,0,0-.24-.05l-.21.14-.21-.14a.18.18,0,0,0-.24.05L179.9,41.94a.18.18,0,0,0,.05.24l.13.09,0,.15a.18.18,0,0,0,.08.11.18.18,0,0,0,.13,0L185.88,41l-12,18.66a.18.18,0,0,0,.05.24l.14.09,0,.16a.18.18,0,0,0,.22.12L182,58l-12.06,17.8a.18.18,0,0,0,0,.11l-.22.07a.18.18,0,0,0-.11.22l.14.43a.18.18,0,0,0,.22.11L190.51,70v14.5a.18.18,0,0,0,.18.18h0v.05a.18.18,0,0,0,.18.18h5.68a.18.18,0,0,0,.18-.18v-.05h0a.18.18,0,0,0,.18-.18V70l20.59,6.71a.18.18,0,0,0,.22-.11l.14-.43a.18.18,0,0,0-.11-.22Z"/><path class="cls-1" d="M250.45,84.2l-.22-.07a.18.18,0,0,0,0-.11l-12.06-17.8,7.64,2.29a.18.18,0,0,0,.22-.12l0-.16.14-.09a.18.18,0,0,0,.05-.24l-12-18.66,5.53,1.56a.18.18,0,0,0,.13,0,.18.18,0,0,0,.08-.11l0-.15.13-.09a.18.18,0,0,0,.05-.24l-13.4-20.44a.18.18,0,0,0-.24-.05l-.21.14-.21-.14a.18.18,0,0,0-.24.05l-13.4,20.44a.18.18,0,0,0,.05.24l.13.09,0,.15a.18.18,0,0,0,.08.11.18.18,0,0,0,.13,0l5.53-1.56-12,18.66a.18.18,0,0,0,.05.24l.14.09,0,.16a.18.18,0,0,0,.22.12l7.63-2.29L202.52,84a.18.18,0,0,0,0,.11l-.22.07a.18.18,0,0,0-.11.22l.14.43a.18.18,0,0,0,.22.11l20.59-6.71v14.5a.18.18,0,0,0,.18.18h0V93a.18.18,0,0,0,.18.18h5.68a.18.18,0,0,0,.18-.18v-.05h0a.18.18,0,0,0,.18-.18V78.26L250.19,85a.18.18,0,0,0,.22-.11l.14-.43a.18.18,0,0,0-.11-.22Z"/><path class="cls-1" d="M351.11,88.18l-12.4-8-7.44-8.92,6.51,1h.07l11.34-.75a.18.18,0,0,0,.16-.19v-.13l0-.12a.18.18,0,0,0-.12-.22l-4-1.14-15.88-8.5-2.31-3.57,2,.75.05.09a.18.18,0,0,0,.24.06l.05,0,.1,0a.18.18,0,0,0,.09-.09l0,0a.18.18,0,0,0,.07-.24h0v0a.18.18,0,0,0-.1-.23l-.08,0-.35-.58,2.38,1.6.09,0,.08,0,12.61.86.12.08a.18.18,0,0,0,.24-.05l.17-.27a.18.18,0,0,0,0-.24l-.09-.06,0-.05a.18.18,0,0,0-.12-.06l-5.3-3.51-8.09-10,3.43,1a.18.18,0,0,0,.18.12h.2a.16.16,0,0,0,.12,0l6.07-.49a.18.18,0,0,0,.16-.19V46l0-.13a.18.18,0,0,0-.14-.2L336,44.68a.18.18,0,0,0-.07-.06L328,40.55l-.48-1.6L332,41.33a.17.17,0,0,0,.14,0h0a.17.17,0,0,0,.13,0l.25-.2a.18.18,0,0,0,0-.25l-.13-.16,7,1.06a.17.17,0,0,0,.13,0,.18.18,0,0,0,.07-.12l0-.14.05-.13a.18.18,0,0,0-.1-.23l-2.15-.84-9.94-7.69-.71-2.16,3.61-.07,4,1.4a.18.18,0,0,0,.22-.11l0-.12.08-.09a.18.18,0,0,0,0-.25L324.73,22l-1.56-5.46a.17.17,0,0,0,0-.08.18.18,0,0,0-.05-.08l-1.11-1a.18.18,0,0,0-.18,0l-2.7-11a.17.17,0,0,0-.08-.11.17.17,0,0,0-.13,0l-.12,0-.12,0a.17.17,0,0,0-.2.14l-2.24,13.66L304.11,31.69a.18.18,0,0,0,0,.25l.07.06v.09a.17.17,0,0,0,.2.15l4-.55.08,0a.18.18,0,0,0,.13,0l.11-.07.31,0a.18.18,0,0,0,.15-.2v0L313.13,29,300.33,40.7a.18.18,0,0,0,0,.25l.22.24a.18.18,0,0,0,.12.06h0a.18.18,0,0,0,.23.09l10.83-4.49-2,3.76-12.61,8.56a.18.18,0,0,0,0,.24l.06.09v.11a.17.17,0,0,0,.18.17l1.6-.06-2.78,5a.18.18,0,0,0,.07.24l.1.05.06.1a.18.18,0,0,0,.24.06L310.29,47l-1.4,3.89-12.2,9.81a.18.18,0,0,0,0,.25l.2.25a.18.18,0,0,0,.25,0l.2-.16.07,0a.17.17,0,0,0,.14,0l13-5.77-2.29,3.3L295,66.28a.18.18,0,0,0-.07.07l-1.36.12a.18.18,0,0,0-.17.19l0,.31a.19.19,0,0,0,.07.12.21.21,0,0,0,.14,0l11.45-.79-2.18.94a.18.18,0,0,0-.09.23l0,.11v.12a.18.18,0,0,0,.17.18l2.7.1-5,2.93-13.68,3.61a.18.18,0,0,0-.12.22l.08.3a.17.17,0,0,0,.21.12h0l1,1a3.49,3.49,0,0,0,.23.09l6.68.06-7.92,6.17a.18.18,0,0,0,0,.25l.08.1.05.12a.18.18,0,0,0,.23.1l14.28-5.79L301,80.2a.18.18,0,0,0,.12.22l.09,0,.06.08a.18.18,0,0,0,.25,0l10.11-7.35-4.9,11.87a.18.18,0,0,0,.09.23l.11,0,.08.09a.18.18,0,0,0,.12.06.21.21,0,0,0,.13,0l8-7.41V92.83a2.51,2.51,0,0,0,.33.33h5.55a.17.17,0,0,0,.15-.08h0a.18.18,0,0,0,.18-.18v-16l11.49,11a.19.19,0,0,1,.16.14.17.17,0,0,0,.13,0l.31,0a.18.18,0,0,0,.16-.18l-.33-6,6,4a.18.18,0,0,0,.23,0l11.21,3a.18.18,0,0,0,.22-.12l0-.13.07-.11A.18.18,0,0,0,351.11,88.18Z"/><path class="cls-1" d="M421.44,84.85l-12.4-8L401.61,68l6.51,1h.07l11.34-.75a.18.18,0,0,0,.16-.19v-.13l0-.12a.18.18,0,0,0-.12-.22l-4-1.14L399.71,58l-2.31-3.57,2,.75.05.09a.18.18,0,0,0,.24.06l.05,0,.1,0a.18.18,0,0,0,.09-.09l0,0a.18.18,0,0,0,.07-.24h0v0a.18.18,0,0,0-.1-.23l-.08,0L399.5,54l2.38,1.6.09,0,.08,0,12.61.86.12.08a.18.18,0,0,0,.24-.05l.17-.27a.18.18,0,0,0,0-.24l-.09-.06,0-.05a.18.18,0,0,0-.12-.06l-5.3-3.51-8.09-10,3.43,1a.18.18,0,0,0,.18.12h.2a.16.16,0,0,0,.12,0l6.07-.49a.18.18,0,0,0,.16-.19v-.14l0-.13a.18.18,0,0,0-.14-.2l-5.19-.94a.18.18,0,0,0-.07-.06l-7.93-4.07-.48-1.6L402.3,38a.17.17,0,0,0,.14,0h0a.17.17,0,0,0,.13,0l.25-.2a.18.18,0,0,0,0-.25l-.13-.16,7,1.06a.17.17,0,0,0,.13,0,.18.18,0,0,0,.07-.12l0-.14L410,38a.18.18,0,0,0-.1-.23l-2.15-.84-9.94-7.69-.71-2.16,3.61-.07,4,1.4a.18.18,0,0,0,.22-.11l0-.12.08-.09a.18.18,0,0,0,0-.25l-9.93-9.14-1.56-5.46a.17.17,0,0,0,0-.08.18.18,0,0,0-.05-.08l-1.11-1a.18.18,0,0,0-.18,0l-2.7-11a.17.17,0,0,0-.08-.11.17.17,0,0,0-.13,0l-.12,0L389,1a.17.17,0,0,0-.2.14l-2.24,13.66L374.45,28.36a.18.18,0,0,0,0,.25l.07.06v.09a.17.17,0,0,0,.2.15l4-.55.08,0a.18.18,0,0,0,.13,0l.11-.07.31,0a.18.18,0,0,0,.15-.2v0l3.89-2.41-12.8,11.75a.18.18,0,0,0,0,.25l.22.24a.18.18,0,0,0,.12.06h0a.18.18,0,0,0,.23.09l10.83-4.49-2,3.76-12.61,8.56a.18.18,0,0,0,0,.24l.06.09v.11a.17.17,0,0,0,.18.17l1.6-.06-2.78,5a.18.18,0,0,0,.07.24l.1.05.06.1a.18.18,0,0,0,.24.06l13.69-8.22-1.4,3.89L367,57.35a.18.18,0,0,0,0,.25l.2.25a.18.18,0,0,0,.25,0l.2-.16.07,0a.17.17,0,0,0,.14,0l13-5.77-2.29,3.3L365.33,63a.18.18,0,0,0-.07.07l-1.36.12a.18.18,0,0,0-.17.19l0,.31a.19.19,0,0,0,.07.12.21.21,0,0,0,.14,0L375.4,63l-2.18.94a.18.18,0,0,0-.09.23l0,.11v.12a.18.18,0,0,0,.17.18l2.7.1-5,2.93L357.4,71.25a.18.18,0,0,0-.12.22l.08.3a.17.17,0,0,0,.21.12h0l1,1a3.49,3.49,0,0,0,.23.09l6.68.06-7.92,6.17a.18.18,0,0,0,0,.25l.08.1.05.12a.18.18,0,0,0,.23.1l14.28-5.79-.85,2.93a.18.18,0,0,0,.12.22l.09,0,.06.08a.18.18,0,0,0,.25,0L382,69.88l-4.9,11.87a.18.18,0,0,0,.09.23l.11,0,.08.09a.18.18,0,0,0,.12.06.21.21,0,0,0,.13,0l8-7.41V89.5a2.51,2.51,0,0,0,.33.33h5.55a.17.17,0,0,0,.15-.08h0a.18.18,0,0,0,.18-.18v-16l11.49,11a.19.19,0,0,1,.16.14.17.17,0,0,0,.13,0l.31,0a.18.18,0,0,0,.16-.18l-.33-6,6,4a.18.18,0,0,0,.23,0l11.21,3a.18.18,0,0,0,.22-.12l0-.13.07-.11A.18.18,0,0,0,421.44,84.85Z"/><path class="cls-1" d="M469.76,92.62l-12.4-8-7.44-8.92,6.51,1h.07L467.85,76a.18.18,0,0,0,.16-.19v-.13l0-.12a.18.18,0,0,0-.12-.22l-4-1.14L448,65.74l-2.31-3.57,2,.75.05.09a.18.18,0,0,0,.24.06l.05,0,.1,0a.18.18,0,0,0,.09-.09l0,0a.18.18,0,0,0,.07-.24h0v0a.18.18,0,0,0-.1-.23l-.08,0-.35-.58,2.38,1.6.09,0,.08,0,12.61.86.12.08a.18.18,0,0,0,.24-.05l.17-.27a.18.18,0,0,0,0-.24l-.09-.06,0-.05a.18.18,0,0,0-.12-.06l-5.3-3.51-8.09-10,3.43,1a.18.18,0,0,0,.18.12h.2a.16.16,0,0,0,.12,0l6.07-.49a.18.18,0,0,0,.16-.19V50.4l0-.13a.18.18,0,0,0-.14-.2l-5.19-.94a.18.18,0,0,0-.07-.06L446.65,45l-.48-1.6,4.45,2.37a.17.17,0,0,0,.14,0h0a.17.17,0,0,0,.13,0l.25-.2a.18.18,0,0,0,0-.25l-.13-.16,7,1.06a.17.17,0,0,0,.13,0,.18.18,0,0,0,.07-.12l0-.14.05-.13a.18.18,0,0,0-.1-.23L456,44.71,446.11,37l-.71-2.16,3.61-.07,4,1.4a.18.18,0,0,0,.22-.11l0-.12.08-.09a.18.18,0,0,0,0-.25l-9.93-9.14L441.82,21a.17.17,0,0,0,0-.08.18.18,0,0,0-.05-.08l-1.11-1a.18.18,0,0,0-.18,0l-2.7-11a.17.17,0,0,0-.08-.11.17.17,0,0,0-.13,0l-.12,0-.12,0a.17.17,0,0,0-.2.14l-2.24,13.66L422.77,36.13a.18.18,0,0,0,0,.25l.07.06v.09a.17.17,0,0,0,.2.15l4-.55.08,0a.18.18,0,0,0,.13,0l.11-.07.31,0a.18.18,0,0,0,.15-.2v0l3.89-2.41L419,45.15a.18.18,0,0,0,0,.25l.22.24a.18.18,0,0,0,.12.06h0a.18.18,0,0,0,.23.09l10.83-4.49-2,3.76L415.77,53.6a.18.18,0,0,0,0,.24l.06.09V54a.17.17,0,0,0,.18.17l1.6-.06-2.78,5a.18.18,0,0,0,.07.24l.1.05.06.1a.18.18,0,0,0,.24.06l13.69-8.22-1.4,3.89-12.2,9.81a.18.18,0,0,0,0,.25l.2.25a.18.18,0,0,0,.25,0l.2-.16.07,0a.17.17,0,0,0,.14,0l13-5.77-2.29,3.3-13.24,7.67a.18.18,0,0,0-.07.07l-1.36.12a.18.18,0,0,0-.17.19l0,.31a.19.19,0,0,0,.07.12.21.21,0,0,0,.14,0l11.45-.79-2.18.94a.18.18,0,0,0-.09.23l0,.11v.12a.18.18,0,0,0,.17.18l2.7.1-5,2.93L405.72,79a.18.18,0,0,0-.12.22l.08.3a.17.17,0,0,0,.21.12h0l1,1a3.49,3.49,0,0,0,.23.09l6.68.06-7.92,6.17a.18.18,0,0,0,0,.25l.08.1.05.12a.18.18,0,0,0,.23.1l14.28-5.79-.85,2.93a.18.18,0,0,0,.12.22l.09,0,.06.08a.18.18,0,0,0,.25,0l10.11-7.35-4.9,11.87a.18.18,0,0,0,.09.23l.11,0,.08.09a.18.18,0,0,0,.12.06.21.21,0,0,0,.13,0l8-7.41V97.27a2.51,2.51,0,0,0,.33.33h5.55a.17.17,0,0,0,.15-.08h0a.18.18,0,0,0,.18-.18v-16l11.49,11a.19.19,0,0,1,.16.14.17.17,0,0,0,.13,0l.31,0a.18.18,0,0,0,.16-.18l-.33-6,6,4a.18.18,0,0,0,.23,0l11.21,3a.18.18,0,0,0,.22-.12l0-.13.07-.11A.18.18,0,0,0,469.76,92.62Z"/><path class="cls-1" d="M591.12,83.88l-12.4-8L571.29,67l6.51,1h.07l11.34-.75a.18.18,0,0,0,.16-.19V67l0-.12a.18.18,0,0,0-.12-.22l-4-1.14L569.39,57l-2.31-3.57,2,.75.05.09a.18.18,0,0,0,.24.06l.05,0,.1,0a.18.18,0,0,0,.09-.09l0,0a.18.18,0,0,0,.07-.24h0v0a.18.18,0,0,0-.1-.23l-.08,0-.35-.58,2.38,1.6.09,0,.08,0,12.61.86.12.08a.18.18,0,0,0,.24-.05l.17-.27a.18.18,0,0,0,0-.24l-.09-.06,0-.05a.18.18,0,0,0-.12-.06l-5.3-3.51-8.09-10,3.43,1a.18.18,0,0,0,.18.12h.2a.16.16,0,0,0,.12,0l6.07-.49a.18.18,0,0,0,.16-.19v-.14l0-.13a.18.18,0,0,0-.14-.2L576,40.38a.18.18,0,0,0-.07-.06L568,36.25l-.48-1.6L572,37a.17.17,0,0,0,.14,0h0a.17.17,0,0,0,.13,0l.25-.2a.18.18,0,0,0,0-.25l-.13-.16,7,1.06a.17.17,0,0,0,.13,0,.18.18,0,0,0,.07-.12l0-.14.05-.13a.18.18,0,0,0-.1-.23L577.41,36l-9.94-7.69-.71-2.16,3.61-.07,4,1.4a.18.18,0,0,0,.22-.11l0-.12.08-.09a.18.18,0,0,0,0-.25l-9.93-9.14-1.56-5.46a.17.17,0,0,0,0-.08.18.18,0,0,0-.05-.08l-1.11-1a.18.18,0,0,0-.18,0l-2.7-11A.17.17,0,0,0,559,0a.17.17,0,0,0-.13,0l-.12,0-.12,0a.17.17,0,0,0-.2.14l-2.24,13.66L544.13,27.38a.18.18,0,0,0,0,.25l.07.06v.09a.17.17,0,0,0,.2.15l4-.55.08,0a.18.18,0,0,0,.13,0l.11-.07.31,0a.18.18,0,0,0,.15-.2v0l3.89-2.41L540.34,36.4a.18.18,0,0,0,0,.25l.22.24a.18.18,0,0,0,.12.06h0a.18.18,0,0,0,.23.09l10.83-4.49-2,3.76-12.61,8.56a.18.18,0,0,0,0,.24l.06.09v.11a.17.17,0,0,0,.18.17l1.6-.06-2.78,5a.18.18,0,0,0,.07.24l.1.05.06.1a.18.18,0,0,0,.24.06l13.69-8.22-1.4,3.89-12.2,9.81a.18.18,0,0,0,0,.25l.2.25a.18.18,0,0,0,.25,0l.2-.16.07,0a.17.17,0,0,0,.14,0l13-5.77-2.29,3.3L535,62a.18.18,0,0,0-.07.07l-1.36.12a.18.18,0,0,0-.17.19l0,.31a.19.19,0,0,0,.07.12.21.21,0,0,0,.14,0L545.08,62,542.9,63a.18.18,0,0,0-.09.23l0,.11v.12a.18.18,0,0,0,.17.18l2.7.1-5,2.93-13.68,3.61a.18.18,0,0,0-.12.22l.08.3a.17.17,0,0,0,.21.12h0l1,1a3.49,3.49,0,0,0,.23.09l6.68.06-7.92,6.17a.18.18,0,0,0,0,.25l.08.1.05.12a.18.18,0,0,0,.23.1L541.89,73,541,75.9a.18.18,0,0,0,.12.22l.09,0,.06.08a.18.18,0,0,0,.25,0l10.11-7.35-4.9,11.87a.18.18,0,0,0,.09.23l.11,0,.08.09a.18.18,0,0,0,.12.06.21.21,0,0,0,.13,0l8-7.41V88.53a2.51,2.51,0,0,0,.33.33h5.55a.17.17,0,0,0,.15-.08h0a.18.18,0,0,0,.18-.18v-16l11.49,11a.19.19,0,0,1,.16.14.17.17,0,0,0,.13,0l.31,0a.18.18,0,0,0,.16-.18l-.33-6,6,4a.18.18,0,0,0,.23,0l11.21,3a.18.18,0,0,0,.22-.12l0-.13.07-.11A.18.18,0,0,0,591.12,83.88Z"/><path class="cls-1" d="M377.18,91.56l-.22-.07a.18.18,0,0,0,0-.11l-12.06-17.8,7.64,2.29a.18.18,0,0,0,.22-.12l0-.16.14-.09a.18.18,0,0,0,.05-.24L361,56.59l5.53,1.56a.18.18,0,0,0,.13,0,.18.18,0,0,0,.08-.11l0-.15.13-.09a.18.18,0,0,0,.05-.24L353.54,37.1a.18.18,0,0,0-.24-.05l-.21.14-.21-.14a.18.18,0,0,0-.24.05l-13.4,20.44a.18.18,0,0,0,.05.24l.13.09,0,.15a.18.18,0,0,0,.08.11.18.18,0,0,0,.13,0l5.53-1.56-12,18.66a.18.18,0,0,0,.05.24l.14.09,0,.16a.18.18,0,0,0,.22.12l7.63-2.29-12.06,17.8a.18.18,0,0,0,0,.11l-.22.07a.18.18,0,0,0-.11.22l.14.43a.18.18,0,0,0,.22.11l20.59-6.71v14.5a.18.18,0,0,0,.18.18h0v.05a.18.18,0,0,0,.18.18h5.68a.18.18,0,0,0,.18-.18v-.05h0a.18.18,0,0,0,.18-.18V85.61l20.59,6.71a.18.18,0,0,0,.22-.11l.14-.43a.18.18,0,0,0-.11-.22Z"/><path class="cls-1" d="M504.77,76l-.22-.07a.18.18,0,0,0,0-.11L492.46,58l7.64,2.29a.18.18,0,0,0,.22-.12l0-.16.14-.09a.18.18,0,0,0,.05-.24L488.56,41l5.53,1.56a.18.18,0,0,0,.13,0,.18.18,0,0,0,.08-.11l0-.15.13-.09a.18.18,0,0,0,.05-.24L481.14,21.5a.18.18,0,0,0-.24-.05l-.21.14-.21-.14a.18.18,0,0,0-.24.05l-13.4,20.44a.18.18,0,0,0,.05.24l.13.09,0,.15a.18.18,0,0,0,.08.11.18.18,0,0,0,.13,0L472.81,41l-12,18.66a.18.18,0,0,0,.05.24L461,60l0,.16a.18.18,0,0,0,.22.12L468.91,58l-12.06,17.8a.18.18,0,0,0,0,.11l-.22.07a.18.18,0,0,0-.11.22l.14.43a.18.18,0,0,0,.22.11L477.45,70v14.5a.18.18,0,0,0,.18.18h0v.05a.18.18,0,0,0,.18.18h5.68a.18.18,0,0,0,.18-.18v-.05h0a.18.18,0,0,0,.18-.18V70l20.59,6.71a.18.18,0,0,0,.22-.11l.14-.43a.18.18,0,0,0-.11-.22Z"/><path class="cls-1" d="M537.38,84.2l-.22-.07a.18.18,0,0,0,0-.11l-12.06-17.8,7.64,2.29a.18.18,0,0,0,.22-.12l0-.16.14-.09a.18.18,0,0,0,.05-.24l-12-18.66,5.53,1.56a.18.18,0,0,0,.13,0,.18.18,0,0,0,.08-.11l0-.15.13-.09a.18.18,0,0,0,.05-.24l-13.4-20.44a.18.18,0,0,0-.24-.05l-.21.14-.21-.14a.18.18,0,0,0-.24.05l-13.4,20.44a.18.18,0,0,0,.05.24l.13.09,0,.15a.18.18,0,0,0,.08.11.18.18,0,0,0,.13,0l5.53-1.56-12,18.66a.18.18,0,0,0,.05.24l.14.09,0,.16a.18.18,0,0,0,.22.12l7.63-2.29L489.45,84a.18.18,0,0,0,0,.11l-.22.07a.18.18,0,0,0-.11.22l.14.43a.18.18,0,0,0,.22.11l20.59-6.71v14.5a.18.18,0,0,0,.18.18h0V93a.18.18,0,0,0,.18.18h5.68a.18.18,0,0,0,.18-.18v-.05h0a.18.18,0,0,0,.18-.18V78.26L537.13,85a.18.18,0,0,0,.22-.11l.14-.43a.18.18,0,0,0-.11-.22Z"/><path class="cls-1" d="M638,88.18l-12.4-8-7.44-8.92,6.51,1h.07l11.34-.75a.18.18,0,0,0,.16-.19v-.13l0-.12a.18.18,0,0,0-.12-.22l-4-1.14-15.88-8.5L614,57.73l2,.75.05.09a.18.18,0,0,0,.24.06l.05,0,.1,0a.18.18,0,0,0,.09-.09l0,0a.18.18,0,0,0,.07-.24h0v0a.18.18,0,0,0-.1-.23l-.08,0-.35-.58,2.38,1.6.09,0,.08,0,12.61.86.12.08a.18.18,0,0,0,.24-.05l.17-.27a.18.18,0,0,0,0-.24l-.09-.06,0-.05a.18.18,0,0,0-.12-.06l-5.3-3.51-8.09-10,3.43,1a.18.18,0,0,0,.18.12h.2a.16.16,0,0,0,.12,0l6.07-.49a.18.18,0,0,0,.16-.19V46l0-.13a.18.18,0,0,0-.14-.2l-5.19-.94a.18.18,0,0,0-.07-.06l-7.93-4.07-.48-1.6,4.45,2.37a.17.17,0,0,0,.14,0h0a.17.17,0,0,0,.13,0l.25-.2a.18.18,0,0,0,0-.25l-.13-.16,7,1.06a.17.17,0,0,0,.13,0,.18.18,0,0,0,.07-.12l0-.14.05-.13a.18.18,0,0,0-.1-.23l-2.15-.84-9.94-7.69-.71-2.16,3.61-.07,4,1.4a.18.18,0,0,0,.22-.11l0-.12.08-.09a.18.18,0,0,0,0-.25L611.66,22l-1.56-5.46a.17.17,0,0,0,0-.08.18.18,0,0,0-.05-.08l-1.11-1a.18.18,0,0,0-.18,0l-2.7-11a.17.17,0,0,0-.08-.11.17.17,0,0,0-.13,0l-.12,0-.12,0a.17.17,0,0,0-.2.14l-2.24,13.66L591,31.69a.18.18,0,0,0,0,.25l.07.06v.09a.17.17,0,0,0,.2.15l4-.55.08,0a.18.18,0,0,0,.13,0l.11-.07.31,0a.18.18,0,0,0,.15-.2v0L600.06,29,587.26,40.7a.18.18,0,0,0,0,.25l.22.24a.18.18,0,0,0,.12.06h0a.18.18,0,0,0,.23.09l10.83-4.49-2,3.76L584,49.16a.18.18,0,0,0,0,.24l.06.09v.11a.17.17,0,0,0,.18.17l1.6-.06-2.78,5a.18.18,0,0,0,.07.24l.1.05.06.1a.18.18,0,0,0,.24.06L597.23,47l-1.4,3.89-12.2,9.81a.18.18,0,0,0,0,.25l.2.25a.18.18,0,0,0,.25,0l.2-.16.07,0a.17.17,0,0,0,.14,0l13-5.77-2.29,3.3-13.24,7.67a.18.18,0,0,0-.07.07l-1.36.12a.18.18,0,0,0-.17.19l0,.31a.19.19,0,0,0,.07.12.21.21,0,0,0,.14,0L592,66.35l-2.18.94a.18.18,0,0,0-.09.23l0,.11v.12a.18.18,0,0,0,.17.18l2.7.1-5,2.93L574,74.58a.18.18,0,0,0-.12.22l.08.3a.17.17,0,0,0,.21.12h0l1,1a3.49,3.49,0,0,0,.23.09l6.68.06-7.92,6.17a.18.18,0,0,0,0,.25l.08.1.05.12a.18.18,0,0,0,.23.1l14.28-5.79L588,80.2a.18.18,0,0,0,.12.22l.09,0,.06.08a.18.18,0,0,0,.25,0l10.11-7.35-4.9,11.87a.18.18,0,0,0,.09.23l.11,0,.08.09a.18.18,0,0,0,.12.06.21.21,0,0,0,.13,0l8-7.41V92.83a2.51,2.51,0,0,0,.33.33h5.55a.17.17,0,0,0,.15-.08h0a.18.18,0,0,0,.18-.18v-16l11.49,11a.19.19,0,0,1,.16.14.17.17,0,0,0,.13,0l.31,0a.18.18,0,0,0,.16-.18l-.33-6,6,4a.18.18,0,0,0,.23,0l11.21,3a.18.18,0,0,0,.22-.12l0-.13.07-.11A.18.18,0,0,0,638,88.18Z"/><path class="cls-1" d="M708.37,84.85l-12.4-8L688.54,68l6.51,1h.07l11.34-.75a.18.18,0,0,0,.16-.19v-.13l0-.12a.18.18,0,0,0-.12-.22l-4-1.14L686.65,58l-2.31-3.57,2,.75.05.09a.18.18,0,0,0,.24.06l.05,0,.1,0a.18.18,0,0,0,.09-.09l0,0a.18.18,0,0,0,.07-.24h0v0a.18.18,0,0,0-.1-.23l-.08,0-.35-.58,2.38,1.6.09,0,.08,0,12.61.86.12.08a.18.18,0,0,0,.24-.05l.17-.27a.18.18,0,0,0,0-.24L702,56l0-.05a.18.18,0,0,0-.12-.06l-5.3-3.51-8.09-10,3.43,1a.18.18,0,0,0,.18.12h.2a.16.16,0,0,0,.12,0l6.07-.49a.18.18,0,0,0,.16-.19v-.14l0-.13a.18.18,0,0,0-.14-.2l-5.19-.94a.18.18,0,0,0-.07-.06l-7.93-4.07-.48-1.6L689.24,38a.17.17,0,0,0,.14,0h0a.17.17,0,0,0,.13,0l.25-.2a.18.18,0,0,0,0-.25l-.13-.16,7,1.06a.17.17,0,0,0,.13,0,.18.18,0,0,0,.07-.12l0-.14.05-.13a.18.18,0,0,0-.1-.23l-2.15-.84-9.94-7.69L684,27.09l3.61-.07,4,1.4a.18.18,0,0,0,.22-.11l0-.12.08-.09a.18.18,0,0,0,0-.25L682,18.71l-1.56-5.46a.17.17,0,0,0,0-.08.18.18,0,0,0-.05-.08l-1.11-1a.18.18,0,0,0-.18,0l-2.7-11a.17.17,0,0,0-.08-.11.17.17,0,0,0-.13,0L676,1l-.12,0a.17.17,0,0,0-.2.14l-2.24,13.66L661.38,28.36a.18.18,0,0,0,0,.25l.07.06v.09a.17.17,0,0,0,.2.15l4-.55.08,0a.18.18,0,0,0,.13,0l.11-.07.31,0a.18.18,0,0,0,.15-.2v0l3.89-2.41L657.6,37.37a.18.18,0,0,0,0,.25l.22.24a.18.18,0,0,0,.12.06h0a.18.18,0,0,0,.23.09L669,33.51l-2,3.76-12.61,8.56a.18.18,0,0,0,0,.24l.06.09v.11a.17.17,0,0,0,.18.17l1.6-.06-2.78,5a.18.18,0,0,0,.07.24l.1.05.06.1a.18.18,0,0,0,.24.06l13.69-8.22-1.4,3.89L654,57.35a.18.18,0,0,0,0,.25l.2.25a.18.18,0,0,0,.25,0l.2-.16.07,0a.17.17,0,0,0,.14,0l13-5.77-2.29,3.3L652.26,63a.18.18,0,0,0-.07.07l-1.36.12a.18.18,0,0,0-.17.19l0,.31a.19.19,0,0,0,.07.12.21.21,0,0,0,.14,0L662.33,63l-2.18.94a.18.18,0,0,0-.09.23l0,.11v.12a.18.18,0,0,0,.17.18l2.7.1-5,2.93-13.68,3.61a.18.18,0,0,0-.12.22l.08.3a.17.17,0,0,0,.21.12h0l1,1a3.49,3.49,0,0,0,.23.09l6.68.06-7.92,6.17a.18.18,0,0,0,0,.25l.08.1.05.12a.18.18,0,0,0,.23.1l14.28-5.79-.85,2.93a.18.18,0,0,0,.12.22l.09,0,.06.08a.18.18,0,0,0,.25,0l10.11-7.35L664,81.75a.18.18,0,0,0,.09.23l.11,0,.08.09a.18.18,0,0,0,.12.06.21.21,0,0,0,.13,0l8-7.41V89.5a2.51,2.51,0,0,0,.33.33h5.55a.17.17,0,0,0,.15-.08h0a.18.18,0,0,0,.18-.18v-16l11.49,11a.19.19,0,0,1,.16.14.17.17,0,0,0,.13,0l.31,0a.18.18,0,0,0,.16-.18l-.33-6,6,4a.18.18,0,0,0,.23,0l11.21,3a.18.18,0,0,0,.22-.12l0-.13.07-.11A.18.18,0,0,0,708.37,84.85Z"/><path class="cls-1" d="M756.69,92.62l-12.4-8-7.44-8.92,6.51,1h.07L754.79,76a.18.18,0,0,0,.16-.19v-.13l0-.12a.18.18,0,0,0-.12-.22l-4-1.14L735,65.74l-2.31-3.57,2,.75.05.09a.18.18,0,0,0,.24.06l.05,0,.1,0a.18.18,0,0,0,.09-.09l0,0a.18.18,0,0,0,.07-.24h0v0a.18.18,0,0,0-.1-.23l-.08,0-.35-.58,2.38,1.6.09,0,.08,0,12.61.86.12.08a.18.18,0,0,0,.24-.05l.17-.27a.18.18,0,0,0,0-.24l-.09-.06,0-.05a.18.18,0,0,0-.12-.06l-5.3-3.51-8.09-10,3.43,1a.18.18,0,0,0,.18.12h.2a.16.16,0,0,0,.12,0l6.07-.49a.18.18,0,0,0,.16-.19V50.4l0-.13a.18.18,0,0,0-.14-.2l-5.19-.94a.18.18,0,0,0-.07-.06L733.59,45l-.48-1.6,4.45,2.37a.17.17,0,0,0,.14,0h0a.17.17,0,0,0,.13,0l.25-.2a.18.18,0,0,0,0-.25l-.13-.16,7,1.06a.17.17,0,0,0,.13,0,.18.18,0,0,0,.07-.12l0-.14.05-.13a.18.18,0,0,0-.1-.23L743,44.71,733,37l-.71-2.16,3.61-.07,4,1.4a.18.18,0,0,0,.22-.11l0-.12.08-.09a.18.18,0,0,0,0-.25l-9.93-9.14L728.75,21a.17.17,0,0,0,0-.08.18.18,0,0,0-.05-.08l-1.11-1a.18.18,0,0,0-.18,0l-2.7-11a.17.17,0,0,0-.08-.11.17.17,0,0,0-.13,0l-.12,0-.12,0a.17.17,0,0,0-.2.14l-2.24,13.66L709.7,36.13a.18.18,0,0,0,0,.25l.07.06v.09a.17.17,0,0,0,.2.15l4-.55.08,0a.18.18,0,0,0,.13,0l.11-.07.31,0a.18.18,0,0,0,.15-.2v0l3.89-2.41-12.8,11.75a.18.18,0,0,0,0,.25l.22.24a.18.18,0,0,0,.12.06h0a.18.18,0,0,0,.23.09l10.83-4.49-2,3.76L702.7,53.6a.18.18,0,0,0,0,.24l.06.09V54a.17.17,0,0,0,.18.17l1.6-.06-2.78,5a.18.18,0,0,0,.07.24l.1.05.06.1a.18.18,0,0,0,.24.06l13.69-8.22-1.4,3.89-12.2,9.81a.18.18,0,0,0,0,.25l.2.25a.18.18,0,0,0,.25,0l.2-.16.07,0a.17.17,0,0,0,.14,0l13-5.77-2.29,3.3-13.24,7.67a.18.18,0,0,0-.07.07l-1.36.12a.18.18,0,0,0-.17.19l0,.31a.19.19,0,0,0,.07.12.21.21,0,0,0,.14,0l11.45-.79-2.18.94a.18.18,0,0,0-.09.23l0,.11v.12a.18.18,0,0,0,.17.18l2.7.1-5,2.93L692.65,79a.18.18,0,0,0-.12.22l.08.3a.17.17,0,0,0,.21.12h0l1,1a3.49,3.49,0,0,0,.23.09l6.68.06-7.92,6.17a.18.18,0,0,0,0,.25l.08.1.05.12a.18.18,0,0,0,.23.1l14.28-5.79-.85,2.93a.18.18,0,0,0,.12.22l.09,0,.06.08a.18.18,0,0,0,.25,0l10.11-7.35-4.9,11.87a.18.18,0,0,0,.09.23l.11,0,.08.09a.18.18,0,0,0,.12.06.21.21,0,0,0,.13,0l8-7.41V97.27a2.51,2.51,0,0,0,.33.33h5.55a.17.17,0,0,0,.15-.08h0a.18.18,0,0,0,.18-.18v-16l11.49,11a.19.19,0,0,1,.16.14.17.17,0,0,0,.13,0l.31,0a.18.18,0,0,0,.16-.18l-.33-6,6,4a.18.18,0,0,0,.23,0l11.21,3a.18.18,0,0,0,.22-.12l0-.13.07-.11A.18.18,0,0,0,756.69,92.62Z"/><path class="cls-1" d="M878.06,83.88l-12.4-8L858.22,67l6.51,1h.07l11.34-.75a.18.18,0,0,0,.16-.19V67l0-.12a.18.18,0,0,0-.12-.22l-4-1.14L856.33,57,854,53.42l2,.75.05.09a.18.18,0,0,0,.24.06l.05,0,.1,0a.18.18,0,0,0,.09-.09l0,0a.18.18,0,0,0,.07-.24h0v0a.18.18,0,0,0-.1-.23l-.08,0-.35-.58,2.38,1.6.09,0,.08,0,12.61.86.12.08a.18.18,0,0,0,.24-.05l.17-.27a.18.18,0,0,0,0-.24l-.09-.06,0-.05a.18.18,0,0,0-.12-.06l-5.3-3.51-8.09-10,3.43,1a.18.18,0,0,0,.18.12h.2a.16.16,0,0,0,.12,0l6.07-.49a.18.18,0,0,0,.16-.19v-.14l0-.13a.18.18,0,0,0-.14-.2l-5.19-.94a.18.18,0,0,0-.07-.06L855,36.25l-.48-1.6L858.92,37a.17.17,0,0,0,.14,0h0a.17.17,0,0,0,.13,0l.25-.2a.18.18,0,0,0,0-.25l-.13-.16,7,1.06a.17.17,0,0,0,.13,0,.18.18,0,0,0,.07-.12l0-.14.05-.13a.18.18,0,0,0-.1-.23L864.34,36l-9.94-7.69-.71-2.16,3.61-.07,4,1.4a.18.18,0,0,0,.22-.11l0-.12.08-.09a.18.18,0,0,0,0-.25l-9.93-9.14-1.56-5.46a.17.17,0,0,0,0-.08.18.18,0,0,0-.05-.08l-1.11-1a.18.18,0,0,0-.18,0L846,.13a.17.17,0,0,0-.08-.11.17.17,0,0,0-.13,0l-.12,0-.12,0a.17.17,0,0,0-.2.14l-2.24,13.66L831.06,27.38a.18.18,0,0,0,0,.25l.07.06v.09a.17.17,0,0,0,.2.15l4-.55.08,0a.18.18,0,0,0,.13,0l.11-.07.31,0a.18.18,0,0,0,.15-.2v0l3.89-2.41L827.28,36.4a.18.18,0,0,0,0,.25l.22.24a.18.18,0,0,0,.12.06h0a.18.18,0,0,0,.23.09l10.83-4.49-2,3.76-12.61,8.56a.18.18,0,0,0,0,.24l.06.09v.11a.17.17,0,0,0,.18.17l1.6-.06-2.78,5a.18.18,0,0,0,.07.24l.1.05.06.1a.18.18,0,0,0,.24.06l13.69-8.22-1.4,3.89-12.2,9.81a.18.18,0,0,0,0,.25l.2.25a.18.18,0,0,0,.25,0l.2-.16.07,0a.17.17,0,0,0,.14,0l13-5.77-2.29,3.3L821.94,62a.18.18,0,0,0-.07.07l-1.36.12a.18.18,0,0,0-.17.19l0,.31a.19.19,0,0,0,.07.12.21.21,0,0,0,.14,0L832,62l-2.18.94a.18.18,0,0,0-.09.23l0,.11v.12a.18.18,0,0,0,.17.18l2.7.1-5,2.93L814,70.28a.18.18,0,0,0-.12.22l.08.3a.17.17,0,0,0,.21.12h0l1,1a3.49,3.49,0,0,0,.23.09l6.68.06-7.92,6.17a.18.18,0,0,0,0,.25l.08.1.05.12a.18.18,0,0,0,.23.1L828.82,73,828,75.9a.18.18,0,0,0,.12.22l.09,0,.06.08a.18.18,0,0,0,.25,0l10.11-7.35-4.9,11.87a.18.18,0,0,0,.09.23l.11,0,.08.09a.18.18,0,0,0,.12.06.21.21,0,0,0,.13,0l8-7.41V88.53a2.51,2.51,0,0,0,.33.33h5.55a.17.17,0,0,0,.15-.08h0a.18.18,0,0,0,.18-.18v-16l11.49,11a.19.19,0,0,1,.16.14.17.17,0,0,0,.13,0l.31,0a.18.18,0,0,0,.16-.18l-.33-6,6,4a.18.18,0,0,0,.23,0l11.21,3a.18.18,0,0,0,.22-.12l0-.13.07-.11A.18.18,0,0,0,878.06,83.88Z"/><path class="cls-1" d="M664.11,91.56l-.22-.07a.18.18,0,0,0,0-.11L651.8,73.57l7.64,2.29a.18.18,0,0,0,.22-.12l0-.16.14-.09a.18.18,0,0,0,.05-.24l-12-18.66,5.53,1.56a.18.18,0,0,0,.13,0,.18.18,0,0,0,.08-.11l0-.15.13-.09a.18.18,0,0,0,.05-.24L640.47,37.1a.18.18,0,0,0-.24-.05l-.21.14-.21-.14a.18.18,0,0,0-.24.05l-13.4,20.44a.18.18,0,0,0,.05.24l.13.09,0,.15a.18.18,0,0,0,.08.11.18.18,0,0,0,.13,0l5.53-1.56-12,18.66a.18.18,0,0,0,.05.24l.14.09,0,.16a.18.18,0,0,0,.22.12l7.63-2.29-12.06,17.8a.18.18,0,0,0,0,.11l-.22.07a.18.18,0,0,0-.11.22l.14.43a.18.18,0,0,0,.22.11l20.59-6.71v14.5a.18.18,0,0,0,.18.18h0v.05a.18.18,0,0,0,.18.18h5.68a.18.18,0,0,0,.18-.18v-.05h0a.18.18,0,0,0,.18-.18V85.61l20.59,6.71a.18.18,0,0,0,.22-.11l.14-.43a.18.18,0,0,0-.11-.22Z"/><path class="cls-1" d="M791.71,76l-.22-.07a.18.18,0,0,0,0-.11L779.4,58,787,60.26a.18.18,0,0,0,.22-.12l0-.16.14-.09a.18.18,0,0,0,.05-.24L775.5,41,781,42.55a.18.18,0,0,0,.13,0,.18.18,0,0,0,.08-.11l0-.15.13-.09a.18.18,0,0,0,.05-.24L768.07,21.5a.18.18,0,0,0-.24-.05l-.21.14-.21-.14a.18.18,0,0,0-.24.05l-13.4,20.44a.18.18,0,0,0,.05.24l.13.09,0,.15a.18.18,0,0,0,.08.11.18.18,0,0,0,.13,0L759.74,41l-12,18.66a.18.18,0,0,0,.05.24l.14.09,0,.16a.18.18,0,0,0,.22.12L755.84,58l-12.06,17.8a.18.18,0,0,0,0,.11l-.22.07a.18.18,0,0,0-.11.22l.14.43a.18.18,0,0,0,.22.11L764.38,70v14.5a.18.18,0,0,0,.18.18h0v.05a.18.18,0,0,0,.18.18h5.68a.18.18,0,0,0,.18-.18v-.05h0a.18.18,0,0,0,.18-.18V70l20.59,6.71a.18.18,0,0,0,.22-.11l.14-.43a.18.18,0,0,0-.11-.22Z"/><path class="cls-1" d="M824.31,84.2l-.22-.07a.18.18,0,0,0,0-.11L812,66.21l7.64,2.29a.18.18,0,0,0,.22-.12l0-.16.14-.09a.18.18,0,0,0,.05-.24l-12-18.66,5.53,1.56a.18.18,0,0,0,.13,0,.18.18,0,0,0,.08-.11l0-.15.13-.09a.18.18,0,0,0,.05-.24l-13.4-20.44a.18.18,0,0,0-.24-.05l-.21.14-.21-.14a.18.18,0,0,0-.24.05l-13.4,20.44a.18.18,0,0,0,.05.24l.13.09,0,.15a.18.18,0,0,0,.08.11.18.18,0,0,0,.13,0l5.53-1.56-12,18.66a.18.18,0,0,0,.05.24l.14.09,0,.16a.18.18,0,0,0,.22.12l7.63-2.29L776.39,84a.18.18,0,0,0,0,.11l-.22.07a.18.18,0,0,0-.11.22l.14.43a.18.18,0,0,0,.22.11L797,78.26v14.5a.18.18,0,0,0,.18.18h0V93a.18.18,0,0,0,.18.18h5.68a.18.18,0,0,0,.18-.18v-.05h0a.18.18,0,0,0,.18-.18V78.26L824.06,85a.18.18,0,0,0,.22-.11l.14-.43a.18.18,0,0,0-.11-.22Z"/><path class="cls-1" d="M925,88.18l-12.4-8-7.44-8.92,6.51,1h.07l11.34-.75a.18.18,0,0,0,.16-.19v-.13l0-.12a.18.18,0,0,0-.12-.22l-4-1.14-15.88-8.5-2.31-3.57,2,.75.05.09a.18.18,0,0,0,.24.06l.05,0,.1,0a.18.18,0,0,0,.09-.09l0,0a.18.18,0,0,0,.07-.24h0v0a.18.18,0,0,0-.1-.23l-.08,0-.35-.58,2.38,1.6.09,0,.08,0,12.61.86.12.08a.18.18,0,0,0,.24-.05l.17-.27a.18.18,0,0,0,0-.24l-.09-.06,0-.05a.18.18,0,0,0-.12-.06l-5.3-3.51L905,45.7l3.43,1a.18.18,0,0,0,.18.12h.2a.16.16,0,0,0,.12,0l6.07-.49a.18.18,0,0,0,.16-.19V46l0-.13a.18.18,0,0,0-.14-.2l-5.19-.94a.18.18,0,0,0-.07-.06l-7.93-4.07-.48-1.6,4.45,2.37a.17.17,0,0,0,.14,0h0a.17.17,0,0,0,.13,0l.25-.2a.18.18,0,0,0,0-.25l-.13-.16,7,1.06a.17.17,0,0,0,.13,0,.18.18,0,0,0,.07-.12l0-.14.05-.13a.18.18,0,0,0-.1-.23l-2.15-.84-9.94-7.69-.71-2.16,3.61-.07,4,1.4a.18.18,0,0,0,.22-.11l0-.12.08-.09a.18.18,0,0,0,0-.25L898.59,22,897,16.59a.17.17,0,0,0,0-.08.18.18,0,0,0-.05-.08l-1.11-1a.18.18,0,0,0-.18,0l-2.7-11a.17.17,0,0,0-.08-.11.17.17,0,0,0-.13,0l-.12,0-.12,0a.17.17,0,0,0-.2.14L890,18.12,878,31.69a.18.18,0,0,0,0,.25l.07.06v.09a.17.17,0,0,0,.2.15l4-.55.08,0a.18.18,0,0,0,.13,0l.11-.07.31,0a.18.18,0,0,0,.15-.2v0L887,29,874.2,40.7a.18.18,0,0,0,0,.25l.22.24a.18.18,0,0,0,.12.06h0a.18.18,0,0,0,.23.09l10.83-4.49-2,3.76L871,49.16a.18.18,0,0,0,0,.24l.06.09v.11a.17.17,0,0,0,.18.17l1.6-.06-2.78,5a.18.18,0,0,0,.07.24l.1.05.06.1a.18.18,0,0,0,.24.06L884.16,47l-1.4,3.89-12.2,9.81a.18.18,0,0,0,0,.25l.2.25a.18.18,0,0,0,.25,0l.2-.16.07,0a.17.17,0,0,0,.14,0l13-5.77-2.29,3.3-13.24,7.67a.18.18,0,0,0-.07.07l-1.36.12a.18.18,0,0,0-.17.19l0,.31a.19.19,0,0,0,.07.12.21.21,0,0,0,.14,0l11.45-.79-2.18.94a.18.18,0,0,0-.09.23l0,.11v.12a.18.18,0,0,0,.17.18l2.7.1-5,2.93-13.68,3.61a.18.18,0,0,0-.12.22l.08.3a.17.17,0,0,0,.21.12h0l1,1a3.49,3.49,0,0,0,.23.09l6.68.06-7.92,6.17a.18.18,0,0,0,0,.25l.08.1.05.12a.18.18,0,0,0,.23.1l14.28-5.79-.85,2.93a.18.18,0,0,0,.12.22l.09,0,.06.08a.18.18,0,0,0,.25,0l10.11-7.35-4.9,11.87a.18.18,0,0,0,.09.23l.11,0,.08.09a.18.18,0,0,0,.12.06.21.21,0,0,0,.13,0l8-7.41V92.83a2.51,2.51,0,0,0,.33.33H895a.17.17,0,0,0,.15-.08h0a.18.18,0,0,0,.18-.18v-16l11.49,11a.19.19,0,0,1,.16.14.17.17,0,0,0,.13,0l.31,0a.18.18,0,0,0,.16-.18l-.33-6,6,4a.18.18,0,0,0,.23,0l11.21,3a.18.18,0,0,0,.22-.12l0-.13.07-.11A.18.18,0,0,0,925,88.18Z"/><path class="cls-1" d="M995.31,84.85l-12.4-8L975.47,68,982,69h.07l11.34-.75a.18.18,0,0,0,.16-.19v-.13l0-.12a.18.18,0,0,0-.12-.22l-4-1.14L973.58,58l-2.31-3.57,2,.75.05.09a.18.18,0,0,0,.24.06l.05,0,.1,0a.18.18,0,0,0,.09-.09l0,0a.18.18,0,0,0,.07-.24h0v0a.18.18,0,0,0-.1-.23l-.08,0-.35-.58,2.38,1.6.09,0,.08,0,12.61.86.12.08a.18.18,0,0,0,.24-.05l.17-.27a.18.18,0,0,0,0-.24l-.09-.06,0-.05a.18.18,0,0,0-.12-.06l-5.3-3.51-8.09-10,3.43,1a.18.18,0,0,0,.18.12h.2a.16.16,0,0,0,.12,0l6.07-.49a.18.18,0,0,0,.16-.19v-.14l0-.13a.18.18,0,0,0-.14-.2l-5.19-.94a.18.18,0,0,0-.07-.06l-7.93-4.07-.48-1.6L976.17,38a.17.17,0,0,0,.14,0h0a.17.17,0,0,0,.13,0l.25-.2a.18.18,0,0,0,0-.25l-.13-.16,7,1.06a.17.17,0,0,0,.13,0,.18.18,0,0,0,.07-.12l0-.14.05-.13a.18.18,0,0,0-.1-.23l-2.15-.84-9.94-7.69L971,27.09l3.61-.07,4,1.4a.18.18,0,0,0,.22-.11l0-.12.08-.09a.18.18,0,0,0,0-.25l-9.93-9.14-1.56-5.46a.17.17,0,0,0,0-.08.18.18,0,0,0-.05-.08l-1.11-1a.18.18,0,0,0-.18,0l-2.7-11a.17.17,0,0,0-.08-.11.17.17,0,0,0-.13,0l-.12,0-.12,0a.17.17,0,0,0-.2.14l-2.24,13.66L948.32,28.36a.18.18,0,0,0,0,.25l.07.06v.09a.17.17,0,0,0,.2.15l4-.55.08,0a.18.18,0,0,0,.13,0l.11-.07.31,0a.18.18,0,0,0,.15-.2v0l3.89-2.41-12.8,11.75a.18.18,0,0,0,0,.25l.22.24a.18.18,0,0,0,.12.06h0a.18.18,0,0,0,.23.09L956,33.51l-2,3.76-12.61,8.56a.18.18,0,0,0,0,.24l.06.09v.11a.17.17,0,0,0,.18.17l1.6-.06-2.78,5a.18.18,0,0,0,.07.24l.1.05.06.1a.18.18,0,0,0,.24.06l13.69-8.22-1.4,3.89-12.2,9.81a.18.18,0,0,0,0,.25l.2.25a.18.18,0,0,0,.25,0l.2-.16.07,0a.17.17,0,0,0,.14,0l13-5.77-2.29,3.3L939.2,63a.18.18,0,0,0-.07.07l-1.36.12a.18.18,0,0,0-.17.19l0,.31a.19.19,0,0,0,.07.12.21.21,0,0,0,.14,0L949.26,63l-2.18.94a.18.18,0,0,0-.09.23l0,.11v.12a.18.18,0,0,0,.17.18l2.7.1-5,2.93-13.68,3.61a.18.18,0,0,0-.12.22l.08.3a.17.17,0,0,0,.21.12h0l1,1a3.49,3.49,0,0,0,.23.09l6.68.06-7.92,6.17a.18.18,0,0,0,0,.25l.08.1.05.12a.18.18,0,0,0,.23.1l14.28-5.79-.85,2.93a.18.18,0,0,0,.12.22l.09,0,.06.08a.18.18,0,0,0,.25,0l10.11-7.35L951,81.75A.18.18,0,0,0,951,82l.11,0,.08.09a.18.18,0,0,0,.12.06.21.21,0,0,0,.13,0l8-7.41V89.5a2.51,2.51,0,0,0,.33.33h5.55a.17.17,0,0,0,.15-.08h0a.18.18,0,0,0,.18-.18v-16l11.49,11a.19.19,0,0,1,.16.14.17.17,0,0,0,.13,0l.31,0a.18.18,0,0,0,.16-.18l-.33-6,6,4a.18.18,0,0,0,.23,0l11.21,3a.18.18,0,0,0,.22-.12l0-.13.07-.11A.18.18,0,0,0,995.31,84.85Z"/><path class="cls-1" d="M1043.62,92.62l-12.4-8-7.44-8.92,6.51,1h.07l11.34-.75a.18.18,0,0,0,.16-.19v-.13l0-.12a.18.18,0,0,0-.12-.22l-4-1.14-15.88-8.5-2.31-3.57,2,.75.05.09a.18.18,0,0,0,.24.06l.05,0,.1,0a.18.18,0,0,0,.09-.09l0,0a.18.18,0,0,0,.07-.24h0v0a.18.18,0,0,0-.1-.23l-.08,0-.35-.58,2.38,1.6.09,0,.08,0,12.61.86.12.08a.18.18,0,0,0,.24-.05l.17-.27a.18.18,0,0,0,0-.24l-.09-.06,0-.05a.18.18,0,0,0-.12-.06l-5.3-3.51-8.09-10,3.43,1a.18.18,0,0,0,.18.12h.2a.16.16,0,0,0,.12,0l6.07-.49a.18.18,0,0,0,.16-.19V50.4l0-.13a.18.18,0,0,0-.14-.2l-5.19-.94a.18.18,0,0,0-.07-.06L1020.52,45l-.48-1.6,4.45,2.37a.17.17,0,0,0,.14,0h0a.17.17,0,0,0,.13,0l.25-.2a.18.18,0,0,0,0-.25l-.13-.16,7,1.06a.17.17,0,0,0,.13,0,.18.18,0,0,0,.07-.12l0-.14.05-.13a.18.18,0,0,0-.1-.23l-2.15-.84L1020,37l-.71-2.16,3.61-.07,4,1.4a.18.18,0,0,0,.22-.11l0-.12.08-.09a.18.18,0,0,0,0-.25l-9.93-9.14L1015.68,21a.17.17,0,0,0,0-.08.18.18,0,0,0-.05-.08l-1.11-1a.18.18,0,0,0-.18,0l-2.7-11a.17.17,0,0,0-.08-.11.17.17,0,0,0-.13,0l-.12,0-.12,0a.17.17,0,0,0-.2.14l-2.24,13.66L996.63,36.13a.18.18,0,0,0,0,.25l.07.06v.09a.17.17,0,0,0,.2.15l4-.55.08,0a.18.18,0,0,0,.13,0l.11-.07.31,0a.18.18,0,0,0,.15-.2v0l3.89-2.41-12.8,11.75a.18.18,0,0,0,0,.25l.22.24a.18.18,0,0,0,.12.06h0a.18.18,0,0,0,.23.09l10.83-4.49-2,3.76L989.63,53.6a.18.18,0,0,0,0,.24l.06.09V54a.17.17,0,0,0,.18.17l1.6-.06-2.78,5a.18.18,0,0,0,.07.24l.1.05.06.1a.18.18,0,0,0,.24.06l13.69-8.22-1.4,3.89-12.2,9.81a.18.18,0,0,0,0,.25l.2.25a.18.18,0,0,0,.25,0l.2-.16.07,0a.17.17,0,0,0,.14,0l13-5.77-2.29,3.3-13.24,7.67a.18.18,0,0,0-.07.07l-1.36.12a.18.18,0,0,0-.17.19l0,.31a.19.19,0,0,0,.07.12.21.21,0,0,0,.14,0l11.45-.79-2.18.94a.18.18,0,0,0-.09.23l0,.11v.12a.18.18,0,0,0,.17.18l2.7.1-5,2.93L979.58,79a.18.18,0,0,0-.12.22l.08.3a.17.17,0,0,0,.21.12h0l1,1a3.49,3.49,0,0,0,.23.09l6.68.06-7.92,6.17a.18.18,0,0,0,0,.25l.08.1.05.12a.18.18,0,0,0,.23.1l14.28-5.79-.85,2.93a.18.18,0,0,0,.12.22l.09,0,.06.08a.18.18,0,0,0,.25,0l10.11-7.35-4.9,11.87a.18.18,0,0,0,.09.23l.11,0,.08.09a.18.18,0,0,0,.12.06.21.21,0,0,0,.13,0l8-7.41V97.27a2.51,2.51,0,0,0,.33.33h5.55a.17.17,0,0,0,.15-.08h0a.18.18,0,0,0,.18-.18v-16l11.49,11a.19.19,0,0,1,.16.14.17.17,0,0,0,.13,0l.31,0a.18.18,0,0,0,.16-.18l-.33-6,6,4a.18.18,0,0,0,.23,0l11.21,3a.18.18,0,0,0,.22-.12l0-.13.07-.11A.18.18,0,0,0,1043.62,92.62Z"/><path class="cls-1" d="M1165,83.88l-12.4-8L1145.16,67l6.51,1h.07l11.34-.75a.18.18,0,0,0,.16-.19V67l0-.12a.18.18,0,0,0-.12-.22l-4-1.14L1143.26,57l-2.31-3.57,2,.75.05.09a.18.18,0,0,0,.24.06l.05,0,.1,0a.18.18,0,0,0,.09-.09l0,0a.18.18,0,0,0,.07-.24h0v0a.18.18,0,0,0-.1-.23l-.08,0-.35-.58,2.38,1.6.09,0,.08,0,12.61.86.12.08a.18.18,0,0,0,.24-.05l.17-.27a.18.18,0,0,0,0-.24l-.09-.06,0-.05a.18.18,0,0,0-.12-.06l-5.3-3.51-8.09-10,3.43,1a.18.18,0,0,0,.18.12h.2a.16.16,0,0,0,.12,0L1155,42a.18.18,0,0,0,.16-.19v-.14l0-.13a.18.18,0,0,0-.14-.2l-5.19-.94a.18.18,0,0,0-.07-.06l-7.93-4.07-.48-1.6,4.45,2.37a.17.17,0,0,0,.14,0h0a.17.17,0,0,0,.13,0l.25-.2a.18.18,0,0,0,0-.25l-.13-.16,7,1.06a.17.17,0,0,0,.13,0,.18.18,0,0,0,.07-.12l0-.14.05-.13a.18.18,0,0,0-.1-.23l-2.15-.84-9.94-7.69-.71-2.16,3.61-.07,4,1.4a.18.18,0,0,0,.22-.11l0-.12.08-.09a.18.18,0,0,0,0-.25l-9.93-9.14L1137,12.28a.17.17,0,0,0,0-.08.18.18,0,0,0-.05-.08l-1.11-1a.18.18,0,0,0-.18,0l-2.7-11a.17.17,0,0,0-.08-.11.17.17,0,0,0-.13,0l-.12,0-.12,0a.17.17,0,0,0-.2.14l-2.24,13.66L1118,27.38a.18.18,0,0,0,0,.25l.07.06v.09a.17.17,0,0,0,.2.15l4-.55.08,0a.18.18,0,0,0,.13,0l.11-.07.31,0a.18.18,0,0,0,.15-.2v0l3.89-2.41-12.8,11.75a.18.18,0,0,0,0,.25l.22.24a.18.18,0,0,0,.12.06h0a.18.18,0,0,0,.23.09l10.83-4.49-2,3.76L1111,44.86a.18.18,0,0,0,0,.24l.06.09v.11a.17.17,0,0,0,.18.17l1.6-.06-2.78,5a.18.18,0,0,0,.07.24l.1.05.06.1a.18.18,0,0,0,.24.06l13.69-8.22-1.4,3.89-12.2,9.81a.18.18,0,0,0,0,.25l.2.25a.18.18,0,0,0,.25,0l.2-.16.07,0a.17.17,0,0,0,.14,0l13-5.77-2.29,3.3L1108.88,62a.18.18,0,0,0-.07.07l-1.36.12a.18.18,0,0,0-.17.19l0,.31a.19.19,0,0,0,.07.12.21.21,0,0,0,.14,0l11.45-.79-2.18.94a.18.18,0,0,0-.09.23l0,.11v.12a.18.18,0,0,0,.17.18l2.7.1-5,2.93-13.68,3.61a.18.18,0,0,0-.12.22l.08.3a.17.17,0,0,0,.21.12h0l1,1a3.49,3.49,0,0,0,.23.09l6.68.06-7.92,6.17a.18.18,0,0,0,0,.25l.08.1.05.12a.18.18,0,0,0,.23.1L1115.76,73l-.85,2.93a.18.18,0,0,0,.12.22l.09,0,.06.08a.18.18,0,0,0,.25,0l10.11-7.35-4.9,11.87a.18.18,0,0,0,.09.23l.11,0,.08.09a.18.18,0,0,0,.12.06.21.21,0,0,0,.13,0l8-7.41V88.53a2.51,2.51,0,0,0,.33.33h5.55a.17.17,0,0,0,.15-.08h0a.18.18,0,0,0,.18-.18v-16l11.49,11a.19.19,0,0,1,.16.14.17.17,0,0,0,.13,0l.31,0a.18.18,0,0,0,.16-.18l-.33-6,6,4a.18.18,0,0,0,.23,0l11.21,3a.18.18,0,0,0,.22-.12l0-.13.07-.11A.18.18,0,0,0,1165,83.88Z"/><path class="cls-1" d="M951,91.56l-.22-.07a.18.18,0,0,0,0-.11l-12.06-17.8,7.64,2.29a.18.18,0,0,0,.22-.12l0-.16.14-.09a.18.18,0,0,0,.05-.24l-12-18.66,5.53,1.56a.18.18,0,0,0,.13,0,.18.18,0,0,0,.08-.11l0-.15.13-.09a.18.18,0,0,0,.05-.24L927.41,37.1a.18.18,0,0,0-.24-.05l-.21.14-.21-.14a.18.18,0,0,0-.24.05l-13.4,20.44a.18.18,0,0,0,.05.24l.13.09,0,.15a.18.18,0,0,0,.08.11.18.18,0,0,0,.13,0l5.53-1.56-12,18.66a.18.18,0,0,0,.05.24l.14.09,0,.16a.18.18,0,0,0,.22.12l7.63-2.29-12.06,17.8a.18.18,0,0,0,0,.11l-.22.07a.18.18,0,0,0-.11.22l.14.43a.18.18,0,0,0,.22.11l20.59-6.71v14.5a.18.18,0,0,0,.18.18h0v.05a.18.18,0,0,0,.18.18h5.68a.18.18,0,0,0,.18-.18v-.05h0a.18.18,0,0,0,.18-.18V85.61l20.59,6.71a.18.18,0,0,0,.22-.11l.14-.43a.18.18,0,0,0-.11-.22Z"/><path class="cls-1" d="M1078.64,76l-.22-.07a.18.18,0,0,0,0-.11L1066.33,58l7.64,2.29a.18.18,0,0,0,.22-.12l0-.16.14-.09a.18.18,0,0,0,.05-.24l-12-18.66,5.53,1.56a.18.18,0,0,0,.13,0,.18.18,0,0,0,.08-.11l0-.15.13-.09a.18.18,0,0,0,.05-.24L1055,21.5a.18.18,0,0,0-.24-.05l-.21.14-.21-.14a.18.18,0,0,0-.24.05l-13.4,20.44a.18.18,0,0,0,.05.24l.13.09,0,.15a.18.18,0,0,0,.08.11.18.18,0,0,0,.13,0l5.53-1.56-12,18.66a.18.18,0,0,0,.05.24l.14.09,0,.16a.18.18,0,0,0,.22.12l7.63-2.29-12.06,17.8a.18.18,0,0,0,0,.11l-.22.07a.18.18,0,0,0-.11.22l.14.43a.18.18,0,0,0,.22.11L1051.31,70v14.5a.18.18,0,0,0,.18.18h0v.05a.18.18,0,0,0,.18.18h5.68a.18.18,0,0,0,.18-.18v-.05h0a.18.18,0,0,0,.18-.18V70l20.59,6.71a.18.18,0,0,0,.22-.11l.14-.43a.18.18,0,0,0-.11-.22Z"/><path class="cls-1" d="M1111.25,84.2l-.22-.07a.18.18,0,0,0,0-.11l-12.06-17.8,7.64,2.29a.18.18,0,0,0,.22-.12l0-.16.14-.09a.18.18,0,0,0,.05-.24l-12-18.66,5.53,1.56a.18.18,0,0,0,.13,0,.18.18,0,0,0,.08-.11l0-.15.13-.09a.18.18,0,0,0,.05-.24l-13.4-20.44a.18.18,0,0,0-.24-.05l-.21.14-.21-.14a.18.18,0,0,0-.24.05l-13.4,20.44a.18.18,0,0,0,.05.24l.13.09,0,.15a.18.18,0,0,0,.08.11.18.18,0,0,0,.13,0l5.53-1.56-12,18.66a.18.18,0,0,0,.05.24l.14.09,0,.16a.18.18,0,0,0,.22.12l7.63-2.29L1063.32,84a.18.18,0,0,0,0,.11l-.22.07a.18.18,0,0,0-.11.22l.14.43a.18.18,0,0,0,.22.11l20.59-6.71v14.5a.18.18,0,0,0,.18.18h0V93a.18.18,0,0,0,.18.18H1090a.18.18,0,0,0,.18-.18v-.05h0a.18.18,0,0,0,.18-.18V78.26L1111,85a.18.18,0,0,0,.22-.11l.14-.43a.18.18,0,0,0-.11-.22Z"/><path class="cls-1" d="M1211.91,88.18l-12.4-8-7.44-8.92,6.51,1h.07l11.34-.75a.18.18,0,0,0,.16-.19v-.13l0-.12a.18.18,0,0,0-.12-.22l-4-1.14-15.88-8.5-2.31-3.57,2,.75.05.09a.18.18,0,0,0,.24.06l.05,0,.1,0a.18.18,0,0,0,.09-.09l0,0a.18.18,0,0,0,.07-.24h0v0a.18.18,0,0,0-.1-.23l-.08,0-.35-.58,2.38,1.6.09,0,.08,0,12.61.86.12.08a.18.18,0,0,0,.24-.05l.17-.27a.18.18,0,0,0,0-.24l-.09-.06,0-.05a.18.18,0,0,0-.12-.06l-5.3-3.51-8.09-10,3.43,1a.18.18,0,0,0,.18.12h.2a.16.16,0,0,0,.12,0l6.07-.49a.18.18,0,0,0,.16-.19V46l0-.13a.18.18,0,0,0-.14-.2l-5.19-.94a.18.18,0,0,0-.07-.06l-7.93-4.07-.48-1.6,4.45,2.37a.17.17,0,0,0,.14,0h0a.17.17,0,0,0,.13,0l.25-.2a.18.18,0,0,0,0-.25l-.13-.16,7,1.06a.17.17,0,0,0,.13,0,.18.18,0,0,0,.07-.12l0-.14.05-.13a.18.18,0,0,0-.1-.23l-2.15-.84-9.94-7.69-.71-2.16,3.61-.07,4,1.4a.18.18,0,0,0,.22-.11l0-.12.08-.09a.18.18,0,0,0,0-.25L1185.53,22,1184,16.59a.17.17,0,0,0,0-.08.18.18,0,0,0-.05-.08l-1.11-1a.18.18,0,0,0-.18,0l-2.7-11a.17.17,0,0,0-.08-.11.17.17,0,0,0-.13,0l-.12,0-.12,0a.17.17,0,0,0-.2.14L1177,18.12l-12.06,13.56a.18.18,0,0,0,0,.25l.07.06v.09a.17.17,0,0,0,.2.15l4-.55.08,0a.18.18,0,0,0,.13,0l.11-.07.31,0a.18.18,0,0,0,.15-.2v0l3.89-2.41-12.8,11.75a.18.18,0,0,0,0,.25l.22.24a.18.18,0,0,0,.12.06h0a.18.18,0,0,0,.23.09l10.83-4.49-2,3.76-12.61,8.56a.18.18,0,0,0,0,.24l.06.09v.11a.17.17,0,0,0,.18.17l1.6-.06-2.78,5a.18.18,0,0,0,.07.24l.1.05.06.1a.18.18,0,0,0,.24.06L1171.09,47l-1.4,3.89-12.2,9.81a.18.18,0,0,0,0,.25l.2.25a.18.18,0,0,0,.25,0l.2-.16.07,0a.17.17,0,0,0,.14,0l13-5.77-2.29,3.3-13.24,7.67a.18.18,0,0,0-.07.07l-1.36.12a.18.18,0,0,0-.17.19l0,.31a.19.19,0,0,0,.07.12.21.21,0,0,0,.14,0l11.45-.79-2.18.94a.18.18,0,0,0-.09.23l0,.11v.12a.18.18,0,0,0,.17.18l2.7.1-5,2.93-13.68,3.61a.18.18,0,0,0-.12.22l.08.3a.17.17,0,0,0,.21.12h0l1,1a3.49,3.49,0,0,0,.23.09l6.68.06-7.92,6.17a.18.18,0,0,0,0,.25l.08.1.05.12a.18.18,0,0,0,.23.1l14.28-5.79-.85,2.93a.18.18,0,0,0,.12.22l.09,0,.06.08a.18.18,0,0,0,.25,0l10.11-7.35-4.9,11.87a.18.18,0,0,0,.09.23l.11,0,.08.09a.18.18,0,0,0,.12.06.21.21,0,0,0,.13,0l8-7.41V92.83a2.51,2.51,0,0,0,.33.33H1182a.17.17,0,0,0,.15-.08h0a.18.18,0,0,0,.18-.18v-16l11.49,11a.19.19,0,0,1,.16.14.17.17,0,0,0,.13,0l.31,0a.18.18,0,0,0,.16-.18l-.33-6,6,4a.18.18,0,0,0,.23,0l11.21,3a.18.18,0,0,0,.22-.12l0-.13.07-.11A.18.18,0,0,0,1211.91,88.18Z"/><path class="cls-1" d="M1282.24,84.85l-12.4-8L1262.41,68l6.51,1h.07l11.34-.75a.18.18,0,0,0,.16-.19v-.13l0-.12a.18.18,0,0,0-.12-.22l-4-1.14L1260.51,58l-2.31-3.57,2,.75.05.09a.18.18,0,0,0,.24.06l.05,0,.1,0a.18.18,0,0,0,.09-.09l0,0a.18.18,0,0,0,.07-.24h0v0a.18.18,0,0,0-.1-.23l-.08,0-.35-.58,2.38,1.6.09,0,.08,0,12.61.86.12.08a.18.18,0,0,0,.24-.05l.17-.27a.18.18,0,0,0,0-.24l-.09-.06,0-.05a.18.18,0,0,0-.12-.06l-5.3-3.51-8.09-10,3.43,1a.18.18,0,0,0,.18.12h.2a.16.16,0,0,0,.12,0l6.07-.49a.18.18,0,0,0,.16-.19v-.14l0-.13a.18.18,0,0,0-.14-.2l-5.19-.94a.18.18,0,0,0-.07-.06l-7.93-4.07-.48-1.6L1263.1,38a.17.17,0,0,0,.14,0h0a.17.17,0,0,0,.13,0l.25-.2a.18.18,0,0,0,0-.25l-.13-.16,7,1.06a.17.17,0,0,0,.13,0,.18.18,0,0,0,.07-.12l0-.14.05-.13a.18.18,0,0,0-.1-.23l-2.15-.84-9.94-7.69-.71-2.16,3.61-.07,4,1.4a.18.18,0,0,0,.22-.11l0-.12.08-.09a.18.18,0,0,0,0-.25l-9.93-9.14-1.56-5.46a.17.17,0,0,0,0-.08.18.18,0,0,0-.05-.08l-1.11-1a.18.18,0,0,0-.18,0l-2.7-11a.17.17,0,0,0-.08-.11.17.17,0,0,0-.13,0l-.12,0-.12,0a.17.17,0,0,0-.2.14l-2.24,13.66-12.06,13.56a.18.18,0,0,0,0,.25l.07.06v.09a.17.17,0,0,0,.2.15l4-.55.08,0a.18.18,0,0,0,.13,0l.11-.07.31,0a.18.18,0,0,0,.15-.2v0l3.89-2.41-12.8,11.75a.18.18,0,0,0,0,.25l.22.24a.18.18,0,0,0,.12.06h0a.18.18,0,0,0,.23.09l10.83-4.49-2,3.76-12.61,8.56a.18.18,0,0,0,0,.24l.06.09v.11a.17.17,0,0,0,.18.17l1.6-.06-2.78,5a.18.18,0,0,0,.07.24l.1.05.06.1a.18.18,0,0,0,.24.06l13.69-8.22-1.4,3.89-12.2,9.81a.18.18,0,0,0,0,.25l.2.25a.18.18,0,0,0,.25,0l.2-.16.07,0a.17.17,0,0,0,.14,0l13-5.77-2.29,3.3L1226.13,63a.18.18,0,0,0-.07.07l-1.36.12a.18.18,0,0,0-.17.19l0,.31a.19.19,0,0,0,.07.12.21.21,0,0,0,.14,0L1236.2,63,1234,64a.18.18,0,0,0-.09.23l0,.11v.12a.18.18,0,0,0,.17.18l2.7.1-5,2.93-13.68,3.61a.18.18,0,0,0-.12.22l.08.3a.17.17,0,0,0,.21.12h0l1,1a3.49,3.49,0,0,0,.23.09l6.68.06-7.92,6.17a.18.18,0,0,0,0,.25l.08.1.05.12a.18.18,0,0,0,.23.1L1233,73.94l-.85,2.93a.18.18,0,0,0,.12.22l.09,0,.06.08a.18.18,0,0,0,.25,0l10.11-7.35-4.9,11.87a.18.18,0,0,0,.09.23l.11,0,.08.09a.18.18,0,0,0,.12.06.21.21,0,0,0,.13,0l8-7.41V89.5a2.51,2.51,0,0,0,.33.33h5.55a.17.17,0,0,0,.15-.08h0a.18.18,0,0,0,.18-.18v-16l11.49,11a.19.19,0,0,1,.16.14.17.17,0,0,0,.13,0l.31,0a.18.18,0,0,0,.16-.18l-.33-6,6,4a.18.18,0,0,0,.23,0l11.21,3a.18.18,0,0,0,.22-.12l0-.13.07-.11A.18.18,0,0,0,1282.24,84.85Z"/><path class="cls-1" d="M1330.56,92.62l-12.4-8-7.44-8.92,6.51,1h.07l11.34-.75a.18.18,0,0,0,.16-.19v-.13l0-.12a.18.18,0,0,0-.12-.22l-4-1.14-15.88-8.5-2.31-3.57,2,.75.05.09a.18.18,0,0,0,.24.06l.05,0,.1,0a.18.18,0,0,0,.09-.09l0,0a.18.18,0,0,0,.07-.24h0v0a.18.18,0,0,0-.1-.23l-.08,0-.35-.58,2.38,1.6.09,0,.08,0,12.61.86.12.08a.18.18,0,0,0,.24-.05l.17-.27a.18.18,0,0,0,0-.24l-.09-.06,0-.05a.18.18,0,0,0-.12-.06l-5.3-3.51-8.09-10,3.43,1a.18.18,0,0,0,.18.12h.2a.16.16,0,0,0,.12,0l6.07-.49a.18.18,0,0,0,.16-.19V50.4l0-.13a.18.18,0,0,0-.14-.2l-5.19-.94a.18.18,0,0,0-.07-.06L1307.45,45l-.48-1.6,4.45,2.37a.17.17,0,0,0,.14,0h0a.17.17,0,0,0,.13,0l.25-.2a.18.18,0,0,0,0-.25l-.13-.16,7,1.06a.17.17,0,0,0,.13,0,.18.18,0,0,0,.07-.12l0-.14.05-.13a.18.18,0,0,0-.1-.23l-2.15-.84L1306.91,37l-.71-2.16,3.61-.07,4,1.4a.18.18,0,0,0,.22-.11l0-.12.08-.09a.18.18,0,0,0,0-.25l-9.93-9.14L1302.62,21a.17.17,0,0,0,0-.08.18.18,0,0,0-.05-.08l-1.11-1a.18.18,0,0,0-.18,0l-2.7-11a.17.17,0,0,0-.08-.11.17.17,0,0,0-.13,0l-.12,0-.12,0a.17.17,0,0,0-.2.14l-2.24,13.66-12.06,13.56a.18.18,0,0,0,0,.25l.07.06v.09a.17.17,0,0,0,.2.15l4-.55.08,0a.18.18,0,0,0,.13,0l.11-.07.31,0a.18.18,0,0,0,.15-.2v0l3.89-2.41-12.8,11.75a.18.18,0,0,0,0,.25l.22.24a.18.18,0,0,0,.12.06h0a.18.18,0,0,0,.23.09l10.83-4.49-2,3.76-12.61,8.56a.18.18,0,0,0,0,.24l.06.09V54a.17.17,0,0,0,.18.17l1.6-.06-2.78,5a.18.18,0,0,0,.07.24l.1.05.06.1a.18.18,0,0,0,.24.06l13.69-8.22-1.4,3.89-12.2,9.81a.18.18,0,0,0,0,.25l.2.25a.18.18,0,0,0,.25,0l.2-.16.07,0a.17.17,0,0,0,.14,0l13-5.77-2.29,3.3-13.24,7.67a.18.18,0,0,0-.07.07l-1.36.12a.18.18,0,0,0-.17.19l0,.31a.19.19,0,0,0,.07.12.21.21,0,0,0,.14,0l11.45-.79-2.18.94a.18.18,0,0,0-.09.23l0,.11v.12a.18.18,0,0,0,.17.18l2.7.1-5,2.93L1266.52,79a.18.18,0,0,0-.12.22l.08.3a.17.17,0,0,0,.21.12h0l1,1a3.49,3.49,0,0,0,.23.09l6.68.06-7.92,6.17a.18.18,0,0,0,0,.25l.08.1.05.12a.18.18,0,0,0,.23.1l14.28-5.79-.85,2.93a.18.18,0,0,0,.12.22l.09,0,.06.08a.18.18,0,0,0,.25,0l10.11-7.35-4.9,11.87a.18.18,0,0,0,.09.23l.11,0,.08.09a.18.18,0,0,0,.12.06.21.21,0,0,0,.13,0l8-7.41V97.27a2.51,2.51,0,0,0,.33.33h5.55a.17.17,0,0,0,.15-.08h0a.18.18,0,0,0,.18-.18v-16l11.49,11a.19.19,0,0,1,.16.14.17.17,0,0,0,.13,0l.31,0a.18.18,0,0,0,.16-.18l-.33-6,6,4a.18.18,0,0,0,.23,0l11.21,3a.18.18,0,0,0,.22-.12l0-.13.07-.11A.18.18,0,0,0,1330.56,92.62Z"/><path class="cls-1" d="M1451.92,83.88l-12.4-8L1432.09,67l6.51,1h.07l11.34-.75a.18.18,0,0,0,.16-.19V67l0-.12a.18.18,0,0,0-.12-.22l-4-1.14L1430.19,57l-2.31-3.57,2,.75.05.09a.18.18,0,0,0,.24.06l.05,0,.1,0a.18.18,0,0,0,.09-.09l0,0a.18.18,0,0,0,.07-.24h0v0a.18.18,0,0,0-.1-.23l-.08,0-.35-.58,2.38,1.6.09,0,.08,0,12.61.86.12.08a.18.18,0,0,0,.24-.05l.17-.27a.18.18,0,0,0,0-.24l-.09-.06,0-.05a.18.18,0,0,0-.12-.06l-5.3-3.51-8.09-10,3.43,1a.18.18,0,0,0,.18.12h.2a.16.16,0,0,0,.12,0L1442,42a.18.18,0,0,0,.16-.19v-.14l0-.13a.18.18,0,0,0-.14-.2l-5.19-.94a.18.18,0,0,0-.07-.06l-7.93-4.07-.48-1.6,4.45,2.37a.17.17,0,0,0,.14,0h0a.17.17,0,0,0,.13,0l.25-.2a.18.18,0,0,0,0-.25l-.13-.16,7,1.06a.17.17,0,0,0,.13,0,.18.18,0,0,0,.07-.12l0-.14.05-.13a.18.18,0,0,0-.1-.23l-2.15-.84-9.94-7.69-.71-2.16,3.61-.07,4,1.4a.18.18,0,0,0,.22-.11l0-.12.08-.09a.18.18,0,0,0,0-.25l-9.93-9.14L1424,12.28a.17.17,0,0,0,0-.08.18.18,0,0,0-.05-.08l-1.11-1a.18.18,0,0,0-.18,0l-2.7-11a.17.17,0,0,0-.08-.11.17.17,0,0,0-.13,0l-.12,0-.12,0a.17.17,0,0,0-.2.14L1417,13.82l-12.06,13.56a.18.18,0,0,0,0,.25l.07.06v.09a.17.17,0,0,0,.2.15l4-.55.08,0a.18.18,0,0,0,.13,0l.11-.07.31,0a.18.18,0,0,0,.15-.2v0l3.89-2.41-12.8,11.75a.18.18,0,0,0,0,.25l.22.24a.18.18,0,0,0,.12.06h0a.18.18,0,0,0,.23.09l10.83-4.49-2,3.76-12.61,8.56a.18.18,0,0,0,0,.24l.06.09v.11a.17.17,0,0,0,.18.17l1.6-.06-2.78,5a.18.18,0,0,0,.07.24l.1.05.06.1a.18.18,0,0,0,.24.06l13.69-8.22-1.4,3.89-12.2,9.81a.18.18,0,0,0,0,.25l.2.25a.18.18,0,0,0,.25,0l.2-.16.07,0a.17.17,0,0,0,.14,0l13-5.77-2.29,3.3L1395.81,62a.18.18,0,0,0-.07.07l-1.36.12a.18.18,0,0,0-.17.19l0,.31a.19.19,0,0,0,.07.12.21.21,0,0,0,.14,0l11.45-.79-2.18.94a.18.18,0,0,0-.09.23l0,.11v.12a.18.18,0,0,0,.17.18l2.7.1-5,2.93-13.68,3.61a.18.18,0,0,0-.12.22l.08.3a.17.17,0,0,0,.21.12h0l1,1a3.49,3.49,0,0,0,.23.09L1396,72l-7.92,6.17a.18.18,0,0,0,0,.25l.08.1.05.12a.18.18,0,0,0,.23.1L1402.69,73l-.85,2.93a.18.18,0,0,0,.12.22l.09,0,.06.08a.18.18,0,0,0,.25,0l10.11-7.35-4.9,11.87a.18.18,0,0,0,.09.23l.11,0,.08.09a.18.18,0,0,0,.12.06.21.21,0,0,0,.13,0l8-7.41V88.53a2.51,2.51,0,0,0,.33.33H1422a.17.17,0,0,0,.15-.08h0a.18.18,0,0,0,.18-.18v-16l11.49,11a.19.19,0,0,1,.16.14.17.17,0,0,0,.13,0l.31,0a.18.18,0,0,0,.16-.18l-.33-6,6,4a.18.18,0,0,0,.23,0l11.21,3a.18.18,0,0,0,.22-.12l0-.13.07-.11A.18.18,0,0,0,1451.92,83.88Z"/><path class="cls-1" d="M1238,91.56l-.22-.07a.18.18,0,0,0,0-.11l-12.06-17.8,7.64,2.29a.18.18,0,0,0,.22-.12l0-.16.14-.09a.18.18,0,0,0,.05-.24l-12-18.66,5.53,1.56a.18.18,0,0,0,.13,0,.18.18,0,0,0,.08-.11l0-.15.13-.09a.18.18,0,0,0,.05-.24l-13.4-20.44a.18.18,0,0,0-.24-.05l-.21.14-.21-.14a.18.18,0,0,0-.24.05L1200,57.54a.18.18,0,0,0,.05.24l.13.09,0,.15a.18.18,0,0,0,.08.11.18.18,0,0,0,.13,0l5.53-1.56-12,18.66a.18.18,0,0,0,.05.24l.14.09,0,.16a.18.18,0,0,0,.22.12l7.63-2.29L1190,91.37a.18.18,0,0,0,0,.11l-.22.07a.18.18,0,0,0-.11.22l.14.43a.18.18,0,0,0,.22.11l20.59-6.71v14.5a.18.18,0,0,0,.18.18h0v.05a.18.18,0,0,0,.18.18h5.68a.18.18,0,0,0,.18-.18v-.05h0a.18.18,0,0,0,.18-.18V85.61l20.59,6.71a.18.18,0,0,0,.22-.11l.14-.43a.18.18,0,0,0-.11-.22Z"/><path class="cls-1" d="M1365.57,76l-.22-.07a.18.18,0,0,0,0-.11L1353.26,58l7.64,2.29a.18.18,0,0,0,.22-.12l0-.16.14-.09a.18.18,0,0,0,.05-.24l-12-18.66,5.53,1.56a.18.18,0,0,0,.13,0,.18.18,0,0,0,.08-.11l0-.15.13-.09a.18.18,0,0,0,.05-.24l-13.4-20.44a.18.18,0,0,0-.24-.05l-.21.14-.21-.14a.18.18,0,0,0-.24.05l-13.4,20.44a.18.18,0,0,0,.05.24l.13.09,0,.15a.18.18,0,0,0,.08.11.18.18,0,0,0,.13,0l5.53-1.56-12,18.66a.18.18,0,0,0,.05.24l.14.09,0,.16a.18.18,0,0,0,.22.12l7.63-2.29-12.06,17.8a.18.18,0,0,0,0,.11l-.22.07a.18.18,0,0,0-.11.22l.14.43a.18.18,0,0,0,.22.11L1338.25,70v14.5a.18.18,0,0,0,.18.18h0v.05a.18.18,0,0,0,.18.18h5.68a.18.18,0,0,0,.18-.18v-.05h0a.18.18,0,0,0,.18-.18V70l20.59,6.71a.18.18,0,0,0,.22-.11l.14-.43a.18.18,0,0,0-.11-.22Z"/><path class="cls-1" d="M1398.18,84.2l-.22-.07a.18.18,0,0,0,0-.11l-12.06-17.8,7.64,2.29a.18.18,0,0,0,.22-.12l0-.16.14-.09a.18.18,0,0,0,.05-.24l-12-18.66,5.53,1.56a.18.18,0,0,0,.13,0,.18.18,0,0,0,.08-.11l0-.15.13-.09a.18.18,0,0,0,.05-.24l-13.4-20.44a.18.18,0,0,0-.24-.05l-.21.14-.21-.14a.18.18,0,0,0-.24.05l-13.4,20.44a.18.18,0,0,0,.05.24l.13.09,0,.15a.18.18,0,0,0,.08.11.18.18,0,0,0,.13,0l5.53-1.56-12,18.66a.18.18,0,0,0,.05.24l.14.09,0,.16a.18.18,0,0,0,.22.12l7.63-2.29L1350.25,84a.18.18,0,0,0,0,.11l-.22.07a.18.18,0,0,0-.11.22l.14.43a.18.18,0,0,0,.22.11l20.59-6.71v14.5a.18.18,0,0,0,.18.18h0V93a.18.18,0,0,0,.18.18h5.68a.18.18,0,0,0,.18-.18v-.05h0a.18.18,0,0,0,.18-.18V78.26L1397.93,85a.18.18,0,0,0,.22-.11l.14-.43a.18.18,0,0,0-.11-.22Z"/><path class="cls-1" d="M411.49,73.47a.48.48,0,0,0,0,.12l.47-.28A.48.48,0,0,0,411.49,73.47Z"/></g></g></svg>
