<svg xmlns="http://www.w3.org/2000/svg" viewBox="0 0 261.97 40"><defs><style>.cls-1{fill:#5e6062;}.cls-2{fill:#77af42;}.cls-3{fill:#f4d019;}.cls-4{fill:#00246a;}.cls-5{fill:#f47641;}</style></defs><title>Asset 2</title><g id="Layer_2" data-name="Layer 2"><g id="nav"><path class="cls-1" d="M73.47,21.55a5.81,5.81,0,0,1,.41-2.2A5.24,5.24,0,0,1,75,17.62a5,5,0,0,1,1.74-1.14,5.86,5.86,0,0,1,2.21-.41,5.78,5.78,0,0,1,2.2.41A5.1,5.1,0,0,1,84,19.36a6.15,6.15,0,0,1,0,4.39,5.1,5.1,0,0,1-2.87,2.87,5.81,5.81,0,0,1-2.2.41,5.9,5.9,0,0,1-2.21-.41A5,5,0,0,1,75,25.49a5.23,5.23,0,0,1-1.13-1.74A5.8,5.8,0,0,1,73.47,21.55Zm1.35,0a4.81,4.81,0,0,0,.28,1.66,3.87,3.87,0,0,0,.82,1.35,4,4,0,0,0,1.31.91,4.51,4.51,0,0,0,3.43,0A4,4,0,0,0,82,24.56a3.87,3.87,0,0,0,.82-1.35,5,5,0,0,0,0-3.31A3.89,3.89,0,0,0,82,18.54a4,4,0,0,0-1.31-.91,4.52,4.52,0,0,0-3.43,0,4,4,0,0,0-1.31.91,3.89,3.89,0,0,0-.82,1.35A4.83,4.83,0,0,0,74.82,21.55Z"/><path class="cls-1" d="M87.15,16.35h1.35v1.83h0a3.5,3.5,0,0,1,.79-.93,4.77,4.77,0,0,1,1-.65,5.12,5.12,0,0,1,1.16-.38,5.9,5.9,0,0,1,1.2-.12,5.79,5.79,0,0,1,2.2.41,5.1,5.1,0,0,1,2.87,2.87,6.15,6.15,0,0,1,0,4.39,5.1,5.1,0,0,1-2.87,2.87,5.82,5.82,0,0,1-2.2.41,5.9,5.9,0,0,1-1.2-.12,5.07,5.07,0,0,1-1.16-.38,4.76,4.76,0,0,1-1-.65,3.51,3.51,0,0,1-.79-.94h0v7H87.15Zm1.22,5.21a4.1,4.1,0,0,0,.34,1.66,4.23,4.23,0,0,0,.92,1.35,4.45,4.45,0,0,0,1.37.91,4.3,4.3,0,0,0,1.71.34,4.2,4.2,0,0,0,1.71-.34,4,4,0,0,0,1.31-.91,3.87,3.87,0,0,0,.82-1.35,5,5,0,0,0,0-3.31,3.89,3.89,0,0,0-.82-1.35,4,4,0,0,0-1.31-.91,4.2,4.2,0,0,0-1.71-.34,4.3,4.3,0,0,0-1.71.34,4.44,4.44,0,0,0-1.37.91,4.25,4.25,0,0,0-.92,1.35A4.12,4.12,0,0,0,88.37,21.55Z"/><path class="cls-1" d="M110.41,24.8a4.55,4.55,0,0,1-2,1.71,6.21,6.21,0,0,1-2.56.52,5.56,5.56,0,0,1-2.16-.41,4.85,4.85,0,0,1-1.67-1.14A5,5,0,0,1,101,23.75a6.34,6.34,0,0,1-.37-2.22,6,6,0,0,1,.38-2.16,5.18,5.18,0,0,1,1.08-1.73,5.09,5.09,0,0,1,1.64-1.15,5.16,5.16,0,0,1,2.1-.42,5,5,0,0,1,2.11.42,4.64,4.64,0,0,1,1.53,1.11,4.7,4.7,0,0,1,.94,1.57,5.24,5.24,0,0,1,.31,1.78v.95H102a4.6,4.6,0,0,0,.17,1.09,3.86,3.86,0,0,0,.62,1.3A3.92,3.92,0,0,0,104,25.36a3.76,3.76,0,0,0,1.95.45,4.36,4.36,0,0,0,2-.5A3.61,3.61,0,0,0,109.42,24Zm-1-4.12a3.08,3.08,0,0,0-.28-1.31,3.49,3.49,0,0,0-.77-1.07,3.62,3.62,0,0,0-1.15-.73,3.69,3.69,0,0,0-1.41-.27,3.45,3.45,0,0,0-1.84.45,4,4,0,0,0-1.16,1,4.12,4.12,0,0,0-.61,1.14,3,3,0,0,0-.18.75Z"/><path class="cls-1" d="M113.75,19.28q0-.29,0-.71t0-.85q0-.43,0-.8c0-.25,0-.44,0-.57H115q0,.58,0,1.13a3.54,3.54,0,0,0,.06.7h.07a3.66,3.66,0,0,1,1.35-1.48,3.94,3.94,0,0,1,2.21-.62,4.44,4.44,0,0,1,2,.38,3.2,3.2,0,0,1,1.21,1,3.77,3.77,0,0,1,.61,1.43,8.22,8.22,0,0,1,.17,1.67v6.2h-1.35V20.63a6.64,6.64,0,0,0-.11-1.23,3.26,3.26,0,0,0-.4-1.07,2.07,2.07,0,0,0-.79-.76,2.7,2.7,0,0,0-1.32-.28,3.84,3.84,0,0,0-1.41.26,3,3,0,0,0-1.15.79,3.83,3.83,0,0,0-.77,1.33,5.67,5.67,0,0,0-.28,1.88v5.2h-1.35Z"/><path class="cls-1" d="M131.78,18.94a2.48,2.48,0,0,0-2.12-1.1,2.26,2.26,0,0,0-1.06.27.92.92,0,0,0-.52.88.76.76,0,0,0,.43.72,4.71,4.71,0,0,0,1.08.38l1.41.33a5.57,5.57,0,0,1,1.41.52,3.08,3.08,0,0,1,1.08,1,2.86,2.86,0,0,1,.43,1.67,3,3,0,0,1-.42,1.64,3.26,3.26,0,0,1-1.08,1.07,4.8,4.8,0,0,1-1.5.59,7.84,7.84,0,0,1-1.67.18,7.17,7.17,0,0,1-2.32-.36A4.39,4.39,0,0,1,125,25.36l1.8-1.69a5,5,0,0,0,1.12,1,2.7,2.7,0,0,0,1.45.37,2.93,2.93,0,0,0,.61-.07,2,2,0,0,0,.59-.23,1.37,1.37,0,0,0,.44-.39,1,1,0,0,0-.26-1.39,3.74,3.74,0,0,0-1.08-.44q-.65-.17-1.41-.32a5.41,5.41,0,0,1-1.41-.47,3,3,0,0,1-1.08-.91,2.71,2.71,0,0,1-.43-1.62,3.17,3.17,0,0,1,.37-1.57,3.25,3.25,0,0,1,1-1.09,4.22,4.22,0,0,1,1.4-.63,6.36,6.36,0,0,1,3.74.17,3.5,3.5,0,0,1,1.71,1.27Z"/><path class="cls-1" d="M134.76,18.24v-2.3H137V12.81h2.71v3.13h3v2.3h-3V23a2.35,2.35,0,0,0,.3,1.28,1.33,1.33,0,0,0,1.21.47,4.33,4.33,0,0,0,.79-.08,1.66,1.66,0,0,0,.68-.26v2.28a3.48,3.48,0,0,1-1,.28,8.72,8.72,0,0,1-1.09.08,5.5,5.5,0,0,1-1.77-.24,2.31,2.31,0,0,1-1.08-.72,2.75,2.75,0,0,1-.54-1.21A8.43,8.43,0,0,1,137,23.2v-5Z"/><path class="cls-1" d="M151.55,25.27h-.07A3.51,3.51,0,0,1,150,26.61a4.67,4.67,0,0,1-2,.42,5.2,5.2,0,0,1-1.45-.2,3.93,3.93,0,0,1-1.26-.61,3.1,3.1,0,0,1-.89-1,2.88,2.88,0,0,1-.34-1.42,3.28,3.28,0,0,1,.31-1.5,3.09,3.09,0,0,1,.85-1,4.31,4.31,0,0,1,1.23-.66,8.47,8.47,0,0,1,1.45-.37,13,13,0,0,1,1.52-.16q.77,0,1.44,0h.68v-.29a1.76,1.76,0,0,0-.7-1.52,3,3,0,0,0-1.78-.51,4.18,4.18,0,0,0-1.6.31,4,4,0,0,0-1.28.82l-1.42-1.42a5.26,5.26,0,0,1,2.11-1.33,7.75,7.75,0,0,1,2.49-.41,6.27,6.27,0,0,1,1.94.26,4.29,4.29,0,0,1,1.31.66,3,3,0,0,1,.8.94,4.42,4.42,0,0,1,.4,1.07,5.8,5.8,0,0,1,.15,1c0,.34,0,.64,0,.89v6.22h-2.43Zm-.16-3.36h-.56q-.56,0-1.26,0a6.79,6.79,0,0,0-1.32.21,3,3,0,0,0-1,.5,1.08,1.08,0,0,0-.43.91,1.15,1.15,0,0,0,.17.64,1.53,1.53,0,0,0,.44.44,1.88,1.88,0,0,0,.61.26,2.94,2.94,0,0,0,.68.08,2.81,2.81,0,0,0,2.06-.66,2.45,2.45,0,0,0,.66-1.82Z"/><path class="cls-1" d="M159.69,20.95l-3.74-5h3.29l2.16,3.25,2.34-3.25h3.09l-3.7,5,4.35,5.81h-3.29l-2.82-3.88-2.84,3.88h-3.2Z"/><path class="cls-2" d="M63.7,8.81a2.08,2.08,0,0,1-2.18,2L12.92,8.48a2.09,2.09,0,0,1-2-2.18L11.15,2a2.08,2.08,0,0,1,2.17-2l48.6,2.31a2.09,2.09,0,0,1,2,2.18Z"/><path class="cls-1" d="M47.73,24.6a1.25,1.25,0,0,1-1.25,1.25H7A1.25,1.25,0,0,1,5.7,24.6V18.42A1.25,1.25,0,0,1,7,17.18H46.48a1.25,1.25,0,0,1,1.25,1.25Z"/><path class="cls-3" d="M59.89,31.29a1.23,1.23,0,0,1-1.17,1.29L14.12,34a1.23,1.23,0,0,1-1.25-1.21l-.12-3.67a1.23,1.23,0,0,1,1.17-1.29l44.6-1.39a1.23,1.23,0,0,1,1.25,1.21Z"/><path class="cls-4" d="M53.9,38.75A1.22,1.22,0,0,1,52.72,40H10.15A1.22,1.22,0,0,1,9,38.75V36.3A1.21,1.21,0,0,1,10.15,35H52.72A1.21,1.21,0,0,1,53.9,36.3Z"/><path class="cls-5" d="M55,14.2c0,.51-.76.92-1.69.92H1.68C.76,15.12,0,14.71,0,14.2v-2c0-.51.76-.92,1.68-.92H53.31c.93,0,1.69.41,1.69.92Z"/><path class="cls-1" d="M172.59,17.38V16.19h8.46v1.19h-3.53v9.4h-1.41v-9.4Z"/><path class="cls-1" d="M189.59,26a4.34,4.34,0,0,1-3.08,1,4.8,4.8,0,0,1-3.19-1A3.83,3.83,0,0,1,182.17,23V16.19h1.41V23a2.87,2.87,0,0,0,.76,2.16,3,3,0,0,0,2.18.73,2.72,2.72,0,0,0,2.05-.73,3,3,0,0,0,.7-2.16V16.19h1.41V23A4,4,0,0,1,189.59,26Z"/><path class="cls-1" d="M191.8,17.38V16.19h8.46v1.19h-3.53v9.4h-1.41v-9.4Z"/><path class="cls-1" d="M201.16,19.4a5.25,5.25,0,0,1,1-1.77,4.67,4.67,0,0,1,1.59-1.23,5.53,5.53,0,0,1,4.42,0,4.67,4.67,0,0,1,1.59,1.23,5.26,5.26,0,0,1,1,1.77,7,7,0,0,1,0,4.16,5.25,5.25,0,0,1-1,1.77,4.58,4.58,0,0,1-1.59,1.22,5.62,5.62,0,0,1-4.42,0,4.58,4.58,0,0,1-1.59-1.22,5.25,5.25,0,0,1-1-1.77,7,7,0,0,1,0-4.16Zm1.3,3.66a4.29,4.29,0,0,0,.65,1.4,3.33,3.33,0,0,0,1.14,1,3.83,3.83,0,0,0,3.32,0,3.34,3.34,0,0,0,1.14-1,4.3,4.3,0,0,0,.65-1.4,6.11,6.11,0,0,0,0-3.16,4.29,4.29,0,0,0-.65-1.4,3.33,3.33,0,0,0-1.14-1,3.83,3.83,0,0,0-3.32,0,3.33,3.33,0,0,0-1.14,1,4.29,4.29,0,0,0-.65,1.4,6.11,6.11,0,0,0,0,3.16Z"/><path class="cls-1" d="M217.67,16.19a3.49,3.49,0,0,1,2.36.74,2.55,2.55,0,0,1,.85,2,3.21,3.21,0,0,1-.44,1.69,2.25,2.25,0,0,1-1.4,1v0a1.89,1.89,0,0,1,.75.3,1.63,1.63,0,0,1,.46.5,2.24,2.24,0,0,1,.25.64,6.74,6.74,0,0,1,.13.74q0,.39,0,.79a6.79,6.79,0,0,0,.07.79,4.8,4.8,0,0,0,.17.73,1.81,1.81,0,0,0,.33.62h-1.57a.88.88,0,0,1-.2-.44,4.46,4.46,0,0,1-.07-.63q0-.35,0-.75a5.23,5.23,0,0,0-.09-.79q-.06-.39-.15-.73a1.72,1.72,0,0,0-.28-.61,1.39,1.39,0,0,0-.5-.41,1.87,1.87,0,0,0-.83-.16H214.1v4.52h-1.41V16.19ZM218,21a2,2,0,0,0,.78-.29,1.58,1.58,0,0,0,.53-.58,1.94,1.94,0,0,0,.2-.94,1.9,1.9,0,0,0-.44-1.3,1.83,1.83,0,0,0-1.44-.5h-3.5v3.69H217A5.67,5.67,0,0,0,218,21Z"/><path class="cls-1" d="M231.64,16.19l-.9,4.28h0a3.18,3.18,0,0,1,1.07-1.14,2.85,2.85,0,0,1,1.56-.43,3.1,3.1,0,0,1,1.28.24,2.58,2.58,0,0,1,.9.67,2.76,2.76,0,0,1,.54,1,4.34,4.34,0,0,1,.18,1.27,6,6,0,0,1-.27,1.75,5.21,5.21,0,0,1-.78,1.57A4.1,4.1,0,0,1,234,26.54a3.4,3.4,0,0,1-1.73.44,2.78,2.78,0,0,1-1.67-.5A2.27,2.27,0,0,1,229.7,25h0l-.37,1.75h-.83l2.24-10.58Zm1.9,9.63a3.48,3.48,0,0,0,1-1,4.56,4.56,0,0,0,.62-1.34,5.32,5.32,0,0,0,.21-1.44,2.68,2.68,0,0,0-.52-1.72,2,2,0,0,0-1.67-.65,2.29,2.29,0,0,0-1.36.41,3.63,3.63,0,0,0-1,1,5,5,0,0,0-.59,1.36,5.28,5.28,0,0,0-.2,1.39,3.17,3.17,0,0,0,.13.91,2,2,0,0,0,.39.73,1.87,1.87,0,0,0,.65.5,2.15,2.15,0,0,0,.93.19A2.53,2.53,0,0,0,233.55,25.83Z"/><path class="cls-1" d="M238.27,23.79a3.34,3.34,0,0,0,.13,1,2.06,2.06,0,0,0,.41.76,1.91,1.91,0,0,0,.7.5,2.67,2.67,0,0,0,2.57-.34,2.8,2.8,0,0,0,.92-1.37h.93a3.83,3.83,0,0,1-1.25,2,3.49,3.49,0,0,1-2.24.68,3,3,0,0,1-2.32-.86,3.36,3.36,0,0,1-.79-2.37,5.88,5.88,0,0,1,.27-1.79,4.87,4.87,0,0,1,.81-1.55,4.12,4.12,0,0,1,1.3-1.1,3.63,3.63,0,0,1,1.75-.41,3.28,3.28,0,0,1,1.23.22,2.59,2.59,0,0,1,.91.61,2.56,2.56,0,0,1,.57.94,3.65,3.65,0,0,1,.19,1.22q0,.33,0,.65t-.06.67h-6A3.61,3.61,0,0,0,238.27,23.79Zm5.16-1.68q0-.14,0-.29a2.15,2.15,0,0,0-.56-1.56,2,2,0,0,0-1.53-.58,2.44,2.44,0,0,0-1.06.23,3.1,3.1,0,0,0-.86.61,3.45,3.45,0,0,0-.63.87,4.2,4.2,0,0,0-.37,1h5Q243.42,22.25,243.43,22.11Z"/><path class="cls-1" d="M246.83,19.13l.49-2.31h.93l-.49,2.31h1.53l-.15.79h-1.56l-1.05,4.91q-.06.27-.08.41a2.1,2.1,0,0,0,0,.32.64.64,0,0,0,.11.37.42.42,0,0,0,.38.16A6.82,6.82,0,0,0,248,26l-.16.8-.47,0h-.47a3.58,3.58,0,0,1-.52,0,1.22,1.22,0,0,1-.45-.16.86.86,0,0,1-.32-.33,1.14,1.14,0,0,1-.12-.56,3.24,3.24,0,0,1,0-.33,3.76,3.76,0,0,1,.08-.46l1.05-5.07h-1.38l.18-.79Z"/><path class="cls-1" d="M250.5,20.28a2.58,2.58,0,0,1,.72-.78,3.07,3.07,0,0,1,1-.45,4.4,4.4,0,0,1,1.16-.15,5.48,5.48,0,0,1,.85.07,3.12,3.12,0,0,1,.87.27,1.93,1.93,0,0,1,.67.52,1.29,1.29,0,0,1,.27.85,4.22,4.22,0,0,1-.05.62q-.05.34-.13.69t-.16.68l-.14.59q-.13.64-.23,1.06t-.16.7q-.06.28-.09.46a2.16,2.16,0,0,0,0,.36.24.24,0,0,0,.16.26,1.06,1.06,0,0,0,.33.05h.19l.19,0-.13.73a3.92,3.92,0,0,1-.77.07.74.74,0,0,1-.82-.81c0-.07,0-.14,0-.21s0-.14,0-.21l0,0a2.68,2.68,0,0,1-1.13,1,3.37,3.37,0,0,1-1.53.36,3.78,3.78,0,0,1-1-.12,2.07,2.07,0,0,1-.76-.37,1.75,1.75,0,0,1-.5-.65,2.28,2.28,0,0,1-.19-1,2.21,2.21,0,0,1,.22-1,1.9,1.9,0,0,1,.59-.68,3.07,3.07,0,0,1,.84-.42,7,7,0,0,1,1-.24,8.31,8.31,0,0,1,1.37-.11,4,4,0,0,0,1.06-.11,1.19,1.19,0,0,0,.69-.43,1.86,1.86,0,0,0,.23-1.07.92.92,0,0,0-.16-.56,1.09,1.09,0,0,0-.39-.33,1.68,1.68,0,0,0-.52-.16,3.64,3.64,0,0,0-.56,0,3.9,3.9,0,0,0-.84.09,2.36,2.36,0,0,0-.73.29,1.69,1.69,0,0,0-.54.53,2.06,2.06,0,0,0-.29.81h-.93A2.88,2.88,0,0,1,250.5,20.28Zm4.22,2.37a.83.83,0,0,1-.33.21,2.64,2.64,0,0,1-.45.13,3.91,3.91,0,0,1-.48.06l-.42,0-1,.08a3.92,3.92,0,0,0-1,.22,2,2,0,0,0-.77.5,1.33,1.33,0,0,0-.31.94,1.3,1.3,0,0,0,.14.63,1.26,1.26,0,0,0,.38.43,1.54,1.54,0,0,0,.55.24,2.74,2.74,0,0,0,.64.07,2.67,2.67,0,0,0,1.82-.61,2.91,2.91,0,0,0,.92-1.63l.3-1.29Z"/><path class="cls-1" d="M256.92,17.05H256V16.6h2.25v.46h-.9v2.39h-.46Zm1.93-.46h.73l.85,2.16.85-2.16h.7v2.84h-.46V17.05h0l-.94,2.39h-.31l-.94-2.39h0v2.39h-.45Z"/></g></g></svg>