<svg xmlns="http://www.w3.org/2000/svg" viewBox="0 0 100.09 74.29"><defs><style>.cls-1{fill:#fff;}.cls-2{fill:#15bfdb;}.cls-3{fill:#fabc3c;}</style></defs><title>Asset 3</title><g id="Layer_2" data-name="Layer 2"><g id="Tutor_icons" data-name="Tutor icons"><g id="all_colors_thin" data-name="all colors thin"><g id="Layer_15" data-name="Layer 15"><path class="cls-1" d="M26.49,18.33V16.52a11.72,11.72,0,0,0,1.76-.17,2.48,2.48,0,0,0,1.3-.71,2.33,2.33,0,0,0,.52-1,2.22,2.22,0,0,0,.1-.54h2.22V27.67H29.67V18.33Z"/><path class="cls-2" d="M37,33.45H13.46A4.46,4.46,0,0,0,9,37.91V51.86a4.46,4.46,0,0,0,4.46,4.46H37Z"/><path class="cls-1" d="M94.58,10.89H46.05a5.51,5.51,0,0,0-5.51,5.51V68.78a5.51,5.51,0,0,0,5.51,5.51H94.58a5.51,5.51,0,0,0,5.51-5.51V16.4A5.51,5.51,0,0,0,94.58,10.89Zm2.33,57.61a2.62,2.62,0,0,1-2.62,2.62H46.35a2.62,2.62,0,0,1-2.62-2.62V16.77a2.62,2.62,0,0,1,2.62-2.62H94.3a2.62,2.62,0,0,1,2.62,2.62Z"/><rect class="cls-3" x="60.58" y="46.3" width="30.44" height="3.31" rx="1.66" ry="1.66"/><rect class="cls-3" x="60.6" y="62.29" width="30.44" height="3.34" rx="1.67" ry="1.67"/><rect class="cls-3" x="60.58" y="54.3" width="30.44" height="3.33" rx="1.66" ry="1.66"/><path class="cls-1" d="M62.78,38.48a9.68,9.68,0,0,1,.62-3.18H51a1.62,1.62,0,0,0-1.62,1.62h0A1.62,1.62,0,0,0,51,38.53H62.77Z"/><path class="cls-1" d="M66.53,35.83a7.71,7.71,0,0,1,2.76-2.94,20.32,20.32,0,0,0,2.45-1.94,2.86,2.86,0,0,0,.85-2,2.21,2.21,0,0,0-.49-1.47,2,2,0,0,0-3.1.35,4.63,4.63,0,0,0-.31,1.71H66a6.72,6.72,0,0,1,.64-2.87,4,4,0,0,1,3.89-2.08,4.93,4.93,0,0,1,3.51,1.22A4.23,4.23,0,0,1,75.39,29a4.38,4.38,0,0,1-.92,2.74,9.19,9.19,0,0,1-2,1.77l-1.1.78q-1,.73-1.41,1.05a3.1,3.1,0,0,0-.64.76h6.07v2.41H65.89A6.52,6.52,0,0,1,66.53,35.83Z"/><path class="cls-3" d="M52,47a2,2,0,0,0,.51-.11.38.38,0,0,0,.27-.36.43.43,0,0,0-.21-.41A1.33,1.33,0,0,0,52,46a.81.81,0,0,0-.65.22.92.92,0,0,0-.18.45H49.89a1.87,1.87,0,0,1,.36-1.05A2.1,2.1,0,0,1,52,44.94a3.11,3.11,0,0,1,1.43.32,1.22,1.22,0,0,1,.62,1.2v2.24q0,.23,0,.56a.71.71,0,0,0,.08.34.46.46,0,0,0,.19.15v.19H52.93a1.43,1.43,0,0,1-.08-.28q0-.13,0-.3a2.64,2.64,0,0,1-.61.49,1.85,1.85,0,0,1-.94.24,1.62,1.62,0,0,1-1.1-.38,1.35,1.35,0,0,1-.43-1.07,1.39,1.39,0,0,1,.7-1.3A3.12,3.12,0,0,1,51.56,47Zm.78.6a1.41,1.41,0,0,1-.25.12,2.11,2.11,0,0,1-.34.09l-.29.05a1.92,1.92,0,0,0-.59.17.58.58,0,0,0-.3.54.57.57,0,0,0,.18.47.7.7,0,0,0,.45.15,1.33,1.33,0,0,0,.77-.24,1,1,0,0,0,.37-.88Z"/><path class="cls-3" d="M55.14,48.59H56.5v1.34H55.14Z"/><path class="cls-3" d="M53.95,54a2.8,2.8,0,0,1,.55,1.79A3.14,3.14,0,0,1,54,57.67a2,2,0,0,1-2.48.51,1.94,1.94,0,0,1-.48-.5v.61H49.73V51.69H51V54a1.87,1.87,0,0,1,.54-.52,1.6,1.6,0,0,1,.88-.22A1.82,1.82,0,0,1,53.95,54Zm-1.07,3a1.81,1.81,0,0,0,.28-1,2.34,2.34,0,0,0-.14-.86.94.94,0,0,0-.95-.64,1,1,0,0,0-1,.63,2.35,2.35,0,0,0-.14.87,1.81,1.81,0,0,0,.28,1,1,1,0,0,0,.85.41A.88.88,0,0,0,52.88,57Z"/><path class="cls-3" d="M55.36,56.94h1.36v1.34H55.36Z"/><path class="cls-3" d="M52.93,62.69a1.13,1.13,0,0,0-.18-.49.77.77,0,0,0-.67-.3.88.88,0,0,0-.88.64,2.66,2.66,0,0,0-.13.9,2.44,2.44,0,0,0,.13.86.85.85,0,0,0,.86.61.76.76,0,0,0,.64-.24,1.2,1.2,0,0,0,.23-.63h1.3a2.13,2.13,0,0,1-.42,1.1A2,2,0,0,1,52,66a2.08,2.08,0,0,1-1.73-.7,2.82,2.82,0,0,1-.56-1.81,2.86,2.86,0,0,1,.61-2,2.14,2.14,0,0,1,1.69-.7,2.55,2.55,0,0,1,1.5.41,1.92,1.92,0,0,1,.69,1.45Z"/><path class="cls-3" d="M55.09,64.48h1.36v1.34H55.09Z"/><path class="cls-1" d="M9,25.63a1.59,1.59,0,0,0,1.59,1.59H25.67V24H10.6A1.59,1.59,0,0,0,9,25.63Z"/><path class="cls-1" d="M41.52,8.63h-31a1.59,1.59,0,0,0,0,3.18H38.32A9.06,9.06,0,0,1,41.52,8.63Z"/><path class="cls-1" d="M37,60.22H5.89A2.62,2.62,0,0,1,3.28,57.6V6A2.62,2.62,0,0,1,5.89,3.35H53.71A2.62,2.62,0,0,1,56.33,6V7.39h3.22V5.51A5.51,5.51,0,0,0,54,0H5.51A5.51,5.51,0,0,0,0,5.51V57.89A5.51,5.51,0,0,0,5.51,63.4H37Z"/><path class="cls-1" d="M62.93,29.42a12.06,12.06,0,0,1,.22-1.87H51a1.61,1.61,0,0,0,0,3.22H62.88Z"/><path class="cls-1" d="M89.36,27.55H78.14A8.35,8.35,0,0,1,78.28,29a7.65,7.65,0,0,1-.21,1.73H89.36a1.61,1.61,0,0,0,0-3.22Z"/><path class="cls-1" d="M89.38,19.55H51a1.58,1.58,0,1,0,0,3.17H66.26a7.75,7.75,0,0,1,4.2-1.14,8.27,8.27,0,0,1,4.38,1.14H89.38a1.58,1.58,0,0,0,0-3.17Z"/><path class="cls-1" d="M9,18.25a1.62,1.62,0,0,0,1.62,1.62H22.49V16.63H10.59A1.62,1.62,0,0,0,9,18.25Z"/></g></g></g></g></svg>