<svg xmlns="http://www.w3.org/2000/svg" viewBox="0 0 25.84 27.03"><defs><style>.cls-1{fill:#fff;}</style></defs><title>feature matrix unavail</title><g id="Layer_2" data-name="Layer 2"><g id="Layer_16" data-name="Layer 16"><path class="cls-1" d="M19.08,21c0-.2.08-.41.14-.6s0-.23.05-.34L19.19,20c0,.14-.06.27-.07.41s-.09.43-.13.65-.08.4-.11.6a2.35,2.35,0,0,1-.06.27h0v0C18.89,21.65,19,21.35,19.08,21Z"/><path class="cls-1" d="M17.63,19.44c0-.12.07-.24.11-.35a3.17,3.17,0,0,1,.12-.46l0,0c0,.13-.09.25-.11.39S17.66,19.29,17.63,19.44Z"/><path class="cls-1" d="M18.11,18.91h0l-.07-.07c0,.11,0,.22-.06.32A1,1,0,0,1,18.11,18.91Z"/><path class="cls-1" d="M19.05,19.85,19,19.78c-.07.27-.14.54-.2.82.08-.24.17-.48.24-.73A0,0,0,0,1,19.05,19.85Z"/><path class="cls-1" d="M21.16,22.54c0-.1,0-.25.11-.32s.06,0,.05,0c-.1.33-.17.66-.24,1,0,.11,0,.22,0,.33s0,.11,0,.16c0-.13.05-.26.09-.39s.09-.4.15-.6,0-.18,0-.27,0,0,0,0h0c0-.07,0-.13.05-.2a1.53,1.53,0,0,0-.22-.21c0,.19-.23.91-.25,1s-.11.43-.15.64a3.19,3.19,0,0,1-.07.32l.09.09c.05-.38.11-.77.2-1.14C21.06,22.87,21.12,22.71,21.16,22.54Z"/><path class="cls-1" d="M18.73,19.52a3.58,3.58,0,0,1-.08.35c0,.19-.09.39-.12.59a10.61,10.61,0,0,1-.21,1.11l.14.14.2-1.14c.05-.31.14-.6.21-.9Z"/><path class="cls-1" d="M18.67,19.46,18.23,19c0,.31-.15.61-.22.91A4.52,4.52,0,0,1,17.74,21l.49.51C18.42,20.83,18.5,20.12,18.67,19.46Zm-.49.31s0-.08,0-.13a.48.48,0,0,1,.09-.24s.11,0,.12,0a.34.34,0,0,1,0,.08h0a.44.44,0,0,1,0,.15.37.37,0,0,1,0,.15s0,0,0,0h0a.35.35,0,0,0,0,.08.17.17,0,0,1,0,.1.06.06,0,0,1-.1,0A1,1,0,0,1,18.18,19.78Zm-.1,1.29a0,0,0,0,1,0,0s0-.11,0-.15.07,0,.08,0S18.12,21,18.09,21.06Zm.09-.5c-.05-.07,0-.14,0-.2s.1,0,.09,0,0,.15-.06.17Z"/><path class="cls-1" d="M18.58,21.57c0-.1.07-.22.1-.33l0,.1Z"/><path class="cls-1" d="M17.7,20.93c.11-.36.17-.74.26-1.11s.15-.58.21-.88h0c-.06.34-.17.65-.23,1a6.13,6.13,0,0,1-.23.85.14.14,0,0,1,0,.12h0Z"/><path class="cls-1" d="M17.91,19.48c0,.14-.07.28-.1.42s-.09.44-.12.66l0,.13h0c.08-.31.12-.63.18-1Z"/><path class="cls-1" d="M23,23.83l0,0h0Z"/><path class="cls-1" d="M19,22.31l.13.14c0-.1,0-.2,0-.3s0-.17,0-.25l-.12.38A0,0,0,0,1,19,22.31Z"/><path class="cls-1" d="M21.68,23.72v.12c0,.22,0,.44,0,.66,0,0,0,0,0,.07a5.43,5.43,0,0,0,.08-.67,4.12,4.12,0,0,1,.11-.69c0-.12,0-.27.06-.39l0,0C21.78,23.08,21.73,23.4,21.68,23.72Z"/><path class="cls-1" d="M21.55,24.44v.05a2.44,2.44,0,0,1-.07.38l.08.08a3.4,3.4,0,0,1,0-.48Z"/><path class="cls-1" d="M21.27,24.65q0-.25,0-.5v0a1.74,1.74,0,0,0-.09.39Z"/><path class="cls-1" d="M21,24V24a0,0,0,0,1,0,0,2.83,2.83,0,0,0,0-.33c0,.21-.09.42-.14.63l.1.1A2.72,2.72,0,0,0,21,24Z"/><path class="cls-1" d="M21.83,24.23c0-.06,0-.11,0-.17a4.24,4.24,0,0,0-.08,1.08l.16.17c0-.16,0-.34-.05-.49S21.83,24.43,21.83,24.23Z"/><path class="cls-1" d="M22,22.91l0,0,0,.15s0,0,0,0,0,0,0,.07Z"/><path class="cls-1" d="M21.86,23.34a4.79,4.79,0,0,0-.09.58v0c0-.12,0-.22.07-.33S21.85,23.44,21.86,23.34Z"/><path class="cls-1" d="M21.9,24.39c0,.23,0,.45,0,.68s0,.21,0,.31l.06.06h0a8.74,8.74,0,0,1,0-1.32A5.42,5.42,0,0,1,22.06,23h0l0,0a4.78,4.78,0,0,1-.11.57A7.55,7.55,0,0,0,21.9,24.39Z"/><path class="cls-1" d="M21.33,24.71l.07.07c0-.14.05-.27.07-.41s.08-.44.12-.66v0c0-.23,0-.47.06-.69a3,3,0,0,1,.05-.37l-.1-.1c0,.08,0,.16-.06.24l0-.09s.05,0,0,0a7.86,7.86,0,0,1-.22.83C21.38,23.91,21.38,24.32,21.33,24.71Z"/><path class="cls-1" d="M21.38,22.79l0,.08A4.23,4.23,0,0,1,21.14,24h0c0,.08,0,.16,0,.24s0,.09,0,.14l.11.11a1.71,1.71,0,0,1,0-.3c0-.18,0-.37.07-.55s.09-.44.16-.65.07-.39.11-.58l-.08-.08C21.42,22.51,21.4,22.67,21.38,22.79Z"/><path class="cls-1" d="M22.15,22.11a2.05,2.05,0,0,1-.48.07l0,0,.54-.1Z"/><path class="cls-1" d="M22.38,21.91h-.71a.59.59,0,0,1-.25,0h0l.15.15L22,22l.46-.12Z"/><path class="cls-1" d="M24.2,23.68l.42-.09-.27,0c-.31.06-.63.09-.94.17h0l.13,0Z"/><path class="cls-1" d="M20.71,22.15c0,.15-.07.31-.1.47-.07.32-.15.64-.19,1h0s0,.08,0,.12l.06.06c0-.11.05-.21.08-.32s.09-.38.14-.57.11-.38.16-.57l.05-.28s0-.1,0-.15l-.15-.18C20.74,21.86,20.75,22,20.71,22.15Z"/><path class="cls-1" d="M20.57,23.92l.06.06a2.36,2.36,0,0,1,.09-.41l.16-.63c.05-.2.13-.39.19-.59a1.2,1.2,0,0,1,.08-.27L21,22l0,.2a4.39,4.39,0,0,1-.14.58C20.71,23.14,20.73,23.58,20.57,23.92Z"/><path class="cls-1" d="M22.93,24.5s0-.26,0-.38,0-.06,0-.08a.06.06,0,0,1,0,0,1.65,1.65,0,0,0-.29-.33,2.52,2.52,0,0,1-.29-.3,2.1,2.1,0,0,1-.18-.23,2.09,2.09,0,0,0-.06.52c0,.19,0,.37,0,.56,0,.41,0,.84,0,1.24,0,0,0,0,0,0l.81.84a0,0,0,0,1,0,0,3.43,3.43,0,0,1,0-.56c0-.2,0-.4,0-.59S22.91,24.7,22.93,24.5Zm-.6.29s0,.07,0,.1l0,.1a.05.05,0,0,1-.1,0,.28.28,0,0,1,.1-.25S22.37,24.74,22.33,24.79Zm.19.81c0,.07,0,.15,0,.2s-.09,0-.11,0a.59.59,0,0,1,0-.24,1,1,0,0,0,0-.13.1.1,0,0,1,0-.08s.09,0,.1.05a.94.94,0,0,1,0,.14S22.52,25.56,22.52,25.59Zm0-.74a.54.54,0,0,1-.05.27s-.05,0-.07,0a.7.7,0,0,1,0-.31c0-.09,0-.21.07-.26s.08,0,.08,0S22.54,24.77,22.54,24.86Zm0-.94V24a0,0,0,0,1,0,0v0c0,.07,0,.2,0,.25s0,0-.06,0l0,0,0,0h0s0-.09,0-.13a1.07,1.07,0,0,1,0-.16.56.56,0,0,1,0-.17s0-.06,0-.09.08,0,.07,0,0,0,0,.06A.35.35,0,0,1,22.58,23.92Z"/><path class="cls-1" d="M17.32,20.42c0-.11,0-.21.06-.32s.09-.47.15-.69.14-.6.23-.88l-.14-.15a1.48,1.48,0,0,0-.18.58c-.11.42-.18.86-.25,1.3v.05a0,0,0,0,1,0,0l.17.17S17.32,20.45,17.32,20.42Z"/><path class="cls-1" d="M22,22.4l.38-.11-.25,0h-.29l.12.13A0,0,0,0,1,22,22.4Z"/><path class="cls-1" d="M19.34,20.3c0,.08,0,.16,0,.24a6.55,6.55,0,0,1-.14.68q-.14.47-.25,1l.06.06h0c.09-.36.14-.73.23-1.09a5.91,5.91,0,0,1,.24-.87l-.06-.08,0,0A1.13,1.13,0,0,1,19.34,20.3Z"/><path class="cls-1" d="M20.29,20.21l-.49,0,.06.06a1.75,1.75,0,0,0,.39-.08Z"/><path class="cls-1" d="M19.72,21.49c0,.14,0,.28,0,.42.07-.35.18-.69.23-1l-.15-.17,0,.12,0,0s.1,0,.09.06a3.65,3.65,0,0,1-.13.57S19.72,21.47,19.72,21.49Z"/><path class="cls-1" d="M19.63,21.22v-.08l0,.15,0,.22.05-.16Z"/><path class="cls-1" d="M20.24,21.9a.42.42,0,0,1,0-.17v.05c0,.14,0,.28-.06.43A1.18,1.18,0,0,0,20.24,21.9Z"/><path class="cls-1" d="M19.78,23.09l.22.23c.06-.3.08-.61.13-.91-.05.27-.12.53-.17.81,0,0,0,0,0,0,0-.32.1-.63.14-.95l0-.15-.08.4a1,1,0,0,1-.1.37s0,0,0,0c0-.6.25-1.12.33-1.7L20,20.92c-.05.35-.15.68-.21,1,0,.18-.06.36-.08.55a2.32,2.32,0,0,1,0,.42h0v0h0l.1.11c0-.32.07-.64.11-1a3.26,3.26,0,0,1,.18-.93s0,0,0,0c0,.65-.2,1.25-.27,1.88C19.8,23.09,19.79,23.09,19.78,23.09Z"/><path class="cls-1" d="M20.32,21.35v0l0,0-.11-.12a3.68,3.68,0,0,1,0,.37,2.48,2.48,0,0,1,.08-.25S20.31,21.33,20.32,21.35Z"/><path class="cls-1" d="M20.38,23.23s0,0,0,0c0-.23.07-.46.11-.7s.09-.35.1-.53a2.93,2.93,0,0,1,0-.35l-.07,0s-.1,0-.14-.07l0,0a1.14,1.14,0,0,0-.09.4,1.32,1.32,0,0,1-.09.45c0,.21-.08.42-.13.63s0,.29-.07.42l.26.27A1.19,1.19,0,0,0,20.38,23.23Z"/><path class="cls-1" d="M19.6,21.89v-.06c0,.15-.09.31-.13.47l-.05.42.16.16h0a.61.61,0,0,1,0-.25C19.58,22.37,19.59,22.13,19.6,21.89Z"/><path class="cls-1" d="M19.54,20.92c-.07.23-.13.46-.18.7v0l.14-.49Z"/><path class="cls-1" d="M19.31,22.6a2.07,2.07,0,0,1,.08-.48V22l-.11.54Z"/><path class="cls-1" d="M19.53,20.39l0,.14,0-.11Z"/><path class="cls-1" d="M18.87,20.67l0,.12.07-.12s0,0,.06,0a7.17,7.17,0,0,0,.17-.74l0,0h0A6.14,6.14,0,0,1,18.87,20.67Z"/><path class="cls-1" d="M21.88,20.18s0,0,0,0h-.26l-.59.14-.38.08h.48c.33-.07.66-.13,1-.22,0,0,.05,0,0,.05a.69.69,0,0,1-.32.1l-.49.13c-.36.08-.74.13-1.12.18l.08.09c.1,0,.21,0,.32-.06l.64-.14c.08,0,.8-.22,1-.23a1.35,1.35,0,0,0-.19-.22l-.19,0Z"/><path class="cls-1" d="M23.08,21.3,23,21.2l-.05,0h0s0,0,0,.05l-.25.07Z"/><path class="cls-1" d="M22,20.7l-.57.15L20.9,21l-.32.07.05.06h.13c.33,0,.64-.11,1-.17l.47-.09c.13,0,.28,0,.42,0l-.16-.15-.15,0Z"/><path class="cls-1" d="M21.43,20.65l-.62.14a2.33,2.33,0,0,1-.4.08l.06.06c.35-.14.77-.12,1.13-.24a4.51,4.51,0,0,1,.57-.12l.2,0-.07-.12a1.21,1.21,0,0,1-.26.07C21.82,20.53,21.63,20.6,21.43,20.65Z"/><path class="cls-1" d="M22.57,21.28a.4.4,0,0,1-.16,0,1.17,1.17,0,0,0-.31.06l.42-.05Z"/><path class="cls-1" d="M21.83,21l-.69.09s0,0,0,0a1.22,1.22,0,0,0-.4.07l.25.25c.13,0,.28,0,.41-.06l.62-.11a1.33,1.33,0,0,1,.45-.08,1.15,1.15,0,0,0,.39-.08l0,0s0-.09-.06-.14l0-.07a2.89,2.89,0,0,1-.35,0C22.18,20.93,22,21,21.83,21Z"/><path class="cls-1" d="M21.43,21.59a1,1,0,0,1,.37-.09l.4-.07-.14,0c-.31,0-.62.1-.93.13,0,0,0,0,0,0,.27,0,.53-.1.8-.15-.3,0-.61.06-.9.11l.21.22a0,0,0,0,1,0,0c.62-.06,1.22-.22,1.85-.23,0,0,0,0,0,0a3.27,3.27,0,0,1-.91.16c-.31,0-.62.08-.94.09l.1.1h0a2.29,2.29,0,0,1,.41,0l.54-.07c.34-.05.67-.15,1-.19l-.21-.2c-.57.06-1.09.27-1.68.29C21.43,21.64,21.41,21.61,21.43,21.59Z"/><path class="cls-1" d="M23.8,22l-.11,0,.14,0Z"/><path class="cls-1" d="M23,21.89h-.13l-.16,0,.21,0,.15,0Z"/><path class="cls-1" d="M22.77,21.8h.06a3.72,3.72,0,0,1,.56-.11s.09.06.06.09l0,0,.12,0-.16-.15c-.35,0-.69.15-1,.21Z"/><path class="cls-1" d="M22.58,22.14h0c.24,0,.47-.1.69-.16l-.22,0-.48.13Z"/><path class="cls-1" d="M19.09,19.49h0l.06.06.3,0,.66,0a7.5,7.5,0,0,0,.82,0,4.77,4.77,0,0,1,.56-.09l0,0h0a5.29,5.29,0,0,1-1.07.06A8.36,8.36,0,0,1,19.09,19.49Z"/><path class="cls-1" d="M20.74,20.25c-.17,0-.36,0-.54.06a1.73,1.73,0,0,1-.3,0l.1.11.14,0,.24,0s0,0,0,0a4.24,4.24,0,0,1,1.14-.19l.08,0c.12,0,.28,0,.41-.08L22,20l-.57.1C21.17,20.17,20.95,20.21,20.74,20.25Z"/><path class="cls-1" d="M20.06,18.62l-.62,0h-.57a3.2,3.2,0,0,1-.55,0,0,0,0,0,1,0,0l.77.8s0,0,0,0c.39,0,.8,0,1.2,0h.54a2.05,2.05,0,0,0,.51,0,1.94,1.94,0,0,1-.21-.18,2.29,2.29,0,0,1-.27-.28,1.46,1.46,0,0,0-.3-.29h0s-.06,0-.08,0Zm-.81.48a.1.1,0,0,1-.08,0,1.09,1.09,0,0,0-.13,0,.58.58,0,0,1-.23,0s-.07-.08,0-.1.13,0,.2,0l.1,0h.14S19.28,19.07,19.25,19.1Zm.74,0c-.06.06-.17.06-.26.06a.68.68,0,0,1-.3,0,0,0,0,0,1,0-.07.55.55,0,0,1,.27,0h.27A.05.05,0,0,1,20,19.08ZM20.2,19s.17,0,.24,0h.22s0,0,.06,0,.07.05,0,.07-.06,0-.09,0a.56.56,0,0,1-.17,0c-.08,0-.23.06-.31,0A0,0,0,0,1,20.2,19Z"/><path class="cls-1" d="M18,18.37l.07,0h0a.42.42,0,0,1,.17,0h.27s0,0,0,0l-.22,0H18.2l.09.1h0a1.32,1.32,0,0,0,.29,0h.33l.69,0a2.3,2.3,0,0,1,.6,0h.18a.17.17,0,0,0-.12-.14l0,0h-.6s0,0,0,0c.19,0,.38-.07.58-.08,0-.05,0-.11,0-.12a1.15,1.15,0,0,0-.32,0c-.26,0-.54,0-.81,0a9.79,9.79,0,0,1-1.2,0l.16.17Zm1,0c.14,0,.26,0,.4,0s0,0,0,0a1.25,1.25,0,0,1-.4,0S19,18.36,19,18.37Z"/><path class="cls-1" d="M20.56,19.83a5.15,5.15,0,0,0-.66.06H20l.65,0h.11c.31,0,.63-.09.93-.14l0,0c-.12,0-.27,0-.39.06A4.12,4.12,0,0,1,20.56,19.83Z"/><path class="cls-1" d="M20.77,19.94h0c-.22,0-.43.08-.65.11l-.4.06.07.07c.38,0,.78,0,1.16-.08a7.93,7.93,0,0,1,.82-.2s0,0,0,0l-.09,0,.24-.06-.09-.09a3,3,0,0,1-.37,0C21.22,19.92,21,19.93,20.77,19.94Z"/><path class="cls-1" d="M21.41,19.61s0,0,0,0l.15,0,0,0-.19,0Z"/><path class="cls-1" d="M20.82,19.71l-.33.06h0a4.59,4.59,0,0,0,.57-.08Z"/><path class="cls-1" d="M23.19,23.77l0,0h0a.13.13,0,0,1,.12,0,6,6,0,0,1,.84-.21c.33-.06.65-.16,1-.21,0,0,0,0,0,0a1,1,0,0,1-.24.11l.4-.07-.14-.11c-.31.05-.62.13-.92.2S23.54,23.67,23.19,23.77Z"/><path class="cls-1" d="M24.63,23.86l.45-.07c.16,0,.31-.1.48-.13v0l0,0a2.67,2.67,0,0,1-.55.14Z"/><path class="cls-1" d="M24,24.09l-.32.06h-.11l.16.17a0,0,0,0,1,0,0h.05c.43-.06.86-.13,1.28-.22.19,0,.46,0,.6-.18s0-.05,0-.09a.11.11,0,0,1-.09-.06c-.3.1-.62.15-.93.23S24.2,24,24,24.09Z"/><path class="cls-1" d="M23.11,23.9l.3.35h.07l-.34-.35Z"/><path class="cls-1" d="M20.8,20.51h-.32a0,0,0,0,1,0,0h-.07c-.09,0-.2,0-.28,0l.09.1Z"/><path class="cls-1" d="M23.15,23.73a4.55,4.55,0,0,1,1-.24,8.82,8.82,0,0,1,1-.21l0,0L25,23.18a2.9,2.9,0,0,1-.3-.35c-.67.17-1.38.23-2,.41Zm1.16-.62a.39.39,0,0,1,.15,0,.43.43,0,0,1,.15,0s0,0,0,.05l-.07,0-.07,0a.26.26,0,0,1-.15,0S24.3,23.12,24.31,23.11Zm-.58.11c.05,0,.08.08,0,.09s-.13.05-.19,0a0,0,0,0,1,0,0C23.59,23.22,23.68,23.23,23.73,23.22Zm-.51.16c.05,0,.06.08,0,.08s-.11,0-.15,0a0,0,0,0,1,0,0S23.18,23.38,23.23,23.38Z"/><path class="cls-1" d="M20,20h0a3.31,3.31,0,0,1-.47,0l.08.08A2.52,2.52,0,0,1,20,20Z"/><path class="cls-1" d="M20.25,19.7l-.58,0c-.15,0-.32-.05-.47-.06l.15.16a4.18,4.18,0,0,0,1.06-.06Z"/><path class="cls-1" d="M23.33,24.38c0,.2-.07.39-.1.59,0,0,0,0,0,0s0-.3,0-.45,0-.11,0-.16l0,0a.18.18,0,0,0-.14-.13,1.35,1.35,0,0,0,0,.18A2.33,2.33,0,0,1,23,25c0,.23,0,.47,0,.71s0,.23,0,.34a1.39,1.39,0,0,0,0,.29h0a.52.52,0,0,1,.1.1,1.06,1.06,0,0,1,0-.12c0-.07,0-.15,0-.23s0,0,0,0a.83.83,0,0,0,0,.17.67.67,0,0,0,0,.11.42.42,0,0,1,0,.17h0l0,.07v0l.17.18a10,10,0,0,1,0-1.23c0-.27,0-.56,0-.83a1.16,1.16,0,0,0,0-.33S23.38,24.39,23.33,24.38Zm-.15,1.22s0,0,0,0a1.27,1.27,0,0,1,0-.41s0,0,0,0S23.16,25.46,23.18,25.6Z"/><path class="cls-1" d="M22.47,23l.13.14A10.4,10.4,0,0,1,23.7,23l.58-.11a2.53,2.53,0,0,1,.42-.08v0l-.11-.13c-.33.07-.64.16-1,.21Z"/><path class="cls-1" d="M22.63,22.91l.22,0,.1,0Z"/><path class="cls-1" d="M23.52,22.6l-.12.07.12,0a6.13,6.13,0,0,1,.76-.2s.06.06,0,.07l-.72.23.89-.21-.16-.14a6.73,6.73,0,0,0-.8.16S23.54,22.59,23.52,22.6Z"/><path class="cls-1" d="M22,22.52h0l.06.06.94-.23a6.49,6.49,0,0,1,.67-.13l.24,0h.16l-.12-.1a5.87,5.87,0,0,1-.86.22C22.73,22.39,22.36,22.44,22,22.52Z"/><path class="cls-1" d="M23.18,22.43c-.32.07-.61.17-.93.24h0l.27-.05.6-.1c.21,0,.42-.09.64-.12s.3-.06.46-.07l-.1-.08c-.11,0-.26,0-.37.05S23.38,22.38,23.18,22.43Z"/><path class="cls-1" d="M20.51,19.11a.56.56,0,0,0,.17,0s.06,0,.09,0,0-.08,0-.07,0,0-.06,0h-.22c-.07,0-.19,0-.24,0a0,0,0,0,0,0,.06C20.28,19.18,20.43,19.13,20.51,19.11Z"/><path class="cls-1" d="M19.95,19h-.27a.55.55,0,0,0-.27,0,0,0,0,0,0,0,.07.68.68,0,0,0,.3,0c.09,0,.2,0,.26-.06A.05.05,0,0,0,19.95,19Z"/><path class="cls-1" d="M19.2,19h-.14L19,19c-.07,0-.15,0-.2,0s0,.09,0,.1a.58.58,0,0,0,.23,0,1.09,1.09,0,0,1,.13,0,.1.1,0,0,0,.08,0S19.25,19,19.2,19Z"/><path class="cls-1" d="M24.48,23.18l.07,0,.07,0s0,0,0-.05a.43.43,0,0,0-.15,0,.39.39,0,0,0-.15,0s0,0,0,0A.26.26,0,0,0,24.48,23.18Z"/><path class="cls-1" d="M23.76,23.31s0-.1,0-.09-.15,0-.17.05a0,0,0,0,0,0,0C23.63,23.36,23.71,23.32,23.76,23.31Z"/><path class="cls-1" d="M23.09,23.43s.1,0,.15,0,0-.07,0-.08-.12,0-.14,0A0,0,0,0,0,23.09,23.43Z"/><path class="cls-1" d="M19.4,18.37s0,0,0,0-.26,0-.4,0,0,0,0,0A1.25,1.25,0,0,0,19.4,18.37Z"/><path class="cls-1" d="M22.5,23.74s0,.06,0,.09a.56.56,0,0,0,0,.17,1.07,1.07,0,0,0,0,.16s0,.1,0,.13h0l0,0,0,0s0,0,.06,0,0-.17,0-.25v0a0,0,0,0,0,0,0v-.12a.35.35,0,0,0,0-.07s0,0,0-.06S22.52,23.72,22.5,23.74Z"/><path class="cls-1" d="M22.46,24.54c-.07.05-.06.17-.07.26a.7.7,0,0,0,0,.31s.05,0,.07,0a.54.54,0,0,0,.05-.27c0-.09,0-.18,0-.28S22.48,24.52,22.46,24.54Z"/><path class="cls-1" d="M22.43,25.29a.1.1,0,0,0,0,.08,1,1,0,0,1,0,.13.59.59,0,0,0,0,.24s.08.07.11,0,0-.13,0-.2,0-.07,0-.11a.94.94,0,0,0,0-.14S22.46,25.26,22.43,25.29Z"/><path class="cls-1" d="M18.27,20.41c0-.06-.08-.09-.09,0s-.05.13,0,.2h0C18.27,20.56,18.27,20.46,18.27,20.41Z"/><path class="cls-1" d="M18,20.9s0,.11,0,.15a0,0,0,0,0,0,0s0-.1,0-.15S18,20.85,18,20.9Z"/><path class="cls-1" d="M23.2,25.19s0,0,0,0a1.27,1.27,0,0,0,0,.41s0,0,0,0S23.22,25.33,23.2,25.19Z"/><path class="cls-1" d="M18.27,20a.17.17,0,0,0,0-.1.35.35,0,0,1,0-.08h0s0,0,0,0a.37.37,0,0,0,0-.15.44.44,0,0,0,0-.15h0a.34.34,0,0,0,0-.08c0-.05-.08-.07-.12,0a.48.48,0,0,0-.09.24s0,.08,0,.13a1,1,0,0,0,0,.16A.06.06,0,0,0,18.27,20Z"/><path class="cls-1" d="M20.23,21.79c0,.14,0,.28-.06.43a1.18,1.18,0,0,0,.07-.31.42.42,0,0,1,0-.17Z"/><path class="cls-1" d="M20.48,20.52a0,0,0,0,1,0,0h-.07c-.09,0-.2,0-.28,0l.09.1.62-.12Z"/><path class="cls-1" d="M20.32,21.35v0l0,0-.11-.12a3.68,3.68,0,0,1,0,.37,2.48,2.48,0,0,1,.08-.25S20.31,21.33,20.32,21.35Z"/><path class="cls-1" d="M22.57,21.28a.4.4,0,0,1-.16,0,1.17,1.17,0,0,0-.31.06l.42-.05Z"/><path class="cls-1" d="M20.74,20.25c-.17,0-.36,0-.54.06a1.73,1.73,0,0,1-.3,0l.1.11.14,0,.24,0s0,0,0,0a4.24,4.24,0,0,1,1.14-.19l.08,0c.12,0,.28,0,.41-.08L22,20l-.57.1C21.17,20.17,20.95,20.21,20.74,20.25Z"/><path class="cls-1" d="M21.83,21l-.69.09s0,0,0,0a1.22,1.22,0,0,0-.4.07l.25.25c.13,0,.28,0,.41-.06l.62-.11a1.33,1.33,0,0,1,.45-.08,1.15,1.15,0,0,0,.39-.08l0,0s0-.09-.06-.14l0-.07a2.89,2.89,0,0,1-.35,0C22.18,20.93,22,21,21.83,21Z"/><path class="cls-1" d="M23.08,21.3,23,21.2l-.05,0h0s0,0,0,.05l-.25.07Z"/><path class="cls-1" d="M21.41,19.61s0,0,0,0l.15,0,0,0-.19,0Z"/><path class="cls-1" d="M21.43,20.65l-.62.14a2.33,2.33,0,0,1-.4.08l.06.06c.35-.14.77-.12,1.13-.24a4.51,4.51,0,0,1,.57-.12l.2,0-.07-.12a1.21,1.21,0,0,1-.26.07C21.82,20.53,21.63,20.6,21.43,20.65Z"/><path class="cls-1" d="M21.88,20.18s0,0,0,0h-.26l-.59.14-.38.08h.48c.33-.07.66-.13,1-.22,0,0,.05,0,0,.05a.69.69,0,0,1-.32.1l-.49.13c-.36.08-.74.13-1.12.18l.08.09c.1,0,.21,0,.32-.06l.64-.14c.08,0,.8-.22,1-.23a1.35,1.35,0,0,0-.19-.22l-.19,0Z"/><path class="cls-1" d="M20.41,19.71h-.16l-.58,0c-.15,0-.32-.05-.47-.06l.15.16A4.18,4.18,0,0,0,20.41,19.71Z"/><path class="cls-1" d="M20,20h0a3.31,3.31,0,0,1-.47,0l.08.08A2.52,2.52,0,0,1,20,20Z"/><path class="cls-1" d="M20.56,19.83a5.15,5.15,0,0,0-.66.06H20l.65,0h.11c.31,0,.63-.09.93-.14l0,0c-.12,0-.27,0-.39.06A4.12,4.12,0,0,1,20.56,19.83Z"/><path class="cls-1" d="M20.82,19.71l-.33.06h0a4.59,4.59,0,0,0,.57-.08Z"/><path class="cls-1" d="M19.72,21.49c0,.14,0,.28,0,.42.07-.35.18-.69.23-1l-.15-.17,0,.12,0,0s.1,0,.09.06a3.65,3.65,0,0,1-.13.57S19.72,21.47,19.72,21.49Z"/><path class="cls-1" d="M20.29,20.21l-.49,0,.06.06a1.75,1.75,0,0,0,.39-.08Z"/><path class="cls-1" d="M20.77,19.94h0c-.22,0-.43.08-.65.11l-.4.06.07.07c.38,0,.78,0,1.16-.08a7.93,7.93,0,0,1,.82-.2s0,0,0,0l-.09,0,.24-.06-.09-.09a3,3,0,0,1-.37,0C21.22,19.92,21,19.93,20.77,19.94Z"/><path class="cls-1" d="M19.53,20.39l0,.14,0-.11Z"/><path class="cls-1" d="M19.36,21.66v0l.14-.49,0-.23c-.07.23-.13.46-.18.7Z"/><path class="cls-1" d="M22,20.7l-.57.15L20.9,21l-.32.07.05.06h.13c.33,0,.64-.11,1-.17l.47-.09c.13,0,.28,0,.42,0l-.16-.15-.15,0Z"/><path class="cls-1" d="M22.63,22.91l.22,0,.1,0Z"/><path class="cls-1" d="M23.18,22.43c-.32.07-.61.17-.93.24h0l.27-.05.6-.1c.21,0,.42-.09.64-.12s.3-.06.46-.07l-.1-.08c-.11,0-.26,0-.37.05S23.38,22.38,23.18,22.43Z"/><path class="cls-1" d="M23.52,22.6l-.12.07.12,0a6.13,6.13,0,0,1,.76-.2s.06.06,0,.07l-.72.23.89-.21-.16-.14a6.73,6.73,0,0,0-.8.16S23.54,22.59,23.52,22.6Z"/><path class="cls-1" d="M23.09,23.87h0l0,0Z"/><path class="cls-1" d="M22.47,23l.13.14A10.4,10.4,0,0,1,23.7,23l.58-.11a2.53,2.53,0,0,1,.42-.08v0l-.11-.13c-.33.07-.64.16-1,.21Z"/><path class="cls-1" d="M24.63,23.86l.45-.07c.16,0,.31-.1.48-.13v0l0,0a2.67,2.67,0,0,1-.55.14Z"/><path class="cls-1" d="M23.19,23.77l0,0h0a.13.13,0,0,1,.12,0,6,6,0,0,1,.84-.21c.33-.06.65-.16,1-.21,0,0,0,0,0,0a1,1,0,0,1-.24.11l.4-.07-.14-.11c-.31.05-.62.13-.92.2S23.54,23.67,23.19,23.77Z"/><path class="cls-1" d="M23.15,23.73a4.55,4.55,0,0,1,1-.24,8.82,8.82,0,0,1,1-.21l0,0L25,23.18a2.9,2.9,0,0,1-.3-.35c-.67.17-1.38.23-2,.41Z"/><path class="cls-1" d="M22.58,22.14h0c.24,0,.47-.1.69-.16l-.22,0-.48.13Z"/><path class="cls-1" d="M22,22.52h0l.06.06.94-.23a6.49,6.49,0,0,1,.67-.13l.24,0h.16l-.12-.1a5.87,5.87,0,0,1-.86.22C22.73,22.39,22.36,22.44,22,22.52Z"/><path class="cls-1" d="M23,21.89h-.13l-.16,0,.21,0,.15,0Z"/><path class="cls-1" d="M22.77,21.8h.06a3.72,3.72,0,0,1,.56-.11s.09.06.06.09l0,0,.12,0-.16-.15c-.35,0-.69.15-1,.21Z"/><path class="cls-1" d="M21.43,21.59a1,1,0,0,1,.37-.09l.4-.07-.14,0c-.31,0-.62.1-.93.13,0,0,0,0,0,0,.27,0,.53-.1.8-.15-.3,0-.61.06-.9.11l.21.22a0,0,0,0,1,0,0c.62-.06,1.22-.22,1.85-.23,0,0,0,0,0,0a3.27,3.27,0,0,1-.91.16c-.31,0-.62.08-.94.09l.1.1h0a2.29,2.29,0,0,1,.41,0l.54-.07c.34-.05.67-.15,1-.19l-.21-.2c-.57.06-1.09.27-1.68.29C21.43,21.64,21.41,21.61,21.43,21.59Z"/><path class="cls-1" d="M23.8,22l-.11,0,.14,0Z"/><path class="cls-1" d="M22.1,22.32h-.29l.12.13a0,0,0,0,1,0-.05l.38-.11Z"/><path class="cls-1" d="M22.38,21.91h-.71a.59.59,0,0,1-.25,0h0l.15.15L22,22l.46-.12Z"/><path class="cls-1" d="M22,22.91l0,0,0,.15s0,0,0,0,0,0,0,.07Z"/><path class="cls-1" d="M22.23,22.1h-.08a2.05,2.05,0,0,1-.48.07l0,0Z"/><path class="cls-1" d="M22,24.1A5.42,5.42,0,0,1,22.06,23h0l0,0a4.78,4.78,0,0,1-.11.57,7.55,7.55,0,0,0,0,.84c0,.23,0,.45,0,.68s0,.21,0,.31l.06.06h0A8.74,8.74,0,0,1,22,24.1Z"/><path class="cls-1" d="M21.43,23c0-.2.07-.39.11-.58l-.08-.08c0,.14-.06.29-.08.42l0,.08A4.23,4.23,0,0,1,21.14,24h0c0,.08,0,.16,0,.24s0,.09,0,.14l.11.11a1.71,1.71,0,0,1,0-.3c0-.18,0-.37.07-.55S21.36,23.24,21.43,23Z"/><path class="cls-1" d="M21.21,24.59l.06.06q0-.25,0-.5v0A1.74,1.74,0,0,0,21.21,24.59Z"/><path class="cls-1" d="M21,23.94a2.83,2.83,0,0,0,0-.33c0,.21-.09.42-.14.63l.1.1A2.72,2.72,0,0,0,21,24V24A0,0,0,0,1,21,23.94Z"/><path class="cls-1" d="M21.55,24.47v0a2.44,2.44,0,0,1-.07.38l.08.08A3.4,3.4,0,0,1,21.55,24.47Z"/><path class="cls-1" d="M20.83,22.33l.05-.28s0-.1,0-.15l-.15-.18c0,.13,0,.29-.05.42s-.07.31-.1.47c-.07.32-.15.64-.19,1h0s0,.08,0,.12l.06.06c0-.11.05-.21.08-.32s.09-.38.14-.57S20.78,22.53,20.83,22.33Z"/><path class="cls-1" d="M20.51,22.51c0-.18.09-.35.1-.53a2.93,2.93,0,0,1,0-.35l-.07,0s-.1,0-.14-.07l0,0a1.14,1.14,0,0,0-.09.4,1.32,1.32,0,0,1-.09.45c0,.21-.08.42-.13.63s0,.29-.07.42l.26.27a1.19,1.19,0,0,0,.08-.41s0,0,0,0C20.44,23,20.48,22.75,20.51,22.51Z"/><path class="cls-1" d="M21.7,22.61l-.1-.1c0,.08,0,.16-.06.24l0-.09s.05,0,0,0a7.86,7.86,0,0,1-.22.83c0,.39,0,.8-.1,1.19l.07.07c0-.14.05-.27.07-.41s.08-.44.12-.66v0c0-.23,0-.47.06-.69A3,3,0,0,1,21.7,22.61Z"/><path class="cls-1" d="M21.06,22.35a1.2,1.2,0,0,1,.08-.27L21,22l0,.2a4.39,4.39,0,0,1-.14.58c-.13.36-.11.8-.26,1.14l.06.06a2.36,2.36,0,0,1,.09-.41l.16-.63C20.93,22.74,21,22.55,21.06,22.35Z"/><path class="cls-1" d="M21.16,22.54c0-.1,0-.25.11-.32s.06,0,.05,0c-.1.33-.17.66-.24,1,0,.11,0,.22,0,.33s0,.11,0,.16c0-.13.05-.26.09-.39s.09-.4.15-.6,0-.18,0-.27,0,0,0,0h0c0-.07,0-.13.05-.2a1.53,1.53,0,0,0-.22-.21c0,.19-.23.91-.25,1s-.11.43-.15.64a3.19,3.19,0,0,1-.07.32l.09.09c.05-.38.11-.77.2-1.14C21.06,22.87,21.12,22.71,21.16,22.54Z"/><path class="cls-1" d="M23.33,24.38c0,.2-.07.39-.1.59,0,0,0,0,0,0s0-.3,0-.45,0-.11,0-.16l0,0a.18.18,0,0,0-.14-.13,1.35,1.35,0,0,0,0,.18A2.33,2.33,0,0,1,23,25c0,.23,0,.47,0,.71s0,.23,0,.34a1.39,1.39,0,0,0,0,.29h0a.52.52,0,0,1,.1.1,1.06,1.06,0,0,1,0-.12c0-.07,0-.15,0-.23s0,0,0,0a.83.83,0,0,0,0,.17.67.67,0,0,0,0,.11.42.42,0,0,1,0,.17h0l0,.07v0l.17.18a10,10,0,0,1,0-1.23c0-.27,0-.56,0-.83a1.16,1.16,0,0,0,0-.33S23.38,24.39,23.33,24.38Z"/><path class="cls-1" d="M25.58,23.73c-.3.1-.62.15-.93.23s-.45.09-.68.14l-.32.06h-.11l.16.17a0,0,0,0,1,0,0h.05c.43-.06.86-.13,1.28-.22.19,0,.46,0,.6-.18s0-.05,0-.09A.11.11,0,0,1,25.58,23.73Z"/><path class="cls-1" d="M24.62,23.59l-.27,0c-.31.06-.63.09-.94.17h0l.13,0,.65-.11Z"/><path class="cls-1" d="M23.11,23.9l.3.35h.07l-.34-.35Z"/><path class="cls-1" d="M19.09,19.49h0l.06.06.3,0,.66,0a7.5,7.5,0,0,0,.82,0,4.77,4.77,0,0,1,.56-.09l0,0h0a5.29,5.29,0,0,1-1.07.06A8.36,8.36,0,0,1,19.09,19.49Z"/><path class="cls-1" d="M21.83,24.23c0-.06,0-.11,0-.17a4.24,4.24,0,0,0-.08,1.08l.16.17c0-.16,0-.34-.05-.49S21.83,24.43,21.83,24.23Z"/><path class="cls-1" d="M21.88,22.81l0,0c-.07.31-.12.63-.16.95v.12c0,.22,0,.44,0,.66,0,0,0,0,0,.07a5.43,5.43,0,0,0,.08-.67,4.12,4.12,0,0,1,.11-.69C21.84,23.09,21.84,22.93,21.88,22.81Z"/><path class="cls-1" d="M20,23.22s0,0,0,0c0-.32.1-.63.14-.95l0-.15-.08.4a1,1,0,0,1-.1.37s0,0,0,0c0-.6.25-1.12.33-1.7L20,20.92c-.05.35-.15.68-.21,1,0,.18-.06.36-.08.55a2.32,2.32,0,0,1,0,.42h0v0h0l.1.11c0-.32.07-.64.11-1a3.26,3.26,0,0,1,.18-.93s0,0,0,0c0,.65-.2,1.25-.27,1.88,0,0,0,0,0,0l.22.23c.06-.3.08-.61.13-.91C20.08,22.68,20,22.94,20,23.22Z"/><path class="cls-1" d="M22.89,25.72c0-.2,0-.4,0-.59s0-.43,0-.63c0,0,0-.26,0-.38s0-.06,0-.08a.06.06,0,0,1,0,0,1.65,1.65,0,0,0-.29-.33,2.52,2.52,0,0,1-.29-.3,2.1,2.1,0,0,1-.18-.23,2.09,2.09,0,0,0-.06.52c0,.19,0,.37,0,.56,0,.41,0,.84,0,1.24,0,0,0,0,0,0l.81.84a0,0,0,0,1,0,0A3.43,3.43,0,0,1,22.89,25.72Z"/><path class="cls-1" d="M21.76,24c0-.12,0-.22.07-.33s0-.19,0-.29a4.79,4.79,0,0,0-.09.58Z"/><path class="cls-1" d="M17.91,19.48c0,.14-.07.28-.1.42s-.09.44-.12.66l0,.13h0c.08-.31.12-.63.18-1Z"/><path class="cls-1" d="M17.86,18.63l0,0c0,.13-.09.25-.11.39s-.05.31-.08.46c0-.12.07-.24.11-.35A3.17,3.17,0,0,1,17.86,18.63Z"/><path class="cls-1" d="M17.62,18.39a1.48,1.48,0,0,0-.18.58c-.11.42-.18.86-.25,1.3v.05a0,0,0,0,1,0,0l.17.17s0-.09,0-.11,0-.21.06-.32.09-.47.15-.69.14-.6.23-.88Z"/><path class="cls-1" d="M19.59,21.29l0,.22.05-.16v-.21Z"/><path class="cls-1" d="M18.83,20.79l.07-.12s0,0,.06,0a7.17,7.17,0,0,0,.17-.74l0,0h0a6.14,6.14,0,0,1-.22.77Z"/><path class="cls-1" d="M18,19.15a1,1,0,0,1,.12-.24h0l-.07-.07C18,18.93,18,19,18,19.15Z"/><path class="cls-1" d="M18.23,19c0,.31-.15.61-.22.91A4.52,4.52,0,0,1,17.74,21l.49.51c.19-.65.26-1.36.44-2Z"/><path class="cls-1" d="M20.06,18.62l-.62,0h-.57a3.2,3.2,0,0,1-.55,0,0,0,0,0,1,0,0l.77.8s0,0,0,0c.39,0,.8,0,1.2,0h.54a2.05,2.05,0,0,0,.51,0,1.94,1.94,0,0,1-.21-.18,2.29,2.29,0,0,1-.27-.28,1.46,1.46,0,0,0-.3-.29h0s-.06,0-.08,0Z"/><path class="cls-1" d="M18,18.37l.07,0h0a.42.42,0,0,1,.17,0h.27s0,0,0,0l-.22,0H18.2l.09.1h0a1.32,1.32,0,0,0,.29,0h.33l.69,0a2.3,2.3,0,0,1,.6,0h.18a.17.17,0,0,0-.12-.14l0,0h-.6s0,0,0,0c.19,0,.38-.07.58-.08,0-.05,0-.11,0-.12a1.15,1.15,0,0,0-.32,0c-.26,0-.54,0-.81,0a9.79,9.79,0,0,1-1.2,0l.16.17Z"/><path class="cls-1" d="M18.17,18.95h0c-.06.34-.17.65-.23,1a6.13,6.13,0,0,1-.23.85.14.14,0,0,1,0,.12h0l0,0c.11-.36.17-.74.26-1.11S18.11,19.24,18.17,18.95Z"/><path class="cls-1" d="M19,22.31l.13.14c0-.1,0-.2,0-.3s0-.17,0-.25l-.12.38A0,0,0,0,1,19,22.31Z"/><path class="cls-1" d="M19.37,20.18l0,0a1.13,1.13,0,0,1,0,.16c0,.08,0,.16,0,.24a6.55,6.55,0,0,1-.14.68q-.14.47-.25,1l.06.06h0c.09-.36.14-.73.23-1.09a5.91,5.91,0,0,1,.24-.87Z"/><path class="cls-1" d="M19.31,22.6a2.07,2.07,0,0,1,.08-.48V22l-.11.54Z"/><path class="cls-1" d="M19.42,22.71l.16.16h0a.61.61,0,0,1,0-.25c0-.24,0-.48,0-.73v-.06c0,.15-.09.31-.13.47Z"/><path class="cls-1" d="M19.22,20.42c0-.1,0-.23.05-.34L19.19,20c0,.14-.06.27-.07.41s-.09.43-.13.65-.08.4-.11.6a2.35,2.35,0,0,1-.06.27h0v0c.08-.32.19-.61.27-.93S19.16,20.61,19.22,20.42Z"/><path class="cls-1" d="M18.58,21.57c0-.1.07-.22.1-.33l0,.1Z"/><path class="cls-1" d="M18.87,19.67l-.14-.15a3.58,3.58,0,0,1-.08.35c0,.19-.09.39-.12.59a10.61,10.61,0,0,1-.21,1.11l.14.14.2-1.14C18.71,20.26,18.8,20,18.87,19.67Z"/><path class="cls-1" d="M19.05,19.85,19,19.78c-.07.27-.14.54-.2.82.08-.24.17-.48.24-.73A0,0,0,0,1,19.05,19.85Z"/><path class="cls-1" d="M25.76,23.59l-.1-.08a.08.08,0,0,0-.07-.08h0c-.17-.17-.45-.29-.57-.5a2.08,2.08,0,0,0-.38-.52c-.13-.13-.26-.26-.41-.37-.34-.27-.66-.57-1-.84A1.26,1.26,0,0,0,23,21h0a1.15,1.15,0,0,0-.12-.19v0c0-.1-.1-.15-.17-.23a4.88,4.88,0,0,1-.3-.43,2.76,2.76,0,0,0-.67-.62,6,6,0,0,1-.82-.76,1.35,1.35,0,0,0-.31-.3.71.71,0,0,1-.29-.33c0-.09,0-.14-.18-.16a8,8,0,0,0-.87,0c-.5,0-1,.08-1.48.12l-.06-.06-.09.07L15,15.35,8.87,9l-.25-.26L5.46,5.45,3.88,3.81l-1-1,.34-.32h0l0,0A.73.73,0,0,1,3,2.17a.09.09,0,0,0,0-.11.1.1,0,0,0-.09,0,.11.11,0,0,0-.1.1h0a2.27,2.27,0,0,0-.27.27,1.94,1.94,0,0,1,0-.51.79.79,0,0,1,.14-.53.43.43,0,0,0,.13-.23.08.08,0,0,0,0-.1,2.06,2.06,0,0,0-.52,0A4.35,4.35,0,0,1,1.76.88,4.2,4.2,0,0,1,1.17.57,3,3,0,0,0,.67.28,3.75,3.75,0,0,1,.15.05l0,0s0,0,0,0h0v0S0,.1,0,.12A2.83,2.83,0,0,1,.43.78a3.26,3.26,0,0,1,.3.75c0,.25.13.5.16.76s0,.37,0,.52a.09.09,0,0,0,.1,0,.44.44,0,0,0,.24-.12.79.79,0,0,1,.53-.12h.34l.17,0-.08.07h0a.1.1,0,0,0-.07,0A.36.36,0,0,0,2,3,.08.08,0,0,0,2,3H2l0,0a1.37,1.37,0,0,1,.19.2.09.09,0,0,0,.06.13l.48-.46c.56.61,1.16,1.2,1.74,1.8L6.77,7.11,8.59,9l2.74,2.85,6,6.25a1.08,1.08,0,0,1,.18.15.76.76,0,0,0-.12.35c-.12.53-.23,1.07-.32,1.62a.09.09,0,0,0,0,0l0,0v0a.26.26,0,0,1,0,.09l0,0,.54.57h0a.09.09,0,0,0,.06.06l.33.34,1.21,1.26v.05c0,.06.09.11.11.05l.55.57.46.47L21.4,25v0s0,0,0,0h0l1.62,1.69.31.32.09-.11-.06-.06c0-.5.14-1,.14-1.51,0-.29.07-.58,0-.88l.14.13-.14-.16a.31.31,0,0,0,0-.08l.1.11,0,0,0,0,.1,0,0,0h0c.54-.08,1.07-.18,1.6-.29.13,0,.37-.05.4-.21a.24.24,0,0,0,0-.12A.2.2,0,0,0,25.76,23.59Zm-.21.05v0c-.16,0-.31.1-.48.13l-.45.07.35-.1a2.67,2.67,0,0,0,.55-.14Zm-.21-.19-.4.07a1,1,0,0,0,.24-.11s0-.05,0,0c-.33.05-.65.15-1,.21a6,6,0,0,0-.84.21.13.13,0,0,0-.12,0h0l0,0c.36-.1.73-.15,1.1-.24s.61-.14.92-.2ZM25,23.18l.08.07,0,0a8.82,8.82,0,0,0-1,.21,4.55,4.55,0,0,0-1,.24l-.46-.49c.66-.18,1.38-.24,2-.41A2.9,2.9,0,0,0,25,23.18Zm-1.95.7,0,0,0,0Zm1.6-1.11v0a2.53,2.53,0,0,0-.42.08L23.7,23a10.4,10.4,0,0,0-1.09.18L22.47,23l1.13-.17c.34-.05.65-.14,1-.21Zm-2.06.14.32-.09-.1,0Zm1.85-.39-.89.21.72-.23s0-.08,0-.07a6.13,6.13,0,0,0-.76.2l-.12,0,.12-.07s0,0,0-.06a6.73,6.73,0,0,1,.8-.16Zm-.23-.19c-.16,0-.3.06-.46.07s-.43.08-.64.12l-.6.1-.27.05h0c.31-.07.61-.18.93-.24s.41-.07.6-.13.25,0,.37-.05Zm-.18-.14h-.16l-.24,0a6.49,6.49,0,0,0-.67.13l-.94.23L22,22.52h0c.35-.08.72-.13,1.07-.21a5.87,5.87,0,0,0,.86-.22ZM21.91,23l0-.15,0,0,0,.2s0,0,0-.07S21.92,23,21.91,23ZM22,22.4a0,0,0,0,0,0,.05l-.12-.13h.29l.25,0Zm.18-.3h.08l-.54.1,0,0A2.05,2.05,0,0,0,22.15,22.11Zm-.58,0-.15-.15h0a.59.59,0,0,0,.25,0h.77L22,22ZM23.1,22l.22,0c-.23.06-.45.12-.69.16h0Zm-.35-.06.16,0h.21l-.15,0Zm1.05,0,0,0-.14,0Zm-.25-.22-.12,0,0,0s0-.1-.06-.09a3.72,3.72,0,0,0-.56.11h-.48c.35-.07.68-.17,1-.21Zm-.2-.19c-.34,0-.68.14-1,.19l-.54.07a2.29,2.29,0,0,0-.41,0h0l-.1-.1c.31,0,.63-.06.94-.09a3.27,3.27,0,0,0,.91-.16s0,0,0,0c-.63,0-1.23.18-1.85.23a0,0,0,0,0,0,0L21,21.49c.29,0,.6-.07.9-.11-.27,0-.53.11-.8.15,0,0,0,0,0,0,.32,0,.62-.09.93-.13l.14,0-.4.07a1,1,0,0,0-.37.09s0,0,0,0c.59,0,1.11-.23,1.68-.29Zm-1.25-.21a1.17,1.17,0,0,1,.31-.06.4.4,0,0,0,.16,0h-.05Zm.86-.08s0,0,0-.05h0l.05,0,.11.1-.37,0Zm-.26-.38,0,.07s0,.1.06.14l0,0a1.15,1.15,0,0,1-.39.08,1.33,1.33,0,0,0-.45.08l-.62.11c-.13,0-.28,0-.41.06l-.25-.25a1.22,1.22,0,0,1,.4-.07s0,0,0,0l.69-.09c.18,0,.35-.08.53-.09A2.89,2.89,0,0,0,22.7,20.89Zm-.25-.26.16.15c-.13,0-.29,0-.42,0l-.47.09c-.32.06-.63.13-1,.17h-.13l-.05-.06L20.9,21l.56-.13L22,20.7l.28,0Zm-.16-.22.07.12-.2,0a4.51,4.51,0,0,0-.57.12c-.36.12-.79.1-1.13.24l-.06-.06a2.33,2.33,0,0,0,.4-.08l.62-.14c.2,0,.39-.12.59-.17A1.21,1.21,0,0,0,22.29,20.4Zm0-.06c-.18,0-.9.21-1,.23l-.64.14c-.1,0-.22,0-.32.06l-.08-.09c.38,0,.76-.1,1.12-.18l.49-.13a.69.69,0,0,0,.32-.1s0-.06,0-.05c-.32.09-.65.16-1,.22h-.48l.38-.08.59-.14h.26s0,0,0,0h0l.19,0A1.35,1.35,0,0,1,22.25,20.35Zm-2,1.55a1.18,1.18,0,0,1-.07.31c0-.14,0-.29.06-.43v-.05A.42.42,0,0,0,20.24,21.9Zm-.05-.32a3.68,3.68,0,0,0,0-.37l.11.12,0,0v0s0,0-.05,0A2.48,2.48,0,0,0,20.19,21.58Zm0-.95-.09-.1c.09,0,.2,0,.28,0h.07a0,0,0,0,0,0,0h.32ZM22,20.09c-.13,0-.29.05-.41.08l-.08,0a4.24,4.24,0,0,0-1.14.19s0,0,0,0l-.24,0-.14,0-.1-.11a1.73,1.73,0,0,0,.3,0c.18,0,.37,0,.54-.06s.43-.08.64-.15L22,20Zm-2.27.71,0,0,0-.12.15.17c-.05.36-.16.7-.23,1,0-.14,0-.28,0-.42s0,0,0-.06a3.65,3.65,0,0,0,.13-.57S19.79,20.76,19.76,20.79Zm0-.56.49,0h0a1.75,1.75,0,0,1-.39.08Zm2-.39.09.09-.24.06.09,0s0-.05,0,0a7.93,7.93,0,0,0-.82.2c-.39,0-.78,0-1.16.08l-.07-.07.4-.06c.22,0,.43-.07.65-.11h0c.23,0,.46,0,.68,0A3,3,0,0,0,21.81,19.85Zm-2.3.69,0-.14,0,0Zm0,.39,0,.23-.14.49v0C19.42,21.38,19.48,21.15,19.54,20.92Zm0-1A3.31,3.31,0,0,0,20,20h0a2.52,2.52,0,0,0-.37.06Zm-.18-.18-.15-.16c.15,0,.33,0,.47.06l.58,0h.16A4.18,4.18,0,0,1,19.35,19.77Zm2.32-.06c-.31.06-.62.1-.93.14h-.11l-.65,0H19.9a5.15,5.15,0,0,1,.66-.06,4.12,4.12,0,0,0,.68-.1c.12,0,.27,0,.39-.06Zm-1.17.06.33-.06.28,0a4.59,4.59,0,0,1-.57.08Zm1.08-.15-.15,0s0,0,0,0h-.07l.19,0Zm-.13-.12,0,0a4.77,4.77,0,0,0-.56.09,7.5,7.5,0,0,1-.82,0l-.66,0-.3,0-.06-.06h0a8.36,8.36,0,0,0,1.29.07,5.29,5.29,0,0,0,1.07-.06Zm-2.35.4,0,0a7.17,7.17,0,0,1-.17.74s0,0-.06,0l-.07.12,0-.12a6.14,6.14,0,0,0,.22-.77Zm1.42-1.25h0a1.46,1.46,0,0,1,.3.29,2.29,2.29,0,0,0,.27.28,1.94,1.94,0,0,0,.21.18,2.05,2.05,0,0,1-.51,0h-.54c-.4,0-.81-.06-1.2,0,0,0,0,0,0,0l-.77-.8a0,0,0,0,0,0,0,3.2,3.2,0,0,0,.55,0h.57l.62,0,.37,0S20.49,18.67,20.51,18.65ZM19,18.16c.26,0,.55,0,.81,0a1.15,1.15,0,0,1,.32,0s0,.06,0,.12c-.2,0-.38.07-.58.08,0,0,0,0,0,0h.6l0,0a.17.17,0,0,1,.12.14h-.18a2.3,2.3,0,0,0-.6,0l-.69,0h-.33a1.32,1.32,0,0,1-.29,0h0l-.09-.1h.12l.22,0s0,0,0,0h-.27a.42.42,0,0,0-.17,0h0l-.07,0h0l-.16-.17A9.79,9.79,0,0,0,19,18.16Zm-.91.73h0a1,1,0,0,0-.12.24c0-.1,0-.21.06-.32Zm-.59.51c-.06.22-.1.46-.15.69s0,.21-.06.32,0,.07,0,.11l-.17-.17a0,0,0,0,0,0,0v0h0c.07-.45.14-.89.25-1.31a1.48,1.48,0,0,1,.18-.58l.14.15C17.67,18.82,17.62,19.12,17.54,19.41Zm.18-.43c0-.13.08-.26.11-.39l0,0a3.17,3.17,0,0,0-.12.46c0,.11-.07.23-.11.35C17.66,19.29,17.69,19.13,17.72,19Zm0,1.71,0-.13c0-.22.08-.44.12-.66s.06-.28.1-.42l-.05.27c-.06.32-.1.64-.18,1Zm0,.21h0a.14.14,0,0,0,0-.12,6.13,6.13,0,0,0,.23-.85c.06-.34.17-.65.23-1h0c-.06.3-.13.59-.21.88s-.15.75-.26,1.11Zm.06.06A4.52,4.52,0,0,0,18,19.92c.07-.3.17-.6.22-.91l.45.46c-.18.66-.25,1.36-.44,2Zm.58.6a10.61,10.61,0,0,0,.21-1.11c0-.2.07-.4.12-.59a3.58,3.58,0,0,0,.08-.35l.14.15c-.07.3-.16.59-.21.9l-.2,1.14Zm.26,0,.05-.22,0-.1C18.64,21.35,18.62,21.46,18.58,21.57Zm.4-1.79.07.07a0,0,0,0,0,0,0c-.07.25-.16.49-.24.73C18.84,20.32,18.91,20.05,19,19.78Zm-.17,2.16h0a2.35,2.35,0,0,0,.06-.27c0-.2.07-.41.11-.6s.1-.42.13-.65.05-.27.07-.41l.08.09c0,.11,0,.24-.05.34s-.09.4-.14.6-.19.62-.27.93Zm.36.21c0,.1,0,.2,0,.3L19,22.31a0,0,0,0,0,.05,0l.12-.38C19.19,22,19.18,22.06,19.17,22.14Zm0-1c-.09.36-.15.73-.23,1.09h0l-.06-.06q.12-.48.25-1a6.55,6.55,0,0,0,.14-.68c0-.08,0-.16,0-.24a1.13,1.13,0,0,0,0-.16l0,0,.06.08A5.91,5.91,0,0,0,19.2,21.14Zm.2,1a2.07,2.07,0,0,0-.08.48l0,0L19.4,22Zm.2-.23c0,.24,0,.48,0,.73a.61.61,0,0,0,0,.25h0l-.16-.16.05-.42c0-.16.08-.31.13-.47Zm0-.54-.05.16,0-.22,0-.15v.21Zm.16,1.75s0,0,0,0c.07-.63.24-1.23.27-1.88,0,0,0,0,0,0a3.26,3.26,0,0,0-.18.93c0,.31-.09.63-.11,1l-.1-.11h0v0h0a2.32,2.32,0,0,0,0-.42c0-.19,0-.37.08-.55.06-.35.16-.68.21-1l.21.23c-.07.58-.3,1.1-.33,1.7,0,0,0,0,0,0a1,1,0,0,0,.1-.37l.08-.4,0,.15c0,.32-.11.62-.14.95,0,0,0,0,0,0,0-.28.11-.54.17-.81,0,.3-.07.62-.13.91Zm.6.14a1.19,1.19,0,0,1-.08.41L20,23.37c0-.13,0-.28.07-.42s.08-.42.13-.63a1.32,1.32,0,0,0,.09-.45,1.14,1.14,0,0,1,.09-.4l0,0c0,.05.09,0,.14.07l.07,0a2.93,2.93,0,0,0,0,.35c0,.18-.08.35-.1.53s-.08.46-.11.7C20.39,23.21,20.38,23.21,20.38,23.23Zm.07.56-.06-.06s0-.08,0-.12h0c0-.33.12-.65.19-1,0-.16.06-.32.1-.47s0-.29.05-.42l.15.18s0,.1,0,.15l-.05.28c-.05.2-.11.39-.16.57s-.1.37-.14.57S20.47,23.68,20.45,23.79Zm.19.19-.06-.06c.15-.34.13-.79.26-1.14A4.39,4.39,0,0,0,21,22.2l0-.2.12.08a1.2,1.2,0,0,0-.08.27c-.06.2-.13.39-.19.59l-.16.63A2.36,2.36,0,0,0,20.63,24Zm.1.1a3.19,3.19,0,0,0,.07-.32c0-.22.11-.43.15-.64s.23-.81.25-1a1.53,1.53,0,0,1,.22.21c0,.06,0,.13-.05.2h0s0,0,0,0,0,.18,0,.27-.1.4-.15.6-.06.26-.09.39c0-.05,0-.11,0-.16s0-.22,0-.33c.07-.34.15-.67.24-1,0,0,0-.05-.05,0s-.08.21-.11.32-.1.33-.14.5c-.09.37-.15.75-.2,1.14ZM21,24a2.72,2.72,0,0,1,0,.29l-.1-.1c0-.21.09-.42.14-.63a2.83,2.83,0,0,1,0,.33,0,0,0,0,0,0,0Zm.15.48L21,24.41s0-.1,0-.14,0-.16,0-.24h0a4.23,4.23,0,0,0,.22-1.15l0-.08c0-.13,0-.28.08-.42l.08.08c0,.19-.08.39-.11.58s-.12.44-.16.65,0,.37-.07.55A1.71,1.71,0,0,0,21.15,24.53Zm.12.12-.06-.06a1.74,1.74,0,0,1,.09-.39v0Q21.29,24.4,21.27,24.65Zm.21.22a2.44,2.44,0,0,0,.07-.38v0a3.4,3.4,0,0,0,0,.48Zm.1-1.15c0,.22-.09.43-.12.66s-.05.27-.07.41l-.07-.07c0-.39.06-.8.1-1.19a7.86,7.86,0,0,0,.22-.83s0,0,0,0l0,.09c0-.08,0-.16.06-.24l.1.1a3,3,0,0,0-.05.37c0,.22,0,.46-.06.69Zm0,.85s0-.05,0-.07c0-.22,0-.44,0-.66v-.12c0-.32.1-.64.16-.95l0,0c0,.12,0,.27-.06.39a4.12,4.12,0,0,0-.11.69A5.43,5.43,0,0,1,21.63,24.57Zm.23-1.22c0,.1,0,.19,0,.29s-.05.22-.07.33v0A4.79,4.79,0,0,1,21.86,23.34Zm-.11,1.8a4.24,4.24,0,0,1,.08-1.08c0,.06,0,.11,0,.17s0,.4,0,.59,0,.33.05.49Zm.22.23c0-.1,0-.21,0-.31s0-.45,0-.68a7.55,7.55,0,0,1,0-.84A4.78,4.78,0,0,0,22,23l0,0h0A5.42,5.42,0,0,0,22,24.1a8.74,8.74,0,0,0,0,1.32h0Zm.88.92L22,25.45s0,0,0,0c0-.4,0-.83,0-1.24,0-.19,0-.37,0-.56a2.09,2.09,0,0,1,.06-.52,2.1,2.1,0,0,0,.18.23,2.52,2.52,0,0,0,.29.3,1.65,1.65,0,0,1,.29.33.06.06,0,0,0,0,0s0,.06,0,.08,0,.35,0,.38c0,.21,0,.42,0,.63s0,.39,0,.59a3.43,3.43,0,0,0,0,.56A0,0,0,0,0,22.85,26.29Zm.58-1.54c0,.26,0,.56,0,.83a10,10,0,0,0,0,1.23l-.17-.18v0l0-.07h0a.42.42,0,0,0,0-.17.67.67,0,0,1,0-.11.83.83,0,0,1,0-.17s0,0,0,0,0,.15,0,.23a1.06,1.06,0,0,0,0,.12.52.52,0,0,0-.1-.1h0A1.39,1.39,0,0,1,23,26c0-.11,0-.23,0-.34s0-.47,0-.71a2.33,2.33,0,0,0,0-.62,1.35,1.35,0,0,1,0-.18.18.18,0,0,1,.14.13l0,0c0,.05,0,.11,0,.16s0,.3,0,.45,0,0,0,0c0-.2.08-.39.1-.59.05,0,.12,0,.12,0A1.16,1.16,0,0,1,23.43,24.75Zm0-.49h0l-.3-.35,0,0,.34.35Zm0-.45h0c.31-.08.63-.11.94-.17l.27,0-.42.09-.65.11Zm2.26.06c-.14.13-.41.14-.6.18-.42.1-.85.16-1.28.22h-.05a0,0,0,0,0,0,0l-.16-.17h.11l.32-.06c.22,0,.46-.08.68-.14s.63-.13.93-.23a.11.11,0,0,0,.09.06S25.7,23.85,25.68,23.87Z"/><path class="cls-1" d="M22.25,24.73a.28.28,0,0,0-.1.25.05.05,0,0,0,.1,0l0-.1s0-.07,0-.1S22.3,24.69,22.25,24.73Z"/><path class="cls-1" d="M6.76,21c0-.2-.08-.41-.14-.6s0-.23-.05-.34L6.65,20c0,.14.06.27.07.41s.09.43.13.65.08.4.11.6a2.35,2.35,0,0,0,.06.27H7v0C6.95,21.65,6.83,21.35,6.76,21Z"/><path class="cls-1" d="M8.21,19.44c0-.12-.07-.24-.11-.35A3.12,3.12,0,0,0,8,18.63l0,0c0,.13.09.25.11.39S8.18,19.29,8.21,19.44Z"/><path class="cls-1" d="M7.73,18.91h0l.07-.07c0,.11,0,.22.06.32A1,1,0,0,0,7.73,18.91Z"/><path class="cls-1" d="M6.79,19.85l.07-.07c.07.27.14.54.2.82-.08-.24-.17-.48-.24-.73A0,0,0,0,0,6.79,19.85Z"/><path class="cls-1" d="M4.68,22.54c0-.1,0-.25-.11-.32s-.06,0-.06,0c.1.33.17.66.24,1,0,.11,0,.22,0,.33s0,.11,0,.16c0-.13-.05-.26-.09-.39s-.09-.4-.15-.6,0-.18,0-.27,0,0,0,0h0c0-.07,0-.13-.05-.2a1.53,1.53,0,0,1,.22-.21c0,.19.23.91.25,1s.11.43.15.64a3.19,3.19,0,0,0,.07.32L5,24.18c-.05-.38-.11-.77-.2-1.14C4.78,22.87,4.72,22.71,4.68,22.54Z"/><path class="cls-1" d="M7.11,19.52c0,.12.05.24.08.35s.09.39.12.59a10.67,10.67,0,0,0,.21,1.11l-.14.14-.2-1.14c-.05-.31-.14-.6-.21-.9Z"/><path class="cls-1" d="M7.6,21.48,8.1,21a4.52,4.52,0,0,1-.27-1.05c-.07-.3-.17-.6-.22-.91l-.45.46C7.34,20.12,7.42,20.83,7.6,21.48Zm.07-1.54a.06.06,0,0,1-.1,0,.17.17,0,0,1,0-.1.34.34,0,0,0,0-.08h0s0,0,0,0a.37.37,0,0,1,0-.15.44.44,0,0,1,0-.15h0a.32.32,0,0,1,0-.08.07.07,0,0,1,.12,0,.48.48,0,0,1,.09.24s0,.08,0,.13A1,1,0,0,1,7.67,19.94Zm.07,1c0-.05.08-.07.08,0s0,.11,0,.15a0,0,0,0,1,0,0S7.73,21,7.74,20.92Zm-.12-.34c-.05,0,0-.12-.06-.17s.08-.09.09,0,.05.13,0,.2Z"/><path class="cls-1" d="M7.26,21.57c0-.1-.07-.22-.1-.33l0,.1Z"/><path class="cls-1" d="M8.14,20.93c-.11-.36-.17-.74-.26-1.11s-.15-.58-.21-.88h0c.06.34.17.65.23,1a6.07,6.07,0,0,0,.23.85.14.14,0,0,0,0,.12h0Z"/><path class="cls-1" d="M7.93,19.48c0,.14.07.28.1.42s.09.44.12.66l0,.13h0c-.08-.31-.12-.63-.18-1Z"/><path class="cls-1" d="M2.79,23.83l0,0h0Z"/><path class="cls-1" d="M6.81,22.31l-.13.14c0-.1,0-.2,0-.3s0-.17,0-.25l.12.38A0,0,0,0,0,6.81,22.31Z"/><path class="cls-1" d="M4.16,23.72v.12c0,.22,0,.44,0,.66,0,0,0,0,0,.07a5.52,5.52,0,0,1-.08-.67A4.09,4.09,0,0,0,4,23.21c0-.12,0-.27-.06-.39l0,0C4.06,23.08,4.11,23.4,4.16,23.72Z"/><path class="cls-1" d="M4.28,24.44v.05a2.47,2.47,0,0,0,.07.38L4.28,25a3.44,3.44,0,0,0,0-.48Z"/><path class="cls-1" d="M4.57,24.65l0-.5v0a1.72,1.72,0,0,1,.09.39Z"/><path class="cls-1" d="M4.83,24V24a0,0,0,0,0,0,0,2.88,2.88,0,0,1,0-.33c0,.21.09.42.14.63l-.1.1A2.66,2.66,0,0,1,4.83,24Z"/><path class="cls-1" d="M4,24.23c0-.06,0-.11,0-.17a4.23,4.23,0,0,1,.08,1.08l-.16.17c0-.16,0-.34.05-.49S4,24.43,4,24.23Z"/><path class="cls-1" d="M3.86,22.91l0,0,0,.15s0,0,0,0,0,0,0,.07Z"/><path class="cls-1" d="M4,23.34a4.7,4.7,0,0,1,.09.58v0c0-.12,0-.22-.07-.33S4,23.44,4,23.34Z"/><path class="cls-1" d="M3.93,24.39c0,.23,0,.45,0,.68s0,.21,0,.31l-.06.06h0a8.72,8.72,0,0,0,0-1.32A5.42,5.42,0,0,0,3.78,23h0l0,0a4.78,4.78,0,0,0,.11.57A7.6,7.6,0,0,1,3.93,24.39Z"/><path class="cls-1" d="M4.51,24.71l-.07.07c0-.14-.05-.27-.07-.41s-.08-.44-.12-.66v0c0-.23,0-.47-.06-.69a3,3,0,0,0-.05-.37l.1-.1c0,.08,0,.16.06.24l0-.09s-.05,0,0,0a7.91,7.91,0,0,0,.22.83C4.46,23.91,4.46,24.32,4.51,24.71Z"/><path class="cls-1" d="M4.46,22.79l0,.08A4.23,4.23,0,0,0,4.7,24h0c0,.08,0,.16,0,.24s0,.09,0,.14l-.11.11a1.73,1.73,0,0,0,0-.3c0-.18,0-.37-.07-.55s-.09-.44-.16-.65-.07-.39-.11-.58l.08-.08C4.42,22.51,4.44,22.67,4.46,22.79Z"/><path class="cls-1" d="M3.69,22.11a2.05,2.05,0,0,0,.48.07l0,0-.54-.1Z"/><path class="cls-1" d="M3.46,21.91h.71a.59.59,0,0,0,.25,0h0l-.15.15-.41,0-.46-.12Z"/><path class="cls-1" d="M1.64,23.68l-.42-.09.27,0c.31.06.63.09.94.17h0l-.13,0Z"/><path class="cls-1" d="M5.13,22.15c0,.15.07.31.1.47.07.32.15.64.19,1h0s0,.08,0,.12l-.06.06c0-.11-.05-.21-.08-.32s-.09-.38-.14-.57-.11-.38-.16-.57L5,22.05s0-.1,0-.15l.15-.18C5.1,21.86,5.09,22,5.13,22.15Z"/><path class="cls-1" d="M5.26,23.92,5.2,24a2.38,2.38,0,0,0-.09-.41L5,22.95c-.05-.2-.13-.39-.19-.59a1.2,1.2,0,0,0-.08-.27L4.82,22l0,.2a4.35,4.35,0,0,0,.14.58C5.13,23.14,5.11,23.58,5.26,23.92Z"/><path class="cls-1" d="M2.95,25.13c0,.19,0,.39,0,.59a3.38,3.38,0,0,1,0,.56,0,0,0,0,1,0,0l.81-.84s0,0,0,0c0-.4,0-.83,0-1.24,0-.19,0-.37,0-.56a2.09,2.09,0,0,0-.06-.52,2.1,2.1,0,0,1-.18.23,2.56,2.56,0,0,1-.29.3,1.64,1.64,0,0,0-.29.33.06.06,0,0,1,0,0s0,.06,0,.08,0,.35,0,.38C2.93,24.7,2.94,24.92,2.95,25.13Zm.64-.4a.28.28,0,0,1,.1.25.05.05,0,0,1-.1,0l0-.1s0-.07,0-.1S3.54,24.69,3.59,24.73Zm-.29.76a.91.91,0,0,1,0-.14s.07-.08.1-.05a.1.1,0,0,1,0,.08,1,1,0,0,0,0,.13.6.6,0,0,1,0,.24s-.08.07-.11,0,0-.13,0-.2S3.3,25.53,3.3,25.49Zm0-.91s.06-.06.08,0,.06.17.07.26a.71.71,0,0,1,0,.31s-.05,0-.07,0a.54.54,0,0,1-.05-.27C3.3,24.77,3.3,24.67,3.3,24.58Zm0-.73s0,0,0-.06,0-.07.07,0,0,.06,0,.09a.55.55,0,0,1,0,.17,1.1,1.1,0,0,1,0,.16s0,.1,0,.13h0l0,0,0,0s0,0-.06,0,0-.17,0-.25v0a0,0,0,0,1,0,0v-.12A.33.33,0,0,1,3.25,23.85Z"/><path class="cls-1" d="M8.52,20.42c0-.11,0-.21-.06-.32s-.09-.47-.15-.69-.14-.6-.23-.88l.14-.15A1.47,1.47,0,0,1,8.4,19c.11.42.18.86.25,1.3v.05a0,0,0,0,0,0,0l-.17.17S8.52,20.45,8.52,20.42Z"/><path class="cls-1" d="M3.87,22.4l-.38-.11.25,0H4l-.12.13A0,0,0,0,0,3.87,22.4Z"/><path class="cls-1" d="M6.5,20.3c0,.08,0,.16,0,.24a6.55,6.55,0,0,0,.14.68q.14.47.25,1l-.06.06a.07.07,0,0,0,0,0c-.09-.36-.14-.73-.23-1.09a5.88,5.88,0,0,0-.24-.87l.06-.08,0,0A1.2,1.2,0,0,0,6.5,20.3Z"/><path class="cls-1" d="M5.55,20.21l.49,0L6,20.29a1.74,1.74,0,0,1-.39-.08Z"/><path class="cls-1" d="M6.12,21.49c0,.14,0,.28,0,.42-.07-.35-.18-.69-.23-1l.15-.17,0,.12,0,0s-.1,0-.09.06a3.68,3.68,0,0,0,.13.57Z"/><path class="cls-1" d="M6.21,21.22v-.08l0,.15,0,.22-.05-.16Z"/><path class="cls-1" d="M5.6,21.9a.41.41,0,0,0,0-.17v.05c0,.14,0,.28.06.43A1.19,1.19,0,0,1,5.6,21.9Z"/><path class="cls-1" d="M6.06,23.09l-.22.23c-.06-.3-.08-.61-.13-.91.05.27.12.53.17.81,0,0,0,0,0,0,0-.32-.1-.63-.14-.95l0-.15.08.4a1,1,0,0,0,.1.37s0,0,0,0c0-.6-.25-1.12-.33-1.7l.21-.23c.05.35.15.68.21,1,0,.18.06.36.08.55a2.29,2.29,0,0,0,0,.42h0v0h0L6.1,23c0-.32-.07-.64-.11-1a3.27,3.27,0,0,0-.18-.93s0,0,0,0c0,.65.2,1.25.27,1.88C6,23.09,6,23.09,6.06,23.09Z"/><path class="cls-1" d="M5.52,21.35v0l0,0,.11-.12a3.74,3.74,0,0,0,0,.37,2.47,2.47,0,0,0-.08-.25S5.53,21.33,5.52,21.35Z"/><path class="cls-1" d="M5.46,23.23s0,0,0,0c0-.23-.07-.46-.11-.7s-.09-.35-.1-.53a2.93,2.93,0,0,0,0-.35l.07,0s.1,0,.14-.07l0,0a1.15,1.15,0,0,1,.09.4,1.3,1.3,0,0,0,.09.45c0,.21.08.42.13.63s0,.29.07.42l-.26.27A1.19,1.19,0,0,1,5.46,23.23Z"/><path class="cls-1" d="M6.24,21.89v-.06c0,.15.09.31.13.47l.05.42-.16.16h0a.61.61,0,0,0,0-.25C6.26,22.37,6.25,22.13,6.24,21.89Z"/><path class="cls-1" d="M6.29,20.92c.07.23.13.46.18.7v0l-.14-.49Z"/><path class="cls-1" d="M6.53,22.6a2.06,2.06,0,0,0-.08-.48V22l.11.54Z"/><path class="cls-1" d="M6.31,20.39l0,.14,0-.11Z"/><path class="cls-1" d="M7,20.67l0,.12-.07-.12s0,0-.06,0a7.22,7.22,0,0,1-.17-.74l0,0h0A6.14,6.14,0,0,0,7,20.67Z"/><path class="cls-1" d="M4,20.18s0,0,0,0h.26l.59.14.38.08H4.7c-.33-.07-.66-.13-1-.22,0,0-.05,0,0,.05a.69.69,0,0,0,.32.1l.49.13c.36.08.74.13,1.12.18l-.08.09c-.1,0-.21,0-.32-.06l-.64-.14c-.08,0-.8-.22-1-.23a1.36,1.36,0,0,1,.19-.22l.19,0Z"/><path class="cls-1" d="M2.75,21.3l.11-.1,0,0h0s0,0,0,.05l.25.07Z"/><path class="cls-1" d="M3.81,20.7l.57.15.56.13.32.07-.06.06H5.07c-.33,0-.64-.11-1-.17l-.47-.09c-.13,0-.28,0-.42,0l.16-.15.15,0Z"/><path class="cls-1" d="M4.41,20.65l.62.14a2.32,2.32,0,0,0,.4.08l-.06.06c-.35-.14-.77-.12-1.13-.24a4.49,4.49,0,0,0-.57-.12l-.2,0,.07-.12a1.21,1.21,0,0,0,.26.07C4,20.53,4.21,20.6,4.41,20.65Z"/><path class="cls-1" d="M3.27,21.28a.4.4,0,0,0,.16,0,1.17,1.17,0,0,1,.31.06l-.42-.05Z"/><path class="cls-1" d="M4,21l.69.09s0,0,0,0a1.21,1.21,0,0,1,.4.07l-.25.25c-.13,0-.28,0-.41-.06l-.62-.11a1.33,1.33,0,0,0-.45-.08A1.15,1.15,0,0,1,3,21.12l0,0s0-.09.06-.14l0-.07a2.89,2.89,0,0,0,.35,0C3.66,20.93,3.83,21,4,21Z"/><path class="cls-1" d="M4.41,21.59A1,1,0,0,0,4,21.5l-.4-.07.14,0c.31,0,.62.1.93.13,0,0,0,0,0,0-.27,0-.53-.1-.8-.15.3,0,.61.06.9.11l-.21.22a0,0,0,0,0,0,0c-.62-.06-1.22-.22-1.85-.23,0,0,0,0,0,0a3.27,3.27,0,0,0,.91.16c.31,0,.62.08.94.09l-.1.1h0a2.29,2.29,0,0,0-.41,0l-.54-.07c-.34-.05-.67-.15-1-.19l.21-.2c.57.06,1.09.27,1.68.29C4.41,21.64,4.43,21.61,4.41,21.59Z"/><path class="cls-1" d="M2,22l.11,0L2,22Z"/><path class="cls-1" d="M2.8,21.89h.13l.16,0-.21,0-.15,0Z"/><path class="cls-1" d="M3.06,21.8H3a3.72,3.72,0,0,0-.56-.11s-.09.06-.06.09l0,0-.12,0,.16-.15c.35,0,.69.15,1,.21Z"/><path class="cls-1" d="M3.26,22.14h0c-.24,0-.47-.1-.69-.16l.22,0,.48.13Z"/><path class="cls-1" d="M6.75,19.49h0l-.06.06-.3,0-.66,0a7.5,7.5,0,0,1-.82,0,4.79,4.79,0,0,0-.56-.09l0,0h0a5.29,5.29,0,0,0,1.07.06A8.36,8.36,0,0,0,6.75,19.49Z"/><path class="cls-1" d="M5.1,20.25c.17,0,.36,0,.54.06a1.72,1.72,0,0,0,.3,0l-.1.11-.14,0-.24,0s0,0,0,0a4.24,4.24,0,0,0-1.14-.19l-.08,0c-.12,0-.28,0-.41-.08L3.88,20l.57.1C4.67,20.17,4.89,20.21,5.1,20.25Z"/><path class="cls-1" d="M5.41,18.64s-.06,0-.08,0h0a1.47,1.47,0,0,0-.3.29,2.29,2.29,0,0,1-.27.28,1.94,1.94,0,0,1-.21.18,2.05,2.05,0,0,0,.51,0h.54c.4,0,.81-.06,1.2,0,0,0,0,0,0,0l.76-.8a0,0,0,0,1,0,0,3.21,3.21,0,0,1-.55,0H6.4l-.62,0ZM6.64,19h.14l.1,0c.07,0,.15,0,.19,0s0,.09,0,.1a.58.58,0,0,1-.23,0,1.08,1.08,0,0,0-.13,0,.1.1,0,0,1-.08,0S6.59,19,6.64,19Zm-.74,0h.27a.55.55,0,0,1,.27,0,0,0,0,0,1,0,.07.68.68,0,0,1-.3,0c-.09,0-.2,0-.26-.06A.05.05,0,0,1,5.89,19Zm-.25.08c-.08.1-.23,0-.31,0a.56.56,0,0,1-.16,0s-.06,0-.09,0,0-.08,0-.07,0,0,.06,0H5.4c.07,0,.19,0,.24,0A0,0,0,0,1,5.64,19.08Z"/><path class="cls-1" d="M7.84,18.36,8,18.19a9.79,9.79,0,0,1-1.2,0c-.26,0-.55,0-.81,0a1.15,1.15,0,0,0-.32,0s0,.06,0,.12c.2,0,.38.07.58.08,0,0,0,0,0,0h-.6l0,0a.17.17,0,0,0-.12.14h.18a2.3,2.3,0,0,1,.6,0l.69,0h.33a1.32,1.32,0,0,0,.29,0h0a.48.48,0,0,1,.09-.1H7.52l-.22,0s0,0,0,0h.27a.42.42,0,0,1,.17,0h0l.07,0Zm-1,0a1.25,1.25,0,0,1-.4,0s0,0,0,0,.26,0,.4,0S6.86,18.4,6.84,18.4Z"/><path class="cls-1" d="M5.28,19.83a5.15,5.15,0,0,1,.66.06H5.87l-.65,0H5.1c-.31,0-.63-.09-.93-.14l0,0c.12,0,.27,0,.39.06A4.12,4.12,0,0,0,5.28,19.83Z"/><path class="cls-1" d="M5.07,19.94h0c.22,0,.43.08.65.11l.4.06-.07.07c-.38,0-.78,0-1.16-.08a7.91,7.91,0,0,0-.82-.2s0,0,0,0l.09,0-.24-.06L4,19.85a3,3,0,0,0,.37,0C4.62,19.92,4.85,19.93,5.07,19.94Z"/><path class="cls-1" d="M4.43,19.61s0,0,0,0l-.15,0,0,0,.19,0Z"/><path class="cls-1" d="M5,19.71l.33.06h0a4.61,4.61,0,0,1-.57-.08Z"/><path class="cls-1" d="M2.65,23.77l0,0h0a.13.13,0,0,0-.12,0,6,6,0,0,0-.84-.21c-.33-.06-.65-.16-1-.21,0,0,0,0,0,0a1,1,0,0,0,.24.11l-.4-.07.14-.11c.31.05.62.13.92.2S2.3,23.67,2.65,23.77Z"/><path class="cls-1" d="M1.21,23.86l-.45-.07c-.16,0-.31-.1-.48-.13v0l0,0a2.68,2.68,0,0,0,.55.14Z"/><path class="cls-1" d="M1.86,24.09l.32.06h.11l-.16.17a0,0,0,0,0,0,0H2c-.43-.06-.87-.13-1.28-.22-.19,0-.46,0-.6-.18s0-.05,0-.09a.11.11,0,0,0,.09-.06c.3.1.62.15.93.23S1.64,24,1.86,24.09Z"/><path class="cls-1" d="M2.73,23.9l-.3.35H2.36l.34-.35Z"/><path class="cls-1" d="M5,20.51h.32a0,0,0,0,0,0,0h.07c.09,0,.2,0,.28,0l-.09.1Z"/><path class="cls-1" d="M3.15,23.24c-.66-.18-1.38-.24-2-.41a2.9,2.9,0,0,1-.3.35l-.08.07,0,0a8.83,8.83,0,0,1,1,.21,4.55,4.55,0,0,1,1,.24Zm-1.64-.08a.26.26,0,0,1-.15,0l-.07,0-.07,0s0,0,0-.05a.43.43,0,0,1,.15,0,.39.39,0,0,1,.15,0S1.54,23.15,1.51,23.16Zm.76.11a0,0,0,0,1,0,0c-.06.05-.14,0-.19,0s0-.1,0-.09S2.25,23.22,2.27,23.27Zm.48.12a0,0,0,0,1,0,0s-.1,0-.15,0,0-.07,0-.08S2.73,23.36,2.76,23.39Z"/><path class="cls-1" d="M5.81,20h0a3.31,3.31,0,0,0,.47,0L6.24,20A2.51,2.51,0,0,0,5.87,20Z"/><path class="cls-1" d="M5.59,19.7l.58,0c.15,0,.32-.05.47-.06l-.15.16a4.18,4.18,0,0,1-1.06-.06Z"/><path class="cls-1" d="M2.4,24.42a1.17,1.17,0,0,0,0,.33c0,.26,0,.56,0,.83a10,10,0,0,1,0,1.23l.17-.18v0l0-.07h0a.43.43,0,0,1,0-.18.62.62,0,0,0,0-.11.82.82,0,0,0,0-.17s0,0,0,0,0,.15,0,.23a1.06,1.06,0,0,1,0,.12.53.53,0,0,1,.1-.1h0a1.39,1.39,0,0,0,0-.29c0-.11,0-.23,0-.34s0-.47,0-.71a2.33,2.33,0,0,1,0-.62,1.39,1.39,0,0,0,0-.18.19.19,0,0,0-.14.13l0,0c0,.05,0,.11,0,.16s0,.3,0,.45,0,0,0,0c0-.2-.08-.39-.1-.59C2.46,24.39,2.4,24.4,2.4,24.42Zm.25.77s0,0,0,0a1.26,1.26,0,0,1,0,.41s0,0,0,0S2.62,25.33,2.64,25.19Z"/><path class="cls-1" d="M3.36,23l-.13.14A10.39,10.39,0,0,0,2.14,23l-.58-.11a2.53,2.53,0,0,0-.42-.08v0l.11-.13c.33.07.64.16,1,.21Z"/><path class="cls-1" d="M3.21,22.91l-.22,0-.1,0Z"/><path class="cls-1" d="M2.32,22.6l.12.07-.12,0a6.14,6.14,0,0,0-.76-.2s-.06.06,0,.07l.72.23-.89-.21.16-.14a6.73,6.73,0,0,1,.8.16S2.3,22.59,2.32,22.6Z"/><path class="cls-1" d="M3.83,22.52h0l-.06.06-.94-.23a6.48,6.48,0,0,0-.67-.13l-.24,0H1.77l.12-.1a5.87,5.87,0,0,0,.86.22C3.11,22.39,3.48,22.44,3.83,22.52Z"/><path class="cls-1" d="M2.66,22.43c.32.07.61.17.93.24h0l-.27-.05-.6-.1c-.21,0-.42-.09-.64-.12s-.3-.06-.46-.07l.1-.08c.11,0,.26,0,.37.05S2.46,22.38,2.66,22.43Z"/><path class="cls-1" d="M5.33,19.11a.56.56,0,0,1-.16,0s-.06,0-.09,0,0-.08,0-.07,0,0,.06,0H5.4c.07,0,.19,0,.24,0a0,0,0,0,1,0,.06C5.56,19.18,5.41,19.13,5.33,19.11Z"/><path class="cls-1" d="M5.89,19h.27a.55.55,0,0,1,.27,0,0,0,0,0,1,0,.07.68.68,0,0,1-.3,0c-.09,0-.2,0-.26-.06A.05.05,0,0,1,5.89,19Z"/><path class="cls-1" d="M6.64,19h.14l.1,0c.07,0,.15,0,.19,0s0,.09,0,.1a.58.58,0,0,1-.23,0,1.08,1.08,0,0,0-.13,0,.1.1,0,0,1-.08,0S6.59,19,6.64,19Z"/><path class="cls-1" d="M1.36,23.18l-.07,0-.07,0s0,0,0-.05a.43.43,0,0,1,.15,0,.39.39,0,0,1,.15,0s0,0,0,0A.26.26,0,0,1,1.36,23.18Z"/><path class="cls-1" d="M2.07,23.31s0-.1,0-.09.15,0,.17.05a0,0,0,0,1,0,0C2.21,23.36,2.13,23.32,2.07,23.31Z"/><path class="cls-1" d="M2.75,23.43s-.1,0-.15,0,0-.07,0-.08.12,0,.14,0A0,0,0,0,1,2.75,23.43Z"/><path class="cls-1" d="M6.44,18.37s0,0,0,0,.26,0,.4,0,0,0,0,0A1.25,1.25,0,0,1,6.44,18.37Z"/><path class="cls-1" d="M3.34,23.74s0,.06,0,.09a.55.55,0,0,1,0,.17,1.1,1.1,0,0,1,0,.16s0,.1,0,.13h0l0,0,0,0s0,0-.06,0,0-.17,0-.25v0a0,0,0,0,1,0,0v-.12a.33.33,0,0,1,0-.07s0,0,0-.06S3.32,23.72,3.34,23.74Z"/><path class="cls-1" d="M3.38,24.54c.07.05.06.17.07.26a.71.71,0,0,1,0,.31s-.05,0-.07,0a.54.54,0,0,1-.05-.27c0-.09,0-.18,0-.28S3.36,24.52,3.38,24.54Z"/><path class="cls-1" d="M3.41,25.29a.1.1,0,0,1,0,.08,1,1,0,0,0,0,.13.6.6,0,0,1,0,.24s-.08.07-.11,0,0-.13,0-.2,0-.07,0-.11a.91.91,0,0,1,0-.14S3.38,25.26,3.41,25.29Z"/><path class="cls-1" d="M7.57,20.41c0-.06.08-.09.09,0s.05.13,0,.2h0C7.57,20.56,7.57,20.46,7.57,20.41Z"/><path class="cls-1" d="M7.82,20.9s0,.11,0,.15a0,0,0,0,1,0,0s0-.1,0-.15S7.82,20.85,7.82,20.9Z"/><path class="cls-1" d="M2.64,25.19s0,0,0,0a1.26,1.26,0,0,1,0,.41s0,0,0,0S2.62,25.33,2.64,25.19Z"/><path class="cls-1" d="M7.57,20a.17.17,0,0,1,0-.1.34.34,0,0,0,0-.08h0s0,0,0,0a.37.37,0,0,1,0-.15.44.44,0,0,1,0-.15h0a.32.32,0,0,1,0-.08.07.07,0,0,1,.12,0,.48.48,0,0,1,.09.24s0,.08,0,.13a1,1,0,0,1,0,.16A.06.06,0,0,1,7.57,20Z"/><path class="cls-1" d="M5.61,21.79c0,.14,0,.28.06.43a1.19,1.19,0,0,1-.07-.31.41.41,0,0,0,0-.17Z"/><path class="cls-1" d="M5.36,20.52a0,0,0,0,0,0,0h.07c.09,0,.2,0,.28,0l-.09.1L5,20.51Z"/><path class="cls-1" d="M5.52,21.35v0l0,0,.11-.12a3.74,3.74,0,0,0,0,.37,2.47,2.47,0,0,0-.08-.25S5.53,21.33,5.52,21.35Z"/><path class="cls-1" d="M3.27,21.28a.4.4,0,0,0,.16,0,1.17,1.17,0,0,1,.31.06l-.42-.05Z"/><path class="cls-1" d="M5.1,20.25c.17,0,.36,0,.54.06a1.72,1.72,0,0,0,.3,0l-.1.11-.14,0-.24,0s0,0,0,0a4.24,4.24,0,0,0-1.14-.19l-.08,0c-.12,0-.28,0-.41-.08L3.88,20l.57.1C4.67,20.17,4.89,20.21,5.1,20.25Z"/><path class="cls-1" d="M4,21l.69.09s0,0,0,0a1.21,1.21,0,0,1,.4.07l-.25.25c-.13,0-.28,0-.41-.06l-.62-.11a1.33,1.33,0,0,0-.45-.08A1.15,1.15,0,0,1,3,21.12l0,0s0-.09.06-.14l0-.07a2.89,2.89,0,0,0,.35,0C3.66,20.93,3.83,21,4,21Z"/><path class="cls-1" d="M2.75,21.3l.11-.1,0,0h0s0,0,0,.05l.25.07Z"/><path class="cls-1" d="M4.43,19.61s0,0,0,0l-.15,0,0,0,.19,0Z"/><path class="cls-1" d="M4.41,20.65l.62.14a2.32,2.32,0,0,0,.4.08l-.06.06c-.35-.14-.77-.12-1.13-.24a4.49,4.49,0,0,0-.57-.12l-.2,0,.07-.12a1.21,1.21,0,0,0,.26.07C4,20.53,4.21,20.6,4.41,20.65Z"/><path class="cls-1" d="M4,20.18s0,0,0,0h.26l.59.14.38.08H4.7c-.33-.07-.66-.13-1-.22,0,0-.05,0,0,.05a.69.69,0,0,0,.32.1l.49.13c.36.08.74.13,1.12.18l-.08.09c-.1,0-.21,0-.32-.06l-.64-.14c-.08,0-.8-.22-1-.23a1.36,1.36,0,0,1,.19-.22l.19,0Z"/><path class="cls-1" d="M5.43,19.71h.16l.58,0c.15,0,.32-.05.47-.06l-.15.16A4.18,4.18,0,0,1,5.43,19.71Z"/><path class="cls-1" d="M5.87,20h0a3.31,3.31,0,0,0,.47,0L6.24,20A2.51,2.51,0,0,0,5.87,20Z"/><path class="cls-1" d="M5.28,19.83a5.15,5.15,0,0,1,.66.06H5.87l-.65,0H5.1c-.31,0-.63-.09-.93-.14l0,0c.12,0,.27,0,.39.06A4.12,4.12,0,0,0,5.28,19.83Z"/><path class="cls-1" d="M5,19.71l.33.06h0a4.61,4.61,0,0,1-.57-.08Z"/><path class="cls-1" d="M6.12,21.49c0,.14,0,.28,0,.42-.07-.35-.18-.69-.23-1l.15-.17,0,.12,0,0s-.1,0-.09.06a3.68,3.68,0,0,0,.13.57Z"/><path class="cls-1" d="M5.55,20.21l.49,0L6,20.29a1.74,1.74,0,0,1-.39-.08Z"/><path class="cls-1" d="M5.07,19.94h0c.22,0,.43.08.65.11l.4.06-.07.07c-.38,0-.78,0-1.16-.08a7.91,7.91,0,0,0-.82-.2s0,0,0,0l.09,0-.24-.06L4,19.85a3,3,0,0,0,.37,0C4.62,19.92,4.85,19.93,5.07,19.94Z"/><path class="cls-1" d="M6.31,20.39l0,.14,0-.11Z"/><path class="cls-1" d="M6.48,21.66v0l-.14-.49,0-.23c.07.23.13.46.18.7Z"/><path class="cls-1" d="M3.81,20.7l.57.15.56.13.32.07-.06.06H5.07c-.33,0-.64-.11-1-.17l-.47-.09c-.13,0-.28,0-.42,0l.16-.15.15,0Z"/><path class="cls-1" d="M3.21,22.91l-.22,0-.1,0Z"/><path class="cls-1" d="M2.66,22.43c.32.07.61.17.93.24h0l-.27-.05-.6-.1c-.21,0-.42-.09-.64-.12s-.3-.06-.46-.07l.1-.08c.11,0,.26,0,.37.05S2.46,22.38,2.66,22.43Z"/><path class="cls-1" d="M2.32,22.6l.12.07-.12,0a6.14,6.14,0,0,0-.76-.2s-.06.06,0,.07l.72.23-.89-.21.16-.14a6.73,6.73,0,0,1,.8.16S2.3,22.59,2.32,22.6Z"/><path class="cls-1" d="M2.75,23.87h0l0,0Z"/><path class="cls-1" d="M3.36,23l-.13.14A10.39,10.39,0,0,0,2.14,23l-.58-.11a2.53,2.53,0,0,0-.42-.08v0l.11-.13c.33.07.64.16,1,.21Z"/><path class="cls-1" d="M1.21,23.86l-.45-.07c-.16,0-.31-.1-.48-.13v0l0,0a2.68,2.68,0,0,0,.55.14Z"/><path class="cls-1" d="M2.65,23.77l0,0h0a.13.13,0,0,0-.12,0,6,6,0,0,0-.84-.21c-.33-.06-.65-.16-1-.21,0,0,0,0,0,0a1,1,0,0,0,.24.11l-.4-.07.14-.11c.31.05.62.13.92.2S2.3,23.67,2.65,23.77Z"/><path class="cls-1" d="M2.69,23.73a4.55,4.55,0,0,0-1-.24,8.83,8.83,0,0,0-1-.21l0,0,.08-.07a2.9,2.9,0,0,0,.3-.35c.67.17,1.38.23,2,.41Z"/><path class="cls-1" d="M3.26,22.14h0c-.24,0-.47-.1-.69-.16l.22,0,.48.13Z"/><path class="cls-1" d="M3.83,22.52h0l-.06.06-.94-.23a6.48,6.48,0,0,0-.67-.13l-.24,0H1.77l.12-.1a5.87,5.87,0,0,0,.86.22C3.11,22.39,3.48,22.44,3.83,22.52Z"/><path class="cls-1" d="M2.8,21.89h.13l.16,0-.21,0-.15,0Z"/><path class="cls-1" d="M3.06,21.8H3a3.72,3.72,0,0,0-.56-.11s-.09.06-.06.09l0,0-.12,0,.16-.15c.35,0,.69.15,1,.21Z"/><path class="cls-1" d="M4.41,21.59A1,1,0,0,0,4,21.5l-.4-.07.14,0c.31,0,.62.1.93.13,0,0,0,0,0,0-.27,0-.53-.1-.8-.15.3,0,.61.06.9.11l-.21.22a0,0,0,0,0,0,0c-.62-.06-1.22-.22-1.85-.23,0,0,0,0,0,0a3.27,3.27,0,0,0,.91.16c.31,0,.62.08.94.09l-.1.1h0a2.29,2.29,0,0,0-.41,0l-.54-.07c-.34-.05-.67-.15-1-.19l.21-.2c.57.06,1.09.27,1.68.29C4.41,21.64,4.43,21.61,4.41,21.59Z"/><path class="cls-1" d="M2,22l.11,0L2,22Z"/><path class="cls-1" d="M3.74,22.32H4l-.12.13a0,0,0,0,0,0-.05l-.38-.11Z"/><path class="cls-1" d="M3.46,21.91h.71a.59.59,0,0,0,.25,0h0l-.15.15-.41,0-.46-.12Z"/><path class="cls-1" d="M3.86,22.91l0,0,0,.15s0,0,0,0,0,0,0,.07Z"/><path class="cls-1" d="M3.61,22.1h.08a2.05,2.05,0,0,0,.48.07l0,0Z"/><path class="cls-1" d="M3.87,24.1A5.42,5.42,0,0,0,3.78,23h0l0,0a4.78,4.78,0,0,0,.11.57,7.6,7.6,0,0,1,0,.84c0,.23,0,.45,0,.68s0,.21,0,.31l-.06.06h0A8.72,8.72,0,0,0,3.87,24.1Z"/><path class="cls-1" d="M4.41,23c0-.2-.07-.39-.11-.58l.08-.08c0,.14.06.29.08.42l0,.08A4.23,4.23,0,0,0,4.7,24h0c0,.08,0,.16,0,.24s0,.09,0,.14l-.11.11a1.73,1.73,0,0,0,0-.3c0-.18,0-.37-.07-.55S4.48,23.24,4.41,23Z"/><path class="cls-1" d="M4.63,24.59l-.06.06,0-.5v0A1.72,1.72,0,0,1,4.63,24.59Z"/><path class="cls-1" d="M4.85,23.94a2.88,2.88,0,0,1,0-.33c0,.21.09.42.14.63l-.1.1a2.66,2.66,0,0,1,0-.29V24A0,0,0,0,0,4.85,23.94Z"/><path class="cls-1" d="M4.29,24.47v0a2.47,2.47,0,0,0,.07.38L4.28,25A3.44,3.44,0,0,0,4.29,24.47Z"/><path class="cls-1" d="M5,22.33,5,22.05s0-.1,0-.15l.15-.18c0,.13,0,.29.05.42s.07.31.1.47c.07.32.15.64.19,1h0s0,.08,0,.12l-.06.06c0-.11-.05-.21-.08-.32s-.09-.38-.14-.57S5.06,22.53,5,22.33Z"/><path class="cls-1" d="M5.33,22.51c0-.18-.09-.35-.1-.53a2.93,2.93,0,0,0,0-.35l.07,0s.1,0,.14-.07l0,0a1.15,1.15,0,0,1,.09.4,1.3,1.3,0,0,0,.09.45c0,.21.08.42.13.63s0,.29.07.42l-.26.27a1.19,1.19,0,0,1-.08-.41s0,0,0,0C5.4,23,5.36,22.75,5.33,22.51Z"/><path class="cls-1" d="M4.13,22.61l.1-.1c0,.08,0,.16.06.24l0-.09s-.05,0,0,0a7.91,7.91,0,0,0,.22.83c0,.39,0,.8.1,1.19l-.07.07c0-.14-.05-.27-.07-.41s-.08-.44-.12-.66v0c0-.23,0-.47-.06-.69A3,3,0,0,0,4.13,22.61Z"/><path class="cls-1" d="M4.78,22.35a1.2,1.2,0,0,0-.08-.27L4.82,22l0,.2a4.35,4.35,0,0,0,.14.58c.13.36.11.8.26,1.14L5.2,24a2.38,2.38,0,0,0-.09-.41L5,22.95C4.91,22.74,4.83,22.55,4.78,22.35Z"/><path class="cls-1" d="M4.68,22.54c0-.1,0-.25-.11-.32s-.06,0-.06,0c.1.33.17.66.24,1,0,.11,0,.22,0,.33s0,.11,0,.16c0-.13-.05-.26-.09-.39s-.09-.4-.15-.6,0-.18,0-.27,0,0,0,0h0c0-.07,0-.13-.05-.2a1.53,1.53,0,0,1,.22-.21c0,.19.23.91.25,1s.11.43.15.64a3.19,3.19,0,0,0,.07.32L5,24.18c-.05-.38-.11-.77-.2-1.14C4.78,22.87,4.72,22.71,4.68,22.54Z"/><path class="cls-1" d="M2.51,24.38c0,.2.07.39.1.59,0,0,0,0,0,0s0-.3,0-.45,0-.11,0-.16l0,0a.19.19,0,0,1,.14-.13,1.39,1.39,0,0,1,0,.18,2.33,2.33,0,0,0,0,.62c0,.23,0,.47,0,.71s0,.23,0,.34a1.39,1.39,0,0,1,0,.29h0a.53.53,0,0,0-.1.1,1.06,1.06,0,0,0,0-.12c0-.07,0-.15,0-.23s0,0,0,0a.82.82,0,0,1,0,.17.62.62,0,0,1,0,.11.42.42,0,0,0,0,.17h0l0,.07v0l-.17.18a10,10,0,0,0,0-1.23c0-.27,0-.56,0-.83a1.17,1.17,0,0,1,0-.33S2.46,24.39,2.51,24.38Z"/><path class="cls-1" d="M.26,23.73c.3.1.62.15.93.23s.45.09.68.14l.32.06h.11l-.16.17a0,0,0,0,0,0,0H2c-.43-.06-.87-.13-1.28-.22-.19,0-.46,0-.6-.18s0-.05,0-.09A.11.11,0,0,0,.26,23.73Z"/><path class="cls-1" d="M1.22,23.59l.27,0c.31.06.63.09.94.17h0l-.13,0-.65-.11Z"/><path class="cls-1" d="M2.73,23.9l-.3.35H2.36l.34-.35Z"/><path class="cls-1" d="M6.75,19.49h0l-.06.06-.3,0-.66,0a7.5,7.5,0,0,1-.82,0,4.79,4.79,0,0,0-.56-.09l0,0h0a5.29,5.29,0,0,0,1.07.06A8.36,8.36,0,0,0,6.75,19.49Z"/><path class="cls-1" d="M4,24.23c0-.06,0-.11,0-.17a4.23,4.23,0,0,1,.08,1.08l-.16.17c0-.16,0-.34.05-.49S4,24.43,4,24.23Z"/><path class="cls-1" d="M4,22.81l0,0c.07.31.11.63.16.95v.12c0,.22,0,.44,0,.66,0,0,0,0,0,.07a5.52,5.52,0,0,1-.08-.67A4.09,4.09,0,0,0,4,23.21C4,23.09,4,22.93,4,22.81Z"/><path class="cls-1" d="M5.87,23.22s0,0,0,0c0-.32-.1-.63-.14-.95l0-.15.08.4a1,1,0,0,0,.1.37s0,0,0,0c0-.6-.25-1.12-.33-1.7l.21-.23c.05.35.15.68.21,1,0,.18.06.36.08.55a2.29,2.29,0,0,0,0,.42h0v0h0L6.1,23c0-.32-.07-.64-.11-1a3.27,3.27,0,0,0-.18-.93s0,0,0,0c0,.65.2,1.25.27,1.88,0,0,0,0,0,0l-.22.23c-.06-.3-.08-.61-.13-.91C5.76,22.68,5.83,22.94,5.87,23.22Z"/><path class="cls-1" d="M3,25.72c0-.2,0-.4,0-.59s0-.43,0-.63c0,0,0-.26,0-.38s0-.06,0-.08a.06.06,0,0,0,0,0,1.64,1.64,0,0,1,.29-.33,2.56,2.56,0,0,0,.29-.3,2.1,2.1,0,0,0,.18-.23,2.09,2.09,0,0,1,.06.52c0,.19,0,.37,0,.56,0,.41,0,.84,0,1.24,0,0,0,0,0,0L3,26.29a0,0,0,0,0,0,0A3.38,3.38,0,0,0,3,25.72Z"/><path class="cls-1" d="M4.07,24c0-.12,0-.22-.07-.33s0-.19,0-.29a4.7,4.7,0,0,1,.09.58Z"/><path class="cls-1" d="M7.93,19.48c0,.14.07.28.1.42s.09.44.12.66l0,.13h0c-.08-.31-.12-.63-.18-1Z"/><path class="cls-1" d="M8,18.63l0,0c0,.13.09.25.11.39s.05.31.08.46c0-.12-.07-.24-.11-.35A3.12,3.12,0,0,0,8,18.63Z"/><path class="cls-1" d="M8.21,18.39A1.47,1.47,0,0,1,8.4,19c.11.42.18.86.25,1.3v.05a0,0,0,0,0,0,0l-.17.17s0-.09,0-.11,0-.21-.06-.32-.09-.47-.15-.69-.14-.6-.23-.88Z"/><path class="cls-1" d="M6.24,21.29l0,.22-.05-.16v-.21Z"/><path class="cls-1" d="M7,20.79l-.07-.12s0,0-.06,0a7.22,7.22,0,0,1-.17-.74l0,0h0a6.14,6.14,0,0,0,.22.77Z"/><path class="cls-1" d="M7.85,19.15a1,1,0,0,0-.12-.24h0l.07-.07C7.8,18.93,7.82,19,7.85,19.15Z"/><path class="cls-1" d="M7.61,19c0,.31.15.61.22.91A4.52,4.52,0,0,0,8.1,21l-.49.51c-.19-.65-.26-1.36-.44-2Z"/><path class="cls-1" d="M5.78,18.62l.62,0H7a3.21,3.21,0,0,0,.55,0,0,0,0,0,0,0,0l-.76.8s0,0,0,0c-.39,0-.8,0-1.2,0H5a2.05,2.05,0,0,1-.51,0,1.94,1.94,0,0,0,.21-.18A2.29,2.29,0,0,0,5,18.95a1.47,1.47,0,0,1,.3-.29h0s.06,0,.08,0Z"/><path class="cls-1" d="M7.83,18.37l-.07,0h0a.42.42,0,0,0-.17,0H7.31s0,0,0,0l.22,0h.12a.48.48,0,0,0-.09.1h0a1.32,1.32,0,0,1-.29,0H6.93l-.69,0a2.3,2.3,0,0,0-.6,0H5.46a.17.17,0,0,1,.12-.14l0,0h.6s0,0,0,0c-.19,0-.38-.07-.58-.08,0-.05,0-.11,0-.12a1.15,1.15,0,0,1,.32,0c.26,0,.54,0,.81,0a9.79,9.79,0,0,0,1.2,0l-.16.17Z"/><path class="cls-1" d="M7.67,18.95h0c.06.34.17.65.23,1a6.07,6.07,0,0,0,.23.85.14.14,0,0,0,0,.12h0l0,0c-.11-.36-.17-.74-.26-1.11S7.73,19.24,7.67,18.95Z"/><path class="cls-1" d="M6.81,22.31l-.13.14c0-.1,0-.2,0-.3s0-.17,0-.25l.12.38A0,0,0,0,0,6.81,22.31Z"/><path class="cls-1" d="M6.47,20.18l0,0a1.2,1.2,0,0,0,0,.16c0,.08,0,.16,0,.24a6.55,6.55,0,0,0,.14.68q.14.47.25,1l-.06.06a.07.07,0,0,0,0,0c-.09-.36-.14-.73-.23-1.09a5.88,5.88,0,0,0-.24-.87Z"/><path class="cls-1" d="M6.53,22.6a2.06,2.06,0,0,0-.08-.48V22l.11.54Z"/><path class="cls-1" d="M6.42,22.71l-.16.16h0a.61.61,0,0,0,0-.25c0-.24,0-.48,0-.73v-.06c0,.15.09.31.13.47Z"/><path class="cls-1" d="M6.62,20.42c0-.1,0-.23-.05-.34L6.65,20c0,.14.06.27.07.41s.09.43.13.65.08.4.11.6a2.35,2.35,0,0,0,.06.27H7v0c-.08-.32-.19-.61-.27-.93S6.68,20.61,6.62,20.42Z"/><path class="cls-1" d="M7.26,21.57c0-.1-.07-.22-.1-.33l0,.1Z"/><path class="cls-1" d="M7,19.67l.14-.15c0,.12.05.24.08.35s.09.39.12.59a10.67,10.67,0,0,0,.21,1.11l-.14.14-.2-1.14C7.13,20.26,7,20,7,19.67Z"/><path class="cls-1" d="M6.79,19.85l.07-.07c.07.27.14.54.2.82-.08-.24-.17-.48-.24-.73A0,0,0,0,0,6.79,19.85Z"/><path class="cls-1" d="M0,23.8a.24.24,0,0,0,0,.12c0,.16.27.18.4.21.53.11,1.06.21,1.6.29H2l0,0,.1,0,0,0,0,0,.1-.11a.33.33,0,0,0,0,.08l-.14.16.14-.13a8.66,8.66,0,0,0,0,.88c0,.52.1,1,.14,1.51l-.06.06.09.11.31-.32L4.41,25h0s0,0,0,0v0l1.14-1.19L6,23.31l.55-.57c0,.05.12,0,.11-.05s0,0,0-.05l1.21-1.26L8.24,21A.09.09,0,0,0,8.29,21h0l.54-.57,0,0a.26.26,0,0,1,0-.09v0l0,0a.09.09,0,0,0,0,0c-.09-.55-.2-1.08-.32-1.62a.76.76,0,0,0-.12-.35,1.07,1.07,0,0,1,.18-.15l6-6.25L17.25,9l1.82-1.9,2.28-2.37c.58-.6,1.17-1.19,1.74-1.8l.48.46a.09.09,0,0,0,.06-.13,1.35,1.35,0,0,1,.19-.2l0,0h0a.08.08,0,0,0,0-.08.36.36,0,0,0-.16-.18.1.1,0,0,0-.07,0h0l-.08-.07.17,0h.34a.79.79,0,0,1,.53.12.44.44,0,0,0,.24.12.08.08,0,0,0,.1,0c.06-.16,0-.35,0-.52s.11-.51.16-.76a3.25,3.25,0,0,1,.3-.75,2.82,2.82,0,0,1,.42-.66s0-.06,0-.06V0h0s0,0,0,0l0,0a3.75,3.75,0,0,1-.53.23,3,3,0,0,0-.5.29,4.19,4.19,0,0,1-.58.31A4.35,4.35,0,0,1,23.6,1a2.06,2.06,0,0,0-.52,0,.08.08,0,0,0,0,.1.43.43,0,0,0,.13.23.79.79,0,0,1,.14.53,1.93,1.93,0,0,1,0,.51A2.25,2.25,0,0,0,23,2.13h0a.11.11,0,0,0-.1-.1.1.1,0,0,0-.09,0,.09.09,0,0,0,0,.11.73.73,0,0,1-.21.25l0,0h0l.34.32-1,1L20.38,5.45l-3.16,3.3L17,9l-6.08,6.34L8.2,18.15l-.09-.07L8,18.14c-.49,0-1-.12-1.48-.12a8,8,0,0,0-.87,0c-.15,0-.17.07-.18.16a.71.71,0,0,1-.29.33,1.35,1.35,0,0,0-.31.3,6,6,0,0,1-.82.76,2.77,2.77,0,0,0-.67.62,4.84,4.84,0,0,1-.3.43c-.06.08-.14.13-.17.23v0a1.15,1.15,0,0,0-.12.19h0a1.26,1.26,0,0,0-.21.16c-.34.27-.66.57-1,.84-.14.12-.27.25-.41.37a2.08,2.08,0,0,0-.38.52c-.12.21-.4.33-.57.5h0a.08.08,0,0,0-.07.08l-.1.08A.2.2,0,0,0,0,23.8Zm.29-.18a2.68,2.68,0,0,0,.55.14l.35.1-.45-.07c-.16,0-.31-.1-.48-.13v0Zm.33-.28c.31.05.62.13.92.2s.74.13,1.1.24l0,0h0a.13.13,0,0,0-.12,0,6,6,0,0,0-.84-.21c-.33-.06-.65-.16-1-.21,0,0,0,0,0,0a1,1,0,0,0,.24.11l-.4-.07Zm.47-.5c.67.17,1.38.23,2,.41l-.46.49a4.55,4.55,0,0,0-1-.24,8.83,8.83,0,0,0-1-.21l0,0,.08-.07A2.9,2.9,0,0,0,1.1,22.83Zm1.65,1,0,0,0,0ZM1.26,22.63c.33.07.64.16,1,.21L3.36,23l-.13.14A10.39,10.39,0,0,0,2.14,23l-.58-.11a2.53,2.53,0,0,0-.42-.08v0ZM3,22.86l-.1,0,.32.09Zm-1.47-.48a6.73,6.73,0,0,1,.8.16s0,0,0,.06l.12.07-.12,0a6.14,6.14,0,0,0-.76-.2s-.06.06,0,.07l.72.23-.89-.21Zm.17-.13c.11,0,.26,0,.37.05s.4.08.6.13.61.17.93.24h0l-.27-.05-.6-.1c-.21,0-.42-.09-.64-.12s-.3-.06-.46-.07Zm.2-.16a5.87,5.87,0,0,0,.86.22c.35.08.72.13,1.07.21h0l-.06.06-.94-.23a6.48,6.48,0,0,0-.67-.13l-.24,0H1.77Zm2,1s0,0,0,.07l0-.2,0,0,0,.15S3.9,23,3.9,23Zm-.41-.75.25,0H4l-.12.13a0,0,0,0,0,0-.05Zm.68-.11,0,0-.54-.1h.08A2.05,2.05,0,0,0,4.17,22.18ZM3.86,22l-.46-.12h.77a.59.59,0,0,0,.25,0h0l-.15.15Zm-.64.11h0c-.24,0-.47-.1-.69-.16l.22,0Zm-.35-.21-.15,0h.21l.16,0ZM2.15,22,2,22l0,0Zm.3-.42c.35,0,.69.15,1,.21H3a3.72,3.72,0,0,0-.56-.11s-.09.06-.06.09l0,0-.12,0Zm.26-.25c.57.06,1.09.27,1.68.29,0,0,0,0,0,0A1,1,0,0,0,4,21.5l-.4-.07.14,0c.31,0,.62.1.93.13,0,0,0,0,0,0-.27,0-.53-.1-.8-.15.3,0,.61.06.9.11l-.21.22a0,0,0,0,0,0,0c-.62-.06-1.22-.22-1.85-.23,0,0,0,0,0,0a3.27,3.27,0,0,0,.91.16c.31,0,.62.08.94.09l-.1.1h0a2.29,2.29,0,0,0-.41,0l-.54-.07c-.34-.05-.67-.15-1-.19Zm.62-.05H3.27a.4.4,0,0,0,.16,0,1.17,1.17,0,0,1,.31.06Zm-.2,0-.37,0,.11-.1,0,0h0s0,0,0,.05Zm.36-.43c.18,0,.35.07.53.09l.69.09s0,0,0,0a1.21,1.21,0,0,1,.4.07l-.25.25c-.13,0-.28,0-.41-.06l-.62-.11a1.33,1.33,0,0,0-.45-.08A1.15,1.15,0,0,1,3,21.12l0,0s0-.09.06-.14l0-.07A2.89,2.89,0,0,0,3.48,20.91Zm.05-.26.28,0,.57.15.56.13.32.07-.06.06H5.07c-.33,0-.64-.11-1-.17l-.47-.09c-.13,0-.28,0-.42,0l.16-.15Zm.28-.18c.2.05.39.12.59.17l.62.14a2.32,2.32,0,0,0,.4.08l-.06.06c-.35-.14-.77-.12-1.13-.24a4.49,4.49,0,0,0-.57-.12l-.2,0,.07-.12A1.21,1.21,0,0,0,3.82,20.48Zm0-.35.19,0H4s0,0,0,0h.26l.59.14.38.08H4.7c-.33-.07-.66-.13-1-.22,0,0-.05,0,0,.05a.69.69,0,0,0,.32.1l.49.13c.36.08.74.13,1.12.18l-.08.09c-.1,0-.21,0-.32-.06l-.64-.14c-.08,0-.8-.22-1-.23A1.36,1.36,0,0,1,3.77,20.13ZM5.6,21.73v.05c0,.14,0,.28.06.43a1.19,1.19,0,0,1-.07-.31A.41.41,0,0,0,5.6,21.73Zm0-.4s0,0-.05,0v0l0,0,.11-.12a3.74,3.74,0,0,0,0,.37A2.47,2.47,0,0,0,5.57,21.33ZM5,20.51h.32a0,0,0,0,0,0,0h.07c.09,0,.2,0,.28,0l-.09.1ZM3.88,20l.57.1c.21.06.43.11.64.15s.36,0,.54.06a1.72,1.72,0,0,0,.3,0l-.1.11-.14,0-.24,0s0,0,0,0a4.24,4.24,0,0,0-1.14-.19l-.08,0c-.12,0-.28,0-.41-.08ZM6,20.86a3.68,3.68,0,0,0,.13.57v.06c0,.14,0,.28,0,.42-.07-.35-.18-.69-.23-1l.15-.17,0,.12,0,0S6,20.81,6,20.86Zm0-.56a1.74,1.74,0,0,1-.39-.08h0l.49,0Zm-1.59-.4c.22,0,.45,0,.68,0h0c.22,0,.43.08.65.11l.4.06-.07.07c-.38,0-.78,0-1.16-.08a7.91,7.91,0,0,0-.82-.2s0,0,0,0l.09,0-.24-.06L4,19.85A3,3,0,0,0,4.4,19.89Zm1.88.53,0,0,0,.14Zm.19,1.19v0l-.14-.49,0-.23C6.36,21.15,6.42,21.38,6.47,21.62ZM6.24,20A2.51,2.51,0,0,0,5.87,20h0a3.31,3.31,0,0,0,.47,0Zm-.81-.32h.16l.58,0c.15,0,.32-.05.47-.06l-.15.16A4.18,4.18,0,0,1,5.43,19.71Zm-1.22,0c.12,0,.27,0,.39.06a4.12,4.12,0,0,0,.68.1,5.15,5.15,0,0,1,.66.06H5.87l-.65,0H5.1c-.31,0-.63-.09-.93-.14Zm1.09.09a4.61,4.61,0,0,1-.57-.08l.28,0,.33.06Zm-1-.19.19,0H4.43s0,0,0,0l-.15,0Zm.09-.08a5.29,5.29,0,0,0,1.07.06,8.36,8.36,0,0,0,1.29-.07h0l-.06.06-.3,0-.66,0a7.5,7.5,0,0,1-.82,0,4.79,4.79,0,0,0-.56-.09l0,0Zm2.35.4a6.14,6.14,0,0,0,.22.77l0,.12-.07-.12s0,0-.06,0a7.22,7.22,0,0,1-.17-.74l0,0ZM5.41,18.64l.37,0,.62,0H7a3.21,3.21,0,0,0,.55,0,0,0,0,0,0,0,0l-.76.8s0,0,0,0c-.39,0-.8,0-1.2,0H5a2.05,2.05,0,0,1-.51,0,1.94,1.94,0,0,0,.21-.18A2.29,2.29,0,0,0,5,18.95a1.47,1.47,0,0,1,.3-.29h0S5.38,18.66,5.41,18.64ZM8,18.19l-.16.17h0l-.07,0h0a.42.42,0,0,0-.17,0H7.31s0,0,0,0l.22,0h.12a.48.48,0,0,0-.09.1h0a1.32,1.32,0,0,1-.29,0H6.93l-.69,0a2.3,2.3,0,0,0-.6,0H5.46a.17.17,0,0,1,.12-.14l0,0h.6s0,0,0,0c-.19,0-.38-.07-.58-.08,0-.05,0-.11,0-.12a1.15,1.15,0,0,1,.32,0c.26,0,.54,0,.81,0A9.79,9.79,0,0,0,8,18.19Zm-.22.64c0,.11,0,.22.06.32a1,1,0,0,0-.12-.24h0Zm.28-.29.14-.15A1.47,1.47,0,0,1,8.4,19c.11.42.18.86.25,1.3v.05a0,0,0,0,0,0,0l-.17.17s0-.09,0-.11,0-.21-.06-.32-.09-.47-.15-.69S8.16,18.82,8.07,18.53Zm.14.91c0-.12-.07-.24-.11-.35A3.12,3.12,0,0,0,8,18.63l0,0c0,.13.09.25.11.39S8.18,19.29,8.21,19.44Zm0,1.26c-.08-.31-.12-.63-.18-1l-.05-.27c0,.14.07.28.1.42s.09.44.12.66l0,.13Zm0,.23c-.11-.36-.17-.74-.26-1.11s-.15-.58-.21-.88h0c.06.34.17.65.23,1a6.07,6.07,0,0,0,.23.85.14.14,0,0,0,0,.12h0Zm-.53.55c-.19-.65-.26-1.36-.44-2L7.61,19c0,.31.15.61.22.91A4.52,4.52,0,0,0,8.1,21Zm-.23.24-.2-1.14c-.05-.31-.14-.6-.21-.9l.14-.15c0,.12.05.24.08.35s.09.39.12.59a10.67,10.67,0,0,0,.21,1.11Zm-.21-.47,0,.1.05.22C7.22,21.46,7.19,21.35,7.16,21.24Zm-.1-.64c-.08-.24-.17-.48-.24-.73a0,0,0,0,0,0,0l.07-.07C6.93,20.05,7,20.32,7.06,20.6ZM7,22c-.08-.32-.19-.61-.27-.93s-.08-.41-.14-.6,0-.23-.05-.34L6.65,20c0,.14.06.27.07.41s.09.43.13.65.08.4.11.6a2.35,2.35,0,0,0,.06.27H7Zm-.39-.07.12.38a0,0,0,0,0,.05,0l-.13.14c0-.1,0-.2,0-.3S6.65,22,6.63,21.89ZM6.4,20.27l.06-.08,0,0a1.2,1.2,0,0,0,0,.16c0,.08,0,.16,0,.24a6.55,6.55,0,0,0,.14.68q.14.47.25,1l-.06.06a.07.07,0,0,0,0,0c-.09-.36-.14-.73-.23-1.09A5.88,5.88,0,0,0,6.4,20.27Zm0,1.76.11.54,0,0a2.06,2.06,0,0,0-.08-.48Zm-.2-.21c0,.15.09.31.13.47l.05.42-.16.16h0a.61.61,0,0,0,0-.25c0-.24,0-.48,0-.73Zm0-.61v-.08l0,.15,0,.22-.05-.16Zm-.37,2.11c-.06-.3-.08-.61-.13-.91.05.27.12.53.17.81,0,0,0,0,0,0,0-.32-.1-.63-.14-.95l0-.15.08.4a1,1,0,0,0,.1.37s0,0,0,0c0-.6-.25-1.12-.33-1.7l.21-.23c.05.35.15.68.21,1,0,.18.06.36.08.55a2.29,2.29,0,0,0,0,.42h0v0h0L6.1,23c0-.32-.07-.64-.11-1a3.27,3.27,0,0,0-.18-.93s0,0,0,0c0,.65.2,1.25.27,1.88,0,0,0,0,0,0Zm-.4-.11c0-.23-.07-.46-.11-.7s-.09-.35-.1-.53a2.93,2.93,0,0,0,0-.35l.07,0s.1,0,.14-.07l0,0a1.15,1.15,0,0,1,.09.4,1.3,1.3,0,0,0,.09.45c0,.21.08.42.13.63s0,.29.07.42l-.26.27a1.19,1.19,0,0,1-.08-.41S5.45,23.21,5.43,23.21Zm-.12.26c0-.19-.09-.38-.14-.57s-.11-.38-.16-.57L5,22.05s0-.1,0-.15l.15-.18c0,.13,0,.29.05.42s.07.31.1.47c.07.32.15.64.19,1h0s0,.08,0,.12l-.06.06C5.37,23.68,5.33,23.58,5.31,23.47Zm-.19.1L5,22.95c-.05-.2-.13-.39-.19-.59a1.2,1.2,0,0,0-.08-.27L4.82,22l0,.2a4.35,4.35,0,0,0,.14.58c.13.36.11.8.26,1.14L5.2,24A2.38,2.38,0,0,0,5.12,23.58Zm-.1.6c-.05-.38-.11-.77-.2-1.14,0-.17-.1-.33-.14-.5s0-.25-.11-.32-.06,0-.06,0c.1.33.17.66.24,1,0,.11,0,.22,0,.33s0,.11,0,.16c0-.13-.05-.26-.09-.39s-.09-.4-.15-.6,0-.18,0-.27,0,0,0,0h0c0-.07,0-.13-.05-.2a1.53,1.53,0,0,1,.22-.21c0,.19.23.91.25,1s.11.43.15.64a3.19,3.19,0,0,0,.07.32Zm-.2-.2a0,0,0,0,0,0,0,2.88,2.88,0,0,1,0-.33c0,.21.09.42.14.63l-.1.1a2.66,2.66,0,0,1,0-.29Zm-.18.25c0-.18,0-.37-.07-.55s-.09-.44-.16-.65-.07-.39-.11-.58l.08-.08c0,.14.06.29.08.42l0,.08A4.23,4.23,0,0,0,4.7,24h0c0,.08,0,.16,0,.24s0,.09,0,.14l-.11.11A1.73,1.73,0,0,0,4.64,24.23Zm-.11-.08v0a1.72,1.72,0,0,1,.09.39l-.06.06Zm-.25.8a3.44,3.44,0,0,0,0-.48v0a2.47,2.47,0,0,0,.07.38Zm0-1.27c0-.23,0-.47-.06-.69a3,3,0,0,0-.05-.37l.1-.1c0,.08,0,.16.06.24l0-.09s-.05,0,0,0a7.91,7.91,0,0,0,.22.83c0,.39,0,.8.1,1.19l-.07.07c0-.14-.05-.27-.07-.41s-.08-.44-.12-.66Zm-.11.22A4.09,4.09,0,0,0,4,23.21c0-.12,0-.27-.06-.39l0,0c.07.31.11.63.16.95v.12c0,.22,0,.44,0,.66,0,0,0,0,0,.07A5.52,5.52,0,0,1,4.14,23.9Zm-.07,0v0c0-.12,0-.22-.07-.33s0-.19,0-.29A4.7,4.7,0,0,1,4.07,23.93Zm-.14,1.39c0-.16,0-.34.05-.49s0-.4,0-.59,0-.11,0-.17a4.23,4.23,0,0,1,.08,1.08Zm-.12.12h0a8.72,8.72,0,0,0,0-1.32A5.42,5.42,0,0,0,3.78,23h0l0,0a4.78,4.78,0,0,0,.11.57,7.6,7.6,0,0,1,0,.84c0,.23,0,.45,0,.68s0,.21,0,.31Zm-.87.85a3.38,3.38,0,0,0,0-.56c0-.2,0-.4,0-.59s0-.43,0-.63c0,0,0-.26,0-.38s0-.06,0-.08a.06.06,0,0,0,0,0,1.64,1.64,0,0,1,.29-.33,2.56,2.56,0,0,0,.29-.3,2.1,2.1,0,0,0,.18-.23,2.09,2.09,0,0,1,.06.52c0,.19,0,.37,0,.56,0,.41,0,.84,0,1.24,0,0,0,0,0,0L3,26.29A0,0,0,0,0,2.95,26.28ZM2.4,24.42s.06,0,.12,0c0,.2.07.39.1.59,0,0,0,0,0,0s0-.3,0-.45,0-.11,0-.16l0,0a.19.19,0,0,1,.14-.13,1.39,1.39,0,0,1,0,.18,2.33,2.33,0,0,0,0,.62c0,.23,0,.47,0,.71s0,.23,0,.34a1.39,1.39,0,0,1,0,.29h0a.53.53,0,0,0-.1.1,1.06,1.06,0,0,0,0-.12c0-.07,0-.15,0-.23s0,0,0,0a.82.82,0,0,1,0,.17.62.62,0,0,1,0,.11.42.42,0,0,0,0,.17h0l0,.07v0l-.17.18a10,10,0,0,0,0-1.23c0-.27,0-.56,0-.83A1.17,1.17,0,0,1,2.4,24.42Zm0-.15.34-.35,0,0-.3.35H2.36Zm-.07-.48-.65-.11-.42-.09.27,0c.31.06.63.09.94.17h0Zm-2.13,0a.11.11,0,0,0,.09-.06c.3.1.62.15.93.23s.45.09.68.14l.32.06h.11l-.16.17a0,0,0,0,0,0,0H2c-.43-.06-.87-.13-1.28-.22-.19,0-.46,0-.6-.18S.14,23.82.17,23.78Z"/><path class="cls-1" d="M3.59,24.73a.28.28,0,0,1,.1.25.05.05,0,0,1-.1,0l0-.1s0-.07,0-.1S3.54,24.69,3.59,24.73Z"/></g></g></svg>