<svg xmlns="http://www.w3.org/2000/svg" xmlns:xlink="http://www.w3.org/1999/xlink" viewBox="0 0 1702 843.91"><defs><style>.cls-1{fill:none;}.cls-2{fill:#007297;}.cls-3{clip-path:url(#clip-path);}.cls-4{fill:#0a5785;}.cls-5{fill:#064777;}</style><clipPath id="clip-path"><rect class="cls-1" x="0.16" y="598.87" width="1400" height="164.97"/></clipPath></defs><title>work-landscape-waves</title><g id="Layer_2" data-name="Layer 2"><g id="Layer_16" data-name="Layer 16"><path class="cls-2" d="M533.09,519.73a.28.28,0,0,0,0-.19l-.56-.93c0-.28,0-.56,0-.83v-.3c.06-1.43,0-2.88,0-4.28,0-.59,0-1.18,0-1.76,0-3.57-.1-7.47-.26-12.28a.55.55,0,0,0-.16-.37.86.86,0,0,0-.32-.32,3.38,3.38,0,0,1-.84-.85l-.28-.35c-.5-.57-1.05-1.1-1.59-1.6s-.91-.83-1.37-1.24c-.74-.65-1.5-1.32-2.17-2-1-1-2.14-2.25-3.22-3.53a3,3,0,0,0-.59-.51l-.24-.18a2.38,2.38,0,0,1-.4-.46,3.88,3.88,0,0,0-.34-.43,3.73,3.73,0,0,0-.66-.51l.21-.63a1.26,1.26,0,0,0-.06-.41l-2.2-3.24a.28.28,0,0,0-.39-.07l-.07,0h-.08a.28.28,0,0,0-.31.25l-.31,2.74-18.15-4.24a.28.28,0,0,0-.2,0l-12.51-12-.07-.06a.27.27,0,0,0-.18-.06l-39.45-5.8a.28.28,0,0,0-.32.24v.06l-52.33,11.64a.28.28,0,0,0-.19.15l-9.22.51-.09,0-.08,0-16.32,7.22-.1,0a.28.28,0,0,0-.33.21l-.13.06a1.27,1.27,0,0,0-.24.23l-13.58,30.47a.28.28,0,0,0,.14.37l.16.07,4.19,18.81a.28.28,0,0,0,.33.21l.36-.08a.28.28,0,0,0,.21-.33l-.1-.43,3.85-20.43,5.83,15.44-1.55,5.43L361,542a1.27,1.27,0,0,0-.06.36l6.74,28.24L366.65,572a.28.28,0,0,0-.18.25l-.1.14a.28.28,0,0,0,.06.39l.25.18.36,1.12a.28.28,0,0,0,.35.18l.09,0a.28.28,0,0,0,.28.26h2.76l2,4.4a1.2,1.2,0,0,0,.42.28h8.95l4.85.64a.27.27,0,0,0,.21-.06.28.28,0,0,0,.11-.19l0-.36A.28.28,0,0,0,387,579l0,0,.39-6.21,0,0a.28.28,0,0,0,.13-.37l-.14-.29a.3.3,0,0,0-.06-.13l-9.25-18.88,1-8.82,11.09-21.1,16.64,11.36.09,0,.09,0,15.53,2.68-7.09,15.39a.28.28,0,0,0,0,.23h0a.28.28,0,0,0,0,.21l5.78,8.78L417.7,570a.28.28,0,0,0,.15.37l0,0v0a.28.28,0,0,0,.34.21l1.75-.4.1,2.58-1.69,1.53h-.09l-.35.12a.28.28,0,0,0-.18.36l1.26,3.69,0,.16a.28.28,0,0,0,.22.31l.05,0a.28.28,0,0,0,.21,0h0l9.63,1.25h0a4.32,4.32,0,0,1,.44-.35.28.28,0,0,0,0-.21l-2-8.67,3.45-10.19.51-.18h0a.29.29,0,0,0,.21,0,.28.28,0,0,0,.18-.12l.08-.12a.35.35,0,0,0,.12-.15l0,0,14.78-21.51,7.92,5.63-.63,18.21a.28.28,0,0,0,.08.2l.06.05a.28.28,0,0,0,.2.21l12.65,3.68,2.92,8v.14a.28.28,0,0,0,.3.26l3.62-.32,1.15,3.6a.28.28,0,0,0,0,.12v.37a.28.28,0,0,0,.29.27l9.48-.37a.28.28,0,0,0,.19-.09l0,0a.28.28,0,0,0,.19-.17l.17-.47.08-.08a.28.28,0,0,0,0-.4l0,0a.32.32,0,0,0-.09-.09l-3.33-3.5,0-.94a.61.61,0,0,0-.34-.35l-2-.38-5.69-9.41-.3-5.47a.2.2,0,0,0,0-.11l1.49-15.58,23.64-8.35,6.54,5.15L506,545a.28.28,0,0,0,.23.26l4.94,8.36a.28.28,0,0,0,.17.13.28.28,0,0,0,.2,0,.28.28,0,0,0,.18,0l2.37-1.47,0,0a.28.28,0,0,0,.35-.19l0-.14a.32.32,0,0,0,0-.1v0l3.75-12.46,7.18-2.13.62.67a.28.28,0,0,0,.2.09.25.25,0,0,0,.2-.08l.1-.09a.28.28,0,0,0,.2-.06l5-4.14a.28.28,0,0,0,.13-.08.28.28,0,0,0,.07-.21l-.58-8.64,1.6-4.7A.28.28,0,0,0,533.09,519.73ZM531,524.5a.28.28,0,0,0,0,.11l.57,8.53-4.87,4h0a.28.28,0,0,0-.21.07l-.05,0-.55-.59a.28.28,0,0,0-.28-.08L518,538.81a.28.28,0,0,0-.19.19L514,551.62a.28.28,0,0,0-.13,0l-2.33,1.44h0l-4.9-8.29a.28.28,0,0,0-.09-.09l-.35-6.33a.28.28,0,0,0-.11-.2l-6.77-5.33a.28.28,0,0,0-.27,0l-23.92,8.45-.28.83-1.47,15.33a.25.25,0,0,0,.06.17l.3,5.41a.28.28,0,0,0,0,.13l5.79,9.57a.28.28,0,0,0,.19.13l1.9.37,0,0,.08.06,0,.8a.28.28,0,0,0,.08.18l3.34,3.51v0l-.1.28a.5.5,0,0,0-.17.05.28.28,0,0,0-.1.14l-8.88.34a.28.28,0,0,0,0-.16l-1.28-4a.27.27,0,0,0-.29-.19l-3.57.31a.29.29,0,0,0,0-.08l-2.94-8a.28.28,0,0,0-.18-.17l-12.53-3.64a.28.28,0,0,0-.17-.24l.62-18.1a.28.28,0,0,0-.12-.24l-8.27-5.88a.28.28,0,0,0-.39.07l-15,21.81,0,0h0a.27.27,0,0,0-.14,0l-.77.27a.28.28,0,0,0-.17.17L427.17,571a.28.28,0,0,0,0,.15l1.92,8.49a.28.28,0,0,0-.1.11l-9.38-1.21a.28.28,0,0,0,0-.07L418.42,575a.28.28,0,0,0,.18-.07l2-1.76a.28.28,0,0,0,.09-.22l-.12-3a.28.28,0,0,0-.34-.26l-1.83.42,0,0,3.48-8a.28.28,0,0,0,0-.27L416.06,553a.28.28,0,0,0,0-.37l7.14-15.48a.28.28,0,0,0-.21-.39l-15.63-2.7a.28.28,0,0,0-.44-.18l-16.69-11.39a.29.29,0,0,0-.23,0,.28.28,0,0,0-.18.14l-11.26,21.43a.28.28,0,0,0,0,.1l-1,9a.28.28,0,0,0,0,.15l9.31,19h0v0l0,.09a.28.28,0,0,0-.1.2l-.41,6.58a.28.28,0,0,0,0,.07l-4.53-.6h-8.72a.28.28,0,0,0-.11-.14.28.28,0,0,0-.17,0l-1.73-3.91-.4-.22-.16-.09-.51-.28h-2v-.05a.28.28,0,0,0-.28-.28h-.19l-.08,0-.31-1a.27.27,0,0,0-.19-.17h0l0,0,0,0,1.19-1.63a.28.28,0,0,0,0-.23l-6.71-28.11a.28.28,0,0,0,.07-.4l5.69-8.59a.28.28,0,0,0,0-.08l1.59-5.56a.28.28,0,0,0,0-.18l-6.22-16.46a.28.28,0,0,0-.29-.18.28.28,0,0,0-.25.23l-4,21-.68-3.06h0l0-.12-3.3-14.79a.28.28,0,0,0-.16-.19l0,0,10.51-23.57,2.83-6.6.14.06.09-.42,0-.14.19,0,.35.07,0,.09,16-7.05a.28.28,0,0,0,.47-.11l9.22-.51a.28.28,0,0,0,.21-.11.28.28,0,0,0,0-.09l52.28-11.63a.28.28,0,0,0,.21-.2l.59.09.13-.05,0,.07,38.4,5.65,12.76,12.21a.28.28,0,0,0,.45-.09l18.18,4.25a.28.28,0,0,0,.22,0,.28.28,0,0,0,.12-.2l.32-2.79h0l1.91,2.81a.28.28,0,0,0,.05.38l-.2.59a.31.31,0,0,0,.14.34,4.05,4.05,0,0,1,.72.53,3.37,3.37,0,0,1,.29.37,2.79,2.79,0,0,0,.5.57l.26.2a2.52,2.52,0,0,1,.49.42c1.09,1.3,2.25,2.53,3.25,3.56.69.72,1.46,1.4,2.21,2.05.46.41.92.81,1.36,1.22s1.07,1,1.55,1.56l.27.33a3.83,3.83,0,0,0,1,1,.3.3,0,0,1,.13.13.29.29,0,0,0,.08.09c.16,4.8.24,8.7.26,12.26,0,.59,0,1.18,0,1.77,0,1.4,0,2.84,0,4.25v.3c0,.3,0,.61,0,.91a.28.28,0,0,0,0,.16l.46.78a.28.28,0,0,0,0,.39Z"/><path class="cls-2" d="M371.52,553.71a.28.28,0,0,0-.23.27l-.17,6.67a.28.28,0,0,0,0,.1l3.5,10.13a.28.28,0,0,0,.07.11l2.89,2.69a.28.28,0,0,0,.19.07h0a.28.28,0,0,0,.2-.11l1.73-2.19a.28.28,0,0,0,.06-.19l0-.78a.31.31,0,0,0-.33-.26.28.28,0,0,0-.25.19l0,.08-2.05-.66a.28.28,0,0,0-.11-.21l.74-2.41a.28.28,0,0,0-.08-.29l-.09-.05L371.88,554l-.18-.24A.27.27,0,0,0,371.52,553.71Zm.3,1.53,5.31,12-.75,2.44a2.47,2.47,0,0,1,.14.44.28.28,0,0,0,.16.14l2.56.82v.07l-1.48,1.87-2.62-2.43-3.46-10Z"/><path class="cls-2" d="M511.77,500.63l-.22,0,1.63-15.11L505.48,500l1.84,5.88,6.28,1.1.54-5.67-2.38-.6Zm1.76,1.12-.43,4.58-5.34-.94-1.67-5.33,6.23-11.74-1.38,12.78.14,0v0Z"/><path class="cls-2" d="M475.78,540.12l22.39-7.24.12.16.37-.29.14,0,0-.16,23.62-18.54-14.4,26.26-.28.08.14.53,18.8-5.18-.14-.53-17.79,4.9,14.28-26,3.86,21.59.27,0,.27,0,2.93-34.41.14-.11-.12-.14,0-.48-.47,0-11.31-13.78-.21.17-.27,0,4.61,25.79-21.29-6.35-.16.52,21.29,6.35-24,18.85-3-13.85.18.07,9.86-26.51,0,0,.39-.38-.22-.23v0l-.07,0-20.57-21-.19.19-.21-.18-24.43,28.16L447.28,464l0-.07-.13.05-.38.14,13.31,34.66,0,0L410.33,484l36.52-19.46-.26-.48-37,19.71-23.82-7.11-.08.26h0l-.22-.16-15.2,20.78L368,484.34l.15-.69,0-.09-.35-.07-.19,0,0,.14-.09.42-.14-.06-2.83,6.6L354.47,514l.33.14,2.71,15,0,.12h0l.15,0-.06.29.53.12,4.41-20.35,8.65,19.1-.17,2.59-8.91,10.7.42.35L371,531.87l-1.28,19.19.27,0-.22.17,1.49,1.94-.46,0-.47,6.54-7.82-17.62-.5.22,8.23,18.54-2.07,11.91.27,0-.13.24,1.75,1,.51.28.16.09.4.22,4.55,2.49,0,.08.08,0,1.29.7.08.05,0,.27,8.63.64v0l.46-.1-1.89-8.51,2,2.65.43-.33-2.75-3.57v0h0l-7.73-10,.13,0,2.18-16.35-.15,0,24.73-45.19.2-.06L421.52,518l-14.95,15.21.39.38.33-.33,0,.14,25.06,4.22L438,548l.29-.16-.23.33,0,0L422.9,560.12l-5.43-7.93L432,538.1l-.38-.39L416.93,552l.19.2-.22.15,5.7,8.32,5.8,18.67.52-.16-5.73-18.44h0l0-.09L439,548.2l-.07-.09,0-.22,10.16-14.38,10.59,12.38.21-.18,1.74,5.23-.07,0-6,10.9.24.13-.07.26L466.32,565l.13.39.45-.15,6.95,9,.43-.33-.19-.24.25,0L472.58,549l2.3-6.89.28-.83.51-1.53Zm51.32-6.57-3.61-20.22,6.32-11.53Zm-8.17-45.71,10.74,13.08-6.33,11.55Zm4,25.45-.06.12-.14-.18Zm-47.16,26.27,3.14-9.43.36-.13-.16-.46,0-.09-.07,0,0-.14,18.49,3.24Zm29.56-48.22-9.76,26.24-10-46.35ZM484.95,471l13.14,61.12-19.32-3.38L466,492.77Zm-24.75,28.86-.1-.21.11-.12.26.08.08-.26.25-.1-.1-.27,4.94-5.69,12.53,35.35L440.64,522l19.07-22Zm-29.94,14,28.24-13.25L440,521.92l-.16,0Zm-21.07-29.61.16.3.3-.16,50,14.92-.25.29-29.58,13.88-42.3-35.37-.39-.44Zm-39.38,13.82.11,0-7,9.53,4.74-21.83Zm-11.89,30.14-2.65-14.61h0L367.07,486Zm10.83,44.42,1.93-11.09,4.78,14.75Zm16.84,5.58-7.93-.58,5.92-8.46Zm-2.34-9.52-6,8.58-1.09-.6L371.06,561l-.31.1,0-.27h0v0l.09-.49h0l.5-7,.35.46.18.24Zm-7.3-10.35L370.26,551l1.33-19.84.06-.07,0,0,.11-1.64,6,13.3-7.4,8,.4.37,7.23-7.81Zm2.1-16.26-6.26-13.83,0-.23h-.12l-8.81-19.45,39.59-11.08Zm24.78-45.27-39.38,11,22.3-30.48,1.37,1.14,15.79,18.16ZM407.63,533l14.19-14.45L432,537.06Zm30.77,14.68-16.28-29.71-.24.13h0l.21-.18-18.53-21.29,0-.06-.16-.09-13.68-15.73,39.49,33-7.43,3.49.23.49,7.66-3.59,9.83,8.22,1,1.18-.41,0Zm.6-.8,1.66-23.17,8.06,9.42Zm17.2,14.91,5.62-10.22,4.28,12.88Zm17.55,11.46-6.48-8.34,4.84-14.53ZM472,548.87h0v.06l-5.22,15.67-.06,0-13.13-39.52-.52.17L459.68,545l-19.25-22.5,37.92,6.64.13.36Z"/><rect class="cls-2" x="481.69" y="487.69" width="0.54" height="49.39" transform="translate(-214.07 410.56) rotate(-38.43)"/><path class="cls-2" d="M342.79,534.89a.21.21,0,0,0,0-.14l-.42-.7c0-.21,0-.42,0-.62v-.22c0-1.07,0-2.16,0-3.21,0-.44,0-.88,0-1.32,0-2.68-.07-5.6-.19-9.21a.41.41,0,0,0-.12-.28.64.64,0,0,0-.24-.24,2.53,2.53,0,0,1-.63-.63l-.21-.26c-.37-.43-.79-.83-1.19-1.2s-.68-.62-1-.93c-.55-.49-1.12-1-1.63-1.52-.74-.77-1.61-1.69-2.42-2.65a2.28,2.28,0,0,0-.44-.38l-.18-.14a1.78,1.78,0,0,1-.3-.35,2.91,2.91,0,0,0-.26-.32,2.8,2.8,0,0,0-.5-.38l.16-.47a.94.94,0,0,0,0-.3L331.51,507a.21.21,0,0,0-.29-.06l-.05,0h-.06a.21.21,0,0,0-.23.18l-.24,2.05L317,506a.21.21,0,0,0-.15,0l-9.38-9-.05,0a.2.2,0,0,0-.14,0l-29.58-4.35a.21.21,0,0,0-.24.18v0l-39.24,8.73a.21.21,0,0,0-.14.12l-6.91.38h-.06l-.06,0-12.24,5.41-.07,0a.21.21,0,0,0-.25.16l-.1,0a.95.95,0,0,0-.18.18L208.07,530.7a.21.21,0,0,0,.11.28l.12.05,3.14,14.1a.21.21,0,0,0,.25.16l.27-.06a.21.21,0,0,0,.16-.25l-.07-.32,2.89-15.32,4.37,11.57L218.14,545l-4.36,6.58a1,1,0,0,0,0,.27L218.79,573,218,574.1a.21.21,0,0,0-.14.19l-.08.11a.21.21,0,0,0,0,.29l.19.14.27.84a.21.21,0,0,0,.26.14l.06,0a.21.21,0,0,0,.21.2h2.07l1.47,3.3a.9.9,0,0,0,.32.21h6.71L233,580a.2.2,0,0,0,.16,0,.21.21,0,0,0,.08-.14l0-.27a.21.21,0,0,0,0-.16l0,0,.29-4.66,0,0a.21.21,0,0,0,.1-.28l-.11-.22a.23.23,0,0,0,0-.1l-6.93-14.16.74-6.61,8.31-15.82L248.1,546l.07,0,.07,0,11.64,2-5.32,11.54a.21.21,0,0,0,0,.17h0a.21.21,0,0,0,0,.16l4.33,6.58-2.64,6.09a.21.21,0,0,0,.11.28h0v0a.21.21,0,0,0,.25.16l1.31-.3.08,1.93-1.27,1.15h-.07l-.26.09a.21.21,0,0,0-.13.27l.94,2.77,0,.12a.21.21,0,0,0,.17.23l0,0a.21.21,0,0,0,.16,0h0l7.22.94h0a3.24,3.24,0,0,1,.33-.26.21.21,0,0,0,0-.16l-1.47-6.5,2.59-7.64.38-.13h0a.21.21,0,0,0,.16,0,.21.21,0,0,0,.13-.09l.06-.09a.26.26,0,0,0,.09-.11v0l11.08-16.13,5.94,4.22-.47,13.65a.21.21,0,0,0,.06.15l0,0,0,.06a.21.21,0,0,0,.13.1l9.48,2.76,2.19,6v.11a.21.21,0,0,0,.23.19l2.72-.24.86,2.7a.21.21,0,0,0,0,.09v.28a.21.21,0,0,0,.22.2l7.11-.28a.21.21,0,0,0,.15-.07l0,0a.21.21,0,0,0,.14-.13l.13-.35.06-.06a.21.21,0,0,0,0-.3l0,0a.24.24,0,0,0-.07-.07l-2.5-2.62,0-.7a.45.45,0,0,0-.26-.26l-1.48-.29-4.27-7.05-.23-4.1a.15.15,0,0,0,0-.08l1.12-11.68,17.72-6.26,4.91,3.86.27,4.82a.21.21,0,0,0,.17.2l3.71,6.27a.21.21,0,0,0,.13.1.21.21,0,0,0,.15,0,.21.21,0,0,0,.14,0l1.78-1.1h0a.21.21,0,0,0,.26-.14l0-.11a.24.24,0,0,0,0-.07v0l2.81-9.34,5.39-1.6.46.5a.21.21,0,0,0,.15.07.19.19,0,0,0,.15-.06l.07-.07a.21.21,0,0,0,.15,0l3.78-3.1a.21.21,0,0,0,.1-.06A.21.21,0,0,0,342,545l-.43-6.48,1.2-3.52A.21.21,0,0,0,342.79,534.89Zm-1.6,3.57a.21.21,0,0,0,0,.08l.43,6.39-3.65,3h0a.21.21,0,0,0-.16.06l0,0-.41-.44a.21.21,0,0,0-.21-.06l-5.62,1.67a.21.21,0,0,0-.14.14l-2.85,9.46-.1,0-1.75,1.08h0L323,553.7a.21.21,0,0,0-.06-.07l-.26-4.74a.21.21,0,0,0-.08-.15l-5.07-4a.21.21,0,0,0-.2,0L299.35,551l-.21.63L298,563.16a.19.19,0,0,0,0,.13l.23,4.06a.21.21,0,0,0,0,.1l4.34,7.18a.21.21,0,0,0,.14.1l1.43.27,0,0,.06,0,0,.6a.21.21,0,0,0,.06.14l2.51,2.63v0l-.08.21a.38.38,0,0,0-.12,0,.21.21,0,0,0-.08.11l-6.66.26a.21.21,0,0,0,0-.12l-1-3a.21.21,0,0,0-.22-.15l-2.68.24,0-.06-2.21-6a.21.21,0,0,0-.14-.13l-9.4-2.73a.21.21,0,0,0-.13-.18l.47-13.57a.21.21,0,0,0-.09-.18l-6.2-4.41a.21.21,0,0,0-.29.05l-11.23,16.35v0h-.12l-.58.2a.21.21,0,0,0-.13.13l-2.64,7.79a.21.21,0,0,0,0,.11l1.44,6.36a.21.21,0,0,0-.07.08l-7-.91a.21.21,0,0,0,0-.05l-.88-2.57a.21.21,0,0,0,.14-.05l1.46-1.32a.21.21,0,0,0,.07-.16l-.09-2.29a.21.21,0,0,0-.26-.2l-1.37.32,0,0,2.61-6a.21.21,0,0,0,0-.2L255,559.87a.21.21,0,0,0,0-.27L260.38,548a.21.21,0,0,0-.15-.29l-11.72-2a.21.21,0,0,0-.33-.13L235.66,537a.21.21,0,0,0-.17,0,.21.21,0,0,0-.13.11l-8.44,16.07a.21.21,0,0,0,0,.07l-.75,6.71a.21.21,0,0,0,0,.12l7,14.25h0l0,.07a.21.21,0,0,0-.08.15l-.31,4.94a.21.21,0,0,0,0,.05l-3.39-.45h-6.54a.21.21,0,0,0-.08-.1.21.21,0,0,0-.13,0l-1.3-2.93-.3-.17-.12-.07-.38-.21H219v0a.21.21,0,0,0-.21-.21h-.14l-.06,0-.23-.74a.2.2,0,0,0-.14-.13h0l0,0,0,0,.89-1.22a.21.21,0,0,0,0-.17l-5-21.08a.21.21,0,0,0,.05-.3l4.27-6.44,0-.06,1.19-4.17a.21.21,0,0,0,0-.13l-4.66-12.34a.21.21,0,0,0-.21-.13.21.21,0,0,0-.19.17l-3,15.78-.51-2.3h0l0-.09-2.47-11.09a.21.21,0,0,0-.12-.15h0L216.42,513l2.12-4.95.1,0,.07-.31,0-.1.14,0,.26.06v.07l12-5.29a.21.21,0,0,0,.35-.08l6.91-.38a.21.21,0,0,0,.16-.08.21.21,0,0,0,0-.07l39.2-8.72a.21.21,0,0,0,.16-.15l.44.06.1,0,0,.06,28.79,4.23,9.57,9.16a.21.21,0,0,0,.34-.06l13.63,3.18a.21.21,0,0,0,.17,0,.21.21,0,0,0,.09-.15l.24-2.09h0l1.43,2.1a.21.21,0,0,0,0,.29l-.15.44a.23.23,0,0,0,.1.25,3,3,0,0,1,.54.4,2.52,2.52,0,0,1,.22.28,2.09,2.09,0,0,0,.38.43l.2.15a1.89,1.89,0,0,1,.37.31c.82,1,1.69,1.89,2.43,2.67.52.54,1.1,1,1.65,1.54.34.3.69.61,1,.92s.8.76,1.16,1.17l.2.25a2.87,2.87,0,0,0,.75.74.22.22,0,0,1,.09.09.22.22,0,0,0,.06.07c.12,3.6.18,6.52.19,9.2,0,.44,0,.88,0,1.33,0,1,0,2.13,0,3.19v.22c0,.23,0,.45,0,.68a.21.21,0,0,0,0,.12l.35.59a.21.21,0,0,0,0,.3Z"/><path class="cls-2" d="M221.65,560.37a.21.21,0,0,0-.17.2l-.12,5a.21.21,0,0,0,0,.07l2.63,7.59a.21.21,0,0,0,.06.09l2.17,2a.21.21,0,0,0,.14.06h0a.21.21,0,0,0,.15-.08l1.3-1.64a.21.21,0,0,0,0-.14l0-.58a.23.23,0,0,0-.25-.2.21.21,0,0,0-.19.14l0,.06-1.54-.49a.21.21,0,0,0-.08-.16l.56-1.8a.21.21,0,0,0-.06-.22l-.07,0-4.27-9.68-.14-.18A.2.2,0,0,0,221.65,560.37Zm.23,1.15,4,9-.56,1.83a1.86,1.86,0,0,1,.1.33.21.21,0,0,0,.12.1l1.92.62v.05l-1.11,1.4-2-1.82-2.6-7.51Z"/><path class="cls-2" d="M326.81,520.57l-.16,0,1.22-11.33-5.77,10.88,1.38,4.41,4.7.82.4-4.25-1.78-.45Zm1.32.84-.33,3.44-4-.7-1.25-4,4.67-8.8-1,9.58h.11Z"/><path class="cls-2" d="M299.82,550.18l16.79-5.43.09.12.28-.22.11,0,0-.12,17.71-13.9L324,550.34l-.21.06.11.39,14.1-3.88-.11-.39-13.33,3.67,10.7-19.52,2.89,16.18.2,0,.2,0,2.2-25.8.1-.08-.09-.11,0-.36-.35,0L332,510.12l-.16.13-.2,0,3.46,19.34-16-4.76-.12.39L335,530l-18,14.13-2.23-10.39.14.05,7.39-19.88,0,0,.29-.29-.17-.17v0l-.05,0L307,497.75l-.15.14-.15-.13-18.32,21.11-9.88-25.73,0-.06-.1,0-.28.11,10,26,0,0-37.25-11.12,27.38-14.59-.19-.36L250.19,508l-17.86-5.33-.06.2h0l-.16-.12-11.4,15.58L219,508.35l.11-.52v-.07l-.26-.06-.14,0,0,.1-.07.31-.1,0L216.42,513l-7.55,17.59.25.11,2,11.22,0,.09h0l.11,0,0,.21.4.09L215,527l6.48,14.32-.13,1.94-6.68,8,.31.26,6.32-7.59-1,14.39h.2l-.16.13,1.12,1.45-.35,0-.35,4.9-5.86-13.21-.37.17,6.17,13.9-1.55,8.93.2,0-.1.18,1.32.72.38.21.12.07.3.17,3.41,1.86,0,.06.06,0,1,.53.06,0v.2l6.47.48v0l.35-.08-1.42-6.38,1.53,2,.32-.25-2.07-2.67v0h0l-5.79-7.5h.09L227,551.95h-.11l18.54-33.88.15,0,13.59,15.62L247.93,545l.29.29.25-.25,0,.11,18.79,3.16,4.25,7.76.22-.12-.17.24,0,0-11.39,8.93-4.07-5.94L267,548.66l-.28-.29-11,10.69.14.15-.17.12,4.27,6.24,4.35,14,.39-.12-4.3-13.83h0l0-.07,11.87-9.31-.05-.07V556l7.62-10.78,7.94,9.28.16-.14,1.3,3.92-.06,0-4.49,8.17.18.1-.05.2,7.93,2.13.1.29.34-.11,5.21,6.71.32-.25-.14-.18h.18l-1.32-18.46,1.72-5.17.21-.63.38-1.15Zm38.47-4.92-2.71-15.16,4.74-8.64ZM332.17,511l8.05,9.81-4.75,8.66Zm3,19.08,0,.09L335,530Zm-35.36,19.7,2.36-7.07.27-.1-.12-.35,0-.07-.05,0,0-.1,13.86,2.43Zm22.16-36.15-7.32,19.68-7.47-34.75Zm-15.25-15.28,9.85,45.82-14.48-2.54-9.55-26.94ZM288.13,520l-.07-.16.08-.09.19.06.06-.2.19-.07-.08-.2,3.7-4.27,9.39,26.51-28.12-4.92,14.3-16.48Zm-22.45,10.53,21.17-9.93-13.86,16-.12,0Zm-15.8-22.2.12.22.23-.12,37.47,11.19-.19.21-22.18,10.4-31.71-26.52-.29-.33Zm-29.53,10.36h.09l-5.23,7.14,3.55-16.37Zm-8.92,22.59-2-11h0l8.87-20.68Zm8.12,33.3,1.45-8.31,3.58,11.06Zm12.63,4.18-5.94-.44,4.44-6.34Zm-1.75-7.14-4.5,6.43-.82-.45-3.81-11.77-.23.07,0-.2h0v0l.06-.37h0l.38-5.26.26.34.14.18ZM225,563.84l-4.26-5.52,1-14.87,0-.05,0,0,.08-1.23,4.51,10-5.55,6,.3.28,5.42-5.86Zm1.58-12.19-4.69-10.37v-.17h-.09l-6.6-14.58,29.68-8.31Zm18.58-33.94L215.59,526l16.72-22.85,1,.86,11.84,13.61Zm3.61,27.1L259.37,534,267,547.89Zm23.07,11-12.21-22.28-.18.1h0l.15-.13-13.89-16,0,0-.12-.06-10.26-11.79,29.61,24.76L259.36,533l.17.37,5.75-2.69,7.37,6.16.76.88-.3,0Zm.45-.6,1.25-17.37,6,7.06Zm12.9,11.18,4.21-7.66,3.21,9.65ZM298.31,575l-4.86-6.26,3.63-10.89ZM297,556.74h0v0l-3.92,11.75h0l-9.84-29.63-.39.13,4.94,14.86L273.32,537l28.43,5,.1.27Z"/><rect class="cls-2" x="304.25" y="510.87" width="0.41" height="37.03" transform="translate(-263.09 303.92) rotate(-38.43)"/><path class="cls-2" d="M194.93,546.61a.15.15,0,0,0,0-.11l-.31-.52c0-.15,0-.31,0-.46v-.16c0-.79,0-1.6,0-2.38,0-.33,0-.65,0-1,0-2-.05-4.16-.14-6.83a.3.3,0,0,0-.09-.21.48.48,0,0,0-.18-.18,1.88,1.88,0,0,1-.47-.47l-.16-.19c-.28-.32-.59-.61-.88-.89l-.76-.69c-.41-.36-.83-.73-1.21-1.13-.55-.57-1.19-1.25-1.79-2a1.69,1.69,0,0,0-.33-.29l-.14-.1a1.32,1.32,0,0,1-.22-.26,2.16,2.16,0,0,0-.19-.24,2.07,2.07,0,0,0-.37-.28l.12-.35a.7.7,0,0,0,0-.23l-1.23-1.8a.16.16,0,0,0-.22,0l0,0h0a.16.16,0,0,0-.17.14l-.18,1.52-10.09-2.36a.16.16,0,0,0-.11,0l-7-6.66,0,0a.15.15,0,0,0-.1,0l-21.94-3.23a.16.16,0,0,0-.18.13v0l-29.11,6.48a.16.16,0,0,0-.11.09l-5.13.28h-.09l-9.08,4h-.05a.16.16,0,0,0-.18.12l-.07,0a.7.7,0,0,0-.13.13L95,543.5a.16.16,0,0,0,.08.21l.09,0,2.33,10.47a.16.16,0,0,0,.19.12l.2,0a.16.16,0,0,0,.12-.19l-.05-.24,2.14-11.37,3.24,8.59-.86,3L99.22,559a.71.71,0,0,0,0,.2l3.75,15.71-.59.81a.16.16,0,0,0-.1.14l-.06.08a.16.16,0,0,0,0,.22l.14.1.2.62a.16.16,0,0,0,.2.1l0,0a.16.16,0,0,0,.16.14h1.53l1.09,2.45a.67.67,0,0,0,.24.15h5l2.7.36a.15.15,0,0,0,.12,0,.16.16,0,0,0,.06-.1l0-.2a.15.15,0,0,0,0-.12l0,0,.22-3.46h0a.16.16,0,0,0,.07-.21l-.08-.16a.17.17,0,0,0,0-.07l-5.14-10.5.55-4.9,6.17-11.74,9.26,6.32,0,0,.05,0,8.64,1.49-3.95,8.56a.16.16,0,0,0,0,.13h0a.16.16,0,0,0,0,.12l3.21,4.88-2,4.52a.16.16,0,0,0,.08.2h0v0a.15.15,0,0,0,.19.12l1-.22.06,1.44-.94.85h0l-.19.07a.16.16,0,0,0-.1.2l.7,2.05v.09a.16.16,0,0,0,.12.17l0,0a.16.16,0,0,0,.12,0h0l5.36.69h0a2.4,2.4,0,0,1,.24-.2.16.16,0,0,0,0-.12l-1.09-4.82,1.92-5.67.28-.1h0a.16.16,0,0,0,.12,0,.16.16,0,0,0,.1-.07l0-.07a.2.2,0,0,0,.07-.08v0l8.22-12,4.4,3.13-.35,10.13a.15.15,0,0,0,0,.11l0,0,0,0a.16.16,0,0,0,.09.07l7,2,1.63,4.43h0v.07a.16.16,0,0,0,.17.14l2-.18.64,2a.16.16,0,0,0,0,.07v.2a.16.16,0,0,0,.16.15l5.28-.2a.15.15,0,0,0,.11,0l0,0a.16.16,0,0,0,.11-.1l.1-.26,0,0a.16.16,0,0,0,0-.22l0,0,0-.05-1.85-1.95,0-.52a.34.34,0,0,0-.19-.19l-1.1-.21-3.17-5.23-.17-3a.11.11,0,0,0,0-.06l.83-8.67L176,554.22l3.64,2.87.2,3.57a.16.16,0,0,0,.13.14l2.75,4.65a.16.16,0,0,0,.1.07.15.15,0,0,0,.11,0,.16.16,0,0,0,.1,0l1.32-.82h0a.16.16,0,0,0,.2-.1l0-.08,0-.05v0l2.09-6.93,4-1.19.34.37a.15.15,0,0,0,.11,0,.14.14,0,0,0,.11,0l.06-.05a.16.16,0,0,0,.11,0l2.81-2.3.07,0a.16.16,0,0,0,0-.11l-.32-4.81.89-2.61A.16.16,0,0,0,194.93,546.61Zm-1.19,2.65a.15.15,0,0,0,0,.06l.32,4.74-2.71,2.22h0a.15.15,0,0,0-.12,0l0,0-.3-.33a.16.16,0,0,0-.16,0l-4.17,1.24a.16.16,0,0,0-.1.1l-2.11,7-.07,0-1.3.8h0l-2.72-4.61,0-.05L180,557a.16.16,0,0,0-.06-.11l-3.76-3a.15.15,0,0,0-.15,0l-13.3,4.7-.15.46-.82,8.53a.14.14,0,0,0,0,.09l.17,3a.15.15,0,0,0,0,.07l3.22,5.33a.16.16,0,0,0,.1.07l1.06.2v0l0,0,0,.45a.16.16,0,0,0,0,.1l1.86,2h0l-.06.16a.28.28,0,0,0-.09,0,.16.16,0,0,0-.06.08l-4.94.19a.16.16,0,0,0,0-.09l-.71-2.23a.15.15,0,0,0-.16-.11l-2,.17,0,0-1.64-4.46a.16.16,0,0,0-.1-.1l-7-2a.16.16,0,0,0-.1-.13l.35-10.07a.16.16,0,0,0-.07-.13l-4.6-3.27a.16.16,0,0,0-.22,0l-8.33,12.13h-.09l-.43.15a.16.16,0,0,0-.1.1l-2,5.78a.16.16,0,0,0,0,.08l1.07,4.72a.16.16,0,0,0-.05.06l-5.22-.68v0l-.65-1.91a.16.16,0,0,0,.1,0l1.09-1a.16.16,0,0,0,.05-.12l-.07-1.7a.16.16,0,0,0-.19-.15l-1,.23,0,0,1.93-4.46a.16.16,0,0,0,0-.15l-3.18-4.83a.16.16,0,0,0,0-.2l4-8.61a.16.16,0,0,0-.11-.22l-8.69-1.5a.16.16,0,0,0-.24-.1l-9.28-6.33a.16.16,0,0,0-.13,0,.16.16,0,0,0-.1.08L109,560.15a.15.15,0,0,0,0,.06l-.56,5a.16.16,0,0,0,0,.09l5.18,10.57h0l0,.05a.16.16,0,0,0-.06.11l-.23,3.66a.16.16,0,0,0,0,0l-2.52-.33H106a.16.16,0,0,0-.06-.08.16.16,0,0,0-.09,0l-1-2.17-.22-.12-.09,0-.28-.16h-1.13v0a.16.16,0,0,0-.16-.16h-.15l-.17-.55a.15.15,0,0,0-.1-.1h0v0l0,0,.66-.91a.16.16,0,0,0,0-.13l-3.73-15.64a.16.16,0,0,0,0-.22l3.17-4.78,0,0,.88-3.09a.16.16,0,0,0,0-.1l-3.46-9.15a.15.15,0,0,0-.16-.1.16.16,0,0,0-.14.13l-2.2,11.71-.38-1.7h0v-.07l-1.83-8.23a.16.16,0,0,0-.09-.11h0l5.85-13.11,1.58-3.67.08,0,.05-.23,0-.08.1,0,.19,0v0l8.88-3.92a.16.16,0,0,0,.26-.06l5.13-.28a.16.16,0,0,0,.12-.06l0-.05,29.08-6.47a.16.16,0,0,0,.12-.11l.33,0,.07,0,0,0,21.36,3.14,7.1,6.79a.16.16,0,0,0,.25,0L186,527.89a.15.15,0,0,0,.12,0,.16.16,0,0,0,.07-.11l.18-1.55h0l1.06,1.56a.16.16,0,0,0,0,.21l-.11.33a.17.17,0,0,0,.08.19,2.25,2.25,0,0,1,.4.3,1.87,1.87,0,0,1,.16.2,1.55,1.55,0,0,0,.28.32l.15.11a1.4,1.4,0,0,1,.27.23c.61.72,1.25,1.4,1.81,2,.38.4.81.78,1.23,1.14l.76.68c.3.28.59.56.86.87l.15.18a2.13,2.13,0,0,0,.56.55.17.17,0,0,1,.07.07l0,.05c.09,2.67.14,4.84.14,6.82,0,.33,0,.66,0,1,0,.78,0,1.58,0,2.37v.17c0,.17,0,.34,0,.51a.15.15,0,0,0,0,.09l.26.43a.16.16,0,0,0,0,.22Z"/><path class="cls-2" d="M105.05,565.52a.16.16,0,0,0-.13.15l-.09,3.71a.16.16,0,0,0,0,.05l1.95,5.63a.16.16,0,0,0,0,.06l1.61,1.49a.16.16,0,0,0,.11,0h0a.16.16,0,0,0,.11-.06l1-1.22a.16.16,0,0,0,0-.1l0-.43a.17.17,0,0,0-.18-.15.16.16,0,0,0-.14.11l0,0-1.14-.37a.16.16,0,0,0,0-.07l0-.05.41-1.34a.16.16,0,0,0,0-.16l0,0-3.17-7.18-.1-.13A.15.15,0,0,0,105.05,565.52Zm.17.85,3,6.7-.42,1.36a.16.16,0,0,0,0,.12l0,.05a.16.16,0,0,0,0,.07.16.16,0,0,0,.09.08l1.42.46v0l-.82,1-1.46-1.35-1.93-5.57Z"/><path class="cls-2" d="M183.07,536H183l.91-8.41-4.28,8.07,1,3.27,3.49.61.3-3.15-1.32-.33Zm1,.62-.24,2.55-3-.52-.93-3,3.47-6.53-.77,7.11h.08Z"/><path class="cls-2" d="M163.05,558l12.46-4,.07.09.2-.16h.08l0-.09L189,543.46l-8,14.61-.16,0,.08.29,10.46-2.88-.08-.29L181.41,558l7.94-14.48,2.15,12,.15,0h.15l1.63-19.14.08-.06-.06-.08,0-.27-.26,0-6.29-7.67-.12.1-.15,0,2.57,14.35-11.85-3.53-.09.29L189.13,543l-13.36,10.49-1.66-7.71.1,0,5.48-14.75,0,0,.22-.21-.12-.13v0h0l-11.44-11.66-.11.11-.11-.1-13.59,15.66-7.33-19.09,0,0-.07,0-.21.08L154.3,535l0,0-27.64-8.25L147,515.93l-.14-.27-20.59,11-13.25-4,0,.14h0l-.12-.09-8.46,11.56-1.27-7.37.08-.38v0l-.19,0-.1,0,0,.08-.05.23-.08,0-1.58,3.67-5.6,13.05.19.08,1.51,8.33v.07h0l.08,0,0,.16.3.06,2.46-11.32,4.81,10.62-.1,1.44-5,5.95.23.19,4.69-5.63L104,564h.15l-.12.09.83,1.08-.26,0-.26,3.64L100,559l-.28.12,4.58,10.31-1.15,6.63.15,0-.07.13,1,.53.28.16.09,0,.22.12,2.53,1.38v0h0l.72.39,0,0v.15l4.8.35v0l.26-.06-1.05-4.73,1.14,1.47.24-.19-1.53-2v0h0l-4.3-5.57h.07l1.21-9.09h-.08l13.76-25.14.11,0,10.08,11.59-8.31,8.46.22.21.18-.19v.08l13.94,2.35,3.16,5.76.16-.09-.13.18h0l-8.45,6.63-3-4.41,8.09-7.84-.21-.22-8.18,7.93.11.11-.13.09,3.17,4.63,3.23,10.39.29-.09-3.19-10.26h0l0-.05,8.81-6.91,0-.05v-.12l5.65-8,5.89,6.89.12-.1,1,2.91,0,0L151.81,570l.13.07,0,.15,5.89,1.58.07.22.25-.08,3.86,5,.24-.19-.11-.14h.14l-1-13.7,1.28-3.83.15-.46.28-.85Zm28.55-3.65-2-11.25,3.52-6.41Zm-4.55-25.43,6,7.28-3.52,6.43Zm2.2,14.16,0,.07-.08-.1ZM163,557.65l1.75-5.25.2-.07-.09-.26,0,0h0l0-.08,10.29,1.8Zm16.44-26.82L174,545.42l-5.54-25.78Zm-11.31-11.34,7.31,34-10.75-1.88-7.08-20Zm-13.77,16.05-.06-.12.06-.07.14,0,0-.15.14-.05-.06-.15,2.75-3.17,7,19.67-20.86-3.65,10.61-12.23Zm-16.65,7.81L153.44,536l-10.28,11.85-.09,0ZM126,526.88l.09.17.17-.09,27.8,8.3-.14.16-16.46,7.72-23.53-19.67-.21-.25Zm-21.91,7.69h.06l-3.88,5.3,2.63-12.14Zm-6.61,16.76L96,543.21h0l6.58-15.34Zm6,24.71,1.07-6.17,2.66,8.21Zm9.37,3.1-4.41-.32,3.29-4.7Zm-1.3-5.29-3.34,4.77-.61-.33-2.83-8.73-.17.06,0-.15h0l0-.27h0l.28-3.9.2.25.1.13Zm-4.06-5.76L104.35,564l.74-11,0,0,0,0,.06-.91,3.35,7.4-4.12,4.45.22.21,4-4.35Zm1.17-9-3.48-7.69v-.13h-.07l-4.9-10.82,22-6.17Zm13.78-25.18L100.56,540,113,523l.76.64,8.79,10.1ZM125.14,554l7.89-8,5.65,10.32Zm17.12,8.17-9.06-16.53-.13.07h0l.11-.1-10.31-11.85,0,0-.09,0-7.61-8.75,22,18.37L133,545.22l.13.27,4.26-2,5.47,4.57.56.66-.23,0Zm.34-.45.93-12.89L148,554Zm9.57,8.3,3.13-5.69,2.38,7.16Zm9.76,6.38-3.6-4.64,2.69-8.08Zm-1-13.54h0v0l-2.91,8.72h0l-7.3-22-.29.1,3.66,11-10.71-12.52,21.1,3.69.07.2Z"/><rect class="cls-2" x="166.34" y="528.79" width="0.3" height="27.47" transform="translate(-301.14 221.01) rotate(-38.43)"/><polygon class="cls-2" points="1402.16 582.16 1400.74 0 1167.2 37.38 1162.33 351.6 1082.98 522.84 1037.38 540.38 999.45 454.56 999.45 245.15 973.83 229.53 932.62 256.56 932.62 470.6 888.11 520.85 735.79 556.19 245.96 577.74 0.16 577.74 0.16 843.91 1400.16 843.91 1400.16 582.17 1402.16 582.16"/><g class="cls-3"><path class="cls-4" d="M1687.74,652.64a305.69,305.69,0,0,1-115.08-.51l-94.33-18.47a679.85,679.85,0,0,0-242.17-3.56l-74.84,12.4a232.28,232.28,0,0,1-89.92-2.75l-40.91-9.35a232.73,232.73,0,0,0-110.94,1.71L851,650l-14.26,2.66a305.69,305.69,0,0,1-115.08-.51l-94.33-18.47a679.85,679.85,0,0,0-242.17-3.56l-74.84,12.4a232.28,232.28,0,0,1-89.92-2.75L179.5,630.4a232.73,232.73,0,0,0-110.94,1.71L0,650v80.69H1702V650Z"/><path class="cls-5" d="M1546.33,677l-41.2-13.82A259.54,259.54,0,0,0,1345.81,661l-69.61,21.29a259.2,259.2,0,0,1-135.56,4.57l-59.78-14A259,259,0,0,0,953.38,675L851,694.86C799.43,707.48,745.95,694,695.33,677l-41.2-13.82A259.54,259.54,0,0,0,494.81,661L425.2,682.25a259.2,259.2,0,0,1-135.56,4.57l-59.78-14A259,259,0,0,0,102.38,675L0,702.84v41.52H1702V683.61A278.83,278.83,0,0,1,1546.33,677Z"/></g></g></g></svg>