<?xml version="1.0" standalone="no"?>
<!DOCTYPE svg PUBLIC "-//W3C//DTD SVG 20010904//EN"
 "http://www.w3.org/TR/2001/REC-SVG-20010904/DTD/svg10.dtd">
<svg version="1.0" xmlns="http://www.w3.org/2000/svg"
 width="700.000000pt" height="700.000000pt" viewBox="0 0 700.000000 700.000000"
 preserveAspectRatio="xMidYMid meet">
<metadata>
Created by potrace 1.11, written by Peter Selinger 2001-2013
</metadata>
<g transform="translate(0.000000,700.000000) scale(0.100000,-0.100000)"
fill="#000000" stroke="none">
<path d="M1409 5649 c-79 -12 -151 -70 -178 -142 -13 -34 -19 -96 -27 -287 -3
-85 -8 -182 -9 -215 -6 -109 31 -193 103 -239 56 -35 49 -34 397 -51 55 -3
152 -7 215 -10 105 -4 196 -8 430 -20 47 -3 137 -7 200 -10 63 -4 160 -8 215
-10 55 -2 147 -6 205 -9 165 -9 349 -18 640 -30 63 -3 160 -8 215 -11 55 -3
152 -7 215 -10 63 -3 153 -7 200 -10 47 -2 146 -7 220 -10 74 -3 173 -8 220
-10 79 -4 188 -9 400 -20 47 -2 146 -7 220 -10 74 -3 171 -8 215 -10 44 -2
139 -7 210 -10 72 -3 164 -8 205 -10 41 -2 138 -7 215 -10 77 -3 174 -8 215
-10 293 -15 359 -18 389 -16 97 5 188 90 205 191 3 19 8 85 11 145 2 61 7 171
11 246 7 155 -4 209 -56 266 -52 57 -98 73 -235 78 -49 3 -133 7 -185 9 -88 5
-241 12 -435 21 -44 2 -132 6 -195 9 -63 3 -169 8 -235 11 -66 3 -160 7 -210
10 -49 3 -139 7 -200 10 -60 3 -155 7 -210 10 -55 3 -149 7 -210 10 -117 5
-276 13 -415 20 -47 2 -141 7 -210 10 -69 3 -165 7 -215 10 -106 6 -308 15
-420 20 -155 6 -351 16 -420 20 -38 2 -140 7 -225 11 -85 3 -184 7 -220 9 -36
2 -126 6 -200 10 -74 3 -166 8 -205 10 -38 2 -133 7 -210 10 -77 3 -174 8
-215 10 -41 2 -142 7 -225 10 -82 4 -152 8 -155 9 -3 1 -26 -1 -51 -5z"/>
<path d="M134 4418 c-57 -9 -89 -24 -113 -49 -19 -21 -21 -35 -21 -150 0 -121
1 -129 25 -157 50 -60 -137 -56 2985 -56 l2865 1 47 21 c71 31 77 47 76 187 0
140 -7 157 -76 188 l-47 21 -2851 1 c-1569 0 -2869 -3 -2890 -7z"/>
<path d="M760 3779 c-67 -7 -92 -22 -119 -70 -21 -36 -21 -48 -19 -410 3 -352
4 -376 23 -403 44 -66 -136 -61 2282 -61 l2192 0 31 30 c57 54 57 49 56 450
l-1 370 -23 33 c-50 69 143 63 -2225 65 -1178 1 -2167 -1 -2197 -4z"/>
<path d="M6308 2775 c-2 -1 -115 -6 -253 -10 -137 -4 -293 -8 -345 -10 -52 -2
-187 -6 -300 -9 -238 -7 -457 -14 -655 -21 -77 -2 -223 -7 -325 -10 -183 -5
-341 -10 -640 -20 -85 -3 -227 -7 -315 -10 -88 -3 -232 -7 -320 -10 -185 -6
-403 -12 -660 -20 -99 -3 -238 -7 -310 -10 -71 -2 -218 -7 -325 -10 -366 -11
-378 -12 -411 -36 -54 -38 -60 -68 -54 -262 9 -274 11 -294 35 -327 39 -55 61
-60 237 -55 87 3 228 7 313 10 143 4 323 10 640 20 69 2 220 7 335 10 116 4
257 8 315 10 58 2 197 6 310 10 113 3 259 8 325 10 66 2 203 7 305 10 102 3
255 8 340 10 85 3 225 7 310 10 85 3 229 7 320 10 91 2 251 7 355 11 312 10
390 12 620 19 319 10 317 10 355 77 22 39 22 45 16 251 -4 117 -9 227 -13 245
-7 41 -62 102 -94 103 -13 0 -43 2 -66 4 -23 1 -43 1 -45 0z"/>
<path d="M1090 1831 c-37 -5 -81 -40 -96 -77 -10 -24 -14 -80 -14 -197 0 -154
1 -166 23 -198 47 -71 -170 -65 2433 -65 l2349 1 31 22 c54 39 62 68 62 246 0
182 -9 216 -69 251 -33 19 -79 20 -2364 20 -1281 1 -2341 -1 -2355 -3z"/>
</g>
</svg>
