<svg xmlns="http://www.w3.org/2000/svg" xmlns:xlink="http://www.w3.org/1999/xlink" width="1440" height="1023" viewBox="0 0 1440 1023">
    <defs>
        <path id="a" d="M0 0h1440v1024H0z"/>
    </defs>
    <g fill="none" fill-rule="evenodd" transform="translate(0 -1)">
        <mask id="b" fill="#fff">
            <use xlink:href="#a"/>
        </mask>
        <path fill="#424242" d="M925.977 119.107c-92.497 49.576-212.624 46.363-317.935 20.504-105.311-25.86-201.813-50.257-304.52-82.849C218.03 29.526 128.135 11.622 36.038 3.513-94.699-7.963-240.652 5.961-331.548 86.141c-101.507 89.208-93.699 250.18 16.017 332.042 55.859 41.62 128.936 62.124 192.603 94.563C-59.261 545.186-.2 599.2-5.605 661.936c-5.005 58.145-63.467 102.673-123.93 130.674-46.65 21.575-104.31 45.293-109.916 89.973-5.406 43.303 42.845 77.273 89.094 96.554 150.759 63.04 336.354 62.428 486.512-1.53 53.457-22.952 102.709-53.25 158.768-71 147.555-46.67 309.926.305 466.091 17.445 132.74 14.536 267.882 7.037 396.418-22.036 77.283-17.444 154.963-44.068 209.22-93.798 39.244-35.806 63.667-81.251 86.491-126.084 24.426-47.74 47.853-95.94 70.475-144.293 13.614-29.073 26.828-58.758 30.434-89.82 6.404-56.462-20.424-112.16-56.662-159.747-86.29-113.078-231.444-192.493-388.81-212.691-157.366-20.198-290.105-6.053-382.603 43.524z" mask="url(#b)"/>
    </g>
</svg>
