<svg xmlns="http://www.w3.org/2000/svg" width="518" height="14" viewBox="0 0 518 14">
    <path fill="#FFF" fill-rule="evenodd" d="M430.334 12.05c-.628.16-.838-.061-.924-.291.296-.02.643-.058 1.098-.135.017-.042.055-.09.074-.137-.06.214-.129.416-.248.564m-8.389-7.792c.484.044 1.085.052 1.721.044.14.388-.012.788-.41.768.216-.26-.719-.484-1.31-.812m3.965-.018v-.022c.406-.025.753-.048.975-.064-.203.016-.485.039-.975.086m47.19-3.388c-2.022-.032-.95 1.446-1.379 2.294-2.41.42-1.116-1.087-1.937-1.844-1.506.392-2.66 1.748-3.783 1.69-.084-.243-.302-.332-.046-.636-1.592 1.174-4.726.057-6.58 1.533a.845.845 0 0 1-.242-.367c.3.74.346 1.493.285 2.028-.906.025-1.682.934-2.022-.032.555.028.601-.362.861-.662l-.948.418c-.855-1.388 1.295-.48 1.295-1.507-1.85.45-4.007 1.6-5.426 1.208-.296-1.36 3.316-.457 1.424-1.665l2.195.518c-1.678-2.142 1.333.15-.208-2.142-2.888-.394-3.23.692-6.11.296-.649.755.214 1.116-.434 1.872-4.094 1.356-3.223-3.416-6.233-1.607-.779.906-1.082 2.624-3.224 1.715l.73-1.536c-2.795-.152-1.595 2.208-4.523 1.175.52-.604 2.197-.51 1.774-.692-1.897-1.213-1.34.87-2.799.87l-.302-1.36c-2.977.215-6.255 1.197-9.552 1.445.183-.404.747-.83-.023-1.246-4.158.68-8.875-.166-12.886-.972l-1.53 1.174c-.358-.013-.663-.531-.277-.758-1.563-.446-.08.745-.832 1.206-.889.082-1.175-.675-.61-1.028-2.759.996-7.858 2.145-10.763.887l.567-.348c-2.263-.477-2.554 2.406-4.653 1.31l.403-.207c-4.91-.51-10.338.566-14.085-1.206-.712 1.69-4.86-.754-5.176 1.604-2.805-1.168-2-1.59-5.95-2.376-1.055-.108-1.573 1.473-2.876 1.719l-.033-1.232-1.77 1.293-.942-1.475-1.223.317c.487.073 1.036.553.962.908-1.91.558-4.657-.86-4.705-1.49l-4.52 1.043c.101-.497.858-.666 1.456-.983-2.413 1.258-.438-1.3-2.649-.145.297.28-.16.734-.21.983-1.103-.745-3.612-.752-5.468-.438l.356-.85c-3.352-.216-7.067.408-10.83.392 1.35.396 1.04 1.87-.063 2.01l-.44-1.302c-.714.806 1.151.492-.312 1.478-1.405-.15-.944-1.481-.138-1.906l-1.708.452c-.1-.39.3-.594.405-1.09-.702.81-2.95-1.308-3.96.098l-.098-.388c-3.76-.011-5.467.438-8.53.503-.06 1.125-1.259.875-2.172 1.784-2.25-.36-4.75-1.243-7.464-1.147-1.906.559-.557.953-1.414 1.62-.14-1.024-2.85-.928-1.444-1.664-3.256.167-4.159.205-8.277 1.037.446.419.95.6.69.95-.748.169-1.7-.43-1.594-.921l.197-.106c-4.622 1.537-10.668-2.987-14.348-.851l.206-.105-3.818 1.112c-1.756-.177 1.054-.77-.246-1.404-4.117 1.71-6.506-.247-9.896.89-2.624-3.021-9.314.214-12.857-1.716l.205.712c-.915.698-1.107-.407-1.782-.57.096.553.993.64.425 1.026-7.757.859-16.01-1.04-23.962-1.682-2.908-.191-1.65 3.682-5.316 1.983l1.04-1.321c-5.87 1.584-12-.055-17.748 1.29.343-.305.353-.701.914-.696-1.214-.96-4.489-.047-4.509.736-.895-.09-.207-.708-.758-1.106-1.218-.567-3.056 1.225-3.703.27-.11-.155.342-.311.565-.385-.794.464-3.696-.12-2.936.989-2.157-.53-4.126.492-5.846-.164-1.122 1.239-3.69-.595-4.048 1.156.154-1.81-3.78-1.46-5.144-.61.457-.546-1.186-.566-.65-1.323-1.557.026-2.983.36-2.712 1.29-2.867-2.164-5.762 1.743-7.376-1.031-4.623.973-8.9 1.63-13.058 2.054.15-1.804 4.596-.18 4.418-2.074-3.945.744-6.22 2.292-10.13 1.857-1.015-.247.573-.783.915-1.091-3.94.743-7.619-.164-11.126.818.01-.168.39-.351.746-.488-.69.058-1.607-.266-1.529.555l.674-.223c1.103 1.19-2.745 2.486-2.869 3.115 1.173-2.35-3.464-.59-1.6-3.56-.455.154-1.026.543-.92 1.09-.676-.16-.89-.48-.206-1.103-2.475.446-1.596 1.319-3.838 1.3.008-.398.46-.551.692-1.018-1.135.774-2.276 1.549-4.172 1.213.115-.24-.105-.551.46-.545-3.255.12-5.548 2.063-9.119 1.315 1.053-1.726-1.215-.57-1.404-2.062l-1.92.446.771.724c-1.682-.025-3.168 1.063-4.615.573l1.25-.615-3.15.283 1.782.567c-1.7.769.183 1.889-2.056 1.473.455-.153-1.682-.018-2.559-.898 0 0 .006 0 .006-.004-.832.476-1.689.976-2.932.606-.323-.478.26-1.652.05-1.97-.82 1.249-3.94.347-4.979 1.677.346-.313.365-1.096.25-1.257l-.688 1.014c-.779-.324-.894-.481-.767-1.106-2.343-.186.744 1.894-2.037 1.078.218-.082.113-.234.57-.388-2.795-.424-5.399.644-7.966.145-.757-1.503 2.243-.368 1.376-1.636-3.7.273-7.664 1.8-11.245 1.447l.667.166c-.497 2.122-2.667-1.048-4.479-.048.443-.157.581-1.177.462-.941-2.453-.341-5.016.523-8.732 1.189l.46-.545c-1.445-.487-3.806-.281-5.368-.53-.464.545-1.356.457-.814 1.249-4.815-3.103-9.184 1.665-13.455-.92.511-.006 1.218-.478.81-.481l-3.637.503c.287.925.476.56 1.241 1.279-.46.548-1.488.973-2.39.973 1.637-.612-.014-1.484-.72-2 .118.283-.125.596-.065.884-1.9-1.645-.318 1.859-2.913.752l.138-.486c-.972.248-1.867.89-2.914.75-.435-1.068 1.034-.497 1.1-1.378-1.472.062-2.903 2.026-4.234.96.625-.297 1.523-.302 2.148-.598-1.45-1.256-1.618-.937-2.695-1.136l.105.028-2.49-.568.634.34c-1.84 2.789-3.748.51-6.229 2.336 2.412-1.73.4-1 .584-2.211-.633-.336-1.596-.714-1.322-1.055-1.172.978-1.957-.77-3.61.659-.074-.39-1.254-.038-.989-1.017-1.525.306.36.678.231 1.168-2.349 1.332-5.52-1.616-8.899.212-2.915.753-3.453 2.068-6.157 2.723-.912-.624.747-1.421.747-1.421-1.47-.574-2.579-.468-3.966-.021.281-.341-.009-.63-.432-1.067-1.113.102-.744 1.42-2.213.845.252-.435.575-1.13 1.112-1.566-1.31.358-2.607 1.087-3.965 1.438-.36-.68.82-1.031 1.298-1.475-1.526.307-3.955.617-4.426 1.692l.98.385c-.558.05-.287-.925.123-1.121 1.31-.844 1.887.373 1.961.764l-.968.25c.994 2.288 3.885-.367 5.832-.234l-.81 1.664L9.84 6.166c.425.434.716 1.363-.246 1.612 1.395.822 1.235-.591 2.434.325.133.142.073.222-.049.289l1.364-.496c-.268.349.226 1.176-.612.934 2.45.96 3.948-1.248 4.87.013l-.205.103c3.396-.563.328-1.222 2.876-2.656l1.714 3.014.334-1.222c.351.044 1.044.136.915.624 1.305-.836-.22-.531.536-1.32 1.686 1.112 4.65-.521 5.03 1.425.605-.928-1.613-.716.187-1.362.514 2.093 2.081-.358 3.622.602-.472 1.08-1.932.509-.39 1.472.928-1.826 3 .4 4.3.05.06-1.453 2.825-.606 5.005-1.09-.137.489 4.104.798 6.132 1.325l-.059.243c.392-1.47 2.485-1.191 4.008-1.495-.059.879-.334 1.225-1.159 1.619l1.433-.007c.338-.471.785-.72 1.714-.887l-.36 1.098c1.906-.06 3.84-1.292 6.291-.56.14-1.024-1.95-2.852.644-3.536.096.554.191 1.5-.487 1.728.222-.072.793-.46 1.241-.223l-1.036.932c1.117.408.584-.78 1.477-.692-.017.79.661.563.533 1.19-.228.076-.779-.326-1.122-.017 1.008.142 2.225.61 2.627 1.208-.088-.45 0-1.063.738-1.166 1.907-.056.653.95 1.765 1.357.461-.55 1.678.02 1.71-1.161.558.006.66.556.876.876.987-.521 4.61-.15 3.497-1.405l-.253-.083c.047-.023.103-.025.162-.05h-.009.01c3.232-1.175 6.716.668 9.925.162l-.006.395c1.916-.451 4.264-.266 5.632-1.116.567 0 1.337.72 1.095 1.19 1.464-.295 1.63-.74 3.743-.086-1.472.688.508.609-1.509.503 1.904.34 2.334.974 4.377-.106-.695 1.012 1.432 1.274 2.336.972l-1.333-.724c1.017-.147 1.906-.058 2.81.028l-.488 1.33c3.893 1.62 7.021-2.753 9.985-.044 1.03-.93-2.115-.655-1.194-1.743 1.791.179 3.657 2.089 4.217 2.093 2.453.737 2.29-1.944 4.857-1.44-.328-.474-.639-1.742 1.28-2.19 1.792.177 2.202 1.992 1.071 2.373-.429.04-.636-.111-.619-.271-.579.172-1.339.376-.629.89l.233-.474c.888.484 3.354.433 2.775 1.212 1.355-.452.58-.78-.424-1.025 2.3.688 3.592.02 5.957.483-.376-.262-.722-.82-.347-.815 3.47.588 1.527-.9 3.88-1.108 1.334.723-.48 1.727 1.887 1.122 1.446.489.306 1.259-.268 1.645 2.157-.915 4.03.602 5.261.77l-1.136.383c.68-.228 1.236-.221 1.802-.22l-.648-.948c.667.166 1.231.169 1.22.564.686-.622-.528-1.58.837-2.43.89.483 2.708-.517 3.014.743-2.796-.428.31 1.265-2.057 1.468.456-.15 1.013-.144 1.682.023.101.14-.094.26-.277.333 2.676 1.126 1.23-1.425 4.004-1.396-.353.71.642 1.348 1.095 1.196-1.118-.014-.535-1.185.491-1.73 1.778.554 1.932-.41 2.864-.345l-1.063-.26c.36-.71 1.25-.617 2.49-.841.105.553-1.127.38-.685.624 1.377-1.248 3.111 1.292 5.03.45.89.482.085 1.335.867 1.66 2.151-.92 2.33.974 4.59.213-.652-.954-.765-.72.827-1.65l-3.717.67 2.385-1.387c-1.12-.014-2.368.6-3.039.438 1.136-.78 1.02-.541.483-1.333 1.534 1.43 3.043-.834 4.817.132l-.054 2.363c2.668 1.053 4.74-1.212 8.203-.618l-1.114-.411c.465-.938 2.14-.13 3.26-.511-.103.79.598 1.077 1.076 1.568-.058-.586 2.536.054 2.85-1.523l1.546 1.04c2.797.425 3.192-2.25 5.881-1.982-.81.859.412 1.419-1.39 2.032.9.008 1.705.153 1.72-.394.524.494 2.488-1.065 3.313-.315.38-.346.503-1.173 1.51-1.108.11.16-.004.39-.004.39.004-.39 1.578-.531.697-1.405 2.765 2.464 7.73-.18 10.136 1.938 1.96-.266 4.32-.52 6.098-.577-.114.236-.006.393-.343.31 2.453.736 1.51-2.266 4.3-1.446 1.427 1.277-1.483.69-.593 1.174.387 2.598 3.37-.355 5.247 1.162l-.454.153c1.436.883 3.503-.984 5.85-.8 0 0-.115.23-.014.394 1.604-1.325 4.641-1.764 6.898-2.132-.702 1.017-1.025.538-.596 1.57 1.012-.145-.297-1.658 1.722-1.947.657.557 2.114 1.043 2.307 2.146l-1.905.059c.976 1.427 2.466-.05 3.47.199l-.128.624c2.92-.203 2.96-1.774 6.097-1.662l-.325-.472c1.715-1.556 1.438.876 3.15-.282l.516 1.58c1.131-.381 3.963-1.527 5.991-1.824-1.149 1.17-3.523 1.77-4.992 2.465 1.121.012 3.812-.116 4.396-.895-.453.152-1.022.539-1.468.296 1.376-1.242 3.185-1.852 5.421-1.825-.397 3.062 5.825.772 7.446 3.149 3.953-1.132 7.842.483 12.448.302-1.634-2.382 1.345-.068 1.062-2.513 1.072-.157 1.482-.117 1.578.042l3.25 1.46c.771.713-1.02.54-.92 1.089 2.348.187.984 1.037 2.54 1.686-.32-.875.815-1.253 2.154-.92l-1.885-1.127c3.282-1.301 2.837 2.053 6.146.764l-1.047.77c1.697-.455 6.264.015 7.928-1.95.3.283.697.95-.05 1.128 4.057.295 9.031-2.091 12.185-.881l-.308.598c.757-.173 1.318-1.124 2.266-.521-.049.247-.305.596.046.63.4-.205 2.01-1.046 3.013-.698l-.857.673c3.958.783 6.074-1.64 9.393-2.05-.008 1.762 3.106 2.334 4.66 2.619l-.054.249c4.608.218 7.828-1.46 12.097-2.15 2.648 1.91 8.973.8 13.23 1.872-.65-.32.106-1.372.863-1.55 1 .358 2.762-1.22 2.604.395l-.356-.031c.752 1.584 2.806 1.162 4.41 1.206l.264-2.113c4.194 3.073 10.988-1.13 13.278 1.623 1.011-.528 2.265-.521 3.268-1.05l-.055 1.133c2.805.289 4.205.43 7.67.16l-.706.81c1.954.073 2.468-3.265 4.272-3.331l.543 1.69c3.41-.026 6.862 1.458 10.232-.075-.055.247-.155.737-.708.805 1.606.044 6.21 1.144 5.628-1.176.04 1.51 3.52.148 5.36-.518l-.286 1.115c1.555-1.425 1.604-1.815 3.776-2.21.513.146.45.893-.234.608 1.715.584 1.337-1.055 3.415-.462l-.774.712c1.764.086 1.624-.296 2.595-1.126 1.11-.447 3.346.282 3.606 1.289.238-.614 1.204-1.436 2.243-1.145.141.38-.238.617-.427.732 2.95.759 4.385-1.296 6.414-.201.042.369.173.555.342.665-2.343-.027-4.23-.088-4.053-.17 0 1.029 1.892 1.209.386 2.628 1.52-.774 4.118-2.458 5.963-1.974.09.099.176.197.243.355l-.19.115c.426.103.807.007 1.166-.166.59.169.963.294 1.528.31.218.849 2.17.458 3.115.499-.079-1.124 1.157-.944 0-1.872.15.08-.179.135-.807.18-.142.035-.309.05-.402.118.018-.032.041-.067.064-.1a74.14 74.14 0 0 1-2.346.076c.745-.571 1.525-1.052 2.57-.428.483-.722 1.016-1.464 1.316-1.814 1.292 1.568 3.781 2.416 4.128 3.383 2.882-.631 6.79-.416 8.601-2.53.82-.27.942.607 1.248.939-.473.212-1.036.18-1.29.483 1.636-.542 4.852-.211 5.243-1.686 2.065.666-1.16 1.358 1.677 1.117l-.383.45c5.582 2.36 9.074-3.765 15.262-.738-.428-.186-.643-.272-.73-.52 7.055 1.336 14.538-1.252 21.5.866 1.978.426 2.192-.516 3.4-1.233l.43 1.208 2.063-1.393c2.928-1.021 5.071 2.964 8.778 1.035l-.479-.815c1.332.154 4.218-.48 3.995.456.137-.148.437-.846.957-.421l.041.63 3.27-1.082c2.536.457-.396 2.509 3.304 2.632 1.375-.243 3.916-1.84 3.4-2.262-.556-.032-1.419-.395-1.46-1.028l1.257-.33c.23-1.861 1.195-3.768-1.892-5.07l-2.15 1.139-.694-.903 1.81-.057c-1.027-.85-1.678-.097-2.407.418-.173-.48-.476-.816-.902-.995l-2.113 1.779c-.255-.73.948-1.446-.469-1.848-.99.826.95 1.634-.69 2.176-1.029-.846-.728-1.536-1.936-.813-.17-.48.086-.785.564-.996-1.075.575-2.846.243-3.4 1.234-1.073-1.045-3.63.27-3.525-1.492-.338.422-1.894 1.384-2.882 1.457 1.805-2.11-3.697-.124-3.22-2.386-1.335 1.897-4.824.842-7.19 1.895.133-.15.393-.456.602-.36-1.332-.156-1.719-.73-2.574-1.087-.17 1.567-2.245 1.926-3.363 2.893-1.632-1.512.992-1.841.48-3.293.081 1.27-2.836 1.267-2.28 2.326-1.249-.936-1.077-.454-1.72-1.754-.219 1.96-1.162.333-2.196 1.536-1.807-.966-.466-1.836-2.45-1.24-.944-.6.821-1.294.821-1.294"/>
</svg>
