<svg xmlns="http://www.w3.org/2000/svg" width="14" height="517" viewBox="0 0 14 517">
    <path fill="#FFF" fill-rule="evenodd" d="M11.94 87.031c.159.627-.062.838-.292.924-.02-.297-.058-.644-.135-1.098-.042-.018-.09-.055-.137-.074.214.06.416.128.564.248M4.148 95.42c.044-.483.052-1.084.044-1.72.388-.14.788.011.768.41-.26-.217-.484.718-.812 1.31m-.018-3.966h-.022a98.805 98.805 0 0 0-.064-.974c.016.203.039.484.086.974M.742 44.264c-.032 2.021 1.446.95 2.294 1.378.42 2.411-1.087 1.117-1.844 1.937.392 1.506 1.748 2.66 1.69 3.783-.243.084-.332.303-.636.047 1.174 1.592.057 4.725 1.533 6.58a.854.854 0 0 1-.367.242 4.263 4.263 0 0 1 2.028-.285c.025.905.934 1.681-.032 2.022.028-.555-.362-.602-.663-.862l.419.95c-1.388.854-.48-1.296-1.507-1.296.45 1.85 1.6 4.007 1.208 5.425-1.36.296-.457-3.316-1.665-1.424l.518-2.194c-2.142 1.677.15-1.333-2.142.207-.394 2.888.692 3.231.296 6.111.755.648 1.116-.214 1.872.434C5.1 71.413.328 70.542 2.137 73.552c.906.78 2.624 1.081 1.715 3.223l-1.536-.73c-.152 2.796 2.208 1.595 1.175 4.524-.604-.52-.51-2.197-.692-1.774-1.213 1.896.87 1.34.87 2.8l-1.36.301c.215 2.976 1.197 6.255 1.445 9.551-.404-.183-.83-.747-1.246.024.68 4.158-.166 8.875-.972 12.885l1.174 1.532c-.013.357-.531.662-.758.276-.446 1.562.745.081 1.206.832.082.89-.675 1.175-1.028.61.996 2.76 2.145 7.857.887 10.763l-.348-.567c-.477 2.263 2.406 2.553 1.31 4.652l-.207-.402c-.51 4.911.566 10.337-1.206 14.084 1.69.712-.754 4.861 1.604 5.177-1.168 2.804-1.59 2.001-2.376 5.95-.108 1.054 1.473 1.572 1.719 2.876l-1.232.032 1.293 1.77-1.475.943.317 1.222c.073-.487.553-1.035.908-.96.558 1.91-.86 4.656-1.49 4.703l1.043 4.52c-.497-.1-.666-.857-.983-1.455 1.258 2.412-1.3.438-.145 2.648.28-.296.734.16.983.211-.745 1.103-.752 3.611-.438 5.467l-.85-.356c-.216 3.352.408 7.067.392 10.83.396-1.35 1.87-1.039 2.01.064l-1.302.441c.806.712.492-1.153 1.478.31-.15 1.405-1.481.945-1.906.138l.452 1.71c-.39.1-.594-.302-1.09-.406.81.702-1.308 2.95.098 3.961l-.388.096c-.011 3.762.438 5.468.503 8.531 1.125.061.875 1.258 1.784 2.171-.36 2.252-1.243 4.751-1.147 7.464.559 1.906.952.557 1.62 1.414-1.024.141-.928 2.85-1.664 1.444.167 3.256.205 4.16 1.037 8.278.419-.447.6-.95.95-.69.169.747-.43 1.701-.921 1.593l-.106-.197c1.537 4.623-2.987 10.67-.851 14.35l-.105-.207 1.112 3.817c-.177 1.756-.77-1.053-1.404.246 1.71 4.118-.247 6.506.89 9.896-3.021 2.625.214 9.314-1.716 12.857l.712-.205c.698.916-.407 1.107-.57 1.783.553-.096.64-.994 1.026-.425.859 7.756-1.04 16.01-1.682 23.961-.191 2.91 3.682 1.651 1.983 5.318l-1.321-1.042c1.584 5.87-.055 12.002 1.29 17.75-.305-.344-.701-.354-.696-.916-.96 1.214-.047 4.49.736 4.51-.09.894-.708.207-1.106.758-.567 1.217 1.225 3.056.27 3.702-.155.111-.311-.342-.386-.564.465.793-.118 3.696.99 2.936-.53 2.157.492 4.125-.164 5.845 1.239 1.122-.595 3.692 1.156 4.048-1.81-.154-1.46 3.781-.61 5.144-.546-.456-.566 1.186-1.323.652.026 1.555.36 2.981 1.29 2.71-2.164 2.867 1.743 5.762-1.031 7.377a123.555 123.555 0 0 1 2.054 13.057c-1.804-.149-.18-4.595-2.074-4.418.744 3.946 2.292 6.22 1.857 10.132-.247 1.013-.783-.575-1.091-.917.743 3.941-.164 7.62.818 11.126-.168-.01-.351-.389-.49-.745.06.691-.264 1.606.557 1.528l-.223-.673c1.19-1.103 2.486 2.745 3.115 2.87-2.35-1.175-.59 3.462-3.56 1.598.154.455.543 1.026 1.09.922-.16.674-.48.89-1.103.204.446 2.476 1.319 1.596 1.3 3.84-.398-.009-.551-.462-1.018-.693.774 1.134 1.549 2.276 1.213 4.171-.24-.114-.551.106-.545-.459.12 3.255 2.062 5.547 1.315 9.12-1.726-1.055-.57 1.213-2.062 1.402l.446 1.92.724-.77c-.025 1.681 1.063 3.168.573 4.614l-.615-1.25.283 3.152.567-1.784c.769 1.702 1.889-.183 1.473 2.057-.153-.456-.018 1.682-.898 2.558 0 0 0-.006-.004-.006.476.833.976 1.69.606 2.933-.478.323-1.652-.26-1.97-.05 1.249.82.347 3.94 1.677 4.98-.313-.348-1.096-.367-1.257-.252l1.014.69c-.324.778-.481.892-1.106.766-.186 2.343 1.894-.744 1.078 2.037-.082-.219-.234-.114-.388-.57-.425 2.794.644 5.398.145 7.965-1.503.758-.368-2.243-1.636-1.376.273 3.702 1.8 7.664 1.447 11.246l.166-.668c2.122.498-1.048 2.668-.048 4.48-.157-.444-1.177-.582-.941-.462-.341 2.453.522 5.015 1.189 8.731l-.545-.459c-.487 1.445-.281 3.806-.53 5.368.545.463.457 1.356 1.249.813-3.103 4.815 1.665 9.184-.921 13.456-.006-.51-.477-1.218-.48-.81l.503 3.637c.925-.288.56-.476 1.279-1.24.548.46.973 1.486.973 2.388-.612-1.636-1.484.014-2 .722.283-.12.596.123.884.063-1.645 1.901 1.859.318.752 2.914l-.486-.138c.248.971.89 1.867.75 2.914-1.068.434-.498-1.034-1.378-1.1.062 1.471 2.026 2.902.96 4.233-.297-.624-.302-1.523-.598-2.147-1.256 1.45-.937 1.618-1.136 2.695l.028-.106-.568 2.49.34-.634c2.788 1.841.51 3.75 2.336 6.23-1.73-2.412-1-.4-2.211-.584-.337.632-.714 1.595-1.055 1.321.978 1.172-.77 1.957.659 3.611-.39.073-.038 1.254-1.017.99.306 1.523.678-.36 1.168-.233 1.332 2.35-1.616 5.522.212 8.9.753 2.914 2.068 3.453 2.723 6.157-.624.912-1.421-.748-1.421-.748-.574 1.472-.468 2.58-.021 3.966-.341-.28-.63.01-1.067.432.102 1.113 1.42.745.845 2.213-.435-.252-1.131-.575-1.566-1.112.358 1.312 1.087 2.608 1.438 3.965-.68.361-1.031-.819-1.475-1.297.306 1.526.617 3.955 1.692 4.425l.384-.978c.052.556-.924.286-1.12-.125-.844-1.308.373-1.886.764-1.96l.25.967c2.288-.993-.367-3.885-.234-5.832l1.664.811-1.381-1.997c.434-.424 1.363-.715 1.612.246.822-1.395-.592-1.235.325-2.434.142-.132.222-.073.289.05l-.496-1.364c.349.268 1.175-.226.934.612.96-2.449-1.248-3.949.013-4.87l.103.204c-.563-3.396-1.222-.328-2.656-2.875l3.013-1.715-1.221-.334c.044-.35.136-1.043.624-.915-.836-1.304-.531.222-1.32-.535 1.112-1.686-.521-4.65 1.425-5.03-.928-.605-.716 1.613-1.362-.187 2.093-.514-.358-2.082.602-3.622 1.08.472.508 1.932 1.472.39-1.826-.929.4-3 .05-4.3-1.453-.06-.606-2.826-1.09-5.006.489.138.798-4.104 1.324-6.132l.244.06c-1.47-.393-1.191-2.486-1.495-4.009.879.06 1.225.334 1.619 1.16l-.007-1.433c-.471-.339-.72-.785-.887-1.715l1.098.361c-.06-1.907-1.293-3.839-.56-6.292-1.024-.138-2.852 1.951-3.536-.643.554-.097 1.5-.192 1.728.486-.073-.222-.46-.793-.224-1.24l.932 1.036c.409-1.117-.778-.585-.691-1.477.79.017.563-.66 1.19-.533.076.228-.326.78-.017 1.121.142-1.007.61-2.225 1.208-2.627-.45.088-1.063 0-1.166-.738-.057-1.906.95-.652 1.357-1.764-.55-.462.019-1.678-1.161-1.71.006-.558.556-.66.876-.876-.521-.988-.15-4.61-1.405-3.497l-.083.253c-.024-.047-.025-.104-.051-.162v.008-.008c-1.174-3.234.669-6.717.163-9.926l.395.005c-.451-1.916-.266-4.264-1.116-5.63 0-.569.72-1.339 1.19-1.096-.295-1.465-.74-1.629-.087-3.744.689 1.473.61-.508.504 1.51.34-1.904.974-2.334-.106-4.377 1.012.695 1.274-1.433.972-2.337l-.724 1.333c-.147-1.017-.058-1.906.028-2.81l1.33.49c1.62-3.894-2.753-7.022-.044-9.986-.93-1.03-.655 2.114-1.744 1.193.18-1.79 2.09-3.657 2.094-4.217.737-2.453-1.944-2.289-1.44-4.856-.474.328-1.742.638-2.19-1.28.177-1.793 1.992-2.203 2.373-1.072.04.43-.111.637-.271.62.172.578.376 1.338.89.63l-.474-.234c.484-.889.433-3.355 1.212-2.776-.452-1.355-.78-.579-1.025.424.688-2.298.02-3.59.483-5.957-.262.376-.82.722-.815.348.588-3.47-.9-1.528-1.108-3.88.723-1.335 1.727.48 1.12-1.887.49-1.446 1.26-.307 1.647.267-.915-2.156.602-4.029.77-5.26l.383 1.135c-.228-.679-.221-1.235-.22-1.802l-.948.65c.166-.668.169-1.232.564-1.22-.622-.688-1.58.526-2.43-.839.483-.888-.517-2.707.743-3.014-.428 2.797 1.265-.309 1.468 2.057-.15-.456-.144-1.012.023-1.68.14-.102.26.093.333.275 1.126-2.676-1.425-1.229-1.396-4.003.71.352 1.347-.642 1.196-1.095-.015 1.117-1.185.535-1.73-.49.554-1.779-.41-1.934-.345-2.865l-.26 1.063c-.71-.36-.617-1.25-.841-2.49.553-.105.38 1.126.624.684-1.248-1.376 1.292-3.11.45-5.029.482-.889 1.335-.086 1.66-.867-.92-2.15.974-2.33.213-4.59-.954.651-.72.765-1.651-.827l.672 3.717-1.388-2.386c-.014 1.122.6 2.368.438 3.04-.78-1.137-.541-1.02-1.333-.483 1.43-1.535-.834-3.043.132-4.817l2.363.053c1.053-2.667-1.212-4.739-.618-8.202l-.411 1.114c-.938-.465-.13-2.139-.511-3.26.79.103 1.077-.598 1.568-1.076-.586.057.054-2.536-1.523-2.85l1.04-1.547c.425-2.797-2.25-3.19-1.982-5.88.859.81 1.418-.412 2.032 1.39.008-.899.153-1.705-.394-1.72.494-.524-1.065-2.489-.315-3.314-.346-.378-1.173-.502-1.108-1.51.16-.11.39.004.39.004-.39-.004-.531-1.577-1.405-.697 2.464-2.765-.18-7.728 1.937-10.136-.265-1.958-.52-4.319-.576-6.097.236.114.393.006.31.342.736-2.453-2.266-1.508-1.446-4.3 1.276-1.426.69 1.483 1.174.594 2.598-.388-.355-3.369 1.162-5.248l.153.455c.883-1.436-.984-3.504-.8-5.85 0 0 .23.115.394.014-1.325-1.605-1.764-4.642-2.132-6.898 1.017.702.538 1.025 1.57.596-.145-1.012-1.658.296-1.947-1.723.557-.657 1.043-2.114 2.146-2.307l.059 1.905c1.427-.975-.05-2.466.199-3.47l.624.13c-.203-2.92-1.774-2.96-1.662-6.098l-.472.324c-1.556-1.715.876-1.438-.282-3.148l1.58-.517c-.381-1.132-1.527-3.963-1.824-5.992 1.17 1.15 1.77 3.523 2.465 4.993.012-1.122-.116-3.812-.895-4.396.152.452.539 1.021.296 1.468-1.242-1.376-1.852-3.186-1.825-5.422 3.062.397.772-5.824 3.149-7.445-1.132-3.953.483-7.843.302-12.448-2.382 1.634-.068-1.345-2.513-1.062-.157-1.073-.117-1.482.042-1.578l1.46-3.25c.713-.77.54 1.02 1.089.921.187-2.349 1.037-.985 1.686-2.54-.875.318-1.253-.816-.92-2.155l-1.127 1.884c-1.301-3.282 2.053-2.836.764-6.145l.77 1.047c-.455-1.698.015-6.264-1.95-7.928.283-.3.95-.697 1.128.05.295-4.058-2.091-9.032-.881-12.186l.598.308c-.173-.757-1.124-1.317-.521-2.266.247.05.596.305.63-.045-.205-.4-1.046-2.01-.698-3.014l.673.857c.783-3.958-1.64-6.074-2.05-9.392 1.762.008 2.334-3.107 2.619-4.66l.249.053c.218-4.608-1.46-7.828-2.15-12.096 1.91-2.649.8-8.973 1.872-13.23-.32.65-1.372-.107-1.55-.864.358-.999-1.22-2.762.395-2.604l-.031.357c1.584-.753 1.162-2.807 1.206-4.41l-2.113-.264c3.073-4.195-1.13-10.988 1.623-13.278-.528-1.01-.521-2.265-1.05-3.268l1.133.054c.289-2.804.43-4.204.16-7.67l.81.707c.073-1.955-3.265-2.469-3.331-4.272l1.69-.543c-.026-3.41 1.458-6.863-.075-10.233.247.056.737.156.805.708.044-1.606 1.144-6.21-1.176-5.627 1.51-.04.148-3.519-.518-5.36l1.114.286c-1.424-1.555-1.814-1.605-2.208-3.776.145-.514.892-.45.607.233.584-1.715-1.055-1.336-.462-3.414l.712.774c.086-1.765-.296-1.624-1.126-2.596-.447-1.108.282-3.345 1.289-3.606-.614-.237-1.436-1.203-1.145-2.243.38-.14.617.238.732.428.759-2.949-1.296-4.385-.201-6.414.369-.043.554-.174.665-.342-.027 2.342-.088 4.23-.17 4.053 1.029 0 1.209-1.893 2.628-.387-.774-1.52-2.458-4.118-1.974-5.962.099-.09.197-.177.355-.244l.115.191c.103-.426.007-.808-.166-1.166.169-.589.294-.963.31-1.528.849-.219.458-2.17.499-3.115-1.124.08-.944-1.158-1.872 0 .08-.15.135.178.18.806.035.142.05.31.118.402a.92.92 0 0 1-.1-.064c.033.62.059 1.428.076 2.347-.571-.746-1.052-1.526-.428-2.569-.722-.484-1.465-1.017-1.814-1.318 1.568-1.29 2.416-3.78 3.383-4.127-.631-2.882-.416-6.789-2.53-8.602-.27-.819.607-.94.939-1.248.212.474.18 1.037.483 1.292-.542-1.637-.211-4.853-1.686-5.245.666-2.064 1.358 1.16 1.117-1.676l.45.382c2.36-5.58-3.765-9.074-.738-15.26-.186.427-.272.641-.52.73 1.336-7.056-1.252-14.539.866-21.5.426-1.979-.516-2.194-1.233-3.4l1.208-.43-1.393-2.065c-1.021-2.928 2.964-5.07 1.034-8.778l-.814.48c.154-1.332-.48-4.218.456-3.996-.148-.136-.846-.437-.421-.957l.63-.04-1.082-3.27c.457-2.536 2.509.395 2.632-3.304-.243-1.375-1.84-3.916-2.262-3.4-.032.556-.395 1.418-1.028 1.46L7.477.488C5.617.26 3.71-.707 2.408 2.381l1.139 2.151-.903.693-.057-1.81c-.85 1.026-.097 1.677.418 2.407-.48.173-.816.475-.995.901l1.779 2.113c-.73.256-1.446-.948-1.848.47.826.99 1.634-.949 2.176.69-.846 1.028-1.536.727-.813 1.935-.48.17-.785-.086-.996-.564.575 1.075.243 2.846 1.234 3.401-1.045 1.073.27 3.63-1.492 3.525.422.338 1.384 1.893 1.457 2.882-2.11-1.805-.124 3.697-2.386 3.22 1.897 1.334.842 4.823 1.895 7.19-.15-.133-.456-.393-.36-.602-.156 1.331-.73 1.72-1.087 2.574 1.567.171 1.926 2.245 2.893 3.362-1.512 1.632-1.841-.99-3.293-.479 1.27-.082 1.267 2.836 2.326 2.28-.936 1.248-.454 1.077-1.754 1.72 1.96.218.333 1.161 1.536 2.196-.966 1.806-1.836.465-1.24 2.45-.6.943-1.294-.822-1.294-.822"/>
</svg>
