<svg xmlns="http://www.w3.org/2000/svg" width="450" height="263" viewBox="0 0 450 263">
    <g fill="none" fill-rule="evenodd">
        <path fill="#F36B32" fill-rule="nonzero" d="M445.42 244.522a71.099 71.099 0 0 1-6.17 11.853 51.282 51.282 0 0 1-3.739 5.136l-.041.049H17.527l.075-.053c.376-.293 2.583-2.08 6.017-5.136a242.116 242.116 0 0 0 9.025-8.476c28.39-27.92 82.923-94.005 37.506-154.544-42.221-56.28 3.238-66.496 33.225-67.684a85.847 85.847 0 0 1 33.798 5.524c13.85 5.264 39.17 13.337 72.16 17.034a316.012 316.012 0 0 0 55.846 1.305c.515-.027 1.034-.065 1.557-.102a312.831 312.831 0 0 0 51.416-7.957c1.094-.267 2.173-.519 3.249-.752 56.27-13.018 108.146 31.349 95.179 81.491-4.799 18.542-3.58 38.313 12.41 54.302 26.156 26.11 22.97 51.815 16.43 68.01z" opacity=".1"/>
        <ellipse cx="352.889" cy="101.923" fill="#3F3D56" fill-rule="nonzero" rx="5.284" ry="4.034" transform="rotate(-60.79 352.89 101.923)"/>
        <ellipse cx="356.038" cy="96.284" fill="#3F3D56" fill-rule="nonzero" rx="5.284" ry="4.034" transform="rotate(-60.79 356.038 96.284)"/>
        <ellipse cx="359.19" cy="90.647" fill="#3F3D56" fill-rule="nonzero" rx="5.284" ry="4.034" transform="rotate(-60.79 359.19 90.647)"/>
        <ellipse cx="362.338" cy="85.005" fill="#3F3D56" fill-rule="nonzero" rx="5.284" ry="4.034" transform="rotate(-60.79 362.338 85.005)"/>
        <ellipse cx="365.485" cy="79.37" fill="#3F3D56" fill-rule="nonzero" rx="5.284" ry="4.034" transform="rotate(-60.79 365.485 79.37)"/>
        <ellipse cx="368.637" cy="73.731" fill="#3F3D56" fill-rule="nonzero" rx="5.284" ry="4.034" transform="rotate(-60.79 368.637 73.73)"/>
        <ellipse cx="371.789" cy="68.094" fill="#3F3D56" fill-rule="nonzero" rx="5.284" ry="4.034" transform="rotate(-60.79 371.789 68.094)"/>
        <path fill="#F36B32" fill-rule="nonzero" d="M406.907 37.195a19.87 19.87 0 0 0 2.404-1.192l-8.447-6.676 10.012 5.652a19.28 19.28 0 0 0 7.835-13.146l-17.413-.54 17.564-2.17c-.056-7.244-4.204-13.845-10.737-17.086A19.565 19.565 0 0 0 387.9 3.76c-5.88 4.3-8.83 11.506-7.639 18.653a19.575 19.575 0 0 0-3.662 1.995l8.576 12.917-10.458-11.425a19.184 19.184 0 0 0-6.172 17.31c-9.353 3.865-14.14 14.21-10.997 23.762 3.143 9.553 13.16 15.106 23.01 12.757 9.852-2.35 16.228-11.813 14.648-21.739 8.277-3.418 13.12-12.013 11.716-20.796h-.015z"/>
        <path fill="#000" fill-rule="nonzero" d="M370.67 30.538a19.376 19.376 0 0 0-2.2 12.477c-9.294 3.885-14.051 14.284-10.928 23.888 3.123 9.603 13.077 15.186 22.866 12.824 9.788-2.362 16.124-11.875 14.554-21.853 3.842-1.61-23.233-29.22-24.292-27.336z" opacity=".1"/>
        <path fill="#3F3D56" fill-rule="nonzero" d="M395.81 237.341h4.587a9.47 9.47 0 0 1 9.47 9.47v14.057H386.34v-14.057a9.47 9.47 0 0 1 9.47-9.47z"/>
        <path fill="#000" fill-rule="nonzero" d="M395.81 237.341h4.587a9.47 9.47 0 0 1 9.47 9.47v14.057H386.34v-14.057a9.47 9.47 0 0 1 9.47-9.47z" opacity=".1"/>
        <circle cx="397.065" cy="240.455" r="1.73" fill="#3F3D56" fill-rule="nonzero"/>
        <circle cx="397.065" cy="238.379" r="1.73" fill="#3F3D56" fill-rule="nonzero"/>
        <circle cx="397.065" cy="235.612" r="1.73" fill="#3F3D56" fill-rule="nonzero"/>
        <circle cx="397.065" cy="233.536" r="1.73" fill="#3F3D56" fill-rule="nonzero"/>
        <circle cx="397.065" cy="231.46" r="1.73" fill="#3F3D56" fill-rule="nonzero"/>
        <circle cx="397.065" cy="228.692" r="1.73" fill="#3F3D56" fill-rule="nonzero"/>
        <circle cx="397.065" cy="226.616" r="1.73" fill="#3F3D56" fill-rule="nonzero"/>
        <circle cx="399.833" cy="227.308" r="1.73" fill="#3F3D56" fill-rule="nonzero"/>
        <circle cx="401.909" cy="226.616" r="1.73" fill="#3F3D56" fill-rule="nonzero"/>
        <circle cx="403.293" cy="225.924" r="1.73" fill="#3F3D56" fill-rule="nonzero"/>
        <circle cx="397.065" cy="224.54" r="1.73" fill="#3F3D56" fill-rule="nonzero"/>
        <circle cx="397.065" cy="221.772" r="1.73" fill="#3F3D56" fill-rule="nonzero"/>
        <circle cx="397.065" cy="219.697" r="1.73" fill="#3F3D56" fill-rule="nonzero"/>
        <circle cx="397.065" cy="216.929" r="1.73" fill="#3F3D56" fill-rule="nonzero"/>
        <path fill="#F36B32" fill-rule="nonzero" d="M404.853 211.429c-.465.068-.933.117-1.403.147.435-.38.838-.793 1.207-1.237a7.92 7.92 0 0 0-1.131-2.199 3.9 3.9 0 0 1-1.509.48c-.464.067-.931.116-1.399.146a25.044 25.044 0 0 0 1.791-1.885 7.957 7.957 0 1 0 2.493 4.518l-.049.03zM411.369 220.304c-.494.304-1.05.49-1.628.546-.479.07-.961.12-1.444.151.513-.46.992-.957 1.433-1.487a4.843 4.843 0 1 0 1.64.79h-.001z"/>
        <circle cx="394.297" cy="227.308" r="1.73" fill="#3F3D56" fill-rule="nonzero"/>
        <circle cx="392.222" cy="226.616" r="1.73" fill="#3F3D56" fill-rule="nonzero"/>
        <circle cx="390.146" cy="225.924" r="1.73" fill="#3F3D56" fill-rule="nonzero"/>
        <path fill="#F36B32" fill-rule="nonzero" d="M382.762 220.304c.494.304 1.05.49 1.627.546.48.07.962.12 1.445.151-.514-.46-.992-.957-1.433-1.487a4.843 4.843 0 1 1-1.64.79z"/>
        <path fill="#3F3D56" fill-rule="nonzero" d="M395.81 238.725h4.587a9.47 9.47 0 0 1 9.47 9.47v12.45c0 .888-.72 1.607-1.607 1.607h-20.314c-.887 0-1.606-.72-1.606-1.606v-12.45a9.47 9.47 0 0 1 9.47-9.47z"/>
        <g fill="#000" fill-rule="nonzero" opacity=".1">
            <path d="M404.634 211.464a6.009 6.009 0 0 1-.596.566c.211 0 .422-.033.63-.056-.008-.171-.015-.343-.034-.51zM401.28 209.25c.46-.03.919-.078 1.374-.145.412-.05.815-.16 1.195-.328a8.432 8.432 0 0 0-.644-1.069c-.23.141-.48.248-.74.317-.362.439-.758.849-1.184 1.226zM389.97 213.226a7.863 7.863 0 0 1 4.06-6.908 7.758 7.758 0 0 1 7.969.291l.118-.127a7.77 7.77 0 0 0-7.684-1.577 7.845 7.845 0 0 0-5.17 5.937 7.892 7.892 0 0 0 2.558 7.463 7.856 7.856 0 0 1-1.85-5.079z"/>
        </g>
        <g fill="#000" fill-rule="nonzero" opacity=".1">
            <path d="M408.214 222.045c.462-.034.924-.082 1.383-.148a3.664 3.664 0 0 0 1.557-.513 4.563 4.563 0 0 1 1.863 3.248 4.558 4.558 0 0 0-1.837-4.178 3.668 3.668 0 0 1-1.557.517l-.373.044c-.317.37-.663.714-1.036 1.03zM408.408 220.476c.157 0 .31 0 .462.033.242-.254.48-.527.723-.793a4.824 4.824 0 0 0-1.185-.155c-2.556 0-4.628 2.052-4.628 4.583 0 .155 0 .31.023.458.239-2.342 2.229-4.125 4.605-4.126z"/>
        </g>
        <g fill="#000" fill-rule="nonzero" opacity=".1">
            <path d="M385.89 222.045a19.281 19.281 0 0 1-1.382-.148 3.664 3.664 0 0 1-1.558-.513 4.563 4.563 0 0 0-1.863 3.248 4.558 4.558 0 0 1 1.837-4.178 3.668 3.668 0 0 0 1.558.517l.372.044c.318.37.665.713 1.036 1.03zM385.704 220.476c-.157 0-.31 0-.462.033-.242-.254-.48-.527-.723-.793.387-.1.785-.153 1.185-.155 2.556 0 4.627 2.052 4.627 4.583 0 .155 0 .31-.022.458-.239-2.342-2.229-4.125-4.605-4.126z"/>
        </g>
        <path fill="#D0D2D5" fill-rule="nonzero" d="M270.783 261.56l-73.348-.942.215-1.884 3.547-31.08h64.414l4.74 31.08.36 2.355z"/>
        <path fill="#000" fill-rule="nonzero" d="M270.783 260.868h-36.638l-36.71-.415.215-1.66h72.772z" opacity=".1"/>
        <path fill="#D0D2D5" fill-rule="nonzero" d="M185.672 259.484h97.566v2.076h-97.566z"/>
        <path fill="#444053" fill-rule="nonzero" d="M375.269 41.444a6.12 6.12 0 0 0-6.084-6.154H97.653a6.114 6.114 0 0 0-4.316 1.815 6.128 6.128 0 0 0-1.771 4.339v164.76h283.703V41.443z"/>
        <path fill="#D0D2D5" fill-rule="nonzero" d="M91.566 204.127v19.448a6.164 6.164 0 0 0 1.777 4.352 6.057 6.057 0 0 0 4.31 1.803h271.532c3.36 0 6.084-2.747 6.084-6.136v-19.467H91.566z"/>
        <path fill="#F36B32" fill-rule="nonzero" d="M103.329 45.669h261.56v148.079h-261.56z" opacity=".1"/>
        <path fill="#F36B32" fill-rule="nonzero" d="M234.823 222.118a6.215 6.215 0 0 0 4.882-2.362 6.67 6.67 0 0 0 .482-.709l-3.405-.557 3.677.025a6.163 6.163 0 0 0 .118-4.905l-4.938 2.568 4.555-3.338a6.205 6.205 0 0 0-5.675-3.172 6.203 6.203 0 0 0-5.393 3.63 6.179 6.179 0 0 0 .821 6.44 6.207 6.207 0 0 0 4.876 2.38z"/>
        <path fill="#000" fill-rule="nonzero" d="M241.72 229.73l29.063 29.062-4.457-29.062z" opacity=".1"/>
        <path fill="#FFF" fill-rule="nonzero" d="M111.052 65.665h202.052v107.253H111.052z"/>
        <path fill="#F36B32" fill-rule="nonzero" d="M122.012 93.414h56.049v2.768h-56.049zM126.856 78.191h5.536v15.223h-5.536zM135.159 78.191h5.536v15.223h-5.536zM142.771 78.191h5.536v15.223h-5.536zM151.074 78.191h5.536v15.223h-5.536zM158.686 78.191h5.536v15.223h-5.536zM166.989 78.191h5.536v15.223h-5.536z" opacity=".1"/>
        <path fill="#F36B32" fill-rule="nonzero" d="M126.856 80.959h5.536v1.384h-5.536zM135.159 80.959h5.536v1.384h-5.536zM142.771 80.959h5.536v1.384h-5.536zM151.074 80.959h5.536v1.384h-5.536zM158.686 80.959h5.536v1.384h-5.536zM166.989 80.959h5.536v1.384h-5.536zM126.856 88.571h5.536v1.384h-5.536zM135.159 88.571h5.536v1.384h-5.536zM142.771 88.571h5.536v1.384h-5.536zM151.074 88.571h5.536v1.384h-5.536zM158.686 88.571h5.536v1.384h-5.536zM166.989 88.571h5.536v1.384h-5.536zM245.873 101.026h56.049v2.768h-56.049zM250.716 85.803h5.536v15.223h-5.536zM258.328 85.803h5.536v15.223h-5.536zM266.631 85.803h5.536v15.223h-5.536zM274.243 85.803h5.536v15.223h-5.536zM282.546 85.803h5.536v15.223h-5.536zM290.158 85.803h5.536v15.223h-5.536z" opacity=".1"/>
        <path fill="#F36B32" fill-rule="nonzero" d="M250.716 88.571h5.536v1.384h-5.536zM258.328 88.571h5.536v1.384h-5.536zM266.631 88.571h5.536v1.384h-5.536zM274.243 88.571h5.536v1.384h-5.536zM282.546 88.571h5.536v1.384h-5.536zM290.158 88.571h5.536v1.384h-5.536zM250.716 96.182h5.536v1.384h-5.536zM258.328 96.182h5.536v1.384h-5.536zM266.631 96.182h5.536v1.384h-5.536zM274.243 96.182h5.536v1.384h-5.536zM282.546 96.182h5.536v1.384h-5.536zM290.158 96.182h5.536v1.384h-5.536zM245.873 122.476h56.049v2.768h-56.049zM250.716 107.253h5.536v15.223h-5.536zM258.328 107.253h5.536v15.223h-5.536zM266.631 107.253h5.536v15.223h-5.536zM274.243 107.253h5.536v15.223h-5.536zM282.546 107.253h5.536v15.223h-5.536zM290.158 107.253h5.536v15.223h-5.536z" opacity=".1"/>
        <path fill="#F36B32" fill-rule="nonzero" d="M250.716 110.021h5.536v1.384h-5.536zM258.328 110.021h5.536v1.384h-5.536zM266.631 110.021h5.536v1.384h-5.536zM274.243 110.021h5.536v1.384h-5.536zM282.546 110.021h5.536v1.384h-5.536zM290.158 110.021h5.536v1.384h-5.536zM250.716 117.633h5.536v1.384h-5.536zM258.328 117.633h5.536v1.384h-5.536zM266.631 117.633h5.536v1.384h-5.536zM274.243 117.633h5.536v1.384h-5.536zM282.546 117.633h5.536v1.384h-5.536zM290.158 117.633h5.536v1.384h-5.536zM156.347 126.456a14.93 14.93 0 0 1-1.157-1.698l8.157-1.336-8.837.072a14.86 14.86 0 0 1-.283-11.765l11.833 6.131-10.911-8.01a14.87 14.87 0 0 1 13.586-7.424 14.867 14.867 0 0 1 12.824 8.67 14.832 14.832 0 0 1-1.853 15.356 14.837 14.837 0 0 1 1.704 2.702l-10.579 5.49 11.285-3.774a14.825 14.825 0 0 1-2.395 13.939c4.795 6.086 4.1 14.832-1.595 20.087-5.696 5.256-14.48 5.256-20.176 0-5.696-5.255-6.391-14-1.596-20.087a14.833 14.833 0 0 1 0-18.357l-.007.004z" opacity=".1"/>
        <path fill="#F36B32" fill-rule="nonzero" d="M182.902 135.841a14.614 14.614 0 0 1-3.183 9.12c4.798 6.047 4.103 14.738-1.597 19.96-5.7 5.222-14.49 5.222-20.19 0-5.7-5.222-6.395-13.913-1.596-19.96-1.993-2.51 26.566-10.777 26.566-9.12z" opacity=".1"/>
        <path fill="#3F3D56" fill-rule="nonzero" d="M170.499 172.87c.026.04.045.08.072.12h-5.076c.027-.04.046-.08.072-.12a4.486 4.486 0 0 1-.653-2.367c-.001-.568.103-1.131.307-1.665.282.043.631.09 1.034.13 1.177.11 2.363.11 3.54 0 .335-.033.688-.08 1.046-.13v.025c.2.526.301 1.081.3 1.64a4.484 4.484 0 0 1-.642 2.368z" opacity=".2"/>
        <path fill="#F36B32" fill-rule="nonzero" d="M152.331 172.99h-27.76a5.965 5.965 0 0 1-.167-.497 14.802 14.802 0 0 1 .325-9.674c-5.584-3.882-7.801-11.109-5.365-17.485a15.22 15.22 0 0 1-1.592-1.279l7.315-3.67-8.313 2.655a14.878 14.878 0 0 1-3.706-11.126l12.972 2.359-12.65-4.423c1.218-5.408 5.338-9.675 10.672-11.058a14.641 14.641 0 0 1 14.65 4.496 14.876 14.876 0 0 1 2.728 15.17 15.007 15.007 0 0 1 2.395 2.08l-8.399 8.343 9.561-6.92a14.886 14.886 0 0 1 1.808 13.983c5.44 3.785 7.7 10.76 5.526 17.045z" opacity=".1"/>
        <path fill="#F36B32" fill-rule="nonzero" d="M153.012 172.99h-28.087a5.976 5.976 0 0 1-.17-.5 14.809 14.809 0 0 1 .328-9.731c-2.646-1.835 22.175-18.24 22.682-16.647a14.87 14.87 0 0 1-.33 9.735 14.899 14.899 0 0 1 5.577 17.142zM279.077 153.19a14.676 14.676 0 0 1-7.371 6.235c.132 1.058.153 2.127.064 3.19l-11.794-.712 11.517 2.534a14.86 14.86 0 0 1-5.684 8.826h-16.052v.418h-16.34a14.837 14.837 0 0 1 9.085-10.476c-.859-6.785 3.006-13.281 9.354-15.724a14.926 14.926 0 0 1-.123-2.045l7.614 3.012-7.528-4.45a14.874 14.874 0 0 1 5.728-10.22l6.938 11.296-5.198-12.426a14.651 14.651 0 0 1 17.727 2.638c4.635 4.815 5.48 12.162 2.06 17.915l.003-.012z" opacity=".1"/>
        <path fill="#F36B32" fill-rule="nonzero" d="M270.072 168.994a14.47 14.47 0 0 1-3.961 4.276h-16.202v.411h-16.492c.034-.14.068-.277.106-.41 1.23-4.531 4.6-8.21 9.064-9.891-.14-1.063 3.062-.918 7.326-.215 8.335 1.37 20.726 4.9 20.16 5.829z" opacity=".1"/>
        <path fill="#946B57" fill-rule="nonzero" d="M199.76 129.534s1.999 10.953-2.484 14.523c-4.483 3.571 3.788 25 17.528 22.503 13.74-2.497 19.305-20.479 19.305-20.479s-13.74-2.853-8.648-17.377l-25.7.83z"/>
        <path fill="#000" fill-rule="nonzero" d="M199.76 129.534s1.999 10.953-2.484 14.523c-4.483 3.571 3.788 25 17.528 22.503 13.74-2.497 19.305-20.479 19.305-20.479s-13.74-2.853-8.648-17.377l-25.7.83z" opacity=".1"/>
        <circle cx="211.967" cy="114.173" r="22.835" fill="#946B57" fill-rule="nonzero"/>
        <path fill="#F36B32" fill-rule="nonzero" d="M249.325 158.167v15.514h-75.416v-14.805a9.564 9.564 0 0 1 5.838-8.803l2.165-.919c5.47-2.328 12.115-5.219 14.288-6.422.238-.119.462-.263.668-.431 1.189-1.189.953.356.953.356s-.034.292-.057.802c-.127 3.49.376 17.22 16.472 16.077 15.706-1.125 16.396-11.713 16.254-14.828a7.744 7.744 0 0 0-.075-.863c0-.082 1.35.375 3.181 1.035 3.29 1.211 8.127 3.16 9.43 4.08.404.28.896.58 1.429.877a9.507 9.507 0 0 1 4.877 8.33h-.007z"/>
        <path fill="#000" fill-rule="nonzero" d="M234.11 144.832c-1.328 6.08-5.495 17.47-20.528 17.773-16.008.312-16.93-15.418-16.833-19.88.24-.117.465-.262.671-.43 1.188-1.174.952.352.952.352s-2.02 17.963 16.398 16.663c18.417-1.3 16.161-15.497 16.161-15.497 0-.085 1.35.352 3.178 1.019z" opacity=".1"/>
        <path fill="#454B69" fill-rule="nonzero" d="M185.104 115.636c1.498-.49 3.284.338 4.119 1.504s.95 2.577 1.052 3.927c.992.21 1.55-.918 1.64-1.764.374-3.464.393-6.992 1.55-10.332 1.157-3.34 3.684-6.575 7.57-7.861a8.709 8.709 0 0 1 4.12-.395c.82.139 1.594.425 2.414.56 2.834.47 5.923-.88 8.585.06 1.667.59 2.741 1.956 3.505 3.325.34.735.801 1.408 1.363 1.99 1.123 1.016 2.905 1.283 4.523 1.602 1.617.32 3.392.87 4.085 2.125.625 1.129.164 2.445-.045 3.679a9.018 9.018 0 0 0 .925 5.68c.3.571.906 1.218 1.62 1.034.326-.11.601-.335.776-.632 1.872-2.633 1.812-6.048 4.145-8.399.782-.786 1.79-1.403 2.55-2.204a4.972 4.972 0 0 0 1.321-4.514c-.42-1.809-1.872-3.317-3.021-4.89a19.22 19.22 0 0 1-3.24-6.75 1.209 1.209 0 0 1 0-.88c.22-.289.504-.522.828-.682a3.153 3.153 0 0 0 1.075-4.017c-.652-1.365-2.116-2.377-3.722-2.986-1.606-.61-3.37-.869-5.114-1.129-1.146.17-2.49-.488-2.846-1.41-.157-.41-.157-.854-.318-1.264-.31-.786-1.206-1.343-2.168-1.534a6.337 6.337 0 0 0-2.928.207c-1.078.304-2.329.752-3.269.233-.494-.282-.77-.794-1.303-1.023-1.078-.463-2.216.47-2.995 1.24a7.374 7.374 0 0 1-2.707 1.825c-1.082.376-2.415.376-3.347-.222-.749-.478-1.123-1.245-1.719-1.854-.977-1.004-2.523-1.55-4.066-1.674a14.308 14.308 0 0 0-4.59.504 27.728 27.728 0 0 0-8.069 3.385c-1.247.786-2.441 1.704-3.093 2.889a6.58 6.58 0 0 0-.696 2.979c-.116 3.238.955 6.653 3.744 8.922-1.7.714-2.276 2.463-2.673 4.017-.637 2.474-1.277 4.994-1.037 7.522.12 1.305.475 2.61.284 3.908-.09.628-.307 1.245-.254 1.88a1.794 1.794 0 0 0 1.426 1.419z"/>
        <g fill="#000" fill-rule="nonzero" opacity=".1">
            <path d="M240.316 103.634a5.445 5.445 0 0 1-.986 1.468c-.75.808-1.77 1.43-2.554 2.228-2.336 2.367-2.287 5.824-4.15 8.473-.176.299-.451.524-.777.634-.716.186-1.324-.467-1.624-1.044a9.29 9.29 0 0 1-.814-2.22 9.156 9.156 0 0 0 .814 6.31c.3.577.908 1.23 1.624 1.044.326-.111.601-.337.776-.637 1.875-2.657 1.815-6.102 4.151-8.474.784-.793 1.793-1.415 2.554-2.223a5.04 5.04 0 0 0 1.324-4.554 5.517 5.517 0 0 0-.338-1.005zM235.22 87.248c-.325.16-.61.393-.829.684-.11.285-.11.602 0 .887.217.86.494 1.704.83 2.524a3.194 3.194 0 0 0 1.06-4.095 4.163 4.163 0 0 0-.375-.645 3.142 3.142 0 0 1-.686.645zM186.996 92.364a10.332 10.332 0 0 1-3.582-6.413 9.211 9.211 0 0 0-.165 1.518c-.12 2.41.51 4.8 1.8 6.83a3.858 3.858 0 0 1 1.947-1.935zM229.299 109.663c.21-1.244.671-2.569.045-3.71-.694-1.268-2.468-1.826-4.091-2.145-1.624-.319-3.398-.592-4.53-1.616a7.323 7.323 0 0 1-1.365-2.008c-.75-1.38-1.841-2.758-3.51-3.354-2.666-.949-5.76.413-8.599-.06-.821-.137-1.597-.426-2.419-.566a8.662 8.662 0 0 0-4.125.38c-3.892 1.297-6.423 4.553-7.582 7.93-1.159 3.377-1.185 6.929-1.552 10.424-.09.854-.65 1.992-1.643 1.78-.101-1.363-.225-2.786-1.054-3.962-.828-1.177-2.598-2.015-4.125-1.518a1.986 1.986 0 0 1-1.155-.759 6.454 6.454 0 0 1-.022 1.518c-.09.634-.308 1.256-.255 1.897.14.728.705 1.296 1.425 1.435 1.5-.494 3.289.341 4.125 1.517.836 1.177.952 2.6 1.054 3.962.993.212 1.552-.926 1.642-1.78.375-3.495.394-7.054 1.553-10.423 1.158-3.37 3.69-6.633 7.582-7.931a8.663 8.663 0 0 1 4.125-.399c.821.14 1.597.43 2.419.566 2.838.474 5.932-.888 8.598.06 1.669.596 2.745 1.974 3.51 3.355.341.741.803 1.42 1.365 2.007 1.125 1.025 2.91 1.294 4.53 1.617 1.62.322 3.266.838 4.009 2.015.019-.065.03-.148.045-.232zM183.58 107.94c.087-1.03.027-2.068-.18-3.08a13.898 13.898 0 0 0-.106 3.228c.023.277.06.55.098.828.045-.327.127-.65.187-.976z"/>
        </g>
        <path fill="#FFF" fill-rule="nonzero" d="M323.372 149.463h33.906v23.527h-33.906z"/>
        <path fill="#F36B32" fill-rule="nonzero" d="M353.935 167.726a4.252 4.252 0 0 1-2.143 1.812c.038.307.045.618.019.927l-3.439-.208 3.347.739a4.339 4.339 0 0 1-1.65 2.562h-4.653v.123h-4.745c0-.042 0-.08.03-.123.102-.39.259-.765.466-1.112a4.264 4.264 0 0 1 2.14-1.812 4.309 4.309 0 0 1 2.716-4.57 3.874 3.874 0 0 1-.034-.593l2.212.877-2.19-1.292a4.308 4.308 0 0 1 1.67-2.974l2.013 3.285-1.509-3.616a4.257 4.257 0 0 1 5.124.79 4.332 4.332 0 0 1 .607 5.185h.019z" opacity=".1"/>
        <path fill="#F36B32" fill-rule="nonzero" d="M351.045 172.217a4.365 4.365 0 0 1-1.128 1.334h-4.58v.13h-4.666c0-.044 0-.085.03-.13.1-.413.254-.81.458-1.175a4.289 4.289 0 0 1 2.104-1.916c-.037-.33.868-.285 2.074-.065 2.36.431 5.87 1.533 5.708 1.822zM324.627 167.726c.49.83 1.246 1.47 2.143 1.812a4.43 4.43 0 0 0-.02.927l3.438-.208-3.346.739a4.339 4.339 0 0 0 1.65 2.562h4.664v.123h4.747c0-.042-.023-.08-.03-.123a4.523 4.523 0 0 0-.467-1.112 4.286 4.286 0 0 0-2.142-1.812 4.309 4.309 0 0 0-2.716-4.57 4.41 4.41 0 0 0 .038-.593l-2.21.877 2.184-1.292a4.309 4.309 0 0 0-1.67-2.974l-2.012 3.285 1.509-3.616a4.255 4.255 0 0 0-5.122.79 4.333 4.333 0 0 0-.607 5.185h-.03z" opacity=".1"/>
        <path fill="#F36B32" fill-rule="nonzero" d="M327.53 172.217c.287.523.67.977 1.126 1.334h4.582v.13h4.665c0-.044-.023-.085-.03-.13a4.986 4.986 0 0 0-.458-1.175 4.308 4.308 0 0 0-2.105-1.916c.037-.33-.867-.285-2.072-.065-2.364.431-5.881 1.533-5.708 1.822z" opacity=".1"/>
        <path fill="#464353" fill-rule="nonzero" d="M335.827 154.998h7.612v8.303h-7.612z"/>
        <path fill="#000" fill-rule="nonzero" d="M335.827 154.998h7.612v8.303h-7.612z" opacity=".1"/>
        <path fill="#EAA" fill-rule="nonzero" d="M332.507 170.895l-.14 2.094h1.954l.122-2.767zM343.762 170.895l-.323 2.094h1.953l.122-2.767zM338.238 159.42s-.07.98-.318 1.236c-.247.256 2.205 2.522 4.135.283 0 0-.83-.674-.635-1.428.194-.755-3.182-.091-3.182-.091z"/>
        <path fill="#000" fill-rule="nonzero" d="M338.238 159.42s-.07.98-.318 1.236c-.247.256 2.205 2.522 4.135.283 0 0-.83-.674-.635-1.428.194-.755-3.182-.091-3.182-.091z" opacity=".1"/>
        <circle cx="339.633" cy="156.036" r="3.806" fill="#EAA" fill-rule="nonzero"/>
        <path fill="#F36B32" fill-rule="nonzero" d="M339.522 161.307s-1.614-.026-1.855-1.465c-.32.27-.657.52-1.01.747-.156.053-1.697.905-1.988.957a1.655 1.655 0 0 0-.765.373 3.238 3.238 0 0 0-1.273 2.436c-.053 1.685-.264 4.977-.264 4.977l.08 1.192v.777s1.43.373 2.295-.374c0 0 0-.284.16-.374.161-.09.184-.467.157-.623a5.92 5.92 0 0 1 0-.7.5.5 0 0 0 .215.311c.063.21.081.432.053.65-.08.153-.16.516-.08.594a.367.367 0 0 1-.054.441 2.55 2.55 0 0 0-.344.65s-.08.463-.16.516c-.091.19-.153.39-.184.597h9.56a8.822 8.822 0 0 1-.382-1.453c.026-.232-.237-1.192-.054-1.45.27-.341.42-.76.425-1.191l.107 1.008-.291 2.242s1.774.546 1.962.206c.198-.592.349-1.198.451-1.812 0 0 .424-1.868.532-2.126.107-.258.344-5.44-1.09-6.19-1.434-.752-4.138-2.045-4.207-1.981a1.786 1.786 0 0 1-1.996 1.065z"/>
        <path stroke="#000" d="M334.954 166.762c-.405.404-.578.9-.487 1.39.095.485.322.952.668 1.378M344.357 166.762c.124.192.221.39.29.59.252.508.085 1.051-.456 1.486" opacity=".1"/>
        <path fill="#464353" fill-rule="nonzero" d="M337.66 153.52c.299-.08.617-.047.894.091.273.14.559.254.854.339.198.041.38.041.601.072a1.873 1.873 0 0 1 1.501 1.464c.172.935-.38 1.855-.38 2.81.001.546.194 1.074.544 1.494.294.267.55.573.762.909.11.243.133.52.24.76.233.431.618.76 1.081.92a7.38 7.38 0 0 1 1.322.594c.762.505 1.211 1.475 2.095 1.684.089.038.19.038.278 0a.342.342 0 0 0 .13-.266 1.242 1.242 0 0 0-.355-1.023c-.217-.217-.533-.38-.601-.673-.069-.293.114-.544.213-.81.316-.863-.21-1.802-.808-2.502-.598-.7-1.314-1.391-1.458-2.281a5.994 5.994 0 0 1-.035-.905 5.995 5.995 0 0 0-.32-1.83 2.687 2.687 0 0 0-.457-.877c-.19-.229-.434-.404-.632-.624a9.39 9.39 0 0 1-.709-1.14 3.43 3.43 0 0 0-2.8-1.571c-1.07 0-2.083.471-2.99 1.038a2.562 2.562 0 0 0-.845.741c-.38.605-.266 1.403-.487 2.088-.221.684-.743 1.19-.926 1.86a1.302 1.302 0 0 0-.027.604c.068.212.159.416.27.608.203.49.318 1.011.34 1.54.057.639.084 1.327-.252 1.871-.26.33-.584.604-.952.806.374.303.85.448 1.33.407.723.03 1.561 0 2.01-.57a1.99 1.99 0 0 0 .305-1.388 5.828 5.828 0 0 0-.32-1.552c-.247-.703-.628-1.369-.739-2.106a1.982 1.982 0 0 1 .381-1.521c.137-.171.381-.259.496-.441.144-.244.102-.498.445-.62z"/>
        <g fill="#000" fill-rule="nonzero" opacity=".1">
            <path d="M334.925 157.183c.203.473.318.977.34 1.489 0 .162.027.327.031.493.04-.36.04-.722 0-1.081a4.2 4.2 0 0 0-.34-1.47c-.11-.187-.201-.382-.272-.585a1.196 1.196 0 0 0-.027.58c.068.2.158.393.268.574zM337.445 160.572c-.451.548-1.292.581-2.019.556-.307 0-.613-.044-.906-.133-.146.114-.302.22-.455.324.375.292.853.433 1.334.393.727.03 1.568 0 2.02-.551.258-.368.37-.813.313-1.254a1.38 1.38 0 0 1-.287.665zM347.009 162.043c.01.042.026.082.046.121.046-.103.1-.21.141-.316.092-.242.118-.503.077-.757-.013.058-.03.116-.05.173-.1.257-.28.514-.214.779zM341.87 155.852a2.21 2.21 0 0 0 0-.76c-.154-.724-.751-1.285-1.507-1.416-.203-.033-.406-.033-.604-.07a5.114 5.114 0 0 1-.857-.327 1.32 1.32 0 0 0-.899-.092c-.344.118-.302.368-.455.61-.11.177-.36.265-.497.427-.303.389-.44.874-.382 1.356.048-.28.17-.545.355-.768.138-.165.383-.25.498-.426.153-.247.11-.493.455-.61.3-.078.62-.046.898.088.274.135.56.245.857.327.199.04.382.04.604.07.756.132 1.352.692 1.507 1.415.012.058.021.117.026.176zM347.823 163.943a.397.397 0 0 1-.279 0c-.887-.202-1.346-1.14-2.103-1.628a8.143 8.143 0 0 0-1.327-.574 1.947 1.947 0 0 1-1.086-.886c-.107-.238-.13-.503-.24-.735a4.328 4.328 0 0 0-.766-.878 2.244 2.244 0 0 1-.55-1.29 2.222 2.222 0 0 0 .54 1.886c.294.258.551.553.764.878.11.235.134.503.24.735.235.416.622.734 1.087.89.46.148.905.34 1.327.573.764.489 1.216 1.426 2.103 1.629.089.037.19.037.279 0a.33.33 0 0 0 .13-.258c.017-.138.01-.279-.023-.415a.232.232 0 0 1-.096.073z"/>
        </g>
        <path fill="#F36B32" fill-rule="nonzero" d="M326.832 151.539h4.844v6.92h-4.844z" opacity=".1"/>
        <path fill="#F36B32" fill-rule="nonzero" d="M327.524 152.231h3.46v4.844h-3.46zM347.59 152.231h7.612v4.152h-7.612z" opacity=".1"/>
        <path fill="#F36B32" fill-rule="nonzero" d="M348.282 152.923h5.536v2.768h-5.536z" opacity=".1"/>
        <g fill-rule="nonzero">
            <path fill="#72A648" d="M82.771 221.727c-.034.642-.36 1.246-.903 1.678a3.016 3.016 0 0 1-1.996.626l-64.68-2.683c-1.528-.066-2.707-1.201-2.635-2.537l.27-5.02c.033-.644.359-1.249.904-1.681a3.017 3.017 0 0 1 2-.626l64.677 2.687c1.528.064 2.708 1.2 2.636 2.536l-.273 5.02"/>
            <path fill="#585A58" d="M60.836 241.54c0 .48-.169.94-.47 1.279-.302.339-.71.529-1.137.529H8.367c-.89 0-1.607-.808-1.607-1.808v-8.938c0-.999.72-1.808 1.607-1.808H59.23c.887 0 1.607.81 1.607 1.808v8.938"/>
            <path fill="#EECB3F" d="M80.15 249.583c.026.881-.647 1.617-1.51 1.645l-57.566 1.776c-.862.025-1.584-.669-1.611-1.548l-.149-4.687c-.031-.88.644-1.617 1.51-1.642l57.563-1.778c.86-.032 1.58.662 1.606 1.544l.147 4.685"/>
            <path fill="#222B4F" d="M72.425 260.956c0 .942-.712 1.705-1.591 1.705H13.179c-.88 0-1.591-.763-1.591-1.705v-3.348c0-.941.711-1.707 1.591-1.707h57.655c.879 0 1.59.766 1.59 1.707v3.348"/>
            <path fill="#E36F4A" d="M73.39 229.174c0 .894-1.006 1.62-2.246 1.62H2.247c-1.24 0-2.247-.729-2.247-1.623v-3.514c0-.894 1.006-1.623 2.247-1.623h68.896c1.24 0 2.248.73 2.248 1.623v3.514"/>
        </g>
    </g>
</svg>
