<svg xmlns="http://www.w3.org/2000/svg" xmlns:xlink="http://www.w3.org/1999/xlink" width="1600" height="741" viewBox="0 0 1600 741">
    <defs>
        <linearGradient id="b" x1="0%" y1="50%" y2="50%">
            <stop offset="0%" stop-color="#FF7E3F"/>
            <stop offset="100%" stop-color="#FFA13A"/>
        </linearGradient>
        <path id="a" d="M0 .598l1600 50v640l-1600 50z"/>
    </defs>
    <g fill="none" fill-rule="evenodd" transform="translate(.949 -.109)">
        <mask id="c" fill="#fff">
            <use xlink:href="#a"/>
        </mask>
        <use fill="url(#b)" xlink:href="#a"/>
        <path fill="#FFF" fill-opacity=".1" d="M94.5 552.466l129.93 75.015a100 100 0 0 1 50 86.602v150.03a100 100 0 0 1-50 86.603L94.5 1025.73a100 100 0 0 1-100 0l-129.93-75.015a100 100 0 0 1-50-86.603v-150.03a100 100 0 0 1 50-86.602L-5.5 552.466a100 100 0 0 1 100 0z" mask="url(#c)" style="mix-blend-mode:overlay" transform="rotate(45 44.5 789.098)"/>
        <path fill="#FFF" fill-opacity=".2" d="M533.125-58.132L802.052 97.132a100 100 0 0 1 50 86.603v310.53a100 100 0 0 1-50 86.603L533.125 736.132a100 100 0 0 1-100 0L164.198 580.868a100 100 0 0 1-50-86.603v-310.53a100 100 0 0 1 50-86.603L433.125-58.132a100 100 0 0 1 100 0z" mask="url(#c)" style="mix-blend-mode:overlay" transform="rotate(15 483.125 339)"/>
        <path fill="#FFF" fill-opacity=".15" d="M1410.387 405.196l75.37 43.515a100 100 0 0 1 50 86.602v87.03a100 100 0 0 1-50 86.603l-75.37 43.515a100 100 0 0 1-100 0l-75.37-43.515a100 100 0 0 1-50-86.603v-87.03a100 100 0 0 1 50-86.602l75.37-43.515a100 100 0 0 1 100 0z" mask="url(#c)" style="mix-blend-mode:overlay" transform="rotate(35 1360.387 578.828)"/>
    </g>
</svg>
