<svg xmlns="http://www.w3.org/2000/svg" xmlns:xlink="http://www.w3.org/1999/xlink" width="211" height="193" viewBox="0 0 211 193">
    <defs>
        <filter id="a" width="133.2%" height="131.6%" x="-16.6%" y="-15.8%" filterUnits="objectBoundingBox">
            <feOffset dy="2" in="SourceAlpha" result="shadowOffsetOuter1"/>
            <feGaussianBlur in="shadowOffsetOuter1" result="shadowBlurOuter1" stdDeviation="7.5"/>
            <feColorMatrix in="shadowBlurOuter1" result="shadowMatrixOuter1" values="0 0 0 0 0 0 0 0 0 0 0 0 0 0 0 0 0 0 0.15 0"/>
            <feMerge>
                <feMergeNode in="shadowMatrixOuter1"/>
                <feMergeNode in="SourceGraphic"/>
            </feMerge>
        </filter>
        <path id="b" d="M.001.336h160.6v201.8H.002z"/>
    </defs>
    <g fill="none" fill-rule="evenodd" filter="url(#a)" transform="translate(15 13)">
        <g transform="translate(22 9)">
            <mask id="c" fill="#fff">
                <use xlink:href="#b"/>
            </mask>
            <path fill="#C0C0C0" d="M159.787 165.046c4.2-25.418-9.155-77.62-10.162-103.904-.888-23.222-18.232-36.273-34.13-49.788C98.648 2.916 85.279.336 68.149.336c-16.843 0-58.015 29.626-65.042 52.081-4.42 14.127-3.848 24.98 0 37.343 7.335 23.8-6.523 26.303.228 38.537.027.03.05.069.067.128-.026-.044-.044-.084-.067-.128-1.446-1.569-18.185 36.679 41.893 24.182 16.689-3.471 1.058 34.37.952 47.056a124.017 124.017 0 0 0 25.318 2.601c34.545 0 65.788-14.194 88.29-37.09" mask="url(#c)"/>
        </g>
        <path fill="#C0C0C0" d="M24.457 137.418c.031.056.055.107.085.163a.372.372 0 0 0-.085-.162"/>
        <path fill="#5F5F5F" d="M20.343 75.043c5.605-1.5 10.469 7.75 10.43 7.957a.531.531 0 0 1 .016-.022c2.234-2.868 4.534-10.466 6.464-19.74 1.3-6.237 2.429-13.223 3.258-20.06a245.194 245.194 0 0 0 .638-5.827c.141-1.461.265-2.897.371-4.307.04-.505.078-1.007.113-1.503l.03-.457c.597-8.894.447-16.395-.824-19.938-.141-.391-.261-.785-.54-.891-1.088-.412-9.249-.728-17.877 2.444-.05.018-.105.054-.155.073l-.041.02c-5.07 2.007-12.53 10.566-17.908 17.294-.097.122-.191.246-.288.37l.04-.06-.249.311c.004.009.025-.022.035-.028l-.03.038C1.266 34.003-1.968 59.507 1.54 74.7c.01.036.03.053.039.086-.075-.275 9.358 2.774 18.764.257"/>
        <path fill="#424242" d="M13.914 78.292l2.311.403 4.131 1.585 9.595 3.68c.457.174.9-.24 1.017-.814.037-.18.044-.374.008-.572-3.532-19.162-8.374-39.027-12.762-35.065C11.618 53.457 4.734 64.986 2.045 74.9a1.41 1.41 0 0 0 .027.795c.038.121.092.223.16.317.025.035.045.078.074.108a.666.666 0 0 0 .361.211l5.16.9 6.087 1.061z"/>
        <path fill="#5F5F5F" d="M124.233 48.185c-1.531.415-3.186 1.26-4.881 2.375.008.001.03-.003.024.002-5.275 4.092-8.855 7.538-12.843 13.173-5.005 7.248-8.063 15.15-5.744 19.393 5.427 9.93 26.317 5.32 47.475.344 13.561-6.32-13.362-38.18-24.03-35.287"/>
        <path fill="#929292" d="M108.618 63.71s1.508-9.553 7.87-8.036c6.362 1.517 11.072 5.39 15.82 7.733 4.233 2.09 9.622 1.218 4.782-4.356-5.017-5.773-10.351-11.4-17.74-12.023h-.026c-4.484-.361-8.502 2.774-10.62 7.148-1.108 2.282-1.67 4.683-1.703 7.327-.005.344.025.877.088 1.423.187 1.602.678 3.322 1.529.783"/>
        <path fill="#000" d="M119.969 64.009c4.036-.332 15.173 8.884 22.031 10.49-2.954 1.516-5.676 2.655-8.185 3.501a59.311 59.311 0 0 0 3.712-1.751c-.641-.73-1.33-1.443-2.045-2.134-.026-.025-.051-.052-.078-.077a41.803 41.803 0 0 0-2.212-1.976c-.026-.022-.05-.044-.078-.066a44.38 44.38 0 0 0-4.78-3.455l-.002-.001a35.013 35.013 0 0 0-2.553-1.453l-.004-.002a27.565 27.565 0 0 0-1.186-.575l-.038-.017a21.919 21.919 0 0 0-1.06-.446c-.037-.014-.074-.03-.11-.045-.315-.12-.618-.223-.915-.317-.058-.019-.119-.042-.176-.06a11.077 11.077 0 0 0-.79-.206c-.066-.016-.139-.038-.205-.052a7.504 7.504 0 0 0-.69-.106c-.065-.008-.138-.023-.202-.029a4.708 4.708 0 0 0-.775-.008 3.598 3.598 0 0 0-.908.205c-.102.036-.202.096-.304.14-.199.087-.398.174-.596.292-.116.07-.23.156-.346.234-.18.125-.361.247-.54.393-.114.093-.226.196-.339.297-.177.158-.354.318-.528.493-.105.106-.207.217-.31.328a16.547 16.547 0 0 0-.798.921c-.187.233-.37.469-.549.712-.068.092-.135.182-.201.275-.201.28-.396.561-.585.847l-.116.175c-.223.34-.436.679-.64 1.016l-.004.007-.002.004c-1.465 2.427-2.413 4.624-2.413 4.624s.075.13.228.339c-.455-.369-.677-.613-.677-.613s4.935-11.49 9.969-11.904"/>
        <path fill="#FFF" d="M112.407 70.152l.001-.004a8.195 8.195 0 0 0-.103 1.594c.095 2.735 1.548 5.09 3.686 6.512a8.423 8.423 0 0 0 8.184.676c3.012-1.355 5.064-4.383 4.944-7.83a8.081 8.081 0 0 0-1.286-4.1 41.91 41.91 0 0 1 2.4 1.688l.019.014a44.899 44.899 0 0 1 2.348 1.902l.077.069a42.022 42.022 0 0 1 2.207 2.06l.077.081c.713.72 1.4 1.463 2.039 2.226a57.777 57.777 0 0 1-3.702 1.825 42.506 42.506 0 0 1-5.034 1.907c-2.06.626-3.909.983-5.566 1.136a19.45 19.45 0 0 1-3.412.032 15.37 15.37 0 0 1-2.804-.485c-.84-.23-1.584-.518-2.24-.837a11.88 11.88 0 0 1-1.719-1.02c-.49-.353-.901-.708-1.239-1.038a9.934 9.934 0 0 1-.58-.62 7.908 7.908 0 0 1-.4-.504c-.03-.04-.05-.072-.076-.108-.152-.218-.228-.353-.228-.353s.946-2.292 2.407-4.823"/>
        <path fill="#00C1DE" d="M127.095 69.642c.103 2.753-2.442 5.077-5.687 5.19-3.246.115-5.96-2.024-6.065-4.777-.103-2.754 2.443-5.078 5.688-5.191 3.245-.115 5.96 2.025 6.064 4.778m.6-2.419a35.982 35.982 0 0 0-2.573-1.407l-.003-.002c-.408-.2-.805-.386-1.196-.557-.013-.004-.026-.011-.038-.016a23.39 23.39 0 0 0-1.068-.432c-.037-.014-.075-.03-.112-.043a16.202 16.202 0 0 0-.92-.308c-.059-.018-.12-.04-.178-.058a12.47 12.47 0 0 0-.796-.2c-.067-.015-.14-.036-.207-.05a8.136 8.136 0 0 0-.695-.102c-.066-.007-.139-.022-.203-.028a4.935 4.935 0 0 0-.781-.008 3.765 3.765 0 0 0-.916.2c-.102.033-.203.09-.305.134a5.306 5.306 0 0 0-.601.282c-.117.068-.232.152-.348.228-.182.12-.365.24-.545.38-.114.09-.227.19-.341.288a11.33 11.33 0 0 0-.532.477c-.106.103-.209.21-.313.318a16.25 16.25 0 0 0-.803.892 21.158 21.158 0 0 0-.758.956c-.201.27-.397.543-.588.82l-.117.168c-.225.33-.44.659-.645.985l-.004.006v.001c-.084.48-.124.975-.104 1.48.096 2.539 1.564 4.724 3.724 6.045a9.06 9.06 0 0 0 5.06 1.322 9.25 9.25 0 0 0 3.21-.694c3.044-1.257 5.117-4.07 4.996-7.27-.053-1.404-.527-2.7-1.3-3.807"/>
        <path fill="#222" d="M120.116 72.999c-1.553.054-2.867-1.104-2.924-2.577-.056-1.472 1.165-2.717 2.72-2.77 1.554-.054 2.867 1.103 2.924 2.576.056 1.473-1.165 2.717-2.72 2.77m7.88-1.205c-.106-2.76-2.876-4.903-6.188-4.789-3.311.114-5.91 2.443-5.805 5.203.107 2.758 2.877 4.902 6.19 4.789 3.311-.115 5.91-2.444 5.804-5.203"/>
        <path fill="#5F5F5F" d="M29.514 81.976c15.082 2.41 29.932 4.51 32.296-5.18 1.01-4.142-2.134-11.096-6.517-17.251-3.473-4.774-6.374-7.577-10.517-10.8-.005-.005.01-.003.016-.005-1.304-.852-2.546-1.459-3.644-1.684-7.657-1.567-21.72 30.497-11.634 34.92"/>
        <path fill="#929292" d="M52.979 63.709s-1.525-9.483-5.829-8.085c-4.303 1.399-7.35 5.158-10.5 7.398-2.81 2-6.564 1.05-3.515-4.39 3.162-5.635 6.549-11.12 11.604-11.615h.019c3.069-.285 5.995 2.885 7.676 7.25.88 2.28 1.388 4.665 1.546 7.283.02.342.027.869.011 1.409-.047 1.583-.298 3.277-1.012.75"/>
        <path fill="#000" d="M47.537 64.002C44.632 63.837 36.88 72.464 32 74.13c2.16 1.262 4.143 2.194 5.965 2.87a38.949 38.949 0 0 1-2.71-1.448c.442-.676.917-1.337 1.413-1.98.018-.024.035-.05.054-.073a34.563 34.563 0 0 1 1.536-1.844l.054-.061a34.633 34.633 0 0 1 1.655-1.725 32.51 32.51 0 0 1 1.685-1.53h.001l.001-.001a25.09 25.09 0 0 1 1.796-1.388c.284-.198.564-.383.837-.553l.026-.017c.257-.16.506-.303.75-.435.025-.014.052-.03.078-.043.222-.12.437-.222.648-.316l.124-.058c.195-.084.38-.151.561-.212.048-.016.1-.038.146-.052.174-.053.334-.087.493-.118.047-.01.098-.026.144-.033.198-.03.385-.042.556-.032.218.012.438.069.658.154.073.029.147.078.22.115.147.072.291.143.436.242.085.059.169.133.254.2.134.104.267.209.397.333.086.08.168.17.252.256.132.135.263.273.392.425.077.091.154.188.231.284a14.204 14.204 0 0 1 .596.8c.14.202.278.408.413.619l.152.24c.152.245.299.49.442.74l.087.154c.169.298.33.594.485.89l.004.005c0 .002 0 .003.002.004 1.114 2.128 1.852 4.067 1.852 4.067s-.051.118-.156.31c.318-.344.47-.57.47-.57s-3.84-10.14-7.463-10.347"/>
        <path fill="#FFF" d="M52.998 68.212s0-.002-.002-.003c.08.444.124.903.124 1.372 0 2.364-1.067 4.443-2.691 5.742-1.084.866-2.41 1.394-3.857 1.394a6.056 6.056 0 0 1-2.49-.54c-2.38-1.07-4.058-3.617-4.058-6.596 0-1.306.328-2.527.89-3.58V66c-.605.475-1.215.987-1.822 1.536l-.014.013c-.6.542-1.194 1.116-1.775 1.72l-.059.061c-.569.594-1.127 1.211-1.66 1.851l-.058.073A31.664 31.664 0 0 0 34 73.242a42.695 42.695 0 0 0 2.93 1.454 30.803 30.803 0 0 0 3.966 1.48c1.618.472 3.067.718 4.36.796.97.058 1.854.023 2.655-.085a10.898 10.898 0 0 0 2.168-.511 9.606 9.606 0 0 0 1.72-.797 9.088 9.088 0 0 0 1.31-.937 8.45 8.45 0 0 0 1.37-1.49c.121-.17.22-.322.297-.448l.056-.096c.113-.193.168-.313.168-.313s-.798-1.947-2.002-4.083"/>
        <path fill="#00C1DE" d="M46.453 64.864c2.292 0 4.15 2.08 4.15 4.643 0 2.564-1.858 4.643-4.15 4.643-2.292 0-4.15-2.08-4.15-4.643 0-2.564 1.858-4.643 4.15-4.643M41 70.86c0 2.981 1.537 5.53 3.718 6.6A5.158 5.158 0 0 0 47 78c1.326 0 2.54-.528 3.534-1.395C52.022 75.306 53 73.225 53 70.859c0-.47-.04-.928-.113-1.372l-.003-.007a35.446 35.446 0 0 0-.48-.894c-.03-.051-.06-.102-.088-.154a24.71 24.71 0 0 0-.588-.984 19.634 19.634 0 0 0-.606-.906c-.13-.18-.26-.352-.393-.52-.077-.097-.152-.194-.23-.286a9.088 9.088 0 0 0-.388-.427c-.082-.087-.164-.176-.248-.257a5.617 5.617 0 0 0-.394-.334c-.084-.067-.167-.142-.252-.2a3.337 3.337 0 0 0-.431-.244c-.073-.037-.146-.087-.218-.115a2.096 2.096 0 0 0-.652-.156c-.17-.01-.354.003-.55.033-.046.007-.097.024-.143.033a4.47 4.47 0 0 0-.487.118c-.047.015-.098.037-.145.054a6.74 6.74 0 0 0-.556.212c-.04.017-.083.04-.124.058-.208.094-.42.198-.641.317l-.077.043c-.242.133-.488.278-.742.437-.01.005-.018.012-.027.017-.27.172-.547.357-.828.557l-.003.001a25.14 25.14 0 0 0-1.776 1.393h-.001A8.15 8.15 0 0 0 41 70.86"/>
        <path fill="#222" d="M42.691 69.062c0-1.327.952-2.408 2.117-2.408 1.167 0 2.117 1.081 2.117 2.408 0 1.326-.95 2.408-2.117 2.408-1.165 0-2.117-1.082-2.117-2.408M46.5 75a4.5 4.5 0 1 0 .001-9 4.5 4.5 0 0 0 0 9"/>
        <path fill="#EBEBEB" d="M97.057 98.156c-7.21-6.495-7.849-14.747-6.286-20.366 2.674-9.614 4.712-12.307 8.834-17.421 4.027-4.997 6.696-8.138 5.222-11.55-1.688-3.908-3.78-6.515-7.985-7.574-6.88-1.53-13.673-3.304-19.534-1.453 0 0-14.94 5.317-16.945 8.121-1.404 3.095-.551 5.696 1.485 9.659 2.463 4.797 2.996 8.596 3.227 10.772.595 5.597-.37 10.37-4.33 13.065-7.6 5.174-23.243 4.493-38.096 8.416-11.624 3.07-19.921 21.466-18.488 37.157 1.16 12.707 8.965 36.272 22.905 36.272 4.385 0 4.534-1.021 6.965-3.493 2.63 2.797 8.152 4.788 15.969 5.723 19.707 2.356 28.54 2.693 47.566-4.376a30.129 30.129 0 0 0 7.001-5.8c6.513-7.343 7.445-15.857 7.949-20.458.38-3.464 1.412-9.905-1.571-17-1.911-4.545-5.48-12.12-13.888-19.694"/>
        <path fill="#F3A7C8" d="M46.07 96.57c-.584-1.22-1.377-2.365-2.174-3.351a26.395 26.395 0 0 0-2.928-3.063c-.176-.155-.277-.239-.277-.239s-2.448-1.875-5.432-3.127c-2.218-.93-4.584-.835-6.759-.716-2.176-.12-4.54-.214-6.76.716-2.983 1.252-5.431 3.127-5.431 3.127s-.102.084-.277.24a26.283 26.283 0 0 0-2.928 3.063c-.797.985-1.59 2.13-2.175 3.35-.584 1.22-.961 2.515-.927 3.796.046 1.71.823 3.398 2.815 4.86.3.22.567.446.925.655a26.413 26.413 0 0 0 3.883 1.898c2.272 4.585 6.691 11.317 10.865 12.215V120c.002 0 .003 0 .005-.002l.005-.001.01.003v-.006c4.173-.898 8.593-7.63 10.865-12.215a26.45 26.45 0 0 0 3.883-1.898c.357-.21.625-.435.925-.656 1.991-1.461 2.768-3.15 2.815-4.859.034-1.281-.343-2.576-.927-3.795"/>
        <path fill="#929292" d="M60.5 129a1.5 1.5 0 1 0 0-3 1.5 1.5 0 0 0 0 3M66.5 133a1.5 1.5 0 1 0 0 3 1.5 1.5 0 0 0 0-3M73.5 129a1.499 1.499 0 1 0 0-3 1.5 1.5 0 1 0 0 3M73.5 132a1.5 1.5 0 1 0-.001 2.999A1.5 1.5 0 0 0 73.5 132M68.5 132a1.499 1.499 0 1 0 0-3 1.5 1.5 0 1 0 0 3M66.5 124a1.5 1.5 0 1 0 0-3 1.5 1.5 0 0 0 0 3M71.5 139a1.5 1.5 0 1 0 0 3 1.5 1.5 0 0 0 0-3M80 140.5a1.5 1.5 0 1 0-3-.001 1.5 1.5 0 0 0 3 .001"/>
        <path fill="#77411C" d="M119.036.37c-12.947-1.283-18.673 3.324-29.537 3.08C72.733 3.075 66.616-1.562 55.22.548c-2.276.54-4.663 1.217-7.678 2.61-4.76 2.2-10.783 9.478-12.055 16.64-2.78 15.658 6.639 30.277 21.036 32.654 11.21 1.851 27.23-6.9 32.83-17.09 8.968 11.47 10.483 17.976 31.28 17.624 17.595-.296 28.884-9.599 32.196-27.6C154.065 18.66 149.2 4.349 119.036.37"/>
        <path fill="#FFF" d="M43.016 25.486c-.363 11.31 5.38 20.035 12.827 19.49 7.447-.545 13.778-10.154 14.14-21.462.363-11.31-5.38-20.034-12.827-19.49-7.446.545-13.778 10.154-14.14 21.462"/>
        <path fill="#858181" d="M36.767 21.16c2.093-6.848 8.148-13.208 8.599-13.674 2.676-.952 5.68-1.182 8.492-1.31.622-.03 1.24-.052 1.84-.078 2.136-.091 4.32-.136 6.472-.057 1.747.059 3.473.205 5.13.472 4.556.736 7.098 4.175 8.816 7.084 2.231 3.777 2.363 7.304 1.013 11.606-1.157 3.687-3.163 7.572-6.719 10.553-2.98 2.498-6.645 4.764-10.873 5.736-1.257.29-2.524.536-3.796.74a12.51 12.51 0 0 1-.41-1.442c-2.138-9.48 3.837-26.824 6.362-33.512-2.51-.166-6.035.038-8.602.244-2.347 4.26-6.066 12.378-6.02 20.963 0 0 1.737-4.186 4.341-7.975-.997 5.784-2.055 14.919-.172 20.752.167.518.355 1.01.573 1.473-1.52.145-3.046.23-4.562.255-3.652.058-7.228-.095-10.003-1.523-3.421-5.33-2.4-14.02-.481-20.308"/>
        <path fill="#AFACAD" d="M90.114 25.795c-2.91 8.853-11.85 14.143-19.417 18.295-8.004 4.388-18.25 3.85-21.246 3.91-2.549.053-10.126-3.161-12.451-4.179 2.47.994 5.391 1.361 8.529 1.054 7.275-.708 7.74-.361 14.397-1.667 4.098-.803 11.837-4.01 16.842-9.49 2.84-3.113 4.405-6.863 5.591-10.376 1.439-4.27 2.208-7.88.171-11.79-1.467-2.815-3.092-6.574-6.15-8.573-1.176-.769-3.325-1.47-5.954-1.979 6.133.748 12.753 3.702 14.093 5.281 1.11 1.306 6.097 6.008 6.481 13.142 0 0-2.126 3.754-.886 6.372"/>
        <path fill="#D1CFCD" d="M37.776 40.809c-3.23-2.679-4.4-6.887-3.918-10.638a36.806 36.806 0 0 1 1.615-6.984c1.666-4.99 4.494-12.266 11.072-15.282.404-.187.82-.352 1.245-.5 2.74-.965 5.817-1.2 8.696-1.33.639-.03 1.27-.052 1.885-.079 2.188-.092 4.425-.138 6.63-.057 1.79.06 3.557.208 5.253.479 4.668.747 7.27 4.24 9.03 7.194 2.285 3.836 2.42 7.418 1.038 11.787-1.185 3.744-3.24 7.69-6.882 10.717-3.052 2.537-6.806 4.839-11.136 5.825a61.049 61.049 0 0 1-7.91 1.262c-1.559.148-3.12.233-4.675.26-3.74.058-7.402-.097-10.245-1.547a8.982 8.982 0 0 1-1.698-1.107m-5.957-.463c.036.072.074.144.118.214a11.052 11.052 0 0 0 3.086 3.58c.728.553 1.53 1.03 2.397 1.423.003.005.008.008.017.01a1.19 1.19 0 0 0 .068.03c.056.023.136.059.24.104l.073.031c.066.029.14.062.222.096a.747.747 0 0 1 .068.028c2.475.976 5.405 1.336 8.55 1.035 7.294-.695 7.76-.356 14.436-1.637 4.108-.789 11.867-3.939 16.885-9.32 2.847-3.058 4.416-6.74 5.605-10.19 1.442-4.193 2.215-7.74.172-11.579-1.471-2.764-3.1-6.456-6.166-8.42-1.18-.754-3.333-1.443-5.97-1.942-3.01-.57-6.65-.893-10.169-.79-.232.006-.47.016-.712.023-.635.024-1.3.052-1.988.091-3.437.193-7.418.624-10.979 1.646-1.747.503-3.394 1.15-4.823 1.98-1.132.657-2.126 1.43-2.93 2.338l-.077.089c-4.41 5.048-6.537 12.709-6.537 12.709s-1.757 5.814-2.268 11.2c-.27 2.843-.189 5.569.682 7.251"/>
        <path fill="#A9A9A9" d="M35.715 23.548C37.376 18.633 40.2 11.464 46.76 8.491c.403-.184.817-.345 1.241-.491-.46.467-6.647 6.83-8.785 13.681-1.96 6.292-3.003 14.986.492 20.319a8.951 8.951 0 0 1-1.695-1.09c-3.222-2.64-4.389-6.786-3.908-10.481.296-2.29.842-4.608 1.611-6.88"/>
        <path fill="#FFF" d="M98.545 24.455c-2.129 11.307 2.17 20.941 9.601 21.518 7.431.577 15.182-8.12 17.31-19.428 2.128-11.307-2.171-20.94-9.602-21.518-7.432-.577-15.181 8.122-17.31 19.428"/>
        <path fill="#858181" d="M95.824 18.95c3.127-6.62 10.004-12.174 10.515-12.58 2.739-.576 5.68-.374 8.417-.098.607.06 1.207.127 1.792.188 2.079.216 4.196.486 6.264.877 1.678.312 3.323.71 4.88 1.22 4.286 1.402 6.187 5.247 7.378 8.435 1.547 4.143 1.106 7.727-.892 11.882-1.713 3.56-4.279 7.199-8.195 9.698-3.282 2.094-7.19 3.856-11.432 4.227a54.51 54.51 0 0 1-3.788.201 13.28 13.28 0 0 1-.164-1.518c-.537-9.894 8.033-26.566 11.552-32.963-2.399-.53-5.838-.833-8.352-.996-2.956 3.968-7.858 11.637-9.198 20.324 0 0 2.353-3.982 5.48-7.435-1.895 5.703-4.39 14.786-3.512 20.956.078.548.18 1.073.318 1.572a55.152 55.152 0 0 1-4.45-.402c-3.54-.47-6.97-1.141-9.422-2.986-2.447-5.884-.058-14.521 2.81-20.601"/>
        <path fill="#AFACAD" d="M144.075 31.457c-4.134 8.07-13.42 11.894-21.228 14.82-8.259 3.09-17.871 1.154-20.715.798-2.421-.302-9.09-4.427-11.132-5.724 2.183 1.294 4.89 2.05 7.907 2.19 6.995.33 7.38.726 13.885.4 4.003-.202 11.828-2.2 17.418-6.75 3.172-2.587 5.239-5.958 6.909-9.157 2.027-3.886 3.32-7.235 2-11.258-.948-2.898-1.9-6.72-4.482-9.058-.994-.898-2.917-1.867-5.326-2.718 5.687 1.565 11.49 5.31 12.513 7.006.845 1.403 4.832 6.594 4.083 13.475 0 0-2.598 3.3-1.832 5.976"/>
        <path fill="#D1CFCD" d="M92.823 38.089c-2.624-3.148-3.06-7.538-2.01-11.234a39.566 39.566 0 0 1 2.635-6.779c2.365-4.77 6.192-11.671 12.88-13.763.412-.13.83-.236 1.256-.324 2.74-.579 5.682-.376 8.421-.098.608.06 1.209.129 1.793.19 2.08.218 4.2.49 6.269.884 1.68.316 3.324.716 4.883 1.23 4.288 1.414 6.19 5.289 7.383 8.504 1.547 4.175 1.106 7.79-.893 11.978-1.714 3.589-4.281 7.257-8.2 9.777-3.285 2.111-7.195 3.887-11.44 4.261a55.454 55.454 0 0 1-7.669.14 54.789 54.789 0 0 1-4.453-.403c-3.542-.473-6.974-1.15-9.428-3.011a8.4 8.4 0 0 1-1.427-1.352m-5.55-1.312c.022.078.047.155.076.231a11.045 11.045 0 0 0 2.345 4.032 11.697 11.697 0 0 0 2.052 1.782c.006.004.013.006.019.013l.04.028c.05.03.12.077.21.138l.064.042c.059.037.124.081.195.127.022.012.04.025.059.037 2.183 1.332 4.891 2.11 7.909 2.256 6.996.34 7.382.748 13.888.41 4.004-.206 11.831-2.264 17.423-6.95 3.174-2.664 5.24-6.136 6.91-9.43 2.029-4.003 3.321-7.452 2.002-11.595-.95-2.984-1.9-6.922-4.484-9.329-.994-.924-2.917-1.922-5.326-2.799-2.752-1-6.138-1.842-9.477-2.239l-.675-.078a92.324 92.324 0 0 0-1.892-.192c-3.276-.296-7.102-.43-10.626.09-1.73.256-3.388.671-4.868 1.302-1.174.497-2.235 1.13-3.138 1.928l-.088.079c-4.965 4.438-8.19 11.825-8.19 11.825s-2.583 5.585-3.92 10.918c-.708 2.816-1.064 5.562-.509 7.374"/>
        <path fill="#A9A9A9" d="M91.292 18.896c2.461-4.706 6.443-11.514 13.402-13.578.428-.128.863-.232 1.306-.318-.533.403-7.693 5.929-10.948 12.512C92.066 23.56 89.58 32.148 92.127 38a8.602 8.602 0 0 1-1.485-1.335c-2.73-3.104-3.185-7.436-2.091-11.082a37.835 37.835 0 0 1 2.741-6.687"/>
        <path fill="#D1CFCD" d="M148 28.76a4.45 4.45 0 0 0-.516-1.056A4.346 4.346 0 0 0 145.341 26C142.6 28.199 142 33.13 142 33.13c.955.733 2.155 1.023 3.27.793 0 0-.709-2.887 2.73-5.163"/>
        <path fill="#AFACAD" d="M148.032 35.316l1.846 2.402.216.282c.415-1.292 1.472-4.62 1.906-6.37a83.642 83.642 0 0 1-2.1-1.63c-2.298 2.299-1.868 5.316-1.868 5.316"/>
        <path fill="#5F5F5F" d="M178.128 80.38c-7.207.53-18.741 7.412-18.694 7.62l-.02-.023c-2.793-2.843-5.607-10.493-7.932-19.857-1.563-6.296-2.904-13.36-3.865-20.283a194.876 194.876 0 0 1-.731-5.902c-.16-1.48-.298-2.936-.416-4.366-.043-.512-.084-1.02-.122-1.523l-.032-.464c-.642-9.02-.354-16.648 1.304-20.29.183-.401.34-.805.694-.922 1.384-.453 11.724-1.03 22.612 1.92.063.018.133.052.196.07.017.005.036.013.052.019 6.394 1.88 15.735 10.343 22.458 17.01.121.121.239.245.36.367-.017-.022-.032-.037-.05-.059l.311.308c-.005.009-.03-.022-.044-.028.013.014 6.72 5.898 7.494 8.938 1.003 3.941-.491 20.175-5.133 35.728-.012.037-.037.055-.05.09.098-.283-9.895 1.022-18.392 1.648"/>
        <path fill="#424242" d="M180.8 82.074l-2.949.513-5.27 1.914h-.001l-12.24 4.448c-.583.21-1.149-.257-1.3-.92a1.573 1.573 0 0 1-.01-.662c4.506-22.227 10.681-45.294 16.281-40.801 8.415 6.745 17.2 19.938 20.632 31.349.096.32.062.639-.035.92-.049.14-.117.26-.204.369-.032.041-.058.09-.095.126a.896.896 0 0 1-.46.253l-6.584 1.143-7.765 1.348z"/>
        <path stroke="#CCC" stroke-width=".5" d="M29.231 118c-.895 8.696.867 26.195 4.307 36.89.452 1.41.942 2.78 1.462 4.11"/>
        <path stroke="#EBEBEB" stroke-width=".5" d="M87 164c19.098-4.13 53.276-20.664 59.07-27.005 4.402-4.818 5.933-9.867 5.933-9.867 1.277-4.214 1.07-7.919.773-10.128"/>
    </g>
</svg>
