<svg xmlns="http://www.w3.org/2000/svg" xmlns:xlink="http://www.w3.org/1999/xlink" width="338" height="330" viewBox="0 0 338 330">
    <defs>
        <linearGradient id="a" x1="0%" y1="50%" y2="50%">
            <stop offset="0%" stop-color="#FF7E3F"/>
            <stop offset="100%" stop-color="#FFA13A"/>
        </linearGradient>
        <filter id="b" width="119.8%" height="118.7%" x="-9.9%" y="-9.3%" filterUnits="objectBoundingBox">
            <feOffset dy="2" in="SourceAlpha" result="shadowOffsetOuter1"/>
            <feGaussianBlur in="shadowOffsetOuter1" result="shadowBlurOuter1" stdDeviation="7.5"/>
            <feColorMatrix in="shadowBlurOuter1" result="shadowMatrixOuter1" values="0 0 0 0 0 0 0 0 0 0 0 0 0 0 0 0 0 0 0.15 0"/>
            <feMerge>
                <feMergeNode in="shadowMatrixOuter1"/>
                <feMergeNode in="SourceGraphic"/>
            </feMerge>
        </filter>
        <path id="c" d="M285.85 4.986c-44.259 15.273-80.218-8.874-116.763 32.33-56.94 64.197-132.54 50.014-164.81 99.22C1.36 140.984.016 147.612 0 156.003v.31c.083 41.453 32.216 125.337 67.803 201.578l270.004-8.418V2.864c-6.43-1.375-14.367-2.562-23.18-2.562-8.915 0-18.726 1.216-28.777 4.684"/>
        <path id="e" d="M285.85 4.986c-44.259 15.273-80.218-8.874-116.763 32.33-56.94 64.197-132.54 50.014-164.81 99.22C1.36 140.984.016 147.612 0 156.003v.31c.083 41.453 32.216 125.337 67.803 201.578l270.004-8.418V2.864c-6.43-1.375-14.367-2.562-23.18-2.562-8.915 0-18.726 1.216-28.777 4.684"/>
        <path id="g" d="M285.85 4.986c-44.259 15.273-80.218-8.874-116.763 32.33-56.94 64.197-132.54 50.014-164.81 99.22C1.36 140.984.016 147.612 0 156.003v.31c.083 41.453 32.216 125.337 67.803 201.578l270.004-8.418V2.864c-6.43-1.375-14.367-2.562-23.18-2.562-8.915 0-18.726 1.216-28.777 4.684"/>
        <path id="i" d="M285.85 4.986c-44.259 15.273-80.218-8.874-116.763 32.33-56.94 64.197-132.54 50.014-164.81 99.22C1.36 140.984.016 147.612 0 156.003v.31c.083 41.453 32.216 125.337 67.803 201.578l270.004-8.418V2.864c-6.43-1.375-14.367-2.562-23.18-2.562-8.915 0-18.726 1.216-28.777 4.684"/>
        <path id="k" d="M285.85 4.986c-44.259 15.273-80.218-8.874-116.763 32.33-56.94 64.197-132.54 50.014-164.81 99.22C1.36 140.984.016 147.612 0 156.003v.31c.083 41.453 32.216 125.337 67.803 201.578l270.004-8.418V2.864c-6.43-1.375-14.367-2.562-23.18-2.562-8.915 0-18.726 1.216-28.777 4.684"/>
        <path id="m" d="M285.85 4.986c-44.259 15.273-80.218-8.874-116.763 32.33-56.94 64.197-132.54 50.014-164.81 99.22C1.36 140.984.016 147.612 0 156.003v.31c.083 41.453 32.216 125.337 67.803 201.578l270.004-8.418V2.864c-6.43-1.375-14.367-2.562-23.18-2.562-8.915 0-18.726 1.216-28.777 4.684"/>
        <path id="o" d="M285.85 4.986c-44.259 15.273-80.218-8.874-116.763 32.33-56.94 64.197-132.54 50.014-164.81 99.22C1.36 140.984.016 147.612 0 156.003v.31c.083 41.453 32.216 125.337 67.803 201.578l270.004-8.418V2.864c-6.43-1.375-14.367-2.562-23.18-2.562-8.915 0-18.726 1.216-28.777 4.684"/>
        <path id="q" d="M285.85 4.986c-44.259 15.273-80.218-8.874-116.763 32.33-56.94 64.197-132.54 50.014-164.81 99.22C1.36 140.984.016 147.612 0 156.003v.31c.083 41.453 32.216 125.337 67.803 201.578l270.004-8.418V2.864c-6.43-1.375-14.367-2.562-23.18-2.562-8.915 0-18.726 1.216-28.777 4.684z"/>
        <path id="s" d="M285.85 4.986c-44.259 15.273-80.218-8.874-116.763 32.33-56.94 64.197-132.54 50.014-164.81 99.22C1.36 140.984.016 147.612 0 156.003v.31c.083 41.453 32.216 125.337 67.803 201.578l270.004-8.418V2.864c-6.43-1.375-14.367-2.562-23.18-2.562-8.915 0-18.726 1.216-28.777 4.684"/>
        <path id="u" d="M285.85 4.986c-44.259 15.273-80.218-8.874-116.763 32.33-56.94 64.197-132.54 50.014-164.81 99.22C1.36 140.984.016 147.612 0 156.003v.31c.083 41.453 32.216 125.337 67.803 201.578l270.004-8.418V2.864c-6.43-1.375-14.367-2.562-23.18-2.562-8.915 0-18.726 1.216-28.777 4.684"/>
        <path id="w" d="M285.85 4.986c-44.259 15.273-80.218-8.874-116.763 32.33-56.94 64.197-132.54 50.014-164.81 99.22C1.36 140.984.016 147.612 0 156.003v.31c.083 41.453 32.216 125.337 67.803 201.578l270.004-8.418V2.864c-6.43-1.375-14.367-2.562-23.18-2.562-8.915 0-18.726 1.216-28.777 4.684"/>
        <path id="y" d="M285.85 4.986c-44.259 15.273-80.218-8.874-116.763 32.33-56.94 64.197-132.54 50.014-164.81 99.22C1.36 140.984.016 147.612 0 156.003v.31c.083 41.453 32.216 125.337 67.803 201.578l270.004-8.418V2.864c-6.43-1.375-14.367-2.562-23.18-2.562-8.915 0-18.726 1.216-28.777 4.684"/>
        <path id="A" d="M285.85 4.986c-44.259 15.273-80.218-8.874-116.763 32.33-56.94 64.197-132.54 50.014-164.81 99.22C1.36 140.984.016 147.612 0 156.003v.31c.083 41.453 32.216 125.337 67.803 201.578l270.004-8.418V2.864c-6.43-1.375-14.367-2.562-23.18-2.562-8.915 0-18.726 1.216-28.777 4.684"/>
        <path id="C" d="M285.85 4.986c-44.259 15.273-80.218-8.874-116.763 32.33-56.94 64.197-132.54 50.014-164.81 99.22C1.36 140.984.016 147.612 0 156.003v.31c.083 41.453 32.216 125.337 67.803 201.578l270.004-8.418V2.864c-6.43-1.375-14.367-2.562-23.18-2.562-8.915 0-18.726 1.216-28.777 4.684"/>
        <path id="E" d="M285.85 4.986c-44.259 15.273-80.218-8.874-116.763 32.33-56.94 64.197-132.54 50.014-164.81 99.22C1.36 140.984.016 147.612 0 156.003v.31c.083 41.453 32.216 125.337 67.803 201.578l270.004-8.418V2.864c-6.43-1.375-14.367-2.562-23.18-2.562-8.915 0-18.726 1.216-28.777 4.684"/>
        <path id="G" d="M285.85 4.986c-44.259 15.273-80.218-8.874-116.763 32.33-56.94 64.197-132.54 50.014-164.81 99.22C1.36 140.984.016 147.612 0 156.003v.31c.083 41.453 32.216 125.337 67.803 201.578l270.004-8.418V2.864c-6.43-1.375-14.367-2.562-23.18-2.562-8.915 0-18.726 1.216-28.777 4.684"/>
        <path id="I" d="M285.85 4.986c-44.259 15.273-80.218-8.874-116.763 32.33-56.94 64.197-132.54 50.014-164.81 99.22C1.36 140.984.016 147.612 0 156.003v.31c.083 41.453 32.216 125.337 67.803 201.578l270.004-8.418V2.864c-6.43-1.375-14.367-2.562-23.18-2.562-8.915 0-18.726 1.216-28.777 4.684"/>
        <path id="K" d="M285.85 4.986c-44.259 15.273-80.218-8.874-116.763 32.33-56.94 64.197-132.54 50.014-164.81 99.22C1.36 140.984.016 147.612 0 156.003v.31c.083 41.453 32.216 125.337 67.803 201.578l270.004-8.418V2.864c-6.43-1.375-14.367-2.562-23.18-2.562-8.915 0-18.726 1.216-28.777 4.684"/>
        <path id="M" d="M285.85 4.986c-44.259 15.273-80.218-8.874-116.763 32.33-56.94 64.197-132.54 50.014-164.81 99.22C1.36 140.984.016 147.612 0 156.003v.31c.083 41.453 32.216 125.337 67.803 201.578l270.004-8.418V2.864c-6.43-1.375-14.367-2.562-23.18-2.562-8.915 0-18.726 1.216-28.777 4.684"/>
        <path id="O" d="M285.85 4.986c-44.259 15.273-80.218-8.874-116.763 32.33-56.94 64.197-132.54 50.014-164.81 99.22C1.36 140.984.016 147.612 0 156.003v.31c.083 41.453 32.216 125.337 67.803 201.578l270.004-8.418V2.864c-6.43-1.375-14.367-2.562-23.18-2.562-8.915 0-18.726 1.216-28.777 4.684"/>
        <path id="Q" d="M285.85 4.986c-44.259 15.273-80.218-8.874-116.763 32.33-56.94 64.197-132.54 50.014-164.81 99.22C1.36 140.984.016 147.612 0 156.003v.31c.083 41.453 32.216 125.337 67.803 201.578l270.004-8.418V2.864c-6.43-1.375-14.367-2.562-23.18-2.562-8.915 0-18.726 1.216-28.777 4.684"/>
        <path id="S" d="M285.85 4.986c-44.259 15.273-80.218-8.874-116.763 32.33-56.94 64.197-132.54 50.014-164.81 99.22C1.36 140.984.016 147.612 0 156.003v.31c.083 41.453 32.216 125.337 67.803 201.578l270.004-8.418V2.864c-6.43-1.375-14.367-2.562-23.18-2.562-8.915 0-18.726 1.216-28.777 4.684"/>
        <path id="U" d="M285.85 4.986c-44.259 15.273-80.218-8.874-116.763 32.33-56.94 64.197-132.54 50.014-164.81 99.22C1.36 140.984.016 147.612 0 156.003v.31c.083 41.453 32.216 125.337 67.803 201.578l270.004-8.418V2.864c-6.43-1.375-14.367-2.562-23.18-2.562-8.915 0-18.726 1.216-28.777 4.684z"/>
        <path id="W" d="M285.85 4.986c-44.259 15.273-80.218-8.874-116.763 32.33-56.94 64.197-132.54 50.014-164.81 99.22C1.36 140.984.016 147.612 0 156.003v.31c.083 41.453 32.216 125.337 67.803 201.578l270.004-8.418V2.864c-6.43-1.375-14.367-2.562-23.18-2.562-8.915 0-18.726 1.216-28.777 4.684"/>
        <path id="Y" d="M285.85 4.986c-44.259 15.273-80.218-8.874-116.763 32.33-56.94 64.197-132.54 50.014-164.81 99.22C1.36 140.984.016 147.612 0 156.003v.31c.083 41.453 32.216 125.337 67.803 201.578l270.004-8.418V2.864c-6.43-1.375-14.367-2.562-23.18-2.562-8.915 0-18.726 1.216-28.777 4.684z"/>
        <path id="aa" d="M285.85 4.986c-44.259 15.273-80.218-8.874-116.763 32.33-56.94 64.197-132.54 50.014-164.81 99.22C1.36 140.984.016 147.612 0 156.003v.31c.083 41.453 32.216 125.337 67.803 201.578l270.004-8.418V2.864c-6.43-1.375-14.367-2.562-23.18-2.562-8.915 0-18.726 1.216-28.777 4.684"/>
        <path id="ac" d="M285.85 4.986c-44.259 15.273-80.218-8.874-116.763 32.33-56.94 64.197-132.54 50.014-164.81 99.22C1.36 140.984.016 147.612 0 156.003v.31c.083 41.453 32.216 125.337 67.803 201.578l270.004-8.418V2.864c-6.43-1.375-14.367-2.562-23.18-2.562-8.915 0-18.726 1.216-28.777 4.684"/>
        <path id="ae" d="M285.85 4.986c-44.259 15.273-80.218-8.874-116.763 32.33-56.94 64.197-132.54 50.014-164.81 99.22C1.36 140.984.016 147.612 0 156.003v.31c.083 41.453 32.216 125.337 67.803 201.578l270.004-8.418V2.864c-6.43-1.375-14.367-2.562-23.18-2.562-8.915 0-18.726 1.216-28.777 4.684"/>
        <path id="ag" d="M285.85 4.986c-44.259 15.273-80.218-8.874-116.763 32.33-56.94 64.197-132.54 50.014-164.81 99.22C1.36 140.984.016 147.612 0 156.003v.31c.083 41.453 32.216 125.337 67.803 201.578l270.004-8.418V2.864c-6.43-1.375-14.367-2.562-23.18-2.562-8.915 0-18.726 1.216-28.777 4.684"/>
        <path id="ai" d="M285.85 4.986c-44.259 15.273-80.218-8.874-116.763 32.33-56.94 64.197-132.54 50.014-164.81 99.22C1.36 140.984.016 147.612 0 156.003v.31c.083 41.453 32.216 125.337 67.803 201.578l270.004-8.418V2.864c-6.43-1.375-14.367-2.562-23.18-2.562-8.915 0-18.726 1.216-28.777 4.684"/>
        <path id="ak" d="M285.85 4.986c-44.259 15.273-80.218-8.874-116.763 32.33-56.94 64.197-132.54 50.014-164.81 99.22C1.36 140.984.016 147.612 0 156.003v.31c.083 41.453 32.216 125.337 67.803 201.578l270.004-8.418V2.864c-6.43-1.375-14.367-2.562-23.18-2.562-8.915 0-18.726 1.216-28.777 4.684"/>
        <path id="am" d="M285.85 4.986c-44.259 15.273-80.218-8.874-116.763 32.33-56.94 64.197-132.54 50.014-164.81 99.22C1.36 140.984.016 147.612 0 156.003v.31c.083 41.453 32.216 125.337 67.803 201.578l270.004-8.418V2.864c-6.43-1.375-14.367-2.562-23.18-2.562-8.915 0-18.726 1.216-28.777 4.684"/>
        <path id="ao" d="M285.85 4.986c-44.259 15.273-80.218-8.874-116.763 32.33-56.94 64.197-132.54 50.014-164.81 99.22C1.36 140.984.016 147.612 0 156.003v.31c.083 41.453 32.216 125.337 67.803 201.578l270.004-8.418V2.864c-6.43-1.375-14.367-2.562-23.18-2.562-8.915 0-18.726 1.216-28.777 4.684"/>
        <path id="aq" d="M285.85 4.986c-44.259 15.273-80.218-8.874-116.763 32.33-56.94 64.197-132.54 50.014-164.81 99.22C1.36 140.984.016 147.612 0 156.003v.31c.083 41.453 32.216 125.337 67.803 201.578l270.004-8.418V2.864c-6.43-1.375-14.367-2.562-23.18-2.562-8.915 0-18.726 1.216-28.777 4.684"/>
        <path id="as" d="M285.85 4.986c-44.259 15.273-80.218-8.874-116.763 32.33-56.94 64.197-132.54 50.014-164.81 99.22C1.36 140.984.016 147.612 0 156.003v.31c.083 41.453 32.216 125.337 67.803 201.578l270.004-8.418V2.864c-6.43-1.375-14.367-2.562-23.18-2.562-8.915 0-18.726 1.216-28.777 4.684"/>
        <path id="au" d="M285.85 4.986c-44.259 15.273-80.218-8.874-116.763 32.33-56.94 64.197-132.54 50.014-164.81 99.22C1.36 140.984.016 147.612 0 156.003v.31c.083 41.453 32.216 125.337 67.803 201.578l270.004-8.418V2.864c-6.43-1.375-14.367-2.562-23.18-2.562-8.915 0-18.726 1.216-28.777 4.684"/>
        <path id="aw" d="M285.85 4.986c-44.259 15.273-80.218-8.874-116.763 32.33-56.94 64.197-132.54 50.014-164.81 99.22C1.36 140.984.016 147.612 0 156.003v.31c.083 41.453 32.216 125.337 67.803 201.578l270.004-8.418V2.864c-6.43-1.375-14.367-2.562-23.18-2.562-8.915 0-18.726 1.216-28.777 4.684"/>
        <path id="ay" d="M285.85 4.986c-44.259 15.273-80.218-8.874-116.763 32.33-56.94 64.197-132.54 50.014-164.81 99.22C1.36 140.984.016 147.612 0 156.003v.31c.083 41.453 32.216 125.337 67.803 201.578l270.004-8.418V2.864c-6.43-1.375-14.367-2.562-23.18-2.562-8.915 0-18.726 1.216-28.777 4.684"/>
        <path id="aA" d="M285.85 4.986c-44.259 15.273-80.218-8.874-116.763 32.33-56.94 64.197-132.54 50.014-164.81 99.22C1.36 140.984.016 147.612 0 156.003v.31c.083 41.453 32.216 125.337 67.803 201.578l270.004-8.418V2.864c-6.43-1.375-14.367-2.562-23.18-2.562-8.915 0-18.726 1.216-28.777 4.684"/>
        <path id="aC" d="M285.85 4.986c-44.259 15.273-80.218-8.874-116.763 32.33-56.94 64.197-132.54 50.014-164.81 99.22C1.36 140.984.016 147.612 0 156.003v.31c.083 41.453 32.216 125.337 67.803 201.578l270.004-8.418V2.864c-6.43-1.375-14.367-2.562-23.18-2.562-8.915 0-18.726 1.216-28.777 4.684"/>
        <path id="aE" d="M285.85 4.986c-44.259 15.273-80.218-8.874-116.763 32.33-56.94 64.197-132.54 50.014-164.81 99.22C1.36 140.984.016 147.612 0 156.003v.31c.083 41.453 32.216 125.337 67.803 201.578l270.004-8.418V2.864c-6.43-1.375-14.367-2.562-23.18-2.562-8.915 0-18.726 1.216-28.777 4.684"/>
        <path id="aG" d="M285.85 4.986c-44.259 15.273-80.218-8.874-116.763 32.33-56.94 64.197-132.54 50.014-164.81 99.22C1.36 140.984.016 147.612 0 156.003v.31c.083 41.453 32.216 125.337 67.803 201.578l270.004-8.418V2.864c-6.43-1.375-14.367-2.562-23.18-2.562-8.915 0-18.726 1.216-28.777 4.684"/>
        <path id="aI" d="M285.85 4.986c-44.259 15.273-80.218-8.874-116.763 32.33-56.94 64.197-132.54 50.014-164.81 99.22C1.36 140.984.016 147.612 0 156.003v.31c.083 41.453 32.216 125.337 67.803 201.578l270.004-8.418V2.864c-6.43-1.375-14.367-2.562-23.18-2.562-8.915 0-18.726 1.216-28.777 4.684"/>
        <path id="aK" d="M285.85 4.986c-44.259 15.273-80.218-8.874-116.763 32.33-56.94 64.197-132.54 50.014-164.81 99.22C1.36 140.984.016 147.612 0 156.003v.31c.083 41.453 32.216 125.337 67.803 201.578l270.004-8.418V2.864c-6.43-1.375-14.367-2.562-23.18-2.562-8.915 0-18.726 1.216-28.777 4.684"/>
        <path id="aM" d="M285.85 4.986c-44.259 15.273-80.218-8.874-116.763 32.33-56.94 64.197-132.54 50.014-164.81 99.22C1.36 140.984.016 147.612 0 156.003v.31c.083 41.453 32.216 125.337 67.803 201.578l270.004-8.418V2.864c-6.43-1.375-14.367-2.562-23.18-2.562-8.915 0-18.726 1.216-28.777 4.684"/>
        <path id="aO" d="M285.85 4.986c-44.259 15.273-80.218-8.874-116.763 32.33-56.94 64.197-132.54 50.014-164.81 99.22C1.36 140.984.016 147.612 0 156.003v.31c.083 41.453 32.216 125.337 67.803 201.578l270.004-8.418V2.864c-6.43-1.375-14.367-2.562-23.18-2.562-8.915 0-18.726 1.216-28.777 4.684"/>
        <path id="aQ" d="M285.85 4.986c-44.259 15.273-80.218-8.874-116.763 32.33-56.94 64.197-132.54 50.014-164.81 99.22C1.36 140.984.016 147.612 0 156.003v.31c.083 41.453 32.216 125.337 67.803 201.578l270.004-8.418V2.864c-6.43-1.375-14.367-2.562-23.18-2.562-8.915 0-18.726 1.216-28.777 4.684"/>
        <path id="aS" d="M285.85 4.986c-44.259 15.273-80.218-8.874-116.763 32.33-56.94 64.197-132.54 50.014-164.81 99.22C1.36 140.984.016 147.612 0 156.003v.31c.083 41.453 32.216 125.337 67.803 201.578l270.004-8.418V2.864c-6.43-1.375-14.367-2.562-23.18-2.562-8.915 0-18.726 1.216-28.777 4.684"/>
        <path id="aU" d="M285.85 4.986c-44.259 15.273-80.218-8.874-116.763 32.33-56.94 64.197-132.54 50.014-164.81 99.22C1.36 140.984.016 147.612 0 156.003v.31c.083 41.453 32.216 125.337 67.803 201.578l270.004-8.418V2.864c-6.43-1.375-14.367-2.562-23.18-2.562-8.915 0-18.726 1.216-28.777 4.684"/>
        <path id="aW" d="M285.85 4.986c-44.259 15.273-80.218-8.874-116.763 32.33-56.94 64.197-132.54 50.014-164.81 99.22C1.36 140.984.016 147.612 0 156.003v.31c.083 41.453 32.216 125.337 67.803 201.578l270.004-8.418V2.864c-6.43-1.375-14.367-2.562-23.18-2.562-8.915 0-18.726 1.216-28.777 4.684"/>
        <path id="aY" d="M285.85 4.986c-44.259 15.273-80.218-8.874-116.763 32.33-56.94 64.197-132.54 50.014-164.81 99.22C1.36 140.984.016 147.612 0 156.003v.31c.083 41.453 32.216 125.337 67.803 201.578l270.004-8.418V2.864c-6.43-1.375-14.367-2.562-23.18-2.562-8.915 0-18.726 1.216-28.777 4.684"/>
        <path id="ba" d="M169.087 37.316c-56.94 64.197-132.54 50.014-164.81 99.22C1.36 140.984.016 147.612 0 156.003v.31c.083 41.453 32.216 125.337 67.803 201.578l270.004-8.418V2.864c-6.43-1.375-14.367-2.562-23.18-2.562-8.915 0-18.726 1.216-28.777 4.684-44.259 15.273-80.218-8.874-116.763 32.33z"/>
    </defs>
    <g fill="none" fill-rule="evenodd">
        <path fill="url(#a)" d="M338 23.422v327.62L61.075 359c-44.018-86.906-35.323-131.629-17.597-156.54 33.097-46.51 96.311-22.04 154.71-82.72 37.482-38.947 41.129-79.876 86.523-94.313C305.21 18.91 324.733 20.81 338 23.422" transform="translate(0 -21)"/>
        <g filter="url(#b)" transform="translate(0 -20.687)">
            <mask id="d" fill="#fff">
                <use xlink:href="#c"/>
            </mask>
            <path fill="#C0C0C0" d="M115.922 272.755c.029-.162.082-.31.17-.447.085.1.168.201.257.3-.145.046-.284.098-.427.147m140.282-73.144c.151-2.246-.43-12.81-1.458-15.893-6.933-20.82 6.437-55.94-12.534-71.286-2.363-1.91-38.99-6.216-41.205-7.37l-1.27-.662c-4.879-2.542-1.984-1.027 0 .01l.366.192c-.119-.056-.244-.11-.367-.165-11.157-4.988-40.077-5.24-40.077-5.24s-28.042-.253-39.146 4.67c-.359.136-.76.322-1.191.545-2.033 1.052-41.122 6.34-44.445 9.118-15.253 12.758-4.747 38.67-12.994 68.254-.784 2.808-1.97 16.261-1.634 19.077 8.617 72.224 21.047 80.405 38.647 90.358 13.934 7.879-20.264 66.55-19.741 71.97.163 1.693 37.499 18.596 80.951 18.596 40.528 1.25 76.042-22.348 76.042-22.348 1.88-5.212-33.051-59.074-17.548-68.948 19.638-12.506 32.38-13.652 37.604-90.878" mask="url(#d)"/>
            <mask id="f" fill="#fff">
                <use xlink:href="#e"/>
            </mask>
            <path fill="#5F5F5F" d="M210.292 169.096c-1.691.45-3.519 1.363-5.391 2.57.008.002.033-.003.026.003-5.825 4.43-9.778 8.16-14.184 14.258-5.528 7.846-8.905 16.4-6.344 20.993 5.994 10.749 29.066 5.76 52.434.371 14.976-6.84-14.757-41.326-26.54-38.195" mask="url(#f)"/>
            <mask id="h" fill="#fff">
                <use xlink:href="#g"/>
            </mask>
            <path fill="#929292" d="M194.937 185.982s1.638-10.719 8.545-9.018c6.905 1.703 12.02 6.051 17.174 8.679 4.596 2.345 10.446 1.367 5.192-4.888-5.447-6.48-11.237-12.794-19.259-13.493-.009 0-.018.002-.028.001-4.868-.406-9.23 3.112-11.53 8.02-1.202 2.562-1.813 5.257-1.85 8.222-.004.388.028.985.096 1.599.204 1.797.737 3.727 1.66.878" mask="url(#h)"/>
            <mask id="j" fill="#fff">
                <use xlink:href="#i"/>
            </mask>
            <path fill="#EBEBEB" d="M201.365 297.472c-3.76 14.694-18.232 28.139-43.243 28.139-25.012 0-43.557-17.196-46.378-30.953-3.19-15.564 21.366-26.576 46.378-26.576 25.011 0 47.182 13.998 43.243 29.39" mask="url(#j)"/>
            <mask id="l" fill="#fff">
                <use xlink:href="#k"/>
            </mask>
            <path fill="#5F5F5F" d="M191.86 297.785c0 13.542-12.584 23.798-33.905 23.798-21.322 0-35.453-10.881-35.453-24.424 0-13.542 14.131-24.617 35.453-24.617 21.321 0 33.905 11.7 33.905 25.243" mask="url(#l)"/>
            <mask id="n" fill="#fff">
                <use xlink:href="#m"/>
            </mask>
            <path fill="#F5A8C9" d="M158.122 284.653c-6.807 7.733-20.101 11.497-25.696 11.881 3.604 8.049 5.17 32.985 27.054 32.412 20.675-.542 20.544-24.751 24.18-33.506-5.67-.28-18.616-2.922-25.538-10.787" mask="url(#n)"/>
            <mask id="p" fill="#fff">
                <use xlink:href="#o"/>
            </mask>
            <path fill="#EBEBEB" d="M116.692 289.893c-.138.043-.269.094-.405.142.027-.157.078-.302.16-.434.083.097.16.195.245.292m67.948-66.838c-16.928-15.168.076-48.757-6.465-69.343-6.548-20.586-20.567-18.78-20.567-18.78s-14.024-1.806-20.566 18.78c-1.039 3.267-1.48 6.863-1.562 10.66-.26 12.036 3.123 26.098 2.845 38.19-.188 8.126-2.025 15.364-7.749 20.493-14.217 12.74-35.805 25.333-36.755 45.86-.408 8.807-2.705 23.404 21.37 29.886 9.87 2.658 32.892-3.491 43.244-8.52 10.53 5.114 33.478 8.18 39.797 7.764 23.457-1.547 27.628-12.375 26.688-32.516-1.07-22.916-25.009-28.79-40.28-42.474" mask="url(#p)"/>
            <mask id="r" fill="#fff">
                <use xlink:href="#q"/>
            </mask>
            <path stroke="#CCC" stroke-width=".5" d="M116.692 289.893c-.138.043-.269.094-.405.142.027-.157.078-.302.16-.434.083.097.16.195.245.292zm67.948-66.838c-16.928-15.168.076-48.757-6.465-69.343-6.548-20.586-20.567-18.78-20.567-18.78s-14.024-1.806-20.566 18.78c-1.039 3.267-1.48 6.863-1.562 10.66-.26 12.036 3.123 26.098 2.845 38.19-.188 8.126-2.025 15.364-7.749 20.493-14.217 12.74-35.805 25.333-36.755 45.86-.408 8.807-2.705 23.404 21.37 29.886 9.87 2.658 32.892-3.491 43.244-8.52 10.53 5.114 33.478 8.18 39.797 7.764 23.457-1.547 27.628-12.375 26.688-32.516-1.07-22.916-25.009-28.79-40.28-42.474z" mask="url(#r)"/>
            <mask id="t" fill="#fff">
                <use xlink:href="#s"/>
            </mask>
            <path fill="#000" d="M201.619 185.205c4.559-.372 17.137 9.973 24.883 11.776-3.337 1.701-6.411 2.98-9.245 3.93a67.48 67.48 0 0 0 4.193-1.966 40.799 40.799 0 0 0-2.31-2.395c-.029-.03-.057-.06-.087-.088a46.618 46.618 0 0 0-2.5-2.217l-.087-.075a50.281 50.281 0 0 0-2.66-2.047l-.02-.014a47.959 47.959 0 0 0-2.72-1.817h-.002a40.03 40.03 0 0 0-2.882-1.632l-.005-.002a31.815 31.815 0 0 0-1.382-.664c-.411-.184-.81-.35-1.199-.5-.04-.016-.083-.035-.124-.05a18.345 18.345 0 0 0-1.033-.358c-.065-.02-.134-.046-.199-.066a12.76 12.76 0 0 0-.891-.231c-.076-.018-.158-.043-.232-.058a8.866 8.866 0 0 0-.78-.12c-.074-.008-.155-.026-.228-.032a5.32 5.32 0 0 0-.875-.009c-.344.028-.685.11-1.026.23-.115.04-.229.107-.343.157-.225.097-.45.196-.673.327-.132.078-.26.176-.39.264a9.153 9.153 0 0 0-.611.44c-.129.104-.255.22-.383.334-.2.177-.4.357-.596.554-.119.119-.235.243-.351.367a19.64 19.64 0 0 0-1.521 1.833 30.093 30.093 0 0 0-1.019 1.457 36.18 36.18 0 0 0-.722 1.14l-.005.007-.003.004a48.16 48.16 0 0 0-2.725 5.19s.085.147.258.381c-.514-.413-.765-.687-.765-.687s5.574-12.897 11.26-13.363" mask="url(#t)"/>
            <mask id="v" fill="#fff">
                <use xlink:href="#u"/>
            </mask>
            <path fill="#FFF" d="M193.591 193.684l.002-.004a8.385 8.385 0 0 0-.117 1.716c.107 2.943 1.754 5.477 4.175 7.008a9.91 9.91 0 0 0 5.672 1.533 10.081 10.081 0 0 0 3.599-.806c3.413-1.457 5.736-4.718 5.601-8.427a8.397 8.397 0 0 0-1.458-4.412h.002c.9.558 1.81 1.164 2.718 1.817l.021.014a50.5 50.5 0 0 1 2.66 2.047l.088.075a46.823 46.823 0 0 1 2.499 2.217c.03.028.058.058.088.087a40.633 40.633 0 0 1 2.31 2.396 67.784 67.784 0 0 1-4.194 1.965 50.135 50.135 0 0 1-5.703 2.053c-2.332.673-4.427 1.056-6.305 1.222a23.293 23.293 0 0 1-3.865.034 18.243 18.243 0 0 1-3.176-.522 15.245 15.245 0 0 1-2.538-.9 13.739 13.739 0 0 1-1.947-1.1c-.556-.379-1.02-.76-1.403-1.116a10.781 10.781 0 0 1-.658-.667 8.734 8.734 0 0 1-.452-.542l-.086-.117c-.173-.234-.259-.38-.259-.38s1.071-2.467 2.726-5.19" mask="url(#v)"/>
            <mask id="x" fill="#fff">
                <use xlink:href="#w"/>
            </mask>
            <path fill="#00C1DE" d="M210.392 193.095c.117 3.192-2.738 5.886-6.375 6.018-3.638.132-6.681-2.348-6.798-5.54-.116-3.19 2.739-5.884 6.377-6.016 3.637-.132 6.68 2.347 6.796 5.538m.673-2.803h-.001a39.818 39.818 0 0 0-2.887-1.634 31.137 31.137 0 0 0-1.34-.644l-.042-.02c-.411-.184-.81-.35-1.199-.5-.04-.016-.083-.035-.124-.05a18.782 18.782 0 0 0-1.033-.358c-.065-.02-.134-.046-.199-.065a12.76 12.76 0 0 0-.891-.232c-.076-.019-.158-.043-.232-.058a8.663 8.663 0 0 0-.78-.12c-.074-.008-.155-.026-.227-.032a5.326 5.326 0 0 0-.876-.009c-.344.028-.685.11-1.026.23-.115.04-.229.106-.343.157-.225.098-.45.196-.673.327-.132.078-.26.176-.39.264-.205.139-.41.278-.611.44-.129.104-.255.22-.383.334-.2.177-.4.357-.596.554-.119.119-.234.243-.351.368a19.126 19.126 0 0 0-.9 1.034 25.971 25.971 0 0 0-.85 1.108 31.033 31.033 0 0 0-.79 1.146 38.353 38.353 0 0 0-.727 1.149 8.382 8.382 0 0 0-.118 1.715c.108 2.943 1.754 5.476 4.175 7.008a9.91 9.91 0 0 0 5.673 1.533 10.083 10.083 0 0 0 3.598-.806c3.412-1.456 5.736-4.717 5.6-8.427a8.39 8.39 0 0 0-1.457-4.412" mask="url(#x)"/>
            <mask id="z" fill="#fff">
                <use xlink:href="#y"/>
            </mask>
            <path fill="#222" d="M206.327 194.49a3.105 3.105 0 0 1-3.211-2.98 3.104 3.104 0 0 1 2.986-3.204 3.105 3.105 0 0 1 3.212 2.98 3.103 3.103 0 0 1-2.987 3.205m4.065-1.396c-.116-3.19-3.159-5.67-6.797-5.538-3.637.132-6.492 2.826-6.376 6.017.116 3.19 3.16 5.67 6.798 5.539 3.637-.132 6.492-2.826 6.375-6.018" mask="url(#z)"/>
            <mask id="B" fill="#fff">
                <use xlink:href="#A"/>
            </mask>
            <path fill="#5F5F5F" d="M81.05 208.058c23.368 5.388 46.44 10.378 52.435-.371 2.56-4.593-.817-13.146-6.345-20.993-4.405-6.099-8.359-9.83-14.184-14.258-.007-.005.018-.001.026-.003-1.872-1.206-3.7-2.121-5.391-2.57-11.784-3.131-41.517 31.355-26.54 38.195" mask="url(#B)"/>
            <mask id="D" fill="#fff">
                <use xlink:href="#C"/>
            </mask>
            <path fill="#929292" d="M122.946 186.749s-1.638-10.72-8.545-9.018c-6.905 1.703-12.02 6.051-17.174 8.679-4.596 2.345-10.446 1.367-5.192-4.888 5.447-6.48 11.238-12.794 19.259-13.493.01 0 .019.002.028.001 4.868-.406 9.23 3.111 11.53 8.02 1.202 2.562 1.813 5.256 1.85 8.222.005.387-.028.985-.096 1.598-.204 1.797-.737 3.728-1.66.879" mask="url(#D)"/>
            <mask id="F" fill="#fff">
                <use xlink:href="#E"/>
            </mask>
            <path fill="#000" d="M116.84 185.205c-4.56-.372-17.138 9.973-24.884 11.776 3.337 1.701 6.411 2.98 9.245 3.93a67.48 67.48 0 0 1-4.193-1.966c.724-.82 1.501-1.62 2.31-2.395.029-.03.057-.06.087-.088a46.823 46.823 0 0 1 2.499-2.217c.03-.024.057-.05.088-.075a50.28 50.28 0 0 1 2.66-2.047l.02-.014a48.17 48.17 0 0 1 2.72-1.817h.002a40.03 40.03 0 0 1 2.882-1.632l.005-.002a32.165 32.165 0 0 1 1.382-.664c.411-.184.81-.35 1.199-.5.04-.016.083-.035.124-.05.355-.136.698-.252 1.033-.358.065-.02.134-.046.199-.066.31-.093.603-.166.891-.231.076-.018.158-.043.232-.058.275-.057.53-.09.78-.12.074-.008.155-.026.228-.032a5.32 5.32 0 0 1 .875-.009c.344.028.685.11 1.026.23.115.04.229.107.343.157.225.097.45.196.674.327.13.078.26.176.39.264.204.139.408.277.61.44.129.104.255.22.383.334.2.177.4.357.596.554a19.64 19.64 0 0 1 1.872 2.2 29.207 29.207 0 0 1 1.019 1.457c.252.381.493.762.722 1.14l.005.007.003.004a48.282 48.282 0 0 1 2.725 5.19s-.085.147-.258.381c.514-.413.765-.687.765-.687s-5.574-12.897-11.26-13.363" mask="url(#F)"/>
            <mask id="H" fill="#fff">
                <use xlink:href="#G"/>
            </mask>
            <path fill="#FFF" d="M124.867 193.684l-.002-.004c.095.558.138 1.13.117 1.716-.107 2.943-1.754 5.477-4.176 7.008a9.908 9.908 0 0 1-5.671 1.533 10.081 10.081 0 0 1-3.599-.806c-3.413-1.457-5.736-4.718-5.601-8.427a8.397 8.397 0 0 1 1.458-4.412h-.002a47.968 47.968 0 0 0-2.719 1.817l-.02.014a50.5 50.5 0 0 0-2.66 2.047l-.089.075a47.03 47.03 0 0 0-2.498 2.217c-.03.028-.058.058-.088.087a40.633 40.633 0 0 0-2.31 2.396 67.784 67.784 0 0 0 4.194 1.965 50.135 50.135 0 0 0 5.703 2.053c2.332.673 4.427 1.056 6.305 1.222 1.408.124 2.694.125 3.865.034a18.243 18.243 0 0 0 3.176-.522c.95-.248 1.794-.558 2.539-.9a13.739 13.739 0 0 0 1.946-1.1c.556-.379 1.02-.76 1.403-1.116.255-.238.474-.463.658-.667.184-.204.335-.388.452-.542l.086-.117c.173-.234.259-.38.259-.38s-1.072-2.467-2.726-5.19" mask="url(#H)"/>
            <mask id="J" fill="#fff">
                <use xlink:href="#I"/>
            </mask>
            <path fill="#00C1DE" d="M114.862 187.557c3.639.132 6.493 2.826 6.377 6.017-.117 3.191-3.16 5.671-6.798 5.538-3.637-.131-6.492-2.826-6.375-6.016.116-3.192 3.159-5.671 6.796-5.539m-8.927 7.147c-.135 3.71 2.188 6.97 5.601 8.427 1.102.47 2.314.759 3.599.806a9.91 9.91 0 0 0 5.672-1.533c2.421-1.531 4.068-4.065 4.175-7.008a8.388 8.388 0 0 0-.118-1.716l-.004-.007c-.23-.378-.471-.76-.722-1.141l-.132-.196c-.214-.32-.433-.636-.66-.95a25.946 25.946 0 0 0-1.148-1.47 20.185 20.185 0 0 0-.6-.673c-.117-.124-.234-.248-.352-.368a13.04 13.04 0 0 0-.596-.553c-.128-.113-.254-.23-.383-.335a9.153 9.153 0 0 0-.61-.44c-.13-.087-.26-.185-.39-.263-.224-.132-.449-.23-.674-.327-.114-.05-.228-.117-.343-.156a4.076 4.076 0 0 0-1.025-.231 5.326 5.326 0 0 0-.876.009c-.073.006-.154.024-.228.033-.25.028-.505.062-.78.119-.074.015-.156.04-.232.057a12.76 12.76 0 0 0-.891.232c-.065.02-.134.045-.2.066-.334.106-.677.222-1.032.357l-.124.05c-.39.151-.788.317-1.199.5a32.19 32.19 0 0 0-1.383.665l-.004.002a40.03 40.03 0 0 0-2.883 1.632 8.391 8.391 0 0 0-1.458 4.412" mask="url(#J)"/>
            <mask id="L" fill="#fff">
                <use xlink:href="#K"/>
            </mask>
            <path fill="#222" d="M113.641 191.286a3.104 3.104 0 0 1 3.212-2.98 3.104 3.104 0 0 1 2.986 3.205 3.106 3.106 0 0 1-3.211 2.98 3.103 3.103 0 0 1-2.987-3.205m.8 7.827c3.638.132 6.682-2.348 6.798-5.54.116-3.19-2.739-5.884-6.376-6.016-3.638-.132-6.681 2.347-6.797 5.538-.116 3.192 2.738 5.886 6.375 6.018" mask="url(#L)"/>
            <g>
                <mask id="N" fill="#fff">
                    <use xlink:href="#M"/>
                </mask>
                <path fill="#EBEBEB" d="M115.187 289.271c-.143.045-.28.099-.42.148.028-.164.08-.314.166-.452.085.102.166.203.254.304m70.554-69.4c-17.577-15.75.08-50.628-6.713-72.003-6.8-21.375-21.356-19.5-21.356-19.5s-14.563-1.875-21.355 19.5c-1.078 3.392-1.537 7.126-1.622 11.068-.269 12.499 3.244 27.1 2.954 39.656-.195 8.438-2.103 15.953-8.045 21.279-14.763 13.228-37.179 26.304-38.166 47.619-.423 9.144 1.427 26.464 24.589 31.129 10.406 2.095 31.658-4.68 42.408-9.901 10.933 5.31 33.843 9.483 41.05 8.337 21.5-3.42 26.74-10.213 25.749-31.946-1.087-23.796-23.636-31.03-39.493-45.238" mask="url(#N)"/>
            </g>
            <g>
                <mask id="P" fill="#fff">
                    <use xlink:href="#O"/>
                </mask>
                <path fill="#F3A7C8" d="M178.81 220.544c-.724-1.496-1.704-2.9-2.69-4.109a32.582 32.582 0 0 0-3.62-3.755c-.217-.19-.341-.293-.341-.293s-3.028-2.3-6.717-3.834c-2.743-1.141-5.667-1.024-8.356-.879-2.69-.145-5.615-.262-8.358.879-3.688 1.534-6.716 3.834-6.716 3.834s-.124.102-.342.293a32.586 32.586 0 0 0-3.62 3.755c-.985 1.209-1.965 2.613-2.689 4.11-.722 1.496-1.188 3.081-1.145 4.653.057 2.096 1.018 4.165 3.48 5.958.37.27.701.548 1.144.804a32.782 32.782 0 0 0 4.8 2.327c2.808 5.622 8.273 13.876 13.433 14.976v.008l.006-.002.007-.002.012.004v-.008c5.16-1.1 10.624-9.354 13.433-14.976a32.81 32.81 0 0 0 4.8-2.327c.442-.256.774-.534 1.144-.804 2.462-1.793 3.423-3.862 3.48-5.958.043-1.572-.423-3.157-1.146-4.654" mask="url(#P)"/>
            </g>
            <g>
                <mask id="R" fill="#fff">
                    <use xlink:href="#Q"/>
                </mask>
                <path stroke="#CCC" stroke-width=".5" d="M156.984 250.693c-1.06 10.44.6 37.756 1.216 39.354" mask="url(#R)"/>
            </g>
            <g>
                <mask id="T" fill="#fff">
                    <use xlink:href="#S"/>
                </mask>
                <path fill="#5F5F5F" d="M271.563 192.44c-9.037.663-23.498 9.269-23.438 9.529l-.025-.028c-3.502-3.556-7.03-13.123-9.945-24.834-1.96-7.875-3.64-16.71-4.847-25.368-.1-.724-.196-1.446-.29-2.167-.23-1.754-.44-3.494-.626-5.213a211.528 211.528 0 0 1-.52-5.46 187.92 187.92 0 0 1-.153-1.906c-.015-.194-.027-.386-.041-.58-.804-11.28-.444-20.819 1.634-25.373.23-.503.426-1.008.871-1.154 1.736-.567 14.7-1.289 28.35 2.401.08.022.167.065.247.087.02.007.043.018.065.023 8.016 2.351 19.727 12.936 28.156 21.274.152.152.3.306.452.459l-.062-.073.389.384c-.006.012-.038-.026-.055-.034.016.016 8.426 7.376 9.396 11.177 1.257 4.93-.615 25.233-6.436 44.683-.014.046-.045.068-.062.112.123-.354-12.406 1.28-23.06 2.061" mask="url(#T)"/>
            </g>
            <g>
                <mask id="V" fill="#fff">
                    <use xlink:href="#U"/>
                </mask>
                <path fill="#424242" d="M275.568 194.463l-3.719.645-6.648 2.414-15.438 5.607c-.736.266-1.448-.324-1.638-1.16a1.978 1.978 0 0 1-.013-.833c5.683-28.02 13.472-57.099 20.534-51.435 10.612 8.503 21.693 25.134 26.02 39.519.122.403.08.805-.043 1.159a1.54 1.54 0 0 1-.257.466c-.041.053-.073.114-.12.159a1.128 1.128 0 0 1-.58.318l-8.304 1.44-9.794 1.7z" mask="url(#V)"/>
            </g>
            <g>
                <mask id="X" fill="#fff">
                    <use xlink:href="#W"/>
                </mask>
                <path fill="#5F5F5F" d="M45.307 193.899c9.037.663 23.498 9.269 23.438 9.53l.025-.028c3.502-3.557 7.03-13.124 9.945-24.835 1.96-7.875 3.64-16.71 4.846-25.367.101-.725.197-1.447.291-2.169.23-1.753.44-3.493.626-5.212.2-1.851.373-3.672.52-5.46.055-.64.106-1.276.153-1.906.015-.194.027-.386.041-.58.804-11.28.444-20.82-1.634-25.373-.23-.503-.426-1.008-.871-1.153-1.736-.567-14.7-1.29-28.35 2.4-.08.021-.168.064-.246.088-.021.006-.045.017-.066.023-8.016 2.35-19.727 12.935-28.157 21.273-.152.152-.299.306-.451.459l.062-.073-.39.384c.007.012.04-.026.056-.034-.016.016-8.427 7.376-9.396 11.177-1.257 4.93.615 25.233 6.436 44.683.014.046.046.069.062.112-.122-.354 12.406 1.28 23.06 2.06" mask="url(#X)"/>
            </g>
            <g>
                <mask id="Z" fill="#fff">
                    <use xlink:href="#Y"/>
                </mask>
                <path fill="#424242" d="M41.302 195.922l3.718.645 6.649 2.414 15.438 5.607c.735.267 1.448-.324 1.638-1.16.06-.26.071-.544.013-.833-5.683-28.02-13.472-57.099-20.534-51.435-10.612 8.503-21.693 25.134-26.021 39.519-.12.403-.078.805.044 1.159.062.177.147.327.257.465.04.053.073.115.12.16.166.158.357.28.58.318l8.304 1.441 9.794 1.7z" mask="url(#Z)"/>
            </g>
            <g>
                <mask id="ab" fill="#fff">
                    <use xlink:href="#aa"/>
                </mask>
                <path fill="#77411C" d="M241.613 120.465c-11.153-19.653-39.213-19.653-39.213-19.653-15.482.801-26.32 4.913-43.632 4.977-17.986.067-29.413-4.176-45.125-4.977 0 0-28.059 0-39.212 19.653-11.153 19.652-3.17 42.869 21.72 48.062 43.674 7.128 47.43-23.725 61.871-23.725 14.44 0 18.197 30.853 61.871 23.725 24.89-5.193 32.873-28.41 21.72-48.062" mask="url(#ab)"/>
            </g>
            <g>
                <mask id="ad" fill="#fff">
                    <use xlink:href="#ac"/>
                </mask>
                <path fill="#D1CFCD" d="M112.77 165.726c-8.545 0-17.381 0-24.68-3.686-8.776-4.434-13.042-12.766-13.042-25.472 0-19.667 13.214-31.408 35.347-31.408 10.012 0 21.5 2.306 34.15 6.854l.199.072.196.082c4.866 2.025 8.248 5.422 9.785 9.824 2.114 6.065.523 13.499-4.73 22.095-8.527 13.955-21.747 21.64-37.225 21.64" mask="url(#ad)"/>
            </g>
            <g>
                <mask id="af" fill="#fff">
                    <use xlink:href="#ae"/>
                </mask>
                <path fill="#AFACAD" d="M83.474 116.784c8.692-10.287 27.31-11.548 27.31-11.548-.274-.003-.55-.008-.82-.008-21.985 0-35.111 11.662-35.111 31.198 0 6.46 1.113 11.779 3.367 16.025 0 0-3.44-25.378 5.254-35.667" mask="url(#af)"/>
            </g>
            <g>
                <mask id="ah" fill="#fff">
                    <use xlink:href="#ag"/>
                </mask>
                <path fill="#D1CFCD" d="M204.14 165.726c8.545 0 17.38 0 24.68-3.686 8.775-4.434 13.042-12.766 13.042-25.472 0-19.667-13.214-31.408-35.348-31.408-10.011 0-21.5 2.306-34.15 6.854l-.198.072-.197.082c-4.865 2.025-8.248 5.422-9.784 9.824-2.115 6.065-.524 13.499 4.73 22.095 8.527 13.955 21.746 21.64 37.225 21.64" mask="url(#ah)"/>
            </g>
            <g>
                <mask id="aj" fill="#fff">
                    <use xlink:href="#ai"/>
                </mask>
                <path fill="#AFACAD" d="M168.78 115.416c10.8-8.01 38.595-10.242 38.595-10.242-.288-.004-.57-.014-.86-.014-10.012 0-21.501 2.306-34.15 6.854l-.2.072-.196.082c-4.865 2.025-8.248 5.422-9.783 9.824-2.116 6.065-.524 13.499 4.728 22.095a52.623 52.623 0 0 0 3.013 4.408c-.162-1.236-11.947-25.068-1.147-33.079" mask="url(#aj)"/>
            </g>
            <g>
                <mask id="al" fill="#fff">
                    <use xlink:href="#ak"/>
                </mask>
                <path fill="#858181" d="M145.694 118.506c10.326 3.932 6.862 13.948 1.401 22.125-5.462 8.177-16.104 18.759-34.729 18.759s-34.028-.241-34.028-22.607c0-27.296 30.807-30.3 67.356-18.277" mask="url(#al)"/>
            </g>
            <g>
                <mask id="an" fill="#fff">
                    <use xlink:href="#am"/>
                </mask>
                <path fill="#858181" d="M172.228 118.047c-9.958 3.793-6.617 13.453-1.35 21.34 5.267 7.885 15.532 18.091 33.495 18.091 17.963 0 32.82-.232 32.82-21.803 0-26.326-29.713-29.225-64.965-17.628" mask="url(#an)"/>
            </g>
            <g>
                <mask id="ap" fill="#fff">
                    <use xlink:href="#ao"/>
                </mask>
                <path fill="#FFF" d="M128.18 144.988c-6.425 11.105-17.94 16.475-25.72 11.993-7.78-4.481-8.878-17.117-2.452-28.222s17.942-16.474 25.721-11.993c7.78 4.481 8.878 17.117 2.452 28.222" mask="url(#ap)"/>
            </g>
            <g>
                <mask id="ar" fill="#fff">
                    <use xlink:href="#aq"/>
                </mask>
                <path fill="#858181" d="M91.103 128.982c4.05-8.357 12.943-15.376 13.604-15.889 3.54-.73 7.338-.48 10.874-.136.785.075 1.559.158 2.314.234 2.686.27 5.421.608 8.091 1.098 2.169.392 4.293.89 6.304 1.53 5.534 1.763 7.985 6.61 9.519 10.632 1.992 5.224 1.417 9.747-1.17 14.991-2.218 4.494-5.539 9.088-10.602 12.247-4.244 2.648-9.294 4.877-14.777 5.352-1.63.142-3.262.228-4.893.259-.107-.611-.173-1.251-.21-1.916-.679-12.481 10.419-33.528 14.974-41.603-3.098-.665-7.541-1.043-10.788-1.244-3.824 5.01-10.17 14.694-11.914 25.655 0 0 3.046-5.027 7.092-9.39-2.458 7.2-5.696 18.663-4.57 26.444.1.693.232 1.355.408 1.984-1.93-.09-3.85-.26-5.749-.5-4.572-.587-9.002-1.43-12.167-3.753-3.152-7.42-.053-18.32 3.66-25.995" mask="url(#ar)"/>
            </g>
            <g>
                <mask id="at" fill="#fff">
                    <use xlink:href="#as"/>
                </mask>
                <path fill="#FFF" d="M189.02 143.648c6.246 10.795 17.441 16.014 25.003 11.658 7.563-4.356 8.63-16.64 2.384-27.434-6.247-10.795-17.442-16.014-25.004-11.658-7.563 4.357-8.63 16.64-2.383 27.434" mask="url(#at)"/>
            </g>
            <g>
                <mask id="av" fill="#fff">
                    <use xlink:href="#au"/>
                </mask>
                <path fill="#858181" d="M225.935 127.791c-3.94-8.127-12.587-14.954-13.23-15.453-3.442-.71-7.136-.467-10.575-.132-.764.073-1.517.154-2.251.228-2.612.263-5.272.59-7.87 1.067-2.108.381-4.173.865-6.13 1.489-5.382 1.714-7.766 6.428-9.257 10.34-1.937 5.08-1.378 9.479 1.138 14.578 2.157 4.371 5.387 8.84 10.31 11.911 4.128 2.576 9.04 4.743 14.371 5.205 1.586.138 3.173.221 4.759.252.104-.595.169-1.217.204-1.862.66-12.14-10.132-32.608-14.563-40.461 3.013-.646 7.335-1.015 10.493-1.21 3.718 4.873 9.89 14.29 11.586 24.95 0 0-2.963-4.889-6.898-9.131 2.391 7 5.54 18.149 4.445 25.717a15.461 15.461 0 0 1-.395 1.928 70.648 70.648 0 0 0 5.59-.486c4.446-.57 8.754-1.39 11.832-3.65 3.065-7.214.052-17.815-3.56-25.28" mask="url(#av)"/>
            </g>
            <g>
                <mask id="ax" fill="#fff">
                    <use xlink:href="#aw"/>
                </mask>
                <path fill="#929292" d="M132.877 261.642c-.764 0-1.385.618-1.385 1.382a1.384 1.384 0 0 0 2.77 0c0-.764-.62-1.382-1.385-1.382" mask="url(#ax)"/>
            </g>
            <g>
                <mask id="az" fill="#fff">
                    <use xlink:href="#ay"/>
                </mask>
                <path fill="#929292" d="M128.906 268.368a1.383 1.383 0 1 0 0 2.765 1.383 1.383 0 0 0 0-2.765" mask="url(#az)"/>
            </g>
            <g>
                <mask id="aB" fill="#fff">
                    <use xlink:href="#aA"/>
                </mask>
                <path fill="#929292" d="M119.95 259.707a1.383 1.383 0 1 0 0 2.764c.764 0 1.384-.618 1.384-1.382 0-.763-.62-1.382-1.385-1.382" mask="url(#aB)"/>
            </g>
            <g>
                <mask id="aD" fill="#fff">
                    <use xlink:href="#aC"/>
                </mask>
                <path fill="#929292" d="M119.95 266.986a1.383 1.383 0 1 0 0 2.764 1.383 1.383 0 1 0 0-2.764" mask="url(#aD)"/>
            </g>
            <g>
                <mask id="aF" fill="#fff">
                    <use xlink:href="#aE"/>
                </mask>
                <path fill="#929292" d="M125.397 263.024a1.384 1.384 0 1 0 0 2.765 1.383 1.383 0 1 0 0-2.765" mask="url(#aF)"/>
            </g>
            <g>
                <mask id="aH" fill="#fff">
                    <use xlink:href="#aG"/>
                </mask>
                <path fill="#929292" d="M128.953 256.943a1.383 1.383 0 1 0 0 2.764c.764 0 1.385-.619 1.385-1.382 0-.764-.62-1.382-1.385-1.382" mask="url(#aH)"/>
            </g>
            <g>
                <mask id="aJ" fill="#fff">
                    <use xlink:href="#aI"/>
                </mask>
                <path fill="#929292" d="M123.365 272.884c-.765 0-1.385.618-1.385 1.382 0 .763.62 1.382 1.385 1.382s1.385-.619 1.385-1.382c0-.764-.62-1.382-1.385-1.382" mask="url(#aJ)"/>
            </g>
            <g>
                <mask id="aL" fill="#fff">
                    <use xlink:href="#aK"/>
                </mask>
                <path fill="#929292" d="M116.439 272.884a1.383 1.383 0 1 0 0 2.764c.764 0 1.385-.619 1.385-1.382 0-.764-.62-1.382-1.385-1.382" mask="url(#aL)"/>
            </g>
            <g>
                <mask id="aN" fill="#fff">
                    <use xlink:href="#aM"/>
                </mask>
                <path fill="#929292" d="M185.18 262.557a1.383 1.383 0 0 0 0 2.764 1.383 1.383 0 1 0 0-2.764" mask="url(#aN)"/>
            </g>
            <g>
                <mask id="aP" fill="#fff">
                    <use xlink:href="#aO"/>
                </mask>
                <path fill="#929292" d="M189.151 269.283a1.383 1.383 0 1 0 0 2.764 1.383 1.383 0 1 0 0-2.764" mask="url(#aP)"/>
            </g>
            <g>
                <mask id="aR" fill="#fff">
                    <use xlink:href="#aQ"/>
                </mask>
                <path fill="#929292" d="M198.108 260.622a1.383 1.383 0 1 0 0 2.764 1.383 1.383 0 0 0 0-2.764" mask="url(#aR)"/>
            </g>
            <g>
                <mask id="aT" fill="#fff">
                    <use xlink:href="#aS"/>
                </mask>
                <path fill="#929292" d="M198.108 267.9a1.383 1.383 0 1 0 0 2.765 1.383 1.383 0 1 0 0-2.764" mask="url(#aT)"/>
            </g>
            <g>
                <mask id="aV" fill="#fff">
                    <use xlink:href="#aU"/>
                </mask>
                <path fill="#929292" d="M194.046 265.32c0-.763-.62-1.381-1.385-1.381a1.383 1.383 0 1 0 0 2.764c.765 0 1.385-.619 1.385-1.383" mask="url(#aV)"/>
            </g>
            <g>
                <mask id="aX" fill="#fff">
                    <use xlink:href="#aW"/>
                </mask>
                <path fill="#929292" d="M189.104 260.622c.765 0 1.386-.62 1.386-1.382 0-.765-.62-1.383-1.386-1.383-.764 0-1.385.618-1.385 1.383 0 .763.62 1.382 1.385 1.382" mask="url(#aX)"/>
            </g>
            <g>
                <mask id="aZ" fill="#fff">
                    <use xlink:href="#aY"/>
                </mask>
                <path fill="#929292" d="M194.693 273.798c-.766 0-1.386.619-1.386 1.382 0 .764.62 1.382 1.386 1.382.764 0 1.385-.618 1.385-1.382 0-.763-.62-1.382-1.385-1.382" mask="url(#aZ)"/>
            </g>
            <g>
                <mask id="bb" fill="#fff">
                    <use xlink:href="#ba"/>
                </mask>
                <path fill="#929292" d="M201.619 273.798a1.383 1.383 0 1 0 0 2.764c.765 0 1.385-.618 1.385-1.382 0-.763-.62-1.382-1.385-1.382" mask="url(#bb)"/>
            </g>
        </g>
    </g>
</svg>
