<svg xmlns="http://www.w3.org/2000/svg" xmlns:xlink="http://www.w3.org/1999/xlink" width="480" height="135" viewBox="0 0 480 135">
    <defs>
        <path id="a" d="M0 .41h70.686v87.478H0z"/>
        <path id="c" d="M.389.81h106.826v101.689H.389z"/>
    </defs>
    <g fill="none" fill-rule="evenodd">
        <path fill="#221E1F" d="M366.626 67.796a.075.075 0 0 1-.01-.02M386.298 21.52c.124-.115.244-.233.37-.348-.107.098-.213.194-.32.294l-.05.055M374.132 64.601l.048.08c.496-.14.996-.274 1.481-.425-.513.11-1.003.246-1.53.345"/>
        <path fill="#221E1F" d="M386.46 21.356l.006.01a.432.432 0 0 0 .04-.038c-.013.006-.04.036-.046.028"/>
        <path fill="#FF7D3E" d="M10.752 123.987c-.17.484-.412.896-.722 1.235-.31.34-.69.61-1.14.808-.45.199-.953.297-1.512.297a3.704 3.704 0 0 1-1.512-.297 3.326 3.326 0 0 1-1.14-.808c-.31-.34-.55-.751-.72-1.235a4.69 4.69 0 0 1-.257-1.58c0-.57.085-1.096.257-1.58.17-.482.41-.894.72-1.234.31-.34.69-.61 1.14-.808a3.718 3.718 0 0 1 1.512-.297c.56 0 1.062.099 1.512.297.45.198.83.467 1.14.808.31.34.551.752.722 1.234.17.484.255 1.01.255 1.58a4.73 4.73 0 0 1-.255 1.58m.965-5.796a5.192 5.192 0 0 0-1.768-1.247c-.69-.301-1.462-.451-2.314-.451-.792 0-1.536.17-2.235.51-.697.34-1.232.804-1.604 1.39h-.047v-8.315H1.655v17.96H3.75v-1.616h.047c.402.602.957 1.069 1.663 1.402.706.332 1.43.498 2.176.498.852 0 1.624-.15 2.314-.45.69-.302 1.28-.722 1.768-1.26a5.701 5.701 0 0 0 1.128-1.876 6.666 6.666 0 0 0 .396-2.328c0-.84-.132-1.62-.396-2.34a5.553 5.553 0 0 0-1.128-1.877M20.88 124.508h-.049l-3.408-9.454h-2.526l4.763 12.188-.708 1.916c-.112.307-.225.58-.337.819a2.39 2.39 0 0 1-.423.625 1.69 1.69 0 0 1-.603.409 2.303 2.303 0 0 1-.857.141c-.434 0-.87-.094-1.303-.281l-.266 2.094c.307.137.625.227.956.27.33.041.658.063.98.063.596 0 1.1-.085 1.512-.256.41-.17.762-.408 1.052-.715.29-.307.54-.677.75-1.111.209-.436.41-.916.604-1.444l5.466-14.718H24.15l-3.27 9.454zM46.67 121.885a6.542 6.542 0 0 1-1.332 2.196 6.446 6.446 0 0 1-2.072 1.483c-.806.367-1.711.552-2.714.552s-1.909-.185-2.714-.552a6.446 6.446 0 0 1-2.073-1.483 6.542 6.542 0 0 1-1.332-2.196 7.658 7.658 0 0 1-.468-2.685c0-.948.156-1.843.468-2.685a6.53 6.53 0 0 1 1.332-2.194 6.435 6.435 0 0 1 2.073-1.484c.805-.368 1.71-.552 2.714-.552 1.003 0 1.908.184 2.714.552a6.435 6.435 0 0 1 2.072 1.484 6.53 6.53 0 0 1 1.332 2.194c.312.842.468 1.737.468 2.685s-.156 1.843-.468 2.685m.431-9.183a8.562 8.562 0 0 0-2.873-1.925c-1.119-.466-2.344-.699-3.676-.699-1.333 0-2.558.233-3.676.699a8.554 8.554 0 0 0-2.874 1.925 8.896 8.896 0 0 0-1.876 2.894c-.452 1.111-.678 2.313-.678 3.604 0 1.292.226 2.493.678 3.605a8.878 8.878 0 0 0 1.876 2.893 8.554 8.554 0 0 0 2.874 1.926c1.118.465 2.343.698 3.676.698 1.332 0 2.557-.233 3.676-.698a8.562 8.562 0 0 0 2.873-1.926 8.892 8.892 0 0 0 1.876-2.893c.452-1.112.678-2.313.678-3.605 0-1.29-.226-2.493-.678-3.604a8.91 8.91 0 0 0-1.876-2.894M60.407 124.207c-.17.484-.411.896-.721 1.235-.311.34-.69.61-1.14.808-.45.199-.954.297-1.512.297a3.704 3.704 0 0 1-1.512-.297 3.326 3.326 0 0 1-1.14-.808c-.311-.34-.551-.751-.721-1.235a4.69 4.69 0 0 1-.256-1.58c0-.57.084-1.096.256-1.58.17-.482.41-.894.72-1.234.31-.34.69-.61 1.14-.808a3.718 3.718 0 0 1 1.513-.297c.558 0 1.062.099 1.511.297.45.198.83.467 1.14.808.31.34.551.752.722 1.235.17.483.255 1.01.255 1.58a4.73 4.73 0 0 1-.255 1.58m.965-5.785a5.113 5.113 0 0 0-1.768-1.259c-.69-.301-1.462-.452-2.314-.452-.745 0-1.47.167-2.176.5-.706.332-1.26.8-1.663 1.4h-.046v-1.615H51.31v17.96h2.095v-8.315h.046c.372.587.907 1.05 1.605 1.39.698.34 1.442.51 2.234.51.852 0 1.624-.15 2.314-.45a5.205 5.205 0 0 0 1.768-1.248 5.545 5.545 0 0 0 1.128-1.877c.264-.72.397-1.5.397-2.34 0-.823-.133-1.594-.397-2.315a5.67 5.67 0 0 0-1.128-1.889M66.888 121.608c0-.373.085-.75.256-1.13.17-.38.41-.726.719-1.038a3.652 3.652 0 0 1 2.604-1.049c.55 0 1.034.082 1.448.245.414.163.758.389 1.035.676.275.288.482.625.62 1.014s.214.816.231 1.282h-6.913zm7.96-3.042a5.085 5.085 0 0 0-1.74-1.34c-.706-.342-1.57-.514-2.593-.514a6.29 6.29 0 0 0-2.385.444 5.68 5.68 0 0 0-1.887 1.223 5.682 5.682 0 0 0-1.241 1.842c-.3.707-.45 1.473-.45 2.297 0 .823.138 1.589.413 2.296a5.4 5.4 0 0 0 1.18 1.842c.513.52 1.136.929 1.875 1.224.739.295 1.562.442 2.471.442 2.19 0 3.895-.754 5.112-2.261l-1.656-1.212a5.62 5.62 0 0 1-1.387 1.2c-.503.303-1.095.455-1.777.455-.503 0-.99-.078-1.46-.233a4.032 4.032 0 0 1-1.242-.653 3.312 3.312 0 0 1-.864-1.014 2.682 2.682 0 0 1-.329-1.317h9.25v-.746a7.47 7.47 0 0 0-.305-2.11 5.203 5.203 0 0 0-.985-1.865zM86.507 117.74a3.499 3.499 0 0 0-1.3-.777 4.83 4.83 0 0 0-1.55-.25c-.867 0-1.63.187-2.293.56-.662.376-1.127.865-1.395 1.47h-.047v-1.744h-2.129v11.323h2.129v-5.829c0-.652.078-1.218.236-1.696.157-.478.378-.872.662-1.182a2.56 2.56 0 0 1 .993-.681 3.436 3.436 0 0 1 1.23-.215c.33 0 .65.052.957.155.308.104.58.271.816.502.236.23.426.534.568.907.141.375.212.825.212 1.35v6.69h2.128v-7.287c0-.748-.11-1.397-.33-1.947-.221-.55-.517-1-.887-1.35M98.744 119.065a8.838 8.838 0 0 0-2.062-.821 19.157 19.157 0 0 1-2.063-.662c-.63-.246-1.156-.564-1.582-.957-.426-.392-.64-.955-.64-1.692 0-.261.055-.547.161-.858.106-.31.29-.6.553-.87.26-.27.609-.491 1.042-.663.434-.171.978-.257 1.633-.257.687 0 1.3.139 1.841.417.54.278.957.646 1.251 1.103l1.916-1.741c-.655-.8-1.416-1.332-2.283-1.594a9.394 9.394 0 0 0-2.725-.392c-1.047 0-1.943.16-2.688.478-.745.319-1.354.716-1.829 1.189a4.513 4.513 0 0 0-1.044 1.57c-.22.572-.33 1.111-.33 1.618 0 1.128.212 2.023.638 2.686.425.662.953 1.189 1.583 1.582a8.39 8.39 0 0 0 2.062.919c.744.22 1.433.45 2.062.686.63.238 1.158.532 1.584.883.425.352.637.863.637 1.533 0 .474-.106.89-.318 1.251-.213.36-.488.662-.823.907-.336.245-.707.43-1.116.552-.41.123-.81.184-1.204.184-.703 0-1.387-.151-2.049-.454a3.868 3.868 0 0 1-1.632-1.41l-1.94 1.667c.589.818 1.383 1.422 2.38 1.815a8.57 8.57 0 0 0 3.168.588c.834 0 1.62-.122 2.356-.367a5.731 5.731 0 0 0 1.915-1.054c.54-.458.97-1.022 1.289-1.692.319-.67.479-1.423.479-2.257 0-1.046-.213-1.868-.638-2.465a4.807 4.807 0 0 0-1.584-1.422M107.616 126.296c-.44 0-.774-.075-1.002-.229a1.378 1.378 0 0 1-.508-.603 2.388 2.388 0 0 1-.19-.843c-.018-.314-.026-.63-.026-.953v-5.184h3.275v-1.881h-3.275v-3.208h-2.285v3.208h-2.64v1.88h2.64v5.956c0 .467.021.93.064 1.387.042.459.177.873.406 1.243.23.369.584.67 1.066.903.483.233 1.164.35 2.044.35.236 0 .57-.028 1.003-.084.431-.057.782-.157 1.053-.302v-1.977a2.515 2.515 0 0 1-.787.265 5.093 5.093 0 0 1-.838.072M118.721 123.426c0 .374-.055.75-.167 1.13-.111.381-.295.728-.55 1.038-.256.312-.59.564-1.006.758-.415.195-.917.291-1.507.291-.75 0-1.344-.14-1.782-.419-.44-.28-.658-.738-.658-1.375 0-.436.14-.793.419-1.073.278-.28.637-.497 1.076-.653.439-.155.925-.26 1.46-.314a15.41 15.41 0 0 1 1.567-.082h1.148v.7zm2.01 2.612v-5.643c0-.481-.092-.943-.275-1.387a3.223 3.223 0 0 0-.849-1.177c-.382-.342-.873-.614-1.471-.816-.6-.201-1.314-.303-2.143-.303-.797 0-1.595.137-2.392.408a6.04 6.04 0 0 0-2.106 1.224l1.292 1.306c.192-.14.39-.288.598-.444.208-.154.44-.29.694-.407a4.95 4.95 0 0 1 .85-.292 4.529 4.529 0 0 1 1.089-.116c.462 0 .861.066 1.196.198.335.132.615.31.837.536.224.226.392.478.503.758.112.28.167.559.167.84v.465h-1.58c-.86 0-1.67.066-2.427.198-.758.133-1.42.35-1.986.653a3.676 3.676 0 0 0-1.34 1.177c-.327.482-.491 1.08-.491 1.796 0 .544.104 1.022.312 1.433.206.412.489.758.849 1.038.358.28.778.49 1.256.63s.98.21 1.507.21c.861 0 1.62-.15 2.274-.444.653-.295 1.22-.8 1.698-1.515h.049c0 .56.023 1.119.07 1.679h1.916a14.646 14.646 0 0 1-.072-.933 22.152 22.152 0 0 1-.025-1.072zM133.286 116.712h-2.847l-2.952 4.116-3.003-4.116h-3.03l4.389 5.414-5.015 6.196h2.898l3.657-4.874 3.657 4.874h3.029l-5.014-6.196z"/>
        <g transform="translate(0 13.883)">
            <mask id="b" fill="#fff">
                <use xlink:href="#a"/>
            </mask>
            <path fill="#FF7D3E" d="M45.612 32.412a9.189 9.189 0 0 1-3.924 2.903c-1.575.618-3.338.988-5.287 1.111a88.048 88.048 0 0 1-5.54.186H19.414V16.72h12.694c1.742 0 3.524.126 5.352.372 1.823.246 3.444.722 4.85 1.42a9.115 9.115 0 0 1 3.485 3.026c.916 1.32 1.372 3.09 1.372 5.315 0 2.39-.522 4.243-1.554 5.56zm25.074 55.476L48.285 50.946c6.223-1.154 10.953-3.894 14.188-8.217 3.235-4.324 4.85-9.576 4.85-15.754 0-5.105-.89-9.37-2.673-12.787-1.787-3.419-4.192-6.137-7.22-8.155-3.029-2.019-6.552-3.46-10.578-4.326C42.827.842 38.579.41 34.097.41H0v87.478h19.413V52.922h9.585l18.416 34.966h23.272z" mask="url(#b)"/>
        </g>
        <path fill="#FF7D3E" d="M143.594 68.428c-1.276 3.454-3.105 6.449-5.492 8.989-2.392 2.537-5.251 4.513-8.582 5.927-3.337 1.417-7.06 2.123-11.176 2.123-4.12 0-7.843-.706-11.18-2.123-3.331-1.414-6.195-3.39-8.582-5.927-2.386-2.54-4.215-5.535-5.492-8.989-1.276-3.454-1.914-7.26-1.914-11.424 0-4.076.638-7.863 1.914-11.36 1.277-3.495 3.106-6.51 5.492-9.05 2.387-2.538 5.25-4.513 8.582-5.93 3.337-1.415 7.06-2.121 11.18-2.121 4.116 0 7.84.706 11.176 2.121 3.33 1.417 6.19 3.392 8.582 5.93 2.387 2.54 4.216 5.555 5.492 9.05 1.277 3.497 1.915 7.284 1.915 11.36 0 4.163-.638 7.97-1.915 11.424m8.582-45.317c-4.195-4.036-9.18-7.135-14.939-9.299-5.763-2.164-12.064-3.246-18.893-3.246-6.838 0-13.134 1.082-18.897 3.246-5.764 2.164-10.743 5.263-14.939 9.299-4.201 4.038-7.472 8.927-9.819 14.67-2.346 5.742-3.517 12.15-3.517 19.223 0 7.076 1.17 13.483 3.517 19.226 2.347 5.743 5.618 10.631 9.82 14.668 4.195 4.037 9.174 7.136 14.938 9.3 5.763 2.161 12.06 3.246 18.897 3.246 6.829 0 13.13-1.085 18.893-3.246 5.76-2.164 10.744-5.263 14.94-9.3 4.2-4.037 7.471-8.925 9.817-14.668 2.348-5.743 3.523-12.15 3.523-19.226 0-7.073-1.175-13.481-3.523-19.224-2.346-5.742-5.617-10.631-9.818-14.67M204.204 71.492h-.25L182.44 13.883h-21.89l34.797 87.903h15.37l35.903-87.903h-20.533zM274.044 66.029h37.68v-17.88h-37.68V31.762h39.886V13.883h-59.033v87.903h61.24V83.908h-42.093zM371.208 46.04a9.105 9.105 0 0 1-3.883 2.918c-1.558.621-3.303.993-5.232 1.116a85.821 85.821 0 0 1-5.482.188h-11.33v-19.99h12.563c1.723 0 3.487.126 5.296.374 1.805.246 3.408.724 4.8 1.427a9.062 9.062 0 0 1 3.448 3.04c.908 1.327 1.358 3.105 1.358 5.34 0 2.403-.516 4.265-1.538 5.588zm17.66 44.85l-4.728-7.74-11.119-18.196c.294-.073.57-.167.858-.248l-.025-.042c.273-.05.527-.123.793-.18 4.82-1.511 8.656-4.151 11.417-7.897 2.728-3.7 4.341-8.098 4.855-13.084l-3.922-.268a.608.608 0 0 1-.283-.099c-.024-.014-.042-.036-.063-.054a.576.576 0 0 1-.138-.162c-.01-.017-.025-.023-.033-.04-3.488-6.942-4.359-14.595-4.785-16.167a.593.593 0 0 1 .168-.592c.535-.493 2.034-2.16 3.739-3.778l-.004-.005.166-.153c.075-.087.15-.174.166-.154a20.838 20.838 0 0 0-3.026-2.497c-2.997-2.028-6.485-3.476-10.468-4.348-3.983-.868-8.188-1.303-12.623-1.303H326.07v87.903h19.212V66.65h9.486l18.225 35.136h22.594l-.075-.024-6.644-10.873z"/>
        <path fill="#221E1F" d="M386.323 21.496l.32-.293c-.032-.04-.176.126-.32.293"/>
        <g transform="translate(372.414 .615)">
            <mask id="d" fill="#fff">
                <use xlink:href="#c"/>
            </mask>
            <path fill="#6C6E70" d="M107.212 42.226c-.067-1.256-1.608-1.951-3.044-2.44-.205-.07-.408-.135-.604-.198-.243-.076-.476-.148-.69-.217a11.09 11.09 0 0 1-.578-.2c-.604-.234-1.355-.063-2.016.209-4.887-1.903-12.44-4.958-15.604-6.838-3.54-2.103-4.201-6.107-5.826-10.03-.265-.64-.56-1.275-.892-1.902a14.798 14.798 0 0 0-1.525-2.353c-.034-.043-.082-.094-.12-.139a.443.443 0 0 0 .278-.246c-.892-1.038-2.303-2.303-3.804-3.53.122-.244.335-.684.51-1.087.126-.283.231-.55.273-.717 0 0-4.18-2.824-6.984-4.877-2.805-2.052-4.994-3.814-5.646-4.245-.236-.156-.41-.396-.664-.485-.152-.053-.333-.051-.574.056-.14.063-.301.162-.49.308-1.313-.924-3.594-2.18-4.397-2.437a1.147 1.147 0 0 0-.147-.04.296.296 0 0 0-.098-.007c-.415.07-.988.364-.621.68.085.074.315.234.615.437-.319.182-.72.435-.996.613a7.512 7.512 0 0 0-.424-.275 3.442 3.442 0 0 0-.527-.269c-.156-.06-.29-.086-.388-.067-.178.036-.455.16-.765.324-.278.146-.582.324-.871.5-1.727-.063-7.182.22-12.762 1.787-3.499.982-8.34 4.89-11.965 8.132l-.057.035c-3.676 1.1-8.754 5.302-12.38 8.585l-.192.178a.672.672 0 0 0 .024-.025l-.003.001.002-.001c-.055.05-.113.1-.167.15h.001c.002.005.015-.008.023-.012l-.02.018c-1.722 1.601-3.237 3.25-3.777 3.738a.578.578 0 0 0-.169.587c.43 1.554 1.31 9.126 4.833 15.997.008.016.024.023.033.039a.607.607 0 0 0 .14.16c.021.018.038.04.063.055.084.052.179.09.285.097h.001l3.963.265c-.521 4.934-2.15 9.286-4.905 12.947-2.79 3.707-6.665 6.32-11.532 7.815-.255.078-.517.148-.776.22-.291.08-.57.173-.867.245l11.23 18.007 4.776 7.656 6.711 10.76.076.023c16.207 5.124 26.134.327 28.427-1.76 2.545-2.313-8.463-19.281-8.463-19.281s3.024-18.056 13.707-17.73c1.3.04 2.402.225 3.38.517 1.628.486 2.914 1.268 4.19 2.162.649.454 1.296.935 1.985 1.423 1.593 1.13 3.409 2.284 5.999 3.167 2.588.882 5.949 1.492 10.63 1.532 1.623.014 3.115-.17 4.501-.5a.727.727 0 0 0 .216.109.968.968 0 0 0 .276.04c4.714.039 12.858-3.487 17.813-15.86 1.505-3.756 1.345-6.725.41-8.833.6-1.153.997-2.29.96-2.973" mask="url(#d)"/>
        </g>
        <path fill="#BBBDBF" d="M439.221 48.63c1.833-2.54 4.168-4.032 6.148-5.391 2.173-1.492 3.914-2.823 4.066-5.198.099-1.546-.537-2.875-1.376-4.173-1.625-2.518-4.018-4.922-3.37-8.564.179-1.01.483-2.718 1.869-3.434.846-.438 2.465-.524 3.649-.479a14.923 14.923 0 0 0-1.517-2.358c-.034-.043-.082-.094-.12-.139-1.22.442-5.435-3.453-7.052-5.01.149.483.233.957.258 1.418.01.192.011.383 0 .57.483.953 1.244 2.75 1.133 4.433-.137 2.103-.888 4.137-4.515 5.701.563.39 1.063.875 1.464 1.434.048.067.085.137.13.206.52.785.846 1.627.968 2.57.017.129.027.326.024.532.454.58.877 1.172 1.254 1.761.62.966 1.12 1.926 1.458 2.826.336.9.509 1.743.468 2.473-.028.487-.15.925-.38 1.297-2.646 4.278-12.834 2.292-23.152.148-.782-.323-1.28-.803-1.555-1.39a2.519 2.519 0 0 1-.09-.218l-.004-.016a2.82 2.82 0 0 1-.139-.61c-.1-.855.128-1.852.605-2.912.93-2.071 2.781-4.367 4.876-6.252a24.05 24.05 0 0 1 1.537-1.273 13.805 13.805 0 0 1-3.697-2.023l-.16.18-.097.109c.43.357.693.721.42 1.14-.505.775-1.425 1.403-1.941 2.827a16.2 16.2 0 0 0-.316.946c-.217.75-.2 1.127.055 1.466l.135.15c.058.063.103.125.14.183.245.381.096.641.08.666v.001l-1.656 1.108c-.129.038-.315.027-.558-.16a1.85 1.85 0 0 1-.215-.2l-.24-.256c-1.555 1.048-3.405 2.245-5.327 3.491-.893 4.345-2.158 7.93-3.653 9.33l-.011.011a.6.6 0 0 1-.72.472l-7.446-1.556-3.207-.67-1.765-.12a28.476 28.476 0 0 1 2.408 4.659c.3.746.57 1.493.783 2.234.132.461.246.92.342 1.375.19.909.305 1.803.333 2.668.118 3.48-1.142 6.496-4.351 8.215-9.185 4.918-4.993 20.781-6.228 27.522l6.676 10.78c.025.01.05.016.075.024 16.122 5.134 25.998.327 28.279-1.763 2.531-2.32-8.42-19.322-8.42-19.322s3.009-18.091 13.636-17.765c3.447.106 5.499 1.252 7.53 2.684-1.424-8.29.239-13.25 2.48-16.358"/>
        <path fill="#D0D2D3" d="M476.44 48.973c-1.732 7.712-5.86 18.708-16.302 21.152.13.093.293.146.502.148 4.82.04 13.147-3.511 18.213-15.978 1.538-3.785 1.375-6.776.418-8.9-.764 1.45-1.854 2.925-2.832 3.578"/>
        <path fill="#6C6E70" d="M421.659 3.823a8.48 8.48 0 0 1 .89-.792s.547-.368 1.175-.75c-1.733-.063-7.21.22-12.814 1.792-3.513.984-8.373 4.904-12.013 8.152 3.602-2.26 11.327-5.836 20.77-5.61.524-.987 1.18-1.965 1.992-2.792"/>
        <path fill="#E5E6E7" d="M461.668 57.786a.48.48 0 0 1-.483.476.479.479 0 0 1-.482-.476c0-.264.216-.477.482-.477a.48.48 0 0 1 .483.477zm-1.367-1.62a.48.48 0 0 1-.483.477.48.48 0 0 1-.483-.476.483.483 0 0 1 .483-.476.483.483 0 0 1 .483.476zm-.016 3.937a.48.48 0 0 1-.484.476.479.479 0 0 1-.482-.476.472.472 0 0 1 .295-.439.485.485 0 0 1 .529.102.47.47 0 0 1 .142.337zm-1.224-1.841a.48.48 0 0 1-.482.476.474.474 0 1 1-.188-.916.489.489 0 0 1 .53.103.473.473 0 0 1 .14.337zm-.707 3.396a.479.479 0 0 1-.483.476.48.48 0 0 1-.483-.476.477.477 0 0 1 .483-.476.485.485 0 0 1 .34.14.47.47 0 0 1 .143.336zm-1.19-4.539a.48.48 0 0 1-.483.476.479.479 0 0 1-.482-.476c0-.132.053-.25.141-.336a.485.485 0 0 1 .824.337zm0 2.508a.48.48 0 0 1-.483.476.479.479 0 0 1-.482-.476.47.47 0 0 1 .294-.439.47.47 0 0 1 .188-.037.488.488 0 0 1 .342.14.474.474 0 0 1 .14.336zm-1.223 2.031a.48.48 0 0 1-.484.476.479.479 0 0 1-.48-.476.468.468 0 0 1 .293-.438.485.485 0 0 1 .375 0 .472.472 0 0 1 .295.439zm20.749-12.926c-.392.264-.766.395-1.09.328-1.248-.257-2.673-2.232-3.352-3.576-.365-.14-.75-.32-1.16-.556-.106-.061-.186-.128-.274-.192-.596-.428-.827-.922-.841-1.423-.01-.374.102-.753.276-1.11a5.09 5.09 0 0 1 .65-.981 7.77 7.77 0 0 1 .873-.897l.083-.07s.731-.548 1.62-.915c-4.902-1.907-12.48-4.97-15.655-6.854-3.552-2.108-4.216-6.12-5.846-10.053a21.67 21.67 0 0 0-.894-1.905c-1.194-.045-2.827.041-3.681.48-1.398.716-1.705 2.424-1.886 3.435-.652 3.642 1.762 6.047 3.4 8.565.846 1.3 1.488 2.628 1.388 4.174-.153 2.375-1.91 3.708-4.1 5.2-1.998 1.359-4.353 2.85-6.202 5.392-2.259 3.11-3.937 8.07-2.5 16.363.65.455 1.3.938 1.991 1.427 3.197 2.263 7.293 4.63 16.685 4.709 1.63.013 3.126-.17 4.517-.5 10.246-2.43 14.298-13.37 15.998-21.041z"/>
        <path fill="#BBBDBF" d="M418.061 23.968c-.544-.303-1.242-.017-1.993.132-.027.007-.055.012-.082.017-.781.145-.481.771-.481.771l3.846 3.838h.002c.186.187.521.063.767-.382.104-.19.193-.44.246-.75.176-1.033-.169-1.804-.535-2.144-.368-.34-1.205-1.169-1.77-1.482M418.788 22.362c-.223.378.89 1.45 1.235 1.859.347.41 1.217 1.331 1.729 1.269.513-.061.29-.529.114-.787-.175-.261-2.02-2.052-2.02-2.052-.43-.42-.833-.666-1.058-.29"/>
        <path fill="#BBBDBF" d="M411.843 11.113c.209.039.318.217.442.394 1.127 1.595 1.665 5.06 1.741 9.196 0 .071.003.142.004.213.004.231.004.465.004.7.003.656-.004 1.325-.023 2.007.06.025.129.052.208.078l.035.012a2.63 2.63 0 0 0 1.2.089 3.015 3.015 0 0 0 1.232-.503c1.593-1.08 1.434-1.462 2.058-1.457.431.003.807.396 1.258.876l.295-.202.117-.08c-3.303-3.825-3.295-8.944-3.1-10.23.124-.83.626-2.904 1.674-4.947-9.121-.225-16.584 3.362-20.065 5.628l-.026.025c.035-.011.074-.03.109-.04 6.081-1.77 12.022-1.911 12.837-1.759"/>
        <path fill="#BABCBE" d="M418.759 31.822l-4.92-6.33c-.014.292-.03.582-.046.876l4.577 5.76.389-.306"/>
        <path fill="#6C6E70" d="M396.197 62.974c3.207-1.699 4.465-4.68 4.347-8.12a15.188 15.188 0 0 0-.333-2.637c-.095-.45-.21-.903-.341-1.359a22.763 22.763 0 0 0-.783-2.207 28.045 28.045 0 0 0-2.405-4.605l-4.646-.31c-.517 4.887-2.137 9.196-4.874 12.823-2.772 3.672-6.623 6.26-11.46 7.74-.253.077-.513.146-.772.217-.289.08-.565.172-.861.243l11.16 17.834 4.746 7.583c1.234-6.662-2.954-22.34 6.222-27.202M439.982 35.223l-.029.042a3.826 3.826 0 0 1-.374.441 4.202 4.202 0 0 1-.676.554 4.867 4.867 0 0 1-.467.272c-.256.13-.548.252-.877.351a6.333 6.333 0 0 1-1.105.225 7.981 7.981 0 0 1-1.352.037 11.539 11.539 0 0 1-2.223-.35 17.335 17.335 0 0 1-2.022-.652 23.723 23.723 0 0 1-3.286-1.27c2.688-.736 6.958-4.552 8.558-4.479 1.996.091 4.112 4.576 4.112 4.576s-.085.1-.26.253m-.16-5.21s-.409-1.353-1.356-2.21c-.6-.546-1.417-.894-2.486-.567-2.757.841-4.679 2.524-6.684 3.618-1.787.976-4.217.858-2.312-1.484.865-1.062 1.763-2.106 2.766-3a14.824 14.824 0 0 1-4.094-.877 23.86 23.86 0 0 0-1.506 1.262c-2.051 1.869-3.865 4.146-4.776 6.2-.467 1.051-.69 2.04-.592 2.887.025.21.069.414.136.605l.004.016c.026.074.055.146.088.217.27.582.757 1.058 1.523 1.378 10.106 2.126 20.085 4.096 22.677-.147.225-.369.345-.803.371-1.286.04-.724-.129-1.559-.458-2.452-.33-.893-.821-1.845-1.428-2.802-.37-.584-.782-1.171-1.229-1.748-.009.631-.148 1.346-.644.39"/>
        <path fill="#939597" d="M439.27 25.493c-.595.252-1.258.493-2.013.72a18.551 18.551 0 0 1-6.588.756c-1.052.911-1.997 1.975-2.905 3.057-2.001 2.388.551 2.508 2.43 1.513 2.106-1.114 4.125-2.83 7.022-3.687 1.124-.334 1.981.021 2.613.577.995.875 1.424 2.253 1.424 2.253.52.975.667.246.677-.397a3.978 3.978 0 0 0-.024-.536 5.963 5.963 0 0 0-.996-2.599c-.046-.068-.085-.14-.134-.208a6.156 6.156 0 0 0-1.507-1.45M460.965 57.005a.829.829 0 0 0 0 1.659.83.83 0 1 0 0-1.659M459.632 60.387a.825.825 0 0 0-.906.178.829.829 0 0 0 .585 1.416.831.831 0 1 0 .322-1.594M456.322 57.07a.832.832 0 0 0-.645 0 .788.788 0 0 0-.261.178.829.829 0 0 0 .584 1.416.828.828 0 0 0 .586-1.416.832.832 0 0 0-.264-.179"/>
        <path fill="#939597" d="M456.322 58.728a.832.832 0 0 0-.645 0 .788.788 0 0 0-.261.178.829.829 0 0 0 .584 1.416.828.828 0 0 0 .586-1.416.832.832 0 0 0-.264-.178"/>
        <path fill="#939597" d="M457.978 58.728a.826.826 0 0 0-.907.178.828.828 0 1 0 .907-.178M459.31 55.347a.83.83 0 0 0 0 1.658.829.829 0 0 0 0-1.658M457.977 62.045a.825.825 0 0 0-.905.178.83.83 0 0 0 .583 1.416.831.831 0 1 0 .322-1.594M454.666 62.045a.816.816 0 0 0-.322-.064.819.819 0 0 0-.583.242.829.829 0 0 0 .584 1.416.83.83 0 1 0 .322-1.594"/>
        <path fill="#F3A8C8" d="M470.948 40.94c-.226.285-.45.618-.616.97-.165.354-.272.729-.262 1.1.013.495.233.983.797 1.406.085.065.161.13.262.19.388.234.754.413 1.1.55.644 1.33 1.998 3.285 3.181 3.54.309.066.663-.064 1.035-.325.91-.643 1.926-2.095 2.64-3.522.57-1.145.948-2.272.913-2.949-.075-1.423-1.979-2.121-3.475-2.616-.464-.152-.889-.285-1.208-.414-.576-.232-1.29-.062-1.92.209-.845.362-1.539.905-1.539.905s-.029.023-.078.07a7.424 7.424 0 0 0-.83.886"/>
        <path fill="#231F20" d="M437.634 30.47c-1.672-.085-6.135 4.318-8.944 5.168a23.332 23.332 0 0 0 3.434 1.465 23.09 23.09 0 0 1-1.56-.74c.253-.345.527-.682.813-1.01l.03-.036c.284-.325.581-.64.885-.941l.031-.033a19.083 19.083 0 0 1 1.924-1.66v-.001c.351-.262.698-.499 1.032-.706l.002-.002a10.358 10.358 0 0 1 .929-.513l.044-.022c.129-.06.253-.113.374-.16l.071-.031c.113-.042.219-.077.324-.107.027-.01.056-.02.084-.028.1-.026.191-.044.283-.06.028-.005.057-.013.082-.016a1.74 1.74 0 0 1 .322-.016c.125.006.252.034.377.078.043.014.085.04.129.058.083.037.167.074.25.124.049.03.097.068.146.102.077.053.153.107.23.17.049.04.095.086.144.13.076.07.151.14.225.218.045.046.089.095.134.144a7.928 7.928 0 0 1 .668.847 13.046 13.046 0 0 1 .586.914 20.184 20.184 0 0 1 1.067 2.077s-.03.06-.088.158c.182-.176.269-.291.269-.291s-2.21-5.175-4.297-5.28"/>
        <path fill="#FEFEFE" d="M440.826 33.127c.043.2.068.407.068.62 0 1.07-.588 2.01-1.485 2.597a3.873 3.873 0 0 1-2.128.63c-.487 0-.95-.088-1.375-.244-1.313-.484-2.237-1.636-2.237-2.984 0-.59.18-1.142.49-1.619-.334.214-.67.446-1.005.694l-.008.006c-.33.246-.658.505-.979.778l-.032.028c-.315.269-.622.549-.916.838-.012.01-.021.022-.032.032-.296.292-.58.592-.842.9.563.25 1.102.469 1.615.657a19.64 19.64 0 0 0 2.19.67 13.22 13.22 0 0 0 2.405.36 9.33 9.33 0 0 0 1.465-.038c.442-.05.84-.13 1.196-.232.357-.102.672-.225.949-.36a5.344 5.344 0 0 0 .722-.424 4.415 4.415 0 0 0 .758-.674 3.866 3.866 0 0 0 .194-.247c.062-.087.092-.14.092-.14s-.44-.882-1.105-1.848"/>
        <path fill="#00C1DE" d="M436.664 32.536c1.264 0 2.289.986 2.289 2.2 0 1.216-1.025 2.2-2.29 2.2-1.264 0-2.288-.984-2.288-2.2 0-1.214 1.024-2.2 2.289-2.2m-3.009 2.842c0 1.412.848 2.62 2.05 3.127.39.164.814.256 1.26.256a3.24 3.24 0 0 0 1.95-.66 3.396 3.396 0 0 0 1.295-3.377 13.583 13.583 0 0 0-.265-.424l-.047-.073a10.648 10.648 0 0 0-.659-.895 7.39 7.39 0 0 0-.343-.382 4.977 4.977 0 0 0-.214-.203c-.045-.041-.09-.083-.138-.12-.072-.06-.144-.11-.217-.16-.046-.031-.092-.067-.139-.095a1.894 1.894 0 0 0-.237-.115c-.041-.017-.082-.041-.121-.055a1.33 1.33 0 0 0-.663-.058l-.08.016a2.664 2.664 0 0 0-.267.056c-.027.007-.055.017-.08.024-.1.03-.2.062-.307.101l-.068.028a6.312 6.312 0 0 0-.355.15l-.042.021c-.133.062-.27.131-.41.206-.004.003-.009.007-.014.009-.15.081-.302.17-.458.264h-.001c-.318.195-.646.416-.98.66v.001a3.417 3.417 0 0 0-.45 1.698"/>
        <path fill="#404042" d="M434.036 33.255c0-.489.525-.887 1.169-.887.642 0 1.167.398 1.167.887 0 .49-.525.888-1.167.888-.644 0-1.169-.398-1.169-.888m2.102 2.19c1.37 0 2.483-.744 2.483-1.66 0-.916-1.112-1.658-2.483-1.658-1.37 0-2.483.742-2.483 1.658 0 .916 1.112 1.66 2.483 1.66"/>
        <path fill="#FEFEFE" d="M436.966 32.956a.83.83 0 0 0-.828-.829.83.83 0 0 0 0 1.659.83.83 0 0 0 .828-.83"/>
        <path fill="#858182" d="M434.523 8.538c-2.503-2.013-5.857-2.885-6.105-2.948-.944.3-1.762.944-2.503 1.578-.164.14-.325.283-.482.42-.56.484-1.12.997-1.635 1.548-.42.446-.81.919-1.146 1.419-.927 1.377-.568 3.26-.156 4.747.534 1.933 1.521 3.263 3.103 4.52 1.355 1.076 2.98 2.02 4.732 2.255 1.468.196 3.039.14 4.378-.528.398-.198.786-.415 1.164-.648a8.672 8.672 0 0 0-.316-.631c-2.206-4.01-8.717-8.944-11.282-10.794.58-.67 1.52-1.45 2.222-1.997 1.82.998 5.096 3.085 7.567 6.256 0 0-1.644-1.12-3.391-1.883 1.922 1.889 4.828 4.995 6.044 7.6.109.23.203.458.282.68.423-.315.829-.654 1.215-1.013.93-.865 1.78-1.789 2.062-2.987-.686-2.794-3.455-5.744-5.753-7.594M422.161 4.906c-.478.852 1.021 1.872 1.836 2.343.133-.164.274-.333.421-.505-.672-.433-1.793-1.192-1.648-1.657.2-.643 2.436-2.36 2.61-2.49a6.332 6.332 0 0 0-.36-.324c-.674.477-2.347 1.72-2.859 2.633M420.878 25.443c.162.23.367.646-.105.7-.473.056-1.277-.765-1.597-1.13-.318-.363-1.347-1.318-1.14-1.654.207-.335.578-.117.976.257 0 0 1.705 1.595 1.866 1.827m-1.53 3.23a2.94 2.94 0 0 1-.21.785c-.21.466-.495.595-.654.4h-.002l-3.281-4.016s-.256-.655.41-.806c.024-.006.047-.011.07-.019.64-.156 1.236-.455 1.7-.137.483.327 1.197 1.193 1.51 1.55.313.356.608 1.162.458 2.243m.397-5.575c-.443-.505-.811-.92-1.234-.922-.612-.005-.456.396-2.017 1.533a2.836 2.836 0 0 1-1.208.53 2.396 2.396 0 0 1-1.415-.19 81.41 81.41 0 0 1-.079 2.021l5.005 6.09s-.142.107-.396.294l.052.061a239.028 239.028 0 0 0-.807.6l.228.273c.073.086.141.156.206.211.232.196.41.209.533.168l1.584-1.17v-.002c.014-.025.156-.3-.076-.704a1.614 1.614 0 0 0-.135-.193l-.128-.158c-.244-.358-.261-.756-.054-1.548.073-.28.174-.608.302-1 .494-1.504 1.373-2.168 1.855-2.986.262-.442.01-.826-.4-1.204-.939-.577-1.816-1.704-1.816-1.704"/>
        <path fill="#AFADAD" d="M421.922 22.176l-1.35.46-.158.054c.445.242 1.594.861 2.224 1.144.07-.038.14-.079.21-.12.308-.173.628-.352.876-.486-.481-.973-1.802-1.052-1.802-1.052M424.397 21.828c3.098 2.354 6.663 2.124 9.591 1.818 3.097-.324 5.388-2.836 6.117-3.496.62-.561 1.55-3.379 1.826-4.254-.317.9-.913 1.69-1.743 2.298-1.922 1.413-1.94 1.636-3.878 2.704-1.193.658-3.905 1.325-6.585.596-1.522-.416-2.914-1.338-4.15-2.265-1.503-1.126-2.667-2.182-3.245-3.976-.416-1.292-1.05-2.943-.867-4.318.071-.53.392-1.256.879-2.027-1.256 1.648-2.028 4.16-1.918 5.002.092.696.183 3.432 2.03 5.949 0 0 1.527.795 1.943 1.969M423.74 4.384c-.175.387 1.171 1.02 1.98 1.38.886-.714 1.97-1.468 3.12-1.923a5.712 5.712 0 0 1 1.724-.406c.459-.03.918.013 1.369.147.014.003.028.008.043.013 2.49.753 5.166 2.932 5.166 2.932s2.064 1.623 3.708 3.379a80.162 80.162 0 0 1 5.528 3.977c.124-.24.34-.672.519-1.066 0 0-11.764-8.87-13.798-10.067a2.567 2.567 0 0 0-.497.3c-1.523-1.034-4.329-2.495-4.71-2.433-.422.067-1.003.355-.631.667.087.072.318.228.625.427-.324.178-.731.427-1.012.602-.209.108-2.896 1.536-3.134 2.071"/>
        <path fill="#AFADAD" d="M431.205 11.573c1.59.754 3.088 1.861 3.088 1.861-2.25-3.135-5.234-5.198-6.89-6.185-.64.54-1.496 1.312-2.024 1.975 2.336 1.827 8.265 6.706 10.274 10.67.106.211.203.418.287.623.352-.236.695-.489 1.026-.76a7.922 7.922 0 0 0-.257-.673c-1.107-2.574-3.754-5.645-5.504-7.511"/>
        <path fill="#D1CFCD" d="M420.664 22.176l-.25.183s.762.976 1.575 1.475l.08-.1c-.398-.385-1.124-1.23-1.405-1.558M423.854 23.834a1.91 1.91 0 0 0 .514-.057c.42-.106.769-.347 1.011-.664-.54-1.547-2.523-2.596-2.523-2.596-.44.3-.728.777-.787 1.301 0 0 1.308.151 1.785 2.016M440.19 15.257c-.283 1.14-1.138 2.016-2.075 2.837a15.292 15.292 0 0 1-3.531 2.306c-1.348.635-2.93.687-4.409.5-1.762-.222-3.4-1.118-4.765-2.14-1.592-1.192-2.586-2.455-3.125-4.29-.414-1.412-.776-3.2.158-4.506.34-.476.731-.924 1.154-1.346a20.813 20.813 0 0 1 1.647-1.472c.157-.129.32-.263.486-.397.746-.603 1.57-1.214 2.52-1.497.147-.045.295-.082.448-.11 2.483-.44 5.266 1.428 7.106 2.77.85.62 1.66 1.307 2.399 2.04 1.194 1.182 2.114 2.894 2.088 4.543-.005.267-.039.52-.1.762m-.48-4.91c-1.67-1.74-3.77-3.345-3.77-3.345s-2.72-2.158-5.251-2.903l-.045-.014a4.09 4.09 0 0 0-1.39-.144c-.59.035-1.18.183-1.754.402-1.169.45-2.271 1.196-3.172 1.903-.18.14-.352.281-.515.416l-.181.152a12.378 12.378 0 0 0-2.274 2.559c-.506.765-.838 1.486-.911 2.011-.191 1.366.468 3.003.898 4.285.6 1.78 1.806 2.827 3.363 3.946 1.281.92 2.724 1.834 4.3 2.246 2.777.723 5.588.062 6.825-.59 2.008-1.06 2.025-1.283 4.018-2.684.86-.604 1.477-1.387 1.806-2.28l.008-.024a2.639 2.639 0 0 0 .036-.11l.03-.09.006-.017c0-.003 0-.006.002-.008.002-.003.002-.005.002-.007.1-.331.16-.675.181-1.03.011-.18.01-.366 0-.552a5.441 5.441 0 0 0-.267-1.374l-.033-.1c-.268-.774-1.03-1.73-1.912-2.648"/>
        <path fill="#D1CFCD" d="M445.241 13.194s-3.99-2.713-6.668-4.686c-2.678-1.97-4.769-3.664-5.392-4.077-.36-.24-.568-.688-1.181-.412 1.914 1.174 12.982 9.864 12.982 9.864.119-.273.22-.53.26-.689"/>
        <path fill="#77411C" d="M418.759 31.13l-.058-.06-5.225-5.577c-.232 3.381-.695 6.847-1.338 9.951 2.062-1.324 4.046-2.596 5.715-3.71.03-.02.062-.04.09-.06l.816-.544M420.834 4.6c-.797.812-1.442 1.771-1.957 2.738-1.065 1.997-1.576 4.024-1.703 4.836-.198 1.257-.207 6.262 3.152 10.002l1.021-.672c.045-.4.264-.764.6-.992-1.83-2.53-1.92-5.278-2.01-5.978-.11-.847.655-3.37 1.899-5.027a12.335 12.335 0 0 1 2.173-2.59l.174-.155c-.951-.394-2.701-1.244-2.143-1.955.597-.762 2.551-1.8 3.34-2.198-.378-.226-.71-.368-.903-.33-.176.035-.449.157-.754.318-.275.144-.575.32-.86.492-.617.374-1.155.736-1.155.736-.31.236-.601.498-.874.776M442.217 16.61c0 .002-.003.004-.003.008l-.005.018c-.008.021-.016.052-.03.092-.001.009-.005.018-.009.028l-.026.085-.01.026c-.286.894-1.247 3.773-1.89 4.346-.755.675-3.128 3.242-6.335 3.574-3.033.312-6.725.547-9.933-1.86a1.46 1.46 0 0 1-.806.516 1.494 1.494 0 0 1-.41.043c-.195.2-.449.466-.691.723a14.443 14.443 0 0 0 3.832 2.019 16.39 16.39 0 0 0 4.332.882c2.2.15 4.462-.109 6.635-.747.76-.224 1.427-.46 2.026-.71 3.76-1.561 4.538-3.59 4.681-5.688.115-1.679-.675-3.472-1.175-4.423a4.69 4.69 0 0 1-.181 1.06c0 .002 0 .005-.002.007"/>
        <path fill="#A6A8AB" d="M435.958 8.362c-1.771-1.312-4.448-3.138-6.837-2.707-.147.027-.29.062-.431.106.24.058 3.488.867 5.914 2.735 2.228 1.716 4.91 4.455 5.574 7.046.06-.237.093-.485.097-.746.025-1.611-.86-3.284-2.008-4.44a20.32 20.32 0 0 0-2.31-1.994"/>
        <path fill="#77411C" d="M442.265 13.443c.012.036.024.072.034.108 1.744 1.639 6.294 5.736 7.609 5.271a.471.471 0 0 0 .299-.26c-.958-1.095-2.472-2.428-4.083-3.72a84.592 84.592 0 0 0-5.848-4.276c.918.997 1.71 2.035 1.99 2.877"/>
        <path fill="#6C6E70" d="M387.036 42.127c1.414-5.502 5.831-12.058 10.353-15.567 3.009-2.338 7.717 8.258 11.42 18.524a.603.603 0 0 1 .026.311c.004-.002.007-.007.011-.01 1.462-1.438 2.7-5.118 3.574-9.578.587-3 1.009-6.348 1.22-9.615a90.315 90.315 0 0 0 .129-2.78c.02-.698.026-1.382.024-2.054-.001-.24-.002-.48-.005-.715l-.004-.218c-.076-4.232-.616-7.777-1.747-9.409-.124-.18-.234-.363-.443-.403-.817-.156-6.778-.011-12.879 1.8-.035.01-.074.03-.11.04-.01.003-.02.009-.028.011-3.576 1.133-8.52 5.453-12.049 8.832l-.188.185c.01-.01.016-.019.025-.03l-.162.157c.003.003.016-.012.023-.015l-.02.02c-1.675 1.647-3.15 3.344-3.675 3.845a.616.616 0 0 0-.165.603c.419 1.6 1.275 9.39 4.703 16.456.008.017.023.025.033.04a.585.585 0 0 1-.066-.43"/>
        <path fill="#58585B" d="M396.147 42.944l1.702.123 3.094.697 7.182 1.617c.342.077.64-.17.694-.49a.634.634 0 0 0-.027-.315c-3.65-10.393-8.292-21.118-11.258-18.752-4.458 3.552-8.812 10.188-10.207 15.757a.606.606 0 0 0 .065.437c.034.065.079.118.134.166.02.02.037.041.06.057.081.054.172.093.274.101l3.802.276 4.485.326z"/>
        <path fill="#FF7D3E" d="M435.706 94.336h-2.05v-.843h4.965v.843h-2.052v5.791h-.863z"/>
        <path fill="#FF7D3E" d="M438.62 93.493h1.283l2.019 5.022h.035l2.001-5.022h1.283v6.634h-.861v-5.454h-.017l-2.144 5.454h-.575l-2.145-5.454h-.018v5.454h-.86z"/>
    </g>
</svg>
