<svg xmlns="http://www.w3.org/2000/svg" xmlns:xlink="http://www.w3.org/1999/xlink" viewBox="0 0 901.07 935.91"><defs><style>.cls-1{fill:#242f65;}.cls-2{fill:#15c0dd;}.cls-3{fill:#c32032;}.cls-4{fill:#f47641;}.cls-5{fill:#f5d01b;}.cls-6{fill:#5f6062;}.cls-7{fill:#79b142;}.cls-8{fill:#069372;}.cls-9{fill:#febe3a;}</style><symbol id="sparkles" data-name="sparkles" viewBox="0 0 70.44 54.87"><polygon class="cls-1" points="14.98 0 12.18 4.84 17.78 4.84 14.98 0"/><polygon class="cls-2" points="36.96 20.41 38.12 21.57 33.39 26.3 32.23 25.14 36.96 20.41"/><polygon class="cls-3" points="66.08 1.04 62.9 1.04 61.31 3.79 62.9 6.55 66.08 6.55 67.67 3.79 66.08 1.04"/><circle class="cls-4" cx="17.67" cy="47.96" r="2.53" transform="translate(-31.43 33.76) rotate(-53.64)"/><path class="cls-5" d="M7.8,31.1a1.67,1.67,0,0,1,.12-1.72c.22-.48.41-.9.15-1.28s-.71-.37-1.24-.36a1.67,1.67,0,0,1-1.63-.56,1.67,1.67,0,0,1,.12-1.72c.22-.48.41-.9.15-1.28s-.71-.37-1.24-.36a1.67,1.67,0,0,1-1.63-.56,1.67,1.67,0,0,1,.12-1.72c.22-.48.41-.9.15-1.28s-.71-.37-1.24-.36A1.67,1.67,0,0,1,0,19.33l.38-.25c.26.39.71.37,1.24.36A1.68,1.68,0,0,1,3.25,20a1.67,1.67,0,0,1-.12,1.72c-.22.48-.41.9-.15,1.28s.71.37,1.24.36a1.67,1.67,0,0,1,1.63.56,1.67,1.67,0,0,1-.12,1.72c-.22.48-.41.9-.15,1.28s.71.37,1.24.36a1.67,1.67,0,0,1,1.63.56,1.67,1.67,0,0,1-.12,1.72c-.22.48-.41.9-.15,1.28Z"/><path class="cls-6" d="M57.93,39.5a1.75,1.75,0,0,1,1.79.11c.5.23.94.42,1.34.15s.39-.75.37-1.29a1.48,1.48,0,0,1,2.37-1.59c.5.23.94.42,1.34.15s.39-.75.37-1.3a1.48,1.48,0,0,1,2.37-1.59c.5.23.94.42,1.34.15s.39-.74.37-1.3a1.75,1.75,0,0,1,.58-1.7l.26.39c-.4.27-.39.75-.37,1.3a1.48,1.48,0,0,1-2.37,1.59c-.5-.23-.94-.42-1.34-.15s-.39.75-.37,1.3a1.48,1.48,0,0,1-2.37,1.59c-.5-.23-.94-.42-1.34-.15s-.39.74-.37,1.29A1.48,1.48,0,0,1,59.54,40c-.5-.23-.94-.42-1.34-.15Z"/><path class="cls-7" d="M50.72,54.87A8.76,8.76,0,0,1,42,46.12h.5a8.26,8.26,0,0,0,8.25,8.25Z"/><rect class="cls-8" x="37.15" y="0.76" width="4.78" height="4.78"/><polygon class="cls-9" points="57.94 22.82 56.67 21.55 57.94 20.29 59.2 21.55 57.94 22.82"/></symbol></defs><title>Asset 1</title><g id="Layer_2" data-name="Layer 2"><g id="Layer_1-2" data-name="Layer 1"><use width="70.44" height="54.87" transform="translate(0.2 22.78) scale(1.15)" xlink:href="#sparkles"/><use width="70.44" height="54.87" transform="translate(247.23 7.17) rotate(-4.46) scale(1.75)" xlink:href="#sparkles"/><use width="70.44" height="54.87" transform="matrix(0.92, 0.56, -0.56, 0.92, 662.65, 12.01)" xlink:href="#sparkles"/><use width="70.44" height="54.87" transform="matrix(1.43, 0.69, -0.69, 1.43, 726.35, 15.63)" xlink:href="#sparkles"/><use width="70.44" height="54.87" transform="matrix(1.66, 0.53, -0.53, 1.66, 754.47, 17.07)" xlink:href="#sparkles"/><use width="70.44" height="54.87" transform="translate(772.37 51.33) rotate(11.83) scale(1.97)" xlink:href="#sparkles"/><use width="70.44" height="54.87" transform="translate(742.28 57.32) rotate(23.38) scale(2.01)" xlink:href="#sparkles"/><use width="70.44" height="54.87" transform="matrix(1.35, 0.75, -0.75, 1.35, 676.9, 58.07)" xlink:href="#sparkles"/><use width="70.44" height="54.87" transform="matrix(1.91, 0.54, -0.54, 1.91, 457.61, 16.64)" xlink:href="#sparkles"/><use width="70.44" height="54.87" transform="translate(253.61 93.36) rotate(-19.51) scale(1.69)" xlink:href="#sparkles"/><use width="70.44" height="54.87" transform="translate(134.18 55.86) rotate(8.8) scale(1.95)" xlink:href="#sparkles"/><use width="70.44" height="54.87" transform="translate(86.69 88.64) rotate(4.05) scale(1.65)" xlink:href="#sparkles"/><use width="70.44" height="54.87" transform="translate(59.99 136.98) rotate(3.56) scale(1.62)" xlink:href="#sparkles"/><use width="70.44" height="54.87" transform="matrix(1.38, 0.01, -0.01, 1.38, 28.43, 196)" xlink:href="#sparkles"/><use width="70.44" height="54.87" transform="translate(93.37 236.64) rotate(-16.6) scale(1.75)" xlink:href="#sparkles"/><use width="70.44" height="54.87" transform="translate(196.15 221.48) rotate(2.61) scale(1.62)" xlink:href="#sparkles"/><use width="70.44" height="54.87" transform="translate(243.51 204.03) rotate(1.46) scale(1.38)" xlink:href="#sparkles"/><use width="70.44" height="54.87" transform="translate(285.21 182.6) rotate(-15.6) scale(1.06)" xlink:href="#sparkles"/><use width="70.44" height="54.87" transform="translate(391.64 130.18) rotate(-28.39) scale(1.53)" xlink:href="#sparkles"/><use width="70.44" height="54.87" transform="matrix(2.07, 0.35, -0.35, 2.07, 587.36, 138.7)" xlink:href="#sparkles"/><use width="70.44" height="54.87" transform="translate(745.88 199.41) rotate(16.06) scale(1.52)" xlink:href="#sparkles"/><use width="70.44" height="54.87" transform="translate(789.95 239.22) rotate(6.81) scale(1.44)" xlink:href="#sparkles"/><use width="70.44" height="54.87" transform="matrix(1.45, 0, 0, 1.45, 783.03, 298.21)" xlink:href="#sparkles"/><use width="70.44" height="54.87" transform="translate(710.6 301.52) rotate(0.46) scale(1.33)" xlink:href="#sparkles"/><use width="70.44" height="54.87" transform="matrix(1.43, -0.32, 0.32, 1.43, 585.1, 281.84)" xlink:href="#sparkles"/><use width="70.44" height="54.87" transform="translate(521.13 241.53) rotate(-23.87) scale(1.47)" xlink:href="#sparkles"/><use width="70.44" height="54.87" transform="translate(505.4 134.83) rotate(2.43) scale(1.18)" xlink:href="#sparkles"/><use width="70.44" height="54.87" transform="translate(336.65 166.96) rotate(-24.83) scale(1.15)" xlink:href="#sparkles"/><use width="70.44" height="54.87" transform="matrix(1.42, 0.28, -0.28, 1.42, 235.26, 276.83)" xlink:href="#sparkles"/><use width="70.44" height="54.87" transform="translate(66.03 339.07) rotate(-26.93) scale(1.11)" xlink:href="#sparkles"/><use width="70.44" height="54.87" transform="matrix(1.03, -0.16, 0.16, 1.03, 33.21, 358.18)" xlink:href="#sparkles"/><use width="70.44" height="54.87" transform="translate(53.71 396.04) rotate(-9.23) scale(1.11)" xlink:href="#sparkles"/><use width="70.44" height="54.87" transform="matrix(1.11, -0.37, 0.37, 1.11, 99.35, 416.14)" xlink:href="#sparkles"/><use width="70.44" height="54.87" transform="translate(148.71 406.84) rotate(-21.03) scale(1.21)" xlink:href="#sparkles"/><use width="70.44" height="54.87" transform="matrix(1.35, 0.17, -0.17, 1.35, 182.25, 417.14)" xlink:href="#sparkles"/><use width="70.44" height="54.87" transform="translate(169.55 509.34) rotate(11.01) scale(1.5)" xlink:href="#sparkles"/><use width="70.44" height="54.87" transform="translate(599.06 439.53) rotate(-14.88) scale(1.36)" xlink:href="#sparkles"/><use width="70.44" height="54.87" transform="matrix(2, -0.42, 0.42, 2, 690.02, 462.68)" xlink:href="#sparkles"/><use width="70.44" height="54.87" transform="translate(758.27 419.09) rotate(-0.05) scale(1.46)" xlink:href="#sparkles"/><use width="70.44" height="54.87" transform="translate(800.83 450.19) scale(1.29)" xlink:href="#sparkles"/><use width="70.44" height="54.87" transform="translate(779.34 569.23) scale(1.62)" xlink:href="#sparkles"/><use width="70.44" height="54.87" transform="translate(699.43 577.23) rotate(0.06) scale(1.81)" xlink:href="#sparkles"/><use width="70.44" height="54.87" transform="translate(655.01 553.99) rotate(20.51) scale(1.25)" xlink:href="#sparkles"/><use width="70.44" height="54.87" transform="translate(579.58 548.33) rotate(12.98) scale(1.26)" xlink:href="#sparkles"/><use width="70.44" height="54.87" transform="translate(381.52 253.6) rotate(-28.09) scale(1.44)" xlink:href="#sparkles"/><use width="70.44" height="54.87" transform="translate(264.8 573.92) rotate(-20.83) scale(1.53)" xlink:href="#sparkles"/><use width="70.44" height="54.87" transform="translate(515.45 607.28) rotate(20.41) scale(1.14)" xlink:href="#sparkles"/><use width="70.44" height="54.87" transform="translate(455.33 611.41) rotate(15.06) scale(1.06)" xlink:href="#sparkles"/><use width="70.44" height="54.87" transform="translate(209.75 598.93) rotate(11.08) scale(1.39)" xlink:href="#sparkles"/><use width="70.44" height="54.87" transform="matrix(1.39, 0.19, -0.19, 1.39, 131.88, 561)" xlink:href="#sparkles"/><use width="70.44" height="54.87" transform="translate(55.78 480.44) scale(1.24)" xlink:href="#sparkles"/><use width="70.44" height="54.87" transform="translate(11.92 489.28) scale(1.13)" xlink:href="#sparkles"/><use width="70.44" height="54.87" transform="translate(0 567.75) scale(1.06)" xlink:href="#sparkles"/><use width="70.44" height="54.87" transform="translate(33.37 726.32) scale(1.26)" xlink:href="#sparkles"/><use width="70.44" height="54.87" transform="translate(35.92 794.42) scale(1.14)" xlink:href="#sparkles"/><use width="70.44" height="54.87" transform="translate(51.14 824.77) scale(1.09)" xlink:href="#sparkles"/><use width="70.44" height="54.87" transform="translate(92.46 760.24) scale(1.33)" xlink:href="#sparkles"/><use width="70.44" height="54.87" transform="translate(82.15 697.9) scale(1.42)" xlink:href="#sparkles"/><use width="70.44" height="54.87" transform="translate(57.47 664.07) scale(1.28)" xlink:href="#sparkles"/><use width="70.44" height="54.87" transform="translate(123.66 654.54) scale(1.33)" xlink:href="#sparkles"/><use width="70.44" height="54.87" transform="translate(213.35 722.85) rotate(1.27) scale(1.39)" xlink:href="#sparkles"/><use width="70.44" height="54.87" transform="matrix(1.15, -0.59, 0.59, 1.15, 230.15, 816.22)" xlink:href="#sparkles"/><use width="70.44" height="54.87" transform="translate(196.22 807.08) rotate(1.68) scale(1.25)" xlink:href="#sparkles"/><use width="70.44" height="54.87" transform="matrix(1.1, -0.28, 0.28, 1.1, 242.1, 868.2)" xlink:href="#sparkles"/><use width="70.44" height="54.87" transform="matrix(-0.93, -1.67, 1.67, -0.93, 458.41, 940.99)" xlink:href="#sparkles"/><use width="70.44" height="54.87" transform="translate(331.94 740.45) rotate(-41.68) scale(1.39)" xlink:href="#sparkles"/><use width="70.44" height="54.87" transform="translate(315.72 666.57) rotate(-3.54) scale(1.22)" xlink:href="#sparkles"/><use width="70.44" height="54.87" transform="translate(458.84 783.42) rotate(-55.87) scale(1.64)" xlink:href="#sparkles"/><use width="70.44" height="54.87" transform="matrix(1.15, -1.13, 1.13, 1.15, 552.98, 741.67)" xlink:href="#sparkles"/><use width="70.44" height="54.87" transform="translate(572.1 649.36) rotate(-7.25) scale(1.82)" xlink:href="#sparkles"/><use width="70.44" height="54.87" transform="translate(605.27 741.59) rotate(-17.15) scale(1.44)" xlink:href="#sparkles"/><use width="70.44" height="54.87" transform="translate(619.96 785.29) rotate(-6.95) scale(1.32)" xlink:href="#sparkles"/><use width="70.44" height="54.87" transform="translate(599.63 833.37) rotate(-4.77) scale(1.27)" xlink:href="#sparkles"/><use width="70.44" height="54.87" transform="translate(752.78 780.64) rotate(3.95) scale(1.52)" xlink:href="#sparkles"/><use width="70.44" height="54.87" transform="translate(766.45 707.2) rotate(7.71) scale(1.62)" xlink:href="#sparkles"/><use width="70.44" height="54.87" transform="translate(770.64 649.9) rotate(4.06) scale(1.46)" xlink:href="#sparkles"/><use width="70.44" height="54.87" transform="translate(803.75 790.75) rotate(7.7) scale(1.39)" xlink:href="#sparkles"/><use width="70.44" height="54.87" transform="translate(807.63 874.1) rotate(0.75) scale(1.11)" xlink:href="#sparkles"/></g></g></svg>