<?xml version="1.0" encoding="UTF-8"?>
<svg width="463px" height="190px" viewBox="0 0 463 190" version="1.1" xmlns="http://www.w3.org/2000/svg" xmlns:xlink="http://www.w3.org/1999/xlink">
    <!-- Generator: Sketch 49.1 (51147) - http://www.bohemiancoding.com/sketch -->
    <title>Head_UniversityPhysicsV1</title>
    <desc>Created with Sketch.</desc>
    <defs></defs>
    <g id="Head_UniversityPhysicsV1" stroke="none" stroke-width="1" fill="none" fill-rule="evenodd">
        <path d="M22.606,92.482 L38.588,92.482 C40.9460118,92.482 43.2166558,92.3073351 45.4,91.958 C47.5833443,91.6086649 49.5046584,90.9318384 51.164,89.9275 C52.8233416,88.9231616 54.1551616,87.5040092 55.1595,85.67 C56.1638384,83.8359908 56.666,81.4343482 56.666,78.465 C56.666,75.4956518 56.1638384,73.0940092 55.1595,71.26 C54.1551616,69.4259908 52.8233416,68.0068384 51.164,67.0025 C49.5046584,65.9981616 47.5833443,65.3213351 45.4,64.972 C43.2166558,64.6226649 40.9460118,64.448 38.588,64.448 L22.606,64.448 L22.606,92.482 Z M2.039,48.466 L44.221,48.466 C50.0723626,48.466 55.0503128,49.3174915 59.155,51.0205 C63.2596872,52.7235085 66.6001538,54.9723194 69.1765,57.767 C71.7528462,60.5616806 73.6304941,63.7493154 74.8095,67.33 C75.9885059,70.9106846 76.578,74.6223141 76.578,78.465 C76.578,82.2203521 75.9885059,85.9101485 74.8095,89.5345 C73.6304941,93.1588515 71.7528462,96.3683194 69.1765,99.163 C66.6001538,101.957681 63.2596872,104.206491 59.155,105.9095 C55.0503128,107.612509 50.0723626,108.464 44.221,108.464 L22.606,108.464 L22.606,142 L2.039,142 L2.039,48.466 Z M85.0509999,48.466 L103.653,48.466 L103.653,83.705 L104.046,83.705 C106.404012,79.7749803 109.416982,76.9148423 113.085,75.1245 C116.753018,73.3341577 120.333649,72.439 123.827,72.439 C128.805025,72.439 132.887817,73.1158266 136.0755,74.4695 C139.263183,75.8231734 141.773991,77.7008213 143.608,80.1025 C145.442009,82.5041787 146.730163,85.4298161 147.4725,88.8795 C148.214837,92.3291839 148.586,96.149979 148.586,100.342 L148.586,142 L129.984,142 L129.984,103.748 C129.984,98.1586387 129.110675,93.9885138 127.364,91.2375 C125.617325,88.4864862 122.517022,87.111 118.063,87.111 C112.997641,87.111 109.329678,88.6174849 107.059,91.6305 C104.788322,94.6435151 103.653,99.5996322 103.653,106.499 L103.653,142 L85.0509999,142 L85.0509999,48.466 Z M193.739,150.384 C191.730323,155.886028 188.935684,159.815988 185.355,162.174 C181.774315,164.532012 176.796365,165.711 170.421,165.711 C168.499657,165.711 166.600176,165.645501 164.7225,165.5145 C162.844824,165.383499 160.945343,165.230668 159.024,165.056 L159.024,149.729 C160.770675,149.903668 162.560991,150.078332 164.395,150.253 C166.229009,150.427668 168.062991,150.471334 169.897,150.384 C172.342345,150.121999 174.154494,149.161342 175.3335,147.502 C176.512506,145.842658 177.102,144.008677 177.102,142 C177.102,140.515326 176.840002,139.118007 176.316,137.808 L152.605,74.273 L172.386,74.273 L187.713,120.647 L187.975,120.647 L202.778,74.273 L222.035,74.273 L193.739,150.384 Z M240.333,119.992 C240.333,122.000677 240.747829,123.725493 241.5775,125.1665 C242.407171,126.607507 243.476993,127.786495 244.787,128.7035 C246.097006,129.620505 247.603491,130.297331 249.3065,130.734 C251.009508,131.170669 252.777991,131.389 254.612,131.389 C255.922006,131.389 257.297493,131.236168 258.7385,130.9305 C260.179507,130.624832 261.489494,130.144503 262.6685,129.4895 C263.847506,128.834497 264.829996,127.961172 265.616,126.8695 C266.402004,125.777828 266.795,124.402342 266.795,122.743 C266.795,119.948319 264.939185,117.85234 261.2275,116.455 C257.515814,115.05766 252.341366,113.66034 245.704,112.263 C242.996653,111.651664 240.354846,110.931171 237.7785,110.1015 C235.202153,109.271829 232.909676,108.180173 230.901,106.8265 C228.892323,105.472827 227.276672,103.769844 226.054,101.7175 C224.831327,99.6651564 224.22,97.1543482 224.22,94.185 C224.22,89.8183115 225.071491,86.2376806 226.7745,83.443 C228.477508,80.6483194 230.726319,78.4431747 233.521,76.8275 C236.31568,75.2118253 239.459649,74.0765033 242.953,73.4215 C246.446351,72.7664967 250.026981,72.439 253.695,72.439 C257.363018,72.439 260.921816,72.7883298 264.3715,73.487 C267.821184,74.1856702 270.899653,75.3646584 273.607,77.024 C276.314347,78.6833416 278.563157,80.8884862 280.3535,83.6395 C282.143842,86.3905138 283.213665,89.861979 283.563,94.054 L265.878,94.054 C265.615998,90.4733154 264.262345,88.0498397 261.817,86.7835 C259.371654,85.5171603 256.489683,84.884 253.171,84.884 C252.122994,84.884 250.987672,84.9494993 249.765,85.0805 C248.542327,85.2115007 247.428838,85.4953311 246.4245,85.932 C245.420161,86.3686689 244.56867,87.0018292 243.87,87.8315 C243.17133,88.6611708 242.822,89.7746597 242.822,91.172 C242.822,92.8313416 243.433327,94.1849948 244.656,95.233 C245.878672,96.2810052 247.47249,97.1324967 249.4375,97.7875 C251.40251,98.4425033 253.65132,99.0319974 256.184,99.556 C258.716679,100.080003 261.292987,100.647664 263.913,101.259 C266.620347,101.870336 269.262153,102.612662 271.8385,103.486 C274.414846,104.359338 276.707323,105.516493 278.716,106.9575 C280.724676,108.398507 282.340327,110.188823 283.563,112.3285 C284.785672,114.468177 285.397,117.109984 285.397,120.254 C285.397,124.708022 284.501842,128.441485 282.7115,131.4545 C280.921157,134.467515 278.585014,136.890991 275.703,138.725 C272.820985,140.559009 269.524185,141.847163 265.8125,142.5895 C262.100814,143.331837 258.323686,143.703 254.481,143.703 C250.55098,143.703 246.708352,143.310004 242.953,142.524 C239.197648,141.737996 235.857181,140.428009 232.9315,138.594 C230.005818,136.759991 227.604176,134.336515 225.7265,131.3235 C223.848824,128.310485 222.822667,124.533356 222.648,119.992 L240.333,119.992 Z M312.996,63.793 L294.394,63.793 L294.394,48.466 L312.996,48.466 L312.996,63.793 Z M294.394,74.273 L312.996,74.273 L312.996,142 L294.394,142 L294.394,74.273 Z M371.38,98.115 C370.157327,90.3422945 365.572373,86.456 357.625,86.456 C354.655651,86.456 352.166676,87.1328266 350.158,88.4865 C348.149323,89.8401734 346.511839,91.5868226 345.2455,93.7265 C343.97916,95.8661774 343.084002,98.2241538 342.56,100.8005 C342.035997,103.376846 341.774,105.931321 341.774,108.464 C341.774,110.909346 342.035997,113.398321 342.56,115.931 C343.084002,118.463679 343.935494,120.756156 345.1145,122.8085 C346.293505,124.860844 347.887323,126.541993 349.896,127.852 C351.904676,129.162007 354.349985,129.817 357.232,129.817 C361.686022,129.817 365.113821,128.572512 367.5155,126.0835 C369.917178,123.594488 371.423663,120.254021 372.035,116.062 L389.982,116.062 C388.759327,125.057378 385.266028,131.912976 379.502,136.629 C373.737971,141.345024 366.358378,143.703 357.363,143.703 C352.297641,143.703 347.647187,142.851509 343.4115,141.1485 C339.175812,139.445491 335.573348,137.065682 332.604,134.009 C329.634651,130.952318 327.320341,127.306188 325.661,123.0705 C324.001658,118.834812 323.172,114.184359 323.172,109.119 C323.172,103.878974 323.936159,99.0101892 325.4645,94.5125 C326.99284,90.0148108 329.241651,86.1285164 332.211,82.8535 C335.180348,79.5784836 338.804645,77.0240092 343.084,75.19 C347.363354,73.3559908 352.253972,72.439 357.756,72.439 C361.773353,72.439 365.637814,72.9629948 369.3495,74.011 C373.061185,75.0590052 376.379818,76.6528226 379.3055,78.7925 C382.231181,80.9321774 384.61099,83.5958174 386.445,86.7835 C388.279009,89.9711826 389.326998,93.7483115 389.589,98.115 L371.38,98.115 Z M412.471999,119.992 C412.471999,122.000677 412.886829,123.725493 413.716499,125.1665 C414.54617,126.607507 415.615993,127.786495 416.925999,128.7035 C418.236006,129.620505 419.742491,130.297331 421.445499,130.734 C423.148508,131.170669 424.91699,131.389 426.750999,131.389 C428.061006,131.389 429.436492,131.236168 430.877499,130.9305 C432.318507,130.624832 433.628494,130.144503 434.807499,129.4895 C435.986505,128.834497 436.968995,127.961172 437.754999,126.8695 C438.541003,125.777828 438.933999,124.402342 438.933999,122.743 C438.933999,119.948319 437.078185,117.85234 433.366499,116.455 C429.654814,115.05766 424.480366,113.66034 417.842999,112.263 C415.135653,111.651664 412.493846,110.931171 409.917499,110.1015 C407.341153,109.271829 405.048676,108.180173 403.039999,106.8265 C401.031323,105.472827 399.415672,103.769844 398.192999,101.7175 C396.970327,99.6651564 396.358999,97.1543482 396.358999,94.185 C396.358999,89.8183115 397.210491,86.2376806 398.913499,83.443 C400.616508,80.6483194 402.865319,78.4431747 405.659999,76.8275 C408.45468,75.2118253 411.598649,74.0765033 415.091999,73.4215 C418.58535,72.7664967 422.165981,72.439 425.833999,72.439 C429.502018,72.439 433.060816,72.7883298 436.510499,73.487 C439.960183,74.1856702 443.038653,75.3646584 445.745999,77.024 C448.453346,78.6833416 450.702157,80.8884862 452.492499,83.6395 C454.282842,86.3905138 455.352664,89.861979 455.701999,94.054 L438.016999,94.054 C437.754998,90.4733154 436.401345,88.0498397 433.955999,86.7835 C431.510654,85.5171603 428.628683,84.884 425.309999,84.884 C424.261994,84.884 423.126672,84.9494993 421.903999,85.0805 C420.681327,85.2115007 419.567838,85.4953311 418.563499,85.932 C417.559161,86.3686689 416.70767,87.0018292 416.008999,87.8315 C415.310329,88.6611708 414.960999,89.7746597 414.960999,91.172 C414.960999,92.8313416 415.572327,94.1849948 416.794999,95.233 C418.017672,96.2810052 419.61149,97.1324967 421.576499,97.7875 C423.541509,98.4425033 425.79032,99.0319974 428.322999,99.556 C430.855679,100.080003 433.431986,100.647664 436.051999,101.259 C438.759346,101.870336 441.401153,102.612662 443.977499,103.486 C446.553846,104.359338 448.846323,105.516493 450.854999,106.9575 C452.863676,108.398507 454.479327,110.188823 455.701999,112.3285 C456.924672,114.468177 457.535999,117.109984 457.535999,120.254 C457.535999,124.708022 456.640842,128.441485 454.850499,131.4545 C453.060157,134.467515 450.724014,136.890991 447.841999,138.725 C444.959985,140.559009 441.663185,141.847163 437.951499,142.5895 C434.239814,143.331837 430.462685,143.703 426.619999,143.703 C422.68998,143.703 418.847352,143.310004 415.091999,142.524 C411.336647,141.737996 407.996181,140.428009 405.070499,138.594 C402.144818,136.759991 399.743175,134.336515 397.865499,131.3235 C395.987823,128.310485 394.961667,124.533356 394.786999,119.992 L412.471999,119.992 Z" id="Physics" fill="#002469"></path>
        <path d="M11.924,187 L8.036,187 L-1,161.296 L2.672,161.296 L10.016,183.58 L10.088,183.58 L17.504,161.296 L21.068,161.296 L11.924,187 Z M22.112,177.712 C22.112,178.840006 22.2619985,179.841996 22.562,180.718 C22.8620015,181.594004 23.2759974,182.325997 23.804,182.914 C24.3320026,183.502003 24.9499965,183.951998 25.658,184.264 C26.3660035,184.576002 27.115996,184.732 27.908,184.732 C28.700004,184.732 29.4499965,184.576002 30.158,184.264 C30.8660035,183.951998 31.4839974,183.502003 32.012,182.914 C32.5400026,182.325997 32.9539985,181.594004 33.254,180.718 C33.5540015,179.841996 33.704,178.840006 33.704,177.712 C33.704,176.583994 33.5540015,175.582004 33.254,174.706 C32.9539985,173.829996 32.5400026,173.092003 32.012,172.492 C31.4839974,171.891997 30.8660035,171.436002 30.158,171.124 C29.4499965,170.811998 28.700004,170.656 27.908,170.656 C27.115996,170.656 26.3660035,170.811998 25.658,171.124 C24.9499965,171.436002 24.3320026,171.891997 23.804,172.492 C23.2759974,173.092003 22.8620015,173.829996 22.562,174.706 C22.2619985,175.582004 22.112,176.583994 22.112,177.712 Z M18.872,177.712 C18.872,176.343993 19.0639981,175.066006 19.448,173.878 C19.8320019,172.689994 20.4079962,171.658004 21.176,170.782 C21.9440038,169.905996 22.8919944,169.216003 24.02,168.712 C25.1480056,168.207997 26.4439927,167.956 27.908,167.956 C29.3960074,167.956 30.6979944,168.207997 31.814,168.712 C32.9300056,169.216003 33.8719962,169.905996 34.64,170.782 C35.4080038,171.658004 35.9839981,172.689994 36.368,173.878 C36.7520019,175.066006 36.944,176.343993 36.944,177.712 C36.944,179.080007 36.7520019,180.351994 36.368,181.528 C35.9839981,182.704006 35.4080038,183.729996 34.64,184.606 C33.8719962,185.482004 32.9300056,186.165998 31.814,186.658 C30.6979944,187.150002 29.3960074,187.396 27.908,187.396 C26.4439927,187.396 25.1480056,187.150002 24.02,186.658 C22.8919944,186.165998 21.9440038,185.482004 21.176,184.606 C20.4079962,183.729996 19.8320019,182.704006 19.448,181.528 C19.0639981,180.351994 18.872,179.080007 18.872,177.712 Z M39.284,161.296 L42.344,161.296 L42.344,187 L39.284,187 L39.284,161.296 Z M61.064,187 L58.184,187 L58.184,184.048 L58.112,184.048 C57.4639968,185.200006 56.636005,186.045997 55.628,186.586 C54.619995,187.126003 53.4320068,187.396 52.064,187.396 C50.8399939,187.396 49.8200041,187.234002 49.004,186.91 C48.1879959,186.585998 47.5280025,186.124003 47.024,185.524 C46.5199975,184.923997 46.166001,184.210004 45.962,183.382 C45.757999,182.553996 45.656,181.636005 45.656,180.628 L45.656,168.388 L48.716,168.388 L48.716,180.988 C48.716,182.140006 49.0519966,183.051997 49.724,183.724 C50.3960034,184.396003 51.3199941,184.732 52.496,184.732 C53.4320047,184.732 54.2419966,184.588001 54.926,184.3 C55.6100034,184.011999 56.1799977,183.604003 56.636,183.076 C57.0920023,182.547997 57.4339989,181.930004 57.662,181.222 C57.8900011,180.513996 58.004,179.740004 58.004,178.9 L58.004,168.388 L61.064,168.388 L61.064,187 Z M64.232,168.388 L67.112,168.388 L67.112,171.124 L67.184,171.124 C68.576007,169.011989 70.5799869,167.956 73.196,167.956 C74.3480058,167.956 75.3919953,168.195998 76.328,168.676 C77.2640047,169.156002 77.9239981,169.971994 78.308,171.124 C78.9320031,170.115995 79.7539949,169.336003 80.774,168.784 C81.7940051,168.231997 82.9159939,167.956 84.14,167.956 C85.0760047,167.956 85.9219962,168.057999 86.678,168.262 C87.4340038,168.466001 88.0819973,168.783998 88.622,169.216 C89.1620027,169.648002 89.5819985,170.205997 89.882,170.89 C90.1820015,171.574003 90.332,172.395995 90.332,173.356 L90.332,187 L87.272,187 L87.272,174.796 C87.272,174.219997 87.2240005,173.680003 87.128,173.176 C87.0319995,172.671997 86.8520013,172.234002 86.588,171.862 C86.3239987,171.489998 85.9580023,171.196001 85.49,170.98 C85.0219977,170.763999 84.4160037,170.656 83.672,170.656 C82.1599924,170.656 80.9720043,171.087996 80.108,171.952 C79.2439957,172.816004 78.812,173.967993 78.812,175.408 L78.812,187 L75.752,187 L75.752,174.796 C75.752,174.195997 75.6980005,173.644003 75.59,173.14 C75.4819995,172.635997 75.2960013,172.198002 75.032,171.826 C74.7679987,171.453998 74.4140022,171.166001 73.97,170.962 C73.5259978,170.757999 72.9560035,170.656 72.26,170.656 C71.3719956,170.656 70.6100032,170.835998 69.974,171.196 C69.3379968,171.556002 68.822002,171.987997 68.426,172.492 C68.029998,172.996003 67.7420009,173.517997 67.562,174.058 C67.3819991,174.598003 67.292,175.047998 67.292,175.408 L67.292,187 L64.232,187 L64.232,168.388 Z M106.424,175.912 C106.376,175.191996 106.214001,174.508003 105.938,173.86 C105.661999,173.211997 105.290002,172.654002 104.822,172.186 C104.353998,171.717998 103.802003,171.346001 103.166,171.07 C102.529997,170.793999 101.828004,170.656 101.06,170.656 C100.267996,170.656 99.5540032,170.793999 98.918,171.07 C98.2819968,171.346001 97.7360023,171.723998 97.28,172.204 C96.8239977,172.684002 96.4640013,173.241997 96.2,173.878 C95.9359987,174.514003 95.7800002,175.191996 95.732,175.912 L106.424,175.912 Z M109.376,181.096 C108.967998,183.18401 108.068007,184.755995 106.676,185.812 C105.283993,186.868005 103.532011,187.396 101.42,187.396 C99.9319926,187.396 98.6420055,187.156002 97.55,186.676 C96.4579945,186.195998 95.5400037,185.524004 94.796,184.66 C94.0519963,183.795996 93.4940019,182.764006 93.122,181.564 C92.7499981,180.363994 92.5400002,179.056007 92.492,177.64 C92.492,176.223993 92.7079978,174.928006 93.14,173.752 C93.5720022,172.575994 94.1779961,171.556004 94.958,170.692 C95.7380039,169.827996 96.6619947,169.156002 97.73,168.676 C98.7980053,168.195998 99.9679936,167.956 101.24,167.956 C102.896008,167.956 104.269995,168.297997 105.362,168.982 C106.454005,169.666003 107.329997,170.535995 107.99,171.592 C108.650003,172.648005 109.105999,173.799994 109.358,175.048 C109.610001,176.296006 109.712,177.483994 109.664,178.612 L95.732,178.612 C95.7079999,179.428004 95.8039989,180.201996 96.02,180.934 C96.2360011,181.666004 96.5839976,182.313997 97.064,182.878 C97.5440024,183.442003 98.1559963,183.891998 98.9,184.228 C99.6440037,184.564002 100.519995,184.732 101.528,184.732 C102.824006,184.732 103.885996,184.432003 104.714,183.832 C105.542004,183.231997 106.087999,182.320006 106.352,181.096 L109.376,181.096 Z M130.472,187 L127.412,187 L127.412,168.712 L120.788,168.712 L120.788,166.264 C121.652004,166.264 122.491996,166.198001 123.308,166.066 C124.124004,165.933999 124.861997,165.688002 125.522,165.328 C126.182003,164.967998 126.739998,164.476003 127.196,163.852 C127.652002,163.227997 127.963999,162.436005 128.132,161.476 L130.472,161.476 L130.472,187 Z" id="Volume-1" fill="#002469"></path>
        <path d="M46.328,18.712 C46.328,22.0000164 45.4520088,24.4659918 43.7,26.11 C41.9479912,27.7540082 39.4520162,28.576 36.212,28.576 C32.8999834,28.576 30.3140093,27.7900079 28.454,26.218 C26.5939907,24.6459921 25.664,22.1440172 25.664,18.712 L25.664,2.296 L29.084,2.296 L29.084,18.712 C29.084,21.0160115 29.6959939,22.7619941 30.92,23.95 C32.1440061,25.1380059 33.9079885,25.732 36.212,25.732 C38.3960109,25.732 40.0579943,25.1380059 41.198,23.95 C42.3380057,22.7619941 42.908,21.0160115 42.908,18.712 L42.908,2.296 L46.328,2.296 L46.328,18.712 Z M49.856,9.388 L52.736,9.388 L52.736,12.34 L52.808,12.34 C54.0800064,10.0839887 56.0959862,8.956 58.856,8.956 C60.0800061,8.956 61.0999959,9.12399832 61.916,9.46 C62.7320041,9.79600168 63.3919975,10.263997 63.896,10.864 C64.4000025,11.464003 64.753999,12.1779959 64.958,13.006 C65.162001,13.8340041 65.264,14.751995 65.264,15.76 L65.264,28 L62.204,28 L62.204,15.4 C62.204,14.2479942 61.8680034,13.3360034 61.196,12.664 C60.5239966,11.9919966 59.6000059,11.656 58.424,11.656 C57.4879953,11.656 56.6780034,11.7999986 55.994,12.088 C55.3099966,12.3760014 54.7400023,12.7839974 54.284,13.312 C53.8279977,13.8400026 53.4860011,14.4579965 53.258,15.166 C53.0299989,15.8740035 52.916,16.6479958 52.916,17.488 L52.916,28 L49.856,28 L49.856,9.388 Z M71.672,6.04 L68.612,6.04 L68.612,2.296 L71.672,2.296 L71.672,6.04 Z M68.612,9.388 L71.672,9.388 L71.672,28 L68.612,28 L68.612,9.388 Z M83.372,28 L80.096,28 L73.184,9.388 L76.604,9.388 L81.824,24.904 L81.896,24.904 L86.972,9.388 L90.176,9.388 L83.372,28 Z M104.468,16.912 C104.42,16.1919964 104.258001,15.5080032 103.982,14.86 C103.705999,14.2119968 103.334002,13.6540023 102.866,13.186 C102.397998,12.7179977 101.846003,12.3460014 101.21,12.07 C100.573997,11.7939986 99.8720038,11.656 99.104,11.656 C98.311996,11.656 97.5980032,11.7939986 96.962,12.07 C96.3259968,12.3460014 95.7800023,12.7239976 95.324,13.204 C94.8679977,13.6840024 94.5080013,14.2419968 94.244,14.878 C93.9799987,15.5140032 93.8240002,16.1919964 93.776,16.912 L104.468,16.912 Z M107.42,22.096 C107.011998,24.1840104 106.112007,25.7559947 104.72,26.812 C103.327993,27.8680053 101.576011,28.396 99.464,28.396 C97.9759926,28.396 96.6860055,28.1560024 95.594,27.676 C94.5019945,27.1959976 93.5840037,26.5240043 92.84,25.66 C92.0959963,24.7959957 91.5380019,23.764006 91.166,22.564 C90.7939981,21.363994 90.5840002,20.0560071 90.536,18.64 C90.536,17.2239929 90.7519978,15.9280059 91.184,14.752 C91.6160022,13.5759941 92.2219961,12.5560043 93.002,11.692 C93.7820039,10.8279957 94.7059947,10.1560024 95.774,9.676 C96.8420053,9.1959976 98.0119936,8.956 99.284,8.956 C100.940008,8.956 102.313995,9.29799658 103.406,9.982 C104.498005,10.6660034 105.373997,11.5359947 106.034,12.592 C106.694003,13.6480053 107.149999,14.7999938 107.402,16.048 C107.654001,17.2960062 107.756,18.4839944 107.708,19.612 L93.776,19.612 C93.7519999,20.4280041 93.8479989,21.2019963 94.064,21.934 C94.2800011,22.6660037 94.6279976,23.3139972 95.108,23.878 C95.5880024,24.4420028 96.1999963,24.8919983 96.944,25.228 C97.6880037,25.5640017 98.563995,25.732 99.572,25.732 C100.868006,25.732 101.929996,25.432003 102.758,24.832 C103.586004,24.231997 104.131999,23.3200061 104.396,22.096 L107.42,22.096 Z M109.328,9.388 L112.208,9.388 L112.208,13.312 L112.28,13.312 C113.024004,11.7999924 113.935995,10.6840036 115.016,9.964 C116.096005,9.2439964 117.463992,8.90799976 119.12,8.956 L119.12,12.196 C117.895994,12.196 116.852004,12.3639983 115.988,12.7 C115.123996,13.0360017 114.428003,13.5279968 113.9,14.176 C113.371997,14.8240032 112.988001,15.6099954 112.748,16.534 C112.507999,17.4580046 112.388,18.519994 112.388,19.72 L112.388,28 L109.328,28 L109.328,9.388 Z M121.856,22.132 C121.88,22.8040034 122.035999,23.3739977 122.324,23.842 C122.612001,24.3100023 122.989998,24.6819986 123.458,24.958 C123.926002,25.2340014 124.453997,25.4319994 125.042,25.552 C125.630003,25.6720006 126.235997,25.732 126.86,25.732 C127.340002,25.732 127.843997,25.6960004 128.372,25.624 C128.900003,25.5519996 129.385998,25.420001 129.83,25.228 C130.274002,25.035999 130.639999,24.7540019 130.928,24.382 C131.216001,24.0099981 131.36,23.5360029 131.36,22.96 C131.36,22.167996 131.060003,21.568002 130.46,21.16 C129.859997,20.751998 129.110005,20.4220013 128.21,20.17 C127.309995,19.9179987 126.332005,19.690001 125.276,19.486 C124.219995,19.281999 123.242004,18.9940019 122.342,18.622 C121.441995,18.2499981 120.692003,17.7280034 120.092,17.056 C119.491997,16.3839966 119.192,15.448006 119.192,14.248 C119.192,13.3119953 119.401998,12.5080034 119.822,11.836 C120.242002,11.1639966 120.781997,10.6180021 121.442,10.198 C122.102003,9.7779979 122.845996,9.46600102 123.674,9.262 C124.502004,9.05799898 125.323996,8.956 126.14,8.956 C127.196005,8.956 128.167996,9.0459991 129.056,9.226 C129.944004,9.4060009 130.729997,9.71799778 131.414,10.162 C132.098003,10.6060022 132.643998,11.2059962 133.052,11.962 C133.460002,12.7180038 133.7,13.6599944 133.772,14.788 L130.712,14.788 C130.664,14.187997 130.508001,13.690002 130.244,13.294 C129.979999,12.897998 129.644002,12.5800012 129.236,12.34 C128.827998,12.0999988 128.378002,11.9260005 127.886,11.818 C127.393998,11.7099995 126.896003,11.656 126.392,11.656 C125.935998,11.656 125.474002,11.6919996 125.006,11.764 C124.537998,11.8360004 124.112002,11.9619991 123.728,12.142 C123.343998,12.3220009 123.032001,12.5619985 122.792,12.862 C122.551999,13.1620015 122.432,13.5519976 122.432,14.032 C122.432,14.5600026 122.617998,14.9979983 122.99,15.346 C123.362002,15.6940017 123.835997,15.9819989 124.412,16.21 C124.988003,16.4380011 125.635996,16.6299992 126.356,16.786 C127.076004,16.9420008 127.795996,17.1039992 128.516,17.272 C129.284004,17.4400008 130.033996,17.6439988 130.766,17.884 C131.498004,18.1240012 132.145997,18.441998 132.71,18.838 C133.274003,19.234002 133.729998,19.731997 134.078,20.332 C134.426002,20.932003 134.6,21.6759956 134.6,22.564 C134.6,23.6920056 134.366002,24.6279963 133.898,25.372 C133.429998,26.1160037 132.818004,26.7159977 132.062,27.172 C131.305996,27.6280023 130.454005,27.9459991 129.506,28.126 C128.557995,28.3060009 127.616005,28.396 126.68,28.396 C125.647995,28.396 124.664005,28.2880011 123.728,28.072 C122.791995,27.8559989 121.964004,27.5020025 121.244,27.01 C120.523996,26.5179975 119.948002,25.870004 119.516,25.066 C119.083998,24.261996 118.844,23.2840058 118.796,22.132 L121.856,22.132 Z M139.784,6.04 L136.724,6.04 L136.724,2.296 L139.784,2.296 L139.784,6.04 Z M136.724,9.388 L139.784,9.388 L139.784,28 L136.724,28 L136.724,9.388 Z M147.344,9.388 L151.052,9.388 L151.052,12.088 L147.344,12.088 L147.344,23.644 C147.344,24.0040018 147.374,24.2919989 147.434,24.508 C147.494,24.7240011 147.607999,24.8919994 147.776,25.012 C147.944001,25.1320006 148.177999,25.2099998 148.478,25.246 C148.778002,25.2820002 149.167998,25.3 149.648,25.3 L151.052,25.3 L151.052,28 L148.712,28 C147.919996,28 147.242003,27.9460005 146.678,27.838 C146.113997,27.7299995 145.658002,27.5320014 145.31,27.244 C144.961998,26.9559986 144.704001,26.5480026 144.536,26.02 C144.367999,25.4919974 144.284,24.7960043 144.284,23.932 L144.284,12.088 L141.116,12.088 L141.116,9.388 L144.284,9.388 L144.284,3.808 L147.344,3.808 L147.344,9.388 Z M160.304,30.484 C159.943998,31.3960046 159.590002,32.1639969 159.242,32.788 C158.893998,33.4120031 158.510002,33.921998 158.09,34.318 C157.669998,34.714002 157.202003,35.0019991 156.686,35.182 C156.169997,35.3620009 155.576003,35.452 154.904,35.452 C154.543998,35.452 154.184002,35.4280002 153.824,35.38 C153.463998,35.3319998 153.116002,35.2480006 152.78,35.128 L152.78,32.32 C153.044001,32.4400006 153.349998,32.5419996 153.698,32.626 C154.046002,32.7100004 154.339999,32.752 154.58,32.752 C155.204003,32.752 155.725998,32.6020015 156.146,32.302 C156.566002,32.0019985 156.883999,31.5760028 157.1,31.024 L158.36,27.892 L150.98,9.388 L154.436,9.388 L159.872,24.616 L159.944,24.616 L165.164,9.388 L168.404,9.388 L160.304,30.484 Z" id="University" fill="#002469"></path>
    </g>
</svg>