<svg width="130px" height="130px" viewBox="0 0 130 130" version="1.1" xmlns="http://www.w3.org/2000/svg" xmlns:xlink="http://www.w3.org/1999/xlink">
    <g stroke="none" stroke-width="1" fill="none" fill-rule="evenodd">
        <path d="M129.033,42.833 C128.980169,43.9503588 128.485247,45.0008649 127.65729,45.7530413 C126.829334,46.5052178 125.736287,46.8973383 124.619,46.843 L26.169,42.173 C23.8437805,42.057591 22.0503158,40.0825435 22.159,37.757 L22.569,29.02 C22.6210323,27.9007522 23.1165589,26.8482802 23.9461049,26.0951027 C24.7756509,25.3419252 25.8709422,24.950031 26.99,25.006 L125.435,29.682 C127.761102,29.794748 129.556637,31.7697023 129.448,34.096 L129.033,42.833" fill="#72A648"></path>
        <path d="M96.677,74.807 C96.6775312,75.4781604 96.411149,76.1219845 95.9365667,76.5965667 C95.4619845,77.071149 94.8181604,77.3375312 94.147,77.337 L14.08,77.337 C12.68,77.337 11.55,76.207 11.55,74.807 L11.55,62.297 C11.55,60.8997196 12.6827196,59.767 14.08,59.767 L94.148,59.767 C95.5452804,59.767 96.678,60.8997196 96.678,62.297 L96.678,74.807" fill="#585A58"></path>
        <path d="M121.304,88.337 C121.346,89.735 120.289,90.902 118.934,90.947 L28.6,93.763 C27.247,93.803 26.115,92.703 26.072,91.308 L25.839,83.874 C25.789,82.479 26.849,81.309 28.209,81.269 L118.539,78.449 C119.889,78.399 121.019,79.499 121.059,80.899 L121.289,88.329" fill="#EECB3F"></path>
        <path d="M109.17,103.445 C109.17,104.841 108.105,105.973 106.79,105.973 L20.565,105.973 C19.249,105.973 18.185,104.841 18.185,103.445 L18.185,98.48 C18.185,97.085 19.249,95.95 20.565,95.95 L106.79,95.95 C108.105,95.95 109.17,97.085 109.17,98.48 L109.17,103.445" fill="#222B4F"></path>
        <path d="M111.387,53.742 C111.387,54.772 109.859,55.609 107.977,55.609 L3.41,55.609 C1.528,55.609 0,54.769 0,53.739 L0,49.689 C0,48.659 1.527,47.819 3.41,47.819 L107.976,47.819 C109.859,47.819 111.386,48.659 111.386,49.689 L111.386,53.739" fill="#E36F4A"></path>
    </g>
</svg>