<?xml version="1.0" encoding="UTF-8" ?>
<!DOCTYPE svg PUBLIC "-//W3C//DTD SVG 1.1//EN" "http://www.w3.org/Graphics/SVG/1.1/DTD/svg11.dtd">
<svg width="100pt" height="92pt" viewBox="0 0 100 92" version="1.1" xmlns="http://www.w3.org/2000/svg">
<path fill="#585a58" d=" M 49.47 0.00 L 50.66 0.00 C 56.17 6.12 62.14 11.83 67.94 17.67 C 67.96 14.74 67.97 11.80 67.99 8.87 C 71.95 8.86 75.91 8.86 79.88 8.88 C 79.91 15.82 79.83 22.76 79.92 29.71 C 86.63 36.52 93.31 43.36 99.97 50.21 C 96.52 50.23 93.08 50.23 89.63 50.25 C 76.37 37.53 63.23 24.68 50.00 11.93 C 36.74 24.68 23.60 37.56 10.29 50.25 C 6.87 50.24 3.45 50.28 0.03 50.30 C 14.68 35.53 29.40 20.81 44.07 6.05 C 45.95 4.11 48.13 2.40 49.47 0.00 Z" />
<path fill="#585a58" d=" M 14.24 53.52 C 26.22 42.17 38.12 30.75 50.08 19.39 C 62.01 30.75 73.89 42.16 85.83 53.50 C 85.85 66.33 85.82 79.17 85.75 92.00 L 61.92 92.00 C 61.91 80.11 61.93 68.23 61.90 56.34 C 53.95 56.34 46.00 56.35 38.05 56.34 C 38.01 68.22 38.02 80.11 38.01 92.00 L 14.14 92.00 C 14.16 79.17 14.16 66.34 14.24 53.52 Z" />
</svg>
