<svg width="100pt" height="92pt" viewBox="0 0 100 92" xmlns="http://www.w3.org/2000/svg"><path fill="#585a58" d="M49.47 0h1.19c5.51 6.12 11.48 11.83 17.28 17.67.02-2.93.03-5.87.05-8.8 3.96-.01 7.92-.01 11.89.01.03 6.94-.05 13.88.04 20.83 6.71 6.81 13.39 13.65 20.05 20.5-3.45.02-6.89.02-10.34.04C76.37 37.53 63.23 24.68 50 11.93 36.74 24.68 23.6 37.56 10.29 50.25c-3.42-.01-6.84.03-10.26.05C14.68 35.53 29.4 20.81 44.07 6.05c1.88-1.94 4.06-3.65 5.4-6.05z"/><path fill="#585a58" d="M14.24 53.52c11.98-11.35 23.88-22.77 35.84-34.13C62.01 30.75 73.89 42.16 85.83 53.5c.02 12.83-.01 25.67-.08 38.5H61.92c-.01-11.89.01-23.77-.02-35.66-7.95 0-15.9.01-23.85 0-.04 11.88-.03 23.77-.04 35.66H14.14c.02-12.83.02-25.66.1-38.48z"/></svg>