<?xml version="1.0" encoding="UTF-8" standalone="no"?>
<svg
   xmlns:dc="http://purl.org/dc/elements/1.1/"
   xmlns:cc="http://creativecommons.org/ns#"
   xmlns:rdf="http://www.w3.org/1999/02/22-rdf-syntax-ns#"
   xmlns:svg="http://www.w3.org/2000/svg"
   xmlns="http://www.w3.org/2000/svg"
   viewBox="0 0 353.76001 80.973335"
   height="80.973335"
   width="353.76001"
   xml:space="preserve"
   id="svg2"
   version="1.1"><metadata
     id="metadata8"><rdf:RDF><cc:Work
         rdf:about=""><dc:format>image/svg+xml</dc:format><dc:type
           rdf:resource="http://purl.org/dc/dcmitype/StillImage" /></cc:Work></rdf:RDF></metadata><defs
     id="defs6" /><g
     transform="matrix(1.3333333,0,0,-1.3333333,0,80.973333)"
     id="g10"><g
       transform="scale(0.1)"
       id="g12"><path
         id="path14"
         style="fill:#585a58;fill-opacity:1;fill-rule:nonzero;stroke:none"
         d="m 1199.92,215.98 c 38.49,0 62.33,28.946 62.33,64.375 0,35.411 -23.84,64.368 -62.33,64.368 -38.48,0 -62.32,-28.957 -62.32,-64.368 0,-35.429 23.84,-64.375 62.32,-64.375 z m 0,147.122 c 48.37,0 82.76,-34.739 82.76,-82.747 0,-48.035 -34.39,-82.773 -82.76,-82.773 -48.36,0 -82.76,34.738 -82.76,82.773 0,48.008 34.4,82.747 82.76,82.747" /><path
         id="path16"
         style="fill:#585a58;fill-opacity:1;fill-rule:nonzero;stroke:none"
         d="m 1408.02,215.98 c 38.48,0 62.32,28.946 62.32,64.375 0,35.411 -23.84,64.368 -62.32,64.368 -37.13,0 -65.73,-28.957 -65.73,-64.368 0,-35.429 28.6,-64.375 65.73,-64.375 z m -84.13,143.028 h 20.44 V 331.43 h 0.68 c 12.6,21.797 39.51,31.672 63.01,31.672 48.35,0 82.75,-34.739 82.75,-82.747 0,-48.035 -34.4,-82.773 -82.75,-82.773 -23.5,0 -50.41,9.883 -63.01,31.68 h -0.68 V 124.02 h -20.44 v 234.988" /><path
         id="path18"
         style="fill:#585a58;fill-opacity:1;fill-rule:nonzero;stroke:none"
         d="m 1659.7,293.629 c 0,27.937 -24.18,51.094 -54.48,51.094 -44.62,0 -57.23,-42.922 -57.23,-51.094 z m 15.67,-62.336 c -16.01,-23.828 -40.19,-33.711 -68.12,-33.711 -48.01,0 -79.69,34.395 -79.69,83.106 0,47.003 32.7,82.414 78.67,82.414 48.36,0 73.91,-37.122 73.91,-73.567 v -14.297 h -132.15 c 0,-17.031 11.93,-59.258 59.6,-59.258 20.77,0 42.57,10.899 52.79,27.93 l 14.99,-12.617" /><path
         id="path20"
         style="fill:#585a58;fill-opacity:1;fill-rule:nonzero;stroke:none"
         d="m 1725.79,314.742 c 0,11.59 -1.72,36.102 -1.72,44.266 h 20.44 c 0.34,-11.563 0.68,-24.512 1.35,-27.578 h 1.03 c 8.17,17.375 28.27,31.672 53.82,31.672 49.04,0 59.93,-33.372 59.93,-67.774 v -93.652 h -20.43 v 92.625 c 0,25.547 -7.16,50.422 -39.5,50.422 -30.32,0 -54.5,-21.125 -54.5,-64.368 v -78.679 h -20.42 v 113.066" /><path
         id="path22"
         style="fill:#585a58;fill-opacity:1;fill-rule:nonzero;stroke:none"
         d="m 1998.25,319.848 c -7.84,10.898 -18.05,16.691 -32.02,16.691 -10.89,0 -23.84,-5.109 -23.84,-17.375 0,-29.277 88.21,-5.449 88.21,-69.129 0,-38.828 -37.12,-52.453 -70.5,-52.453 -25.2,0 -47,6.477 -63.68,25.207 l 27.24,25.535 c 10.56,-11.562 21.46,-20.086 38.82,-20.086 11.93,0 27.25,5.789 27.25,18.731 0,33.719 -88.2,7.148 -88.2,69.48 0,36.446 32.69,52.793 65.72,52.793 21.8,0 44.96,-6.824 58.24,-24.863 l -27.24,-24.531" /><path
         id="path24"
         style="fill:#585a58;fill-opacity:1;fill-rule:nonzero;stroke:none"
         d="m 2043.2,330.414 v 34.746 h 33.72 v 47.324 h 40.87 V 365.16 h 44.95 v -34.746 h -44.95 v -71.523 c 0,-16.348 4.77,-26.571 22.82,-26.571 7.15,0 17.03,1.356 22.13,5.118 v -34.407 c -8.51,-4.082 -22.81,-5.449 -32.36,-5.449 -43.25,0 -53.46,19.414 -53.46,57.891 v 74.941 h -33.72" /><path
         id="path26"
         style="fill:#585a58;fill-opacity:1;fill-rule:nonzero;stroke:none"
         d="m 2294.54,274.887 h -8.52 c -22.47,0 -61.29,-1.699 -61.29,-25.196 0,-14.98 15.32,-21.453 28.61,-21.453 27.91,0 41.2,14.649 41.2,37.469 z m 2.4,-50.742 h -1.04 c -11.58,-18.387 -30.64,-26.563 -52.44,-26.563 -30.31,0 -59.61,16.699 -59.61,49.043 0,53.125 61.99,56.887 102.86,56.887 h 10.23 v 4.422 c 0,20.097 -15.69,30.644 -37.47,30.644 -17.03,0 -32.7,-6.805 -43.6,-17.012 l -21.45,21.438 c 18.04,18.387 43.59,26.238 69.47,26.238 69.82,0 69.82,-50.41 69.82,-73.574 v -93.992 h -36.77 v 22.469" /><path
         id="path28"
         style="fill:#585a58;fill-opacity:1;fill-rule:nonzero;stroke:none"
         d="m 2419.88,289.535 -56.54,75.625 h 49.72 l 32.7,-49.062 35.42,49.062 h 46.66 l -55.85,-75.625 65.73,-87.859 h -49.73 l -42.58,58.582 -42.91,-58.582 h -48.36 l 65.74,87.859" /><path
         id="path30"
         style="fill:#72a648;fill-opacity:1;fill-rule:nonzero;stroke:none"
         d="m 967.75,473.555 c -0.832,-17.45 -15.645,-30.938 -33.105,-30.082 l -738.336,35.035 c -17.442,0.867 -30.899,15.672 -30.082,33.117 l 3.128,65.527 c 0.805,17.45 15.625,30.926 33.075,30.106 l 738.336,-35.07 c 17.441,-0.844 30.918,-15.661 30.097,-33.106 l -3.113,-65.527" /><path
         id="path32"
         style="fill:#585a58;fill-opacity:1;fill-rule:nonzero;stroke:none"
         d="m 725.074,233.75 c 0,-10.512 -8.496,-18.984 -18.965,-18.984 H 105.602 c -10.4965,0 -18.977,8.472 -18.977,18.984 v 93.816 c 0,10.493 8.4805,18.989 18.977,18.989 h 600.507 c 10.469,0 18.965,-8.496 18.965,-18.989 V 233.75" /><path
         id="path34"
         style="fill:#eecb3f;fill-opacity:1;fill-rule:nonzero;stroke:none"
         d="m 909.781,132.27 c 0.313,-10.485 -7.617,-19.235 -17.785,-19.567 L 214.512,91.5703 c -10.141,-0.293 -18.637,7.9531 -18.957,18.4097 l -1.75,55.747 c -0.328,10.464 7.625,19.238 17.785,19.543 l 677.496,21.128 c 10.148,0.325 18.625,-7.921 18.957,-18.378 l 1.738,-55.75" /><path
         id="path36"
         style="fill:#222b4f;fill-opacity:1;fill-rule:nonzero;stroke:none"
         d="M 818.766,18.9648 C 818.766,8.49609 810.785,0 800.922,0 H 154.234 c -9.863,0 -17.843,8.49609 -17.843,18.9648 v 37.2344 c 0,10.461 7.98,18.9688 17.843,18.9688 h 646.688 c 9.863,0 17.844,-8.5078 17.844,-18.9688 V 18.9648" /><path
         id="path38"
         style="fill:#e36f4a;fill-opacity:1;fill-rule:nonzero;stroke:none"
         d="m 835.406,391.738 c 0,-7.73 -11.465,-14.008 -25.586,-14.008 H 25.582 C 11.4492,377.73 0,384.008 0,391.738 v 30.356 c 0,7.742 11.4492,14.019 25.582,14.019 H 809.82 c 14.121,0 25.586,-6.277 25.586,-14.019 v -30.356" /><path
         id="path40"
         style="fill:#585a58;fill-opacity:1;fill-rule:nonzero;stroke:none"
         d="m 2602.56,365.16 h 11.76 l 13.75,-35.027 13.77,35.027 h 11.41 v -46.101 h -7.39 v 38.718 h -0.21 l -15.22,-38.718 h -5.05 l -15.21,38.718 h -0.22 v -38.718 h -7.39 z m -31.21,-7.383 h -14.55 v 7.383 h 36.49 v -7.383 h -14.55 v -38.718 h -7.39 v 38.718" /></g></g></svg>