<svg xmlns="http://www.w3.org/2000/svg" viewBox="0 0 1253 273.8"><style>.st0{fill:#fff}</style><path class="st0" d="M12.7 227c-.2.7-.8 1.1-1.5 1.1h-.4c-3.2-.8-6.5-1.6-9.7-2.5-.8-.2-1.3-1-1.1-1.8.2-.8 1-1.3 1.8-1.1 3.2.9 6.5 1.7 9.7 2.4.9.2 1.3 1 1.2 1.9zm346.6-60.7l-.6.3c-5.6 3.4-11.2 6.7-16.8 9.8-.7.4-1 1.3-.6 2 .3.5.8.8 1.3.8.2 0 .5-.1.7-.2 5.6-3.2 11.3-6.5 16.9-9.9l.6-.3c.7-.4.9-1.4.5-2.1-.4-.6-1.3-.8-2-.4zm-16.7-54c.2 0 .4 0 .5-.1.8-.3 1.2-1.2.9-1.9-2.4-6.3-4.3-12.8-5.5-19.1-.2-.8-.9-1.3-1.8-1.2-.8.2-1.3.9-1.2 1.8 1.3 6.5 3.2 13.1 5.7 19.6.2.5.8.9 1.4.9zm-6.1-40.9V71c0-6.6.7-13.1 1.9-19.4.2-.8-.4-1.6-1.2-1.8-.8-.2-1.6.4-1.8 1.2-1.3 6.5-2 13.2-2 20v.4c0 .8.7 1.5 1.5 1.5.9 0 1.6-.7 1.6-1.5zM324.2 186c-6 3.1-12.1 6-18.1 8.9-.8.3-1.1 1.2-.7 2 .3.5.8.9 1.4.9.2 0 .4 0 .6-.1 6.1-2.8 12.2-5.8 18.2-8.9.7-.4 1-1.3.6-2-.4-.9-1.3-1.2-2-.8zm69.5-40.8c-6.1 3.9-12.4 7.7-17.1 10.6-.7.4-.9 1.4-.5 2.1.3.5.8.7 1.3.7.3 0 .5-.1.8-.2 4.8-2.9 11.1-6.8 17.2-10.7.7-.4.9-1.4.5-2.1-.6-.6-1.5-.8-2.2-.4zM287.6 203c-6.2 2.6-12.5 5.1-18.7 7.4-.8.3-1.2 1.1-.9 1.9.2.6.8 1 1.4 1 .2 0 .3 0 .5-.1 6.3-2.3 12.6-4.8 18.9-7.4.8-.3 1.1-1.2.8-2-.3-.8-1.2-1.1-2-.8zm64.9-74.7c-.4-.7-1.3-1-2-.6s-1 1.3-.6 2c3.3 5.7 7 11.5 11.2 17 .3.4.7.6 1.2.6.3 0 .6-.1.9-.3.7-.5.8-1.4.3-2.1-4.1-5.3-7.8-11-11-16.6zm70.5 69.8c-5.8-3.7-11.3-7.5-16.6-11.3-.7-.5-1.6-.4-2.1.3s-.4 1.6.3 2.1c5.3 3.9 10.9 7.8 16.7 11.5.2.2.5.2.8.2.5 0 1-.2 1.3-.7.5-.8.3-1.7-.4-2.1zm-46.6-37.8c-.6-.6-1.5-.6-2.1-.1-.6.6-.6 1.5-.1 2.1 4.5 4.8 9.4 9.5 14.7 14.1.3.2.6.4 1 .4s.8-.2 1.1-.5c.5-.6.5-1.6-.1-2.1-5.2-4.5-10.1-9.2-14.5-13.9zM374.7 8.2c6-2.5 12.4-4.2 19.1-5 .8-.1 1.4-.9 1.3-1.7s-.9-1.4-1.7-1.3c-6.9.9-13.6 2.7-19.9 5.2-.8.3-1.1 1.2-.8 2 .2.6.8.9 1.4.9.2 0 .4 0 .6-.1zM131.3 237.6c-6.7.2-13.5.3-20.1.2-.8 0-1.5.7-1.5 1.5s.7 1.5 1.5 1.5h5.8c4.8 0 9.7-.1 14.5-.2.8 0 1.5-.7 1.4-1.5-.1-.8-.8-1.5-1.6-1.5zM343.1 33.8c.2.1.5.2.8.2.5 0 1-.3 1.3-.7 3.3-5.6 7.5-10.7 12.6-14.9.6-.5.7-1.5.2-2.1-.5-.6-1.5-.7-2.1-.2-5.4 4.5-9.9 9.8-13.3 15.7-.4.6-.2 1.6.5 2zm98.2 76c.4 0 .8-.2 1.1-.5 4.6-5.4 8.5-11 11.8-16.7.4-.7.1-1.6-.6-2-.7-.4-1.6-.2-2 .6-3.1 5.6-7 11-11.4 16.3-.5.6-.5 1.6.2 2.1.2.1.5.2.9.2zm18.8-75.6c.2.6.8 1 1.4 1 .2 0 .4 0 .5-.1.8-.3 1.2-1.2.9-1.9-2.5-6.4-6.4-12.2-11.6-17.1-.6-.6-1.6-.5-2.1.1-.6.6-.5 1.6.1 2.1 4.8 4.5 8.5 9.9 10.8 15.9zM249.9 216.9c-6.4 2-12.9 4-19.3 5.7-.8.2-1.3 1-1.1 1.8.2.7.8 1.1 1.4 1.1.1 0 .3 0 .4-.1 6.5-1.8 13-3.7 19.4-5.7.8-.3 1.2-1.1 1-1.9s-1-1.1-1.8-.9zM51 232.9c-6.6-1-13.2-2.2-19.8-3.4-.8-.2-1.6.4-1.8 1.2-.2.8.4 1.6 1.2 1.8 6.6 1.3 13.3 2.5 20 3.5h.2c.7 0 1.4-.5 1.5-1.3.1-.9-.4-1.7-1.3-1.8zm120.4 1.5c-6.6.8-13.4 1.5-20 2.1-.8.1-1.4.8-1.4 1.6.1.8.7 1.4 1.5 1.4h.1c6.7-.5 13.5-1.2 20.2-2.1.8-.1 1.4-.9 1.3-1.7s-.9-1.4-1.7-1.3zm39.6-6.9c-6.5 1.5-13.2 2.8-19.7 3.9-.8.1-1.4.9-1.2 1.7.1.7.8 1.2 1.5 1.2h.3c6.6-1.2 13.3-2.5 19.9-4 .8-.2 1.3-1 1.1-1.8-.3-.7-1-1.2-1.9-1zm-119.9 9.6c-6.6-.4-13.4-1-20.1-1.7-.8-.1-1.6.5-1.6 1.3-.1.8.5 1.6 1.3 1.6 6.7.7 13.5 1.3 20.2 1.7h.1c.8 0 1.4-.6 1.5-1.4 0-.7-.6-1.4-1.4-1.5zm335-115.6c-4.7 4.1-9.8 8.2-15.7 12.4-.7.5-.8 1.4-.3 2.1.3.4.8.6 1.2.6.3 0 .6-.1.9-.3 6-4.3 11.2-8.4 15.9-12.6.6-.5.7-1.5.1-2.1-.5-.6-1.5-.6-2.1-.1zm346.5 144.3c-6.7.9-13.4 1.6-20 2.2-.8.1-1.4.8-1.3 1.6.1.8.7 1.4 1.5 1.4h.1c6.6-.6 13.4-1.4 20.1-2.3.8-.1 1.4-.9 1.3-1.7-.1-.7-.9-1.3-1.7-1.2zM967 214.1c-6.2 2.5-12.6 4.9-18.8 7.2-.8.3-1.2 1.2-.9 1.9.2.6.8 1 1.4 1 .2 0 .3 0 .5-.1 6.3-2.3 12.6-4.8 18.9-7.2.8-.3 1.1-1.2.8-1.9-.2-.8-1.1-1.2-1.9-.9zm-76.2 26.4c-6.5 1.9-13 3.8-19.4 5.5-.8.2-1.3 1-1.1 1.8.2.7.8 1.1 1.4 1.1.1 0 .3 0 .4-.1 6.4-1.7 13-3.6 19.5-5.5.8-.2 1.2-1.1 1-1.9-.2-.7-1-1.2-1.8-.9zM433.8 5.1C427.7 2.5 421 .8 413.9 0c-.8-.1-1.6.5-1.7 1.3-.1.8.5 1.6 1.3 1.7 6.8.8 13.2 2.4 19.1 4.9.2.1.4.1.6.1.6 0 1.1-.3 1.4-.9.4-.8 0-1.7-.8-2zm418 245.9c-6.6 1.6-13.2 3.1-19.7 4.5-.8.2-1.3 1-1.1 1.8.2.7.8 1.2 1.5 1.2h.3c6.5-1.4 13.1-2.9 19.7-4.5.8-.2 1.3-1 1.1-1.8s-1-1.4-1.8-1.2zm77.4-22.9c-6.4 2.2-12.8 4.4-19.1 6.4-.8.3-1.2 1.1-1 1.9.2.6.8 1 1.4 1 .2 0 .3 0 .5-.1 6.4-2 12.8-4.2 19.2-6.4.8-.3 1.2-1.1.9-1.9-.3-.7-1.1-1.1-1.9-.9zm147.6-64.9c-5.9 3.2-11.9 6.3-17.9 9.4-.7.4-1 1.3-.7 2 .3.5.8.8 1.3.8.2 0 .5-.1.7-.2 6-3.1 12-6.2 17.9-9.4.7-.4 1-1.3.6-2s-1.1-1-1.9-.6zm-72.5 35.4c-6.1 2.7-12.4 5.4-18.5 8-.8.3-1.1 1.2-.8 2 .2.6.8.9 1.4.9.2 0 .4 0 .6-.1 6.2-2.6 12.4-5.3 18.6-8 .8-.3 1.1-1.2.8-2-.5-.8-1.4-1.2-2.1-.8zm107.7-55.3c-5.6 3.3-11.5 6.7-17.5 10.1-.7.4-1 1.3-.6 2 .3.5.8.8 1.3.8.2 0 .5-.1.7-.2 6-3.4 11.9-6.8 17.5-10.1.7-.4.9-1.3.5-2.1s-1.2-.9-1.9-.5zm-71.1 38.3c-6 3-12.2 5.9-18.2 8.7-.8.3-1.1 1.2-.7 2 .3.5.8.9 1.4.9.2 0 .4 0 .6-.1 6.1-2.8 12.2-5.7 18.3-8.7.7-.4 1.1-1.3.7-2-.5-.9-1.4-1.2-2.1-.8zm-228.5 77.9c-6.6 1.2-13.3 2.4-19.9 3.4-.8.1-1.4.9-1.2 1.7.1.7.8 1.3 1.5 1.3h.2c6.6-1 13.3-2.2 20-3.5.8-.2 1.3-.9 1.2-1.8-.2-.7-1-1.2-1.8-1.1zm-279-13.6c-6.5-1.9-13-3.9-19.2-6-.8-.3-1.6.2-1.9 1-.3.8.2 1.6 1 1.9 6.3 2.1 12.8 4.1 19.3 6 .1 0 .3.1.4.1.6 0 1.2-.4 1.4-1.1.3-.9-.2-1.7-1-1.9zm199.1 23.8c-6.7.4-13.5.7-20.2.9-.8 0-1.5.7-1.5 1.5s.7 1.5 1.5 1.5c6.7-.2 13.5-.5 20.3-.9.8-.1 1.5-.8 1.4-1.6 0-.9-.7-1.5-1.5-1.4zM464.5 52c-.9 0-1.5.6-1.6 1.4-.1 1.7-.3 3.4-.5 5.2-.7 4.9-1.7 9.7-3.1 14.3-.2.8.2 1.6 1 1.9.1 0 .3.1.4.1.6 0 1.2-.4 1.4-1.1 1.4-4.7 2.5-9.7 3.2-14.7.3-1.8.4-3.7.5-5.4.2-.9-.4-1.6-1.3-1.7zm-6.3 165.5c-6.1-3-12.2-6.1-17.9-9.2-.7-.4-1.6-.1-2 .6-.4.7-.1 1.6.6 2 5.8 3.2 11.8 6.3 18 9.3.2.1.4.1.6.1.6 0 1.1-.3 1.4-.8.4-.8 0-1.7-.7-2zm37 15.7c-6.4-2.4-12.7-4.9-18.7-7.4-.8-.3-1.6 0-2 .8s0 1.6.8 2c6.1 2.6 12.4 5.1 18.8 7.5.2.1.4.1.5.1.6 0 1.2-.4 1.4-1 .4-.8 0-1.7-.8-2zm77.2 22.7c-6.6-1.5-13.2-3.1-19.6-4.8-.8-.2-1.6.3-1.8 1.1-.2.8.3 1.6 1.1 1.8 6.4 1.7 13 3.3 19.7 4.8h.3c.7 0 1.3-.5 1.5-1.2.2-.7-.3-1.5-1.2-1.7zm79.5 13c-6.7-.6-13.4-1.3-20-2.1-.8-.1-1.6.5-1.7 1.3-.1.8.5 1.6 1.3 1.7 6.6.8 13.4 1.6 20.1 2.1h.1c.8 0 1.4-.6 1.5-1.4.1-.8-.5-1.5-1.3-1.6zm40.2 1.9c-6.7-.1-13.5-.2-20.1-.5-.8-.1-1.5.6-1.6 1.4 0 .8.6 1.5 1.4 1.6 6.7.3 13.5.5 20.2.5.8 0 1.5-.7 1.5-1.5.1-.8-.5-1.5-1.4-1.5zm-80.1-6.9c-1.4-.2-2.8-.5-4.2-.7-5.2-.9-10.5-1.9-15.6-3-.8-.2-1.6.4-1.8 1.2-.2.8.4 1.6 1.2 1.8 5.1 1 10.4 2 15.7 3 1.4.3 2.8.5 4.2.7h.3c.7 0 1.4-.5 1.5-1.2 0-.9-.5-1.7-1.3-1.8zm527.7-136.2c-.5-.7-1.4-.9-2.1-.4 0 0-2.9 2-8.3 5.4-.7.4-.9 1.4-.5 2.1.3.5.8.7 1.3.7.3 0 .6-.1.8-.2 5.4-3.4 8.4-5.4 8.4-5.5.7-.4.9-1.4.4-2.1zm113-91.3c0-.1.1-.2.1-.3 0 0 0-.1.1-.1 0-.1.1-.2.1-.3v-1c0-.1-.1-.2-.1-.3 0 0 0-.1-.1-.1 0-.1-.1-.2-.1-.3v-.3c0-.1-.1-.1-.1-.2l-.1-.1-.3-.3s-.1 0-.1-.1c-.1-.1-.2-.1-.3-.2-.1 0-.1 0-.2-.1-.1 0-.2-.1-.2-.1h-1.1c-.1 0-.3 0-.4.1L1127.1 71c-.9.3-1.5 1-1.7 1.9-.2.9.2 1.8.9 2.4l21.6 17.2v25.2c0 1 .6 1.9 1.6 2.3.3.1.6.2.9.2.7 0 1.3-.3 1.8-.8l12.5-13.4 26 20.8c.4.4 1 .5 1.6.5h.4c.7-.1 1.3-.5 1.7-1.1l58.2-89.6v-.1c.1 0 .1 0 .1-.1zm-102.1 52l-17.5-14 95.5-29.7-78 43.7zm12 12.6l-9.8 10.5V92.9l70.6-39.5-60.5 47.4c-.1 0-.2.1-.3.2zm29.1 20.2l-23.2-18.5 71.8-56.2-48.6 74.7z"/></svg>