<?xml version="1.0" encoding="utf-8"?> <!-- Generator: Adobe Illustrator 19.2.1, SVG Export Plug-In . SVG Version: 6.00 Build 0)  --> <svg version="1.1" xmlns="http://www.w3.org/2000/svg" xmlns:xlink="http://www.w3.org/1999/xlink" x="0px" y="0px" 	 viewBox="0 0 1253 273.8" style="enable-background:new 0 0 1253 273.8;" xml:space="preserve"> <style type="text/css">.st0{fill:white;}</style> <path class="st0" d="M12.7,227c-0.2,0.7-0.8,1.1-1.5,1.1c-0.1,0-0.2,0-0.4,0c-3.2-0.8-6.5-1.6-9.7-2.5c-0.8-0.2-1.3-1-1.1-1.8 c0.2-0.8,1-1.3,1.8-1.1c3.2,0.9,6.5,1.7,9.7,2.4C12.4,225.3,12.8,226.1,12.7,227z M359.3,166.3l-0.6,0.3 c-5.6,3.4-11.2,6.7-16.8,9.8c-0.7,0.4-1,1.3-0.6,2c0.3,0.5,0.8,0.8,1.3,0.8c0.2,0,0.5-0.1,0.7-0.2c5.6-3.2,11.3-6.5,16.9-9.9 l0.6-0.3c0.7-0.4,0.9-1.4,0.5-2.1C360.9,166.1,360,165.9,359.3,166.3z M342.6,112.3c0.2,0,0.4,0,0.5-0.1c0.8-0.3,1.2-1.2,0.9-1.9 c-2.4-6.3-4.3-12.8-5.5-19.1c-0.2-0.8-0.9-1.3-1.8-1.2c-0.8,0.2-1.3,0.9-1.2,1.8c1.3,6.5,3.2,13.1,5.7,19.6 C341.4,111.9,342,112.3,342.6,112.3z M336.5,71.4l0-0.4c0-6.6,0.7-13.1,1.9-19.4c0.2-0.8-0.4-1.6-1.2-1.8c-0.8-0.2-1.6,0.4-1.8,1.2 c-1.3,6.5-2,13.2-2,20l0,0.4c0,0.8,0.7,1.5,1.5,1.5c0,0,0,0,0,0C335.8,72.9,336.5,72.2,336.5,71.4z M324.2,186 c-6,3.1-12.1,6-18.1,8.9c-0.8,0.3-1.1,1.2-0.7,2c0.3,0.5,0.8,0.9,1.4,0.9c0.2,0,0.4,0,0.6-0.1c6.1-2.8,12.2-5.8,18.2-8.9 c0.7-0.4,1-1.3,0.6-2C325.8,185.9,324.9,185.6,324.2,186z M393.7,145.2c-6.1,3.9-12.4,7.7-17.1,10.6c-0.7,0.4-0.9,1.4-0.5,2.1 c0.3,0.5,0.8,0.7,1.3,0.7c0.3,0,0.5-0.1,0.8-0.2c4.8-2.9,11.1-6.8,17.2-10.7c0.7-0.4,0.9-1.4,0.5-2.1 C395.3,145,394.4,144.8,393.7,145.2z M287.6,203c-6.2,2.6-12.5,5.1-18.7,7.4c-0.8,0.3-1.2,1.1-0.9,1.9c0.2,0.6,0.8,1,1.4,1 c0.2,0,0.3,0,0.5-0.1c6.3-2.3,12.6-4.8,18.9-7.4c0.8-0.3,1.1-1.2,0.8-2C289.3,203,288.4,202.7,287.6,203z M352.5,128.3 c-0.4-0.7-1.3-1-2-0.6c-0.7,0.4-1,1.3-0.6,2c3.3,5.7,7,11.5,11.2,17c0.3,0.4,0.7,0.6,1.2,0.6c0.3,0,0.6-0.1,0.9-0.3 c0.7-0.5,0.8-1.4,0.3-2.1C359.4,139.6,355.7,133.9,352.5,128.3z M423,198.1c-5.8-3.7-11.3-7.5-16.6-11.3c-0.7-0.5-1.6-0.4-2.1,0.3 c-0.5,0.7-0.4,1.6,0.3,2.1c5.3,3.9,10.9,7.8,16.7,11.5c0.2,0.2,0.5,0.2,0.8,0.2c0.5,0,1-0.2,1.3-0.7 C423.9,199.4,423.7,198.5,423,198.1z M376.4,160.3c-0.6-0.6-1.5-0.6-2.1-0.1c-0.6,0.6-0.6,1.5-0.1,2.1c4.5,4.8,9.4,9.5,14.7,14.1 c0.3,0.2,0.6,0.4,1,0.4c0.4,0,0.8-0.2,1.1-0.5c0.5-0.6,0.5-1.6-0.1-2.1C385.7,169.7,380.8,165,376.4,160.3z M374.7,8.2 c6-2.5,12.4-4.2,19.1-5c0.8-0.1,1.4-0.9,1.3-1.7s-0.9-1.4-1.7-1.3c-6.9,0.9-13.6,2.7-19.9,5.2c-0.8,0.3-1.1,1.2-0.8,2 c0.2,0.6,0.8,0.9,1.4,0.9C374.3,8.3,374.5,8.3,374.7,8.2z M131.3,237.6c-6.7,0.2-13.5,0.3-20.1,0.2c0,0,0,0,0,0 c-0.8,0-1.5,0.7-1.5,1.5c0,0.8,0.7,1.5,1.5,1.5c1.9,0,3.8,0,5.8,0c4.8,0,9.7-0.1,14.5-0.2c0.8,0,1.5-0.7,1.4-1.5 C132.8,238.3,132.1,237.6,131.3,237.6z M343.1,33.8c0.2,0.1,0.5,0.2,0.8,0.2c0.5,0,1-0.3,1.3-0.7c3.3-5.6,7.5-10.7,12.6-14.9 c0.6-0.5,0.7-1.5,0.2-2.1c-0.5-0.6-1.5-0.7-2.1-0.2c-5.4,4.5-9.9,9.8-13.3,15.7C342.2,32.4,342.4,33.4,343.1,33.8z M441.3,109.8 c0.4,0,0.8-0.2,1.1-0.5c4.6-5.4,8.5-11,11.8-16.7c0.4-0.7,0.1-1.6-0.6-2c-0.7-0.4-1.6-0.2-2,0.6c-3.1,5.6-7,11-11.4,16.3 c-0.5,0.6-0.5,1.6,0.2,2.1C440.6,109.7,440.9,109.8,441.3,109.8z M460.1,34.2c0.2,0.6,0.8,1,1.4,1c0.2,0,0.4,0,0.5-0.1 c0.8-0.3,1.2-1.2,0.9-1.9c-2.5-6.4-6.4-12.2-11.6-17.1c-0.6-0.6-1.6-0.5-2.1,0.1c-0.6,0.6-0.5,1.6,0.1,2.1 C454.1,22.8,457.8,28.2,460.1,34.2z M249.9,216.9c-6.4,2-12.9,4-19.3,5.7c-0.8,0.2-1.3,1-1.1,1.8c0.2,0.7,0.8,1.1,1.4,1.1 c0.1,0,0.3,0,0.4-0.1c6.5-1.8,13-3.7,19.4-5.7c0.8-0.3,1.2-1.1,1-1.9S250.7,216.7,249.9,216.9z M51,232.9c-6.6-1-13.2-2.2-19.8-3.4 c-0.8-0.2-1.6,0.4-1.8,1.2c-0.2,0.8,0.4,1.6,1.2,1.8c6.6,1.3,13.3,2.5,20,3.5c0.1,0,0.2,0,0.2,0c0.7,0,1.4-0.5,1.5-1.3 C52.4,233.8,51.9,233,51,232.9z M171.4,234.4c-6.6,0.8-13.4,1.5-20,2.1c-0.8,0.1-1.4,0.8-1.4,1.6c0.1,0.8,0.7,1.4,1.5,1.4 c0,0,0.1,0,0.1,0c6.7-0.5,13.5-1.2,20.2-2.1c0.8-0.1,1.4-0.9,1.3-1.7S172.2,234.3,171.4,234.4z M211,227.5 c-6.5,1.5-13.2,2.8-19.7,3.9c-0.8,0.1-1.4,0.9-1.2,1.7c0.1,0.7,0.8,1.2,1.5,1.2c0.1,0,0.2,0,0.3,0c6.6-1.2,13.3-2.5,19.9-4 c0.8-0.2,1.3-1,1.1-1.8C212.6,227.8,211.9,227.3,211,227.5z M91.1,237.1c-6.6-0.4-13.4-1-20.1-1.7c-0.8-0.1-1.6,0.5-1.6,1.3 c-0.1,0.8,0.5,1.6,1.3,1.6c6.7,0.7,13.5,1.3,20.2,1.7c0,0,0.1,0,0.1,0c0.8,0,1.4-0.6,1.5-1.4C92.5,237.9,91.9,237.2,91.1,237.1z  M426.1,121.5c-4.7,4.1-9.8,8.2-15.7,12.4c-0.7,0.5-0.8,1.4-0.3,2.1c0.3,0.4,0.8,0.6,1.2,0.6c0.3,0,0.6-0.1,0.9-0.3 c6-4.3,11.2-8.4,15.9-12.6c0.6-0.5,0.7-1.5,0.1-2.1C427.7,121,426.7,121,426.1,121.5z M772.6,265.8c-6.7,0.9-13.4,1.6-20,2.2 c-0.8,0.1-1.4,0.8-1.3,1.6c0.1,0.8,0.7,1.4,1.5,1.4c0,0,0.1,0,0.1,0c6.6-0.6,13.4-1.4,20.1-2.3c0.8-0.1,1.4-0.9,1.3-1.7 C774.2,266.3,773.4,265.7,772.6,265.8z M967,214.1c-6.2,2.5-12.6,4.9-18.8,7.2c-0.8,0.3-1.2,1.2-0.9,1.9c0.2,0.6,0.8,1,1.4,1 c0.2,0,0.3,0,0.5-0.1c6.3-2.3,12.6-4.8,18.9-7.2c0.8-0.3,1.1-1.2,0.8-1.9C968.7,214.2,967.8,213.8,967,214.1z M890.8,240.5 c-6.5,1.9-13,3.8-19.4,5.5c-0.8,0.2-1.3,1-1.1,1.8c0.2,0.7,0.8,1.1,1.4,1.1c0.1,0,0.3,0,0.4-0.1c6.4-1.7,13-3.6,19.5-5.5 c0.8-0.2,1.2-1.1,1-1.9C892.4,240.7,891.6,240.2,890.8,240.5z M433.8,5.1C427.7,2.5,421,0.8,413.9,0c-0.8-0.1-1.6,0.5-1.7,1.3 c-0.1,0.8,0.5,1.6,1.3,1.7c6.8,0.8,13.2,2.4,19.1,4.9c0.2,0.1,0.4,0.1,0.6,0.1c0.6,0,1.1-0.3,1.4-0.9C435,6.3,434.6,5.4,433.8,5.1z  M851.8,251c-6.6,1.6-13.2,3.1-19.7,4.5c-0.8,0.2-1.3,1-1.1,1.8c0.2,0.7,0.8,1.2,1.5,1.2c0.1,0,0.2,0,0.3,0 c6.5-1.4,13.1-2.9,19.7-4.5c0.8-0.2,1.3-1,1.1-1.8S852.6,250.8,851.8,251z M929.2,228.1c-6.4,2.2-12.8,4.4-19.1,6.4 c-0.8,0.3-1.2,1.1-1,1.9c0.2,0.6,0.8,1,1.4,1c0.2,0,0.3,0,0.5-0.1c6.4-2,12.8-4.2,19.2-6.4c0.8-0.3,1.2-1.1,0.9-1.9 C930.8,228.3,930,227.9,929.2,228.1z M1076.8,163.2c-5.9,3.2-11.9,6.3-17.9,9.4c-0.7,0.4-1,1.3-0.7,2c0.3,0.5,0.8,0.8,1.3,0.8 c0.2,0,0.5-0.1,0.7-0.2c6-3.1,12-6.2,17.9-9.4c0.7-0.4,1-1.3,0.6-2S1077.6,162.8,1076.8,163.2z M1004.3,198.6 c-6.1,2.7-12.4,5.4-18.5,8c-0.8,0.3-1.1,1.2-0.8,2c0.2,0.6,0.8,0.9,1.4,0.9c0.2,0,0.4,0,0.6-0.1c6.2-2.6,12.4-5.3,18.6-8 c0.8-0.3,1.1-1.2,0.8-2C1005.9,198.6,1005,198.2,1004.3,198.6z M1112,143.3c-5.6,3.3-11.5,6.7-17.5,10.1c-0.7,0.4-1,1.3-0.6,2 c0.3,0.5,0.8,0.8,1.3,0.8c0.2,0,0.5-0.1,0.7-0.2c6-3.4,11.9-6.8,17.5-10.1c0.7-0.4,0.9-1.3,0.5-2.1S1112.7,142.9,1112,143.3z  M1040.9,181.6c-6,3-12.2,5.9-18.2,8.7c-0.8,0.3-1.1,1.2-0.7,2c0.3,0.5,0.8,0.9,1.4,0.9c0.2,0,0.4,0,0.6-0.1 c6.1-2.8,12.2-5.7,18.3-8.7c0.7-0.4,1.1-1.3,0.7-2C1042.5,181.5,1041.6,181.2,1040.9,181.6z M812.4,259.5 c-6.6,1.2-13.3,2.4-19.9,3.4c-0.8,0.1-1.4,0.9-1.2,1.7c0.1,0.7,0.8,1.3,1.5,1.3c0.1,0,0.2,0,0.2,0c6.6-1,13.3-2.2,20-3.5 c0.8-0.2,1.3-0.9,1.2-1.8C814,259.9,813.2,259.4,812.4,259.5z M533.4,245.9c-6.5-1.9-13-3.9-19.2-6c-0.8-0.3-1.6,0.2-1.9,1 c-0.3,0.8,0.2,1.6,1,1.9c6.3,2.1,12.8,4.1,19.3,6c0.1,0,0.3,0.1,0.4,0.1c0.6,0,1.2-0.4,1.4-1.1 C534.7,246.9,534.2,246.1,533.4,245.9z M732.5,269.7c-6.7,0.4-13.5,0.7-20.2,0.9c-0.8,0-1.5,0.7-1.5,1.5c0,0.8,0.7,1.5,1.5,1.5 c0,0,0,0,0,0c6.7-0.2,13.5-0.5,20.3-0.9c0.8-0.1,1.5-0.8,1.4-1.6C734,270.2,733.3,269.6,732.5,269.7z M464.5,52 c-0.9,0-1.5,0.6-1.6,1.4c-0.1,1.7-0.3,3.4-0.5,5.2c-0.7,4.9-1.7,9.7-3.1,14.3c-0.2,0.8,0.2,1.6,1,1.9c0.1,0,0.3,0.1,0.4,0.1 c0.6,0,1.2-0.4,1.4-1.1c1.4-4.7,2.5-9.7,3.2-14.7c0.3-1.8,0.4-3.7,0.5-5.4C466,52.8,465.4,52.1,464.5,52z M458.2,217.5 c-6.1-3-12.2-6.1-17.9-9.2c-0.7-0.4-1.6-0.1-2,0.6c-0.4,0.7-0.1,1.6,0.6,2c5.8,3.2,11.8,6.3,18,9.3c0.2,0.1,0.4,0.1,0.6,0.1 c0.6,0,1.1-0.3,1.4-0.8C459.3,218.7,458.9,217.8,458.2,217.5z M495.2,233.2c-6.4-2.4-12.7-4.9-18.7-7.4c-0.8-0.3-1.6,0-2,0.8 s0,1.6,0.8,2c6.1,2.6,12.4,5.1,18.8,7.5c0.2,0.1,0.4,0.1,0.5,0.1c0.6,0,1.2-0.4,1.4-1C496.4,234.4,496,233.5,495.2,233.2z  M572.4,255.9c-6.6-1.5-13.2-3.1-19.6-4.8c-0.8-0.2-1.6,0.3-1.8,1.1c-0.2,0.8,0.3,1.6,1.1,1.8c6.4,1.7,13,3.3,19.7,4.8 c0.1,0,0.2,0,0.3,0c0.7,0,1.3-0.5,1.5-1.2C573.8,256.9,573.3,256.1,572.4,255.9z M651.9,268.9c-6.7-0.6-13.4-1.3-20-2.1 c-0.8-0.1-1.6,0.5-1.7,1.3c-0.1,0.8,0.5,1.6,1.3,1.7c6.6,0.8,13.4,1.6,20.1,2.1c0,0,0.1,0,0.1,0c0.8,0,1.4-0.6,1.5-1.4 C653.3,269.7,652.7,269,651.9,268.9z M692.1,270.8c-6.7-0.1-13.5-0.2-20.1-0.5c-0.8-0.1-1.5,0.6-1.6,1.4c0,0.8,0.6,1.5,1.4,1.6 c6.7,0.3,13.5,0.5,20.2,0.5c0,0,0,0,0,0c0.8,0,1.5-0.7,1.5-1.5C693.6,271.5,693,270.8,692.1,270.8z M612,263.9 c-1.4-0.2-2.8-0.5-4.2-0.7c-5.2-0.9-10.5-1.9-15.6-3c-0.8-0.2-1.6,0.4-1.8,1.2c-0.2,0.8,0.4,1.6,1.2,1.8c5.1,1,10.4,2,15.7,3 c1.4,0.3,2.8,0.5,4.2,0.7c0.1,0,0.2,0,0.3,0c0.7,0,1.4-0.5,1.5-1.2C613.3,264.8,612.8,264,612,263.9z M1139.7,127.7 c-0.5-0.7-1.4-0.9-2.1-0.4c0,0-2.9,2-8.3,5.4c-0.7,0.4-0.9,1.4-0.5,2.1c0.3,0.5,0.8,0.7,1.3,0.7c0.3,0,0.6-0.1,0.8-0.2 c5.4-3.4,8.4-5.4,8.4-5.5C1140,129.4,1140.2,128.4,1139.7,127.7z M1252.7,36.4c0-0.1,0.1-0.2,0.1-0.3c0,0,0-0.1,0.1-0.1 c0-0.1,0.1-0.2,0.1-0.3c0,0,0-0.1,0-0.1c0-0.1,0-0.2,0-0.3c0,0,0-0.1,0-0.1c0-0.1,0-0.3,0-0.4c0,0,0-0.1,0-0.1 c0-0.1-0.1-0.2-0.1-0.3c0,0,0-0.1-0.1-0.1c0-0.1-0.1-0.2-0.1-0.3c0,0,0-0.1,0-0.1c0,0,0,0,0-0.1c0,0,0,0,0-0.1 c0-0.1-0.1-0.1-0.1-0.2c0,0-0.1-0.1-0.1-0.1c-0.1-0.1-0.2-0.2-0.3-0.3c0,0-0.1,0-0.1-0.1c-0.1-0.1-0.2-0.1-0.3-0.2 c-0.1,0-0.1,0-0.2-0.1c-0.1,0-0.2-0.1-0.2-0.1c-0.1,0-0.1,0-0.2,0c-0.1,0-0.2,0-0.2,0c-0.1,0-0.1,0-0.2,0c-0.1,0-0.2,0-0.3,0 c-0.1,0-0.1,0-0.2,0c-0.1,0-0.3,0-0.4,0.1L1127.1,71c-0.9,0.3-1.5,1-1.7,1.9c-0.2,0.9,0.2,1.8,0.9,2.4l21.6,17.2v25.2 c0,1,0.6,1.9,1.6,2.3c0.3,0.1,0.6,0.2,0.9,0.2c0.7,0,1.3-0.3,1.8-0.8l12.5-13.4l26,20.8c0.4,0.4,1,0.5,1.6,0.5c0.1,0,0.3,0,0.4,0 c0.7-0.1,1.3-0.5,1.7-1.1l58.2-89.6c0,0,0,0,0-0.1C1252.7,36.5,1252.7,36.5,1252.7,36.4z M1150.6,88.4l-17.5-14l95.5-29.7 L1150.6,88.4z M1162.6,101l-9.8,10.5V92.9l70.6-39.5l-60.5,47.4C1162.8,100.8,1162.7,100.9,1162.6,101z M1191.7,121.2l-23.2-18.5 l71.8-56.2L1191.7,121.2z"/> </svg>