<svg xmlns="http://www.w3.org/2000/svg" viewBox="0 0 267.2 78.3"><style>.st0{fill:#fff}.st1{opacity:.2}.st2{opacity:.8;fill:#fff}</style><symbol id="person" viewBox="15 -60.7 200 45.7"><path class="st0" d="M99-39.6c0 .9.2 1.7.5 2.5s.7 1.4 1.3 2c.5.6 1.2 1 2 1.3.8.3 1.6.5 2.5.5.9 0 1.7-.2 2.5-.5s1.4-.7 2-1.3c.6-.6 1-1.2 1.3-2 .3-.8.5-1.6.5-2.5 0-.9-.2-1.7-.5-2.5s-.7-1.4-1.3-2c-.6-.6-1.2-1-2-1.3-.8-.3-1.6-.5-2.5-.5-.9 0-1.8.2-2.5.5-.8.3-1.4.7-2 1.3-.5.6-1 1.2-1.3 2-.4.7-.5 1.6-.5 2.5zm1.5 0c0-.7.1-1.3.3-1.9.2-.6.5-1.1.9-1.5.4-.4.9-.8 1.5-1 .6-.3 1.2-.4 2-.4.7 0 1.4.1 2 .4.6.3 1.1.6 1.5 1 .4.4.7 1 .9 1.5.2.6.3 1.2.3 1.9s-.1 1.3-.3 1.9c-.2.6-.5 1.1-.9 1.5-.4.4-.9.8-1.5 1-.6.3-1.2.4-2 .4-.7 0-1.4-.1-2-.4-.6-.3-1.1-.6-1.5-1-.4-.4-.7-1-.9-1.5-.2-.6-.3-1.3-.3-1.9zm14.1 5.9h1.5v-2.1h.1c.2.4.5.8.9 1.1.4.3.8.5 1.2.7.4.2.9.3 1.3.4.5.1.9.1 1.4.1.9 0 1.7-.2 2.5-.5s1.4-.7 2-1.3c.6-.6 1-1.2 1.3-2 .3-.8.5-1.6.5-2.5 0-.9-.2-1.7-.5-2.5s-.7-1.4-1.3-2c-.6-.6-1.2-1-2-1.3-.8-.3-1.6-.5-2.5-.5-.4 0-.9 0-1.4.1-.5.1-.9.2-1.3.4s-.8.4-1.2.7c-.4.3-.7.7-.9 1.1h-.1v-8h-1.5v18.1zm1.4-5.9c0-.7.1-1.3.4-1.9.3-.6.6-1.1 1.1-1.5.4-.4 1-.8 1.6-1 .6-.3 1.3-.4 2-.4s1.4.1 2 .4c.6.3 1.1.6 1.5 1 .4.4.7 1 .9 1.5.2.6.3 1.2.3 1.9s-.1 1.3-.3 1.9c-.2.6-.5 1.1-.9 1.5-.4.4-.9.8-1.5 1-.6.3-1.2.4-2 .4-.7 0-1.4-.1-2-.4s-1.1-.6-1.6-1c-.4-.4-.8-1-1.1-1.5-.3-.6-.4-1.3-.4-1.9zm25.2-3.7c-.6-.9-1.3-1.6-2.2-2-.9-.4-1.9-.6-2.9-.6-.9 0-1.7.2-2.5.5-.7.3-1.4.7-1.9 1.3-.5.6-.9 1.2-1.2 2-.3.8-.4 1.6-.4 2.5 0 .9.1 1.7.4 2.5.3.8.7 1.4 1.2 2 .5.6 1.2 1 1.9 1.3.7.3 1.5.5 2.4.5.9 0 1.7-.2 2.4-.5s1.3-.7 1.8-1.3c.5-.5.8-1.1 1.1-1.8.2-.7.4-1.3.4-2V-40h-10c0-.3.1-.7.2-1.2s.4-1 .7-1.5c.3-.5.8-.9 1.4-1.2.6-.3 1.3-.5 2.2-.5.8 0 1.6.2 2.3.6.7.4 1.3.9 1.7 1.5l1-1zm-1.2 4.7c0 .5-.1 1-.3 1.5-.2.5-.5.9-.9 1.2-.4.4-.8.6-1.3.8-.5.2-1 .3-1.6.3-.8 0-1.5-.2-2.1-.5-.6-.3-1-.7-1.3-1.2-.3-.4-.6-.9-.7-1.3-.1-.4-.2-.7-.2-.9h8.4zm5 1.6v3.4h1.5v-1.3c0-.4 0-.7.1-.8h.1c.3.7.8 1.2 1.5 1.7s1.6.7 2.5.7c.9 0 1.7-.1 2.3-.4.6-.3 1-.7 1.4-1.1.3-.5.6-1 .7-1.6.1-.6.2-1.3.2-1.9v-7.1h-1.5v7c0 .5 0 .9-.1 1.4-.1.5-.2.9-.5 1.2-.2.4-.5.6-.9.9-.4.2-.9.3-1.5.3s-1.1-.1-1.6-.3c-.5-.2-.9-.5-1.3-.9s-.7-.9-.9-1.5c-.2-.6-.3-1.3-.3-2.2v-5.9H145v8.4zm20.6.4c-.6.8-1.4 1.3-2.4 1.3-.4 0-.8-.1-1.2-.3-.4-.2-.6-.5-.6-1 0-.4.2-.7.5-.8.3-.2.7-.3 1.2-.4.5-.1 1-.2 1.6-.4.6-.1 1.1-.3 1.6-.6s.9-.6 1.2-1.1c.3-.5.5-1.1.5-1.9 0-.7-.2-1.4-.5-1.9s-.7-.9-1.2-1.2c-.5-.3-1.1-.5-1.7-.7-.6-.1-1.3-.2-1.9-.2-1 0-1.8.1-2.7.4-.8.3-1.5.8-2.2 1.5l2.1 1.9c.4-.4.8-.8 1.3-1.1.5-.3 1-.4 1.7-.4.2 0 .5 0 .7.1.2.1.5.1.7.3.2.1.4.3.5.5.1.2.2.4.2.6 0 .4-.2.7-.5 1-.3.2-.7.4-1.2.5-.5.1-1 .2-1.6.4-.6.1-1.1.3-1.6.5s-.9.6-1.2 1c-.3.4-.5 1.1-.5 1.9 0 .7.1 1.3.4 1.8.3.5.7.9 1.1 1.2.5.3 1 .6 1.6.7.6.2 1.2.2 1.8.2.8 0 1.6-.1 2.4-.4.8-.3 1.5-.8 2-1.5l-2.1-1.9zm3.4.8v2.6h2.5v3.6h3.1v-3.6h3.4v-2.6h-3.4v-5.4c0-.6.1-1.1.3-1.5.2-.4.7-.5 1.4-.5.3 0 .6 0 .9.1.3.1.6.2.8.3v-2.6c-.3-.2-.7-.3-1.2-.3-.5-.1-.9-.1-1.2-.1-.8 0-1.5.1-2 .3-.5.2-.9.5-1.2.8-.3.4-.5.8-.6 1.4-.1.5-.2 1.2-.2 1.9v5.7H169zm19.2-8.1c-.5-.7-1.1-1.2-1.8-1.5-.7-.3-1.4-.5-2.3-.5-.6 0-1.1.1-1.7.2-.5.2-1 .4-1.4.7-.4.3-.8.7-1 1.2-.3.5-.4 1-.4 1.6 0 .7.1 1.2.4 1.7.2.5.6.9 1 1.2.4.3.9.6 1.4.8.5.2 1.1.3 1.7.4.6.1 1.2.2 1.7.2h2.4v.3c0 .8-.3 1.4-.8 1.7-.5.4-1.2.6-2 .6-.7 0-1.3-.1-1.8-.3-.6-.2-1.1-.5-1.5-.9l-1.6 1.6c.7.7 1.5 1.2 2.4 1.5.9.3 1.9.5 2.8.5.9 0 1.6-.1 2.2-.3.6-.2 1.1-.5 1.5-.8.4-.3.7-.7.9-1.1.2-.4.4-.8.5-1.2.1-.4.2-.8.2-1.2v-8.1h-2.8v1.7zM188-40h-.6c-.4 0-.9 0-1.4-.1-.5 0-1-.1-1.5-.2s-.9-.3-1.2-.6c-.3-.2-.5-.6-.5-1 0-.3.1-.5.2-.7.1-.2.3-.4.5-.5.2-.1.4-.2.7-.3.3-.1.5-.1.8-.1 1.1 0 1.9.3 2.4.8s.8 1.2.8 2.1v.6zm9.5 1.1l-4.3 5.7h3.8l2.5-3.7 2.7 3.7h3.5l-4.2-5.7 5-6.6h-3.8l-3.2 4.4-3.2-4.4h-3.7l4.9 6.6zm11.4 5.1h-1.1v.6h2.7v-.6h-1.1v-2.9h-.6v2.9zm2.3.6h.9l1-2.6 1 2.6h.9v-3.5h-.6v2.9l-1.1-2.9h-.4l-1.1 2.9v-2.9h-.6v3.5zM87.8-25.1c-.1-1.3-1.2-2.3-2.5-2.3l-55.5 2.6c-1.3.1-2.3 1.2-2.3 2.5l.2 4.9c.1 1.3 1.2 2.3 2.5 2.3l55.5-2.6c1.3-.1 2.3-1.2 2.3-2.5l-.2-4.9zm-18.3-18c0-.8-.6-1.4-1.4-1.4H22.9c-.8 0-1.4.6-1.4 1.4v7.1c0 .8.6 1.4 1.4 1.4h45.2c.8 0 1.4-.6 1.4-1.4v-7.1zm13.9-7.7c0-.8-.6-1.4-1.3-1.5l-51-1.6c-.8 0-1.4.6-1.4 1.4l-.1 4.2c0 .8.6 1.4 1.3 1.5l51 1.6c.8 0 1.4-.6 1.4-1.4l.1-4.2zm-6.8-8.5c0-.8-.6-1.4-1.3-1.4H26.6c-.7 0-1.3.6-1.3 1.4v2.8c0 .8.6 1.4 1.3 1.4h48.6c.7 0 1.3-.6 1.3-1.4v-2.8zm1.2 28.1c0-.6-.9-1.1-1.9-1.1h-59c-1.1 0-1.9.5-1.9 1.1v2.3c0 .6.9 1.1 1.9 1.1h59c1.1 0 1.9-.5 1.9-1.1v-2.3z"/></symbol><g id="people"><g class="st1"><path class="st0" d="M253.1 21.5c-4.2 0-7.5-3.4-7.5-7.5 0-4.2 3.4-7.5 7.5-7.5 4.2 0 7.5 3.4 7.5 7.5 0 4.2-3.4 7.5-7.5 7.5z"/><path class="st0" d="M259.5 22.7h-9.9c-2.2 0-4.6-.4-6.3-1.7l-5.4-4c-1.8-1.3-2.5-3.6-2.5-5.8V2.5c0-1.4-1.1-2.5-2.5-2.5h-2.1c-1.4 0-2.4 1.1-2.5 2.4v12.4c0 2.2 1.4 5.1 3.1 6.5l9.8 8.1c1.7 1.4 3.1 4.3 3.1 6.5V75c0 1.8 1.4 3.2 3.2 3.2h1.4c1.8 0 3.2-1.4 3.2-3.2V50.3h2v24.8c0 1.8 1.4 3.2 3.2 3.2h1.4c1.8 0 3.2-1.4 3.2-3.2V51.7c.2.1.5.1.7.1h2.1c1.4 0 2.5-1.1 2.5-2.5v-18c0-5-3.2-8.6-7.7-8.6z"/></g><path class="st0" d="M253.1 21.5c-4.2 0-7.5-3.4-7.5-7.5 0-4.2 3.4-7.5 7.5-7.5 4.2 0 7.5 3.4 7.5 7.5 0 4.2-3.4 7.5-7.5 7.5zm0-13.3c-3.2 0-5.8 2.6-5.8 5.8s2.6 5.8 5.8 5.8c3.2 0 5.8-2.6 5.8-5.8s-2.6-5.8-5.8-5.8z"/><path class="st0" d="M259.5 22.7h-9.9c-2.2 0-4.6-.4-6.3-1.7l-5.4-4c-1.8-1.3-2.5-3.6-2.5-5.8V2.5c0-1.4-1.1-2.5-2.5-2.5h-2.1c-1.4 0-2.4 1.1-2.5 2.4v12.4c0 2.2 1.4 5.1 3.1 6.5l9.8 8.1c1.7 1.4 3.1 4.3 3.1 6.5V75c0 1.8 1.4 3.2 3.2 3.2h1.4c1.8 0 3.2-1.4 3.2-3.2V50.3h2v24.8c0 1.8 1.4 3.2 3.2 3.2h1.4c1.8 0 3.2-1.4 3.2-3.2V51.7c.2.1.5.1.7.1h2.1c1.4 0 2.5-1.1 2.5-2.5v-18c0-5-3.2-8.6-7.7-8.6zm5.9 26.7c0 .4-.3.7-.7.7h-2.1c-.4 0-.6-.2-.7-.6V32.1h-1.8v43c0 .8-.6 1.4-1.4 1.4h-1.4c-.8 0-1.4-.6-1.4-1.4V48.6h-5.5v26.6c0 .8-.6 1.4-1.4 1.4h-1.4c-.8 0-1.4-.6-1.4-1.4V35.1c0-2.2-1.4-5.1-3.1-6.5l-9.8-8.1c-2.1-1.8-3.1-3.9-3.1-6.5V2.6c0-.4.3-.7.7-.7h2.1c.4 0 .7.3.7.7v9.6c0 2.2.7 4.5 2.5 5.8l6.3 4.8c1.8 1.3 4.1 1.8 6.3 1.8h10.8c3.5 0 6 2.8 6 6.8v18z"/><path class="st2" d="M189.6 21.5c4.2 0 7.5-3.4 7.5-7.5 0-4.2-3.4-7.5-7.5-7.5-4.2 0-7.5 3.4-7.5 7.5 0 4.2 3.4 7.5 7.5 7.5zm0-13.3c3.2 0 5.8 2.6 5.8 5.8s-2.6 5.8-5.8 5.8c-3.2 0-5.8-2.6-5.8-5.8s2.7-5.8 5.8-5.8zm6.4 14.5h-12.7c-4.5 0-7.7 3.5-7.7 8.6v18c0 1.4 1.1 2.5 2.5 2.5h2.1c.3 0 .5 0 .7-.1v23.4c0 1.8 1.4 3.2 3.2 3.2h1.4c1.8 0 3.2-1.4 3.2-3.2V50.3h2v24.8c0 1.8 1.4 3.2 3.2 3.2h1.4c1.8 0 3.2-1.4 3.2-3.2V51.7c.2.1.5.1.7.1h2.1c1.4 0 2.5-1.1 2.5-2.5v-18c-.1-5.1-3.2-8.6-7.8-8.6zm6 26.7c0 .4-.3.7-.7.7h-2.1c-.4 0-.6-.2-.7-.6V32h-1.8v43c0 .8-.6 1.4-1.4 1.4h-1.4c-.8 0-1.4-.6-1.4-1.4V48.6H187v26.6c0 .8-.6 1.4-1.4 1.4h-1.4c-.8 0-1.4-.6-1.4-1.4V32H181v17.3c0 .4-.3.7-.7.7H178c-.4 0-.7-.3-.7-.7v-18c0-3.4 1.8-6.8 5.9-6.8H196c3.5 0 6 2.8 6 6.8v18.1zm-70.9-27.9c4.2 0 7.5-3.4 7.5-7.5 0-4.2-3.4-7.5-7.5-7.5-4.2 0-7.5 3.4-7.5 7.5 0 4.2 3.4 7.5 7.5 7.5zm0-13.3c3.2 0 5.8 2.6 5.8 5.8s-2.6 5.8-5.8 5.8c-3.2 0-5.8-2.6-5.8-5.8s2.6-5.8 5.8-5.8zm6.4 14.5h-12.7c-4.5 0-7.7 3.5-7.7 8.6v18c0 1.4 1.1 2.5 2.5 2.5h2.1c.3 0 .5 0 .7-.1v23.4c0 1.8 1.4 3.2 3.2 3.2h1.4c1.8 0 3.2-1.4 3.2-3.2V50.3h2v24.8c0 1.8 1.4 3.2 3.2 3.2h1.4c1.8 0 3.2-1.4 3.2-3.2V51.7c.2.1.5.1.7.1h2.1c1.4 0 2.5-1.1 2.5-2.5v-18c-.1-5.1-3.3-8.6-7.8-8.6zm5.9 26.7c0 .4-.3.7-.7.7h-2.1c-.4 0-.6-.2-.7-.6V32h-1.8v43c0 .8-.6 1.4-1.4 1.4h-1.4c-.8 0-1.4-.6-1.4-1.4V48.6h-5.5v26.6c0 .8-.6 1.4-1.4 1.4h-1.4c-.8 0-1.4-.6-1.4-1.4V32h-1.8v17.3c0 .4-.3.7-.7.7h-2.1c-.4 0-.7-.3-.7-.7v-18c0-3.4 1.8-6.8 5.9-6.8h12.7c3.5 0 6 2.8 6 6.8v18.1zM72.6 21.5c4.2 0 7.5-3.4 7.5-7.5 0-4.2-3.4-7.5-7.5-7.5-4.2 0-7.5 3.4-7.5 7.5 0 4.2 3.3 7.5 7.5 7.5zm0-13.3c3.2 0 5.8 2.6 5.8 5.8s-2.6 5.8-5.8 5.8c-3.2 0-5.8-2.6-5.8-5.8s2.6-5.8 5.8-5.8zM79 22.7H66.2c-4.5 0-7.7 3.5-7.7 8.6v18c0 1.4 1.1 2.5 2.5 2.5h2.1c.3 0 .5 0 .7-.1v23.4c0 1.8 1.4 3.2 3.2 3.2h1.4c1.8 0 3.2-1.4 3.2-3.2V50.3h2v24.8c0 1.8 1.4 3.2 3.2 3.2h1.4c1.8 0 3.2-1.4 3.2-3.2V51.7c.2.1.5.1.7.1h2.1c1.4 0 2.5-1.1 2.5-2.5v-18c0-5.1-3.2-8.6-7.7-8.6zm5.9 26.7c0 .4-.3.7-.7.7h-2.1c-.4 0-.6-.2-.7-.6V32h-1.8v43c0 .8-.6 1.4-1.4 1.4h-1.4c-.8 0-1.4-.6-1.4-1.4V48.6h-5.5v26.6c0 .8-.6 1.4-1.4 1.4H67c-.8 0-1.4-.6-1.4-1.4V32h-1.8v17.3c0 .4-.3.7-.7.7H61c-.4 0-.7-.3-.7-.7v-18c0-3.4 1.8-6.8 5.9-6.8H79c3.5 0 6 2.8 6 6.8v18.1zM14.1 21.5c4.2 0 7.5-3.4 7.5-7.5 0-4.2-3.4-7.5-7.5-7.5-4.2 0-7.5 3.4-7.5 7.5-.1 4.2 3.3 7.5 7.5 7.5zm0-13.3c3.2 0 5.8 2.6 5.8 5.8s-2.6 5.8-5.8 5.8c-3.2 0-5.8-2.6-5.8-5.8s2.6-5.8 5.8-5.8zm6.3 14.5H7.7c-4.5 0-7.7 3.5-7.7 8.6v18c0 1.4 1.1 2.5 2.5 2.5h2.1c.3 0 .5 0 .7-.1v23.4c0 1.8 1.4 3.2 3.2 3.2h1.4c1.8 0 3.2-1.4 3.2-3.2V50.3h2v24.8c0 1.8 1.4 3.2 3.2 3.2h1.4c1.8 0 3.2-1.4 3.2-3.2V51.7c.2.1.5.1.7.1h2.1c1.4 0 2.5-1.1 2.5-2.5v-18c0-5.1-3.2-8.6-7.8-8.6zm6 26.7c0 .4-.3.7-.7.7h-2.1c-.4 0-.6-.2-.7-.6V32h-1.8v43c0 .8-.6 1.4-1.4 1.4h-1.4c-.8 0-1.4-.6-1.4-1.4V48.6h-5.5v26.6c0 .8-.6 1.4-1.4 1.4H8.5c-.8 0-1.4-.6-1.4-1.4V32H5.3v17.3c0 .4-.3.7-.7.7H2.5c-.4 0-.7-.3-.7-.7v-18c0-3.4 1.8-6.8 5.9-6.8h12.7c3.5 0 6 2.8 6 6.8v18.1z"/></g></svg>