<svg xmlns="http://www.w3.org/2000/svg" xmlns:xlink="http://www.w3.org/1999/xlink" version="1.1" x="0px" y="0px" viewBox="0 0 267.2 78.3" xml:space="preserve" enable-background="new 0 0 267.2 78.3"><style type="text/css">
	.st0{fill:#FFFFFF;}
	.st1{opacity:0.2;}
	.st2{opacity:0.8;fill:#FFFFFF;}
</style><symbol id="person" viewBox="15 -60.7 200 45.7"><path class="st0" d="M99-39.6c0 0.9 0.2 1.7 0.5 2.5 0.3 0.8 0.7 1.4 1.3 2 0.5 0.6 1.2 1 2 1.3 0.8 0.3 1.6 0.5 2.5 0.5 0.9 0 1.7-0.2 2.5-0.5 0.8-0.3 1.4-0.7 2-1.3 0.6-0.6 1-1.2 1.3-2 0.3-0.8 0.5-1.6 0.5-2.5 0-0.9-0.2-1.7-0.5-2.5 -0.3-0.8-0.7-1.4-1.3-2 -0.6-0.6-1.2-1-2-1.3 -0.8-0.3-1.6-0.5-2.5-0.5 -0.9 0-1.8 0.2-2.5 0.5 -0.8 0.3-1.4 0.7-2 1.3 -0.5 0.6-1 1.2-1.3 2C99.1-41.4 99-40.5 99-39.6zM100.5-39.6c0-0.7 0.1-1.3 0.3-1.9 0.2-0.6 0.5-1.1 0.9-1.5 0.4-0.4 0.9-0.8 1.5-1 0.6-0.3 1.2-0.4 2-0.4 0.7 0 1.4 0.1 2 0.4 0.6 0.3 1.1 0.6 1.5 1 0.4 0.4 0.7 1 0.9 1.5 0.2 0.6 0.3 1.2 0.3 1.9 0 0.7-0.1 1.3-0.3 1.9 -0.2 0.6-0.5 1.1-0.9 1.5 -0.4 0.4-0.9 0.8-1.5 1 -0.6 0.3-1.2 0.4-2 0.4 -0.7 0-1.4-0.1-2-0.4 -0.6-0.3-1.1-0.6-1.5-1 -0.4-0.4-0.7-1-0.9-1.5C100.6-38.3 100.5-39 100.5-39.6z"/><path class="st0" d="M114.6-33.7h1.5v-2.1h0.1c0.2 0.4 0.5 0.8 0.9 1.1 0.4 0.3 0.8 0.5 1.2 0.7 0.4 0.2 0.9 0.3 1.3 0.4 0.5 0.1 0.9 0.1 1.4 0.1 0.9 0 1.7-0.2 2.5-0.5 0.8-0.3 1.4-0.7 2-1.3 0.6-0.6 1-1.2 1.3-2 0.3-0.8 0.5-1.6 0.5-2.5 0-0.9-0.2-1.7-0.5-2.5 -0.3-0.8-0.7-1.4-1.3-2 -0.6-0.6-1.2-1-2-1.3 -0.8-0.3-1.6-0.5-2.5-0.5 -0.4 0-0.9 0-1.4 0.1 -0.5 0.1-0.9 0.2-1.3 0.4 -0.4 0.2-0.8 0.4-1.2 0.7 -0.4 0.3-0.7 0.7-0.9 1.1h-0.1v-8h-1.5V-33.7zM116-39.6c0-0.7 0.1-1.3 0.4-1.9 0.3-0.6 0.6-1.1 1.1-1.5 0.4-0.4 1-0.8 1.6-1 0.6-0.3 1.3-0.4 2-0.4 0.7 0 1.4 0.1 2 0.4 0.6 0.3 1.1 0.6 1.5 1 0.4 0.4 0.7 1 0.9 1.5 0.2 0.6 0.3 1.2 0.3 1.9 0 0.7-0.1 1.3-0.3 1.9 -0.2 0.6-0.5 1.1-0.9 1.5 -0.4 0.4-0.9 0.8-1.5 1 -0.6 0.3-1.2 0.4-2 0.4 -0.7 0-1.4-0.1-2-0.4s-1.1-0.6-1.6-1c-0.4-0.4-0.8-1-1.1-1.5C116.1-38.3 116-39 116-39.6z"/><path class="st0" d="M141.2-43.3c-0.6-0.9-1.3-1.6-2.2-2 -0.9-0.4-1.9-0.6-2.9-0.6 -0.9 0-1.7 0.2-2.5 0.5 -0.7 0.3-1.4 0.7-1.9 1.3 -0.5 0.6-0.9 1.2-1.2 2 -0.3 0.8-0.4 1.6-0.4 2.5 0 0.9 0.1 1.7 0.4 2.5 0.3 0.8 0.7 1.4 1.2 2 0.5 0.6 1.2 1 1.9 1.3 0.7 0.3 1.5 0.5 2.4 0.5 0.9 0 1.7-0.2 2.4-0.5 0.7-0.3 1.3-0.7 1.8-1.3 0.5-0.5 0.8-1.1 1.1-1.8 0.2-0.7 0.4-1.3 0.4-2V-40h-10c0-0.3 0.1-0.7 0.2-1.2 0.1-0.5 0.4-1 0.7-1.5 0.3-0.5 0.8-0.9 1.4-1.2 0.6-0.3 1.3-0.5 2.2-0.5 0.8 0 1.6 0.2 2.3 0.6 0.7 0.4 1.3 0.9 1.7 1.5L141.2-43.3zM140-38.6c0 0.5-0.1 1-0.3 1.5 -0.2 0.5-0.5 0.9-0.9 1.2 -0.4 0.4-0.8 0.6-1.3 0.8 -0.5 0.2-1 0.3-1.6 0.3 -0.8 0-1.5-0.2-2.1-0.5 -0.6-0.3-1-0.7-1.3-1.2 -0.3-0.4-0.6-0.9-0.7-1.3 -0.1-0.4-0.2-0.7-0.2-0.9H140z"/><path class="st0" d="M145-37c0 0.2 0 0.5 0 0.8 0 0.3 0 0.6 0 1 0 0.3 0 0.6 0 0.9 0 0.3 0 0.5 0 0.7h1.5c0-0.4 0-0.9 0-1.3 0-0.4 0-0.7 0.1-0.8h0.1c0.3 0.7 0.8 1.2 1.5 1.7 0.7 0.5 1.6 0.7 2.5 0.7 0.9 0 1.7-0.1 2.3-0.4 0.6-0.3 1-0.7 1.4-1.1 0.3-0.5 0.6-1 0.7-1.6 0.1-0.6 0.2-1.3 0.2-1.9v-7.1h-1.5v7c0 0.5 0 0.9-0.1 1.4 -0.1 0.5-0.2 0.9-0.5 1.2 -0.2 0.4-0.5 0.6-0.9 0.9 -0.4 0.2-0.9 0.3-1.5 0.3 -0.6 0-1.1-0.1-1.6-0.3 -0.5-0.2-0.9-0.5-1.3-0.9 -0.4-0.4-0.7-0.9-0.9-1.5 -0.2-0.6-0.3-1.3-0.3-2.2v-5.9H145V-37z"/><path class="st0" d="M165.6-36.6c-0.6 0.8-1.4 1.3-2.4 1.3 -0.4 0-0.8-0.1-1.2-0.3 -0.4-0.2-0.6-0.5-0.6-1 0-0.4 0.2-0.7 0.5-0.8 0.3-0.2 0.7-0.3 1.2-0.4 0.5-0.1 1-0.2 1.6-0.4 0.6-0.1 1.1-0.3 1.6-0.6 0.5-0.3 0.9-0.6 1.2-1.1 0.3-0.5 0.5-1.1 0.5-1.9 0-0.7-0.2-1.4-0.5-1.9 -0.3-0.5-0.7-0.9-1.2-1.2 -0.5-0.3-1.1-0.5-1.7-0.7 -0.6-0.1-1.3-0.2-1.9-0.2 -1 0-1.8 0.1-2.7 0.4 -0.8 0.3-1.5 0.8-2.2 1.5l2.1 1.9c0.4-0.4 0.8-0.8 1.3-1.1 0.5-0.3 1-0.4 1.7-0.4 0.2 0 0.5 0 0.7 0.1 0.2 0.1 0.5 0.1 0.7 0.3 0.2 0.1 0.4 0.3 0.5 0.5 0.1 0.2 0.2 0.4 0.2 0.6 0 0.4-0.2 0.7-0.5 1 -0.3 0.2-0.7 0.4-1.2 0.5 -0.5 0.1-1 0.2-1.6 0.4 -0.6 0.1-1.1 0.3-1.6 0.5s-0.9 0.6-1.2 1c-0.3 0.4-0.5 1.1-0.5 1.9 0 0.7 0.1 1.3 0.4 1.8 0.3 0.5 0.7 0.9 1.1 1.2 0.5 0.3 1 0.6 1.6 0.7 0.6 0.2 1.2 0.2 1.8 0.2 0.8 0 1.6-0.1 2.4-0.4 0.8-0.3 1.5-0.8 2-1.5L165.6-36.6z"/><path class="st0" d="M169-35.8v2.6h2.5v3.6h3.1v-3.6h3.4v-2.6h-3.4v-5.4c0-0.6 0.1-1.1 0.3-1.5 0.2-0.4 0.7-0.5 1.4-0.5 0.3 0 0.6 0 0.9 0.1 0.3 0.1 0.6 0.2 0.8 0.3v-2.6c-0.3-0.2-0.7-0.3-1.2-0.3 -0.5-0.1-0.9-0.1-1.2-0.1 -0.8 0-1.5 0.1-2 0.3 -0.5 0.2-0.9 0.5-1.2 0.8 -0.3 0.4-0.5 0.8-0.6 1.4 -0.1 0.5-0.2 1.2-0.2 1.9v5.7H169z"/><path class="st0" d="M188.2-43.9L188.2-43.9c-0.5-0.7-1.1-1.2-1.8-1.5 -0.7-0.3-1.4-0.5-2.3-0.5 -0.6 0-1.1 0.1-1.7 0.2 -0.5 0.2-1 0.4-1.4 0.7 -0.4 0.3-0.8 0.7-1 1.2 -0.3 0.5-0.4 1-0.4 1.6 0 0.7 0.1 1.2 0.4 1.7 0.2 0.5 0.6 0.9 1 1.2 0.4 0.3 0.9 0.6 1.4 0.8 0.5 0.2 1.1 0.3 1.7 0.4 0.6 0.1 1.2 0.2 1.7 0.2 0.6 0 1.1 0 1.6 0h0.8v0.3c0 0.8-0.3 1.4-0.8 1.7 -0.5 0.4-1.2 0.6-2 0.6 -0.7 0-1.3-0.1-1.8-0.3 -0.6-0.2-1.1-0.5-1.5-0.9l-1.6 1.6c0.7 0.7 1.5 1.2 2.4 1.5 0.9 0.3 1.9 0.5 2.8 0.5 0.9 0 1.6-0.1 2.2-0.3 0.6-0.2 1.1-0.5 1.5-0.8 0.4-0.3 0.7-0.7 0.9-1.1 0.2-0.4 0.4-0.8 0.5-1.2 0.1-0.4 0.2-0.8 0.2-1.2 0-0.4 0-0.7 0-1v-7.1h-2.8V-43.9zM188-40h-0.6c-0.4 0-0.9 0-1.4-0.1 -0.5 0-1-0.1-1.5-0.2 -0.5-0.1-0.9-0.3-1.2-0.6 -0.3-0.2-0.5-0.6-0.5-1 0-0.3 0.1-0.5 0.2-0.7 0.1-0.2 0.3-0.4 0.5-0.5 0.2-0.1 0.4-0.2 0.7-0.3 0.3-0.1 0.5-0.1 0.8-0.1 1.1 0 1.9 0.3 2.4 0.8 0.5 0.5 0.8 1.2 0.8 2.1V-40z"/><path class="st0" d="M197.5-38.9l-4.3 5.7h3.8l2.5-3.7 2.7 3.7h3.5l-4.2-5.7 5-6.6h-3.8l-3.2 4.4 -3.2-4.4h-3.7L197.5-38.9z"/><path class="st0" d="M208.9-33.8h-1.1v0.6h2.7v-0.6h-1.1v-2.9h-0.6V-33.8zM211.2-33.2h0.9l1-2.6 1 2.6h0.9v-3.5h-0.6v2.9h0l-1.1-2.9h-0.4l-1.1 2.9h0v-2.9h-0.6V-33.2z"/><path class="st0" d="M87.8-25.1c-0.1-1.3-1.2-2.3-2.5-2.3l-55.5 2.6c-1.3 0.1-2.3 1.2-2.3 2.5l0.2 4.9c0.1 1.3 1.2 2.3 2.5 2.3l55.5-2.6c1.3-0.1 2.3-1.2 2.3-2.5L87.8-25.1z"/><path class="st0" d="M69.5-43.1c0-0.8-0.6-1.4-1.4-1.4H22.9c-0.8 0-1.4 0.6-1.4 1.4v7.1c0 0.8 0.6 1.4 1.4 1.4h45.2c0.8 0 1.4-0.6 1.4-1.4V-43.1z"/><path class="st0" d="M83.4-50.8c0-0.8-0.6-1.4-1.3-1.5l-51-1.6c-0.8 0-1.4 0.6-1.4 1.4l-0.1 4.2c0 0.8 0.6 1.4 1.3 1.5l51 1.6c0.8 0 1.4-0.6 1.4-1.4L83.4-50.8z"/><path class="st0" d="M76.6-59.3c0-0.8-0.6-1.4-1.3-1.4H26.6c-0.7 0-1.3 0.6-1.3 1.4v2.8c0 0.8 0.6 1.4 1.3 1.4h48.6c0.7 0 1.3-0.6 1.3-1.4V-59.3z"/><path class="st0" d="M77.8-31.2c0-0.6-0.9-1.1-1.9-1.1h-59c-1.1 0-1.9 0.5-1.9 1.1v2.3c0 0.6 0.9 1.1 1.9 1.1h59c1.1 0 1.9-0.5 1.9-1.1V-31.2z"/></symbol><g id="people"><g class="st1"><path class="st0" d="M253.1 21.5c-4.2 0-7.5-3.4-7.5-7.5 0-4.2 3.4-7.5 7.5-7.5 4.2 0 7.5 3.4 7.5 7.5C260.6 18.2 257.2 21.5 253.1 21.5z"/><path class="st0" d="M259.5 22.7L259.5 22.7l-9.9 0c-2.2 0-4.6-0.4-6.3-1.7l-5.4-4c-1.8-1.3-2.5-3.6-2.5-5.8V2.5h0c0-1.4-1.1-2.5-2.5-2.5h0l0 0 -2.1 0 0 0 0 0c-1.4 0-2.4 1.1-2.5 2.4l0 12.4c0 2.2 1.4 5.1 3.1 6.5l9.8 8.1c1.7 1.4 3.1 4.3 3.1 6.5l0 39.1h0c0 1.8 1.4 3.2 3.2 3.2h1.4c1.8 0 3.2-1.4 3.2-3.2V50.3h2v24.8c0 1.8 1.4 3.2 3.2 3.2h1.4c1.8 0 3.2-1.4 3.2-3.2V51.7c0.2 0.1 0.5 0.1 0.7 0.1h2.1c1.4 0 2.5-1.1 2.5-2.5v-18C267.2 26.3 264 22.7 259.5 22.7z"/></g><path class="st0" d="M253.1 21.5c-4.2 0-7.5-3.4-7.5-7.5 0-4.2 3.4-7.5 7.5-7.5 4.2 0 7.5 3.4 7.5 7.5C260.6 18.2 257.2 21.5 253.1 21.5zM253.1 8.2c-3.2 0-5.8 2.6-5.8 5.8s2.6 5.8 5.8 5.8c3.2 0 5.8-2.6 5.8-5.8S256.3 8.2 253.1 8.2z"/><path class="st0" d="M259.5 22.7L259.5 22.7l-9.9 0c-2.2 0-4.6-0.4-6.3-1.7l-5.4-4c-1.8-1.3-2.5-3.6-2.5-5.8V2.5h0c0-1.4-1.1-2.5-2.5-2.5h0l0 0 -2.1 0 0 0 0 0c-1.4 0-2.4 1.1-2.5 2.4l0 12.4c0 2.2 1.4 5.1 3.1 6.5l9.8 8.1c1.7 1.4 3.1 4.3 3.1 6.5l0 39.1h0c0 1.8 1.4 3.2 3.2 3.2h1.4c1.8 0 3.2-1.4 3.2-3.2V50.3h2v24.8c0 1.8 1.4 3.2 3.2 3.2h1.4c1.8 0 3.2-1.4 3.2-3.2V51.7c0.2 0.1 0.5 0.1 0.7 0.1h2.1c1.4 0 2.5-1.1 2.5-2.5v-18C267.2 26.3 264 22.7 259.5 22.7zM265.4 49.4c0 0.4-0.3 0.7-0.7 0.7h-2.1c-0.4 0-0.6-0.2-0.7-0.6l0-17.4h-1.8v17.3c0 0.1 0 0.2 0 0.2v25.5c0 0.8-0.6 1.4-1.4 1.4h-1.4c-0.8 0-1.4-0.6-1.4-1.4V48.6h-5.5v26.6c0 0.8-0.6 1.4-1.4 1.4h-1.4c-0.8 0-1.4-0.6-1.4-1.4l0-40.1c0-2.2-1.4-5.1-3.1-6.5l-9.8-8.1c-2.1-1.8-3.1-3.9-3.1-6.5l0-11.4c0-0.4 0.3-0.7 0.7-0.7h2.1c0.4 0 0.7 0.3 0.7 0.7h0v9.6c0 2.2 0.7 4.5 2.5 5.8l6.3 4.8c1.8 1.3 4.1 1.8 6.3 1.8h10.8v0c3.5 0 6 2.8 6 6.8V49.4z"/><path class="st2" d="M189.6 21.5c4.2 0 7.5-3.4 7.5-7.5 0-4.2-3.4-7.5-7.5-7.5 -4.2 0-7.5 3.4-7.5 7.5C182.1 18.2 185.5 21.5 189.6 21.5zM189.6 8.2c3.2 0 5.8 2.6 5.8 5.8s-2.6 5.8-5.8 5.8c-3.2 0-5.8-2.6-5.8-5.8S186.5 8.2 189.6 8.2zM196 22.7h-12.7c-4.5 0-7.7 3.5-7.7 8.6l0 18c0 1.4 1.1 2.5 2.5 2.5h2.1c0.3 0 0.5 0 0.7-0.1v23.4c0 1.8 1.4 3.2 3.2 3.2h1.4c1.8 0 3.2-1.4 3.2-3.2V50.3h2v24.8c0 1.8 1.4 3.2 3.2 3.2h1.4c1.8 0 3.2-1.4 3.2-3.2V51.7c0.2 0.1 0.5 0.1 0.7 0.1h2.1c1.4 0 2.5-1.1 2.5-2.5v-18C203.7 26.2 200.6 22.7 196 22.7zM202 49.4c0 0.4-0.3 0.7-0.7 0.7h-2.1c-0.4 0-0.6-0.2-0.7-0.6V32.9l0-0.9h-1.8v17.3c0 0.1 0 0.2 0 0.2v25.5c0 0.8-0.6 1.4-1.4 1.4h-1.4c-0.8 0-1.4-0.6-1.4-1.4V48.6h-5.5v26.6c0 0.8-0.6 1.4-1.4 1.4h-1.4c-0.8 0-1.4-0.6-1.4-1.4V32.9l0-0.9h-1.8v17.3c0 0.4-0.3 0.7-0.7 0.7H178c-0.4 0-0.7-0.3-0.7-0.7l0-18c0-3.4 1.8-6.8 5.9-6.8H196c3.5 0 6 2.8 6 6.8V49.4z"/><path class="st2" d="M131.1 21.5c4.2 0 7.5-3.4 7.5-7.5 0-4.2-3.4-7.5-7.5-7.5 -4.2 0-7.5 3.4-7.5 7.5C123.6 18.2 127 21.5 131.1 21.5zM131.1 8.2c3.2 0 5.8 2.6 5.8 5.8s-2.6 5.8-5.8 5.8c-3.2 0-5.8-2.6-5.8-5.8S127.9 8.2 131.1 8.2zM137.5 22.7h-12.7c-4.5 0-7.7 3.5-7.7 8.6l0 18c0 1.4 1.1 2.5 2.5 2.5h2.1c0.3 0 0.5 0 0.7-0.1v23.4c0 1.8 1.4 3.2 3.2 3.2h1.4c1.8 0 3.2-1.4 3.2-3.2V50.3h2v24.8c0 1.8 1.4 3.2 3.2 3.2h1.4c1.8 0 3.2-1.4 3.2-3.2V51.7c0.2 0.1 0.5 0.1 0.7 0.1h2.1c1.4 0 2.5-1.1 2.5-2.5v-18C145.2 26.2 142 22.7 137.5 22.7zM143.4 49.4c0 0.4-0.3 0.7-0.7 0.7h-2.1c-0.4 0-0.6-0.2-0.7-0.6V32.9l0-0.9h-1.8v17.3c0 0.1 0 0.2 0 0.2v25.5c0 0.8-0.6 1.4-1.4 1.4h-1.4c-0.8 0-1.4-0.6-1.4-1.4V48.6h-5.5v26.6c0 0.8-0.6 1.4-1.4 1.4h-1.4c-0.8 0-1.4-0.6-1.4-1.4V32.9l0-0.9h-1.8v17.3c0 0.4-0.3 0.7-0.7 0.7h-2.1c-0.4 0-0.7-0.3-0.7-0.7l0-18c0-3.4 1.8-6.8 5.9-6.8h12.7c3.5 0 6 2.8 6 6.8V49.4z"/><path class="st2" d="M72.6 21.5c4.2 0 7.5-3.4 7.5-7.5 0-4.2-3.4-7.5-7.5-7.5 -4.2 0-7.5 3.4-7.5 7.5C65.1 18.2 68.4 21.5 72.6 21.5zM72.6 8.2c3.2 0 5.8 2.6 5.8 5.8s-2.6 5.8-5.8 5.8c-3.2 0-5.8-2.6-5.8-5.8S69.4 8.2 72.6 8.2zM79 22.7H66.2c-4.5 0-7.7 3.5-7.7 8.6l0 18c0 1.4 1.1 2.5 2.5 2.5h2.1c0.3 0 0.5 0 0.7-0.1v23.4c0 1.8 1.4 3.2 3.2 3.2h1.4c1.8 0 3.2-1.4 3.2-3.2V50.3h2v24.8c0 1.8 1.4 3.2 3.2 3.2h1.4c1.8 0 3.2-1.4 3.2-3.2V51.7c0.2 0.1 0.5 0.1 0.7 0.1h2.1c1.4 0 2.5-1.1 2.5-2.5v-18C86.7 26.2 83.5 22.7 79 22.7zM84.9 49.4c0 0.4-0.3 0.7-0.7 0.7h-2.1c-0.4 0-0.6-0.2-0.7-0.6V32.9l0-0.9h-1.8v17.3c0 0.1 0 0.2 0 0.2v25.5c0 0.8-0.6 1.4-1.4 1.4h-1.4c-0.8 0-1.4-0.6-1.4-1.4V48.6h-5.5v26.6c0 0.8-0.6 1.4-1.4 1.4H67c-0.8 0-1.4-0.6-1.4-1.4V32.9l0-0.9h-1.8v17.3c0 0.4-0.3 0.7-0.7 0.7H61c-0.4 0-0.7-0.3-0.7-0.7l0-18c0-3.4 1.8-6.8 5.9-6.8H79c3.5 0 6 2.8 6 6.8V49.4z"/><path class="st2" d="M14.1 21.5c4.2 0 7.5-3.4 7.5-7.5 0-4.2-3.4-7.5-7.5-7.5 -4.2 0-7.5 3.4-7.5 7.5C6.5 18.2 9.9 21.5 14.1 21.5zM14.1 8.2c3.2 0 5.8 2.6 5.8 5.8s-2.6 5.8-5.8 5.8c-3.2 0-5.8-2.6-5.8-5.8S10.9 8.2 14.1 8.2zM20.4 22.7H7.7c-4.5 0-7.7 3.5-7.7 8.6l0 18c0 1.4 1.1 2.5 2.5 2.5h2.1c0.3 0 0.5 0 0.7-0.1v23.4c0 1.8 1.4 3.2 3.2 3.2h1.4c1.8 0 3.2-1.4 3.2-3.2V50.3h2v24.8c0 1.8 1.4 3.2 3.2 3.2h1.4c1.8 0 3.2-1.4 3.2-3.2V51.7c0.2 0.1 0.5 0.1 0.7 0.1h2.1c1.4 0 2.5-1.1 2.5-2.5v-18C28.2 26.2 25 22.7 20.4 22.7zM26.4 49.4c0 0.4-0.3 0.7-0.7 0.7h-2.1c-0.4 0-0.6-0.2-0.7-0.6V32.9l0-0.9h-1.8v17.3c0 0.1 0 0.2 0 0.2v25.5c0 0.8-0.6 1.4-1.4 1.4h-1.4c-0.8 0-1.4-0.6-1.4-1.4V48.6h-5.5v26.6c0 0.8-0.6 1.4-1.4 1.4H8.5c-0.8 0-1.4-0.6-1.4-1.4V32.9l0-0.9H5.3v17.3c0 0.4-0.3 0.7-0.7 0.7H2.5c-0.4 0-0.7-0.3-0.7-0.7l0-18c0-3.4 1.8-6.8 5.9-6.8h12.7c3.5 0 6 2.8 6 6.8V49.4z"/></g></svg>