<svg id="Layer_1" data-name="Layer 1" xmlns="http://www.w3.org/2000/svg" viewBox="0 0 28.71 32.02"><defs><style>.cls-1{fill:#057eb6;}</style></defs><title>Chegglogo</title><path class="cls-1" d="M23.8,30.7C18.4,32.8,11,32.6,6.5,28.4,1.7,24,.7,17,2.3,10.7a14.5,14.5,0,0,1,6.9-9,17.49,17.49,0,0,1,15.3.1A13,13,0,0,1,29.4,7c.6,1.2,1.2,3.3.1,4.2-2,1.6-5.8,1.2-7,.2-2.2-2-4.2-5.2-7.6-3.6-2.6,1.2-3.8,4.4-3.8,7.3,0,3.4,0,7.1,3.2,8.9a5.18,5.18,0,0,0,5.6-.5c1.2-1.2,2.3-3.4,3.8-3.6.7-.1,6.7-.8,6.6,1.6C30.2,25.4,27.2,29,23.8,30.7Z" transform="translate(-1.59 0.01)"/></svg>