<svg xmlns="http://www.w3.org/2000/svg" xmlns:xlink="http://www.w3.org/1999/xlink" version="1.1" x="0px" y="0px" viewBox="0 0 69.6 69.6" xml:space="preserve" enable-background="new 0 0 69.6 69.6"><style type="text/css">.st5{fill:#5E6062;}.st7{fill:#E5E5E5;}</style><path class="st7" d="M38.3 19.1c0.3 0 0.6 0 0.9 0 0 0 0.1 0 0.1 0 0.4 0 0.8 0 1.3 0 0.5 0 0.9 0.1 1.4 0.1 0.2 0 0.3 0 0.5 0.1 0 1.7-0.1 3.3-0.1 5 0 0-0.1 0-0.1 0 -1.1 0-2.2 0-3.3 0 -0.3 0-0.6 0-1 0.1 -0.6 0.1-1 0.5-1.1 1.1 -0.1 0.3-0.1 0.7-0.1 1.1 0 1.3 0 2.5 0 3.8 0 0 0 0 0 0.1 0 0 0.1 0 0.1 0 1.9 0 3.7 0 5.6 0 0 0 0.1 0 0.1 0 0 0 0 0.1 0 0.1 0 0 0 0 0 0 0 0.6-0.1 1.2-0.1 1.9 0 0.5 0 0.9-0.1 1.4 0 0.6-0.1 1.2-0.1 1.8 0 0 0 0.1 0 0.1 -1.8 0-3.7 0-5.5 0 0 4.9 0 9.8 0 14.7 -1.9 0-3.8 0-5.7 0 0-4.9 0-9.8 0-14.7 0 0 0 0-0.1 0 -1.2 0-2.5 0-3.7 0 0 0 0 0-0.1 0 0-1.8 0-3.6 0-5.4 0 0 0 0 0 0 1.3 0 2.5 0 3.8 0 0 0 0 0 0.1 0 0 0 0-0.1 0-0.1 0-1.5 0-2.9 0-4.4 0-0.6 0.1-1.2 0.2-1.9 0.5-1.9 1.6-3.3 3.3-4.1 1-0.5 2.2-0.8 3.3-0.8C38.1 19.2 38.2 19.2 38.3 19.1z"/></svg>