<svg xmlns="http://www.w3.org/2000/svg" xmlns:xlink="http://www.w3.org/1999/xlink" version="1.1" x="0px" y="0px" viewBox="0 0 69.6 69.6" xml:space="preserve" enable-background="new 0 0 69.6 69.6"><style type="text/css"> 	.st5{fill:#5E6062;} 	.st6{fill-rule:evenodd;clip-rule:evenodd;fill:#E5E5E5;} </style><path class="st6" d="M18.5 45.2c3.6 0.3 6.8-0.6 9.8-2.8 -0.9-0.1-1.7-0.2-2.4-0.5 -1.7-0.7-2.9-1.9-3.6-3.5 -0.3-0.6-0.3-0.7 0.4-0.6 0.7 0.1 1.3 0 2-0.1 0.1 0 0.1 0 0.2-0.1 -1.5-0.4-2.8-1.2-3.8-2.4 -1-1.2-1.5-2.6-1.5-4.3 0.9 0.5 1.9 0.8 3 0.8 -0.5-0.4-0.9-0.8-1.3-1.2 -1.7-2-2.1-4.9-0.9-7.2 0.2-0.5 0.2-0.5 0.6-0.1 2.4 2.8 5.4 4.7 9 5.8 1.3 0.4 2.7 0.7 4.1 0.8 0.5 0 0.5 0 0.4-0.4 -0.5-3.3 1.5-6.5 4.7-7.5 2.5-0.7 4.7-0.2 6.7 1.6 0.2 0.2 0.3 0.2 0.6 0.2 1.3-0.3 2.5-0.8 3.7-1.4 0.1 0 0.2-0.1 0.2-0.1 -0.2 1.2-1.3 2.6-2.8 3.6 1.3-0.1 2.5-0.5 3.6-0.9 0 0.2-0.1 0.3-0.2 0.4 -0.8 1.1-1.7 2-2.8 2.8 -0.2 0.1-0.2 0.3-0.2 0.5 -0.1 7.6-3.3 13.4-9.8 17.3 -2.4 1.4-5 2.1-7.8 2.3 -3.6 0.3-6.9-0.3-10.2-1.9C19.6 45.9 19 45.6 18.5 45.2z"/></svg>