<svg xmlns="http://www.w3.org/2000/svg" viewBox="0 0 69.6 69.6"><style>.st5{fill:#5e6062}.st6{fill-rule:evenodd;clip-rule:evenodd;fill:#e5e5e5}</style><path class="st6" d="M18.5 45.2c3.6.3 6.8-.6 9.8-2.8-.9-.1-1.7-.2-2.4-.5-1.7-.7-2.9-1.9-3.6-3.5-.3-.6-.3-.7.4-.6.7.1 1.3 0 2-.1.1 0 .1 0 .2-.1-1.5-.4-2.8-1.2-3.8-2.4s-1.5-2.6-1.5-4.3c.9.5 1.9.8 3 .8-.5-.4-.9-.8-1.3-1.2-1.7-2-2.1-4.9-.9-7.2.2-.5.2-.5.6-.1 2.4 2.8 5.4 4.7 9 5.8 1.3.4 2.7.7 4.1.8.5 0 .5 0 .4-.4-.5-3.3 1.5-6.5 4.7-7.5 2.5-.7 4.7-.2 6.7 1.6.2.2.3.2.6.2 1.3-.3 2.5-.8 3.7-1.4.1 0 .2-.1.2-.1-.2 1.2-1.3 2.6-2.8 3.6 1.3-.1 2.5-.5 3.6-.9 0 .2-.1.3-.2.4-.8 1.1-1.7 2-2.8 2.8-.2.1-.2.3-.2.5-.1 7.6-3.3 13.4-9.8 17.3-2.4 1.4-5 2.1-7.8 2.3-3.6.3-6.9-.3-10.2-1.9-.6-.4-1.2-.7-1.7-1.1z"/></svg>