<svg xmlns="http://www.w3.org/2000/svg" xmlns:xlink="http://www.w3.org/1999/xlink" version="1.1" x="0px" y="0px" viewBox="0 0 69.6 69.6" xml:space="preserve" enable-background="new 0 0 69.6 69.6"><style type="text/css"> 	.st5{fill:#5E6062;} 	.st6{fill-rule:evenodd;clip-rule:evenodd;fill:#E5E5E5;} </style><path class="st6" d="M36.5 32.5c1.7-2.4 4.1-3.1 6.8-2.6 2.8 0.5 4.7 2.6 5.2 5.7 0.1 0.8 0.2 1.6 0.2 2.4 0 3.1 0 6.2 0 9.3 0 0.5-0.2 0.7-0.7 0.6 -1.6 0-3.1 0-4.7 0 -0.5 0-0.6-0.1-0.6-0.6 0-2.9 0-5.8 0-8.7 0-0.6 0-1.3-0.2-1.9 -0.3-1.1-0.8-1.9-2-2.2 -1.2-0.3-2.3 0-3.2 1 -0.6 0.7-0.9 1.5-0.9 2.4 0 3.2 0 6.3 0 9.5 0 0.5-0.2 0.6-0.7 0.6 -1.6 0-3.1 0-4.7 0 -0.5 0-0.6-0.1-0.6-0.6 0-5.6 0-11.2 0-16.7 0-0.4 0.1-0.5 0.5-0.5 1.7 0 3.3 0 5 0 0.3 0 0.5 0.1 0.4 0.4C36.5 31.3 36.5 31.9 36.5 32.5z"/><path class="st6" d="M27.3 39.1c0 2.8 0 5.5 0 8.3 0 0.4-0.1 0.6-0.6 0.6 -1.6 0-3.2 0-4.8 0 -0.4 0-0.5-0.1-0.5-0.5 0-5.6 0-11.2 0-16.9 0-0.3 0.1-0.5 0.4-0.5 1.7 0 3.3 0 5 0 0.4 0 0.5 0.1 0.5 0.5C27.3 33.5 27.3 36.3 27.3 39.1z"/><path class="st6" d="M24.3 27.8c-2.3 0-3.8-2-3.1-4.1 0.6-1.7 2.6-2.5 4.5-1.8 1.6 0.6 2.4 2.3 1.8 3.9C27 27 25.8 27.8 24.3 27.8z"/></svg>