<svg xmlns="http://www.w3.org/2000/svg" viewBox="0 0 69.6 69.6"><style>.st5{fill:#5e6062}.st6{fill-rule:evenodd;clip-rule:evenodd;fill:#e5e5e5}</style><path class="st6" d="M36.5 32.5c1.7-2.4 4.1-3.1 6.8-2.6 2.8.5 4.7 2.6 5.2 5.7.1.8.2 1.6.2 2.4v9.3c0 .5-.2.7-.7.6h-4.7c-.5 0-.6-.1-.6-.6v-8.7c0-.6 0-1.3-.2-1.9-.3-1.1-.8-1.9-2-2.2-1.2-.3-2.3 0-3.2 1-.6.7-.9 1.5-.9 2.4v9.5c0 .5-.2.6-.7.6H31c-.5 0-.6-.1-.6-.6V30.7c0-.4.1-.5.5-.5h5c.3 0 .5.1.4.4.2.7.2 1.3.2 1.9zm-9.2 6.6v8.3c0 .4-.1.6-.6.6h-4.8c-.4 0-.5-.1-.5-.5V30.6c0-.3.1-.5.4-.5h5c.4 0 .5.1.5.5v8.5zm-3-11.3c-2.3 0-3.8-2-3.1-4.1.6-1.7 2.6-2.5 4.5-1.8 1.6.6 2.4 2.3 1.8 3.9-.5 1.2-1.7 2-3.2 2z"/></svg>