<?xml version="1.0" encoding="utf-8"?>
<!-- Generator: Adobe Illustrator 16.0.0, SVG Export Plug-In . SVG Version: 6.00 Build 0)  -->
<!DOCTYPE svg PUBLIC "-//W3C//DTD SVG 1.1 Tiny//EN" "http://www.w3.org/Graphics/SVG/1.1/DTD/svg11-tiny.dtd">
<svg version="1.1" baseProfile="tiny" id="Layer_1" xmlns="http://www.w3.org/2000/svg" xmlns:xlink="http://www.w3.org/1999/xlink"
	 x="0px" y="0px" width="400px" height="400px" viewBox="0 0 400 400" xml:space="preserve">
<rect fill="#C22032" width="400" height="400"/>
<g>
	<polygon fill="#C22032" points="0,0.001 0,64.149 24.258,0.001 	"/>
	<polygon fill="#C22032" points="32.229,17.532 32.029,17.532 22.766,43.632 41.193,43.632 	"/>
	<rect x="24.258" fill="#F4D019" width="16.038" height="0.002"/>
	<path fill="#F4D019" d="M18.68,55.287h26.598l5.38,15.839h16.236L40.298,0.001h-16.04L0,64.149v6.977h13.102L18.68,55.287z
		 M32.029,17.532h0.199l8.965,26.1H22.766L32.029,17.532z"/>
	<path fill="#F4D019" d="M80.971,0v71.126H66.825V0H80.971z"/>
	<path fill="#F4D019" d="M134.663,74.912c-0.564,2.655-1.777,5.13-3.636,7.421c-1.86,2.292-4.552,4.234-8.069,5.828
		c-3.521,1.593-8.235,2.391-14.146,2.391c-2.524,0-5.1-0.316-7.722-0.946c-2.625-0.632-5.016-1.611-7.172-2.938
		c-2.159-1.33-3.952-3.038-5.379-5.13c-1.429-2.092-2.241-4.599-2.44-7.521h14.047c0.662,2.656,1.959,4.499,3.886,5.529
		c1.925,1.029,4.148,1.544,6.674,1.544c3.984,0,6.889-1.195,8.717-3.586c1.825-2.391,2.705-5.415,2.642-9.065v-6.774h-0.199
		c-1.528,2.724-3.703,4.732-6.525,6.026c-2.823,1.295-5.795,1.943-8.915,1.943c-3.853,0-7.173-0.68-9.962-2.042
		c-2.789-1.36-5.081-3.22-6.874-5.578c-1.793-2.357-3.104-5.113-3.935-8.269c-0.832-3.154-1.245-6.491-1.245-10.012
		c0-3.32,0.479-6.524,1.442-9.613c0.963-3.088,2.375-5.811,4.233-8.169c1.859-2.356,4.167-4.234,6.924-5.628
		c2.755-1.396,5.927-2.092,9.516-2.092c3.387,0,6.356,0.632,8.915,1.893c2.557,1.262,4.696,3.387,6.426,6.375h0.199v-6.873h13.446
		V67.84C135.51,69.898,135.227,72.255,134.663,74.912z M115.288,57.778c1.526-0.797,2.789-1.859,3.785-3.188
		c0.996-1.328,1.743-2.839,2.241-4.533s0.745-3.469,0.745-5.33c0-2.125-0.197-4.134-0.598-6.027
		c-0.396-1.893-1.062-3.569-1.992-5.03c-0.931-1.46-2.157-2.623-3.687-3.486s-3.453-1.295-5.777-1.295
		c-1.992,0-3.703,0.399-5.13,1.196c-1.429,0.797-2.625,1.876-3.587,3.237c-0.963,1.362-1.66,2.923-2.091,4.682
		c-0.435,1.76-0.647,3.603-0.647,5.529c0,1.859,0.184,3.703,0.548,5.528c0.364,1.827,0.996,3.471,1.895,4.931
		c0.896,1.461,2.075,2.657,3.537,3.587c1.46,0.931,3.287,1.394,5.479,1.394C112,58.973,113.759,58.575,115.288,57.778z"/>
	<path fill="#F4D019" d="M170.424,37.854v12.154H140.44V37.854H170.424z"/>
	<path fill="#F4D019" d="M29.24,134.636c2.125,2.06,5.18,3.089,9.165,3.089c2.854,0,5.312-0.714,7.372-2.142
		c2.057-1.429,3.32-2.939,3.785-4.533h12.451c-1.992,6.176-5.047,10.594-9.164,13.249c-4.119,2.656-9.101,3.985-14.942,3.985
		c-4.052,0-7.705-0.648-10.958-1.943c-3.254-1.295-6.012-3.138-8.268-5.528c-2.259-2.391-4.003-5.246-5.23-8.567
		c-1.229-3.32-1.844-6.973-1.844-10.958c0-3.851,0.632-7.437,1.894-10.758c1.261-3.32,3.054-6.192,5.379-8.617
		c2.325-2.423,5.097-4.333,8.318-5.728c3.22-1.395,6.79-2.092,10.709-2.092c4.383,0,8.2,0.847,11.456,2.541
		c3.253,1.693,5.927,3.969,8.019,6.824c2.093,2.855,3.604,6.111,4.533,9.762c0.93,3.653,1.261,7.471,0.996,11.456H25.755
		C25.952,129.257,27.113,132.578,29.24,134.636z M45.229,107.54c-1.693-1.858-4.269-2.789-7.721-2.789
		c-2.258,0-4.134,0.383-5.629,1.146c-1.494,0.764-2.689,1.711-3.586,2.839c-0.896,1.13-1.527,2.325-1.893,3.586
		c-0.366,1.262-0.582,2.391-0.647,3.387h23.011C48.1,112.123,46.922,109.4,45.229,107.54z"/>
	<path fill="#F4D019" d="M79.655,75.862v25.901h0.198c1.727-2.656,4.066-4.598,7.022-5.828c2.954-1.228,6.026-1.843,9.214-1.843
		c2.59,0,5.146,0.533,7.671,1.594c2.522,1.063,4.796,2.689,6.823,4.881c2.025,2.192,3.669,4.998,4.932,8.418
		c1.263,3.421,1.895,7.489,1.895,12.203c0,4.716-0.632,8.783-1.895,12.203c-1.263,3.422-2.904,6.227-4.932,8.418
		s-4.301,3.819-6.823,4.881c-2.523,1.062-5.081,1.595-7.671,1.595c-3.785,0-7.172-0.6-10.161-1.794
		c-2.987-1.195-5.247-3.22-6.772-6.076h-0.199v6.574H65.508V75.863L79.655,75.862L79.655,75.862L79.655,75.862z M102.566,115.011
		c-0.468-1.992-1.195-3.75-2.192-5.279c-0.996-1.527-2.241-2.74-3.736-3.636c-1.493-0.896-3.304-1.345-5.429-1.345
		c-2.059,0-3.853,0.448-5.379,1.345c-1.529,0.896-2.789,2.109-3.786,3.636c-0.996,1.529-1.727,3.287-2.19,5.279
		c-0.466,1.993-0.697,4.084-0.697,6.276c0,2.126,0.23,4.184,0.697,6.176c0.465,1.993,1.194,3.752,2.19,5.28
		c0.997,1.528,2.257,2.74,3.786,3.637c1.526,0.896,3.32,1.345,5.379,1.345c2.125,0,3.936-0.448,5.429-1.345
		c1.495-0.896,2.74-2.108,3.736-3.637c0.997-1.527,1.726-3.287,2.192-5.28c0.464-1.992,0.695-4.05,0.695-6.176
		C103.264,119.096,103.03,117.004,102.566,115.011z"/>
	<path fill="#F4D019" d="M133.975,95.487v9.562h0.199c0.663-1.593,1.562-3.07,2.689-4.432c1.129-1.36,2.424-2.523,3.886-3.487
		c1.46-0.961,3.021-1.708,4.681-2.241c1.66-0.53,3.39-0.797,5.183-0.797c0.929,0,1.958,0.167,3.088,0.499v13.149
		c-0.664-0.132-1.461-0.249-2.392-0.349c-0.932-0.1-1.827-0.15-2.688-0.15c-2.59,0-4.781,0.433-6.575,1.295
		c-1.793,0.864-3.237,2.042-4.332,3.536c-1.097,1.495-1.878,3.238-2.342,5.229c-0.466,1.993-0.697,4.151-0.697,6.475v23.21h-14.146
		v-51.5L133.975,95.487L133.975,95.487z"/>
	<path fill="#F4D019" d="M153.479,111.326c0.198-3.32,1.028-6.076,2.49-8.268c1.46-2.192,3.319-3.951,5.578-5.279
		c2.258-1.329,4.8-2.274,7.622-2.839c2.822-0.563,5.66-0.847,8.516-0.847c2.595,0,5.217,0.184,7.87,0.548
		c2.654,0.366,5.082,1.081,7.273,2.143c2.188,1.062,3.981,2.54,5.379,4.432c1.395,1.893,2.092,4.401,2.092,7.521v26.796
		c0,2.326,0.132,4.55,0.398,6.675c0.264,2.126,0.729,3.72,1.395,4.781h-14.344c-0.267-0.797-0.484-1.609-0.649-2.44
		c-0.163-0.829-0.279-1.677-0.347-2.54c-2.261,2.325-4.915,3.952-7.972,4.881c-3.054,0.931-6.175,1.396-9.363,1.396
		c-2.457,0-4.75-0.3-6.874-0.897c-2.126-0.598-3.984-1.525-5.578-2.789c-1.594-1.261-2.84-2.854-3.736-4.782
		c-0.896-1.925-1.345-4.216-1.345-6.873c0-2.921,0.516-5.33,1.544-7.222c1.029-1.892,2.356-3.402,3.985-4.532
		c1.627-1.128,3.487-1.976,5.579-2.541c2.091-0.563,4.198-1.012,6.326-1.345c2.126-0.332,4.215-0.597,6.272-0.797
		c2.062-0.199,3.886-0.498,5.48-0.897c1.593-0.398,2.853-0.979,3.782-1.743c0.933-0.763,1.361-1.876,1.298-3.337
		c0-1.527-0.249-2.74-0.749-3.636c-0.497-0.896-1.161-1.594-1.99-2.091c-0.832-0.499-1.793-0.83-2.889-0.997
		c-1.098-0.165-2.277-0.249-3.538-0.249c-2.79,0-4.98,0.597-6.573,1.793c-1.596,1.195-2.526,3.188-2.79,5.977h-14.146v-0.002
		H153.479z M186.154,121.786c-0.601,0.532-1.347,0.946-2.242,1.245c-0.896,0.299-1.859,0.548-2.889,0.747
		c-1.029,0.199-2.107,0.366-3.235,0.499c-1.132,0.134-2.261,0.298-3.389,0.498c-1.062,0.199-2.11,0.465-3.139,0.797
		c-1.032,0.333-1.928,0.781-2.689,1.345c-0.766,0.565-1.38,1.28-1.846,2.142c-0.464,0.864-0.695,1.959-0.695,3.288
		c0,1.263,0.231,2.325,0.695,3.188c0.466,0.864,1.101,1.545,1.896,2.042c0.796,0.499,1.725,0.848,2.79,1.047
		c1.06,0.199,2.155,0.298,3.286,0.298c2.79,0,4.943-0.464,6.475-1.394c1.526-0.93,2.655-2.042,3.39-3.338
		c0.729-1.294,1.178-2.605,1.345-3.935c0.165-1.328,0.249-2.391,0.249-3.188L186.154,121.786L186.154,121.786z"/>
	<path fill="#F4D019" d="M188.195,176.368v-13.149h58.274v13.149h-21.316v57.978h-15.642v-57.978H188.195z"/>
	<path fill="#F4D019" d="M252.259,182.844v9.562h0.199c0.663-1.594,1.56-3.07,2.688-4.434c1.13-1.359,2.424-2.521,3.887-3.485
		c1.459-0.962,3.021-1.709,4.682-2.241c1.659-0.531,3.387-0.797,5.18-0.797c0.932,0,1.959,0.166,3.091,0.498v13.147
		c-0.664-0.133-1.464-0.249-2.394-0.349c-0.931-0.101-1.827-0.149-2.688-0.149c-2.59,0-4.782,0.434-6.575,1.295
		c-1.793,0.863-3.236,2.042-4.332,3.536c-1.096,1.495-1.877,3.238-2.341,5.23c-0.467,1.992-0.697,4.15-0.697,6.475v23.211h-14.146
		v-51.502L252.259,182.844L252.259,182.844z"/>
	<path fill="#F4D019" d="M275.309,174.874v-11.655h14.146v11.655H275.309z M289.455,182.844v51.502h-14.146v-51.502H289.455z"/>
	<path fill="#F4D019" d="M344.145,238.131c-0.564,2.657-1.776,5.131-3.637,7.422c-1.857,2.292-4.55,4.234-8.067,5.828
		c-3.521,1.594-8.235,2.391-14.146,2.391c-2.522,0-5.098-0.314-7.72-0.944c-2.624-0.632-5.018-1.612-7.172-2.938
		c-2.16-1.33-3.953-3.039-5.38-5.13c-1.431-2.093-2.241-4.601-2.44-7.521h14.046c0.663,2.654,1.958,4.498,3.886,5.527
		c1.926,1.029,4.148,1.545,6.674,1.545c3.985,0,6.891-1.194,8.718-3.586c1.825-2.393,2.706-5.414,2.64-9.064v-6.773h-0.198
		c-1.526,2.726-3.702,4.73-6.523,6.027c-2.823,1.294-5.795,1.941-8.916,1.941c-3.854,0-7.172-0.682-9.962-2.043
		c-2.789-1.359-5.081-3.222-6.874-5.578s-3.104-5.113-3.937-8.27c-0.83-3.152-1.245-6.488-1.245-10.012
		c0-3.32,0.482-6.525,1.444-9.613c0.962-3.088,2.374-5.811,4.234-8.169c1.856-2.355,4.166-4.233,6.923-5.628
		c2.756-1.396,5.927-2.092,9.515-2.092c3.387,0,6.357,0.632,8.915,1.893c2.555,1.263,4.697,3.388,6.426,6.375h0.198v-6.873h13.449
		v48.216C344.991,233.117,344.707,235.475,344.145,238.131z M324.769,220.998c1.526-0.798,2.79-1.859,3.785-3.188
		c0.997-1.326,1.743-2.84,2.242-4.53c0.498-1.694,0.746-3.472,0.746-5.331c0-2.124-0.198-4.135-0.597-6.027
		c-0.399-1.892-1.064-3.567-1.993-5.03c-0.934-1.46-2.158-2.623-3.688-3.485c-1.527-0.863-3.453-1.296-5.776-1.296
		c-1.992,0-3.702,0.398-5.13,1.195c-1.431,0.797-2.624,1.877-3.587,3.237c-0.965,1.362-1.659,2.923-2.094,4.684
		c-0.433,1.762-0.646,3.604-0.646,5.528c0,1.858,0.181,3.702,0.548,5.528c0.363,1.826,0.995,3.471,1.894,4.932
		c0.896,1.46,2.074,2.656,3.534,3.586c1.461,0.932,3.289,1.396,5.479,1.396C321.48,222.193,323.24,221.794,324.769,220.998z"/>
	<path fill="#F4D019" d="M379.905,201.074v12.15h-29.984v-12.15H379.905z"/>
	<path fill="#F4D019" d="M104.319,272.534c1.261-3.354,3.054-6.209,5.379-8.568c2.323-2.354,5.111-4.183,8.368-5.478
		c3.254-1.297,6.904-1.942,10.958-1.942c4.05,0,7.72,0.646,11.008,1.942c3.287,1.295,6.092,3.121,8.417,5.478
		c2.324,2.359,4.118,5.216,5.379,8.568c1.262,3.354,1.894,7.09,1.894,11.207c0,4.116-0.632,7.837-1.894,11.155
		c-1.261,3.321-3.055,6.162-5.379,8.519c-2.325,2.358-5.13,4.168-8.417,5.43c-3.288,1.261-6.958,1.894-11.008,1.894
		c-4.054,0-7.704-0.633-10.958-1.894c-3.257-1.262-6.045-3.069-8.368-5.43c-2.325-2.354-4.118-5.195-5.379-8.519
		c-1.264-3.318-1.894-7.039-1.894-11.155C102.426,279.624,103.057,275.889,104.319,272.534z M117.17,289.768
		c0.398,1.961,1.079,3.722,2.042,5.279c0.962,1.562,2.241,2.809,3.835,3.735c1.594,0.932,3.587,1.396,5.979,1.396
		c2.391,0,4.397-0.464,6.024-1.396c1.627-0.929,2.922-2.175,3.887-3.735c0.962-1.561,1.645-3.318,2.041-5.279
		c0.398-1.957,0.6-3.969,0.6-6.024c0-2.058-0.199-4.084-0.6-6.078c-0.396-1.991-1.079-3.75-2.041-5.278
		c-0.965-1.527-2.26-2.771-3.887-3.734s-3.636-1.443-6.024-1.443c-2.392,0-4.386,0.48-5.979,1.443s-2.873,2.207-3.835,3.734
		c-0.963,1.528-1.644,3.287-2.042,5.278c-0.398,1.994-0.598,4.021-0.598,6.078C116.572,285.799,116.771,287.811,117.17,289.768z"/>
	<path fill="#F4D019" d="M172.148,257.939v7.172h0.299c1.793-2.987,4.115-5.162,6.974-6.524c2.854-1.36,5.776-2.041,8.767-2.041
		c3.784,0,6.89,0.515,9.312,1.543c2.425,1.031,4.334,2.458,5.729,4.283c1.395,1.828,2.373,4.053,2.938,6.675
		c0.563,2.624,0.847,5.529,0.847,8.717v31.68h-14.146v-29.09c0-4.248-0.665-7.42-1.992-9.513c-1.329-2.093-3.687-3.139-7.073-3.139
		c-3.853,0-6.641,1.146-8.368,3.438c-1.727,2.291-2.589,6.061-2.589,11.307v26.994H158.7v-51.502H172.148L172.148,257.939z"/>
	<path fill="#F4D019" d="M211.765,272.534c1.262-3.354,3.055-6.209,5.38-8.568c2.323-2.354,5.113-4.183,8.366-5.478
		c3.254-1.297,6.907-1.942,10.959-1.942c4.05,0,7.722,0.646,11.009,1.942c3.285,1.295,6.092,3.121,8.416,5.478
		c2.324,2.359,4.117,5.216,5.381,8.568c1.262,3.354,1.894,7.09,1.894,11.207c0,4.116-0.632,7.837-1.894,11.155
		c-1.264,3.321-3.057,6.162-5.381,8.519c-2.324,2.358-5.131,4.168-8.416,5.43c-3.287,1.261-6.959,1.894-11.009,1.894
		c-4.052,0-7.705-0.633-10.959-1.894c-3.253-1.262-6.043-3.069-8.366-5.43c-2.325-2.354-4.118-5.195-5.38-8.519
		c-1.264-3.318-1.894-7.039-1.894-11.155C209.871,279.624,210.501,275.889,211.765,272.534z M224.614,289.768
		c0.396,1.961,1.079,3.722,2.043,5.279c0.961,1.562,2.241,2.809,3.835,3.735c1.594,0.932,3.586,1.396,5.978,1.396
		s4.398-0.464,6.026-1.396c1.626-0.929,2.922-2.175,3.886-3.735c0.961-1.561,1.646-3.318,2.041-5.279
		c0.398-1.957,0.599-3.969,0.599-6.024c0-2.058-0.198-4.084-0.599-6.078c-0.396-1.991-1.08-3.75-2.041-5.278
		c-0.964-1.527-2.26-2.771-3.886-3.734c-1.628-0.963-3.637-1.443-6.026-1.443c-2.392,0-4.384,0.48-5.978,1.443
		s-2.874,2.207-3.835,3.734c-0.964,1.528-1.646,3.287-2.043,5.278c-0.397,1.994-0.599,4.021-0.599,6.078
		C224.017,285.799,224.217,287.811,224.614,289.768z"/>
	<path fill="#F4D019" d="M279.684,257.939v6.975h0.199c1.857-2.657,4.102-4.715,6.725-6.178c2.624-1.461,5.629-2.19,9.016-2.19
		c3.254,0,6.227,0.632,8.916,1.892c2.688,1.266,4.73,3.487,6.127,6.677c1.526-2.259,3.602-4.249,6.227-5.979
		c2.622-1.726,5.729-2.589,9.313-2.589c2.723,0,5.245,0.332,7.571,0.995c2.321,0.665,4.314,1.729,5.977,3.188
		c1.659,1.465,2.954,3.373,3.885,5.729c0.932,2.358,1.396,5.196,1.396,8.517v34.469h-14.146v-29.188
		c0-1.727-0.064-3.354-0.197-4.882c-0.136-1.526-0.499-2.854-1.098-3.983c-0.598-1.129-1.479-2.023-2.64-2.688
		c-1.163-0.663-2.739-0.996-4.731-0.996s-3.604,0.383-4.833,1.146c-1.229,0.765-2.188,1.762-2.888,2.988
		c-0.698,1.229-1.163,2.624-1.396,4.184c-0.231,1.562-0.349,3.14-0.349,4.732v28.688H298.61v-28.889
		c0-1.527-0.034-3.037-0.103-4.533c-0.063-1.492-0.349-2.871-0.846-4.134c-0.498-1.262-1.33-2.273-2.49-3.038
		c-1.163-0.764-2.873-1.146-5.13-1.146c-0.665,0-1.545,0.147-2.641,0.448c-1.098,0.3-2.159,0.863-3.188,1.691
		c-1.03,0.832-1.91,2.026-2.641,3.588c-0.731,1.562-1.098,3.604-1.098,6.125v29.885h-14.146v-51.502H279.684L279.684,257.939z"/>
	<path fill="#F4D019" d="M379.906,276.17v12.152h-29.983V276.17H379.906z"/>
	<path fill="#F4D019" d="M239.855,369.12c2.125,2.059,5.181,3.088,9.166,3.088c2.854,0,5.312-0.712,7.369-2.142
		c2.061-1.43,3.321-2.939,3.787-4.533h12.452c-1.994,6.177-5.049,10.595-9.166,13.25c-4.118,2.656-9.1,3.982-14.94,3.982
		c-4.054,0-7.705-0.646-10.959-1.941c-3.255-1.295-6.012-3.139-8.269-5.528c-2.259-2.391-4.002-5.246-5.229-8.567
		c-1.23-3.317-1.846-6.973-1.846-10.957c0-3.851,0.63-7.438,1.896-10.758c1.26-3.318,3.053-6.19,5.379-8.617
		c2.324-2.424,5.096-4.334,8.316-5.729c3.222-1.395,6.788-2.091,10.709-2.091c4.385,0,8.201,0.846,11.454,2.54
		c3.255,1.691,5.931,3.969,8.021,6.822c2.091,2.856,3.602,6.109,4.532,9.764c0.93,3.652,1.26,7.471,0.997,11.457h-37.157
		C236.57,363.74,237.73,367.062,239.855,369.12z M255.845,342.023c-1.69-1.858-4.267-2.789-7.72-2.789
		c-2.258,0-4.133,0.383-5.629,1.146c-1.493,0.766-2.689,1.71-3.586,2.839c-0.896,1.13-1.527,2.325-1.895,3.587
		c-0.363,1.264-0.582,2.393-0.646,3.387h23.011C258.717,346.605,257.539,343.884,255.845,342.023z"/>
	<path fill="#F4D019" d="M303.741,329.97v9.466h-10.36v25.5c0,2.393,0.398,3.984,1.196,4.782c0.796,0.796,2.39,1.195,4.781,1.195
		c0.797,0,1.56-0.032,2.292-0.101c0.729-0.065,1.426-0.164,2.091-0.301v10.959c-1.194,0.198-2.525,0.332-3.984,0.397
		c-1.462,0.065-2.889,0.101-4.283,0.101c-2.191,0-4.269-0.147-6.227-0.447c-1.96-0.299-3.688-0.879-5.18-1.744
		c-1.495-0.861-2.677-2.09-3.536-3.686c-0.864-1.595-1.295-3.687-1.295-6.275v-30.383h-8.568v-9.466h8.568V314.53h14.145v15.438
		L303.741,329.97L303.741,329.97z"/>
	<path fill="#F4D019" d="M318.761,329.97v9.563h0.199c0.663-1.594,1.56-3.071,2.689-4.434c1.129-1.359,2.423-2.522,3.886-3.485
		c1.459-0.962,3.021-1.709,4.682-2.241c1.659-0.532,3.387-0.797,5.18-0.797c0.932,0,1.959,0.166,3.091,0.497v13.147
		c-0.664-0.132-1.462-0.248-2.394-0.349c-0.931-0.101-1.827-0.147-2.688-0.147c-2.589,0-4.782,0.434-6.575,1.295
		c-1.793,0.862-3.237,2.041-4.332,3.535c-1.096,1.494-1.877,3.237-2.341,5.229c-0.466,1.991-0.697,4.151-0.697,6.478v23.209h-14.146
		V329.97H318.761z"/>
	<path fill="#F4D019" d="M357.89,396.812c-2.725,1.793-6.509,2.688-11.354,2.688c-1.461,0-2.905-0.049-4.333-0.146
		c-1.43-0.102-2.874-0.218-4.333-0.35V387.35c1.327,0.133,2.688,0.267,4.084,0.398c1.394,0.133,2.789,0.166,4.184,0.1
		c1.858-0.197,3.237-0.931,4.135-2.188c0.896-1.265,1.347-2.658,1.347-4.187c0-1.129-0.199-2.189-0.6-3.188l-18.029-48.314h15.043
		l11.652,35.268h0.199l11.257-35.268h14.646l-21.52,57.879C362.737,392.031,360.611,395.02,357.89,396.812z"/>
	<g>
		<path fill="#FFFFFF" d="M161.546,175.693c-0.247,0.146-0.59,0.22-1.028,0.22c-0.368,0-0.665-0.104-0.884-0.312
			c-0.22-0.208-0.33-0.55-0.33-1.021c-0.393,0.472-0.851,0.812-1.374,1.021c-0.521,0.206-1.087,0.312-1.691,0.312
			c-0.396,0-0.77-0.045-1.121-0.135c-0.354-0.091-0.66-0.23-0.919-0.423c-0.261-0.188-0.464-0.438-0.615-0.75
			c-0.152-0.31-0.229-0.682-0.229-1.119c0-0.494,0.084-0.9,0.255-1.215c0.168-0.313,0.391-0.569,0.666-0.769
			c0.273-0.195,0.59-0.346,0.941-0.445c0.354-0.103,0.717-0.186,1.088-0.253c0.396-0.08,0.769-0.138,1.121-0.177
			c0.354-0.041,0.665-0.096,0.938-0.169c0.27-0.073,0.48-0.18,0.641-0.32c0.157-0.141,0.235-0.346,0.235-0.614
			c0-0.314-0.061-0.567-0.178-0.76c-0.117-0.19-0.271-0.337-0.455-0.438c-0.186-0.102-0.394-0.169-0.622-0.202
			c-0.23-0.034-0.458-0.051-0.685-0.051c-0.605,0-1.113,0.115-1.518,0.346c-0.405,0.23-0.624,0.666-0.658,1.307h-1.434
			c0.021-0.539,0.136-0.994,0.338-1.364c0.201-0.371,0.473-0.672,0.81-0.902c0.337-0.229,0.722-0.396,1.155-0.497
			c0.433-0.102,0.896-0.152,1.391-0.152c0.396,0,0.784,0.028,1.172,0.086c0.389,0.056,0.738,0.171,1.055,0.345
			c0.312,0.173,0.565,0.417,0.759,0.73c0.19,0.314,0.288,0.724,0.288,1.229v4.475c0,0.337,0.018,0.584,0.057,0.741
			c0.04,0.157,0.172,0.234,0.398,0.234c0.122,0,0.27-0.022,0.437-0.067L161.546,175.693L161.546,175.693z M159.221,171.229
			c-0.181,0.133-0.417,0.23-0.708,0.293c-0.293,0.062-0.599,0.111-0.919,0.15c-0.318,0.039-0.644,0.084-0.97,0.133
			c-0.326,0.053-0.618,0.133-0.877,0.244c-0.259,0.111-0.469,0.271-0.632,0.479s-0.244,0.488-0.244,0.848
			c0,0.234,0.047,0.434,0.143,0.596c0.098,0.163,0.222,0.293,0.371,0.396c0.151,0.101,0.329,0.172,0.531,0.217
			s0.416,0.067,0.641,0.067c0.474,0,0.877-0.064,1.213-0.192c0.34-0.129,0.613-0.291,0.826-0.486
			c0.214-0.195,0.372-0.409,0.475-0.638c0.101-0.229,0.15-0.445,0.15-0.646V171.229z"/>
		<path fill="#FFFFFF" d="M164.334,167.013v1.382h0.035c0.596-1.057,1.538-1.585,2.831-1.585c0.573,0,1.051,0.079,1.434,0.236
			c0.381,0.157,0.69,0.377,0.927,0.657c0.235,0.281,0.402,0.615,0.497,1.004c0.098,0.388,0.146,0.817,0.146,1.289v5.73h-1.434
			v-5.898c0-0.54-0.157-0.967-0.474-1.281c-0.312-0.314-0.748-0.473-1.299-0.473c-0.438,0-0.817,0.066-1.138,0.202
			c-0.321,0.135-0.588,0.325-0.801,0.572c-0.216,0.248-0.375,0.537-0.48,0.868c-0.106,0.332-0.158,0.694-0.158,1.088v4.922h-1.435
			v-8.715L164.334,167.013L164.334,167.013z"/>
		<path fill="#FFFFFF" d="M178.77,175.729v-1.18h-0.032c-0.236,0.481-0.606,0.83-1.112,1.044c-0.506,0.213-1.062,0.32-1.67,0.32
			c-0.674,0-1.261-0.124-1.762-0.371c-0.5-0.247-0.916-0.579-1.247-0.993c-0.332-0.416-0.582-0.898-0.751-1.45
			c-0.168-0.551-0.252-1.137-0.252-1.755c0-0.618,0.08-1.201,0.242-1.752c0.163-0.551,0.41-1.031,0.741-1.44
			c0.332-0.41,0.748-0.736,1.248-0.979c0.5-0.243,1.08-0.363,1.745-0.363c0.225,0,0.467,0.022,0.725,0.067
			c0.261,0.045,0.52,0.121,0.775,0.229c0.259,0.106,0.502,0.247,0.732,0.422c0.229,0.175,0.426,0.391,0.583,0.648h0.032v-4.484
			h1.435v12.036L178.77,175.729L178.77,175.729z M173.618,172.634c0.105,0.388,0.27,0.733,0.489,1.038
			c0.22,0.304,0.5,0.544,0.843,0.725c0.343,0.18,0.745,0.27,1.206,0.27c0.48,0,0.892-0.094,1.229-0.286
			c0.337-0.19,0.612-0.44,0.826-0.749c0.212-0.311,0.368-0.66,0.464-1.054c0.094-0.395,0.144-0.794,0.144-1.197
			c0-0.427-0.051-0.84-0.15-1.239c-0.103-0.397-0.263-0.75-0.48-1.054c-0.221-0.304-0.505-0.548-0.852-0.733
			c-0.349-0.186-0.77-0.277-1.265-0.277c-0.483,0-0.896,0.096-1.23,0.287c-0.337,0.189-0.604,0.442-0.81,0.759
			c-0.202,0.313-0.35,0.674-0.438,1.077c-0.091,0.406-0.135,0.822-0.135,1.249C173.459,171.85,173.512,172.247,173.618,172.634z"/>
	</g>
</g>
</svg>
