<?xml version="1.0" encoding="utf-8"?>
<!-- Generator: Adobe Illustrator 19.2.0, SVG Export Plug-In . SVG Version: 6.00 Build 0)  -->
<svg version="1.1" xmlns="http://www.w3.org/2000/svg" xmlns:xlink="http://www.w3.org/1999/xlink" x="0px" y="0px"
	 viewBox="0 0 188.7 93.8" style="enable-background:new 0 0 188.7 93.8;" xml:space="preserve">
<style type="text/css">
	.st0{fill:#FFFFFF;}
	.st1{fill:#424242;}
	.st2{fill:#9A9A9B;}
	.st3{fill:#0DC0DC;}
	.st4{fill:none;stroke:#5E6062;stroke-miterlimit:10;}
	.st5{fill:#5E6062;}
	.st6{fill-rule:evenodd;clip-rule:evenodd;fill:#E5E5E5;}
	.st7{fill:#E5E5E5;}
	.st8{clip-path:url(#SVGID_1_);}
	.st9{opacity:0.9;fill:#F47641;}
	.st10{opacity:0.88;fill:#F47641;}
	.st11{fill:#FFBD3E;}
	.st12{clip-path:url(#SVGID_7_);}
	.st13{fill:#77AF42;}
	.st14{fill:#F4D019;}
	.st15{clip-path:url(#SVGID_11_);}
	.st16{filter:url(#Adobe_OpacityMaskFilter);}
	.st17{clip-path:url(#SVGID_14_);fill:url(#SVGID_16_);}
	.st18{clip-path:url(#SVGID_14_);mask:url(#SVGID_15_);}
	.st19{opacity:0.6;fill:#0DC0DC;}
	.st20{fill:#F47641;}
	.st21{fill:#F0F0F0;}
	.st22{fill:#222C65;}
	.st23{fill:#F37640;}
	.st24{fill:#0C9390;}
	.st25{fill:#00246A;}
	.st26{fill:#F47642;}
	.st27{clip-path:url(#SVGID_26_);}
	.st28{clip-path:url(#SVGID_27_);fill:#F47641;}
	.st29{clip-path:url(#SVGID_27_);}
	.st30{clip-path:url(#SVGID_28_);fill:#FFFFFF;}
	.st31{fill:#76B042;}
	.st32{fill:#212E66;}
	.st33{clip-path:url(#SVGID_29_);fill:#222F66;}
	.st34{clip-path:url(#SVGID_29_);fill:#FFFFFF;}
	.st35{clip-path:url(#SVGID_29_);}
	.st36{clip-path:url(#SVGID_30_);fill:#FFFFFF;}
	.st37{clip-path:url(#SVGID_32_);}
	.st38{fill:none;}
	.st39{opacity:0.2;fill:#E5E5E5;}
	.st40{opacity:0.5;fill:none;stroke:#E5E5E5;}
</style>
<symbol  id="Logo" viewBox="15 -60.7 200 45.7">
	<g>
		<g>
			<g>
				<path class="st0" d="M99-39.6c0,0.9,0.2,1.7,0.5,2.5c0.3,0.8,0.7,1.4,1.3,2c0.5,0.6,1.2,1,2,1.3c0.8,0.3,1.6,0.5,2.5,0.5
					c0.9,0,1.7-0.2,2.5-0.5c0.8-0.3,1.4-0.7,2-1.3c0.6-0.6,1-1.2,1.3-2c0.3-0.8,0.5-1.6,0.5-2.5c0-0.9-0.2-1.7-0.5-2.5
					c-0.3-0.8-0.7-1.4-1.3-2c-0.6-0.6-1.2-1-2-1.3c-0.8-0.3-1.6-0.5-2.5-0.5c-0.9,0-1.8,0.2-2.5,0.5c-0.8,0.3-1.4,0.7-2,1.3
					c-0.5,0.6-1,1.2-1.3,2C99.1-41.4,99-40.5,99-39.6z M100.5-39.6c0-0.7,0.1-1.3,0.3-1.9c0.2-0.6,0.5-1.1,0.9-1.5
					c0.4-0.4,0.9-0.8,1.5-1c0.6-0.3,1.2-0.4,2-0.4c0.7,0,1.4,0.1,2,0.4c0.6,0.3,1.1,0.6,1.5,1c0.4,0.4,0.7,1,0.9,1.5
					c0.2,0.6,0.3,1.2,0.3,1.9c0,0.7-0.1,1.3-0.3,1.9c-0.2,0.6-0.5,1.1-0.9,1.5c-0.4,0.4-0.9,0.8-1.5,1c-0.6,0.3-1.2,0.4-2,0.4
					c-0.7,0-1.4-0.1-2-0.4c-0.6-0.3-1.1-0.6-1.5-1c-0.4-0.4-0.7-1-0.9-1.5C100.6-38.3,100.5-39,100.5-39.6z"/>
				<path class="st0" d="M114.6-33.7h1.5v-2.1h0.1c0.2,0.4,0.5,0.8,0.9,1.1c0.4,0.3,0.8,0.5,1.2,0.7c0.4,0.2,0.9,0.3,1.3,0.4
					c0.5,0.1,0.9,0.1,1.4,0.1c0.9,0,1.7-0.2,2.5-0.5c0.8-0.3,1.4-0.7,2-1.3c0.6-0.6,1-1.2,1.3-2c0.3-0.8,0.5-1.6,0.5-2.5
					c0-0.9-0.2-1.7-0.5-2.5c-0.3-0.8-0.7-1.4-1.3-2c-0.6-0.6-1.2-1-2-1.3c-0.8-0.3-1.6-0.5-2.5-0.5c-0.4,0-0.9,0-1.4,0.1
					c-0.5,0.1-0.9,0.2-1.3,0.4c-0.4,0.2-0.8,0.4-1.2,0.7c-0.4,0.3-0.7,0.7-0.9,1.1h-0.1v-8h-1.5V-33.7z M116-39.6
					c0-0.7,0.1-1.3,0.4-1.9c0.3-0.6,0.6-1.1,1.1-1.5c0.4-0.4,1-0.8,1.6-1c0.6-0.3,1.3-0.4,2-0.4c0.7,0,1.4,0.1,2,0.4
					c0.6,0.3,1.1,0.6,1.5,1c0.4,0.4,0.7,1,0.9,1.5c0.2,0.6,0.3,1.2,0.3,1.9c0,0.7-0.1,1.3-0.3,1.9c-0.2,0.6-0.5,1.1-0.9,1.5
					c-0.4,0.4-0.9,0.8-1.5,1c-0.6,0.3-1.2,0.4-2,0.4c-0.7,0-1.4-0.1-2-0.4s-1.1-0.6-1.6-1c-0.4-0.4-0.8-1-1.1-1.5
					C116.1-38.3,116-39,116-39.6z"/>
				<path class="st0" d="M141.2-43.3c-0.6-0.9-1.3-1.6-2.2-2c-0.9-0.4-1.9-0.6-2.9-0.6c-0.9,0-1.7,0.2-2.5,0.5
					c-0.7,0.3-1.4,0.7-1.9,1.3c-0.5,0.6-0.9,1.2-1.2,2c-0.3,0.8-0.4,1.6-0.4,2.5c0,0.9,0.1,1.7,0.4,2.5c0.3,0.8,0.7,1.4,1.2,2
					c0.5,0.6,1.2,1,1.9,1.3c0.7,0.3,1.5,0.5,2.4,0.5c0.9,0,1.7-0.2,2.4-0.5c0.7-0.3,1.3-0.7,1.8-1.3c0.5-0.5,0.8-1.1,1.1-1.8
					c0.2-0.7,0.4-1.3,0.4-2V-40h-10c0-0.3,0.1-0.7,0.2-1.2c0.1-0.5,0.4-1,0.7-1.5c0.3-0.5,0.8-0.9,1.4-1.2c0.6-0.3,1.3-0.5,2.2-0.5
					c0.8,0,1.6,0.2,2.3,0.6c0.7,0.4,1.3,0.9,1.7,1.5L141.2-43.3z M140-38.6c0,0.5-0.1,1-0.3,1.5c-0.2,0.5-0.5,0.9-0.9,1.2
					c-0.4,0.4-0.8,0.6-1.3,0.8c-0.5,0.2-1,0.3-1.6,0.3c-0.8,0-1.5-0.2-2.1-0.5c-0.6-0.3-1-0.7-1.3-1.2c-0.3-0.4-0.6-0.9-0.7-1.3
					c-0.1-0.4-0.2-0.7-0.2-0.9H140z"/>
				<path class="st0" d="M145-37c0,0.2,0,0.5,0,0.8c0,0.3,0,0.6,0,1c0,0.3,0,0.6,0,0.9c0,0.3,0,0.5,0,0.7h1.5c0-0.4,0-0.9,0-1.3
					c0-0.4,0-0.7,0.1-0.8h0.1c0.3,0.7,0.8,1.2,1.5,1.7c0.7,0.5,1.6,0.7,2.5,0.7c0.9,0,1.7-0.1,2.3-0.4c0.6-0.3,1-0.7,1.4-1.1
					c0.3-0.5,0.6-1,0.7-1.6c0.1-0.6,0.2-1.3,0.2-1.9v-7.1h-1.5v7c0,0.5,0,0.9-0.1,1.4c-0.1,0.5-0.2,0.9-0.5,1.2
					c-0.2,0.4-0.5,0.6-0.9,0.9c-0.4,0.2-0.9,0.3-1.5,0.3c-0.6,0-1.1-0.1-1.6-0.3c-0.5-0.2-0.9-0.5-1.3-0.9c-0.4-0.4-0.7-0.9-0.9-1.5
					c-0.2-0.6-0.3-1.3-0.3-2.2v-5.9H145V-37z"/>
				<path class="st0" d="M165.6-36.6c-0.6,0.8-1.4,1.3-2.4,1.3c-0.4,0-0.8-0.1-1.2-0.3c-0.4-0.2-0.6-0.5-0.6-1
					c0-0.4,0.2-0.7,0.5-0.8c0.3-0.2,0.7-0.3,1.2-0.4c0.5-0.1,1-0.2,1.6-0.4c0.6-0.1,1.1-0.3,1.6-0.6c0.5-0.3,0.9-0.6,1.2-1.1
					c0.3-0.5,0.5-1.1,0.5-1.9c0-0.7-0.2-1.4-0.5-1.9c-0.3-0.5-0.7-0.9-1.2-1.2c-0.5-0.3-1.1-0.5-1.7-0.7c-0.6-0.1-1.3-0.2-1.9-0.2
					c-1,0-1.8,0.1-2.7,0.4c-0.8,0.3-1.5,0.8-2.2,1.5l2.1,1.9c0.4-0.4,0.8-0.8,1.3-1.1c0.5-0.3,1-0.4,1.7-0.4c0.2,0,0.5,0,0.7,0.1
					c0.2,0.1,0.5,0.1,0.7,0.3c0.2,0.1,0.4,0.3,0.5,0.5c0.1,0.2,0.2,0.4,0.2,0.6c0,0.4-0.2,0.7-0.5,1c-0.3,0.2-0.7,0.4-1.2,0.5
					c-0.5,0.1-1,0.2-1.6,0.4c-0.6,0.1-1.1,0.3-1.6,0.5s-0.9,0.6-1.2,1c-0.3,0.4-0.5,1.1-0.5,1.9c0,0.7,0.1,1.3,0.4,1.8
					c0.3,0.5,0.7,0.9,1.1,1.2c0.5,0.3,1,0.6,1.6,0.7c0.6,0.2,1.2,0.2,1.8,0.2c0.8,0,1.6-0.1,2.4-0.4c0.8-0.3,1.5-0.8,2-1.5
					L165.6-36.6z"/>
				<path class="st0" d="M169-35.8v2.6h2.5v3.6h3.1v-3.6h3.4v-2.6h-3.4v-5.4c0-0.6,0.1-1.1,0.3-1.5c0.2-0.4,0.7-0.5,1.4-0.5
					c0.3,0,0.6,0,0.9,0.1c0.3,0.1,0.6,0.2,0.8,0.3v-2.6c-0.3-0.2-0.7-0.3-1.2-0.3c-0.5-0.1-0.9-0.1-1.2-0.1c-0.8,0-1.5,0.1-2,0.3
					c-0.5,0.2-0.9,0.5-1.2,0.8c-0.3,0.4-0.5,0.8-0.6,1.4c-0.1,0.5-0.2,1.2-0.2,1.9v5.7H169z"/>
				<path class="st0" d="M188.2-43.9L188.2-43.9c-0.5-0.7-1.1-1.2-1.8-1.5c-0.7-0.3-1.4-0.5-2.3-0.5c-0.6,0-1.1,0.1-1.7,0.2
					c-0.5,0.2-1,0.4-1.4,0.7c-0.4,0.3-0.8,0.7-1,1.2c-0.3,0.5-0.4,1-0.4,1.6c0,0.7,0.1,1.2,0.4,1.7c0.2,0.5,0.6,0.9,1,1.2
					c0.4,0.3,0.9,0.6,1.4,0.8c0.5,0.2,1.1,0.3,1.7,0.4c0.6,0.1,1.2,0.2,1.7,0.2c0.6,0,1.1,0,1.6,0h0.8v0.3c0,0.8-0.3,1.4-0.8,1.7
					c-0.5,0.4-1.2,0.6-2,0.6c-0.7,0-1.3-0.1-1.8-0.3c-0.6-0.2-1.1-0.5-1.5-0.9l-1.6,1.6c0.7,0.7,1.5,1.2,2.4,1.5
					c0.9,0.3,1.9,0.5,2.8,0.5c0.9,0,1.6-0.1,2.2-0.3c0.6-0.2,1.1-0.5,1.5-0.8c0.4-0.3,0.7-0.7,0.9-1.1c0.2-0.4,0.4-0.8,0.5-1.2
					c0.1-0.4,0.2-0.8,0.2-1.2c0-0.4,0-0.7,0-1v-7.1h-2.8V-43.9z M188-40h-0.6c-0.4,0-0.9,0-1.4-0.1c-0.5,0-1-0.1-1.5-0.2
					c-0.5-0.1-0.9-0.3-1.2-0.6c-0.3-0.2-0.5-0.6-0.5-1c0-0.3,0.1-0.5,0.2-0.7c0.1-0.2,0.3-0.4,0.5-0.5c0.2-0.1,0.4-0.2,0.7-0.3
					c0.3-0.1,0.5-0.1,0.8-0.1c1.1,0,1.9,0.3,2.4,0.8c0.5,0.5,0.8,1.2,0.8,2.1V-40z"/>
				<path class="st0" d="M197.5-38.9l-4.3,5.7h3.8l2.5-3.7l2.7,3.7h3.5l-4.2-5.7l5-6.6h-3.8l-3.2,4.4l-3.2-4.4h-3.7L197.5-38.9z"/>
			</g>
			<g>
				<path class="st0" d="M208.9-33.8h-1.1v0.6h2.7v-0.6h-1.1v-2.9h-0.6V-33.8z M211.2-33.2h0.9l1-2.6l1,2.6h0.9v-3.5h-0.6v2.9h0
					l-1.1-2.9h-0.4l-1.1,2.9h0v-2.9h-0.6V-33.2z"/>
			</g>
		</g>
		<g>
			<path class="st0" d="M87.8-25.1c-0.1-1.3-1.2-2.3-2.5-2.3l-55.5,2.6c-1.3,0.1-2.3,1.2-2.3,2.5l0.2,4.9c0.1,1.3,1.2,2.3,2.5,2.3
				l55.5-2.6c1.3-0.1,2.3-1.2,2.3-2.5L87.8-25.1z"/>
			<path class="st0" d="M69.5-43.1c0-0.8-0.6-1.4-1.4-1.4H22.9c-0.8,0-1.4,0.6-1.4,1.4v7.1c0,0.8,0.6,1.4,1.4,1.4h45.2
				c0.8,0,1.4-0.6,1.4-1.4V-43.1z"/>
			<path class="st0" d="M83.4-50.8c0-0.8-0.6-1.4-1.3-1.5l-51-1.6c-0.8,0-1.4,0.6-1.4,1.4l-0.1,4.2c0,0.8,0.6,1.4,1.3,1.5l51,1.6
				c0.8,0,1.4-0.6,1.4-1.4L83.4-50.8z"/>
			<path class="st0" d="M76.6-59.3c0-0.8-0.6-1.4-1.3-1.4H26.6c-0.7,0-1.3,0.6-1.3,1.4v2.8c0,0.8,0.6,1.4,1.3,1.4h48.6
				c0.7,0,1.3-0.6,1.3-1.4V-59.3z"/>
			<path class="st0" d="M77.8-31.2c0-0.6-0.9-1.1-1.9-1.1h-59c-1.1,0-1.9,0.5-1.9,1.1v2.3c0,0.6,0.9,1.1,1.9,1.1h59
				c1.1,0,1.9-0.5,1.9-1.1V-31.2z"/>
		</g>
	</g>
</symbol>
<g id="footer">
</g>
<g id="allies">
</g>
<g id="impact">
</g>
<g id="give">
</g>
<g id="about">
</g>
<g id="feature">
</g>
<g id="home">
</g>
<g id="nav2">
	<g id="Logo_2">
	</g>
	<g id="Logo_2_1_">
	</g>
</g>
<g id="book-chemistry">
</g>
<g id="book-astronomy">
	<path class="st0" d="M23.6-0.4l15.9,42.6h-9.7l-3.2-9.5H10.6l-3.3,9.5h-9.4L14-0.4H23.6z M24.1,25.7l-5.4-15.6h-0.1l-5.5,15.6H24.1
		z M46,34.5c0.4,0.7,0.9,1.2,1.5,1.6c0.6,0.4,1.3,0.7,2.1,0.9c0.8,0.2,1.6,0.3,2.4,0.3c0.6,0,1.2-0.1,1.9-0.2
		c0.7-0.1,1.3-0.4,1.8-0.7s1-0.7,1.3-1.2c0.4-0.5,0.5-1.1,0.5-1.9c0-1.3-0.8-2.2-2.5-2.9c-1.7-0.6-4-1.3-7.1-1.9
		c-1.2-0.3-2.4-0.6-3.6-1c-1.2-0.4-2.2-0.9-3.1-1.5c-0.9-0.6-1.7-1.4-2.2-2.3c-0.6-0.9-0.8-2.1-0.8-3.4c0-2,0.4-3.6,1.2-4.9
		c0.8-1.3,1.8-2.3,3.1-3c1.3-0.7,2.7-1.3,4.3-1.6c1.6-0.3,3.2-0.4,4.9-0.4s3.3,0.2,4.9,0.5c1.6,0.3,3,0.9,4.2,1.6
		c1.2,0.8,2.3,1.8,3.1,3c0.8,1.3,1.3,2.8,1.5,4.7h-8.1c-0.1-1.6-0.7-2.7-1.9-3.3c-1.1-0.6-2.4-0.9-3.9-0.9c-0.5,0-1,0-1.6,0.1
		c-0.6,0.1-1.1,0.2-1.5,0.4c-0.5,0.2-0.8,0.5-1.2,0.9c-0.3,0.4-0.5,0.9-0.5,1.5c0,0.8,0.3,1.4,0.8,1.8c0.6,0.5,1.3,0.9,2.2,1.2
		c0.9,0.3,1.9,0.6,3.1,0.8c1.2,0.2,2.3,0.5,3.5,0.8c1.2,0.3,2.4,0.6,3.6,1c1.2,0.4,2.2,0.9,3.1,1.6c0.9,0.7,1.7,1.5,2.2,2.4
		c0.6,1,0.8,2.2,0.8,3.6c0,2-0.4,3.7-1.2,5.1c-0.8,1.4-1.9,2.5-3.2,3.3c-1.3,0.8-2.8,1.4-4.5,1.8c-1.7,0.3-3.4,0.5-5.2,0.5
		c-1.8,0-3.5-0.2-5.3-0.5c-1.7-0.4-3.2-1-4.6-1.8c-1.3-0.8-2.4-1.9-3.3-3.3c-0.9-1.4-1.3-3.1-1.4-5.2h8.1
		C45.4,33.1,45.6,33.9,46,34.5z M84.7,11.3V17h-6.2v15.3c0,1.4,0.2,2.4,0.7,2.9c0.5,0.5,1.4,0.7,2.9,0.7c0.5,0,0.9,0,1.4-0.1
		c0.4,0,0.9-0.1,1.3-0.2v6.6c-0.7,0.1-1.5,0.2-2.4,0.2c-0.9,0-1.7,0.1-2.6,0.1c-1.3,0-2.6-0.1-3.7-0.3c-1.2-0.2-2.2-0.5-3.1-1
		c-0.9-0.5-1.6-1.3-2.1-2.2c-0.5-1-0.8-2.2-0.8-3.8V17h-5.1v-5.7H70V2.1h8.5v9.2H84.7z M93.7,11.3v5.7h0.1c0.4-1,0.9-1.8,1.6-2.7
		c0.7-0.8,1.5-1.5,2.3-2.1c0.9-0.6,1.8-1,2.8-1.3c1-0.3,2-0.5,3.1-0.5c0.6,0,1.2,0.1,1.8,0.3v7.9c-0.4-0.1-0.9-0.1-1.4-0.2
		c-0.6-0.1-1.1-0.1-1.6-0.1c-1.6,0-2.9,0.3-3.9,0.8c-1.1,0.5-1.9,1.2-2.6,2.1c-0.7,0.9-1.1,1.9-1.4,3.1c-0.3,1.2-0.4,2.5-0.4,3.9
		v13.9h-8.5V11.3H93.7z M105.7,20.1c0.8-2,1.8-3.7,3.2-5.1c1.4-1.4,3.1-2.5,5-3.3c1.9-0.8,4.1-1.2,6.6-1.2c2.4,0,4.6,0.4,6.6,1.2
		c2,0.8,3.6,1.9,5,3.3c1.4,1.4,2.5,3.1,3.2,5.1c0.8,2,1.1,4.2,1.1,6.7c0,2.5-0.4,4.7-1.1,6.7c-0.8,2-1.8,3.7-3.2,5.1
		c-1.4,1.4-3.1,2.5-5,3.3c-2,0.8-4.2,1.1-6.6,1.1c-2.4,0-4.6-0.4-6.6-1.1c-1.9-0.8-3.6-1.8-5-3.3c-1.4-1.4-2.5-3.1-3.2-5.1
		c-0.8-2-1.1-4.2-1.1-6.7C104.6,24.3,105,22.1,105.7,20.1z M113.4,30.4c0.2,1.2,0.6,2.2,1.2,3.2c0.6,0.9,1.3,1.7,2.3,2.2
		c1,0.6,2.1,0.8,3.6,0.8c1.4,0,2.6-0.3,3.6-0.8c1-0.6,1.8-1.3,2.3-2.2c0.6-0.9,1-2,1.2-3.2c0.2-1.2,0.4-2.4,0.4-3.6
		c0-1.2-0.1-2.4-0.4-3.6c-0.2-1.2-0.6-2.2-1.2-3.2c-0.6-0.9-1.4-1.7-2.3-2.2c-1-0.6-2.2-0.9-3.6-0.9c-1.4,0-2.6,0.3-3.6,0.9
		c-1,0.6-1.7,1.3-2.3,2.2c-0.6,0.9-1,2-1.2,3.2c-0.2,1.2-0.4,2.4-0.4,3.6C113.1,28,113.2,29.2,113.4,30.4z M146.4,11.3v4.3h0.2
		c1.1-1.8,2.5-3.1,4.2-3.9c1.7-0.8,3.5-1.2,5.3-1.2c2.3,0,4.1,0.3,5.6,0.9c1.5,0.6,2.6,1.5,3.4,2.6c0.8,1.1,1.4,2.4,1.8,4
		c0.3,1.6,0.5,3.3,0.5,5.2v19h-8.5V24.8c0-2.5-0.4-4.4-1.2-5.7c-0.8-1.3-2.2-1.9-4.2-1.9c-2.3,0-4,0.7-5,2.1c-1,1.4-1.6,3.6-1.6,6.8
		v16.2h-8.5V11.3H146.4z M188.2,22.2v7.3h-18v-7.3H188.2z M1.6,59.1c0.8-2,1.8-3.7,3.2-5.1c1.4-1.4,3.1-2.5,5-3.3
		c1.9-0.8,4.1-1.2,6.6-1.2c2.4,0,4.6,0.4,6.6,1.2c2,0.8,3.6,1.9,5,3.3c1.4,1.4,2.5,3.1,3.2,5.1c0.8,2,1.1,4.2,1.1,6.7
		c0,2.5-0.4,4.7-1.1,6.7c-0.8,2-1.8,3.7-3.2,5.1c-1.4,1.4-3.1,2.5-5,3.3c-2,0.8-4.2,1.1-6.6,1.1c-2.4,0-4.6-0.4-6.6-1.1
		c-1.9-0.8-3.6-1.8-5-3.3c-1.4-1.4-2.5-3.1-3.2-5.1c-0.8-2-1.1-4.2-1.1-6.7C0.5,63.3,0.9,61.1,1.6,59.1z M9.3,69.4
		c0.2,1.2,0.6,2.2,1.2,3.2c0.6,0.9,1.3,1.7,2.3,2.2c1,0.6,2.1,0.8,3.6,0.8c1.4,0,2.6-0.3,3.6-0.8c1-0.6,1.8-1.3,2.3-2.2
		c0.6-0.9,1-2,1.2-3.2c0.2-1.2,0.4-2.4,0.4-3.6c0-1.2-0.1-2.4-0.4-3.6c-0.2-1.2-0.6-2.2-1.2-3.2c-0.6-0.9-1.4-1.7-2.3-2.2
		c-1-0.6-2.2-0.9-3.6-0.9c-1.4,0-2.6,0.3-3.6,0.9c-1,0.6-1.7,1.3-2.3,2.2c-0.6,0.9-1,2-1.2,3.2C9.1,63.3,9,64.5,9,65.8
		C9,67,9.1,68.2,9.3,69.4z M42.4,50.3v4.2h0.1c1.1-1.6,2.5-2.8,4-3.7c1.6-0.9,3.4-1.3,5.4-1.3c1.9,0,3.7,0.4,5.3,1.1
		c1.6,0.8,2.8,2.1,3.7,4c0.9-1.4,2.2-2.5,3.7-3.6c1.6-1,3.4-1.6,5.6-1.6c1.6,0,3.1,0.2,4.5,0.6c1.4,0.4,2.6,1,3.6,1.9
		c1,0.9,1.8,2,2.3,3.4c0.6,1.4,0.8,3.1,0.8,5.1v20.6h-8.5V63.7c0-1,0-2-0.1-2.9c-0.1-0.9-0.3-1.7-0.7-2.4c-0.4-0.7-0.9-1.2-1.6-1.6
		c-0.7-0.4-1.6-0.6-2.8-0.6c-1.2,0-2.2,0.2-2.9,0.7c-0.7,0.5-1.3,1.1-1.7,1.8c-0.4,0.7-0.7,1.6-0.8,2.5c-0.1,0.9-0.2,1.9-0.2,2.8
		v17.2h-8.5V63.9c0-0.9,0-1.8-0.1-2.7c0-0.9-0.2-1.7-0.5-2.5c-0.3-0.8-0.8-1.4-1.5-1.8c-0.7-0.5-1.7-0.7-3.1-0.7
		c-0.4,0-0.9,0.1-1.6,0.3c-0.7,0.2-1.3,0.5-1.9,1c-0.6,0.5-1.1,1.2-1.6,2.1c-0.4,0.9-0.7,2.2-0.7,3.7v17.9h-8.5V50.3H42.4z
		 M95.4,90.4c-1.6,1.1-3.9,1.6-6.8,1.6c-0.9,0-1.7,0-2.6-0.1c-0.9-0.1-1.7-0.1-2.6-0.2v-7c0.8,0.1,1.6,0.2,2.4,0.2
		c0.8,0.1,1.7,0.1,2.5,0.1c1.1-0.1,1.9-0.6,2.5-1.3c0.5-0.8,0.8-1.6,0.8-2.5c0-0.7-0.1-1.3-0.4-1.9L80.4,50.3h9l7,21.1h0.1l6.7-21.1
		h8.8L99.2,85C98.3,87.5,97,89.3,95.4,90.4z"/>
</g>
<g id="boook-biology">
</g>
<g id="nav">
</g>
<g id="Mobile">
</g>
</svg>
