<svg xmlns="http://www.w3.org/2000/svg" viewBox="0 0 188.7 93.8"><style>.st0{fill:#fff}.st1{fill:#424242}.st2{fill:#9a9a9b}.st3{fill:#0dc0dc}.st4{fill:none;stroke:#5e6062;stroke-miterlimit:10}.st5{fill:#5e6062}.st6{fill-rule:evenodd;clip-rule:evenodd}.st6,.st7{fill:#e5e5e5}.st8{clip-path:url(#SVGID_1_)}.st10,.st9{fill:#f47641}.st9{opacity:.9}.st10{opacity:.88}.st11{fill:#ffbd3e}.st12{clip-path:url(#SVGID_7_)}.st13{fill:#77af42}.st14{fill:#f4d019}.st15{clip-path:url(#SVGID_11_)}.st16{filter:url(#Adobe_OpacityMaskFilter)}.st17,.st18{clip-path:url(#SVGID_14_)}.st17{fill:url(#SVGID_16_)}.st18{mask:url(#SVGID_15_)}.st19{opacity:.6;fill:#0dc0dc}.st20{fill:#f47641}.st21{fill:#f0f0f0}.st22{fill:#222c65}.st23{fill:#f37640}.st24{fill:#0c9390}.st25{fill:#00246a}.st26{fill:#f47642}.st27{clip-path:url(#SVGID_26_)}.st28{fill:#f47641}.st28,.st29{clip-path:url(#SVGID_27_)}.st30{clip-path:url(#SVGID_28_);fill:#fff}.st31{fill:#76b042}.st32{fill:#212e66}.st33{clip-path:url(#SVGID_29_);fill:#222f66}.st34{fill:#fff}.st34,.st35{clip-path:url(#SVGID_29_)}.st36{clip-path:url(#SVGID_30_);fill:#fff}.st37{clip-path:url(#SVGID_32_)}.st38{fill:none}.st39{opacity:.2;fill:#e5e5e5}.st40{opacity:.5;fill:none;stroke:#e5e5e5}</style><symbol id="Logo" viewBox="15 -60.7 200 45.7"><path class="st0" d="M99-39.6c0 .9.2 1.7.5 2.5s.7 1.4 1.3 2c.5.6 1.2 1 2 1.3.8.3 1.6.5 2.5.5.9 0 1.7-.2 2.5-.5s1.4-.7 2-1.3c.6-.6 1-1.2 1.3-2 .3-.8.5-1.6.5-2.5 0-.9-.2-1.7-.5-2.5s-.7-1.4-1.3-2c-.6-.6-1.2-1-2-1.3-.8-.3-1.6-.5-2.5-.5-.9 0-1.8.2-2.5.5-.8.3-1.4.7-2 1.3-.5.6-1 1.2-1.3 2-.4.7-.5 1.6-.5 2.5zm1.5 0c0-.7.1-1.3.3-1.9.2-.6.5-1.1.9-1.5.4-.4.9-.8 1.5-1 .6-.3 1.2-.4 2-.4.7 0 1.4.1 2 .4.6.3 1.1.6 1.5 1 .4.4.7 1 .9 1.5.2.6.3 1.2.3 1.9s-.1 1.3-.3 1.9c-.2.6-.5 1.1-.9 1.5-.4.4-.9.8-1.5 1-.6.3-1.2.4-2 .4-.7 0-1.4-.1-2-.4-.6-.3-1.1-.6-1.5-1-.4-.4-.7-1-.9-1.5-.2-.6-.3-1.3-.3-1.9zm14.1 5.9h1.5v-2.1h.1c.2.4.5.8.9 1.1.4.3.8.5 1.2.7.4.2.9.3 1.3.4.5.1.9.1 1.4.1.9 0 1.7-.2 2.5-.5s1.4-.7 2-1.3c.6-.6 1-1.2 1.3-2 .3-.8.5-1.6.5-2.5 0-.9-.2-1.7-.5-2.5s-.7-1.4-1.3-2c-.6-.6-1.2-1-2-1.3-.8-.3-1.6-.5-2.5-.5-.4 0-.9 0-1.4.1-.5.1-.9.2-1.3.4s-.8.4-1.2.7c-.4.3-.7.7-.9 1.1h-.1v-8h-1.5v18.1zm1.4-5.9c0-.7.1-1.3.4-1.9.3-.6.6-1.1 1.1-1.5.4-.4 1-.8 1.6-1 .6-.3 1.3-.4 2-.4s1.4.1 2 .4c.6.3 1.1.6 1.5 1 .4.4.7 1 .9 1.5.2.6.3 1.2.3 1.9s-.1 1.3-.3 1.9c-.2.6-.5 1.1-.9 1.5-.4.4-.9.8-1.5 1-.6.3-1.2.4-2 .4-.7 0-1.4-.1-2-.4s-1.1-.6-1.6-1c-.4-.4-.8-1-1.1-1.5-.3-.6-.4-1.3-.4-1.9zm25.2-3.7c-.6-.9-1.3-1.6-2.2-2-.9-.4-1.9-.6-2.9-.6-.9 0-1.7.2-2.5.5-.7.3-1.4.7-1.9 1.3-.5.6-.9 1.2-1.2 2-.3.8-.4 1.6-.4 2.5 0 .9.1 1.7.4 2.5.3.8.7 1.4 1.2 2 .5.6 1.2 1 1.9 1.3.7.3 1.5.5 2.4.5.9 0 1.7-.2 2.4-.5s1.3-.7 1.8-1.3c.5-.5.8-1.1 1.1-1.8.2-.7.4-1.3.4-2V-40h-10c0-.3.1-.7.2-1.2s.4-1 .7-1.5c.3-.5.8-.9 1.4-1.2.6-.3 1.3-.5 2.2-.5.8 0 1.6.2 2.3.6.7.4 1.3.9 1.7 1.5l1-1zm-1.2 4.7c0 .5-.1 1-.3 1.5-.2.5-.5.9-.9 1.2-.4.4-.8.6-1.3.8-.5.2-1 .3-1.6.3-.8 0-1.5-.2-2.1-.5-.6-.3-1-.7-1.3-1.2-.3-.4-.6-.9-.7-1.3-.1-.4-.2-.7-.2-.9h8.4zm5 1.6v3.4h1.5v-1.3c0-.4 0-.7.1-.8h.1c.3.7.8 1.2 1.5 1.7s1.6.7 2.5.7c.9 0 1.7-.1 2.3-.4.6-.3 1-.7 1.4-1.1.3-.5.6-1 .7-1.6.1-.6.2-1.3.2-1.9v-7.1h-1.5v7c0 .5 0 .9-.1 1.4-.1.5-.2.9-.5 1.2-.2.4-.5.6-.9.9-.4.2-.9.3-1.5.3s-1.1-.1-1.6-.3c-.5-.2-.9-.5-1.3-.9s-.7-.9-.9-1.5c-.2-.6-.3-1.3-.3-2.2v-5.9H145v8.4zm20.6.4c-.6.8-1.4 1.3-2.4 1.3-.4 0-.8-.1-1.2-.3-.4-.2-.6-.5-.6-1 0-.4.2-.7.5-.8.3-.2.7-.3 1.2-.4.5-.1 1-.2 1.6-.4.6-.1 1.1-.3 1.6-.6s.9-.6 1.2-1.1c.3-.5.5-1.1.5-1.9 0-.7-.2-1.4-.5-1.9s-.7-.9-1.2-1.2c-.5-.3-1.1-.5-1.7-.7-.6-.1-1.3-.2-1.9-.2-1 0-1.8.1-2.7.4-.8.3-1.5.8-2.2 1.5l2.1 1.9c.4-.4.8-.8 1.3-1.1.5-.3 1-.4 1.7-.4.2 0 .5 0 .7.1.2.1.5.1.7.3.2.1.4.3.5.5.1.2.2.4.2.6 0 .4-.2.7-.5 1-.3.2-.7.4-1.2.5-.5.1-1 .2-1.6.4-.6.1-1.1.3-1.6.5s-.9.6-1.2 1c-.3.4-.5 1.1-.5 1.9 0 .7.1 1.3.4 1.8.3.5.7.9 1.1 1.2.5.3 1 .6 1.6.7.6.2 1.2.2 1.8.2.8 0 1.6-.1 2.4-.4.8-.3 1.5-.8 2-1.5l-2.1-1.9zm3.4.8v2.6h2.5v3.6h3.1v-3.6h3.4v-2.6h-3.4v-5.4c0-.6.1-1.1.3-1.5.2-.4.7-.5 1.4-.5.3 0 .6 0 .9.1.3.1.6.2.8.3v-2.6c-.3-.2-.7-.3-1.2-.3-.5-.1-.9-.1-1.2-.1-.8 0-1.5.1-2 .3-.5.2-.9.5-1.2.8-.3.4-.5.8-.6 1.4-.1.5-.2 1.2-.2 1.9v5.7H169zm19.2-8.1c-.5-.7-1.1-1.2-1.8-1.5-.7-.3-1.4-.5-2.3-.5-.6 0-1.1.1-1.7.2-.5.2-1 .4-1.4.7-.4.3-.8.7-1 1.2-.3.5-.4 1-.4 1.6 0 .7.1 1.2.4 1.7.2.5.6.9 1 1.2.4.3.9.6 1.4.8.5.2 1.1.3 1.7.4.6.1 1.2.2 1.7.2h2.4v.3c0 .8-.3 1.4-.8 1.7-.5.4-1.2.6-2 .6-.7 0-1.3-.1-1.8-.3-.6-.2-1.1-.5-1.5-.9l-1.6 1.6c.7.7 1.5 1.2 2.4 1.5.9.3 1.9.5 2.8.5.9 0 1.6-.1 2.2-.3.6-.2 1.1-.5 1.5-.8.4-.3.7-.7.9-1.1.2-.4.4-.8.5-1.2.1-.4.2-.8.2-1.2v-8.1h-2.8v1.7zM188-40h-.6c-.4 0-.9 0-1.4-.1-.5 0-1-.1-1.5-.2s-.9-.3-1.2-.6c-.3-.2-.5-.6-.5-1 0-.3.1-.5.2-.7.1-.2.3-.4.5-.5.2-.1.4-.2.7-.3.3-.1.5-.1.8-.1 1.1 0 1.9.3 2.4.8s.8 1.2.8 2.1v.6zm9.5 1.1l-4.3 5.7h3.8l2.5-3.7 2.7 3.7h3.5l-4.2-5.7 5-6.6h-3.8l-3.2 4.4-3.2-4.4h-3.7l4.9 6.6zm11.4 5.1h-1.1v.6h2.7v-.6h-1.1v-2.9h-.6v2.9zm2.3.6h.9l1-2.6 1 2.6h.9v-3.5h-.6v2.9l-1.1-2.9h-.4l-1.1 2.9v-2.9h-.6v3.5zM87.8-25.1c-.1-1.3-1.2-2.3-2.5-2.3l-55.5 2.6c-1.3.1-2.3 1.2-2.3 2.5l.2 4.9c.1 1.3 1.2 2.3 2.5 2.3l55.5-2.6c1.3-.1 2.3-1.2 2.3-2.5l-.2-4.9zm-18.3-18c0-.8-.6-1.4-1.4-1.4H22.9c-.8 0-1.4.6-1.4 1.4v7.1c0 .8.6 1.4 1.4 1.4h45.2c.8 0 1.4-.6 1.4-1.4v-7.1zm13.9-7.7c0-.8-.6-1.4-1.3-1.5l-51-1.6c-.8 0-1.4.6-1.4 1.4l-.1 4.2c0 .8.6 1.4 1.3 1.5l51 1.6c.8 0 1.4-.6 1.4-1.4l.1-4.2zm-6.8-8.5c0-.8-.6-1.4-1.3-1.4H26.6c-.7 0-1.3.6-1.3 1.4v2.8c0 .8.6 1.4 1.3 1.4h48.6c.7 0 1.3-.6 1.3-1.4v-2.8zm1.2 28.1c0-.6-.9-1.1-1.9-1.1h-59c-1.1 0-1.9.5-1.9 1.1v2.3c0 .6.9 1.1 1.9 1.1h59c1.1 0 1.9-.5 1.9-1.1v-2.3z"/></symbol><path class="st0" d="M23.6-.4l15.9 42.6h-9.7l-3.2-9.5h-16l-3.3 9.5h-9.4L14-.4h9.6zm.5 26.1l-5.4-15.6h-.1l-5.5 15.6h11zM46 34.5c.4.7.9 1.2 1.5 1.6.6.4 1.3.7 2.1.9.8.2 1.6.3 2.4.3.6 0 1.2-.1 1.9-.2s1.3-.4 1.8-.7 1-.7 1.3-1.2c.4-.5.5-1.1.5-1.9 0-1.3-.8-2.2-2.5-2.9-1.7-.6-4-1.3-7.1-1.9-1.2-.3-2.4-.6-3.6-1-1.2-.4-2.2-.9-3.1-1.5-.9-.6-1.7-1.4-2.2-2.3-.6-.9-.8-2.1-.8-3.4 0-2 .4-3.6 1.2-4.9.8-1.3 1.8-2.3 3.1-3 1.3-.7 2.7-1.3 4.3-1.6 1.6-.3 3.2-.4 4.9-.4s3.3.2 4.9.5c1.6.3 3 .9 4.2 1.6 1.2.8 2.3 1.8 3.1 3 .8 1.3 1.3 2.8 1.5 4.7h-8.1c-.1-1.6-.7-2.7-1.9-3.3-1.1-.6-2.4-.9-3.9-.9-.5 0-1 0-1.6.1-.6.1-1.1.2-1.5.4-.5.2-.8.5-1.2.9-.3.4-.5.9-.5 1.5 0 .8.3 1.4.8 1.8.6.5 1.3.9 2.2 1.2.9.3 1.9.6 3.1.8 1.2.2 2.3.5 3.5.8 1.2.3 2.4.6 3.6 1 1.2.4 2.2.9 3.1 1.6.9.7 1.7 1.5 2.2 2.4.6 1 .8 2.2.8 3.6 0 2-.4 3.7-1.2 5.1-.8 1.4-1.9 2.5-3.2 3.3-1.3.8-2.8 1.4-4.5 1.8-1.7.3-3.4.5-5.2.5-1.8 0-3.5-.2-5.3-.5-1.7-.4-3.2-1-4.6-1.8-1.3-.8-2.4-1.9-3.3-3.3-.9-1.4-1.3-3.1-1.4-5.2h8.1c0 1.1.2 1.9.6 2.5zm38.7-23.2V17h-6.2v15.3c0 1.4.2 2.4.7 2.9.5.5 1.4.7 2.9.7.5 0 .9 0 1.4-.1.4 0 .9-.1 1.3-.2v6.6c-.7.1-1.5.2-2.4.2-.9 0-1.7.1-2.6.1-1.3 0-2.6-.1-3.7-.3-1.2-.2-2.2-.5-3.1-1-.9-.5-1.6-1.3-2.1-2.2-.5-1-.8-2.2-.8-3.8V17H65v-5.7h5V2.1h8.5v9.2h6.2zm9 0V17h.1c.4-1 .9-1.8 1.6-2.7.7-.8 1.5-1.5 2.3-2.1.9-.6 1.8-1 2.8-1.3 1-.3 2-.5 3.1-.5.6 0 1.2.1 1.8.3v7.9c-.4-.1-.9-.1-1.4-.2-.6-.1-1.1-.1-1.6-.1-1.6 0-2.9.3-3.9.8-1.1.5-1.9 1.2-2.6 2.1-.7.9-1.1 1.9-1.4 3.1-.3 1.2-.4 2.5-.4 3.9v13.9h-8.5V11.3h8.1zm12 8.8c.8-2 1.8-3.7 3.2-5.1 1.4-1.4 3.1-2.5 5-3.3 1.9-.8 4.1-1.2 6.6-1.2 2.4 0 4.6.4 6.6 1.2 2 .8 3.6 1.9 5 3.3s2.5 3.1 3.2 5.1c.8 2 1.1 4.2 1.1 6.7s-.4 4.7-1.1 6.7c-.8 2-1.8 3.7-3.2 5.1-1.4 1.4-3.1 2.5-5 3.3-2 .8-4.2 1.1-6.6 1.1-2.4 0-4.6-.4-6.6-1.1-1.9-.8-3.6-1.8-5-3.3-1.4-1.4-2.5-3.1-3.2-5.1-.8-2-1.1-4.2-1.1-6.7s.4-4.7 1.1-6.7zm7.7 10.3c.2 1.2.6 2.2 1.2 3.2.6.9 1.3 1.7 2.3 2.2 1 .6 2.1.8 3.6.8 1.4 0 2.6-.3 3.6-.8 1-.6 1.8-1.3 2.3-2.2.6-.9 1-2 1.2-3.2.2-1.2.4-2.4.4-3.6 0-1.2-.1-2.4-.4-3.6-.2-1.2-.6-2.2-1.2-3.2-.6-.9-1.4-1.7-2.3-2.2-1-.6-2.2-.9-3.6-.9s-2.6.3-3.6.9c-1 .6-1.7 1.3-2.3 2.2-.6.9-1 2-1.2 3.2-.2 1.2-.4 2.4-.4 3.6.1 1.2.2 2.4.4 3.6zm33-19.1v4.3h.2c1.1-1.8 2.5-3.1 4.2-3.9 1.7-.8 3.5-1.2 5.3-1.2 2.3 0 4.1.3 5.6.9 1.5.6 2.6 1.5 3.4 2.6.8 1.1 1.4 2.4 1.8 4 .3 1.6.5 3.3.5 5.2v19h-8.5V24.8c0-2.5-.4-4.4-1.2-5.7-.8-1.3-2.2-1.9-4.2-1.9-2.3 0-4 .7-5 2.1-1 1.4-1.6 3.6-1.6 6.8v16.2h-8.5v-31h8zm41.8 10.9v7.3h-18v-7.3h18zM1.6 59.1c.8-2 1.8-3.7 3.2-5.1 1.4-1.4 3.1-2.5 5-3.3 1.9-.8 4.1-1.2 6.6-1.2 2.4 0 4.6.4 6.6 1.2 2 .8 3.6 1.9 5 3.3s2.5 3.1 3.2 5.1c.8 2 1.1 4.2 1.1 6.7s-.4 4.7-1.1 6.7c-.8 2-1.8 3.7-3.2 5.1-1.4 1.4-3.1 2.5-5 3.3-2 .8-4.2 1.1-6.6 1.1-2.4 0-4.6-.4-6.6-1.1-1.9-.8-3.6-1.8-5-3.3-1.4-1.4-2.5-3.1-3.2-5.1-.8-2-1.1-4.2-1.1-6.7s.4-4.7 1.1-6.7zm7.7 10.3c.2 1.2.6 2.2 1.2 3.2.6.9 1.3 1.7 2.3 2.2 1 .6 2.1.8 3.6.8 1.4 0 2.6-.3 3.6-.8 1-.6 1.8-1.3 2.3-2.2.6-.9 1-2 1.2-3.2.2-1.2.4-2.4.4-3.6 0-1.2-.1-2.4-.4-3.6-.2-1.2-.6-2.2-1.2-3.2-.6-.9-1.4-1.7-2.3-2.2-1-.6-2.2-.9-3.6-.9s-2.6.3-3.6.9c-1 .6-1.7 1.3-2.3 2.2-.6.9-1 2-1.2 3.2-.2 1.1-.3 2.3-.3 3.6 0 1.2.1 2.4.3 3.6zm33.1-19.1v4.2h.1c1.1-1.6 2.5-2.8 4-3.7 1.6-.9 3.4-1.3 5.4-1.3 1.9 0 3.7.4 5.3 1.1 1.6.8 2.8 2.1 3.7 4 .9-1.4 2.2-2.5 3.7-3.6 1.6-1 3.4-1.6 5.6-1.6 1.6 0 3.1.2 4.5.6 1.4.4 2.6 1 3.6 1.9 1 .9 1.8 2 2.3 3.4.6 1.4.8 3.1.8 5.1V81h-8.5V63.7c0-1 0-2-.1-2.9-.1-.9-.3-1.7-.7-2.4-.4-.7-.9-1.2-1.6-1.6-.7-.4-1.6-.6-2.8-.6-1.2 0-2.2.2-2.9.7-.7.5-1.3 1.1-1.7 1.8-.4.7-.7 1.6-.8 2.5-.1.9-.2 1.9-.2 2.8v17.2h-8.5V63.9c0-.9 0-1.8-.1-2.7 0-.9-.2-1.7-.5-2.5s-.8-1.4-1.5-1.8c-.7-.5-1.7-.7-3.1-.7-.4 0-.9.1-1.6.3-.7.2-1.3.5-1.9 1-.6.5-1.1 1.2-1.6 2.1-.4.9-.7 2.2-.7 3.7v17.9h-8.5V50.3h8.3zm53 40.1c-1.6 1.1-3.9 1.6-6.8 1.6-.9 0-1.7 0-2.6-.1-.9-.1-1.7-.1-2.6-.2v-7c.8.1 1.6.2 2.4.2.8.1 1.7.1 2.5.1 1.1-.1 1.9-.6 2.5-1.3.5-.8.8-1.6.8-2.5 0-.7-.1-1.3-.4-1.9l-10.8-29h9l7 21.1h.1l6.7-21.1h8.8L99.2 85c-.9 2.5-2.2 4.3-3.8 5.4z" id="book-astronomy"/></svg>