<svg width="40" height="40" viewBox="0 0 40 40" fill="none" xmlns="http://www.w3.org/2000/svg">
<g clip-path="url(#clip0_518:664)">
<path d="M13.3333 12C13.3331 12.1768 13.2628 12.3462 13.1378 12.4712C13.0129 12.5962 12.8434 12.6665 12.6667 12.6667H12V14H12.6667C13.1969 13.9994 13.7053 13.7885 14.0802 13.4136C14.4552 13.0386 14.6661 12.5303 14.6667 12V11.3334H13.3333V12Z" fill="#424242"/>
<path d="M11.3334 10.6667C11.7016 10.6667 12.0001 10.3682 12.0001 10C12.0001 9.63185 11.7016 9.33337 11.3334 9.33337C10.9652 9.33337 10.6667 9.63185 10.6667 10C10.6667 10.3682 10.9652 10.6667 11.3334 10.6667Z" fill="#424242"/>
<path d="M15.3334 10.6667C15.7016 10.6667 16.0001 10.3682 16.0001 10C16.0001 9.63185 15.7016 9.33337 15.3334 9.33337C14.9652 9.33337 14.6667 9.63185 14.6667 10C14.6667 10.3682 14.9652 10.6667 15.3334 10.6667Z" fill="#424242"/>
<path d="M35.3333 31.3333C35.3345 30.2728 35.7564 29.2561 36.5062 28.5062C37.2561 27.7564 38.2728 27.3345 39.3333 27.3333C39.5101 27.3333 39.6797 27.2631 39.8047 27.1381C39.9298 27.013 40 26.8435 40 26.6667C40 26.4899 39.9298 26.3203 39.8047 26.1953C39.6797 26.0702 39.5101 26 39.3333 26H28C26.9835 26.0011 25.9885 26.2922 25.1318 26.8393C24.2751 27.3864 23.5924 28.1667 23.1639 29.0884L22.5397 28.0481L22.8193 27.9823C22.9901 27.9421 23.1381 27.8363 23.2313 27.6878C23.3246 27.5392 23.3555 27.3599 23.3175 27.1887L22.2265 22.2794C22.0883 21.6631 21.7786 21.0984 21.3333 20.6505V8C21.3333 5.87827 20.4905 3.84344 18.9902 2.34315C17.4899 0.842854 15.4551 0 13.3333 0C11.2116 0 9.17677 0.842854 7.67648 2.34315C6.17619 3.84344 5.33333 5.87827 5.33333 8V14C5.33838 15.9497 6.1154 17.8181 7.49443 19.1965L5.92741 20.1758C5.23616 20.6108 4.72727 21.2829 4.49611 22.0662C3.2432 22.267 2.10269 22.9073 1.27885 23.8724C0.455018 24.8376 0.00166962 26.0644 0 27.3333V39.3333C1.76808e-06 39.5101 0.0702401 39.6797 0.195264 39.8047C0.320288 39.9298 0.489856 40 0.666667 40H39.3333C39.5101 40 39.6797 39.9298 39.8047 39.8047C39.9298 39.6797 40 39.5101 40 39.3333V36C40 35.8232 39.9298 35.6536 39.8047 35.5286C39.6797 35.4036 39.5101 35.3333 39.3333 35.3333H35.3333V31.3333ZM28 27.3333H35.8093C35.2406 27.833 34.785 28.4483 34.473 29.1381C34.161 29.8279 33.9997 30.5763 34 31.3333V32.6667H24V31.3333C24.0012 30.2728 24.423 29.2561 25.1729 28.5062C25.9228 27.7564 26.9395 27.3345 28 27.3333ZM12 35.3333V34H23.3333V35.3333H12ZM8.66667 35.3333V34H10.6667V35.3333H8.66667ZM5.2017 28.1784L8 28.5782V29.3333C8 29.4987 8.06144 29.6581 8.17237 29.7807C8.28331 29.9033 8.43583 29.9803 8.60034 29.9967L15.267 30.6634C15.3605 30.6726 15.455 30.6621 15.5442 30.6324L19.1532 29.4294L20.6667 30.9428V32.6667H6.27612L4.71403 31.1045L5.2017 28.1784ZM22.6667 32.0876L22 31.6432V30.6667C22 30.4899 21.9298 30.3203 21.8048 30.1953L19.8628 28.2533L18.232 25.5354L19.1214 24.9425L22.6667 30.8513V32.0876ZM21.8195 26.8478L20.5084 24.6627C20.5611 24.6642 20.6136 24.6667 20.6667 24.6667C20.8037 24.6666 20.9375 24.6242 21.0496 24.5454C21.1617 24.4665 21.2468 24.355 21.2932 24.226L21.873 26.8352L21.8195 26.8478ZM6.66667 14V8C6.66667 6.23189 7.36905 4.5362 8.61929 3.28595C9.86953 2.03571 11.5652 1.33333 13.3333 1.33333C15.1014 1.33333 16.7971 2.03571 18.0474 3.28595C19.2976 4.5362 20 6.23189 20 8V23.2778C19.0684 23.119 18.223 22.6361 17.613 21.9143C17.0031 21.1925 16.6679 20.2783 16.6667 19.3333V16.1589C17.2906 15.6601 17.7944 15.0273 18.1406 14.3074C18.4868 13.5874 18.6666 12.7988 18.6667 12V7.33333C18.6667 7.15652 18.5964 6.98695 18.4714 6.86193C18.3464 6.73691 18.1768 6.66667 18 6.66667H13.7454L12.5963 4.36853C12.5409 4.25779 12.4558 4.16466 12.3505 4.09957C12.2452 4.03448 12.1238 4 12 4C11.8762 4 11.7548 4.03448 11.6495 4.09957C11.5442 4.16466 11.4591 4.25779 11.4037 4.36853L10.2546 6.66667H8.66667C8.48986 6.66667 8.32029 6.73691 8.19526 6.86193C8.07024 6.98695 8 7.15652 8 7.33333V12C8.00052 12.8958 8.22673 13.7771 8.65774 14.5625C9.08875 15.3478 9.71067 16.0119 10.4661 16.4935L10.11 17.5617L8.6615 18.467C8.03548 17.903 7.53455 17.2142 7.19097 16.4448C6.8474 15.6754 6.66879 14.8426 6.66667 14ZM13.8794 19.7164L11.4461 17.7698L11.6796 17.0696C12.754 17.4213 13.9126 17.4213 14.9871 17.0696L15.2571 17.8795L13.8794 19.7164ZM13.3333 16C12.2728 15.9988 11.2561 15.577 10.5062 14.8271C9.75633 14.0772 9.33452 13.0605 9.33333 12V8H10.6667C10.7905 8 10.9118 7.96552 11.0171 7.90043C11.1225 7.83534 11.2076 7.74221 11.2629 7.63147L12 6.15739L12.7371 7.63147C12.7924 7.74221 12.8775 7.83534 12.9829 7.90043C13.0882 7.96552 13.2095 8 13.3333 8H17.3333V12C17.3321 13.0605 16.9103 14.0772 16.1604 14.8271C15.4106 15.577 14.3938 15.9988 13.3333 16ZM6.63411 21.3065L10.6193 18.8158L13.3333 20.9871V25.3333H14.6667V20.8889L15.3702 19.9508C15.4699 20.7976 15.7707 21.6082 16.2476 22.3149C16.7245 23.0216 17.3636 23.604 18.1115 24.0133L16.9635 24.7786C16.821 24.8737 16.7205 25.0199 16.6829 25.1871C16.6453 25.3542 16.6735 25.5294 16.7616 25.6763L18.3341 28.297L15.2578 29.3225L9.33333 28.73V24.6667H8V27.2313L4.80697 26.7752L5.74178 22.5686C5.79996 22.3098 5.90876 22.0651 6.0619 21.8485C6.21504 21.6319 6.40951 21.4477 6.63411 21.3065ZM1.33333 27.3333C1.33443 26.4763 1.61028 25.6423 2.12036 24.9536C2.63045 24.265 3.3479 23.758 4.16736 23.5072L3.3492 27.1887C3.32966 27.2763 3.32805 27.367 3.34447 27.4552C3.36088 27.5435 3.39498 27.6275 3.44472 27.7022C3.49446 27.777 3.5588 27.8408 3.63388 27.8901C3.70895 27.9393 3.79321 27.9728 3.88157 27.9886L3.34237 31.2238C3.32495 31.3284 3.33276 31.4357 3.36515 31.5368C3.39753 31.6378 3.45355 31.7297 3.52856 31.8047L5.52856 33.8047C5.6536 33.9298 5.82318 34 6 34H7.33333V35.3333H1.33333V27.3333ZM38.6667 38.6667H1.33333V36.6667H38.6667V38.6667ZM24.6667 35.3333V34H34V35.3333H24.6667Z" fill="#424242"/>
</g>
<defs>
<clipPath id="clip0_518:664">
<rect width="40" height="40" fill="white"/>
</clipPath>
</defs>
</svg>
