<?xml version="1.0" encoding="utf-8"?>
<!-- Generator: Adobe Illustrator 19.2.1, SVG Export Plug-In . SVG Version: 6.00 Build 0)  -->
<svg version="1.1" id="Layer_1" xmlns="http://www.w3.org/2000/svg" xmlns:xlink="http://www.w3.org/1999/xlink" x="0px" y="0px"
	 viewBox="0 0 400 400" style="enable-background:new 0 0 400 400;" xml:space="preserve">
<style type="text/css">
	.st0{fill:#5E6062;}
</style>
<g>
	<g>
		<path class="st0" d="M221.4,86.8c4.6,0,8.8,0.4,12.6,1.2c3.8,0.8,7,2.1,9.7,4c2.7,1.8,4.8,4.3,6.3,7.4c1.5,3.1,2.2,6.8,2.2,11.3
			c0,4.9-1.1,8.9-3.3,12.2c-2.2,3.2-5.5,5.9-9.8,8c5.9,1.7,10.4,4.7,13.3,9c2.9,4.3,4.4,9.4,4.4,15.5c0,4.9-0.9,9.1-2.8,12.6
			c-1.9,3.6-4.4,6.5-7.6,8.7c-3.2,2.3-6.8,3.9-10.9,5c-4.1,1.1-8.3,1.6-12.6,1.6H176V86.8H221.4z M218.7,125.9
			c3.8,0,6.9-0.9,9.3-2.7c2.4-1.8,3.6-4.7,3.6-8.8c0-2.2-0.4-4.1-1.2-5.5c-0.8-1.4-1.9-2.6-3.2-3.4c-1.4-0.8-2.9-1.4-4.7-1.7
			c-1.8-0.3-3.6-0.5-5.5-0.5h-19.9v22.6H218.7z M219.9,166.8c2.1,0,4.1-0.2,5.9-0.6c1.9-0.4,3.6-1.1,5-2c1.4-0.9,2.6-2.2,3.4-3.9
			c0.9-1.6,1.3-3.7,1.3-6.2c0-5-1.4-8.5-4.2-10.6c-2.8-2.1-6.5-3.2-11.1-3.2h-23.1v26.5H219.9z"/>
		<path class="st0" d="M261.5,102.6V86.8h19.2v15.8H261.5z M280.6,113.4v69.8h-19.2v-69.8H280.6z"/>
		<path class="st0" d="M287.6,133.2c1.7-4.5,4.1-8.4,7.3-11.6c3.1-3.2,6.9-5.7,11.3-7.4c4.4-1.8,9.4-2.6,14.9-2.6
			c5.5,0,10.5,0.9,14.9,2.6c4.5,1.8,8.3,4.2,11.4,7.4c3.2,3.2,5.6,7.1,7.3,11.6c1.7,4.5,2.6,9.6,2.6,15.2c0,5.6-0.9,10.6-2.6,15.1
			c-1.7,4.5-4.1,8.4-7.3,11.5c-3.2,3.2-7,5.7-11.4,7.4c-4.5,1.7-9.4,2.6-14.9,2.6c-5.5,0-10.5-0.9-14.9-2.6
			c-4.4-1.7-8.2-4.2-11.3-7.4c-3.2-3.2-5.6-7-7.3-11.5c-1.7-4.5-2.6-9.5-2.6-15.1C285,142.8,285.9,137.8,287.6,133.2z M305,156.6
			c0.5,2.7,1.5,5,2.8,7.2c1.3,2.1,3,3.8,5.2,5.1c2.2,1.3,4.9,1.9,8.1,1.9c3.2,0,6-0.6,8.2-1.9c2.2-1.3,4-2.9,5.3-5.1
			c1.3-2.1,2.2-4.5,2.8-7.2c0.5-2.7,0.8-5.4,0.8-8.2c0-2.8-0.3-5.5-0.8-8.2c-0.5-2.7-1.5-5.1-2.8-7.2c-1.3-2.1-3.1-3.8-5.3-5.1
			c-2.2-1.3-4.9-2-8.2-2c-3.2,0-5.9,0.7-8.1,2c-2.2,1.3-3.9,3-5.2,5.1c-1.3,2.1-2.2,4.5-2.8,7.2c-0.5,2.7-0.8,5.5-0.8,8.2
			C304.2,151.2,304.5,153.9,305,156.6z"/>
		<path class="st0" d="M193.7,193.3v96.4h-19.2v-96.4H193.7z"/>
		<path class="st0" d="M200.7,239.7c1.7-4.5,4.1-8.4,7.3-11.6c3.2-3.2,6.9-5.7,11.3-7.4c4.4-1.8,9.4-2.6,14.9-2.6
			c5.5,0,10.5,0.9,14.9,2.6c4.5,1.8,8.3,4.2,11.4,7.4c3.2,3.2,5.6,7.1,7.3,11.6c1.7,4.5,2.6,9.6,2.6,15.2c0,5.6-0.9,10.6-2.6,15.1
			c-1.7,4.5-4.1,8.4-7.3,11.5c-3.2,3.2-7,5.7-11.4,7.4c-4.5,1.7-9.4,2.6-14.9,2.6c-5.5,0-10.4-0.9-14.9-2.6
			c-4.4-1.7-8.2-4.2-11.3-7.4c-3.2-3.2-5.6-7-7.3-11.5c-1.7-4.5-2.6-9.5-2.6-15.1C198.1,249.3,199,244.2,200.7,239.7z M218.1,263
			c0.5,2.7,1.5,5,2.8,7.2c1.3,2.1,3,3.8,5.2,5.1c2.2,1.3,4.9,1.9,8.1,1.9c3.2,0,6-0.6,8.2-1.9c2.2-1.3,4-2.9,5.3-5.1
			c1.3-2.1,2.2-4.5,2.8-7.2c0.5-2.7,0.8-5.4,0.8-8.2c0-2.8-0.3-5.5-0.8-8.2c-0.5-2.7-1.5-5.1-2.8-7.2c-1.3-2.1-3.1-3.8-5.3-5.1
			c-2.2-1.3-4.9-2-8.2-2c-3.2,0-5.9,0.7-8.1,2c-2.2,1.3-3.9,3-5.2,5.1c-1.3,2.1-2.2,4.5-2.8,7.2c-0.5,2.7-0.8,5.4-0.8,8.2
			C217.3,257.6,217.6,260.4,218.1,263z"/>
		<path class="st0" d="M339.9,294.8c-0.8,3.6-2.4,7-4.9,10.1c-2.5,3.1-6.2,5.7-10.9,7.9c-4.8,2.2-11.2,3.2-19.2,3.2
			c-3.4,0-6.9-0.4-10.5-1.3c-3.6-0.9-6.8-2.2-9.7-4c-2.9-1.8-5.4-4.1-7.3-7c-1.9-2.8-3-6.2-3.3-10.2h19c0.9,3.6,2.7,6.1,5.3,7.5
			c2.6,1.4,5.6,2.1,9,2.1c5.4,0,9.3-1.6,11.8-4.9c2.5-3.2,3.7-7.3,3.6-12.3v-9.2h-0.3c-2.1,3.7-5,6.4-8.9,8.2
			c-3.8,1.8-7.9,2.6-12.1,2.6c-5.2,0-9.7-0.9-13.5-2.8c-3.8-1.8-6.9-4.4-9.3-7.6c-2.4-3.2-4.2-6.9-5.3-11.2
			c-1.1-4.3-1.7-8.8-1.7-13.6c0-4.5,0.7-8.8,2-13c1.3-4.2,3.2-7.9,5.7-11.1c2.5-3.2,5.6-5.7,9.4-7.6c3.7-1.9,8-2.8,12.9-2.8
			c4.6,0,8.6,0.9,12.1,2.6c3.5,1.7,6.4,4.6,8.7,8.6h0.3v-9.3H341v65.4C341,288,340.7,291.2,339.9,294.8z M313.6,271.6
			c2.1-1.1,3.8-2.5,5.1-4.3c1.4-1.8,2.4-3.9,3-6.1c0.7-2.3,1-4.7,1-7.2c0-2.9-0.3-5.6-0.8-8.2c-0.5-2.6-1.4-4.8-2.7-6.8
			c-1.3-2-2.9-3.6-5-4.7c-2.1-1.2-4.7-1.8-7.8-1.8c-2.7,0-5,0.5-7,1.6c-1.9,1.1-3.6,2.5-4.9,4.4c-1.3,1.8-2.3,4-2.8,6.3
			c-0.6,2.4-0.9,4.9-0.9,7.5c0,2.5,0.2,5,0.7,7.5c0.5,2.5,1.4,4.7,2.6,6.7c1.2,2,2.8,3.6,4.8,4.9c2,1.3,4.5,1.9,7.4,1.9
			C309.2,273.2,311.5,272.7,313.6,271.6z"/>
		<g>
			<rect x="362.3" y="138.2" class="st0" width="37.7" height="16.5"/>
			<path class="st0" d="M392.8,219.9l-15.3,47.8h-0.3l-15.8-47.8h-20.4l24.5,65.5c0.5,1.4,0.8,2.8,0.8,4.3c0,2.1-0.6,4-1.8,5.7
				c-1.2,1.7-3.1,2.7-5.6,3c-1.9,0.1-3.8,0-5.7-0.1c-1.9-0.2-3.7-0.4-5.5-0.5v15.8c2,0.2,3.9,0.3,5.9,0.5c1.9,0.1,3.9,0.2,5.9,0.2
				c6.6,0,11.7-1.2,15.4-3.7c3.7-2.4,6.6-6.5,8.6-12.2L400,254v-34.2H392.8z"/>
		</g>
	</g>
</g>
</svg>
