<svg id="Layer_1" xmlns="http://www.w3.org/2000/svg" viewBox="0 0 400 400"><style>.st0{fill:#5e6062}</style><path class="st0" d="M221.4 86.8c4.6 0 8.8.4 12.6 1.2 3.8.8 7 2.1 9.7 4 2.7 1.8 4.8 4.3 6.3 7.4 1.5 3.1 2.2 6.8 2.2 11.3 0 4.9-1.1 8.9-3.3 12.2-2.2 3.2-5.5 5.9-9.8 8 5.9 1.7 10.4 4.7 13.3 9 2.9 4.3 4.4 9.4 4.4 15.5 0 4.9-.9 9.1-2.8 12.6-1.9 3.6-4.4 6.5-7.6 8.7-3.2 2.3-6.8 3.9-10.9 5-4.1 1.1-8.3 1.6-12.6 1.6H176V86.8h45.4zm-2.7 39.1c3.8 0 6.9-.9 9.3-2.7 2.4-1.8 3.6-4.7 3.6-8.8 0-2.2-.4-4.1-1.2-5.5-.8-1.4-1.9-2.6-3.2-3.4-1.4-.8-2.9-1.4-4.7-1.7-1.8-.3-3.6-.5-5.5-.5h-19.9v22.6h21.6zm1.2 40.9c2.1 0 4.1-.2 5.9-.6 1.9-.4 3.6-1.1 5-2a9.3 9.3 0 0 0 3.4-3.9c.9-1.6 1.3-3.7 1.3-6.2 0-5-1.4-8.5-4.2-10.6-2.8-2.1-6.5-3.2-11.1-3.2h-23.1v26.5h22.8zm41.6-64.2V86.8h19.2v15.8h-19.2zm19.1 10.8v69.8h-19.2v-69.8h19.2zm7 19.8c1.7-4.5 4.1-8.4 7.3-11.6 3.1-3.2 6.9-5.7 11.3-7.4 4.4-1.8 9.4-2.6 14.9-2.6s10.5.9 14.9 2.6c4.5 1.8 8.3 4.2 11.4 7.4 3.2 3.2 5.6 7.1 7.3 11.6 1.7 4.5 2.6 9.6 2.6 15.2s-.9 10.6-2.6 15.1c-1.7 4.5-4.1 8.4-7.3 11.5-3.2 3.2-7 5.7-11.4 7.4-4.5 1.7-9.4 2.6-14.9 2.6s-10.5-.9-14.9-2.6c-4.4-1.7-8.2-4.2-11.3-7.4-3.2-3.2-5.6-7-7.3-11.5-1.7-4.5-2.6-9.5-2.6-15.1s.9-10.6 2.6-15.2zm17.4 23.4c.5 2.7 1.5 5 2.8 7.2 1.3 2.1 3 3.8 5.2 5.1 2.2 1.3 4.9 1.9 8.1 1.9 3.2 0 6-.6 8.2-1.9 2.2-1.3 4-2.9 5.3-5.1 1.3-2.1 2.2-4.5 2.8-7.2.5-2.7.8-5.4.8-8.2 0-2.8-.3-5.5-.8-8.2-.5-2.7-1.5-5.1-2.8-7.2-1.3-2.1-3.1-3.8-5.3-5.1-2.2-1.3-4.9-2-8.2-2-3.2 0-5.9.7-8.1 2-2.2 1.3-3.9 3-5.2 5.1-1.3 2.1-2.2 4.5-2.8 7.2-.5 2.7-.8 5.5-.8 8.2 0 2.8.3 5.5.8 8.2zm-111.3 36.7v96.4h-19.2v-96.4h19.2zm7 46.4c1.7-4.5 4.1-8.4 7.3-11.6 3.2-3.2 6.9-5.7 11.3-7.4 4.4-1.8 9.4-2.6 14.9-2.6s10.5.9 14.9 2.6c4.5 1.8 8.3 4.2 11.4 7.4 3.2 3.2 5.6 7.1 7.3 11.6 1.7 4.5 2.6 9.6 2.6 15.2s-.9 10.6-2.6 15.1c-1.7 4.5-4.1 8.4-7.3 11.5-3.2 3.2-7 5.7-11.4 7.4-4.5 1.7-9.4 2.6-14.9 2.6s-10.4-.9-14.9-2.6c-4.4-1.7-8.2-4.2-11.3-7.4-3.2-3.2-5.6-7-7.3-11.5-1.7-4.5-2.6-9.5-2.6-15.1s.9-10.7 2.6-15.2zm17.4 23.3c.5 2.7 1.5 5 2.8 7.2 1.3 2.1 3 3.8 5.2 5.1 2.2 1.3 4.9 1.9 8.1 1.9 3.2 0 6-.6 8.2-1.9 2.2-1.3 4-2.9 5.3-5.1 1.3-2.1 2.2-4.5 2.8-7.2.5-2.7.8-5.4.8-8.2 0-2.8-.3-5.5-.8-8.2-.5-2.7-1.5-5.1-2.8-7.2-1.3-2.1-3.1-3.8-5.3-5.1-2.2-1.3-4.9-2-8.2-2-3.2 0-5.9.7-8.1 2-2.2 1.3-3.9 3-5.2 5.1-1.3 2.1-2.2 4.5-2.8 7.2-.5 2.7-.8 5.4-.8 8.2 0 2.8.3 5.6.8 8.2zm121.8 31.8c-.8 3.6-2.4 7-4.9 10.1-2.5 3.1-6.2 5.7-10.9 7.9-4.8 2.2-11.2 3.2-19.2 3.2-3.4 0-6.9-.4-10.5-1.3-3.6-.9-6.8-2.2-9.7-4-2.9-1.8-5.4-4.1-7.3-7-1.9-2.8-3-6.2-3.3-10.2h19c.9 3.6 2.7 6.1 5.3 7.5 2.6 1.4 5.6 2.1 9 2.1 5.4 0 9.3-1.6 11.8-4.9 2.5-3.2 3.7-7.3 3.6-12.3v-9.2h-.3c-2.1 3.7-5 6.4-8.9 8.2-3.8 1.8-7.9 2.6-12.1 2.6-5.2 0-9.7-.9-13.5-2.8-3.8-1.8-6.9-4.4-9.3-7.6-2.4-3.2-4.2-6.9-5.3-11.2-1.1-4.3-1.7-8.8-1.7-13.6 0-4.5.7-8.8 2-13 1.3-4.2 3.2-7.9 5.7-11.1 2.5-3.2 5.6-5.7 9.4-7.6 3.7-1.9 8-2.8 12.9-2.8 4.6 0 8.6.9 12.1 2.6 3.5 1.7 6.4 4.6 8.7 8.6h.3v-9.3H341v65.4c0 2.9-.3 6.1-1.1 9.7zm-26.3-23.2c2.1-1.1 3.8-2.5 5.1-4.3 1.4-1.8 2.4-3.9 3-6.1.7-2.3 1-4.7 1-7.2 0-2.9-.3-5.6-.8-8.2-.5-2.6-1.4-4.8-2.7-6.8-1.3-2-2.9-3.6-5-4.7-2.1-1.2-4.7-1.8-7.8-1.8-2.7 0-5 .5-7 1.6-1.9 1.1-3.6 2.5-4.9 4.4-1.3 1.8-2.3 4-2.8 6.3-.6 2.4-.9 4.9-.9 7.5 0 2.5.2 5 .7 7.5.5 2.5 1.4 4.7 2.6 6.7 1.2 2 2.8 3.6 4.8 4.9 2 1.3 4.5 1.9 7.4 1.9 2.9-.1 5.2-.6 7.3-1.7zm48.7-133.4H400v16.5h-37.7zm30.5 81.7l-15.3 47.8h-.3l-15.8-47.8H341l24.5 65.5c.5 1.4.8 2.8.8 4.3 0 2.1-.6 4-1.8 5.7-1.2 1.7-3.1 2.7-5.6 3-1.9.1-3.8 0-5.7-.1-1.9-.2-3.7-.4-5.5-.5v15.8c2 .2 3.9.3 5.9.5 1.9.1 3.9.2 5.9.2 6.6 0 11.7-1.2 15.4-3.7 3.7-2.4 6.6-6.5 8.6-12.2L400 254v-34.2h-7.2z"/></svg>