<?xml version="1.0" encoding="utf-8"?>
<!-- Generator: Adobe Illustrator 19.2.0, SVG Export Plug-In . SVG Version: 6.00 Build 0)  -->
<svg version="1.1" xmlns="http://www.w3.org/2000/svg" xmlns:xlink="http://www.w3.org/1999/xlink" x="0px" y="0px"
	 viewBox="0 0 229 139" style="enable-background:new 0 0 229 139;" xml:space="preserve">
<style type="text/css">
	.st0{fill:#FFFFFF;}
	.st1{fill:#424242;}
	.st2{fill:#9A9A9B;}
	.st3{fill:#0DC0DC;}
	.st4{fill:none;stroke:#5E6062;stroke-miterlimit:10;}
	.st5{fill:#5E6062;}
	.st6{fill-rule:evenodd;clip-rule:evenodd;fill:#E5E5E5;}
	.st7{fill:#E5E5E5;}
	.st8{clip-path:url(#SVGID_1_);}
	.st9{opacity:0.9;fill:#F47641;}
	.st10{opacity:0.88;fill:#F47641;}
	.st11{fill:#FFBD3E;}
	.st12{clip-path:url(#SVGID_7_);}
	.st13{fill:#77AF42;}
	.st14{fill:#F4D019;}
	.st15{clip-path:url(#SVGID_11_);}
	.st16{filter:url(#Adobe_OpacityMaskFilter);}
	.st17{clip-path:url(#SVGID_14_);fill:url(#SVGID_16_);}
	.st18{clip-path:url(#SVGID_14_);mask:url(#SVGID_15_);}
	.st19{opacity:0.6;fill:#0DC0DC;}
	.st20{fill:#F47641;}
	.st21{fill:#F0F0F0;}
	.st22{fill:#222C65;}
	.st23{fill:#F37640;}
	.st24{fill:#0C9390;}
	.st25{fill:#00246A;}
	.st26{fill:#F47642;}
	.st27{clip-path:url(#SVGID_26_);}
	.st28{clip-path:url(#SVGID_27_);fill:#F47641;}
	.st29{clip-path:url(#SVGID_27_);}
	.st30{clip-path:url(#SVGID_28_);fill:#FFFFFF;}
	.st31{fill:#76B042;}
	.st32{fill:#212E66;}
	.st33{clip-path:url(#SVGID_29_);fill:#222F66;}
	.st34{clip-path:url(#SVGID_29_);fill:#FFFFFF;}
	.st35{clip-path:url(#SVGID_29_);}
	.st36{clip-path:url(#SVGID_30_);fill:#FFFFFF;}
	.st37{clip-path:url(#SVGID_32_);}
	.st38{fill:none;}
	.st39{opacity:0.2;fill:#E5E5E5;}
	.st40{opacity:0.5;fill:none;stroke:#E5E5E5;}
</style>
<symbol  id="Logo" viewBox="15 -60.7 200 45.7">
	<g>
		<g>
			<g>
				<path class="st0" d="M99-39.6c0,0.9,0.2,1.7,0.5,2.5c0.3,0.8,0.7,1.4,1.3,2c0.5,0.6,1.2,1,2,1.3c0.8,0.3,1.6,0.5,2.5,0.5
					c0.9,0,1.7-0.2,2.5-0.5c0.8-0.3,1.4-0.7,2-1.3c0.6-0.6,1-1.2,1.3-2c0.3-0.8,0.5-1.6,0.5-2.5c0-0.9-0.2-1.7-0.5-2.5
					c-0.3-0.8-0.7-1.4-1.3-2c-0.6-0.6-1.2-1-2-1.3c-0.8-0.3-1.6-0.5-2.5-0.5c-0.9,0-1.8,0.2-2.5,0.5c-0.8,0.3-1.4,0.7-2,1.3
					c-0.5,0.6-1,1.2-1.3,2C99.1-41.4,99-40.5,99-39.6z M100.5-39.6c0-0.7,0.1-1.3,0.3-1.9c0.2-0.6,0.5-1.1,0.9-1.5
					c0.4-0.4,0.9-0.8,1.5-1c0.6-0.3,1.2-0.4,2-0.4c0.7,0,1.4,0.1,2,0.4c0.6,0.3,1.1,0.6,1.5,1c0.4,0.4,0.7,1,0.9,1.5
					c0.2,0.6,0.3,1.2,0.3,1.9c0,0.7-0.1,1.3-0.3,1.9c-0.2,0.6-0.5,1.1-0.9,1.5c-0.4,0.4-0.9,0.8-1.5,1c-0.6,0.3-1.2,0.4-2,0.4
					c-0.7,0-1.4-0.1-2-0.4c-0.6-0.3-1.1-0.6-1.5-1c-0.4-0.4-0.7-1-0.9-1.5C100.6-38.3,100.5-39,100.5-39.6z"/>
				<path class="st0" d="M114.6-33.7h1.5v-2.1h0.1c0.2,0.4,0.5,0.8,0.9,1.1c0.4,0.3,0.8,0.5,1.2,0.7c0.4,0.2,0.9,0.3,1.3,0.4
					c0.5,0.1,0.9,0.1,1.4,0.1c0.9,0,1.7-0.2,2.5-0.5c0.8-0.3,1.4-0.7,2-1.3c0.6-0.6,1-1.2,1.3-2c0.3-0.8,0.5-1.6,0.5-2.5
					c0-0.9-0.2-1.7-0.5-2.5c-0.3-0.8-0.7-1.4-1.3-2c-0.6-0.6-1.2-1-2-1.3c-0.8-0.3-1.6-0.5-2.5-0.5c-0.4,0-0.9,0-1.4,0.1
					c-0.5,0.1-0.9,0.2-1.3,0.4c-0.4,0.2-0.8,0.4-1.2,0.7c-0.4,0.3-0.7,0.7-0.9,1.1h-0.1v-8h-1.5V-33.7z M116-39.6
					c0-0.7,0.1-1.3,0.4-1.9c0.3-0.6,0.6-1.1,1.1-1.5c0.4-0.4,1-0.8,1.6-1c0.6-0.3,1.3-0.4,2-0.4c0.7,0,1.4,0.1,2,0.4
					c0.6,0.3,1.1,0.6,1.5,1c0.4,0.4,0.7,1,0.9,1.5c0.2,0.6,0.3,1.2,0.3,1.9c0,0.7-0.1,1.3-0.3,1.9c-0.2,0.6-0.5,1.1-0.9,1.5
					c-0.4,0.4-0.9,0.8-1.5,1c-0.6,0.3-1.2,0.4-2,0.4c-0.7,0-1.4-0.1-2-0.4s-1.1-0.6-1.6-1c-0.4-0.4-0.8-1-1.1-1.5
					C116.1-38.3,116-39,116-39.6z"/>
				<path class="st0" d="M141.2-43.3c-0.6-0.9-1.3-1.6-2.2-2c-0.9-0.4-1.9-0.6-2.9-0.6c-0.9,0-1.7,0.2-2.5,0.5
					c-0.7,0.3-1.4,0.7-1.9,1.3c-0.5,0.6-0.9,1.2-1.2,2c-0.3,0.8-0.4,1.6-0.4,2.5c0,0.9,0.1,1.7,0.4,2.5c0.3,0.8,0.7,1.4,1.2,2
					c0.5,0.6,1.2,1,1.9,1.3c0.7,0.3,1.5,0.5,2.4,0.5c0.9,0,1.7-0.2,2.4-0.5c0.7-0.3,1.3-0.7,1.8-1.3c0.5-0.5,0.8-1.1,1.1-1.8
					c0.2-0.7,0.4-1.3,0.4-2V-40h-10c0-0.3,0.1-0.7,0.2-1.2c0.1-0.5,0.4-1,0.7-1.5c0.3-0.5,0.8-0.9,1.4-1.2c0.6-0.3,1.3-0.5,2.2-0.5
					c0.8,0,1.6,0.2,2.3,0.6c0.7,0.4,1.3,0.9,1.7,1.5L141.2-43.3z M140-38.6c0,0.5-0.1,1-0.3,1.5c-0.2,0.5-0.5,0.9-0.9,1.2
					c-0.4,0.4-0.8,0.6-1.3,0.8c-0.5,0.2-1,0.3-1.6,0.3c-0.8,0-1.5-0.2-2.1-0.5c-0.6-0.3-1-0.7-1.3-1.2c-0.3-0.4-0.6-0.9-0.7-1.3
					c-0.1-0.4-0.2-0.7-0.2-0.9H140z"/>
				<path class="st0" d="M145-37c0,0.2,0,0.5,0,0.8c0,0.3,0,0.6,0,1c0,0.3,0,0.6,0,0.9c0,0.3,0,0.5,0,0.7h1.5c0-0.4,0-0.9,0-1.3
					c0-0.4,0-0.7,0.1-0.8h0.1c0.3,0.7,0.8,1.2,1.5,1.7c0.7,0.5,1.6,0.7,2.5,0.7c0.9,0,1.7-0.1,2.3-0.4c0.6-0.3,1-0.7,1.4-1.1
					c0.3-0.5,0.6-1,0.7-1.6c0.1-0.6,0.2-1.3,0.2-1.9v-7.1h-1.5v7c0,0.5,0,0.9-0.1,1.4c-0.1,0.5-0.2,0.9-0.5,1.2
					c-0.2,0.4-0.5,0.6-0.9,0.9c-0.4,0.2-0.9,0.3-1.5,0.3c-0.6,0-1.1-0.1-1.6-0.3c-0.5-0.2-0.9-0.5-1.3-0.9c-0.4-0.4-0.7-0.9-0.9-1.5
					c-0.2-0.6-0.3-1.3-0.3-2.2v-5.9H145V-37z"/>
				<path class="st0" d="M165.6-36.6c-0.6,0.8-1.4,1.3-2.4,1.3c-0.4,0-0.8-0.1-1.2-0.3c-0.4-0.2-0.6-0.5-0.6-1
					c0-0.4,0.2-0.7,0.5-0.8c0.3-0.2,0.7-0.3,1.2-0.4c0.5-0.1,1-0.2,1.6-0.4c0.6-0.1,1.1-0.3,1.6-0.6c0.5-0.3,0.9-0.6,1.2-1.1
					c0.3-0.5,0.5-1.1,0.5-1.9c0-0.7-0.2-1.4-0.5-1.9c-0.3-0.5-0.7-0.9-1.2-1.2c-0.5-0.3-1.1-0.5-1.7-0.7c-0.6-0.1-1.3-0.2-1.9-0.2
					c-1,0-1.8,0.1-2.7,0.4c-0.8,0.3-1.5,0.8-2.2,1.5l2.1,1.9c0.4-0.4,0.8-0.8,1.3-1.1c0.5-0.3,1-0.4,1.7-0.4c0.2,0,0.5,0,0.7,0.1
					c0.2,0.1,0.5,0.1,0.7,0.3c0.2,0.1,0.4,0.3,0.5,0.5c0.1,0.2,0.2,0.4,0.2,0.6c0,0.4-0.2,0.7-0.5,1c-0.3,0.2-0.7,0.4-1.2,0.5
					c-0.5,0.1-1,0.2-1.6,0.4c-0.6,0.1-1.1,0.3-1.6,0.5s-0.9,0.6-1.2,1c-0.3,0.4-0.5,1.1-0.5,1.9c0,0.7,0.1,1.3,0.4,1.8
					c0.3,0.5,0.7,0.9,1.1,1.2c0.5,0.3,1,0.6,1.6,0.7c0.6,0.2,1.2,0.2,1.8,0.2c0.8,0,1.6-0.1,2.4-0.4c0.8-0.3,1.5-0.8,2-1.5
					L165.6-36.6z"/>
				<path class="st0" d="M169-35.8v2.6h2.5v3.6h3.1v-3.6h3.4v-2.6h-3.4v-5.4c0-0.6,0.1-1.1,0.3-1.5c0.2-0.4,0.7-0.5,1.4-0.5
					c0.3,0,0.6,0,0.9,0.1c0.3,0.1,0.6,0.2,0.8,0.3v-2.6c-0.3-0.2-0.7-0.3-1.2-0.3c-0.5-0.1-0.9-0.1-1.2-0.1c-0.8,0-1.5,0.1-2,0.3
					c-0.5,0.2-0.9,0.5-1.2,0.8c-0.3,0.4-0.5,0.8-0.6,1.4c-0.1,0.5-0.2,1.2-0.2,1.9v5.7H169z"/>
				<path class="st0" d="M188.2-43.9L188.2-43.9c-0.5-0.7-1.1-1.2-1.8-1.5c-0.7-0.3-1.4-0.5-2.3-0.5c-0.6,0-1.1,0.1-1.7,0.2
					c-0.5,0.2-1,0.4-1.4,0.7c-0.4,0.3-0.8,0.7-1,1.2c-0.3,0.5-0.4,1-0.4,1.6c0,0.7,0.1,1.2,0.4,1.7c0.2,0.5,0.6,0.9,1,1.2
					c0.4,0.3,0.9,0.6,1.4,0.8c0.5,0.2,1.1,0.3,1.7,0.4c0.6,0.1,1.2,0.2,1.7,0.2c0.6,0,1.1,0,1.6,0h0.8v0.3c0,0.8-0.3,1.4-0.8,1.7
					c-0.5,0.4-1.2,0.6-2,0.6c-0.7,0-1.3-0.1-1.8-0.3c-0.6-0.2-1.1-0.5-1.5-0.9l-1.6,1.6c0.7,0.7,1.5,1.2,2.4,1.5
					c0.9,0.3,1.9,0.5,2.8,0.5c0.9,0,1.6-0.1,2.2-0.3c0.6-0.2,1.1-0.5,1.5-0.8c0.4-0.3,0.7-0.7,0.9-1.1c0.2-0.4,0.4-0.8,0.5-1.2
					c0.1-0.4,0.2-0.8,0.2-1.2c0-0.4,0-0.7,0-1v-7.1h-2.8V-43.9z M188-40h-0.6c-0.4,0-0.9,0-1.4-0.1c-0.5,0-1-0.1-1.5-0.2
					c-0.5-0.1-0.9-0.3-1.2-0.6c-0.3-0.2-0.5-0.6-0.5-1c0-0.3,0.1-0.5,0.2-0.7c0.1-0.2,0.3-0.4,0.5-0.5c0.2-0.1,0.4-0.2,0.7-0.3
					c0.3-0.1,0.5-0.1,0.8-0.1c1.1,0,1.9,0.3,2.4,0.8c0.5,0.5,0.8,1.2,0.8,2.1V-40z"/>
				<path class="st0" d="M197.5-38.9l-4.3,5.7h3.8l2.5-3.7l2.7,3.7h3.5l-4.2-5.7l5-6.6h-3.8l-3.2,4.4l-3.2-4.4h-3.7L197.5-38.9z"/>
			</g>
			<g>
				<path class="st0" d="M208.9-33.8h-1.1v0.6h2.7v-0.6h-1.1v-2.9h-0.6V-33.8z M211.2-33.2h0.9l1-2.6l1,2.6h0.9v-3.5h-0.6v2.9h0
					l-1.1-2.9h-0.4l-1.1,2.9h0v-2.9h-0.6V-33.2z"/>
			</g>
		</g>
		<g>
			<path class="st0" d="M87.8-25.1c-0.1-1.3-1.2-2.3-2.5-2.3l-55.5,2.6c-1.3,0.1-2.3,1.2-2.3,2.5l0.2,4.9c0.1,1.3,1.2,2.3,2.5,2.3
				l55.5-2.6c1.3-0.1,2.3-1.2,2.3-2.5L87.8-25.1z"/>
			<path class="st0" d="M69.5-43.1c0-0.8-0.6-1.4-1.4-1.4H22.9c-0.8,0-1.4,0.6-1.4,1.4v7.1c0,0.8,0.6,1.4,1.4,1.4h45.2
				c0.8,0,1.4-0.6,1.4-1.4V-43.1z"/>
			<path class="st0" d="M83.4-50.8c0-0.8-0.6-1.4-1.3-1.5l-51-1.6c-0.8,0-1.4,0.6-1.4,1.4l-0.1,4.2c0,0.8,0.6,1.4,1.3,1.5l51,1.6
				c0.8,0,1.4-0.6,1.4-1.4L83.4-50.8z"/>
			<path class="st0" d="M76.6-59.3c0-0.8-0.6-1.4-1.3-1.4H26.6c-0.7,0-1.3,0.6-1.3,1.4v2.8c0,0.8,0.6,1.4,1.3,1.4h48.6
				c0.7,0,1.3-0.6,1.3-1.4V-59.3z"/>
			<path class="st0" d="M77.8-31.2c0-0.6-0.9-1.1-1.9-1.1h-59c-1.1,0-1.9,0.5-1.9,1.1v2.3c0,0.6,0.9,1.1,1.9,1.1h59
				c1.1,0,1.9-0.5,1.9-1.1V-31.2z"/>
		</g>
	</g>
</symbol>
<g id="footer">
</g>
<g id="allies">
</g>
<g id="impact">
</g>
<g id="give">
</g>
<g id="about">
</g>
<g id="feature">
</g>
<g id="home">
</g>
<g id="nav2">
	<g id="Logo_2">
	</g>
	<g id="Logo_2_1_">
	</g>
</g>
<g id="book-chemistry">
</g>
<g id="book-astronomy">
</g>
<g id="boook-biology">
	<g>
		<path class="st5" d="M31.7,0c3.2,0,6.2,0.3,8.8,0.9c2.7,0.6,4.9,1.5,6.8,2.8c1.9,1.3,3.4,3,4.4,5.2c1,2.2,1.6,4.8,1.6,8
			c0,3.4-0.8,6.3-2.3,8.5c-1.6,2.3-3.8,4.1-6.9,5.6c4.2,1.2,7.3,3.3,9.3,6.3c2.1,3,3.1,6.6,3.1,10.9c0,3.4-0.7,6.4-2,8.9
			c-1.3,2.5-3.1,4.5-5.4,6.1c-2.2,1.6-4.8,2.8-7.7,3.5c-2.9,0.8-5.8,1.1-8.9,1.1H-0.2V0H31.7z M29.8,27.4c2.7,0,4.8-0.6,6.5-1.9
			c1.7-1.3,2.6-3.3,2.6-6.2c0-1.6-0.3-2.9-0.9-3.9c-0.6-1-1.3-1.8-2.3-2.4c-0.9-0.6-2-1-3.3-1.2c-1.2-0.2-2.5-0.3-3.8-0.3H14.7v15.8
			H29.8z M30.6,56.1c1.5,0,2.8-0.1,4.2-0.4c1.3-0.3,2.5-0.8,3.5-1.4c1-0.7,1.8-1.6,2.4-2.7c0.6-1.1,0.9-2.6,0.9-4.4
			c0-3.5-1-6-2.9-7.4c-2-1.5-4.6-2.2-7.8-2.2H14.7v18.6H30.6z"/>
		<path class="st5" d="M59.6,11.1V0h13.5v11.1H59.6z M73.1,18.7v49H59.6v-49H73.1z"/>
		<path class="st5" d="M77.9,32.5c1.2-3.2,2.9-5.9,5.1-8.2c2.2-2.2,4.9-4,8-5.2c3.1-1.2,6.6-1.8,10.4-1.8c3.9,0,7.4,0.6,10.5,1.8
			c3.1,1.2,5.8,3,8,5.2c2.2,2.2,3.9,5,5.1,8.2c1.2,3.2,1.8,6.8,1.8,10.7c0,3.9-0.6,7.5-1.8,10.6c-1.2,3.2-2.9,5.9-5.1,8.1
			c-2.2,2.2-4.9,4-8,5.2c-3.1,1.2-6.6,1.8-10.5,1.8c-3.9,0-7.3-0.6-10.4-1.8c-3.1-1.2-5.8-2.9-8-5.2c-2.2-2.2-3.9-4.9-5.1-8.1
			c-1.2-3.2-1.8-6.7-1.8-10.6C76.1,39.3,76.7,35.7,77.9,32.5z M90.1,49c0.4,1.9,1,3.5,1.9,5c0.9,1.5,2.1,2.7,3.7,3.6
			c1.5,0.9,3.4,1.3,5.7,1.3s4.2-0.4,5.7-1.3c1.5-0.9,2.8-2.1,3.7-3.6c0.9-1.5,1.6-3.2,1.9-5c0.4-1.9,0.6-3.8,0.6-5.7
			c0-2-0.2-3.9-0.6-5.8s-1-3.6-1.9-5c-0.9-1.5-2.2-2.6-3.7-3.6c-1.6-0.9-3.5-1.4-5.7-1.4s-4.2,0.5-5.7,1.4C94.2,29.8,93,31,92,32.4
			c-0.9,1.5-1.6,3.1-1.9,5s-0.6,3.8-0.6,5.8C89.5,45.2,89.7,47.1,90.1,49z"/>
		<path class="st5" d="M143.2,0v67.7h-13.5V0H143.2z"/>
		<path class="st5" d="M148,32.5c1.2-3.2,2.9-5.9,5.1-8.2c2.2-2.2,4.9-4,8-5.2c3.1-1.2,6.6-1.8,10.4-1.8c3.9,0,7.4,0.6,10.5,1.8
			c3.1,1.2,5.8,3,8,5.2c2.2,2.2,3.9,5,5.1,8.2c1.2,3.2,1.8,6.8,1.8,10.7c0,3.9-0.6,7.5-1.8,10.6c-1.2,3.2-2.9,5.9-5.1,8.1
			c-2.2,2.2-4.9,4-8,5.2c-3.1,1.2-6.6,1.8-10.5,1.8c-3.9,0-7.3-0.6-10.4-1.8c-3.1-1.2-5.8-2.9-8-5.2c-2.2-2.2-3.9-4.9-5.1-8.1
			c-1.2-3.2-1.8-6.7-1.8-10.6C146.2,39.3,146.8,35.7,148,32.5z M160.2,49c0.4,1.9,1,3.5,1.9,5c0.9,1.5,2.1,2.7,3.7,3.6
			c1.5,0.9,3.4,1.3,5.7,1.3s4.2-0.4,5.7-1.3c1.5-0.9,2.8-2.1,3.7-3.6c0.9-1.5,1.6-3.2,1.9-5c0.4-1.9,0.6-3.8,0.6-5.7
			c0-2-0.2-3.9-0.6-5.8s-1-3.6-1.9-5c-0.9-1.5-2.2-2.6-3.7-3.6c-1.6-0.9-3.5-1.4-5.7-1.4s-4.2,0.5-5.7,1.4c-1.5,0.9-2.7,2.1-3.7,3.6
			c-0.9,1.5-1.6,3.1-1.9,5s-0.6,3.8-0.6,5.8C159.6,45.2,159.8,47.1,160.2,49z"/>
		<path class="st5" d="M228.9,36v11.6h-28.5V36H228.9z"/>
		<path class="st5" d="M44.7,123.3c-0.5,2.5-1.7,4.9-3.5,7.1c-1.8,2.2-4.3,4-7.7,5.5c-3.4,1.5-7.8,2.3-13.5,2.3
			c-2.4,0-4.9-0.3-7.4-0.9c-2.5-0.6-4.8-1.5-6.8-2.8c-2.1-1.3-3.8-2.9-5.1-4.9c-1.4-2-2.1-4.4-2.3-7.2h13.4c0.6,2.5,1.9,4.3,3.7,5.3
			c1.8,1,4,1.5,6.4,1.5c3.8,0,6.6-1.1,8.3-3.4c1.7-2.3,2.6-5.2,2.5-8.6v-6.4h-0.2c-1.5,2.6-3.5,4.5-6.2,5.7
			c-2.7,1.2-5.5,1.8-8.5,1.8c-3.7,0-6.8-0.6-9.5-1.9c-2.7-1.3-4.8-3.1-6.5-5.3c-1.7-2.2-3-4.9-3.7-7.9c-0.8-3-1.2-6.2-1.2-9.5
			c0-3.2,0.5-6.2,1.4-9.2c0.9-2.9,2.3-5.5,4-7.8c1.8-2.2,4-4,6.6-5.4c2.6-1.3,5.6-2,9.1-2c3.2,0,6.1,0.6,8.5,1.8
			c2.4,1.2,4.5,3.2,6.1,6.1h0.2v-6.5h12.8v45.9C45.5,118.5,45.2,120.8,44.7,123.3z M26.3,107c1.5-0.8,2.7-1.8,3.6-3
			c0.9-1.3,1.7-2.7,2.1-4.3s0.7-3.3,0.7-5.1c0-2-0.2-3.9-0.6-5.7s-1-3.4-1.9-4.8c-0.9-1.4-2.1-2.5-3.5-3.3c-1.5-0.8-3.3-1.2-5.5-1.2
			c-1.9,0-3.5,0.4-4.9,1.1c-1.4,0.8-2.5,1.8-3.4,3.1c-0.9,1.3-1.6,2.8-2,4.5c-0.4,1.7-0.6,3.4-0.6,5.3c0,1.8,0.2,3.5,0.5,5.3
			c0.3,1.7,0.9,3.3,1.8,4.7c0.9,1.4,2,2.5,3.4,3.4c1.4,0.9,3.1,1.3,5.2,1.3C23.1,108.1,24.8,107.7,26.3,107z"/>
		<path class="st5" d="M69.1,134.3c-2.6,1.7-6.2,2.6-10.8,2.6c-1.4,0-2.8,0-4.1-0.1c-1.4-0.1-2.7-0.2-4.1-0.3v-11.1
			c1.3,0.1,2.6,0.3,3.9,0.4c1.3,0.1,2.7,0.2,4,0.1c1.8-0.2,3.1-0.9,3.9-2.1c0.9-1.2,1.3-2.5,1.3-4c0-1.1-0.2-2.1-0.6-3l-17.2-46
			h14.3l11.1,33.6H71l10.7-33.6h13.9l-20.5,55.1C73.7,129.7,71.7,132.6,69.1,134.3z"/>
	</g>
</g>
<g id="nav">
</g>
<g id="Mobile">
</g>
</svg>
