<svg id="Layer_1" data-name="Layer 1" xmlns="http://www.w3.org/2000/svg" viewBox="0 0 400.46 400"><defs><style>.cls-1{fill:#ffbf3b;}.cls-2{fill:#232e66;}</style></defs><title>calculus-v1</title><rect class="cls-1" width="400" height="400"/><path class="cls-2" d="M326.87,254.63c0.92,21.05,18.9,28,37.34,28,18.13,0,36.26-6.76,36.26-27.66,0-14.75-12.45-19.36-25.2-22.28-12.45-2.92-24.74-4-24.74-11.83,0-6.45,7.22-7.38,12.14-7.38,7.84,0,14.29,2.3,14.9,10.76h20.74c-1.69-19.51-17.67-25.35-35-25.35-17.06,0-34.57,5.22-34.57,25.51,0,14,12.6,18.44,25.2,21.2,15.67,3.38,24.74,5.69,24.74,12.29,0,7.68-8,10.14-14.29,10.14-8.6,0-16.59-3.84-16.75-13.37H326.87ZM323.33,201H301.52v41.64c0,16.13-5.07,22.74-16.9,22.74-10.14,0-14-6.45-14-19.51V201H248.81v48.86c0,19.67,5.84,32.73,29,32.73a28.33,28.33,0,0,0,24.28-13.21h0.46v11.06h20.74V201ZM219,280.44h21.82V170.74H219V280.44ZM211,201H189.2v41.64c0,16.13-5.07,22.74-16.9,22.74-10.14,0-14-6.45-14-19.51V201H136.5v48.86c0,19.67,5.84,32.73,29,32.73a28.33,28.33,0,0,0,24.28-13.21h0.46v11.06H211V201Z"/><path class="cls-2" d="M350.53,129.14h46.25V110.39H350.53v18.75Zm-3.06-18.9C346.08,90,328.87,80.12,310.12,80.12c-25.81,0-40.56,18.28-40.56,43,0,23.82,16.13,40.72,40.1,40.72,20.9,0,35.49-11.52,38.26-32.57H326.87c-1.38,9.68-7.22,16.13-17.36,16.13-13.67,0-18.13-13.67-18.13-25,0-11.68,4.61-25.81,18.59-25.81,9.07,0,14.75,4.76,16.13,13.67h21.36ZM242.53,161.71h21.82V52H242.53V161.71Zm-58.38-55c0.77-8.6,6.15-12,14.44-12,7.68,0,14.14,1.38,14.14,10.76,0,8.91-12.45,8.45-25.81,10.45-13.52,1.84-27,6.15-27,24.12,0,16.29,12,23.82,27,23.82,9.68,0,19.82-2.61,26.74-9.83a32.45,32.45,0,0,0,1.54,7.68h22.13c-2-3.23-2.77-10.45-2.77-17.67V102.71c0-19.05-19.05-22.59-34.88-22.59-17.82,0-36.11,6.15-37.34,26.58h21.82ZM212.73,131c0,4.76-.61,18.28-17.67,18.28-7.07,0-13.37-2-13.37-10.14,0-8,6.15-10.29,12.91-11.68,6.76-1.23,14.44-1.38,18.13-4.61V131Zm-55-42.1c-2.92-25.35-23.2-39.49-47.32-39.49-34,0-53.93,25.35-53.93,57.93,0,31.65,20,57,53.93,57,26.89,0,45.79-17.52,48.25-44.87H135.29C133.45,133.9,125.15,144,110.4,144c-21.66,0-29.81-18.44-29.81-36.72,0-19.21,8.14-37.64,29.81-37.64,12,0,22.43,8.3,24,19.21h23.35Z"/><path class="cls-2" d="M163.84,353.42H164l16.8-46h3L165.6,356h-3.47L144,307.45h3.13Z"/><path class="cls-2" d="M177,338.52a23,23,0,0,1,1.05-7,17.67,17.67,0,0,1,3.09-5.81,14.69,14.69,0,0,1,5-4,16.86,16.86,0,0,1,13.74,0,14.72,14.72,0,0,1,5,4,17.7,17.7,0,0,1,3.09,5.81,23,23,0,0,1,1.05,7,23.35,23.35,0,0,1-1.05,7.07,17.25,17.25,0,0,1-3.09,5.81,14.88,14.88,0,0,1-5,3.94,16.85,16.85,0,0,1-13.74,0,14.85,14.85,0,0,1-5-3.94,17.21,17.21,0,0,1-3.09-5.81A23.29,23.29,0,0,1,177,338.52Zm2.58,0a20.44,20.44,0,0,0,.88,6,16.29,16.29,0,0,0,2.58,5.13,12.57,12.57,0,0,0,4.22,3.57,13.26,13.26,0,0,0,11.56,0,12.6,12.6,0,0,0,4.22-3.57,16.34,16.34,0,0,0,2.58-5.13,20.91,20.91,0,0,0,0-12,16.36,16.36,0,0,0-2.58-5.13,12.6,12.6,0,0,0-4.22-3.57,13.26,13.26,0,0,0-11.56,0,12.57,12.57,0,0,0-4.22,3.57,16.31,16.31,0,0,0-2.58,5.13A20.45,20.45,0,0,0,179.63,338.52Z"/><path class="cls-2" d="M213.73,307.45V356h-2.58V307.45h2.58Z"/><path class="cls-2" d="M244.88,356H242.3v-7.48h-0.14a11.23,11.23,0,0,1-1.94,3.5,12.88,12.88,0,0,1-6.56,4.25,15,15,0,0,1-4,.54,15.89,15.89,0,0,1-5.2-.75,10.18,10.18,0,0,1-3.5-2,9.49,9.49,0,0,1-2.14-2.75,12.71,12.71,0,0,1-1.12-3.09,18.09,18.09,0,0,1-.41-3q-0.07-1.46-.07-2.55V321h2.58v22.1a32.34,32.34,0,0,0,.2,3.3,9.88,9.88,0,0,0,1.19,3.74,8.7,8.7,0,0,0,3,3.09,10.15,10.15,0,0,0,5.58,1.29,12.38,12.38,0,0,0,5.27-1.09,11.39,11.39,0,0,0,4-3,13.34,13.34,0,0,0,2.48-4.62,19.42,19.42,0,0,0,.85-5.88V321h2.58v35Z"/><path class="cls-2" d="M248.17,321h2.58v7.14h0.14a9.34,9.34,0,0,1,1.43-3.09,11,11,0,0,1,2.48-2.55,11.79,11.79,0,0,1,3.26-1.7,11.65,11.65,0,0,1,3.77-.61,13.15,13.15,0,0,1,4.35.65,10.36,10.36,0,0,1,3.13,1.7,8.44,8.44,0,0,1,2,2.38,9.11,9.11,0,0,1,1,2.69h0.14a12.72,12.72,0,0,1,4.18-5.54,11.62,11.62,0,0,1,6.9-1.87,13,13,0,0,1,4.39.71,9.21,9.21,0,0,1,3.47,2.18,10,10,0,0,1,2.28,3.71,15.5,15.5,0,0,1,.82,5.3V356H292V332.06a11.19,11.19,0,0,0-1-5.24,8.2,8.2,0,0,0-2.41-2.89,6.85,6.85,0,0,0-2.79-1.22,13.81,13.81,0,0,0-2.14-.24,11.53,11.53,0,0,0-4.39.82,9.3,9.3,0,0,0-3.47,2.45,11.48,11.48,0,0,0-2.28,4,17.29,17.29,0,0,0-.82,5.54V356h-2.58V332.06a11.57,11.57,0,0,0-1-5.2,7.85,7.85,0,0,0-2.31-2.89,7,7,0,0,0-2.72-1.22,12.3,12.3,0,0,0-2.21-.27,10.91,10.91,0,0,0-7.41,3.06,11.69,11.69,0,0,0-2.65,4,15,15,0,0,0-1,5.78V356h-2.58V321Z"/><path class="cls-2" d="M298.68,338.86v0.41a20.65,20.65,0,0,0,.82,5.85,14.93,14.93,0,0,0,2.42,4.9,11.48,11.48,0,0,0,4,3.33,12.3,12.3,0,0,0,5.63,1.22,12,12,0,0,0,8.32-2.75,14.41,14.41,0,0,0,4.23-7.65h2.58a15.64,15.64,0,0,1-5,9.38q-3.84,3.26-10.17,3.26a15.42,15.42,0,0,1-6.77-1.39,13.76,13.76,0,0,1-4.83-3.81A16.16,16.16,0,0,1,297,345.9a25.48,25.48,0,0,1-1-7.11,24.88,24.88,0,0,1,1-7,17.66,17.66,0,0,1,3-5.92,14.66,14.66,0,0,1,4.93-4.08,15,15,0,0,1,7-1.53,14.79,14.79,0,0,1,6.49,1.36,13.62,13.62,0,0,1,4.73,3.71,16.49,16.49,0,0,1,2.89,5.44,21.72,21.72,0,0,1,1,6.63c0,0.23,0,.49,0,0.78s0,0.53,0,.71H298.68Zm25.7-2.24a20.9,20.9,0,0,0-1-5.41,13.4,13.4,0,0,0-2.42-4.49,12.06,12.06,0,0,0-3.89-3.09,11.4,11.4,0,0,0-5.22-1.16,12.23,12.23,0,0,0-5.52,1.19,12.48,12.48,0,0,0-4,3.13,13.94,13.94,0,0,0-2.52,4.52,21.16,21.16,0,0,0-1.09,5.3h25.64Z"/><path class="cls-2" d="M361.24,314.11a18.55,18.55,0,0,1-5.78,4.15,21,21,0,0,1-6.8,1.84v-2.24a17.82,17.82,0,0,0,7.41-2.86,17.54,17.54,0,0,0,5.44-5.92h2.31V356h-2.58V314.11Z"/></svg>