<?xml version="1.0" encoding="utf-8"?>
<!-- Generator: Adobe Illustrator 16.0.0, SVG Export Plug-In . SVG Version: 6.00 Build 0)  -->
<!DOCTYPE svg PUBLIC "-//W3C//DTD SVG 1.1 Tiny//EN" "http://www.w3.org/Graphics/SVG/1.1/DTD/svg11-tiny.dtd">
<svg version="1.1" baseProfile="tiny" id="Layer_1" xmlns="http://www.w3.org/2000/svg" xmlns:xlink="http://www.w3.org/1999/xlink"
	 x="0px" y="0px" width="400px" height="400px" viewBox="0 0 400 400" xml:space="preserve">
<rect fill="#0DC0DC" width="400" height="400"/>
<g>
	<g>
		<polygon fill="#0DC0DC" points="50.165,121.448 49.844,121.448 34.927,163.473 64.602,163.473 		"/>
		<path fill="#F4D019" d="M28.352,182.24h42.826l8.661,25.504h26.146L63.159,93.218H37.335L0,191.943v15.801h19.369L28.352,182.24z
			 M49.844,121.448h0.321l14.437,42.023H34.927L49.844,121.448z"/>
	</g>
	<path fill="#F4D019" d="M128.393,93.218v114.526h-22.775V93.218H128.393z"/>
	<path fill="#F4D019" d="M214.561,213.84c-0.91,4.275-2.861,8.26-5.854,11.949c-2.996,3.689-7.326,6.818-12.993,9.383
		c-5.669,2.566-13.261,3.85-22.774,3.85c-4.066,0-8.209-0.508-12.434-1.521c-4.226-1.02-8.075-2.594-11.549-4.73
		c-3.479-2.143-6.363-4.893-8.662-8.262c-2.301-3.369-3.607-7.406-3.93-12.107h22.615c1.067,4.271,3.152,7.24,6.257,8.898
		c3.101,1.656,6.682,2.486,10.747,2.486c6.416,0,11.093-1.924,14.033-5.773s4.355-8.717,4.25-14.598v-10.906h-0.318
		c-2.461,4.386-5.962,7.619-10.506,9.705c-4.549,2.084-9.331,3.127-14.355,3.127c-6.203,0-11.55-1.096-16.04-3.287
		c-4.492-2.19-8.181-5.187-11.067-8.982c-2.889-3.794-5-8.233-6.337-13.313c-1.338-5.078-2.005-10.451-2.005-16.12
		c0-5.346,0.774-10.507,2.326-15.479c1.549-4.973,3.822-9.355,6.816-13.151c2.99-3.795,6.71-6.818,11.146-9.063
		c4.438-2.245,9.543-3.368,15.317-3.368c5.454,0,10.238,1.017,14.354,3.048c4.115,2.032,7.563,5.453,10.348,10.266h0.318v-11.068
		h21.654v77.635C215.922,205.766,215.467,209.561,214.561,213.84z M183.36,186.25c2.46-1.283,4.49-2.992,6.096-5.132
		c1.604-2.14,2.807-4.572,3.609-7.299c0.802-2.728,1.2-5.586,1.2-8.582c0-3.421-0.318-6.656-0.962-9.704
		c-0.642-3.048-1.712-5.747-3.207-8.102c-1.499-2.351-3.477-4.222-5.936-5.613c-2.461-1.388-5.562-2.085-9.303-2.085
		c-3.21,0-5.964,0.641-8.264,1.925c-2.3,1.283-4.225,3.021-5.771,5.213c-1.554,2.192-2.675,4.706-3.369,7.538
		c-0.697,2.836-1.043,5.803-1.043,8.902c0,2.995,0.294,5.963,0.883,8.901c0.586,2.942,1.604,5.589,3.047,7.94
		c1.444,2.353,3.342,4.276,5.695,5.773c2.351,1.499,5.292,2.246,8.822,2.246C178.068,188.176,180.899,187.533,183.36,186.25z"/>
	<path fill="#F4D019" d="M271.838,154.17v19.569h-48.281V154.17H271.838z"/>
	<path fill="#F4D019" d="M47.633,306.15c3.421,3.312,8.342,4.971,14.757,4.971c4.598,0,8.556-1.146,11.869-3.447
		c3.313-2.299,5.347-4.729,6.097-7.299h20.051c-3.207,9.945-8.128,17.057-14.758,21.334c-6.633,4.277-14.65,6.416-24.061,6.416
		c-6.523,0-12.406-1.043-17.645-3.127c-5.24-2.086-9.68-5.055-13.313-8.902c-3.637-3.85-6.442-8.445-8.421-13.795
		c-1.979-5.346-2.968-11.229-2.968-17.645c0-6.201,1.016-11.977,3.048-17.324c2.029-5.346,4.918-9.971,8.662-13.875
		c3.742-3.902,8.205-6.975,13.393-9.221c5.188-2.246,10.934-3.371,17.244-3.371c7.059,0,13.205,1.365,18.446,4.09
		c5.237,2.729,9.543,6.393,12.912,10.99c3.368,4.6,5.8,9.838,7.299,15.719c1.495,5.881,2.029,12.029,1.604,18.445H42.02
		C42.339,297.488,44.209,302.838,47.633,306.15z M73.377,262.521c-2.727-2.994-6.872-4.492-12.431-4.492
		c-3.639,0-6.657,0.617-9.062,1.846s-4.331,2.754-5.774,4.572c-1.443,1.816-2.461,3.742-3.047,5.771
		c-0.59,2.031-0.938,3.852-1.043,5.453h37.053C78.002,269.898,76.104,265.516,73.377,262.521z"/>
	<path fill="#F4D019" d="M128.538,211.514v41.703h0.32c2.777-4.271,6.55-7.4,11.309-9.383c4.757-1.977,9.704-2.969,14.837-2.969
		c4.17,0,8.286,0.855,12.352,2.566c4.062,1.713,7.726,4.33,10.986,7.859s5.908,8.047,7.94,13.555
		c2.03,5.51,3.048,12.059,3.048,19.648c0,7.594-1.018,14.143-3.048,19.646c-2.032,5.51-4.679,10.025-7.94,13.557
		c-3.263,3.525-6.924,6.148-10.986,7.857c-4.063,1.709-8.182,2.566-12.352,2.566c-6.096,0-11.549-0.963-16.36-2.889
		c-4.812-1.924-8.447-5.186-10.906-9.783h-0.32v10.586h-21.654V211.514H128.538z M165.43,274.551
		c-0.75-3.209-1.924-6.039-3.527-8.502c-1.604-2.459-3.608-4.41-6.017-5.854c-2.405-1.443-5.321-2.166-8.741-2.166
		c-3.314,0-6.201,0.723-8.66,2.166c-2.463,1.441-4.491,3.395-6.097,5.854c-1.604,2.463-2.782,5.293-3.527,8.502
		c-0.749,3.209-1.123,6.576-1.123,10.105c0,3.424,0.374,6.734,1.123,9.943c0.747,3.207,1.925,6.045,3.527,8.5
		c1.604,2.463,3.634,4.412,6.097,5.855c2.459,1.443,5.346,2.164,8.66,2.164c3.422,0,6.336-0.721,8.741-2.164
		c2.406-1.443,4.411-3.396,6.017-5.855c1.604-2.455,2.777-5.293,3.527-8.5c0.747-3.209,1.123-6.521,1.123-9.943
		C166.553,281.127,166.177,277.76,165.43,274.551z"/>
	<path fill="#F4D019" d="M215.715,243.111v15.398h0.32c1.07-2.564,2.512-4.943,4.332-7.139c1.814-2.189,3.904-4.062,6.254-5.613
		c2.354-1.549,4.867-2.752,7.543-3.607c2.67-0.855,5.451-1.285,8.34-1.285c1.496,0,3.152,0.27,4.971,0.803v21.174
		c-1.068-0.213-2.354-0.398-3.85-0.561s-2.941-0.242-4.332-0.242c-4.17,0-7.699,0.697-10.584,2.086
		c-2.887,1.391-5.213,3.287-6.979,5.693c-1.764,2.404-3.023,5.213-3.77,8.422c-0.752,3.207-1.123,6.686-1.123,10.426v37.373H194.06
		v-82.928H215.715z"/>
	<path fill="#F4D019" d="M246.863,268.617c0.318-5.35,1.656-9.785,4.01-13.314c2.352-3.527,5.346-6.357,8.984-8.5
		c3.633-2.139,7.725-3.664,12.27-4.57c4.543-0.908,9.115-1.365,13.715-1.365c4.17,0,8.395,0.299,12.67,0.883
		c4.277,0.59,8.184,1.74,11.711,3.449c3.529,1.713,6.414,4.09,8.66,7.139c2.246,3.047,3.369,7.084,3.369,12.111v43.146
		c0,3.744,0.213,7.326,0.641,10.746c0.43,3.425,1.18,5.99,2.246,7.699h-23.096c-0.43-1.281-0.777-2.592-1.045-3.931
		c-0.268-1.334-0.455-2.698-0.561-4.09c-3.639,3.744-7.916,6.362-12.832,7.858c-4.92,1.496-9.945,2.246-15.078,2.246
		c-3.957,0-7.646-0.481-11.066-1.442c-3.426-0.964-6.418-2.459-8.984-4.492c-2.562-2.028-4.568-4.599-6.016-7.696
		c-1.441-3.103-2.164-6.791-2.164-11.07c0-4.702,0.828-8.58,2.486-11.627c1.656-3.047,3.795-5.479,6.416-7.299
		c2.619-1.815,5.613-3.183,8.982-4.09c3.367-0.908,6.762-1.63,10.186-2.166c3.422-0.535,6.789-0.964,10.104-1.285
		c3.314-0.317,6.256-0.801,8.822-1.44c2.566-0.641,4.598-1.576,6.096-2.808c1.496-1.229,2.189-3.021,2.084-5.375
		c0-2.457-0.398-4.412-1.199-5.854c-0.805-1.441-1.875-2.566-3.209-3.367c-1.34-0.805-2.889-1.334-4.652-1.604
		c-1.766-0.266-3.664-0.399-5.695-0.399c-4.486,0-8.02,0.961-10.584,2.886c-2.564,1.926-4.064,5.135-4.492,9.627h-22.777V268.617z
		 M299.475,285.457c-0.963,0.857-2.166,1.523-3.605,2.006c-1.445,0.482-2.996,0.883-4.652,1.203
		c-1.658,0.32-3.396,0.588-5.213,0.801c-1.82,0.217-3.639,0.482-5.455,0.805c-1.711,0.32-3.395,0.75-5.051,1.281
		c-1.66,0.537-3.104,1.26-4.332,2.166c-1.23,0.91-2.221,2.062-2.967,3.447c-0.75,1.393-1.123,3.156-1.123,5.295
		c0,2.033,0.373,3.744,1.123,5.133c0.746,1.395,1.764,2.486,3.047,3.289c1.283,0.801,2.781,1.363,4.492,1.686
		c1.709,0.32,3.473,0.479,5.293,0.479c4.488,0,7.965-0.746,10.426-2.244c2.459-1.498,4.275-3.289,5.453-5.375
		s1.896-4.191,2.166-6.336c0.266-2.137,0.398-3.85,0.398-5.133V285.457L299.475,285.457z"/>
	<g>
		<path fill="#FFFFFF" d="M53.973,60.507c1.092,1.056,1.699,2.255,1.819,3.597h-2.09c-0.232-1.02-0.695-1.827-1.392-2.423
			c-0.693-0.597-1.668-0.894-2.925-0.894c-1.528,0-2.765,0.548-3.706,1.644c-0.939,1.096-1.412,2.775-1.412,5.039
			c0,1.854,0.426,3.356,1.274,4.51c0.851,1.153,2.118,1.73,3.804,1.73c1.553,0,2.732-0.607,3.545-1.82
			c0.43-0.64,0.75-1.479,0.963-2.521h2.088c-0.185,1.666-0.795,3.062-1.83,4.189c-1.242,1.357-2.918,2.035-5.024,2.035
			c-1.815,0-3.343-0.557-4.577-1.67c-1.625-1.473-2.438-3.746-2.438-6.821c0-2.334,0.609-4.249,1.83-5.743
			c1.32-1.624,3.14-2.436,5.46-2.436C51.342,58.924,52.879,59.451,53.973,60.507z"/>
		<path fill="#FFFFFF" d="M66.809,64.792c1.021,0.989,1.529,2.445,1.529,4.368c0,1.858-0.449,3.394-1.348,4.605
			c-0.899,1.211-2.291,1.818-4.183,1.818c-1.574,0-2.825-0.537-3.754-1.609c-0.927-1.071-1.39-2.512-1.39-4.32
			c0-1.938,0.488-3.479,1.464-4.627c0.979-1.146,2.289-1.721,3.937-1.721C64.541,63.307,65.789,63.802,66.809,64.792z
			 M65.605,72.457c0.472-0.972,0.707-2.053,0.707-3.243c0-1.076-0.172-1.95-0.513-2.624c-0.539-1.062-1.469-1.593-2.79-1.593
			c-1.171,0-2.021,0.452-2.555,1.355s-0.799,1.994-0.799,3.27c0,1.227,0.266,2.249,0.799,3.066c0.532,0.817,1.376,1.226,2.533,1.226
			C64.262,73.914,65.133,73.429,65.605,72.457z"/>
		<path fill="#FFFFFF" d="M70.771,59.354h1.938v15.819h-1.938V59.354z"/>
		<path fill="#FFFFFF" d="M75.672,59.354h1.938v15.819h-1.938V59.354z"/>
		<path fill="#FFFFFF" d="M87.642,63.959c0.766,0.384,1.348,0.881,1.745,1.49c0.385,0.582,0.644,1.261,0.771,2.036
			c0.113,0.531,0.171,1.378,0.171,2.541h-8.39c0.034,1.174,0.312,2.115,0.821,2.825c0.515,0.708,1.31,1.062,2.383,1.062
			c1.005,0,1.809-0.336,2.404-1.006c0.335-0.389,0.572-0.84,0.712-1.354h1.906c-0.05,0.424-0.218,0.896-0.501,1.416
			c-0.283,0.521-0.601,0.946-0.949,1.276c-0.584,0.574-1.308,0.963-2.17,1.163c-0.463,0.114-0.986,0.173-1.57,0.173
			c-1.427,0-2.637-0.523-3.629-1.566c-0.989-1.046-1.485-2.509-1.485-4.39c0-1.853,0.5-3.355,1.499-4.512
			c0.999-1.157,2.305-1.734,3.917-1.734C86.09,63.382,86.878,63.574,87.642,63.959z M88.336,68.486
			c-0.078-0.84-0.261-1.512-0.544-2.014c-0.527-0.933-1.407-1.4-2.638-1.4c-0.883,0-1.623,0.321-2.224,0.964
			c-0.598,0.644-0.915,1.46-0.948,2.45H88.336z"/>
		<path fill="#FFFFFF" d="M99.195,64.104c0.363,0.252,0.735,0.618,1.114,1.099v-1.454h1.787v10.489c0,1.465-0.214,2.621-0.644,3.468
			c-0.801,1.565-2.314,2.348-4.54,2.348c-1.238,0-2.279-0.278-3.123-0.835c-0.845-0.557-1.316-1.427-1.418-2.611h1.972
			c0.093,0.517,0.277,0.915,0.559,1.195c0.436,0.431,1.121,0.646,2.056,0.646c1.479,0,2.445-0.524,2.903-1.572
			c0.271-0.618,0.396-1.72,0.375-3.307c-0.389,0.589-0.854,1.027-1.396,1.314c-0.543,0.286-1.263,0.431-2.156,0.431
			c-1.243,0-2.334-0.443-3.267-1.331c-0.933-0.886-1.398-2.353-1.398-4.398c0-1.932,0.471-3.439,1.409-4.522
			c0.939-1.084,2.075-1.627,3.406-1.627C97.736,63.436,98.523,63.658,99.195,64.104z M99.434,66.182
			c-0.587-0.688-1.333-1.033-2.238-1.033c-1.357,0-2.285,0.639-2.785,1.917c-0.267,0.682-0.396,1.576-0.396,2.681
			c0,1.3,0.264,2.289,0.787,2.967c0.525,0.68,1.23,1.019,2.116,1.019c1.386,0,2.36-0.629,2.925-1.885
			c0.313-0.711,0.473-1.54,0.473-2.487C100.312,67.931,100.02,66.871,99.434,66.182z"/>
		<path fill="#FFFFFF" d="M112.174,63.959c0.764,0.384,1.346,0.881,1.745,1.49c0.384,0.582,0.642,1.261,0.771,2.036
			c0.112,0.531,0.171,1.378,0.171,2.541h-8.392c0.036,1.174,0.312,2.115,0.823,2.825c0.513,0.708,1.308,1.062,2.383,1.062
			c1.004,0,1.808-0.336,2.404-1.006c0.335-0.389,0.571-0.84,0.712-1.354h1.906c-0.052,0.424-0.22,0.896-0.502,1.416
			c-0.283,0.521-0.601,0.946-0.948,1.276c-0.585,0.574-1.309,0.963-2.17,1.163c-0.463,0.114-0.986,0.173-1.571,0.173
			c-1.426,0-2.637-0.523-3.628-1.566c-0.991-1.046-1.487-2.509-1.487-4.39c0-1.853,0.5-3.355,1.499-4.512
			c0.999-1.157,2.307-1.734,3.917-1.734C110.622,63.382,111.41,63.574,112.174,63.959z M112.868,68.486
			c-0.078-0.84-0.261-1.512-0.544-2.014c-0.527-0.933-1.407-1.4-2.64-1.4c-0.884,0-1.622,0.321-2.222,0.964
			c-0.598,0.644-0.915,1.46-0.95,2.45H112.868z"/>
	</g>
</g>
</svg>
