<svg xmlns="http://www.w3.org/2000/svg" viewBox="0 0 136.7 52.6"><style>.st5{fill:#233065}.st8{fill:#fff}</style><g id="Layer_2"><path class="st8" d="M136.7 52.6H26.3C11.8 52.6 0 40.8 0 26.3S11.8 0 26.3 0h110.4v52.6z"/><path class="st5" d="M68.1 35.1c.4.6.6 1.3.6 2.2 0 .7-.1 1.4-.4 2.1-.3.6-.7 1.2-1.3 1.6-.6.5-1.3.8-2.1 1.1-.8.3-1.8.4-2.9.4-.9 0-1.8-.1-2.6-.3-.8-.2-1.6-.6-2.2-1-.6-.5-1.2-1.1-1.5-1.8-.4-.7-.6-1.6-.5-2.6h3.4c0 .5.1 1 .3 1.4.2.4.5.7.8.9.3.2.7.4 1.1.5.4.1.9.2 1.4.2.3 0 .7 0 1-.1.4-.1.7-.2 1-.3.3-.2.6-.4.8-.6.2-.3.3-.6.3-1s-.1-.8-.4-1.1c-.3-.3-.6-.5-1.1-.7-.5-.2-1-.3-1.5-.5-.6-.1-1.2-.3-1.7-.5-.6-.2-1.2-.3-1.8-.6-.6-.2-1.1-.5-1.5-.8s-.8-.8-1.1-1.3c-.3-.5-.4-1.2-.4-1.9 0-.8.2-1.6.5-2.2.4-.6.8-1.1 1.4-1.5.6-.4 1.2-.7 1.9-.9.7-.2 1.4-.3 2.2-.3.8 0 1.7.1 2.4.3.8.2 1.5.5 2.1.9.6.4 1.1 1 1.4 1.6.4.7.5 1.5.5 2.4h-3.4c0-.5-.1-.9-.3-1.2-.2-.3-.4-.6-.7-.7-.3-.2-.6-.3-1-.4-.4-.1-.8-.1-1.2-.1-.3 0-.6 0-.9.1-.3.1-.5.2-.8.3-.2.2-.4.3-.6.6-.2.2-.2.5-.2.9 0 .3.1.6.2.8.1.2.4.4.7.5.4.2.8.3 1.5.5.6.2 1.4.4 2.5.6.3.1.7.2 1.3.3.5.2 1.1.4 1.6.8.3.3.8.8 1.2 1.4zM28.8 17.8h-1.4c-.2 0-.4.1-.5.2s-.2.3-.2.5v7.8h-5c-.2 0-.4.1-.5.2s-.2.3-.2.5v1.4c0 .2.1.4.2.5s.3.2.5.2h7.1c.2 0 .4-.1.5-.2s.2-.3.2-.5v-10c0-.2-.1-.4-.2-.5s-.3-.1-.5-.1zm12.6 0c1.5 2.6 2.3 5.5 2.3 8.6s-.8 6-2.3 8.6c-1.5 2.6-3.6 4.7-6.2 6.2s-5.5 2.3-8.6 2.3c-3.1 0-6-.8-8.6-2.3-2.6-1.5-4.7-3.6-6.2-6.2s-2.3-5.5-2.3-8.6.8-6 2.3-8.6c1.5-2.6 3.6-4.7 6.2-6.2s5.5-2.3 8.6-2.3c3.1 0 6 .8 8.6 2.3 2.6 1.5 4.7 3.6 6.2 6.2zm-2.7 8.6c0-2.2-.5-4.2-1.6-6.1-1.1-1.9-2.6-3.3-4.4-4.4-1.9-1.1-3.9-1.6-6.1-1.6-2.2 0-4.2.5-6.1 1.6-1.9 1.1-3.3 2.6-4.4 4.4-1.1 1.9-1.6 3.9-1.6 6.1 0 2.2.5 4.2 1.6 6.1s2.6 3.3 4.4 4.4c1.9 1.1 3.9 1.6 6.1 1.6 2.2 0 4.2-.5 6.1-1.6 1.9-1.1 3.3-2.6 4.4-4.4s1.6-3.9 1.6-6.1zm17.8-5.6c.4.5 1 1 1.6 1.3.7.3 1.4.5 2.3.5 1.5 0 2.6-.4 3.5-1.2.8-.8 1.3-1.9 1.5-3.4h-1.5c0 .5-.1.9-.3 1.3-.2.4-.4.8-.7 1-.3.3-.6.5-1 .7-.4.2-.8.2-1.3.2-.7 0-1.3-.1-1.8-.4s-.9-.6-1.2-1c-.3-.4-.5-.9-.7-1.5s-.2-1.2-.2-1.8c0-.6.1-1.2.2-1.7s.4-1 .7-1.5.7-.8 1.2-1c.5-.3 1.1-.4 1.8-.4.8 0 1.5.2 2.1.6.6.4 1 1 1.1 1.8h1.5c-.1-.6-.3-1.1-.5-1.6-.3-.5-.6-.9-1-1.2-.4-.3-.9-.5-1.4-.7s-1.1-.2-1.7-.2c-.9 0-1.7.2-2.3.5-.7.3-1.2.7-1.7 1.3-.5.5-.8 1.2-1 1.9s-.4 1.5-.4 2.3.1 1.6.3 2.3c.1.7.5 1.3.9 1.9zm38.5-10h-1.5v11.4H95V10.8zm15 9.9c.5.5 1 1 1.7 1.3s1.4.5 2.3.5c.7 0 1.3-.1 2-.4.7-.3 1.2-.7 1.7-1.3l.4 1.4h1v-6h-5v1.3h3.6c0 .5 0 1-.2 1.5s-.4.8-.7 1.2-.7.6-1.2.8-1 .3-1.6.3c-.6 0-1.2-.1-1.7-.4-.5-.3-.9-.6-1.2-1s-.6-.9-.8-1.5c-.2-.5-.3-1.1-.3-1.7 0-.6.1-1.2.2-1.8.1-.6.4-1.1.7-1.6.3-.5.7-.8 1.2-1.1s1.1-.4 1.8-.4c.4 0 .8.1 1.2.2.4.1.7.3 1 .5.3.2.5.5.8.8.2.3.3.7.4 1.1h1.5a4.283 4.283 0 0 0-1.7-2.9c-.4-.3-.9-.5-1.5-.7s-1.1-.2-1.8-.2c-.9 0-1.7.2-2.4.5s-1.2.8-1.7 1.4-.8 1.2-1 2c-.2.8-.3 1.5-.3 2.4 0 .7.1 1.5.4 2.2.3.5.7 1.1 1.2 1.6zm-37.9 1.8c-.9 0-1.7-.2-2.4-.5s-1.3-.8-1.7-1.3c-.5-.6-.8-1.2-1-1.9-.2-.7-.3-1.5-.3-2.2s.1-1.5.3-2.2c.2-.7.6-1.4 1-1.9.5-.6 1-1 1.7-1.3.7-.3 1.5-.5 2.4-.5.9 0 1.7.2 2.4.5s1.3.8 1.7 1.3c.5.6.8 1.2 1 1.9.2.7.3 1.5.3 2.2s-.1 1.5-.3 2.2c-.2.7-.6 1.4-1 1.9s-1 1-1.7 1.3-1.5.5-2.4.5zm-1.8-1.7c.5.3 1.1.4 1.8.4s1.3-.1 1.8-.4c.5-.3.9-.6 1.2-1.1.3-.4.6-1 .7-1.5.1-.6.2-1.1.2-1.7 0-.6-.1-1.1-.2-1.7s-.4-1.1-.7-1.5c-.3-.4-.7-.8-1.2-1.1-.5-.3-1.1-.4-1.8-.4s-1.3.1-1.8.4c-.5.3-.9.6-1.2 1.1-.3.4-.6 1-.7 1.5s-.2 1.1-.2 1.7c0 .6.1 1.1.2 1.7.1.6.4 1.1.7 1.5.3.5.7.8 1.2 1.1zm32.4 9.9c.4 1 .5 2.2.5 3.4 0 1.2-.2 2.3-.5 3.3-.4 1-.9 1.9-1.6 2.7-.7.8-1.5 1.3-2.5 1.8-1 .4-2.1.6-3.4.6-1.2 0-2.4-.2-3.3-.6-1-.4-1.8-1-2.5-1.8s-1.2-1.6-1.6-2.7c-.4-1-.5-2.1-.5-3.3 0-1.2.2-2.3.5-3.4.4-1 .9-1.9 1.6-2.7.7-.8 1.5-1.4 2.5-1.8 1-.4 2.1-.7 3.3-.7 1.3 0 2.4.2 3.4.7 1 .4 1.8 1 2.5 1.8s1.2 1.7 1.6 2.7zm-3 3.4c0-.7-.1-1.4-.2-2.1-.2-.7-.4-1.3-.8-1.8-.3-.5-.8-.9-1.4-1.2-.6-.3-1.2-.5-2-.5s-1.5.2-2 .5c-.6.3-1 .7-1.4 1.2-.3.5-.6 1.1-.8 1.8-.2.7-.2 1.4-.2 2.1 0 .7.1 1.3.2 2 .2.6.4 1.2.8 1.7.3.5.8.9 1.4 1.2.6.3 1.2.5 2 .5s1.5-.2 2-.5c.6-.3 1-.7 1.4-1.2.3-.5.6-1.1.8-1.7.1-.7.2-1.3.2-2zm16.1-8.2v10.8L109 25.9h-3.5v16.2h3.3V31.3l6.7 10.8h3.6V25.9h-3.3zm-9.2-15.1h-1.4V20l-6-9.3h-1.6v11.4H99V13l6 9.2h1.7V10.8zM85.2 30.7c.4 1 .5 2.2.5 3.4 0 1.2-.2 2.3-.5 3.3-.4 1-.9 1.9-1.6 2.7-.7.8-1.5 1.3-2.5 1.8-1 .4-2.1.6-3.4.6-1.2 0-2.4-.2-3.3-.6-1-.4-1.8-1-2.5-1.8s-1.2-1.6-1.6-2.7c-.4-1-.5-2.1-.5-3.3 0-1.2.2-2.3.5-3.4.4-1 .9-1.9 1.6-2.7.7-.8 1.5-1.4 2.5-1.8 1-.4 2.1-.7 3.3-.7 1.3 0 2.4.2 3.4.7 1 .4 1.8 1 2.5 1.8.8.8 1.3 1.7 1.6 2.7zm-3 3.4c0-.7-.1-1.4-.2-2.1-.2-.7-.4-1.3-.8-1.8-.3-.5-.8-.9-1.4-1.2-.6-.3-1.2-.5-2-.5s-1.5.2-2 .5c-.6.3-1 .7-1.4 1.2-.3.5-.6 1.1-.8 1.8-.2.7-.2 1.4-.2 2.1 0 .7.1 1.3.2 2 .2.6.4 1.2.8 1.7.3.5.8.9 1.4 1.2.6.3 1.2.5 2 .5s1.5-.2 2-.5c.6-.3 1-.7 1.4-1.2.3-.5.6-1.1.8-1.7.1-.7.2-1.3.2-2zm7.2-21.4v9.5h1.4V10.8h-2.1l-3.6 9.6-3.6-9.6h-2.1v11.4h1.4v-9.5l3.6 9.5h1.3l3.7-9.5z"/></g></svg>