<?xml version="1.0" encoding="utf-8"?><svg version="1.1" xmlns="http://www.w3.org/2000/svg" xmlns:xlink="http://www.w3.org/1999/xlink" x="0px" y="0px"   viewBox="0 0 136.7 52.6" style="enable-background:new 0 0 136.7 52.6;" xml:space="preserve"> <style type="text/css">   .st5{fill:#233065;}     .st8{fill:#FFFFFF;} </style> <g id="Layer_2">   <g>         <path class="st8" d="M136.7,52.6H26.3C11.8,52.6,0,40.8,0,26.3v0C0,11.8,11.8,0,26.3,0l110.4,0V52.6z"/>       <path class="st5" d="M68.1,35.1c0.4,0.6,0.6,1.3,0.6,2.2c0,0.7-0.1,1.4-0.4,2.1c-0.3,0.6-0.7,1.2-1.3,1.6          c-0.6,0.5-1.3,0.8-2.1,1.1c-0.8,0.3-1.8,0.4-2.9,0.4c-0.9,0-1.8-0.1-2.6-0.3c-0.8-0.2-1.6-0.6-2.2-1c-0.6-0.5-1.2-1.1-1.5-1.8           c-0.4-0.7-0.6-1.6-0.5-2.6h3.4c0,0.5,0.1,1,0.3,1.4c0.2,0.4,0.5,0.7,0.8,0.9c0.3,0.2,0.7,0.4,1.1,0.5c0.4,0.1,0.9,0.2,1.4,0.2           c0.3,0,0.7,0,1-0.1c0.4-0.1,0.7-0.2,1-0.3c0.3-0.2,0.6-0.4,0.8-0.6c0.2-0.3,0.3-0.6,0.3-1c0-0.4-0.1-0.8-0.4-1.1            c-0.3-0.3-0.6-0.5-1.1-0.7c-0.5-0.2-1-0.3-1.5-0.5c-0.6-0.1-1.2-0.3-1.7-0.5c-0.6-0.2-1.2-0.3-1.8-0.6c-0.6-0.2-1.1-0.5-1.5-0.8             s-0.8-0.8-1.1-1.3c-0.3-0.5-0.4-1.2-0.4-1.9c0-0.8,0.2-1.6,0.5-2.2c0.4-0.6,0.8-1.1,1.4-1.5c0.6-0.4,1.2-0.7,1.9-0.9            c0.7-0.2,1.4-0.3,2.2-0.3c0.8,0,1.7,0.1,2.4,0.3c0.8,0.2,1.5,0.5,2.1,0.9c0.6,0.4,1.1,1,1.4,1.6c0.4,0.7,0.5,1.5,0.5,2.4h-3.4           c0-0.5-0.1-0.9-0.3-1.2c-0.2-0.3-0.4-0.6-0.7-0.7c-0.3-0.2-0.6-0.3-1-0.4c-0.4-0.1-0.8-0.1-1.2-0.1c-0.3,0-0.6,0-0.9,0.1            c-0.3,0.1-0.5,0.2-0.8,0.3c-0.2,0.2-0.4,0.3-0.6,0.6c-0.2,0.2-0.2,0.5-0.2,0.9c0,0.3,0.1,0.6,0.2,0.8c0.1,0.2,0.4,0.4,0.7,0.5           c0.4,0.2,0.8,0.3,1.5,0.5c0.6,0.2,1.4,0.4,2.5,0.6c0.3,0.1,0.7,0.2,1.3,0.3c0.5,0.2,1.1,0.4,1.6,0.8C67.2,34,67.7,34.5,68.1,35.1z            M28.8,17.8h-1.4c-0.2,0-0.4,0.1-0.5,0.2s-0.2,0.3-0.2,0.5v7.8h-5c-0.2,0-0.4,0.1-0.5,0.2s-0.2,0.3-0.2,0.5v1.4             c0,0.2,0.1,0.4,0.2,0.5s0.3,0.2,0.5,0.2h7.1c0.2,0,0.4-0.1,0.5-0.2s0.2-0.3,0.2-0.5v-10c0-0.2-0.1-0.4-0.2-0.5S29,17.8,28.8,17.8z            M41.4,17.8c1.5,2.6,2.3,5.5,2.3,8.6s-0.8,6-2.3,8.6c-1.5,2.6-3.6,4.7-6.2,6.2c-2.6,1.5-5.5,2.3-8.6,2.3c-3.1,0-6-0.8-8.6-2.3           c-2.6-1.5-4.7-3.6-6.2-6.2c-1.5-2.6-2.3-5.5-2.3-8.6s0.8-6,2.3-8.6c1.5-2.6,3.6-4.7,6.2-6.2c2.6-1.5,5.5-2.3,8.6-2.3            c3.1,0,6,0.8,8.6,2.3C37.8,13.1,39.9,15.2,41.4,17.8z M38.7,26.4c0-2.2-0.5-4.2-1.6-6.1c-1.1-1.9-2.6-3.3-4.4-4.4           c-1.9-1.1-3.9-1.6-6.1-1.6c-2.2,0-4.2,0.5-6.1,1.6c-1.9,1.1-3.3,2.6-4.4,4.4c-1.1,1.9-1.6,3.9-1.6,6.1c0,2.2,0.5,4.2,1.6,6.1            s2.6,3.3,4.4,4.4c1.9,1.1,3.9,1.6,6.1,1.6c2.2,0,4.2-0.5,6.1-1.6c1.9-1.1,3.3-2.6,4.4-4.4S38.7,28.6,38.7,26.4z M56.5,20.8          c0.4,0.5,1,1,1.6,1.3c0.7,0.3,1.4,0.5,2.3,0.5c1.5,0,2.6-0.4,3.5-1.2c0.8-0.8,1.3-1.9,1.5-3.4h-1.5c0,0.5-0.1,0.9-0.3,1.3           c-0.2,0.4-0.4,0.8-0.7,1c-0.3,0.3-0.6,0.5-1,0.7c-0.4,0.2-0.8,0.2-1.3,0.2c-0.7,0-1.3-0.1-1.8-0.4s-0.9-0.6-1.2-1           c-0.3-0.4-0.5-0.9-0.7-1.5s-0.2-1.2-0.2-1.8c0-0.6,0.1-1.2,0.2-1.7s0.4-1,0.7-1.5s0.7-0.8,1.2-1c0.5-0.3,1.1-0.4,1.8-0.4            c0.8,0,1.5,0.2,2.1,0.6c0.6,0.4,1,1,1.1,1.8h1.5c-0.1-0.6-0.3-1.1-0.5-1.6c-0.3-0.5-0.6-0.9-1-1.2c-0.4-0.3-0.9-0.5-1.4-0.7             s-1.1-0.2-1.7-0.2c-0.9,0-1.7,0.2-2.3,0.5c-0.7,0.3-1.2,0.7-1.7,1.3c-0.5,0.5-0.8,1.2-1,1.9s-0.4,1.5-0.4,2.3s0.1,1.6,0.3,2.3           C55.7,19.6,56.1,20.2,56.5,20.8z M95,10.8h-1.5v11.4H95V10.8z M110,20.7c0.5,0.5,1,1,1.7,1.3s1.4,0.5,2.3,0.5c0.7,0,1.3-0.1,2-0.4           c0.7-0.3,1.2-0.7,1.7-1.3l0.4,1.4h1v-6h-5v1.3h3.6c0,0.5,0,1-0.2,1.5c-0.2,0.5-0.4,0.8-0.7,1.2s-0.7,0.6-1.2,0.8s-1,0.3-1.6,0.3             c-0.6,0-1.2-0.1-1.7-0.4c-0.5-0.3-0.9-0.6-1.2-1s-0.6-0.9-0.8-1.5c-0.2-0.5-0.3-1.1-0.3-1.7c0-0.6,0.1-1.2,0.2-1.8          c0.1-0.6,0.4-1.1,0.7-1.6c0.3-0.5,0.7-0.8,1.2-1.1s1.1-0.4,1.8-0.4c0.4,0,0.8,0.1,1.2,0.2c0.4,0.1,0.7,0.3,1,0.5            c0.3,0.2,0.5,0.5,0.8,0.8c0.2,0.3,0.3,0.7,0.4,1.1h1.5c-0.1-0.7-0.3-1.2-0.6-1.7c-0.3-0.5-0.7-0.9-1.1-1.2          c-0.4-0.3-0.9-0.5-1.5-0.7s-1.1-0.2-1.8-0.2c-0.9,0-1.7,0.2-2.4,0.5s-1.2,0.8-1.7,1.4s-0.8,1.2-1,2c-0.2,0.8-0.3,1.5-0.3,2.4            c0,0.7,0.1,1.5,0.4,2.2C109.1,19.6,109.5,20.2,110,20.7z M72.1,22.5c-0.9,0-1.7-0.2-2.4-0.5s-1.3-0.8-1.7-1.3           c-0.5-0.6-0.8-1.2-1-1.9c-0.2-0.7-0.3-1.5-0.3-2.2s0.1-1.5,0.3-2.2c0.2-0.7,0.6-1.4,1-1.9c0.5-0.6,1-1,1.7-1.3          c0.7-0.3,1.5-0.5,2.4-0.5c0.9,0,1.7,0.2,2.4,0.5c0.7,0.3,1.3,0.8,1.7,1.3c0.5,0.6,0.8,1.2,1,1.9c0.2,0.7,0.3,1.5,0.3,2.2            s-0.1,1.5-0.3,2.2c-0.2,0.7-0.6,1.4-1,1.9s-1,1-1.7,1.3S73,22.5,72.1,22.5z M70.3,20.8c0.5,0.3,1.1,0.4,1.8,0.4s1.3-0.1,1.8-0.4             c0.5-0.3,0.9-0.6,1.2-1.1c0.3-0.4,0.6-1,0.7-1.5c0.1-0.6,0.2-1.1,0.2-1.7c0-0.6-0.1-1.1-0.2-1.7s-0.4-1.1-0.7-1.5           c-0.3-0.4-0.7-0.8-1.2-1.1c-0.5-0.3-1.1-0.4-1.8-0.4s-1.3,0.1-1.8,0.4c-0.5,0.3-0.9,0.6-1.2,1.1c-0.3,0.4-0.6,1-0.7,1.5             s-0.2,1.1-0.2,1.7c0,0.6,0.1,1.1,0.2,1.7c0.1,0.6,0.4,1.1,0.7,1.5C69.4,20.2,69.8,20.5,70.3,20.8z M102.7,30.7          c0.4,1,0.5,2.2,0.5,3.4c0,1.2-0.2,2.3-0.5,3.3c-0.4,1-0.9,1.9-1.6,2.7c-0.7,0.8-1.5,1.3-2.5,1.8c-1,0.4-2.1,0.6-3.4,0.6             c-1.2,0-2.4-0.2-3.3-0.6c-1-0.4-1.8-1-2.5-1.8c-0.7-0.8-1.2-1.6-1.6-2.7c-0.4-1-0.5-2.1-0.5-3.3c0-1.2,0.2-2.3,0.5-3.4          c0.4-1,0.9-1.9,1.6-2.7c0.7-0.8,1.5-1.4,2.5-1.8c1-0.4,2.1-0.7,3.3-0.7c1.3,0,2.4,0.2,3.4,0.7c1,0.4,1.8,1,2.5,1.8          C101.8,28.8,102.3,29.7,102.7,30.7z M99.7,34.1c0-0.7-0.1-1.4-0.2-2.1c-0.2-0.7-0.4-1.3-0.8-1.8c-0.3-0.5-0.8-0.9-1.4-1.2           c-0.6-0.3-1.2-0.5-2-0.5c-0.8,0-1.5,0.2-2,0.5c-0.6,0.3-1,0.7-1.4,1.2c-0.3,0.5-0.6,1.1-0.8,1.8c-0.2,0.7-0.2,1.4-0.2,2.1           c0,0.7,0.1,1.3,0.2,2c0.2,0.6,0.4,1.2,0.8,1.7c0.3,0.5,0.8,0.9,1.4,1.2c0.6,0.3,1.2,0.5,2,0.5c0.8,0,1.5-0.2,2-0.5          c0.6-0.3,1-0.7,1.4-1.2c0.3-0.5,0.6-1.1,0.8-1.7C99.6,35.4,99.7,34.8,99.7,34.1z M115.8,25.9v10.8h0L109,25.9h-3.5v16.2h3.3V31.3            h0l6.7,10.8h3.6V25.9H115.8z M106.6,10.8h-1.4V20h0l-6-9.3h-1.6v11.4H99V13h0l6,9.2h1.7V10.8z M85.2,30.7c0.4,1,0.5,2.2,0.5,3.4             c0,1.2-0.2,2.3-0.5,3.3c-0.4,1-0.9,1.9-1.6,2.7c-0.7,0.8-1.5,1.3-2.5,1.8c-1,0.4-2.1,0.6-3.4,0.6c-1.2,0-2.4-0.2-3.3-0.6            c-1-0.4-1.8-1-2.5-1.8c-0.7-0.8-1.2-1.6-1.6-2.7c-0.4-1-0.5-2.1-0.5-3.3c0-1.2,0.2-2.3,0.5-3.4c0.4-1,0.9-1.9,1.6-2.7           c0.7-0.8,1.5-1.4,2.5-1.8c1-0.4,2.1-0.7,3.3-0.7c1.3,0,2.4,0.2,3.4,0.7c1,0.4,1.8,1,2.5,1.8C84.4,28.8,84.9,29.7,85.2,30.7z              M82.2,34.1c0-0.7-0.1-1.4-0.2-2.1c-0.2-0.7-0.4-1.3-0.8-1.8c-0.3-0.5-0.8-0.9-1.4-1.2c-0.6-0.3-1.2-0.5-2-0.5          c-0.8,0-1.5,0.2-2,0.5c-0.6,0.3-1,0.7-1.4,1.2c-0.3,0.5-0.6,1.1-0.8,1.8c-0.2,0.7-0.2,1.4-0.2,2.1c0,0.7,0.1,1.3,0.2,2          c0.2,0.6,0.4,1.2,0.8,1.7c0.3,0.5,0.8,0.9,1.4,1.2c0.6,0.3,1.2,0.5,2,0.5c0.8,0,1.5-0.2,2-0.5c0.6-0.3,1-0.7,1.4-1.2            c0.3-0.5,0.6-1.1,0.8-1.7C82.1,35.4,82.2,34.8,82.2,34.1z M89.4,12.7v9.5h1.4V10.8h-2.1l-3.6,9.6l-3.6-9.6h-2.1v11.4h1.4v-9.5h0             l3.6,9.5h1.3L89.4,12.7L89.4,12.7z"/>    </g> </g> </svg>