<?xml version="1.0" encoding="utf-8"?>
<!-- Generator: Adobe Illustrator 21.1.0, SVG Export Plug-In . SVG Version: 6.00 Build 0)  -->
<!DOCTYPE svg PUBLIC "-//W3C//DTD SVG 1.1//EN" "http://www.w3.org/Graphics/SVG/1.1/DTD/svg11.dtd" [
	<!ENTITY ns_extend "http://ns.adobe.com/Extensibility/1.0/">
	<!ENTITY ns_ai "http://ns.adobe.com/AdobeIllustrator/10.0/">
	<!ENTITY ns_graphs "http://ns.adobe.com/Graphs/1.0/">
	<!ENTITY ns_vars "http://ns.adobe.com/Variables/1.0/">
	<!ENTITY ns_imrep "http://ns.adobe.com/ImageReplacement/1.0/">
	<!ENTITY ns_sfw "http://ns.adobe.com/SaveForWeb/1.0/">
	<!ENTITY ns_custom "http://ns.adobe.com/GenericCustomNamespace/1.0/">
	<!ENTITY ns_adobe_xpath "http://ns.adobe.com/XPath/1.0/">
]>
<svg version="1.1" id="Layer_1" xmlns:x="&ns_extend;" xmlns:i="&ns_ai;" xmlns:graph="&ns_graphs;"
	 xmlns="http://www.w3.org/2000/svg" xmlns:xlink="http://www.w3.org/1999/xlink" x="0px" y="0px" viewBox="0 0 92 37"
	 style="enable-background:new 0 0 92 37;" xml:space="preserve">
<style type="text/css">
	.st0{opacity:0.8;}
	.st1{fill:#555759;}
	.st2{fill:#FFFFFF;}
	.st3{fill:#233065;}
	.st4{fill:#21346A;}
</style>
<metadata>
	<sfw  xmlns="&ns_sfw;">
		<slices></slices>
		<sliceSourceBounds  bottomLeftOrigin="true" height="35.7" width="89.8" x="1" y="1.3"></sliceSourceBounds>
	</sfw>
</metadata>
<title>coming-soon</title>
<g id="Book-details--Individual-orders:-Coming-soon_1_" transform="translate(-1282.000000, -376.000000)" class="st0">
	<g id="Bookstore-orders-white_1_" transform="translate(1149.000000, 365.000000)">
		<g id="Layer_2_1_">
			<g id="Shape_3_">
				<g>
					<path id="path-1_4_" class="st1" d="M223.8,46.7h-72.4c-9.5,0-17.3-7.8-17.3-17.4S141.9,12,151.4,12h72.4V46.7L223.8,46.7z"/>
				</g>
				<g>
					<path id="path-1_3_" class="st1" d="M223.8,46.7h-72.4c-9.5,0-17.3-7.8-17.3-17.4S141.9,12,151.4,12h72.4V46.7L223.8,46.7z"/>
				</g>
			</g>
		</g>
	</g>
</g>
<desc>Created with Sketch.</desc>
<g id="Order-a-Print-Copy:-Coming-Soon">
	<g id="Book-details--Individual-orders:-Coming-soon" transform="translate(-1282.000000, -376.000000)">
		<g id="Bookstore-orders-white" transform="translate(1149.000000, 365.000000)">
			<g id="Layer_2">
				<g id="Shape">
					<g>
						<path id="path-1_2_" d="M223.8,45.7h-72.5c-9.5,0-17.3-7.8-17.3-17.4S141.8,11,151.3,11h72.5V45.7L223.8,45.7z"/>
					</g>
					<g>
						<path id="path-1_1_" class="st2" d="M223.8,45.7h-72.5c-9.5,0-17.3-7.8-17.3-17.4S141.8,11,151.3,11h72.5V45.7L223.8,45.7z"/>
					</g>
				</g>
				<path id="Shape_1_" class="st3" d="M152.9,22.8H152c-0.1,0-0.3,0.1-0.3,0.1c-0.1,0.1-0.1,0.2-0.1,0.3v5.2h-3.3
					c-0.1,0-0.3,0.1-0.3,0.1c-0.1,0.1-0.1,0.2-0.1,0.3v0.9c0,0.1,0.1,0.3,0.1,0.3c0.1,0.1,0.2,0.1,0.3,0.1h4.7
					c0.1,0,0.3-0.1,0.3-0.1c0.1-0.1,0.1-0.2,0.1-0.3v-6.6c0-0.1-0.1-0.3-0.1-0.3C153.2,22.8,153.1,22.8,152.9,22.8L152.9,22.8z
					 M161.2,22.8c1,1.7,1.5,3.6,1.5,5.7s-0.5,4-1.5,5.7s-2.4,3.1-4.1,4.1c-1.7,1-3.6,1.5-5.6,1.5s-3.9-0.5-5.6-1.5
					c-1.7-1-3.1-2.4-4.1-4.1c-1-1.7-1.5-3.6-1.5-5.7s0.5-4,1.5-5.7s2.4-3.1,4.1-4.1c1.7-1,3.6-1.5,5.6-1.5s3.9,0.5,5.6,1.5
					C158.8,19.7,160.2,21,161.2,22.8L161.2,22.8z M159.4,28.4c0-1.5-0.3-2.8-1.1-4c-0.7-1.3-1.7-2.2-2.9-2.9c-1.2-0.7-2.6-1.1-4-1.1
					s-2.8,0.3-4,1.1c-1.2,0.7-2.2,1.7-2.9,2.9c-0.7,1.3-1.1,2.6-1.1,4c0,1.5,0.3,2.8,1.1,4c0.7,1.3,1.7,2.2,2.9,2.9s2.6,1.1,4,1.1
					s2.8-0.3,4-1.1s2.2-1.7,2.9-2.9C159.1,31.3,159.4,29.9,159.4,28.4z"/>
			</g>
		</g>
	</g>
</g>
<g>
	<path class="st4" d="M44.1,26l-1.2-4.9h0L41.7,26h-1.6l-1.9-7.1h1.6l1.1,4.9h0l1.2-4.9h1.5l1.2,4.9h0l1.2-4.9h1.5L45.7,26H44.1z"/>
	<path class="st4" d="M49.4,18.9v3l2.8-3h2l-2.8,2.8l3.1,4.3h-2l-2.1-3.2l-0.9,0.9V26h-1.6v-7.1H49.4z"/>
	<path class="st4" d="M58.4,18.9c0.3,0,0.6,0.1,0.9,0.2c0.3,0.1,0.5,0.2,0.7,0.4s0.3,0.4,0.4,0.6s0.1,0.5,0.1,0.8
		c0,0.4-0.1,0.8-0.3,1.1c-0.2,0.3-0.5,0.5-0.9,0.7v0c0.2,0.1,0.4,0.1,0.5,0.2c0.1,0.1,0.2,0.2,0.3,0.4s0.1,0.3,0.2,0.5
		c0,0.2,0.1,0.4,0.1,0.5c0,0.1,0,0.2,0,0.4c0,0.2,0,0.3,0,0.5s0,0.3,0.1,0.5c0,0.1,0.1,0.3,0.2,0.4h-1.6c-0.1-0.2-0.1-0.5-0.2-0.8
		c0-0.3,0-0.6-0.1-0.9c-0.1-0.4-0.2-0.6-0.3-0.8s-0.5-0.3-0.8-0.3h-1.6V26h-1.6v-7.1H58.4z M57.8,22.1c0.4,0,0.6-0.1,0.8-0.2
		c0.2-0.2,0.3-0.4,0.3-0.8c0-0.3-0.1-0.6-0.3-0.8c-0.2-0.2-0.5-0.2-0.8-0.2h-1.7v2H57.8z"/>
	<path class="st4" d="M61.2,21c0.2-0.5,0.4-0.9,0.7-1.2s0.7-0.6,1.1-0.8s0.9-0.3,1.5-0.3c0.6,0,1,0.1,1.5,0.3
		c0.4,0.2,0.8,0.5,1.1,0.8s0.5,0.7,0.7,1.2c0.2,0.5,0.2,1,0.2,1.5c0,0.5-0.1,1-0.2,1.5c-0.2,0.5-0.4,0.8-0.7,1.2
		c-0.3,0.3-0.7,0.6-1.1,0.8c-0.4,0.2-0.9,0.3-1.5,0.3c-0.5,0-1-0.1-1.5-0.3c-0.4-0.2-0.8-0.5-1.1-0.8c-0.3-0.3-0.5-0.7-0.7-1.2
		c-0.2-0.4-0.2-0.9-0.2-1.5C60.9,21.9,61,21.4,61.2,21z M62.6,23.3c0.1,0.3,0.2,0.5,0.3,0.8s0.4,0.4,0.6,0.5
		c0.2,0.1,0.5,0.2,0.9,0.2s0.7-0.1,0.9-0.2c0.2-0.1,0.4-0.3,0.6-0.5s0.3-0.5,0.3-0.8c0.1-0.3,0.1-0.6,0.1-0.9c0-0.3,0-0.6-0.1-0.9
		c-0.1-0.3-0.2-0.6-0.3-0.8s-0.4-0.4-0.6-0.5c-0.2-0.1-0.5-0.2-0.9-0.2s-0.7,0.1-0.9,0.2c-0.2,0.1-0.4,0.3-0.6,0.5s-0.3,0.5-0.3,0.8
		c-0.1,0.3-0.1,0.6-0.1,0.9C62.5,22.8,62.5,23.1,62.6,23.3z M64.7,16.5l-1.1,1.8h1l1.6-1.8H64.7z"/>
	<path class="st4" d="M68,20.2v-1.3h5.8v1.3h-2.1V26h-1.6v-5.8H68z"/>
	<path class="st4" d="M78.7,20.8c-0.1-0.1-0.2-0.3-0.4-0.4c-0.1-0.1-0.3-0.2-0.5-0.3S77.5,20,77.3,20c-0.4,0-0.7,0.1-0.9,0.2
		c-0.2,0.1-0.4,0.3-0.6,0.5c-0.2,0.2-0.3,0.5-0.3,0.8c-0.1,0.3-0.1,0.6-0.1,0.9c0,0.3,0,0.6,0.1,0.9c0.1,0.3,0.2,0.5,0.3,0.8
		c0.2,0.2,0.4,0.4,0.6,0.5c0.2,0.1,0.5,0.2,0.9,0.2c0.5,0,0.9-0.1,1.1-0.4c0.3-0.3,0.4-0.7,0.5-1.2h1.5c0,0.4-0.1,0.8-0.3,1.2
		c-0.2,0.4-0.4,0.7-0.7,0.9c-0.3,0.3-0.6,0.4-1,0.6c-0.4,0.1-0.8,0.2-1.2,0.2c-0.5,0-1-0.1-1.5-0.3c-0.4-0.2-0.8-0.5-1.1-0.8
		c-0.3-0.3-0.5-0.7-0.7-1.2c-0.2-0.4-0.2-0.9-0.2-1.5c0-0.5,0.1-1,0.2-1.5s0.4-0.9,0.7-1.2c0.3-0.3,0.7-0.6,1.1-0.8s0.9-0.3,1.5-0.3
		c0.4,0,0.8,0.1,1.1,0.2c0.4,0.1,0.7,0.3,0.9,0.5c0.3,0.2,0.5,0.5,0.7,0.8c0.2,0.3,0.3,0.7,0.3,1.1h-1.5
		C78.9,21.1,78.8,20.9,78.7,20.8z"/>
	<path class="st4" d="M86.4,18.9v1.3h-3.8v1.5h3.5v1.2h-3.5v1.8h3.9V26H81v-7.1H86.4z"/>
</g>
<g>
	<path class="st4" d="M42.5,15.4c-0.1,0.2-0.2,0.4-0.4,0.6c-0.2,0.2-0.4,0.3-0.6,0.4c-0.3,0.1-0.6,0.2-1,0.2c-0.7,0-1.2-0.2-1.5-0.5
		c-0.4-0.3-0.5-0.9-0.5-1.5v-0.4h0.9v0.3c0,0.2,0,0.4,0.1,0.6c0,0.2,0.1,0.3,0.2,0.5c0.1,0.1,0.2,0.2,0.4,0.3
		c0.1,0.1,0.3,0.1,0.6,0.1c0.4,0,0.7-0.1,0.9-0.4c0.2-0.2,0.2-0.5,0.2-0.9V9.4h1v5.4C42.6,15,42.5,15.2,42.5,15.4z"/>
	<path class="st4" d="M49.1,16c-0.5,0.5-1.2,0.7-2.1,0.7c-0.9,0-1.6-0.2-2.2-0.7c-0.5-0.4-0.8-1.1-0.8-2.1V9.4H45v4.6
		c0,0.6,0.2,1.1,0.5,1.5c0.3,0.3,0.8,0.5,1.5,0.5c0.6,0,1.1-0.2,1.4-0.5s0.5-0.8,0.5-1.5V9.4h1v4.6C49.8,14.8,49.6,15.5,49.1,16z"/>
	<path class="st4" d="M55.2,10.2h-4.1V9.4h5.2v0.8l-4.4,5.5h4.5v0.8h-5.7v-0.8L55.2,10.2z M54.1,8.4v-1h-0.9v1H54.1z"/>
</g>
</svg>
