<?xml version="1.0" encoding="utf-8"?>
<!-- Generator: Adobe Illustrator 26.0.3, SVG Export Plug-In . SVG Version: 6.00 Build 0)  -->
<svg version="1.1" id="Layer_1" xmlns="http://www.w3.org/2000/svg" xmlns:xlink="http://www.w3.org/1999/xlink" x="0px" y="0px"
	 viewBox="0 0 92 37" style="enable-background:new 0 0 92 37;" xml:space="preserve">
<style type="text/css">
	.st0{fill:#FFFFFF;}
	.st1{fill:#233065;}
	.st2{fill:#192A67;}
</style>
<desc>Created with Sketch.</desc>
<g id="Order-a-Print-Copy:-Coming-Soon">
	<g id="Book-details--Individual-orders:-Coming-soon" transform="translate(-1282.000000, -376.000000)">
		<g id="Bookstore-orders-white" transform="translate(1149.000000, 365.000000)">
			<g id="Layer_2_00000174574808496835343550000017161025439239104939_">
				<g id="Shape">
					<g>
						<path id="path-1_2_" d="M223.8,45.7h-72.5c-9.5,0-17.3-7.8-17.3-17.4S141.8,11,151.3,11h72.5V45.7L223.8,45.7z"/>
					</g>
					<g>
						<path id="path-1_1_" class="st0" d="M223.8,45.7h-72.5c-9.5,0-17.3-7.8-17.3-17.4S141.8,11,151.3,11h72.5V45.7L223.8,45.7z"/>
					</g>
				</g>
				<path id="Shape_1_" class="st1" d="M152.9,22.8H152c-0.1,0-0.3,0.1-0.3,0.1c-0.1,0.1-0.1,0.2-0.1,0.3v5.2h-3.3
					c-0.1,0-0.3,0.1-0.3,0.1c-0.1,0.1-0.1,0.2-0.1,0.3v0.9c0,0.1,0.1,0.3,0.1,0.3c0.1,0.1,0.2,0.1,0.3,0.1h4.7
					c0.1,0,0.3-0.1,0.3-0.1c0.1-0.1,0.1-0.2,0.1-0.3v-6.6c0-0.1-0.1-0.3-0.1-0.3C153.2,22.8,153.1,22.8,152.9,22.8L152.9,22.8z
					 M161.2,22.8c1,1.7,1.5,3.6,1.5,5.7s-0.5,4-1.5,5.7s-2.4,3.1-4.1,4.1c-1.7,1-3.6,1.5-5.6,1.5s-3.9-0.5-5.6-1.5
					c-1.7-1-3.1-2.4-4.1-4.1c-1-1.7-1.5-3.6-1.5-5.7s0.5-4,1.5-5.7s2.4-3.1,4.1-4.1c1.7-1,3.6-1.5,5.6-1.5s3.9,0.5,5.6,1.5
					C158.8,19.7,160.2,21,161.2,22.8L161.2,22.8z M159.4,28.4c0-1.5-0.3-2.8-1.1-4c-0.7-1.3-1.7-2.2-2.9-2.9c-1.2-0.7-2.6-1.1-4-1.1
					s-2.8,0.3-4,1.1c-1.2,0.7-2.2,1.7-2.9,2.9c-0.7,1.3-1.1,2.6-1.1,4c0,1.5,0.3,2.8,1.1,4c0.7,1.3,1.7,2.2,2.9,2.9s2.6,1.1,4,1.1
					s2.8-0.3,4-1.1s2.2-1.7,2.9-2.9C159.1,31.3,159.4,29.9,159.4,28.4z"/>
			</g>
		</g>
	</g>
</g>
<g>
	<g>
		<path class="st2" d="M40.8,17.6l2.3,6.7h0l2.2-6.7h3v9.8h-2v-6.9h0l-2.4,6.9h-1.7l-2.4-6.9h0v6.9h-2v-9.8H40.8z"/>
		<path class="st2" d="M56.8,17.6v1.8h-5.2v2.1h4.7v1.7h-4.7v2.4H57v1.8h-7.4v-9.8H56.8z"/>
		<path class="st2" d="M59.9,17.6l4.1,6.6h0v-6.6h2v9.8h-2.2l-4.1-6.5h0v6.5h-2v-9.8H59.9z"/>
		<path class="st2" d="M66.4,19.4v-1.8h8v1.8h-2.9v8h-2.2v-8H66.4z"/>
		<path class="st2" d="M82.2,17.6v1.8H77v2.1h4.7v1.7H77v2.4h5.3v1.8h-7.4v-9.8H82.2z"/>
	</g>
</g>
<g>
	<path class="st2" d="M41.2,7.4C42,7.4,42.6,7.6,43,8c0.4,0.4,0.6,1,0.6,1.7c0,0.7-0.2,1.3-0.6,1.7c-0.4,0.4-1,0.6-1.8,0.6h-2.4v3.2
		h-1V7.4H41.2z M40.9,11.1c0.6,0,1-0.1,1.3-0.4c0.3-0.2,0.4-0.6,0.4-1.1c0-0.5-0.1-0.8-0.4-1.1s-0.7-0.4-1.3-0.4h-2v2.8H40.9z"/>
	<path class="st2" d="M47.9,7.4c0.7,0,1.3,0.2,1.7,0.5c0.4,0.4,0.6,0.9,0.6,1.5c0,0.5-0.1,0.9-0.3,1.2c-0.2,0.4-0.6,0.6-1,0.7v0
		c0.2,0,0.4,0.1,0.5,0.2c0.1,0.1,0.3,0.2,0.3,0.4c0.1,0.1,0.1,0.3,0.2,0.5c0,0.2,0.1,0.4,0.1,0.5c0,0.2,0,0.4,0,0.6
		c0,0.2,0,0.4,0.1,0.6c0,0.2,0.1,0.4,0.1,0.5c0.1,0.2,0.1,0.3,0.2,0.4h-1.1c-0.1-0.1-0.1-0.2-0.1-0.3c0-0.1,0-0.3,0-0.5
		c0-0.2,0-0.4,0-0.5c0-0.2,0-0.4-0.1-0.6c0-0.2-0.1-0.4-0.1-0.5c0-0.2-0.1-0.3-0.2-0.4c-0.1-0.1-0.2-0.2-0.4-0.3
		c-0.2-0.1-0.4-0.1-0.6-0.1h-2.5v3.3h-1V7.4H47.9z M48.1,10.9c0.2,0,0.4-0.1,0.6-0.2c0.2-0.1,0.3-0.2,0.4-0.4
		c0.1-0.2,0.1-0.4,0.1-0.7c0-0.4-0.1-0.7-0.3-1c-0.2-0.2-0.6-0.4-1.1-0.4h-2.6V11h2.1C47.7,11,47.9,11,48.1,10.9z"/>
	<path class="st2" d="M51,9.8c0.2-0.5,0.4-0.9,0.7-1.3c0.3-0.4,0.7-0.7,1.2-0.9c0.5-0.2,1-0.3,1.6-0.3c0.6,0,1.2,0.1,1.6,0.3
		c0.5,0.2,0.8,0.5,1.2,0.9c0.3,0.4,0.5,0.8,0.7,1.3c0.2,0.5,0.2,1,0.2,1.5c0,0.5-0.1,1-0.2,1.5c-0.2,0.5-0.4,0.9-0.7,1.3
		c-0.3,0.4-0.7,0.7-1.2,0.9c-0.5,0.2-1,0.3-1.6,0.3c-0.6,0-1.2-0.1-1.6-0.3c-0.5-0.2-0.8-0.5-1.2-0.9c-0.3-0.4-0.5-0.8-0.7-1.3
		c-0.2-0.5-0.2-1-0.2-1.5C50.7,10.8,50.8,10.3,51,9.8z M51.9,12.5c0.1,0.4,0.3,0.7,0.5,1c0.2,0.3,0.5,0.5,0.8,0.7s0.7,0.3,1.2,0.3
		c0.5,0,0.9-0.1,1.2-0.3c0.3-0.2,0.6-0.4,0.8-0.7c0.2-0.3,0.4-0.6,0.5-1c0.1-0.4,0.2-0.8,0.2-1.2c0-0.4-0.1-0.8-0.2-1.2
		c-0.1-0.4-0.3-0.7-0.5-1c-0.2-0.3-0.5-0.5-0.8-0.7c-0.3-0.2-0.7-0.3-1.2-0.3c-0.5,0-0.9,0.1-1.2,0.3s-0.6,0.4-0.8,0.7
		c-0.2,0.3-0.4,0.6-0.5,1c-0.1,0.4-0.2,0.8-0.2,1.2C51.8,11.7,51.8,12.1,51.9,12.5z M54.8,5l-1,1.8h0.7L56,5H54.8z"/>
	<path class="st2" d="M58.2,7.4h1.2l1.9,3l2-3h1.1l-2.6,3.8l2.7,4h-1.3L61.3,12l-2.1,3.2H58l2.7-4L58.2,7.4z"/>
	<path class="st2" d="M66,7.4v7.7h-1V7.4H66z"/>
	<path class="st2" d="M68.6,7.4l2.4,6.5l2.4-6.5h1.4v7.7h-1V8.7h0l-2.4,6.4h-0.9l-2.4-6.4h0v6.4h-1V7.4H68.6z"/>
	<path class="st2" d="M79.3,7.4l3,7.7h-1.1l-0.8-2.3h-3.3l-0.9,2.3h-1.1l3-7.7H79.3z M80.1,12l-1.3-3.6h0L77.4,12H80.1z"/>
	<path class="st2" d="M85.4,11.7v0.9h-3.1v-0.9H85.4z"/>
</g>
</svg>
