<svg width="698" height="246" viewBox="0 0 698 246" fill="none" xmlns="http://www.w3.org/2000/svg">
<line x1="120.354" y1="-10.3536" x2="387.354" y2="256.646" stroke="#0DC0DC"/>
<line x1="264.354" y1="-10.3536" x2="531.354" y2="256.646" stroke="#0DC0DC"/>
<line x1="144.354" y1="-10.3536" x2="411.354" y2="256.646" stroke="#0DC0DC"/>
<line x1="288.354" y1="-10.3536" x2="555.354" y2="256.646" stroke="#0DC0DC"/>
<line x1="168.354" y1="-10.3536" x2="435.354" y2="256.646" stroke="#0DC0DC"/>
<line x1="312.354" y1="-10.3536" x2="579.354" y2="256.646" stroke="#0DC0DC"/>
<line x1="192.354" y1="-10.3536" x2="459.354" y2="256.646" stroke="#0DC0DC"/>
<line x1="336.354" y1="-10.3536" x2="603.354" y2="256.646" stroke="#0DC0DC"/>
<line x1="216.354" y1="-10.3536" x2="483.354" y2="256.646" stroke="#0DC0DC"/>
<line x1="0.353553" y1="-10.3536" x2="51.3536" y2="40.6464" stroke="#0DC0DC"/>
<line x1="24.3536" y1="-10.3536" x2="118.354" y2="83.6464" stroke="#0DC0DC"/>
<line x1="48.3536" y1="-10.3536" x2="191.354" y2="132.646" stroke="#0DC0DC"/>
<line x1="72.3536" y1="-10.3536" x2="247.354" y2="164.646" stroke="#0DC0DC"/>
<line x1="96.3536" y1="-10.3536" x2="300.354" y2="193.646" stroke="#0DC0DC"/>
<line x1="360.354" y1="-10.3536" x2="627.354" y2="256.646" stroke="#0DC0DC"/>
<line x1="240.354" y1="-10.3536" x2="507.354" y2="256.646" stroke="#0DC0DC"/>
<line x1="384.354" y1="-10.3536" x2="651.354" y2="256.646" stroke="#0DC0DC"/>
<line x1="472.354" y1="53.6464" x2="675.354" y2="256.646" stroke="#0DC0DC"/>
<line x1="537.354" y1="94.6464" x2="699.354" y2="256.646" stroke="#0DC0DC"/>
<line x1="581.354" y1="114.646" x2="723.354" y2="256.646" stroke="#0DC0DC"/>
<line x1="626.354" y1="135.646" x2="747.354" y2="256.646" stroke="#0DC0DC"/>
</svg>
