<?xml version="1.0" encoding="utf-8"?>
<!-- Generator: Adobe Illustrator 16.0.0, SVG Export Plug-In . SVG Version: 6.00 Build 0)  -->
<!DOCTYPE svg PUBLIC "-//W3C//DTD SVG 1.1 Tiny//EN" "http://www.w3.org/Graphics/SVG/1.1/DTD/svg11-tiny.dtd">
<svg version="1.1" baseProfile="tiny" id="Layer_1" xmlns="http://www.w3.org/2000/svg" xmlns:xlink="http://www.w3.org/1999/xlink"
	 x="0px" y="0px" width="400px" height="400px" viewBox="0 0 400 400" xml:space="preserve">
<rect fill="#F47641" width="400" height="400"/>
<path fill="#232E66" d="M16.104,190.559c4.14,1.664,8.684,2.496,13.633,2.496c8.787,0,16-2.304,21.633-6.911
	c5.632-4.608,9.044-11.307,10.239-20.097H44.073c-0.599,4.097-2.07,7.359-4.416,9.792c-2.349,2.433-5.696,3.647-10.05,3.647
	c-2.814,0-5.205-0.641-7.168-1.92c-1.963-1.279-3.52-2.922-4.672-4.929c-1.15-2.004-1.982-4.243-2.496-6.72
	c-0.512-2.475-0.768-4.906-0.768-7.296c0-2.475,0.256-4.971,0.768-7.488c0.514-2.517,1.388-4.819,2.625-6.912
	c1.235-2.09,2.836-3.796,4.801-5.12c1.962-1.322,4.394-1.984,7.296-1.984c7.764,0,12.243,3.799,13.438,11.393h17.792
	c-0.256-4.267-1.277-7.956-3.069-11.072c-1.792-3.114-4.118-5.716-6.979-7.808c-2.859-2.09-6.102-3.648-9.728-4.672
	c-3.628-1.024-7.404-1.536-11.328-1.536c-5.376,0-10.156,0.896-14.336,2.688c-4.183,1.792-7.726,4.288-10.624,7.488
	c-2.09,2.305-3.801,4.931-5.16,7.854v34.225c1.473,2.974,3.314,5.612,5.544,7.905C8.443,186.571,11.964,188.896,16.104,190.559z"/>
<path fill="#232E66" d="M10.6,291.135c3.114,1.279,7.104,1.92,11.969,1.92c3.841,0,7.595-0.854,11.265-2.561
	c3.668-1.705,6.656-4.48,8.96-8.32h0.384v9.217h17.28v-66.175H42.28v34.688c0,6.742-1.11,11.583-3.328,14.525
	c-2.222,2.944-5.806,4.415-10.752,4.415c-4.353,0-7.384-1.344-9.089-4.03c-1.707-2.688-2.561-6.763-2.561-12.224v-37.376H0v53.932
	c0.75,2.498,1.82,4.688,3.24,6.55C5.032,288.043,7.482,289.855,10.6,291.135z"/>
<path fill="#232E66" d="M41.512,0c5.717,0,10.58,0.832,14.592,2.495c4.013,1.664,7.274,3.862,9.793,6.593
	c2.518,2.731,4.354,5.846,5.505,9.344c1.15,3.5,1.729,7.126,1.729,10.88c0,3.67-0.576,7.276-1.729,10.816
	c-1.151,3.542-2.987,6.678-5.505,9.407c-2.519,2.732-5.78,4.929-9.793,6.593c-4.012,1.664-8.875,2.496-14.592,2.496H20.393v32.768
	H0.296V0H41.512z M36.008,43.008c2.305,0,4.522-0.17,6.656-0.513c2.132-0.34,4.01-1.002,5.632-1.983
	c1.62-0.979,2.922-2.368,3.904-4.16c0.979-1.792,1.472-4.138,1.472-7.04c0-2.9-0.492-5.248-1.472-7.04
	c-0.982-1.792-2.284-3.178-3.904-4.16c-1.622-0.979-3.5-1.642-5.632-1.983c-2.134-0.34-4.354-0.513-6.656-0.513H20.393v27.393
	L36.008,43.008L36.008,43.008z"/>
<path fill="#232E66" d="M92.161,25.216v12.288h0.256c0.853-2.048,2.004-3.946,3.456-5.696c1.449-1.748,3.113-3.242,4.992-4.48
	c1.876-1.235,3.882-2.195,6.016-2.88c2.132-0.682,4.354-1.023,6.656-1.023c1.193,0,2.516,0.214,3.968,0.64v16.896
	c-0.854-0.17-1.878-0.32-3.072-0.448c-1.194-0.128-2.348-0.191-3.456-0.191c-3.326,0-6.144,0.557-8.446,1.664
	c-2.306,1.11-4.159,2.624-5.567,4.544c-1.408,1.92-2.412,4.16-3.008,6.721c-0.599,2.56-0.896,5.334-0.896,8.319v29.824H74.883
	V25.217L92.161,25.216L92.161,25.216z"/>
<path fill="#232E66" d="M137.279,75.519c2.729,2.646,6.654,3.968,11.773,3.968c3.668,0,6.826-0.916,9.475-2.752
	c2.644-1.834,4.266-3.775,4.862-5.824h16.001c-2.562,7.937-6.486,13.612-11.775,17.024c-5.292,3.414-11.692,5.12-19.2,5.12
	c-5.206,0-9.9-0.832-14.08-2.496c-4.182-1.664-7.724-4.032-10.624-7.104c-2.901-3.072-5.142-6.74-6.72-11.009
	c-1.58-4.266-2.368-8.96-2.368-14.08c0-4.947,0.811-9.556,2.432-13.823c1.62-4.267,3.926-7.956,6.912-11.072
	c2.986-3.114,6.548-5.568,10.688-7.36c4.138-1.792,8.724-2.688,13.76-2.688c5.632,0,10.538,1.088,14.72,3.264
	c4.183,2.176,7.616,5.101,10.305,8.769c2.688,3.67,4.631,7.852,5.824,12.544c1.193,4.693,1.619,9.6,1.279,14.72h-47.744
	C133.055,68.607,134.547,72.876,137.279,75.519z M157.823,40.703c-2.177-2.388-5.484-3.584-9.92-3.584
	c-2.902,0-5.312,0.492-7.232,1.473c-1.92,0.981-3.456,2.198-4.605,3.647c-1.152,1.452-1.966,2.988-2.435,4.608
	c-0.47,1.622-0.748,3.072-0.832,4.352h29.568C161.513,46.592,159.999,43.094,157.823,40.703z"/>
<path fill="#232E66" d="M222.961,48.64v15.616h-38.527V48.64H222.961z"/>
<path fill="#232E66" d="M63.808,145.567c0.259-4.266,1.322-7.808,3.2-10.624c1.876-2.815,4.269-5.076,7.168-6.784
	c2.9-1.706,6.164-2.922,9.792-3.647c3.626-0.724,7.274-1.088,10.944-1.088c3.328,0,6.698,0.235,10.112,0.704
	c3.411,0.47,6.525,1.388,9.344,2.752c2.813,1.365,5.12,3.264,6.912,5.695c1.792,2.433,2.688,5.654,2.688,9.664v34.433
	c0,2.987,0.17,5.847,0.513,8.576c0.342,2.731,0.938,4.779,1.794,6.145H107.84c-0.342-1.024-0.62-2.068-0.832-3.137
	c-0.214-1.065-0.363-2.153-0.447-3.265c-2.9,2.988-6.314,5.078-10.238,6.272c-3.928,1.193-7.938,1.791-12.032,1.791
	c-3.158,0-6.103-0.384-8.832-1.151c-2.732-0.769-5.12-1.962-7.168-3.584c-2.048-1.62-3.648-3.668-4.8-6.145
	c-1.152-2.475-1.729-5.418-1.729-8.832c0-3.754,0.66-6.849,1.984-9.279c1.322-2.433,3.028-4.372,5.12-5.824
	c2.09-1.449,4.479-2.538,7.168-3.265c2.688-0.724,5.396-1.3,8.128-1.728c2.729-0.427,5.418-0.769,8.062-1.024
	c2.646-0.256,4.992-0.64,7.04-1.151c2.05-0.512,3.668-1.258,4.864-2.239c1.194-0.979,1.748-2.41,1.664-4.288
	c0-1.962-0.32-3.521-0.96-4.672c-0.64-1.152-1.494-2.049-2.56-2.688c-1.068-0.64-2.307-1.066-3.714-1.28
	c-1.406-0.212-2.925-0.319-4.545-0.319c-3.584,0-6.397,0.768-8.445,2.304c-2.049,1.536-3.244,4.096-3.584,7.68H63.807
	L63.808,145.567L63.808,145.567z M105.792,159.008c-0.768,0.685-1.728,1.217-2.88,1.601c-1.152,0.384-2.391,0.704-3.712,0.96
	c-1.324,0.256-2.71,0.471-4.16,0.641c-1.452,0.172-2.902,0.384-4.353,0.641c-1.365,0.256-2.71,0.598-4.031,1.023
	c-1.324,0.428-2.479,1.004-3.456,1.729c-0.982,0.726-1.772,1.644-2.368,2.752c-0.598,1.109-0.896,2.518-0.896,4.224
	c0,1.622,0.3,2.988,0.896,4.097c0.596,1.109,1.408,1.983,2.432,2.624c1.024,0.641,2.221,1.088,3.584,1.345
	c1.364,0.256,2.772,0.384,4.227,0.384c3.584,0,6.354-0.597,8.317-1.792c1.964-1.193,3.412-2.624,4.354-4.288
	c0.938-1.664,1.514-3.349,1.728-5.056c0.212-1.706,0.32-3.072,0.32-4.097L105.792,159.008L105.792,159.008z"/>
<path fill="#232E66" d="M149.08,100v91.393h-18.176V100H149.08z"/>
<path fill="#232E66" d="M186.994,137.119c-2.902,0-5.334,0.662-7.297,1.984c-1.965,1.324-3.562,3.03-4.801,5.12
	c-1.236,2.092-2.109,4.396-2.623,6.912c-0.514,2.519-0.77,5.015-0.77,7.488c0,2.39,0.256,4.821,0.77,7.296
	c0.514,2.477,1.346,4.716,2.496,6.72c1.15,2.007,2.709,3.648,4.672,4.929c1.963,1.279,4.354,1.92,7.168,1.92
	c4.354,0,7.699-1.216,10.049-3.647c2.346-2.433,3.814-5.695,4.416-9.792h17.535c-1.197,8.79-4.609,15.487-10.24,20.097
	c-5.631,4.608-12.844,6.912-21.631,6.912c-4.951,0-9.494-0.832-13.633-2.496c-4.142-1.664-7.659-3.988-10.562-6.977
	c-2.902-2.986-5.164-6.549-6.784-10.688c-1.622-4.139-2.432-8.683-2.432-13.633c0-5.119,0.746-9.876,2.239-14.271
	c1.491-4.394,3.688-8.191,6.593-11.392c2.897-3.2,6.439-5.696,10.625-7.488c4.18-1.792,8.959-2.688,14.336-2.688
	c3.922,0,7.699,0.512,11.328,1.536c3.625,1.023,6.867,2.582,9.727,4.672c2.857,2.092,5.186,4.693,6.977,7.808
	c1.793,3.116,2.814,6.806,3.07,11.071h-17.791C199.238,140.918,194.758,137.119,186.994,137.119z"/>
<path fill="#232E66" d="M259.516,148.641v15.615h-38.527v-15.615H259.516z"/>
<path fill="#232E66" d="M85.503,200v91.391H67.327V200H85.503z"/>
<path fill="#232E66" d="M137.023,291.391v-9.218h-0.386c-2.304,3.841-5.292,6.615-8.96,8.32c-3.67,1.707-7.424,2.562-11.265,2.562
	c-4.863,0-8.854-0.642-11.968-1.921c-3.116-1.278-5.567-3.092-7.359-5.438c-1.792-2.349-3.053-5.205-3.776-8.576
	c-0.726-3.369-1.088-7.104-1.088-11.199v-40.704h18.178v37.376c0,5.462,0.853,9.535,2.561,12.224
	c1.705,2.688,4.735,4.031,9.088,4.031c4.947,0,8.531-1.472,10.752-4.416c2.218-2.942,3.328-7.783,3.328-14.525v-34.688h18.176
	v66.177L137.023,291.391L137.023,291.391z"/>
<path fill="#232E66" d="M176.201,274.941c0.811,1.41,1.855,2.561,3.137,3.457c1.281,0.896,2.752,1.559,4.416,1.982
	c1.664,0.43,3.393,0.643,5.186,0.643c1.277,0,2.623-0.148,4.031-0.449c1.406-0.297,2.688-0.77,3.84-1.408
	c1.152-0.639,2.111-1.492,2.879-2.559c0.771-1.066,1.152-2.412,1.152-4.033c0-2.729-1.812-4.776-5.438-6.145
	c-3.627-1.363-8.688-2.729-15.168-4.096c-2.646-0.597-5.229-1.301-7.744-2.111c-2.521-0.811-4.758-1.877-6.721-3.199
	c-1.966-1.322-3.543-2.985-4.735-4.992c-1.196-2.004-1.792-4.458-1.792-7.359c0-4.267,0.832-7.765,2.496-10.496
	c1.664-2.729,3.857-4.884,6.592-6.464c2.729-1.578,5.801-2.688,9.215-3.328s6.914-0.96,10.496-0.96
	c3.586,0,7.062,0.342,10.434,1.023c3.369,0.685,6.381,1.836,9.023,3.455c2.646,1.623,4.84,3.775,6.59,6.465
	c1.75,2.688,2.797,6.08,3.137,10.177h-17.275c-0.258-3.498-1.582-5.866-3.969-7.104c-2.393-1.235-5.207-1.854-8.449-1.854
	c-1.023,0-2.133,0.063-3.328,0.19c-1.195,0.129-2.283,0.406-3.262,0.832c-0.984,0.429-1.816,1.047-2.496,1.855
	c-0.688,0.812-1.025,1.898-1.025,3.266c0,1.621,0.596,2.942,1.791,3.967c1.195,1.023,2.754,1.855,4.672,2.496
	c1.922,0.642,4.117,1.217,6.594,1.729c2.475,0.513,4.992,1.067,7.553,1.664c2.645,0.599,5.227,1.323,7.746,2.176
	c2.516,0.854,4.754,1.983,6.719,3.394c1.961,1.406,3.539,3.156,4.732,5.248c1.195,2.092,1.793,4.672,1.793,7.742
	c0,4.353-0.875,8-2.625,10.942c-1.75,2.945-4.029,5.312-6.848,7.104c-2.815,1.791-6.037,3.052-9.664,3.774
	c-3.627,0.726-7.314,1.088-11.069,1.088c-3.841,0-7.599-0.385-11.267-1.151c-3.668-0.768-6.933-2.047-9.791-3.84
	c-2.858-1.791-5.206-4.16-7.04-7.104c-1.836-2.945-2.838-6.635-3.008-11.072h17.28C174.986,271.852,175.391,273.535,176.201,274.941
	z"/>
</svg>
