<svg width="30" height="40" viewBox="0 0 30 40" fill="none" xmlns="http://www.w3.org/2000/svg">
<path d="M15 14.52C9.88001 14.52 5.88001 19.2 5.72001 19.4C5.44001 19.76 5.44001 20.24 5.72001 20.6C5.88001 20.8 9.88001 25.48 15 25.48C20.12 25.48 24.12 20.8 24.28 20.6C24.56 20.24 24.56 19.76 24.28 19.4C24.12 19.2 20.12 14.52 15 14.52ZM14.24 16.92C14.88 16.92 15.4 17.44 15.4 18.08C15.4 18.72 14.88 19.2 14.24 19.2C13.6 19.2 13.08 18.68 13.08 18.04C13.08 17.4 13.6 16.92 14.24 16.92ZM15 23.64C11.76 23.64 8.88001 21.2 7.68001 20C8.44001 19.24 9.88001 18 11.64 17.16C11.44 17.6 11.36 18.08 11.36 18.56C11.36 20.56 13 22.2 15 22.2C17 22.2 18.64 20.56 18.64 18.56C18.64 18.08 18.52 17.6 18.36 17.16C20.12 18 21.56 19.24 22.32 20C21.12 21.16 18.24 23.64 15 23.64Z" fill="#424242"/>
<path d="M15.9199 5.19998L15.3199 5.15998V2.23998C15.3199 1.75998 15.0799 1.35998 14.6799 1.11998C14.2799 0.879984 13.7999 0.919985 13.3999 1.15998L6.99994 5.35998C6.63994 5.59998 6.43994 5.99998 6.43994 6.39998C6.43994 6.83998 6.63994 7.23998 6.99994 7.43998L13.3599 11.6C13.7599 11.84 14.2399 11.88 14.6399 11.64C15.0399 11.4 15.2799 11 15.2799 10.52V7.63999L15.9999 7.67999C22.3599 8.23998 27.3199 13.64 27.3199 20C27.3199 22.12 26.7999 24.16 25.7599 26C25.5999 26.28 25.5599 26.64 25.6399 26.96C25.7199 27.28 25.9599 27.56 26.2399 27.72C26.8399 28.08 27.5999 27.84 27.9599 27.24C29.1999 25.04 29.8399 22.56 29.8399 20.04C29.8399 12.2 23.7599 5.67998 15.9199 5.19998Z" fill="#424242"/>
<path d="M16.6402 28.4C16.2402 28.16 15.7602 28.12 15.3602 28.36C14.9602 28.6 14.7202 29 14.7202 29.48V32.36L14.0002 32.32C7.64016 31.76 2.68016 26.36 2.68016 20C2.68016 17.92 3.24016 15.88 4.24016 14.04C4.56016 13.44 4.36016 12.68 3.76016 12.32C3.56016 12.2 3.36016 12.16 3.16016 12.16C2.72016 12.16 2.28016 12.4 2.04016 12.8C0.800157 15 0.160156 17.48 0.160156 20C0.160156 27.8 6.28016 34.32 14.0802 34.8L14.6802 34.84V37.72C14.6802 38.2 14.9202 38.6 15.3202 38.84C15.7202 39.04 16.2002 39.04 16.6002 38.8L23.0002 34.64C23.3202 34.44 23.5202 34.04 23.5202 33.6C23.5202 33.16 23.3202 32.76 23.0002 32.56L16.6402 28.4Z" fill="#424242"/>
</svg>
