<svg width="40" height="50" viewBox="0 0 40 50" fill="none" xmlns="http://www.w3.org/2000/svg">
<path d="M33.125 1.25H4.375C4.20924 1.25 4.05027 1.31585 3.93306 1.43306C3.81585 1.55027 3.75 1.70924 3.75 1.875V35.625C3.75093 36.4535 4.08047 37.2478 4.66632 37.8337C5.25217 38.4195 6.04648 38.7491 6.875 38.75H35.625C35.7908 38.75 35.9497 38.6842 36.0669 38.5669C36.1842 38.4497 36.25 38.2908 36.25 38.125V3.125C36.25 2.95924 36.1842 2.80027 36.0669 2.68306C35.9497 2.56585 35.7908 2.5 35.625 2.5H33.75V1.875C33.75 1.70924 33.6842 1.55027 33.5669 1.43306C33.4497 1.31585 33.2908 1.25 33.125 1.25ZM7.5 2.5H32.5V35H7.5V2.5ZM5 2.5H6.25V35H5V2.5ZM35 3.75V37.5H6.875C6.48741 37.4995 6.10947 37.3791 5.79302 37.1553C5.47657 36.9315 5.23712 36.6153 5.1075 36.25H33.125C33.2908 36.25 33.4497 36.1842 33.5669 36.0669C33.6842 35.9497 33.75 35.7908 33.75 35.625V3.75H35Z" fill="#63A524"/>
<path d="M23.5724 23.5163C24.333 22.9643 24.9646 22.2537 25.4235 21.4336C25.8825 20.6135 26.1578 19.7035 26.2304 18.7665C26.303 17.8296 26.1711 16.888 25.844 16.007C25.5169 15.126 25.0023 14.3266 24.3358 13.664C23.7554 13.0848 23.0647 12.6281 22.3045 12.3208C21.5443 12.0136 20.7302 11.8621 19.9104 11.8754C16.5067 11.924 13.743 14.7979 13.7495 18.2817C13.7489 19.3043 13.9916 20.3123 14.4574 21.2227C14.9232 22.133 15.5988 22.9195 16.4285 23.5173C16.4711 23.5493 16.5054 23.591 16.5287 23.6389C16.5519 23.6868 16.5635 23.7396 16.5623 23.7928V24.6272C16.2519 24.8062 15.9992 25.0705 15.8344 25.3887C15.6696 25.707 15.5995 26.0658 15.6323 26.4226C15.6652 26.7795 15.7998 27.1195 16.02 27.4022C16.2402 27.6849 16.5369 27.8986 16.8748 28.0178V28.7499C16.8754 29.247 17.0731 29.7236 17.4246 30.0751C17.7762 30.4266 18.2527 30.6244 18.7498 30.6249H21.2498C21.7469 30.6244 22.2235 30.4266 22.575 30.0751C22.9265 29.7236 23.1242 29.247 23.1248 28.7499V28.0174C23.4628 27.8982 23.7595 27.6845 23.9797 27.4018C24.1999 27.1191 24.3344 26.7791 24.3673 26.4222C24.4002 26.0654 24.3301 25.7066 24.1652 25.3883C24.0004 25.0701 23.7478 24.8058 23.4373 24.6268V23.7928C23.4363 23.7393 23.448 23.6863 23.4715 23.6382C23.495 23.5901 23.5296 23.5483 23.5724 23.5163ZM14.9998 18.2794C14.9945 15.4764 17.2055 13.1643 19.9286 13.1254C20.5825 13.1163 21.2316 13.238 21.8378 13.4834C22.444 13.7288 22.995 14.0929 23.4585 14.5543C23.9951 15.0889 24.4094 15.7335 24.6729 16.4436C24.9363 17.1538 25.0426 17.9126 24.9844 18.6678C24.9262 19.423 24.7049 20.1566 24.3357 20.818C23.9666 21.4794 23.4584 22.0528 22.8462 22.4989C22.6415 22.6467 22.4749 22.8411 22.3603 23.0661C22.2458 23.2912 22.1864 23.5403 22.1873 23.7928V24.375H17.8123V23.7928C17.8134 23.5406 17.7542 23.2917 17.6399 23.0669C17.5255 22.842 17.3592 22.6477 17.1548 22.5C16.4866 22.0177 15.9428 21.3835 15.5681 20.6497C15.1934 19.9158 14.9986 19.1034 14.9998 18.2794ZM21.2498 29.3749H18.7498C18.5841 29.3748 18.4253 29.3089 18.3081 29.1917C18.1909 29.0745 18.125 28.9156 18.1248 28.7499V28.1249H21.8748V28.7499C21.8746 28.9156 21.8087 29.0745 21.6916 29.1917C21.5744 29.3089 21.4155 29.3748 21.2498 29.3749ZM22.4998 26.8749H17.4998C17.3341 26.8749 17.1751 26.8091 17.0579 26.6919C16.9407 26.5747 16.8748 26.4157 16.8748 26.2499C16.8748 26.0842 16.9407 25.9252 17.0579 25.808C17.1751 25.6908 17.3341 25.6249 17.4998 25.6249H22.4998C22.6656 25.6249 22.8246 25.6908 22.9418 25.808C23.059 25.9252 23.1248 26.0842 23.1248 26.2499C23.1248 26.4157 23.059 26.5747 22.9418 26.6919C22.8246 26.8091 22.6656 26.8749 22.4998 26.8749Z" fill="#63A524"/>
<path d="M21.0132 15.8236C21.4062 15.9885 21.7568 16.2403 22.0388 16.5599C22.3207 16.8795 22.5267 17.2588 22.6414 17.6693C22.6626 17.7494 22.6996 17.8244 22.7501 17.8901C22.8006 17.9558 22.8637 18.0107 22.9357 18.0518C23.0077 18.0929 23.0871 18.1192 23.1693 18.1293C23.2516 18.1394 23.335 18.133 23.4147 18.1106C23.4945 18.0881 23.569 18.05 23.6339 17.9985C23.6988 17.947 23.7528 17.8831 23.7928 17.8106C23.8328 17.738 23.858 17.6582 23.8668 17.5758C23.8757 17.4934 23.8681 17.4101 23.8445 17.3307C23.6778 16.7376 23.3791 16.1898 22.9707 15.7284C22.5623 15.2671 22.0549 14.9041 21.4864 14.6666C21.4102 14.6346 21.3285 14.618 21.2459 14.6178C21.1633 14.6176 21.0815 14.6337 21.0052 14.6653C20.9289 14.6968 20.8596 14.7432 20.8013 14.8017C20.7431 14.8602 20.6969 14.9297 20.6657 15.0061C20.6344 15.0826 20.6186 15.1645 20.6192 15.247C20.6197 15.3296 20.6366 15.4113 20.6689 15.4873C20.7012 15.5633 20.7483 15.6321 20.8074 15.6898C20.8664 15.7475 20.9363 15.793 21.0131 15.8235L21.0132 15.8236Z" fill="#63A524"/>
<path d="M20 10.625C20.1658 10.625 20.3247 10.5592 20.4419 10.4419C20.5592 10.3247 20.625 10.1658 20.625 10V8.75C20.625 8.58424 20.5592 8.42527 20.4419 8.30806C20.3247 8.19085 20.1658 8.125 20 8.125C19.8342 8.125 19.6753 8.19085 19.5581 8.30806C19.4408 8.42527 19.375 8.58424 19.375 8.75V10C19.375 10.1658 19.4408 10.3247 19.5581 10.4419C19.6753 10.5592 19.8342 10.625 20 10.625Z" fill="#63A524"/>
<path d="M15.8154 10.7712C15.8828 10.9226 16.0076 11.0411 16.1624 11.1005C16.3172 11.1599 16.4892 11.1554 16.6406 11.0879C16.792 11.0205 16.9105 10.8957 16.9699 10.741C17.0293 10.5862 17.0248 10.4142 16.9574 10.2628L16.4489 9.1208C16.4155 9.04581 16.3677 8.97814 16.3082 8.92164C16.2486 8.86514 16.1786 8.82093 16.1019 8.79151C16.0253 8.7621 15.9436 8.74807 15.8616 8.75021C15.7795 8.75236 15.6987 8.77065 15.6237 8.80404C15.5487 8.83742 15.4811 8.88525 15.4246 8.94479C15.3681 9.00432 15.3239 9.07441 15.2944 9.15103C15.265 9.22766 15.251 9.30933 15.2531 9.39138C15.2553 9.47343 15.2736 9.55425 15.307 9.62923L15.8154 10.7712Z" fill="#63A524"/>
<path d="M13.8609 12.1911L12.9319 11.3547C12.8713 11.2976 12.7999 11.2531 12.7219 11.224C12.6438 11.1948 12.5608 11.1816 12.4775 11.185C12.3943 11.1884 12.3126 11.2084 12.2372 11.2439C12.1618 11.2793 12.0943 11.3295 12.0386 11.3914C11.9829 11.4533 11.9401 11.5257 11.9128 11.6044C11.8854 11.6831 11.8741 11.7665 11.8795 11.8496C11.8848 11.9327 11.9067 12.0139 11.9439 12.0885C11.9811 12.163 12.0328 12.2294 12.096 12.2836L13.025 13.1201C13.1483 13.23 13.3102 13.2866 13.4751 13.2775C13.64 13.2684 13.7947 13.1944 13.9052 13.0716C14.0157 12.9488 14.0731 12.7873 14.0649 12.6223C14.0567 12.4573 13.9835 12.3023 13.8613 12.1911H13.8609Z" fill="#63A524"/>
<path d="M11.8165 15.2121L10.6277 14.8259C10.4703 14.7758 10.2996 14.7901 10.1527 14.8655C10.0059 14.9409 9.89481 15.0714 9.84381 15.2284C9.7928 15.3854 9.806 15.5562 9.88051 15.7036C9.95502 15.8509 10.0848 15.9627 10.2415 16.0147L11.4303 16.401C11.5085 16.4269 11.5911 16.4371 11.6733 16.431C11.7554 16.4249 11.8356 16.4026 11.9091 16.3655C11.9827 16.3283 12.0481 16.2769 12.1017 16.2143C12.1553 16.1517 12.196 16.0792 12.2215 16.0008C12.2469 15.9225 12.2566 15.8398 12.2501 15.7577C12.2435 15.6756 12.2207 15.5955 12.183 15.5222C12.1454 15.4489 12.0936 15.3838 12.0307 15.3306C11.9678 15.2774 11.895 15.2371 11.8165 15.2121Z" fill="#63A524"/>
<path d="M11.1779 18.8035L9.9348 18.9341C9.77552 18.9507 9.62869 19.0278 9.52459 19.1495C9.42049 19.2712 9.36707 19.4282 9.37535 19.5881C9.38363 19.748 9.45297 19.8987 9.56908 20.009C9.68519 20.1192 9.83919 20.1808 9.99933 20.1808C10.0214 20.1808 10.0435 20.1796 10.0654 20.1774L11.3085 20.0467C11.4725 20.0283 11.6226 19.9458 11.7259 19.8172C11.8293 19.6886 11.8777 19.5243 11.8604 19.3602C11.8432 19.1961 11.7618 19.0455 11.6339 18.9412C11.506 18.8369 11.3421 18.7874 11.1779 18.8035Z" fill="#63A524"/>
<path d="M30.0653 18.9341L28.8221 18.8035C28.7402 18.7943 28.6573 18.8014 28.5781 18.8244C28.4989 18.8474 28.4251 18.8858 28.3608 18.9375C28.2966 18.9892 28.2432 19.053 28.2037 19.1254C28.1642 19.1978 28.1395 19.2773 28.1309 19.3593C28.1222 19.4413 28.1299 19.5242 28.1535 19.6032C28.1771 19.6822 28.216 19.7557 28.2681 19.8196C28.3202 19.8835 28.3845 19.9365 28.4571 19.9754C28.5298 20.0144 28.6094 20.0386 28.6915 20.0466L29.9346 20.1773C29.9566 20.1796 29.9786 20.1807 30.0007 20.1807C30.1609 20.1807 30.3149 20.1192 30.431 20.0089C30.5471 19.8986 30.6164 19.748 30.6247 19.5881C30.633 19.4281 30.5796 19.2711 30.4755 19.1495C30.3714 19.0278 30.2245 18.9507 30.0653 18.9341Z" fill="#63A524"/>
<path d="M28.5695 16.401L29.7584 16.0147C29.8369 15.9897 29.9097 15.9495 29.9726 15.8963C30.0355 15.843 30.0873 15.7779 30.1249 15.7046C30.1626 15.6313 30.1853 15.5513 30.1919 15.4691C30.1985 15.387 30.1888 15.3044 30.1634 15.226C30.1379 15.1476 30.0972 15.0751 30.0436 15.0125C29.99 14.9499 29.9245 14.8986 29.851 14.8614C29.7775 14.8242 29.6973 14.8019 29.6152 14.7958C29.533 14.7897 29.4504 14.7999 29.3722 14.8259L28.1834 15.2121C28.1048 15.2371 28.032 15.2774 27.9691 15.3306C27.9062 15.3838 27.8545 15.4489 27.8168 15.5222C27.7792 15.5955 27.7564 15.6755 27.7498 15.7577C27.7432 15.8398 27.7529 15.9224 27.7784 16.0008C27.8038 16.0792 27.8445 16.1517 27.8981 16.2143C27.9517 16.2769 28.0172 16.3283 28.0907 16.3655C28.1643 16.4026 28.2444 16.4249 28.3266 16.431C28.4088 16.4371 28.4913 16.4269 28.5695 16.401Z" fill="#63A524"/>
<path d="M27.9507 11.401C27.8958 11.3399 27.8294 11.2903 27.7553 11.255C27.6812 11.2196 27.6008 11.1992 27.5189 11.1949C27.4369 11.1907 27.3548 11.2026 27.2775 11.23C27.2001 11.2574 27.1289 11.2998 27.0679 11.3547L26.1389 12.1911C26.0197 12.303 25.9491 12.4571 25.9422 12.6205C25.9353 12.7838 25.9927 12.9433 26.1021 13.0648C26.2114 13.1863 26.364 13.2602 26.5272 13.2705C26.6903 13.2808 26.851 13.2268 26.9748 13.1201L27.9038 12.2836C27.9648 12.2287 28.0145 12.1624 28.0499 12.0883C28.0852 12.0142 28.1057 11.9339 28.1101 11.852C28.1144 11.77 28.1026 11.688 28.0752 11.6106C28.0479 11.5332 28.0056 11.462 27.9507 11.401Z" fill="#63A524"/>
<path d="M23.3596 11.0879C23.4346 11.1214 23.5154 11.1397 23.5974 11.1419C23.6795 11.1441 23.7612 11.1301 23.8378 11.1006C23.9145 11.0712 23.9846 11.027 24.0441 10.9705C24.1036 10.9139 24.1514 10.8462 24.1847 10.7712L24.6932 9.62923C24.7606 9.4778 24.7651 9.30579 24.7057 9.15103C24.6463 8.99628 24.5279 8.87146 24.3764 8.80404C24.225 8.73661 24.053 8.73211 23.8982 8.79151C23.7435 8.85092 23.6186 8.96936 23.5512 9.12079L23.0428 10.2627C22.9754 10.4142 22.9709 10.5862 23.0303 10.7409C23.0897 10.8957 23.2082 11.0205 23.3596 11.0879Z" fill="#63A524"/>
</svg>
