<svg width="40" height="50" viewBox="0 0 40 50" fill="none" xmlns="http://www.w3.org/2000/svg">
<path d="M36.875 7.5C37.3723 7.5 37.8492 7.30246 38.2008 6.95083C38.5525 6.59919 38.75 6.12228 38.75 5.625C38.75 5.12772 38.5525 4.65081 38.2008 4.29917C37.8492 3.94754 37.3723 3.75 36.875 3.75H23.125V3.125C23.1244 2.6279 22.9267 2.15132 22.5752 1.79981C22.2237 1.44831 21.7471 1.25058 21.25 1.25H18.75C18.2529 1.25058 17.7763 1.44831 17.4248 1.79981C17.0733 2.15132 16.8756 2.6279 16.875 3.125V3.75H3.125C2.62772 3.75 2.15081 3.94754 1.79917 4.29917C1.44754 4.65081 1.25 5.12772 1.25 5.625C1.25 6.12228 1.44754 6.59919 1.79917 6.95083C2.15081 7.30246 2.62772 7.5 3.125 7.5H3.75V25H3.125C2.62772 25 2.15081 25.1975 1.79917 25.5492C1.44754 25.9008 1.25 26.3777 1.25 26.875C1.25 27.3723 1.44754 27.8492 1.79917 28.2008C2.15081 28.5525 2.62772 28.75 3.125 28.75H7.94953L5.64367 37.9734C5.62064 38.0656 5.61891 38.1618 5.63862 38.2547C5.65832 38.3476 5.69894 38.4348 5.75739 38.5096C5.81584 38.5845 5.89058 38.6451 5.97594 38.6867C6.0613 38.7283 6.15502 38.75 6.25 38.75H10C10.1394 38.75 10.2748 38.7034 10.3846 38.6176C10.4945 38.5318 10.5725 38.4118 10.6063 38.2766L12.988 28.75H19.375V32.6075C18.958 32.7549 18.6065 33.045 18.3827 33.4265C18.1589 33.8081 18.0772 34.2564 18.152 34.6923C18.2268 35.1283 18.4533 35.5237 18.7915 35.8088C19.1296 36.0939 19.5577 36.2503 20 36.2503C20.4423 36.2503 20.8704 36.0939 21.2085 35.8088C21.5467 35.5237 21.7732 35.1283 21.848 34.6923C21.9228 34.2564 21.8411 33.8081 21.6173 33.4265C21.3935 33.045 21.042 32.7549 20.625 32.6075V28.75H27.012L29.3937 38.2766C29.4275 38.4118 29.5055 38.5318 29.6154 38.6176C29.7252 38.7034 29.8606 38.75 30 38.75H33.75C33.845 38.75 33.9387 38.7283 34.0241 38.6867C34.1094 38.6451 34.1842 38.5845 34.2426 38.5096C34.3011 38.4348 34.3417 38.3476 34.3614 38.2547C34.3811 38.1618 34.3794 38.0656 34.3563 37.9734L32.0505 28.75H36.875C37.3723 28.75 37.8492 28.5525 38.2008 28.2008C38.5525 27.8492 38.75 27.3723 38.75 26.875C38.75 26.3777 38.5525 25.9008 38.2008 25.5492C37.8492 25.1975 37.3723 25 36.875 25H36.25V7.5H36.875ZM20 35C19.8764 35 19.7555 34.9633 19.6528 34.8947C19.55 34.826 19.4699 34.7284 19.4226 34.6142C19.3753 34.5 19.3629 34.3743 19.387 34.2531C19.4111 34.1318 19.4706 34.0205 19.5581 33.9331C19.6455 33.8456 19.7568 33.7861 19.8781 33.762C19.9993 33.7379 20.125 33.7503 20.2392 33.7976C20.3534 33.8449 20.451 33.925 20.5197 34.0278C20.5883 34.1306 20.625 34.2514 20.625 34.375C20.6248 34.5407 20.5589 34.6996 20.4417 34.8167C20.3246 34.9339 20.1657 34.9998 20 35ZM18.125 3.125C18.1252 2.9593 18.1911 2.80043 18.3083 2.68326C18.4254 2.56609 18.5843 2.50019 18.75 2.5H21.25C21.4157 2.50019 21.5746 2.56609 21.6917 2.68326C21.8089 2.80043 21.8748 2.9593 21.875 3.125V3.75H18.125V3.125ZM2.5 5.625C2.50019 5.4593 2.56609 5.30043 2.68326 5.18326C2.80043 5.06609 2.9593 5.00019 3.125 5H36.875C37.0408 5 37.1997 5.06585 37.3169 5.18306C37.4342 5.30027 37.5 5.45924 37.5 5.625C37.5 5.79076 37.4342 5.94973 37.3169 6.06694C37.1997 6.18415 37.0408 6.25 36.875 6.25H3.125C2.9593 6.24981 2.80043 6.18391 2.68326 6.06674C2.56609 5.94957 2.50019 5.7907 2.5 5.625ZM9.51203 37.5H7.05047L9.23797 28.75H11.6995L9.51203 37.5ZM32.9495 37.5H30.488L28.3005 28.75H30.762L32.9495 37.5ZM37.5 26.875C37.4998 27.0407 37.4339 27.1996 37.3167 27.3167C37.1996 27.4339 37.0407 27.4998 36.875 27.5H3.125C2.95924 27.5 2.80027 27.4342 2.68306 27.3169C2.56585 27.1997 2.5 27.0408 2.5 26.875C2.5 26.7092 2.56585 26.5503 2.68306 26.4331C2.80027 26.3158 2.95924 26.25 3.125 26.25H36.875C37.0407 26.2502 37.1996 26.3161 37.3167 26.4333C37.4339 26.5504 37.4998 26.7093 37.5 26.875ZM35 25H5V7.5H35V25Z" fill="#002469"/>
<path d="M9.36728 20.4085C10.3153 20.9611 11.3928 21.2527 12.4901 21.2535C13.0365 21.2532 13.5805 21.1815 14.1083 21.0404C15.5055 20.6685 16.7306 19.8235 17.5747 18.6496C18.4188 17.4757 18.8297 16.0454 18.7375 14.6024C18.6452 13.1595 18.0555 11.7932 17.0688 10.7363C16.0821 9.67939 14.7594 8.99733 13.3262 8.80631C11.893 8.61529 10.4379 8.92714 9.20882 9.68871C7.97975 10.4503 7.05277 11.6145 6.58583 12.9829C6.1189 14.3513 6.14089 15.8393 6.64807 17.1933C7.15525 18.5474 8.11624 19.6836 9.36728 20.4085ZM16.8257 17.5078C16.4331 18.1852 15.8869 18.761 15.2311 19.1887C14.5752 19.6164 13.8281 19.8841 13.0499 19.9702C12.2716 20.0563 11.484 19.9584 10.7506 19.6844C10.0171 19.4104 9.35822 18.9679 8.82705 18.3927L12.6288 15.6771L17.1609 16.81C17.0672 17.0508 16.955 17.2841 16.8254 17.5078H16.8257ZM17.4631 15.5973L13.5421 14.6171L15.8907 11.3281C16.4705 11.8656 16.9151 12.5324 17.1883 13.2743C17.4615 14.0162 17.5555 14.8122 17.4627 15.5973H17.4631ZM8.17478 12.494C8.50245 11.9248 8.93978 11.4262 9.46143 11.0272C9.98309 10.6281 10.5787 10.3365 11.2138 10.1692C11.6361 10.0564 12.0712 9.99905 12.5083 9.9987C13.3348 9.99925 14.148 10.2062 14.8742 10.6009L12.0519 14.553L8.1022 17.3742C7.69647 16.6223 7.49012 15.7789 7.50282 14.9246C7.51553 14.0703 7.74687 13.2335 8.17478 12.494Z" fill="#002469"/>
<path d="M26.25 10.625H28.75C28.9158 10.625 29.0747 10.5592 29.1919 10.4419C29.3092 10.3247 29.375 10.1658 29.375 10C29.375 9.83424 29.3092 9.67527 29.1919 9.55806C29.0747 9.44085 28.9158 9.375 28.75 9.375H26.25C26.0842 9.375 25.9253 9.44085 25.8081 9.55806C25.6908 9.67527 25.625 9.83424 25.625 10C25.625 10.1658 25.6908 10.3247 25.8081 10.4419C25.9253 10.5592 26.0842 10.625 26.25 10.625Z" fill="#002469"/>
<path d="M21.875 13.125H23.75C23.9158 13.125 24.0747 13.0592 24.1919 12.9419C24.3092 12.8247 24.375 12.6658 24.375 12.5C24.375 12.3342 24.3092 12.1753 24.1919 12.0581C24.0747 11.9408 23.9158 11.875 23.75 11.875H21.875C21.7092 11.875 21.5503 11.9408 21.4331 12.0581C21.3158 12.1753 21.25 12.3342 21.25 12.5C21.25 12.6658 21.3158 12.8247 21.4331 12.9419C21.5503 13.0592 21.7092 13.125 21.875 13.125Z" fill="#002469"/>
<path d="M26.25 13.125H33.125C33.2908 13.125 33.4497 13.0592 33.5669 12.9419C33.6842 12.8247 33.75 12.6658 33.75 12.5C33.75 12.3342 33.6842 12.1753 33.5669 12.0581C33.4497 11.9408 33.2908 11.875 33.125 11.875H26.25C26.0842 11.875 25.9253 11.9408 25.8081 12.0581C25.6908 12.1753 25.625 12.3342 25.625 12.5C25.625 12.6658 25.6908 12.8247 25.8081 12.9419C25.9253 13.0592 26.0842 13.125 26.25 13.125Z" fill="#002469"/>
<path d="M33.125 16.875H30C29.8342 16.875 29.6753 16.9408 29.5581 17.0581C29.4408 17.1753 29.375 17.3342 29.375 17.5C29.375 17.6658 29.4408 17.8247 29.5581 17.9419C29.6753 18.0592 29.8342 18.125 30 18.125H33.125C33.2908 18.125 33.4497 18.0592 33.5669 17.9419C33.6842 17.8247 33.75 17.6658 33.75 17.5C33.75 17.3342 33.6842 17.1753 33.5669 17.0581C33.4497 16.9408 33.2908 16.875 33.125 16.875Z" fill="#002469"/>
<path d="M20.625 18.125H27.5C27.6658 18.125 27.8247 18.0592 27.9419 17.9419C28.0592 17.8247 28.125 17.6658 28.125 17.5C28.125 17.3342 28.0592 17.1753 27.9419 17.0581C27.8247 16.9408 27.6658 16.875 27.5 16.875H20.625C20.4592 16.875 20.3003 16.9408 20.1831 17.0581C20.0658 17.1753 20 17.3342 20 17.5C20 17.6658 20.0658 17.8247 20.1831 17.9419C20.3003 18.0592 20.4592 18.125 20.625 18.125Z" fill="#002469"/>
<path d="M20.625 15.625H33.125C33.2908 15.625 33.4497 15.5592 33.5669 15.4419C33.6842 15.3247 33.75 15.1658 33.75 15C33.75 14.8342 33.6842 14.6753 33.5669 14.5581C33.4497 14.4408 33.2908 14.375 33.125 14.375H20.625C20.4592 14.375 20.3003 14.4408 20.1831 14.5581C20.0658 14.6753 20 14.8342 20 15C20 15.1658 20.0658 15.3247 20.1831 15.4419C20.3003 15.5592 20.4592 15.625 20.625 15.625Z" fill="#002469"/>
<path d="M20.625 20.625H25C25.1658 20.625 25.3247 20.5592 25.4419 20.4419C25.5592 20.3247 25.625 20.1658 25.625 20C25.625 19.8342 25.5592 19.6753 25.4419 19.5581C25.3247 19.4408 25.1658 19.375 25 19.375H20.625C20.4592 19.375 20.3003 19.4408 20.1831 19.5581C20.0658 19.6753 20 19.8342 20 20C20 20.1658 20.0658 20.3247 20.1831 20.4419C20.3003 20.5592 20.4592 20.625 20.625 20.625Z" fill="#002469"/>
<path d="M30 20.625C30.1658 20.625 30.3247 20.5592 30.4419 20.4419C30.5592 20.3247 30.625 20.1658 30.625 20C30.625 19.8342 30.5592 19.6753 30.4419 19.5581C30.3247 19.4408 30.1658 19.375 30 19.375H27.5C27.3342 19.375 27.1753 19.4408 27.0581 19.5581C26.9408 19.6753 26.875 19.8342 26.875 20C26.875 20.1658 26.9408 20.3247 27.0581 20.4419C27.1753 20.5592 27.3342 20.625 27.5 20.625H30Z" fill="#002469"/>
<path d="M33.125 19.375H32.5C32.3342 19.375 32.1753 19.4408 32.0581 19.5581C31.9408 19.6753 31.875 19.8342 31.875 20C31.875 20.1658 31.9408 20.3247 32.0581 20.4419C32.1753 20.5592 32.3342 20.625 32.5 20.625H33.125C33.2908 20.625 33.4497 20.5592 33.5669 20.4419C33.6842 20.3247 33.75 20.1658 33.75 20C33.75 19.8342 33.6842 19.6753 33.5669 19.5581C33.4497 19.4408 33.2908 19.375 33.125 19.375Z" fill="#002469"/>
<path d="M33.125 21.875H28.125C27.9592 21.875 27.8003 21.9408 27.6831 22.0581C27.5658 22.1753 27.5 22.3342 27.5 22.5C27.5 22.6658 27.5658 22.8247 27.6831 22.9419C27.8003 23.0592 27.9592 23.125 28.125 23.125H33.125C33.2908 23.125 33.4497 23.0592 33.5669 22.9419C33.6842 22.8247 33.75 22.6658 33.75 22.5C33.75 22.3342 33.6842 22.1753 33.5669 22.0581C33.4497 21.9408 33.2908 21.875 33.125 21.875Z" fill="#002469"/>
</svg>
