<svg width="40" height="50" viewBox="0 0 40 50" fill="none" xmlns="http://www.w3.org/2000/svg">
<path d="M31.25 38.75C32.0785 38.7491 32.8728 38.4195 33.4587 37.8337C34.0445 37.2478 34.3741 36.4535 34.375 35.625V4.375C34.3741 3.54648 34.0445 2.75217 33.4587 2.16632C32.8728 1.58047 32.0785 1.25093 31.25 1.25H8.75C7.92148 1.25093 7.12717 1.58047 6.54132 2.16632C5.95547 2.75217 5.62593 3.54648 5.625 4.375V35.625C5.62593 36.4535 5.95547 37.2478 6.54132 37.8337C7.12717 38.4195 7.92148 38.7491 8.75 38.75H31.25ZM6.875 35.625V4.375C6.87558 3.8779 7.07331 3.40132 7.42481 3.04981C7.77632 2.69831 8.2529 2.50058 8.75 2.5H31.25C31.7471 2.50058 32.2237 2.69831 32.5752 3.04981C32.9267 3.40132 33.1244 3.8779 33.125 4.375V35.625C33.1244 36.1221 32.9267 36.5987 32.5752 36.9502C32.2237 37.3017 31.7471 37.4994 31.25 37.5H8.75C8.2529 37.4994 7.77632 37.3017 7.42481 36.9502C7.07331 36.5987 6.87558 36.1221 6.875 35.625Z" fill="#C22032"/>
<path d="M8.75 10.625H31.25C31.4158 10.625 31.5747 10.5592 31.6919 10.4419C31.8092 10.3247 31.875 10.1658 31.875 10V5C31.875 4.83424 31.8092 4.67527 31.6919 4.55806C31.5747 4.44085 31.4158 4.375 31.25 4.375H8.75C8.58424 4.375 8.42527 4.44085 8.30806 4.55806C8.19085 4.67527 8.125 4.83424 8.125 5V10C8.125 10.1658 8.19085 10.3247 8.30806 10.4419C8.42527 10.5592 8.58424 10.625 8.75 10.625ZM9.375 5.625H30.625V9.375H9.375V5.625Z" fill="#C22032"/>
<path d="M25 11.875H21.25C21.0842 11.875 20.9253 11.9408 20.8081 12.0581C20.6908 12.1753 20.625 12.3342 20.625 12.5V16.25C20.625 16.4158 20.6908 16.5747 20.8081 16.6919C20.9253 16.8092 21.0842 16.875 21.25 16.875H25C25.1658 16.875 25.3247 16.8092 25.4419 16.6919C25.5592 16.5747 25.625 16.4158 25.625 16.25V12.5C25.625 12.3342 25.5592 12.1753 25.4419 12.0581C25.3247 11.9408 25.1658 11.875 25 11.875ZM24.375 15.625H21.875V13.125H24.375V15.625Z" fill="#C22032"/>
<path d="M31.25 11.875H27.5C27.3342 11.875 27.1753 11.9408 27.0581 12.0581C26.9408 12.1753 26.875 12.3342 26.875 12.5V16.25C26.875 16.4158 26.9408 16.5747 27.0581 16.6919C27.1753 16.8092 27.3342 16.875 27.5 16.875H31.25C31.4158 16.875 31.5747 16.8092 31.6919 16.6919C31.8092 16.5747 31.875 16.4158 31.875 16.25V12.5C31.875 12.3342 31.8092 12.1753 31.6919 12.0581C31.5747 11.9408 31.4158 11.875 31.25 11.875ZM30.625 15.625H28.125V13.125H30.625V15.625Z" fill="#C22032"/>
<path d="M25 18.125H21.25C21.0842 18.125 20.9253 18.1908 20.8081 18.3081C20.6908 18.4253 20.625 18.5842 20.625 18.75V22.5C20.625 22.6658 20.6908 22.8247 20.8081 22.9419C20.9253 23.0592 21.0842 23.125 21.25 23.125H25C25.1658 23.125 25.3247 23.0592 25.4419 22.9419C25.5592 22.8247 25.625 22.6658 25.625 22.5V18.75C25.625 18.5842 25.5592 18.4253 25.4419 18.3081C25.3247 18.1908 25.1658 18.125 25 18.125ZM24.375 21.875H21.875V19.375H24.375V21.875Z" fill="#C22032"/>
<path d="M31.25 18.125H27.5C27.3342 18.125 27.1753 18.1908 27.0581 18.3081C26.9408 18.4253 26.875 18.5842 26.875 18.75V22.5C26.875 22.6658 26.9408 22.8247 27.0581 22.9419C27.1753 23.0592 27.3342 23.125 27.5 23.125H31.25C31.4158 23.125 31.5747 23.0592 31.6919 22.9419C31.8092 22.8247 31.875 22.6658 31.875 22.5V18.75C31.875 18.5842 31.8092 18.4253 31.6919 18.3081C31.5747 18.1908 31.4158 18.125 31.25 18.125ZM30.625 21.875H28.125V19.375H30.625V21.875Z" fill="#C22032"/>
<path d="M25 24.375H21.25C21.0842 24.375 20.9253 24.4408 20.8081 24.5581C20.6908 24.6753 20.625 24.8342 20.625 25V28.75C20.625 28.9158 20.6908 29.0747 20.8081 29.1919C20.9253 29.3092 21.0842 29.375 21.25 29.375H25C25.1658 29.375 25.3247 29.3092 25.4419 29.1919C25.5592 29.0747 25.625 28.9158 25.625 28.75V25C25.625 24.8342 25.5592 24.6753 25.4419 24.5581C25.3247 24.4408 25.1658 24.375 25 24.375ZM24.375 28.125H21.875V25.625H24.375V28.125Z" fill="#C22032"/>
<path d="M18.75 24.375H15C14.8342 24.375 14.6753 24.4408 14.5581 24.5581C14.4408 24.6753 14.375 24.8342 14.375 25V28.75C14.375 28.9158 14.4408 29.0747 14.5581 29.1919C14.6753 29.3092 14.8342 29.375 15 29.375H18.75C18.9158 29.375 19.0747 29.3092 19.1919 29.1919C19.3092 29.0747 19.375 28.9158 19.375 28.75V25C19.375 24.8342 19.3092 24.6753 19.1919 24.5581C19.0747 24.4408 18.9158 24.375 18.75 24.375ZM18.125 28.125H15.625V25.625H18.125V28.125Z" fill="#C22032"/>
<path d="M8.75 29.375H12.5C12.6658 29.375 12.8247 29.3092 12.9419 29.1919C13.0592 29.0747 13.125 28.9158 13.125 28.75V25C13.125 24.8342 13.0592 24.6753 12.9419 24.5581C12.8247 24.4408 12.6658 24.375 12.5 24.375H8.75C8.58424 24.375 8.42527 24.4408 8.30806 24.5581C8.19085 24.6753 8.125 24.8342 8.125 25V28.75C8.125 28.9158 8.19085 29.0747 8.30806 29.1919C8.42527 29.3092 8.58424 29.375 8.75 29.375ZM9.375 25.625H11.875V28.125H9.375V25.625Z" fill="#C22032"/>
<path d="M18.75 18.125H15C14.8342 18.125 14.6753 18.1908 14.5581 18.3081C14.4408 18.4253 14.375 18.5842 14.375 18.75V22.5C14.375 22.6658 14.4408 22.8247 14.5581 22.9419C14.6753 23.0592 14.8342 23.125 15 23.125H18.75C18.9158 23.125 19.0747 23.0592 19.1919 22.9419C19.3092 22.8247 19.375 22.6658 19.375 22.5V18.75C19.375 18.5842 19.3092 18.4253 19.1919 18.3081C19.0747 18.1908 18.9158 18.125 18.75 18.125ZM18.125 21.875H15.625V19.375H18.125V21.875Z" fill="#C22032"/>
<path d="M18.75 11.875H15C14.8342 11.875 14.6753 11.9408 14.5581 12.0581C14.4408 12.1753 14.375 12.3342 14.375 12.5V16.25C14.375 16.4158 14.4408 16.5747 14.5581 16.6919C14.6753 16.8092 14.8342 16.875 15 16.875H18.75C18.9158 16.875 19.0747 16.8092 19.1919 16.6919C19.3092 16.5747 19.375 16.4158 19.375 16.25V12.5C19.375 12.3342 19.3092 12.1753 19.1919 12.0581C19.0747 11.9408 18.9158 11.875 18.75 11.875ZM18.125 15.625H15.625V13.125H18.125V15.625Z" fill="#C22032"/>
<path d="M8.75 16.875H12.5C12.6658 16.875 12.8247 16.8092 12.9419 16.6919C13.0592 16.5747 13.125 16.4158 13.125 16.25V12.5C13.125 12.3342 13.0592 12.1753 12.9419 12.0581C12.8247 11.9408 12.6658 11.875 12.5 11.875H8.75C8.58424 11.875 8.42527 11.9408 8.30806 12.0581C8.19085 12.1753 8.125 12.3342 8.125 12.5V16.25C8.125 16.4158 8.19085 16.5747 8.30806 16.6919C8.42527 16.8092 8.58424 16.875 8.75 16.875ZM9.375 13.125H11.875V15.625H9.375V13.125Z" fill="#C22032"/>
<path d="M8.75 23.125H12.5C12.6658 23.125 12.8247 23.0592 12.9419 22.9419C13.0592 22.8247 13.125 22.6658 13.125 22.5V18.75C13.125 18.5842 13.0592 18.4253 12.9419 18.3081C12.8247 18.1908 12.6658 18.125 12.5 18.125H8.75C8.58424 18.125 8.42527 18.1908 8.30806 18.3081C8.19085 18.4253 8.125 18.5842 8.125 18.75V22.5C8.125 22.6658 8.19085 22.8247 8.30806 22.9419C8.42527 23.0592 8.58424 23.125 8.75 23.125ZM9.375 19.375H11.875V21.875H9.375V19.375Z" fill="#C22032"/>
<path d="M25 30.625H21.25C21.0842 30.625 20.9253 30.6908 20.8081 30.8081C20.6908 30.9253 20.625 31.0842 20.625 31.25V35C20.625 35.1658 20.6908 35.3247 20.8081 35.4419C20.9253 35.5592 21.0842 35.625 21.25 35.625H25C25.1658 35.625 25.3247 35.5592 25.4419 35.4419C25.5592 35.3247 25.625 35.1658 25.625 35V31.25C25.625 31.0842 25.5592 30.9253 25.4419 30.8081C25.3247 30.6908 25.1658 30.625 25 30.625ZM24.375 34.375H21.875V31.875H24.375V34.375Z" fill="#C22032"/>
<path d="M18.75 35.625C18.9158 35.625 19.0747 35.5592 19.1919 35.4419C19.3092 35.3247 19.375 35.1658 19.375 35V31.25C19.375 31.0842 19.3092 30.9253 19.1919 30.8081C19.0747 30.6908 18.9158 30.625 18.75 30.625H8.75C8.58424 30.625 8.42527 30.6908 8.30806 30.8081C8.19085 30.9253 8.125 31.0842 8.125 31.25V35C8.125 35.1658 8.19085 35.3247 8.30806 35.4419C8.42527 35.5592 8.58424 35.625 8.75 35.625H18.75ZM9.375 31.875H18.125V34.375H9.375V31.875Z" fill="#C22032"/>
<path d="M31.25 24.375H27.5C27.3342 24.375 27.1753 24.4408 27.0581 24.5581C26.9408 24.6753 26.875 24.8342 26.875 25V35C26.875 35.1658 26.9408 35.3247 27.0581 35.4419C27.1753 35.5592 27.3342 35.625 27.5 35.625H31.25C31.4158 35.625 31.5747 35.5592 31.6919 35.4419C31.8092 35.3247 31.875 35.1658 31.875 35V25C31.875 24.8342 31.8092 24.6753 31.6919 24.5581C31.5747 24.4408 31.4158 24.375 31.25 24.375ZM30.625 34.375H28.125V25.625H30.625V34.375Z" fill="#C22032"/>
<path d="M28.75 8.125C29.0952 8.125 29.375 7.84518 29.375 7.5C29.375 7.15482 29.0952 6.875 28.75 6.875C28.4048 6.875 28.125 7.15482 28.125 7.5C28.125 7.84518 28.4048 8.125 28.75 8.125Z" fill="#C22032"/>
<path d="M26.25 8.125C26.5952 8.125 26.875 7.84518 26.875 7.5C26.875 7.15482 26.5952 6.875 26.25 6.875C25.9048 6.875 25.625 7.15482 25.625 7.5C25.625 7.84518 25.9048 8.125 26.25 8.125Z" fill="#C22032"/>
<path d="M23.75 8.125C24.0952 8.125 24.375 7.84518 24.375 7.5C24.375 7.15482 24.0952 6.875 23.75 6.875C23.4048 6.875 23.125 7.15482 23.125 7.5C23.125 7.84518 23.4048 8.125 23.75 8.125Z" fill="#C22032"/>
</svg>
