<svg width="40" height="50" viewBox="0 0 40 50" fill="none" xmlns="http://www.w3.org/2000/svg">
<path d="M38.125 7.5H36.875C36.7092 7.5 36.5503 7.56585 36.4331 7.68306C36.3158 7.80027 36.25 7.95924 36.25 8.125C36.25 8.29076 36.3158 8.44973 36.4331 8.56694C36.5503 8.68415 36.7092 8.75 36.875 8.75H37.5V17.5H33.75V13.75H34.375C34.5408 13.75 34.6997 13.6842 34.8169 13.5669C34.9342 13.4497 35 13.2908 35 13.125V9.375C35 9.20924 34.9342 9.05027 34.8169 8.93306C34.6997 8.81585 34.5408 8.75 34.375 8.75H26.875C26.7092 8.75 26.5503 8.81585 26.4331 8.93306C26.3158 9.05027 26.25 9.20924 26.25 9.375V13.125C26.25 13.2908 26.3158 13.4497 26.4331 13.5669C26.5503 13.6842 26.7092 13.75 26.875 13.75H27.5V17.5H23.125V13.75H23.75C23.9158 13.75 24.0747 13.6842 24.1919 13.5669C24.3092 13.4497 24.375 13.2908 24.375 13.125V9.375C24.375 9.20924 24.3092 9.05027 24.1919 8.93306C24.0747 8.81585 23.9158 8.75 23.75 8.75H16.25C16.0842 8.75 15.9253 8.81585 15.8081 8.93306C15.6908 9.05027 15.625 9.20924 15.625 9.375V13.125C15.625 13.2908 15.6908 13.4497 15.8081 13.5669C15.9253 13.6842 16.0842 13.75 16.25 13.75H16.875V17.5H12.5V13.75H13.125C13.2908 13.75 13.4497 13.6842 13.5669 13.5669C13.6842 13.4497 13.75 13.2908 13.75 13.125V9.375C13.75 9.20924 13.6842 9.05027 13.5669 8.93306C13.4497 8.81585 13.2908 8.75 13.125 8.75H5.625C5.45924 8.75 5.30027 8.81585 5.18306 8.93306C5.06585 9.05027 5 9.20924 5 9.375V13.125C5 13.2908 5.06585 13.4497 5.18306 13.5669C5.30027 13.6842 5.45924 13.75 5.625 13.75H6.25V17.5H2.5V8.75H3.125C3.29076 8.75 3.44973 8.68415 3.56694 8.56694C3.68415 8.44973 3.75 8.29076 3.75 8.125C3.75 7.95924 3.68415 7.80027 3.56694 7.68306C3.44973 7.56585 3.29076 7.5 3.125 7.5H1.875C1.70924 7.5 1.55027 7.56585 1.43306 7.68306C1.31585 7.80027 1.25 7.95924 1.25 8.125V38.125C1.25 38.2908 1.31585 38.4497 1.43306 38.5669C1.55027 38.6842 1.70924 38.75 1.875 38.75H38.125C38.2908 38.75 38.4497 38.6842 38.5669 38.5669C38.6842 38.4497 38.75 38.2908 38.75 38.125V8.125C38.75 7.95924 38.6842 7.80027 38.5669 7.68306C38.4497 7.56585 38.2908 7.5 38.125 7.5ZM27.5 10H33.75V12.5H27.5V10ZM32.5 17.5H28.75V13.75H32.5V17.5ZM28.75 18.75H32.5V33.125C32.5 33.6223 32.3025 34.0992 31.9508 34.4508C31.5992 34.8025 31.1223 35 30.625 35C30.1277 35 29.6508 34.8025 29.2992 34.4508C28.9475 34.0992 28.75 33.6223 28.75 33.125V18.75ZM16.875 10H23.125V12.5H16.875V10ZM21.875 17.5H18.125V13.75H21.875V17.5ZM18.125 18.75H21.875V33.125C21.875 33.6223 21.6775 34.0992 21.3258 34.4508C20.9742 34.8025 20.4973 35 20 35C19.5027 35 19.0258 34.8025 18.6742 34.4508C18.3225 34.0992 18.125 33.6223 18.125 33.125V18.75ZM6.25 10H12.5V12.5H6.25V10ZM11.25 17.5H7.5V13.75H11.25V17.5ZM7.5 18.75H11.25V33.125C11.25 33.6223 11.0525 34.0992 10.7008 34.4508C10.3492 34.8025 9.87228 35 9.375 35C8.87772 35 8.40081 34.8025 8.04917 34.4508C7.69754 34.0992 7.5 33.6223 7.5 33.125V18.75ZM37.5 37.5H2.5V18.75H6.25V33.125C6.25 33.9538 6.57924 34.7487 7.16529 35.3347C7.75134 35.9208 8.5462 36.25 9.375 36.25C10.2038 36.25 10.9987 35.9208 11.5847 35.3347C12.1708 34.7487 12.5 33.9538 12.5 33.125V18.75H16.875V33.125C16.875 33.9538 17.2042 34.7487 17.7903 35.3347C18.3763 35.9208 19.1712 36.25 20 36.25C20.8288 36.25 21.6237 35.9208 22.2097 35.3347C22.7958 34.7487 23.125 33.9538 23.125 33.125V18.75H27.5V33.125C27.5 33.9538 27.8292 34.7487 28.4153 35.3347C29.0013 35.9208 29.7962 36.25 30.625 36.25C31.4538 36.25 32.2487 35.9208 32.8347 35.3347C33.4208 34.7487 33.75 33.9538 33.75 33.125V18.75H37.5V37.5Z" fill="#0C9372"/>
<path d="M9.375 6.24999C9.86945 6.24999 10.3528 6.10336 10.7639 5.82866C11.175 5.55396 11.4955 5.16351 11.6847 4.70669C11.8739 4.24988 11.9234 3.74721 11.827 3.26226C11.7305 2.77731 11.4924 2.33185 11.1428 1.98222C10.7931 1.63259 10.3477 1.39449 9.86273 1.29802C9.37777 1.20156 8.87511 1.25107 8.41829 1.44029C7.96148 1.62951 7.57103 1.94994 7.29633 2.36106C7.02162 2.77218 6.875 3.25553 6.875 3.74999C6.87574 4.4128 7.13938 5.04825 7.60806 5.51693C8.07674 5.98561 8.71219 6.24924 9.375 6.24999ZM9.375 2.49999C9.62223 2.49999 9.8639 2.5733 10.0695 2.71065C10.275 2.848 10.4352 3.04322 10.5298 3.27163C10.6245 3.50004 10.6492 3.75137 10.601 3.99385C10.5528 4.23633 10.4337 4.45905 10.2589 4.63387C10.0841 4.80869 9.86134 4.92774 9.61886 4.97597C9.37639 5.0242 9.12505 4.99944 8.89665 4.90484C8.66824 4.81023 8.47301 4.65001 8.33566 4.44445C8.19831 4.23889 8.125 3.99721 8.125 3.74999C8.12539 3.41859 8.25722 3.10087 8.49155 2.86654C8.72589 2.6322 9.0436 2.50038 9.375 2.49999Z" fill="#0C9372"/>
<path d="M30.625 6.24999C31.1195 6.24999 31.6028 6.10336 32.0139 5.82866C32.4251 5.55396 32.7455 5.16351 32.9347 4.70669C33.1239 4.24988 33.1734 3.74721 33.077 3.26226C32.9805 2.77731 32.7424 2.33185 32.3928 1.98222C32.0431 1.63259 31.5977 1.39449 31.1127 1.29802C30.6278 1.20156 30.1251 1.25107 29.6683 1.44029C29.2115 1.62951 28.821 1.94994 28.5463 2.36106C28.2716 2.77218 28.125 3.25553 28.125 3.74999C28.1257 4.4128 28.3894 5.04825 28.8581 5.51693C29.3267 5.98561 29.9622 6.24924 30.625 6.24999ZM30.625 2.49999C30.8722 2.49999 31.1139 2.5733 31.3195 2.71065C31.525 2.848 31.6852 3.04322 31.7799 3.27163C31.8745 3.50004 31.8992 3.75137 31.851 3.99385C31.8028 4.23633 31.6837 4.45905 31.5089 4.63387C31.3341 4.80869 31.1113 4.92774 30.8689 4.97597C30.6264 5.0242 30.3751 4.99944 30.1467 4.90484C29.9182 4.81023 29.723 4.65001 29.5857 4.44445C29.4483 4.23889 29.375 3.99721 29.375 3.74999C29.3754 3.41859 29.5072 3.10087 29.7416 2.86654C29.9759 2.6322 30.2936 2.50038 30.625 2.49999Z" fill="#0C9372"/>
<path d="M20 6C20.4945 6 20.9778 5.85338 21.3889 5.57868C21.8001 5.30397 22.1205 4.91353 22.3097 4.45671C22.4989 3.99989 22.5484 3.49723 22.452 3.01228C22.3555 2.52732 22.1174 2.08187 21.7678 1.73223C21.4181 1.3826 20.9727 1.1445 20.4877 1.04804C20.0028 0.951575 19.5001 1.00108 19.0433 1.1903C18.5865 1.37952 18.196 1.69995 17.9213 2.11108C17.6466 2.5222 17.5 3.00555 17.5 3.5C17.5007 4.16281 17.7644 4.79827 18.2331 5.26695C18.7017 5.73563 19.3372 5.99926 20 6ZM20 2.25C20.2472 2.25 20.4889 2.32331 20.6945 2.46066C20.9 2.59802 21.0602 2.79324 21.1549 3.02165C21.2495 3.25005 21.2742 3.50139 21.226 3.74386C21.1778 3.98634 21.0587 4.20907 20.8839 4.38388C20.7091 4.5587 20.4863 4.67775 20.2439 4.72598C20.0014 4.77421 19.7501 4.74946 19.5217 4.65485C19.2932 4.56024 19.098 4.40003 18.9607 4.19446C18.8233 3.9889 18.75 3.74723 18.75 3.5C18.7504 3.1686 18.8822 2.85089 19.1166 2.61655C19.3509 2.38222 19.6686 2.25039 20 2.25Z" fill="#0C9372"/>
</svg>
