<svg width="40" height="50" viewBox="0 0 40 50" fill="none" xmlns="http://www.w3.org/2000/svg">
<path d="M33.645 1.52828C33.588 1.44268 33.5106 1.37249 33.4199 1.32395C33.3292 1.2754 33.2279 1.25 33.125 1.25H25C24.8766 1.24999 24.756 1.28651 24.6533 1.35496C24.5507 1.4234 24.4705 1.52071 24.4231 1.63461L20 12.25L15.577 1.63461C15.5295 1.52071 15.4494 1.4234 15.3467 1.35496C15.2441 1.28651 15.1234 1.24999 15 1.25H6.87503C6.77214 1.24999 6.67083 1.27539 6.58011 1.32394C6.48939 1.37249 6.41205 1.44269 6.35498 1.5283C6.2979 1.61391 6.26284 1.7123 6.25291 1.81471C6.24299 1.91713 6.2585 2.02041 6.29808 2.11539L11.8203 15.3686C10.2778 16.5962 9.03197 18.1559 8.17575 19.9317C7.31952 21.7075 6.87491 23.6536 6.87503 25.625C6.87503 32.8622 12.7628 38.75 20 38.75C27.2372 38.75 33.125 32.8622 33.125 25.625C33.1252 23.6536 32.6805 21.7075 31.8243 19.9317C30.9681 18.1559 29.7223 16.5962 28.1797 15.3686L33.702 2.11539C33.7416 2.0204 33.7571 1.91711 33.7471 1.81469C33.7372 1.71227 33.7021 1.61389 33.645 1.52828ZM23.5469 12.9873L27.9167 2.5H29.6875L25.0924 13.5283C24.5891 13.3157 24.0729 13.1351 23.5469 12.9873ZM25.4167 2.5H26.5625L22.3109 12.7038C21.9541 12.6402 21.5924 12.5915 21.226 12.5577L25.4167 2.5ZM18.7741 12.5577C18.408 12.5918 18.0464 12.6405 17.6892 12.7038L13.4375 2.5H14.5834L18.7741 12.5577ZM14.9077 13.5283L10.3125 2.5H12.0834L16.4532 12.9873C15.9272 13.1351 15.411 13.3157 14.9077 13.5283ZM7.81253 2.5H8.95839L13.7793 14.0703C13.4653 14.2401 13.1593 14.4222 12.8611 14.6165L7.81253 2.5ZM31.875 25.625C31.875 32.1729 26.5479 37.5 20 37.5C13.4521 37.5 8.12503 32.1729 8.12503 25.625C8.12503 19.0771 13.4521 13.75 20 13.75C26.5479 13.75 31.875 19.0771 31.875 25.625ZM27.1389 14.6166C26.8409 14.4227 26.5348 14.2406 26.2207 14.0704L31.0417 2.5H32.1875L27.1389 14.6166Z" fill="#F47541"/>
<path d="M10 25.625C10 27.6028 10.5865 29.5362 11.6853 31.1807C12.7841 32.8252 14.3459 34.1069 16.1732 34.8638C18.0004 35.6207 20.0111 35.8187 21.9509 35.4329C23.8907 35.047 25.6725 34.0946 27.0711 32.6961C28.4696 31.2975 29.422 29.5157 29.8079 27.5759C30.1937 25.6361 29.9957 23.6254 29.2388 21.7982C28.4819 19.9709 27.2002 18.4091 25.5557 17.3103C23.9112 16.2115 21.9778 15.625 20 15.625C17.3488 15.628 14.807 16.6826 12.9323 18.5573C11.0576 20.432 10.003 22.9738 10 25.625ZM28.75 25.625C28.75 27.3556 28.2368 29.0473 27.2754 30.4862C26.3139 31.9252 24.9473 33.0467 23.3485 33.7089C21.7496 34.3712 19.9903 34.5445 18.293 34.2069C16.5956 33.8693 15.0365 33.0359 13.8128 31.8122C12.5891 30.5885 11.7557 29.0294 11.4181 27.332C11.0805 25.6347 11.2538 23.8754 11.9161 22.2765C12.5783 20.6777 13.6998 19.3111 15.1388 18.3496C16.5777 17.3882 18.2694 16.875 20 16.875C22.3198 16.8776 24.5439 17.8003 26.1843 19.4407C27.8247 21.0811 28.7474 23.3052 28.75 25.625Z" fill="#F47541"/>
<path d="M19.4354 19.1068L17.8906 22.3594L14.282 22.9021C14.169 22.9191 14.0628 22.9668 13.975 23.04C13.8871 23.1131 13.8211 23.209 13.7839 23.3171C13.7468 23.4252 13.74 23.5414 13.7643 23.6531C13.7886 23.7648 13.8431 23.8677 13.9218 23.9506L16.4921 26.6562L15.4593 30.461C15.4266 30.5813 15.4307 30.7088 15.4711 30.8268C15.5114 30.9448 15.5861 31.0481 15.6856 31.1233C15.7852 31.1985 15.9049 31.2422 16.0295 31.2488C16.154 31.2554 16.2777 31.2246 16.3846 31.1603L20 28.986L23.6154 31.1606C23.7223 31.2249 23.846 31.2557 23.9705 31.2491C24.0951 31.2425 24.2148 31.1988 24.3144 31.1236C24.4139 31.0484 24.4886 30.9451 24.5289 30.8271C24.5693 30.7091 24.5734 30.5817 24.5407 30.4613L23.5078 26.6558L26.0781 23.9502C26.1568 23.8673 26.2113 23.7644 26.2356 23.6527C26.2599 23.541 26.2532 23.4248 26.216 23.3167C26.1789 23.2086 26.1128 23.1127 26.025 23.0396C25.9371 22.9664 25.8309 22.9187 25.7179 22.9017L22.1094 22.3594L20.5647 19.1072C20.514 19.0004 20.434 18.9101 20.3341 18.8469C20.2341 18.7838 20.1183 18.7502 20.0001 18.7502C19.8818 18.7502 19.766 18.7838 19.6661 18.8469C19.5661 18.9101 19.4862 19.0004 19.4355 19.1072L19.4354 19.1068ZM21.1229 23.1958C21.1668 23.2883 21.2328 23.3686 21.3151 23.4296C21.3973 23.4906 21.4933 23.5305 21.5945 23.5457L24.3453 23.9598L22.3594 26.0499C22.2855 26.1277 22.2328 26.2232 22.2065 26.3273C22.1802 26.4313 22.1812 26.5404 22.2093 26.644L22.927 29.2878L20.3221 27.721C20.2249 27.6625 20.1135 27.6316 20 27.6316C19.8865 27.6316 19.7752 27.6625 19.6779 27.721L17.0731 29.2878L17.7907 26.644C17.8188 26.5404 17.8198 26.4313 17.7935 26.3273C17.7672 26.2232 17.7146 26.1277 17.6406 26.0499L15.6547 23.9594L18.4055 23.5453C18.5067 23.5301 18.6027 23.4902 18.685 23.4292C18.7672 23.3682 18.8332 23.2879 18.8771 23.1954L20 20.8317L21.1229 23.1958Z" fill="#F47541"/>
</svg>
