<svg width="38" height="62" viewBox="0 0 38 62" fill="none" xmlns="http://www.w3.org/2000/svg">
<path d="M32.2354 11.2853C32.238 11.2927 32.3268 11.5391 32.4755 11.9512C34.3722 17.1592 32.2354 11.2853 32.2354 11.2853Z" fill="#FDBD3E"/>
<path d="M37.0075 24.5195C37.0075 24.5195 33.4406 14.6278 32.4753 11.9511C32.4004 11.7454 32.3213 11.5281 32.2334 11.2867C29.9202 4.93476 24.4361 0.989105 17.9212 0.989105C9.6299 0.989105 2.88428 7.65537 2.88428 15.8491C2.88428 21.1766 5.76272 26.0786 10.4212 28.7313V40.5402H25.4212V37.0213C25.7362 37.0725 26.0553 37.0985 26.3764 37.0985H28.155C31.2568 37.0985 33.78 34.605 33.78 31.5397V26.9941H35.2411C35.8496 26.9941 36.4221 26.701 36.7732 26.2094C37.1241 25.7178 37.2113 25.0859 37.0075 24.5195ZM35.7514 25.4978C35.633 25.6637 35.4468 25.759 35.2411 25.759H32.53V31.5398C32.53 33.9236 30.5671 35.8634 28.155 35.8634H26.3764C25.9034 35.8634 25.4352 35.7922 24.9842 35.6516L24.1712 35.3977V39.3051H11.6712V28.0021L11.3447 27.8266C6.89703 25.4369 4.13428 20.8474 4.13428 15.8491C4.13428 8.33632 10.319 2.2244 17.9212 2.2244C23.985 2.2244 28.8953 5.76864 31.0566 11.7047C31.1378 11.9273 31.2135 12.1342 31.2836 12.3272L35.8295 24.9338C35.8991 25.1256 35.8704 25.3314 35.7514 25.4978Z" fill="#FDBD3E"/>
<path d="M26.8564 20.5571L27.7343 19.6895L26.8505 18.8161L25.9733 19.683C25.6136 19.4418 25.2025 19.2721 24.7607 19.1874V17.9606H23.5107V19.1875C23.0678 19.2724 22.6558 19.4431 22.2954 19.6853L21.4208 18.821L20.537 19.6945L21.4131 20.5603C21.1704 20.9164 21.0008 21.3233 20.9165 21.76H19.6709V22.9953H20.9187C21.0053 23.4294 21.1782 23.8329 21.4215 24.1864L20.537 25.0602L21.4208 25.9336L22.3069 25.0582C22.6645 25.2963 23.0725 25.4639 23.5106 25.5478V26.7895H24.7606V25.5478C25.2 25.4637 25.6093 25.2956 25.9675 25.0565L26.8505 25.9291L27.7343 25.0557L26.8521 24.1838C27.0954 23.8296 27.2672 23.425 27.3533 22.9902H28.6003V22.9901V21.7548H27.3542C27.2693 21.3188 27.0993 20.9125 26.8564 20.5571ZM24.1357 24.375C23.0157 24.375 22.1045 23.4745 22.1045 22.3676C22.1045 21.2608 23.0157 20.3603 24.1357 20.3603C25.2557 20.3603 26.167 21.2608 26.167 22.3676C26.167 23.4745 25.2557 24.375 24.1357 24.375Z" fill="#FDBD3E"/>
<path d="M20.3416 17.2048L21.7854 17.7958L22.2639 16.6546L20.8212 16.064C20.9878 15.4111 20.9968 14.7163 20.8251 14.0344L22.264 13.4454L21.7855 12.3042L20.3492 12.8921C19.9916 12.2986 19.4956 11.8071 18.896 11.4523L19.49 10.0354L18.3351 9.5625L17.7416 10.9785C17.0628 10.8088 16.3597 10.8084 15.6807 10.9774L15.0875 9.56219L13.9327 10.0351L14.5257 11.45C13.9236 11.8055 13.4256 12.2986 13.067 12.8945L11.6389 12.3099L11.1604 13.4511L12.5912 14.0367C12.4217 14.7074 12.4235 15.4024 12.5964 16.0726L11.1604 16.6603L11.6389 17.8015L13.0746 17.2139C13.4417 17.8152 13.9506 18.2927 14.5358 18.6372L13.9351 20.0703L15.0899 20.5432L15.692 19.1068C16.0251 19.1887 16.3668 19.2406 16.7147 19.2406C17.0544 19.2406 17.3973 19.1949 17.7371 19.1109L18.337 20.5431L19.4918 20.0708L18.8917 18.6381C19.5006 18.2773 19.9915 17.7814 20.3416 17.2048ZM17.8553 17.7802C16.33 18.4041 14.5728 17.6857 13.9405 16.1775C13.6342 15.4468 13.6342 14.6418 13.9405 13.9114C14.2469 13.1807 14.8225 12.6116 15.5622 12.3088C15.9321 12.1574 16.3203 12.0817 16.7085 12.0817C17.0973 12.0817 17.4855 12.1574 17.8553 12.3088C18.5951 12.6116 19.1706 13.1807 19.477 13.9114C20.1093 15.4197 19.3818 17.1553 17.8553 17.7802Z" fill="#FDBD3E"/>
</svg>
