<svg width="40" height="50" viewBox="0 0 40 50" fill="none" xmlns="http://www.w3.org/2000/svg">
<path d="M29.053 1.35736C28.9327 1.27596 28.7878 1.23899 28.6432 1.2528C28.4987 1.26662 28.3634 1.33036 28.2607 1.43306L26.6373 3.0565C26.571 3.12284 26.5205 3.20327 26.4895 3.29181C26.4585 3.38035 26.4478 3.47474 26.4582 3.56797C26.4687 3.6612 26.5 3.75088 26.5498 3.83037C26.5996 3.90985 26.6667 3.9771 26.7461 4.02712C27.387 4.43134 27.9915 4.8906 28.5527 5.3997L27.8563 6.09603C27.8073 6.05275 27.7583 6.00946 27.7084 5.96689C25.8531 4.38633 23.5564 3.4147 21.13 3.1838C18.7037 2.9529 16.265 3.47389 14.1448 4.67612C12.0246 5.87835 10.3254 7.70362 9.27789 9.90436C8.23033 12.1051 7.88504 14.5748 8.28883 16.9784C8.65118 19.1635 9.62399 21.2015 11.095 22.8573L10.3997 23.5526C9.89056 22.9915 9.43132 22.387 9.02719 21.7461C8.97717 21.6667 8.90992 21.5996 8.83042 21.5497C8.75092 21.4999 8.66122 21.4686 8.56797 21.4581C8.47472 21.4477 8.38031 21.4584 8.29175 21.4894C8.20319 21.5204 8.12276 21.571 8.05641 21.6373L6.43282 23.261C6.33013 23.3637 6.26641 23.4989 6.25259 23.6435C6.23878 23.7881 6.27573 23.9329 6.35711 24.0532C7.68551 26.0199 9.42633 27.6736 11.4585 28.8994C13.4907 30.1252 15.7655 30.8936 18.1248 31.1513V32.5H16.8748C16.3777 32.5006 15.9011 32.6983 15.5496 33.0498C15.1981 33.4013 15.0003 33.8779 14.9998 34.375V35H13.7498C13.584 35 13.425 35.0658 13.3078 35.183C13.1906 35.3003 13.1248 35.4592 13.1248 35.625V38.125C13.1248 38.2907 13.1906 38.4497 13.3078 38.5669C13.425 38.6841 13.584 38.75 13.7498 38.75H26.2498C26.4155 38.75 26.5745 38.6841 26.6917 38.5669C26.8089 38.4497 26.8748 38.2907 26.8748 38.125V35.625C26.8748 35.4592 26.8089 35.3003 26.6917 35.183C26.5745 35.0658 26.4155 35 26.2498 35H24.9998V34.375C24.9992 33.8779 24.8015 33.4013 24.45 33.0498C24.0984 32.6983 23.6219 32.5006 23.1248 32.5H21.8748V31.1328C25.1817 30.7308 28.2869 29.328 30.7747 27.1124C33.2624 24.8968 35.0139 21.9741 35.7946 18.7356C36.5753 15.4971 36.3481 12.0973 35.1432 8.99151C33.9384 5.88572 31.8135 3.22213 29.053 1.35736ZM12.4772 22.5C11.0967 21.1256 10.1254 19.3945 9.67165 17.5H16.2498C16.9128 17.5 17.5487 17.7634 18.0175 18.2322C18.4864 18.7011 18.7498 19.337 18.7498 20C18.7498 20.663 18.4864 21.2989 18.0175 21.7678C17.5487 22.2366 16.9128 22.5 16.2498 22.5H12.4772ZM11.9713 23.7488C13.6693 25.3089 15.7848 26.3408 18.0595 26.7183C20.3342 27.0959 22.6696 26.8029 24.7805 25.875C26.8914 24.9471 28.6863 23.4246 29.9462 21.4934C31.206 19.5621 31.8762 17.3058 31.8748 15C31.8783 12.0262 30.7622 9.15999 28.7484 6.97173L29.437 6.28314C31.5792 8.64299 32.7623 11.7181 32.7544 14.9052C32.7544 21.9904 26.9902 27.7546 19.9048 27.7546C16.7178 27.7626 13.6427 26.5795 11.2828 24.4375L11.9713 23.7488ZM30.5515 13.75C30.6001 14.1649 30.6246 14.5823 30.6248 15C30.6269 16.281 30.396 17.5517 29.9431 18.75H24.9998C24.3367 18.75 23.7008 18.4866 23.232 18.0178C22.7632 17.5489 22.4998 16.913 22.4998 16.25C22.4998 15.587 22.7632 14.9511 23.232 14.4822C23.7008 14.0134 24.3367 13.75 24.9998 13.75H30.5515ZM26.8966 6.91735C28.5991 8.37105 29.8 10.3245 30.3284 12.5H24.9998C24.0052 12.5 23.0514 12.8951 22.3481 13.5984C21.6449 14.3016 21.2498 15.2554 21.2498 16.25C21.2498 17.2446 21.6449 18.1984 22.3481 18.9017C23.0514 19.6049 24.0052 20 24.9998 20H29.3758C28.6712 21.3206 27.6957 22.4774 26.513 23.3948C25.3304 24.3122 23.9673 24.9694 22.513 25.3234C21.0587 25.6774 19.546 25.7203 18.074 25.4491C16.6021 25.178 15.2039 24.599 13.9713 23.75H16.2498C17.2443 23.75 18.1982 23.3549 18.9014 22.6516C19.6047 21.9484 19.9998 20.9946 19.9998 20C19.9998 19.0054 19.6047 18.0516 18.9014 17.3484C18.1982 16.6451 17.2443 16.25 16.2498 16.25H9.44805C9.35039 15.4195 9.35039 14.5805 9.44805 13.75H18.1248C19.1193 13.75 20.0732 13.3549 20.7764 12.6517C21.4797 11.9484 21.8748 10.9946 21.8748 10C21.8748 9.00545 21.4797 8.05162 20.7764 7.34836C20.0732 6.6451 19.1193 6.25001 18.1248 6.25001H13.9713C15.8986 4.9226 18.2101 4.26848 20.5472 4.38914C22.8843 4.50981 25.1162 5.39852 26.8966 6.91735ZM12.4772 7.50001H18.1248C18.7878 7.50001 19.4237 7.7634 19.8925 8.23224C20.3614 8.70108 20.6248 9.33697 20.6248 10C20.6248 10.663 20.3614 11.2989 19.8925 11.7678C19.4237 12.2366 18.7878 12.5 18.1248 12.5H9.67165C10.1254 10.6056 11.0967 8.87449 12.4772 7.50001ZM25.6248 37.5H14.3748V36.25H25.6248V37.5ZM23.7498 34.375V35H16.2498V34.375C16.25 34.2093 16.3159 34.0504 16.433 33.9333C16.5502 33.8161 16.7091 33.7502 16.8748 33.75H23.1248C23.2905 33.7502 23.4493 33.8161 23.5665 33.9333C23.6837 34.0504 23.7496 34.2093 23.7498 34.375ZM20.6248 32.5H19.3748V31.2411C19.551 31.2468 19.7277 31.2497 19.9048 31.25C20.1457 31.25 20.3856 31.2439 20.6248 31.2337V32.5ZM19.9048 30C17.5215 30.0007 15.1718 29.4369 13.0483 28.3547C10.9248 27.2725 9.08781 25.7027 7.68782 23.7738L8.40188 23.0598C9.70061 24.9019 11.4241 26.404 13.4264 27.4388C15.4287 28.4736 17.6509 29.0107 19.9048 29.0046C27.6794 29.0046 34.0044 22.6796 34.0044 14.9052C34.0105 12.6512 33.4734 10.429 32.4386 8.42667C31.4037 6.42432 29.9017 4.70081 28.0595 3.40205L28.7736 2.68806C30.7025 4.08808 32.2723 5.92506 33.3545 8.04859C34.4367 10.1721 35.0005 12.5218 34.9998 14.9052C34.9998 23.2284 28.2282 30 19.9048 30Z" fill="#0DC0DC"/>
</svg>
