<svg width="260" height="146" viewBox="0 0 260 146" fill="none" xmlns="http://www.w3.org/2000/svg">
<g clip-path="url(#clip0_729_1419)">
<path d="M25 9.9927C25 4.47389 29.4772 0 35 0H225C230.523 0 235 4.47388 235 9.9927V130.904H25V9.9927Z" fill="#424242"/>
<path d="M33 6.99512H228V123.91H33V6.99512Z" fill="white"/>
<path d="M25.3648 130.904H234.635L260 136.9H0L25.3648 130.904Z" fill="#D5D5D5"/>
<path d="M0 136.9H260V140.897C260 143.656 257.761 145.893 255 145.893H5C2.23858 145.893 0 143.656 0 140.897V136.9Z" fill="#6F6F6F"/>
<path d="M208.623 27.6079L228 45.467V123.91H35.5L59.1232 95.5583L101.623 118.414L140.123 64.5809L166.623 98.0564L208.623 27.6079Z" fill="#DBF3F8"/>
<path d="M60 105.922L60.2236 105.476L59.8684 105.298L59.615 105.604L60 105.922ZM94.7764 123.856C95.0234 123.98 95.3237 123.88 95.4472 123.633C95.5707 123.387 95.4706 123.086 95.2236 122.963L94.7764 123.856ZM45.8851 123.728L60.385 106.241L59.615 105.604L45.115 123.091L45.8851 123.728ZM59.7764 106.369L94.7764 123.856L95.2236 122.963L60.2236 105.476L59.7764 106.369Z" fill="#63A524"/>
<path d="M107.593 123.119C107.433 123.344 107.485 123.656 107.709 123.816C107.934 123.976 108.246 123.924 108.407 123.7L107.593 123.119ZM140.5 77.943L140.892 77.6323L140.479 77.113L140.093 77.6526L140.5 77.943ZM167.5 111.918L167.108 112.229L167.557 112.793L167.929 112.175L167.5 111.918ZM221.5 21.9839L216.452 24.784L221.403 27.7524L221.5 21.9839ZM108.407 123.7L140.907 78.2334L140.093 77.6526L107.593 123.119L108.407 123.7ZM140.108 78.2538L167.108 112.229L167.892 111.607L140.892 77.6323L140.108 78.2538ZM167.929 112.175L219.614 26.0968L218.756 25.5827L167.071 111.661L167.929 112.175Z" fill="#63A524"/>
</g>
<defs>
<clipPath id="clip0_729_1419">
<rect width="260" height="145.893" fill="white"/>
</clipPath>
</defs>
</svg>
