<svg xmlns="http://www.w3.org/2000/svg" xmlns:xlink="http://www.w3.org/1999/xlink" version="1.1" x="0px" y="0px" viewBox="0 0 192 192" xml:space="preserve" enable-background="new 0 0 192 192"><style type="text/css"> 	.st0{fill:#FFFFFF;} 	.st23{fill:#F37640;} </style><symbol id="Logo" viewBox="15 -60.7 200 45.7"><g><g><g><path class="st0" d="M99-39.6c0 0.9 0.2 1.7 0.5 2.5 0.3 0.8 0.7 1.4 1.3 2 0.5 0.6 1.2 1 2 1.3 0.8 0.3 1.6 0.5 2.5 0.5 0.9 0 1.7-0.2 2.5-0.5 0.8-0.3 1.4-0.7 2-1.3 0.6-0.6 1-1.2 1.3-2 0.3-0.8 0.5-1.6 0.5-2.5 0-0.9-0.2-1.7-0.5-2.5 -0.3-0.8-0.7-1.4-1.3-2 -0.6-0.6-1.2-1-2-1.3 -0.8-0.3-1.6-0.5-2.5-0.5 -0.9 0-1.8 0.2-2.5 0.5 -0.8 0.3-1.4 0.7-2 1.3 -0.5 0.6-1 1.2-1.3 2C99.1-41.4 99-40.5 99-39.6zM100.5-39.6c0-0.7 0.1-1.3 0.3-1.9 0.2-0.6 0.5-1.1 0.9-1.5 0.4-0.4 0.9-0.8 1.5-1 0.6-0.3 1.2-0.4 2-0.4 0.7 0 1.4 0.1 2 0.4 0.6 0.3 1.1 0.6 1.5 1 0.4 0.4 0.7 1 0.9 1.5 0.2 0.6 0.3 1.2 0.3 1.9 0 0.7-0.1 1.3-0.3 1.9 -0.2 0.6-0.5 1.1-0.9 1.5 -0.4 0.4-0.9 0.8-1.5 1 -0.6 0.3-1.2 0.4-2 0.4 -0.7 0-1.4-0.1-2-0.4 -0.6-0.3-1.1-0.6-1.5-1 -0.4-0.4-0.7-1-0.9-1.5C100.6-38.3 100.5-39 100.5-39.6z"/><path class="st0" d="M114.6-33.7h1.5v-2.1h0.1c0.2 0.4 0.5 0.8 0.9 1.1 0.4 0.3 0.8 0.5 1.2 0.7 0.4 0.2 0.9 0.3 1.3 0.4 0.5 0.1 0.9 0.1 1.4 0.1 0.9 0 1.7-0.2 2.5-0.5 0.8-0.3 1.4-0.7 2-1.3 0.6-0.6 1-1.2 1.3-2 0.3-0.8 0.5-1.6 0.5-2.5 0-0.9-0.2-1.7-0.5-2.5 -0.3-0.8-0.7-1.4-1.3-2 -0.6-0.6-1.2-1-2-1.3 -0.8-0.3-1.6-0.5-2.5-0.5 -0.4 0-0.9 0-1.4 0.1 -0.5 0.1-0.9 0.2-1.3 0.4 -0.4 0.2-0.8 0.4-1.2 0.7 -0.4 0.3-0.7 0.7-0.9 1.1h-0.1v-8h-1.5V-33.7zM116-39.6c0-0.7 0.1-1.3 0.4-1.9 0.3-0.6 0.6-1.1 1.1-1.5 0.4-0.4 1-0.8 1.6-1 0.6-0.3 1.3-0.4 2-0.4 0.7 0 1.4 0.1 2 0.4 0.6 0.3 1.1 0.6 1.5 1 0.4 0.4 0.7 1 0.9 1.5 0.2 0.6 0.3 1.2 0.3 1.9 0 0.7-0.1 1.3-0.3 1.9 -0.2 0.6-0.5 1.1-0.9 1.5 -0.4 0.4-0.9 0.8-1.5 1 -0.6 0.3-1.2 0.4-2 0.4 -0.7 0-1.4-0.1-2-0.4s-1.1-0.6-1.6-1c-0.4-0.4-0.8-1-1.1-1.5C116.1-38.3 116-39 116-39.6z"/><path class="st0" d="M141.2-43.3c-0.6-0.9-1.3-1.6-2.2-2 -0.9-0.4-1.9-0.6-2.9-0.6 -0.9 0-1.7 0.2-2.5 0.5 -0.7 0.3-1.4 0.7-1.9 1.3 -0.5 0.6-0.9 1.2-1.2 2 -0.3 0.8-0.4 1.6-0.4 2.5 0 0.9 0.1 1.7 0.4 2.5 0.3 0.8 0.7 1.4 1.2 2 0.5 0.6 1.2 1 1.9 1.3 0.7 0.3 1.5 0.5 2.4 0.5 0.9 0 1.7-0.2 2.4-0.5 0.7-0.3 1.3-0.7 1.8-1.3 0.5-0.5 0.8-1.1 1.1-1.8 0.2-0.7 0.4-1.3 0.4-2V-40h-10c0-0.3 0.1-0.7 0.2-1.2 0.1-0.5 0.4-1 0.7-1.5 0.3-0.5 0.8-0.9 1.4-1.2 0.6-0.3 1.3-0.5 2.2-0.5 0.8 0 1.6 0.2 2.3 0.6 0.7 0.4 1.3 0.9 1.7 1.5L141.2-43.3zM140-38.6c0 0.5-0.1 1-0.3 1.5 -0.2 0.5-0.5 0.9-0.9 1.2 -0.4 0.4-0.8 0.6-1.3 0.8 -0.5 0.2-1 0.3-1.6 0.3 -0.8 0-1.5-0.2-2.1-0.5 -0.6-0.3-1-0.7-1.3-1.2 -0.3-0.4-0.6-0.9-0.7-1.3 -0.1-0.4-0.2-0.7-0.2-0.9H140z"/><path class="st0" d="M145-37c0 0.2 0 0.5 0 0.8 0 0.3 0 0.6 0 1 0 0.3 0 0.6 0 0.9 0 0.3 0 0.5 0 0.7h1.5c0-0.4 0-0.9 0-1.3 0-0.4 0-0.7 0.1-0.8h0.1c0.3 0.7 0.8 1.2 1.5 1.7 0.7 0.5 1.6 0.7 2.5 0.7 0.9 0 1.7-0.1 2.3-0.4 0.6-0.3 1-0.7 1.4-1.1 0.3-0.5 0.6-1 0.7-1.6 0.1-0.6 0.2-1.3 0.2-1.9v-7.1h-1.5v7c0 0.5 0 0.9-0.1 1.4 -0.1 0.5-0.2 0.9-0.5 1.2 -0.2 0.4-0.5 0.6-0.9 0.9 -0.4 0.2-0.9 0.3-1.5 0.3 -0.6 0-1.1-0.1-1.6-0.3 -0.5-0.2-0.9-0.5-1.3-0.9 -0.4-0.4-0.7-0.9-0.9-1.5 -0.2-0.6-0.3-1.3-0.3-2.2v-5.9H145V-37z"/><path class="st0" d="M165.6-36.6c-0.6 0.8-1.4 1.3-2.4 1.3 -0.4 0-0.8-0.1-1.2-0.3 -0.4-0.2-0.6-0.5-0.6-1 0-0.4 0.2-0.7 0.5-0.8 0.3-0.2 0.7-0.3 1.2-0.4 0.5-0.1 1-0.2 1.6-0.4 0.6-0.1 1.1-0.3 1.6-0.6 0.5-0.3 0.9-0.6 1.2-1.1 0.3-0.5 0.5-1.1 0.5-1.9 0-0.7-0.2-1.4-0.5-1.9 -0.3-0.5-0.7-0.9-1.2-1.2 -0.5-0.3-1.1-0.5-1.7-0.7 -0.6-0.1-1.3-0.2-1.9-0.2 -1 0-1.8 0.1-2.7 0.4 -0.8 0.3-1.5 0.8-2.2 1.5l2.1 1.9c0.4-0.4 0.8-0.8 1.3-1.1 0.5-0.3 1-0.4 1.7-0.4 0.2 0 0.5 0 0.7 0.1 0.2 0.1 0.5 0.1 0.7 0.3 0.2 0.1 0.4 0.3 0.5 0.5 0.1 0.2 0.2 0.4 0.2 0.6 0 0.4-0.2 0.7-0.5 1 -0.3 0.2-0.7 0.4-1.2 0.5 -0.5 0.1-1 0.2-1.6 0.4 -0.6 0.1-1.1 0.3-1.6 0.5s-0.9 0.6-1.2 1c-0.3 0.4-0.5 1.1-0.5 1.9 0 0.7 0.1 1.3 0.4 1.8 0.3 0.5 0.7 0.9 1.1 1.2 0.5 0.3 1 0.6 1.6 0.7 0.6 0.2 1.2 0.2 1.8 0.2 0.8 0 1.6-0.1 2.4-0.4 0.8-0.3 1.5-0.8 2-1.5L165.6-36.6z"/><path class="st0" d="M169-35.8v2.6h2.5v3.6h3.1v-3.6h3.4v-2.6h-3.4v-5.4c0-0.6 0.1-1.1 0.3-1.5 0.2-0.4 0.7-0.5 1.4-0.5 0.3 0 0.6 0 0.9 0.1 0.3 0.1 0.6 0.2 0.8 0.3v-2.6c-0.3-0.2-0.7-0.3-1.2-0.3 -0.5-0.1-0.9-0.1-1.2-0.1 -0.8 0-1.5 0.1-2 0.3 -0.5 0.2-0.9 0.5-1.2 0.8 -0.3 0.4-0.5 0.8-0.6 1.4 -0.1 0.5-0.2 1.2-0.2 1.9v5.7H169z"/><path class="st0" d="M188.2-43.9L188.2-43.9c-0.5-0.7-1.1-1.2-1.8-1.5 -0.7-0.3-1.4-0.5-2.3-0.5 -0.6 0-1.1 0.1-1.7 0.2 -0.5 0.2-1 0.4-1.4 0.7 -0.4 0.3-0.8 0.7-1 1.2 -0.3 0.5-0.4 1-0.4 1.6 0 0.7 0.1 1.2 0.4 1.7 0.2 0.5 0.6 0.9 1 1.2 0.4 0.3 0.9 0.6 1.4 0.8 0.5 0.2 1.1 0.3 1.7 0.4 0.6 0.1 1.2 0.2 1.7 0.2 0.6 0 1.1 0 1.6 0h0.8v0.3c0 0.8-0.3 1.4-0.8 1.7 -0.5 0.4-1.2 0.6-2 0.6 -0.7 0-1.3-0.1-1.8-0.3 -0.6-0.2-1.1-0.5-1.5-0.9l-1.6 1.6c0.7 0.7 1.5 1.2 2.4 1.5 0.9 0.3 1.9 0.5 2.8 0.5 0.9 0 1.6-0.1 2.2-0.3 0.6-0.2 1.1-0.5 1.5-0.8 0.4-0.3 0.7-0.7 0.9-1.1 0.2-0.4 0.4-0.8 0.5-1.2 0.1-0.4 0.2-0.8 0.2-1.2 0-0.4 0-0.7 0-1v-7.1h-2.8V-43.9zM188-40h-0.6c-0.4 0-0.9 0-1.4-0.1 -0.5 0-1-0.1-1.5-0.2 -0.5-0.1-0.9-0.3-1.2-0.6 -0.3-0.2-0.5-0.6-0.5-1 0-0.3 0.1-0.5 0.2-0.7 0.1-0.2 0.3-0.4 0.5-0.5 0.2-0.1 0.4-0.2 0.7-0.3 0.3-0.1 0.5-0.1 0.8-0.1 1.1 0 1.9 0.3 2.4 0.8 0.5 0.5 0.8 1.2 0.8 2.1V-40z"/><path class="st0" d="M197.5-38.9l-4.3 5.7h3.8l2.5-3.7 2.7 3.7h3.5l-4.2-5.7 5-6.6h-3.8l-3.2 4.4 -3.2-4.4h-3.7L197.5-38.9z"/></g><g><path class="st0" d="M208.9-33.8h-1.1v0.6h2.7v-0.6h-1.1v-2.9h-0.6V-33.8zM211.2-33.2h0.9l1-2.6 1 2.6h0.9v-3.5h-0.6v2.9h0l-1.1-2.9h-0.4l-1.1 2.9h0v-2.9h-0.6V-33.2z"/></g></g><g><path class="st0" d="M87.8-25.1c-0.1-1.3-1.2-2.3-2.5-2.3l-55.5 2.6c-1.3 0.1-2.3 1.2-2.3 2.5l0.2 4.9c0.1 1.3 1.2 2.3 2.5 2.3l55.5-2.6c1.3-0.1 2.3-1.2 2.3-2.5L87.8-25.1z"/><path class="st0" d="M69.5-43.1c0-0.8-0.6-1.4-1.4-1.4H22.9c-0.8 0-1.4 0.6-1.4 1.4v7.1c0 0.8 0.6 1.4 1.4 1.4h45.2c0.8 0 1.4-0.6 1.4-1.4V-43.1z"/><path class="st0" d="M83.4-50.8c0-0.8-0.6-1.4-1.3-1.5l-51-1.6c-0.8 0-1.4 0.6-1.4 1.4l-0.1 4.2c0 0.8 0.6 1.4 1.3 1.5l51 1.6c0.8 0 1.4-0.6 1.4-1.4L83.4-50.8z"/><path class="st0" d="M76.6-59.3c0-0.8-0.6-1.4-1.3-1.4H26.6c-0.7 0-1.3 0.6-1.3 1.4v2.8c0 0.8 0.6 1.4 1.3 1.4h48.6c0.7 0 1.3-0.6 1.3-1.4V-59.3z"/><path class="st0" d="M77.8-31.2c0-0.6-0.9-1.1-1.9-1.1h-59c-1.1 0-1.9 0.5-1.9 1.1v2.3c0 0.6 0.9 1.1 1.9 1.1h59c1.1 0 1.9-0.5 1.9-1.1V-31.2z"/></g></g></symbol><g id="book-history"><g><path class="st0" d="M17 43.6c5.7 0 10.2-1.4 13.4-4.2 3.2-2.8 4.8-7.1 4.8-12.9V0v0h-9.4v0 26.5c0 3.2-0.6 5.5-1.9 7 -1.3 1.5-3.6 2.2-6.9 2.2 -1.9 0-3.4-0.3-4.6-0.8 -1.1-0.5-2-1.2-2.7-2.1 -0.6-0.9-1.1-1.8-1.3-3 -0.2-1.1-0.3-2.2-0.3-3.4V0H0v34.1c0.8 2.2 2 3.9 3.6 5.3C6.7 42.2 11.2 43.6 17 43.6z"/><rect x="37.7" y="33.5" class="st0" width="9.4" height="9.2"/><path class="st0" d="M27.1 73.4c-1.4-0.9-2.8-1.6-4.2-2 -1.4-0.4-2.5-0.7-3.3-0.9 -2.7-0.7-4.8-1.2-6.5-1.7 -1.7-0.4-2.9-0.9-3.9-1.3 -0.9-0.4-1.6-0.9-1.9-1.4 -0.3-0.5-0.5-1.2-0.5-2 0-0.9 0.2-1.7 0.6-2.3 0.4-0.6 0.9-1.1 1.5-1.5 0.6-0.4 1.3-0.7 2.1-0.8 0.8-0.2 1.5-0.2 2.3-0.2 1.2 0 2.2 0.1 3.2 0.3 1 0.2 1.8 0.5 2.6 1 0.8 0.5 1.4 1.1 1.8 2 0.5 0.8 0.7 1.9 0.8 3.2h9.1c0-2.5-0.5-4.6-1.4-6.3 -0.9-1.7-2.2-3.2-3.8-4.3 -1.6-1.1-3.4-1.9-5.5-2.4 -2.1-0.5-4.2-0.7-6.4-0.7 -1.9 0-3.8 0.3-5.7 0.8 -1.9 0.5-3.6 1.3-5.1 2.4 -1.1 0.8-2 1.7-2.8 2.8v13.7c0.5 0.6 1.1 1.2 1.7 1.7 1.2 0.9 2.5 1.7 4.1 2.2 1.5 0.6 3.1 1.1 4.7 1.5 1.6 0.4 3.1 0.8 4.6 1.2 1.5 0.4 2.9 0.8 4.1 1.3 1.2 0.5 2.2 1.1 2.9 1.8 0.7 0.7 1.1 1.7 1.1 2.8 0 1.1-0.3 2-0.8 2.7 -0.6 0.7-1.3 1.2-2.1 1.6 -0.8 0.4-1.7 0.7-2.7 0.8 -1 0.1-1.9 0.2-2.7 0.2 -1.2 0-2.4-0.1-3.6-0.4 -1.2-0.3-2.2-0.8-3-1.4 -0.9-0.6-1.5-1.4-2.1-2.4 -0.5-1-0.8-2.2-0.8-3.6H0v10C0.5 92 1.1 92.5 1.8 93c1.7 1.2 3.6 2.1 5.9 2.7 2.2 0.6 4.5 0.9 6.8 0.9 2.9 0 5.5-0.3 7.7-1 2.2-0.7 4.1-1.6 5.6-2.8 1.5-1.2 2.6-2.7 3.4-4.3 0.8-1.7 1.1-3.5 1.1-5.4 0-2.4-0.5-4.4-1.5-5.9C29.7 75.5 28.5 74.3 27.1 73.4z"/><rect x="33.9" y="86.4" class="st0" width="9.4" height="9.2"/></g><g><polygon class="st23" points="91.2 121.1 108.4 121.1 108.4 139.5 117.8 139.5 117.8 96.9 108.4 96.9 108.4 113.3 91.2 113.3 91.2 96.9 81.8 96.9 81.8 139.5 91.2 139.5 "/><rect x="121.6" y="96.9" class="st23" width="8.5" height="7"/><rect x="121.6" y="108.7" class="st23" width="8.5" height="30.9"/><path class="st23" d="M150 133.8c-0.5 0.3-1.1 0.5-1.8 0.7 -0.7 0.1-1.3 0.2-1.9 0.2 -0.8 0-1.6-0.1-2.4-0.3 -0.8-0.2-1.5-0.5-2.1-0.9 -0.6-0.4-1.1-1-1.5-1.6 -0.4-0.7-0.6-1.4-0.6-2.4h-8.1c0.1 2.1 0.5 3.8 1.4 5.2 0.9 1.4 2 2.5 3.3 3.3 1.3 0.8 2.9 1.4 4.6 1.8 1.7 0.4 3.5 0.5 5.3 0.5 1.8 0 3.5-0.2 5.2-0.5 1.7-0.3 3.2-0.9 4.5-1.8 1.3-0.8 2.4-1.9 3.2-3.3 0.8-1.4 1.2-3.1 1.2-5.1 0-1.4-0.3-2.6-0.8-3.6 -0.6-1-1.3-1.8-2.2-2.4 -0.9-0.7-2-1.2-3.1-1.6 -1.2-0.4-2.4-0.7-3.6-1 -1.2-0.3-2.4-0.5-3.5-0.8 -1.2-0.2-2.2-0.5-3.1-0.8 -0.9-0.3-1.6-0.7-2.2-1.2 -0.6-0.5-0.8-1.1-0.8-1.9 0-0.6 0.2-1.1 0.5-1.5 0.3-0.4 0.7-0.7 1.2-0.9 0.5-0.2 1-0.3 1.5-0.4 0.6-0.1 1.1-0.1 1.6-0.1 1.5 0 2.8 0.3 3.9 0.9 1.1 0.6 1.7 1.7 1.9 3.3h8.1c-0.2-1.9-0.6-3.5-1.5-4.7 -0.8-1.3-1.8-2.3-3.1-3 -1.2-0.8-2.6-1.3-4.2-1.6 -1.6-0.3-3.2-0.5-4.9-0.5s-3.3 0.1-4.9 0.4c-1.6 0.3-3 0.8-4.3 1.6 -1.3 0.7-2.3 1.7-3.1 3 -0.8 1.3-1.2 2.9-1.2 4.9 0 1.4 0.3 2.5 0.8 3.4 0.6 0.9 1.3 1.7 2.2 2.3 0.9 0.6 2 1.1 3.1 1.5 1.2 0.4 2.4 0.7 3.6 1 3 0.6 5.4 1.3 7.1 1.9 1.7 0.6 2.5 1.6 2.5 2.9 0 0.8-0.2 1.4-0.5 1.9C151 133.1 150.5 133.5 150 133.8z"/><path class="st23" d="M176.2 133.2c-1.4 0-2.4-0.2-2.9-0.7 -0.5-0.5-0.7-1.4-0.7-2.9v-15.3h6.2v-5.7h-6.2v-9.3h-8.5v9.3H159v5.7h5.1v18.2c0 1.6 0.3 2.8 0.8 3.8 0.5 1 1.2 1.7 2.1 2.2 0.9 0.5 1.9 0.9 3.1 1 1.2 0.2 2.4 0.3 3.7 0.3 0.8 0 1.7 0 2.6-0.1 0.9 0 1.7-0.1 2.4-0.2V133c-0.4 0.1-0.8 0.1-1.3 0.2C177.2 133.2 176.7 133.2 176.2 133.2z"/><rect x="176.7" y="119.6" class="st23" width="15.4" height="7.3"/><path class="st23" d="M107.5 154.1c-1.4-1.4-3.1-2.5-5-3.3 -2-0.8-4.2-1.2-6.6-1.2 -2.4 0-4.6 0.4-6.6 1.2 -2 0.8-3.6 1.9-5 3.3 -1.4 1.4-2.5 3.1-3.2 5.1 -0.8 2-1.1 4.3-1.1 6.7 0 2.5 0.4 4.7 1.1 6.7 0.8 2 1.8 3.7 3.2 5.1 1.4 1.4 3.1 2.5 5 3.3 2 0.8 4.1 1.1 6.6 1.1 2.4 0 4.6-0.4 6.6-1.1 2-0.8 3.7-1.8 5-3.3 1.4-1.4 2.5-3.1 3.2-5.1 0.8-2 1.1-4.2 1.1-6.7 0-2.5-0.4-4.7-1.1-6.7C110 157.2 108.9 155.5 107.5 154.1zM103.1 169.6c-0.2 1.2-0.6 2.2-1.2 3.2 -0.6 0.9-1.4 1.7-2.3 2.2 -1 0.6-2.2 0.8-3.6 0.8 -1.4 0-2.6-0.3-3.6-0.8 -1-0.6-1.7-1.3-2.3-2.2 -0.6-0.9-1-2-1.2-3.2 -0.2-1.2-0.4-2.4-0.4-3.6 0-1.2 0.1-2.4 0.4-3.6 0.2-1.2 0.6-2.2 1.2-3.2 0.6-0.9 1.3-1.7 2.3-2.2 1-0.6 2.2-0.9 3.6-0.9 1.4 0 2.6 0.3 3.6 0.9 1 0.6 1.8 1.3 2.3 2.2 0.6 0.9 1 2 1.2 3.2 0.2 1.2 0.4 2.4 0.4 3.6C103.4 167.2 103.3 168.4 103.1 169.6z"/><path class="st23" d="M148 171.6h-0.1l-7-21.2h-7.4v-0.5c-0.7-0.2-1.3-0.3-1.9-0.3 -1.1 0-2.1 0.2-3.1 0.5 -1 0.3-1.9 0.8-2.8 1.3 -0.9 0.6-1.7 1.3-2.3 2.1 -0.7 0.8-1.2 1.7-1.6 2.7h-0.1v-5.7h-8.1v30.9h8.5v-13.9c0-1.4 0.1-2.7 0.4-3.9 0.3-1.2 0.7-2.2 1.4-3.1 0.7-0.9 1.5-1.6 2.6-2.1 1.1-0.5 2.4-0.8 3.9-0.8 0.5 0 1.1 0 1.6 0.1 0.6 0.1 1 0.1 1.4 0.2v-3.1l9.2 24.7c0.2 0.6 0.4 1.2 0.4 1.9 0 0.9-0.3 1.8-0.8 2.5 -0.5 0.8-1.4 1.2-2.5 1.3 -0.8 0-1.7 0-2.5-0.1 -0.8-0.1-1.7-0.2-2.4-0.2v7c0.7 0.1 1.3 0.1 2 0.2h5.5c1.8-0.2 3.3-0.7 4.5-1.5 1.6-1.1 2.9-2.9 3.8-5.4l12.9-34.7h-8.8L148 171.6z"/></g></g></svg>