<svg xmlns="http://www.w3.org/2000/svg" viewBox="0 0 192 192"><style>.st0{fill:#fff}.st23{fill:#f37640}</style><symbol id="Logo" viewBox="15 -60.7 200 45.7"><path class="st0" d="M99-39.6c0 .9.2 1.7.5 2.5s.7 1.4 1.3 2c.5.6 1.2 1 2 1.3.8.3 1.6.5 2.5.5.9 0 1.7-.2 2.5-.5s1.4-.7 2-1.3c.6-.6 1-1.2 1.3-2 .3-.8.5-1.6.5-2.5 0-.9-.2-1.7-.5-2.5s-.7-1.4-1.3-2c-.6-.6-1.2-1-2-1.3-.8-.3-1.6-.5-2.5-.5-.9 0-1.8.2-2.5.5-.8.3-1.4.7-2 1.3-.5.6-1 1.2-1.3 2-.4.7-.5 1.6-.5 2.5zm1.5 0c0-.7.1-1.3.3-1.9.2-.6.5-1.1.9-1.5.4-.4.9-.8 1.5-1 .6-.3 1.2-.4 2-.4.7 0 1.4.1 2 .4.6.3 1.1.6 1.5 1 .4.4.7 1 .9 1.5.2.6.3 1.2.3 1.9s-.1 1.3-.3 1.9c-.2.6-.5 1.1-.9 1.5-.4.4-.9.8-1.5 1-.6.3-1.2.4-2 .4-.7 0-1.4-.1-2-.4-.6-.3-1.1-.6-1.5-1-.4-.4-.7-1-.9-1.5-.2-.6-.3-1.3-.3-1.9zm14.1 5.9h1.5v-2.1h.1c.2.4.5.8.9 1.1.4.3.8.5 1.2.7.4.2.9.3 1.3.4.5.1.9.1 1.4.1.9 0 1.7-.2 2.5-.5s1.4-.7 2-1.3c.6-.6 1-1.2 1.3-2 .3-.8.5-1.6.5-2.5 0-.9-.2-1.7-.5-2.5s-.7-1.4-1.3-2c-.6-.6-1.2-1-2-1.3-.8-.3-1.6-.5-2.5-.5-.4 0-.9 0-1.4.1-.5.1-.9.2-1.3.4s-.8.4-1.2.7c-.4.3-.7.7-.9 1.1h-.1v-8h-1.5v18.1zm1.4-5.9c0-.7.1-1.3.4-1.9.3-.6.6-1.1 1.1-1.5.4-.4 1-.8 1.6-1 .6-.3 1.3-.4 2-.4s1.4.1 2 .4c.6.3 1.1.6 1.5 1 .4.4.7 1 .9 1.5.2.6.3 1.2.3 1.9s-.1 1.3-.3 1.9c-.2.6-.5 1.1-.9 1.5-.4.4-.9.8-1.5 1-.6.3-1.2.4-2 .4-.7 0-1.4-.1-2-.4s-1.1-.6-1.6-1c-.4-.4-.8-1-1.1-1.5-.3-.6-.4-1.3-.4-1.9zm25.2-3.7c-.6-.9-1.3-1.6-2.2-2-.9-.4-1.9-.6-2.9-.6-.9 0-1.7.2-2.5.5-.7.3-1.4.7-1.9 1.3-.5.6-.9 1.2-1.2 2-.3.8-.4 1.6-.4 2.5 0 .9.1 1.7.4 2.5.3.8.7 1.4 1.2 2 .5.6 1.2 1 1.9 1.3.7.3 1.5.5 2.4.5.9 0 1.7-.2 2.4-.5s1.3-.7 1.8-1.3c.5-.5.8-1.1 1.1-1.8.2-.7.4-1.3.4-2V-40h-10c0-.3.1-.7.2-1.2s.4-1 .7-1.5c.3-.5.8-.9 1.4-1.2.6-.3 1.3-.5 2.2-.5.8 0 1.6.2 2.3.6.7.4 1.3.9 1.7 1.5l1-1zm-1.2 4.7c0 .5-.1 1-.3 1.5-.2.5-.5.9-.9 1.2-.4.4-.8.6-1.3.8-.5.2-1 .3-1.6.3-.8 0-1.5-.2-2.1-.5-.6-.3-1-.7-1.3-1.2-.3-.4-.6-.9-.7-1.3-.1-.4-.2-.7-.2-.9h8.4zm5 1.6v3.4h1.5v-1.3c0-.4 0-.7.1-.8h.1c.3.7.8 1.2 1.5 1.7s1.6.7 2.5.7c.9 0 1.7-.1 2.3-.4.6-.3 1-.7 1.4-1.1.3-.5.6-1 .7-1.6.1-.6.2-1.3.2-1.9v-7.1h-1.5v7c0 .5 0 .9-.1 1.4-.1.5-.2.9-.5 1.2-.2.4-.5.6-.9.9-.4.2-.9.3-1.5.3s-1.1-.1-1.6-.3c-.5-.2-.9-.5-1.3-.9s-.7-.9-.9-1.5c-.2-.6-.3-1.3-.3-2.2v-5.9H145v8.4zm20.6.4c-.6.8-1.4 1.3-2.4 1.3-.4 0-.8-.1-1.2-.3-.4-.2-.6-.5-.6-1 0-.4.2-.7.5-.8.3-.2.7-.3 1.2-.4.5-.1 1-.2 1.6-.4.6-.1 1.1-.3 1.6-.6s.9-.6 1.2-1.1c.3-.5.5-1.1.5-1.9 0-.7-.2-1.4-.5-1.9s-.7-.9-1.2-1.2c-.5-.3-1.1-.5-1.7-.7-.6-.1-1.3-.2-1.9-.2-1 0-1.8.1-2.7.4-.8.3-1.5.8-2.2 1.5l2.1 1.9c.4-.4.8-.8 1.3-1.1.5-.3 1-.4 1.7-.4.2 0 .5 0 .7.1.2.1.5.1.7.3.2.1.4.3.5.5.1.2.2.4.2.6 0 .4-.2.7-.5 1-.3.2-.7.4-1.2.5-.5.1-1 .2-1.6.4-.6.1-1.1.3-1.6.5s-.9.6-1.2 1c-.3.4-.5 1.1-.5 1.9 0 .7.1 1.3.4 1.8.3.5.7.9 1.1 1.2.5.3 1 .6 1.6.7.6.2 1.2.2 1.8.2.8 0 1.6-.1 2.4-.4.8-.3 1.5-.8 2-1.5l-2.1-1.9zm3.4.8v2.6h2.5v3.6h3.1v-3.6h3.4v-2.6h-3.4v-5.4c0-.6.1-1.1.3-1.5.2-.4.7-.5 1.4-.5.3 0 .6 0 .9.1.3.1.6.2.8.3v-2.6c-.3-.2-.7-.3-1.2-.3-.5-.1-.9-.1-1.2-.1-.8 0-1.5.1-2 .3-.5.2-.9.5-1.2.8-.3.4-.5.8-.6 1.4-.1.5-.2 1.2-.2 1.9v5.7H169zm19.2-8.1c-.5-.7-1.1-1.2-1.8-1.5-.7-.3-1.4-.5-2.3-.5-.6 0-1.1.1-1.7.2-.5.2-1 .4-1.4.7-.4.3-.8.7-1 1.2-.3.5-.4 1-.4 1.6 0 .7.1 1.2.4 1.7.2.5.6.9 1 1.2.4.3.9.6 1.4.8.5.2 1.1.3 1.7.4.6.1 1.2.2 1.7.2h2.4v.3c0 .8-.3 1.4-.8 1.7-.5.4-1.2.6-2 .6-.7 0-1.3-.1-1.8-.3-.6-.2-1.1-.5-1.5-.9l-1.6 1.6c.7.7 1.5 1.2 2.4 1.5.9.3 1.9.5 2.8.5.9 0 1.6-.1 2.2-.3.6-.2 1.1-.5 1.5-.8.4-.3.7-.7.9-1.1.2-.4.4-.8.5-1.2.1-.4.2-.8.2-1.2v-8.1h-2.8v1.7zM188-40h-.6c-.4 0-.9 0-1.4-.1-.5 0-1-.1-1.5-.2s-.9-.3-1.2-.6c-.3-.2-.5-.6-.5-1 0-.3.1-.5.2-.7.1-.2.3-.4.5-.5.2-.1.4-.2.7-.3.3-.1.5-.1.8-.1 1.1 0 1.9.3 2.4.8s.8 1.2.8 2.1v.6zm9.5 1.1l-4.3 5.7h3.8l2.5-3.7 2.7 3.7h3.5l-4.2-5.7 5-6.6h-3.8l-3.2 4.4-3.2-4.4h-3.7l4.9 6.6zm11.4 5.1h-1.1v.6h2.7v-.6h-1.1v-2.9h-.6v2.9zm2.3.6h.9l1-2.6 1 2.6h.9v-3.5h-.6v2.9l-1.1-2.9h-.4l-1.1 2.9v-2.9h-.6v3.5zM87.8-25.1c-.1-1.3-1.2-2.3-2.5-2.3l-55.5 2.6c-1.3.1-2.3 1.2-2.3 2.5l.2 4.9c.1 1.3 1.2 2.3 2.5 2.3l55.5-2.6c1.3-.1 2.3-1.2 2.3-2.5l-.2-4.9zm-18.3-18c0-.8-.6-1.4-1.4-1.4H22.9c-.8 0-1.4.6-1.4 1.4v7.1c0 .8.6 1.4 1.4 1.4h45.2c.8 0 1.4-.6 1.4-1.4v-7.1zm13.9-7.7c0-.8-.6-1.4-1.3-1.5l-51-1.6c-.8 0-1.4.6-1.4 1.4l-.1 4.2c0 .8.6 1.4 1.3 1.5l51 1.6c.8 0 1.4-.6 1.4-1.4l.1-4.2zm-6.8-8.5c0-.8-.6-1.4-1.3-1.4H26.6c-.7 0-1.3.6-1.3 1.4v2.8c0 .8.6 1.4 1.3 1.4h48.6c.7 0 1.3-.6 1.3-1.4v-2.8zm1.2 28.1c0-.6-.9-1.1-1.9-1.1h-59c-1.1 0-1.9.5-1.9 1.1v2.3c0 .6.9 1.1 1.9 1.1h59c1.1 0 1.9-.5 1.9-1.1v-2.3z"/></symbol><g id="book-history"><path class="st0" d="M17 43.6c5.7 0 10.2-1.4 13.4-4.2 3.2-2.8 4.8-7.1 4.8-12.9V0h-9.4v26.5c0 3.2-.6 5.5-1.9 7-1.3 1.5-3.6 2.2-6.9 2.2-1.9 0-3.4-.3-4.6-.8-1.1-.5-2-1.2-2.7-2.1-.6-.9-1.1-1.8-1.3-3-.2-1.1-.3-2.2-.3-3.4V0H0v34.1c.8 2.2 2 3.9 3.6 5.3 3.1 2.8 7.6 4.2 13.4 4.2zm20.7-10.1h9.4v9.2h-9.4zM27.1 73.4c-1.4-.9-2.8-1.6-4.2-2-1.4-.4-2.5-.7-3.3-.9-2.7-.7-4.8-1.2-6.5-1.7-1.7-.4-2.9-.9-3.9-1.3-.9-.4-1.6-.9-1.9-1.4-.3-.5-.5-1.2-.5-2 0-.9.2-1.7.6-2.3.4-.6.9-1.1 1.5-1.5.6-.4 1.3-.7 2.1-.8.8-.2 1.5-.2 2.3-.2 1.2 0 2.2.1 3.2.3 1 .2 1.8.5 2.6 1s1.4 1.1 1.8 2c.5.8.7 1.9.8 3.2h9.1c0-2.5-.5-4.6-1.4-6.3-.9-1.7-2.2-3.2-3.8-4.3-1.6-1.1-3.4-1.9-5.5-2.4s-4.2-.7-6.4-.7c-1.9 0-3.8.3-5.7.8-1.9.5-3.6 1.3-5.1 2.4-1.1.8-2 1.7-2.8 2.8v13.7c.5.6 1.1 1.2 1.7 1.7 1.2.9 2.5 1.7 4.1 2.2 1.5.6 3.1 1.1 4.7 1.5 1.6.4 3.1.8 4.6 1.2 1.5.4 2.9.8 4.1 1.3 1.2.5 2.2 1.1 2.9 1.8.7.7 1.1 1.7 1.1 2.8 0 1.1-.3 2-.8 2.7-.6.7-1.3 1.2-2.1 1.6-.8.4-1.7.7-2.7.8-1 .1-1.9.2-2.7.2-1.2 0-2.4-.1-3.6-.4-1.2-.3-2.2-.8-3-1.4-.9-.6-1.5-1.4-2.1-2.4-.5-1-.8-2.2-.8-3.6H0v10c.5.2 1.1.7 1.8 1.2 1.7 1.2 3.6 2.1 5.9 2.7 2.2.6 4.5.9 6.8.9 2.9 0 5.5-.3 7.7-1s4.1-1.6 5.6-2.8c1.5-1.2 2.6-2.7 3.4-4.3.8-1.7 1.1-3.5 1.1-5.4 0-2.4-.5-4.4-1.5-5.9-1.1-1.7-2.3-2.9-3.7-3.8zm6.8 13h9.4v9.2h-9.4z"/><path class="st23" d="M91.2 121.1h17.2v18.4h9.4V96.9h-9.4v16.4H91.2V96.9h-9.4v42.6h9.4zm30.4-24.2h8.5v7h-8.5zm0 11.8h8.5v30.9h-8.5zm28.4 25.1c-.5.3-1.1.5-1.8.7-.7.1-1.3.2-1.9.2-.8 0-1.6-.1-2.4-.3-.8-.2-1.5-.5-2.1-.9-.6-.4-1.1-1-1.5-1.6-.4-.7-.6-1.4-.6-2.4h-8.1c.1 2.1.5 3.8 1.4 5.2.9 1.4 2 2.5 3.3 3.3 1.3.8 2.9 1.4 4.6 1.8 1.7.4 3.5.5 5.3.5 1.8 0 3.5-.2 5.2-.5 1.7-.3 3.2-.9 4.5-1.8 1.3-.8 2.4-1.9 3.2-3.3.8-1.4 1.2-3.1 1.2-5.1 0-1.4-.3-2.6-.8-3.6-.6-1-1.3-1.8-2.2-2.4-.9-.7-2-1.2-3.1-1.6-1.2-.4-2.4-.7-3.6-1-1.2-.3-2.4-.5-3.5-.8-1.2-.2-2.2-.5-3.1-.8-.9-.3-1.6-.7-2.2-1.2-.6-.5-.8-1.1-.8-1.9 0-.6.2-1.1.5-1.5.3-.4.7-.7 1.2-.9.5-.2 1-.3 1.5-.4.6-.1 1.1-.1 1.6-.1 1.5 0 2.8.3 3.9.9 1.1.6 1.7 1.7 1.9 3.3h8.1c-.2-1.9-.6-3.5-1.5-4.7-.8-1.3-1.8-2.3-3.1-3-1.2-.8-2.6-1.3-4.2-1.6-1.6-.3-3.2-.5-4.9-.5s-3.3.1-4.9.4c-1.6.3-3 .8-4.3 1.6-1.3.7-2.3 1.7-3.1 3-.8 1.3-1.2 2.9-1.2 4.9 0 1.4.3 2.5.8 3.4.6.9 1.3 1.7 2.2 2.3.9.6 2 1.1 3.1 1.5 1.2.4 2.4.7 3.6 1 3 .6 5.4 1.3 7.1 1.9 1.7.6 2.5 1.6 2.5 2.9 0 .8-.2 1.4-.5 1.9s-.8.9-1.3 1.2z"/><path class="st23" d="M176.2 133.2c-1.4 0-2.4-.2-2.9-.7-.5-.5-.7-1.4-.7-2.9v-15.3h6.2v-5.7h-6.2v-9.3h-8.5v9.3H159v5.7h5.1v18.2c0 1.6.3 2.8.8 3.8s1.2 1.7 2.1 2.2c.9.5 1.9.9 3.1 1 1.2.2 2.4.3 3.7.3.8 0 1.7 0 2.6-.1.9 0 1.7-.1 2.4-.2V133c-.4.1-.8.1-1.3.2h-1.3z"/><path class="st23" d="M176.7 119.6h15.4v7.3h-15.4zm-69.2 34.5c-1.4-1.4-3.1-2.5-5-3.3-2-.8-4.2-1.2-6.6-1.2-2.4 0-4.6.4-6.6 1.2-2 .8-3.6 1.9-5 3.3s-2.5 3.1-3.2 5.1c-.8 2-1.1 4.3-1.1 6.7 0 2.5.4 4.7 1.1 6.7.8 2 1.8 3.7 3.2 5.1 1.4 1.4 3.1 2.5 5 3.3 2 .8 4.1 1.1 6.6 1.1 2.4 0 4.6-.4 6.6-1.1 2-.8 3.7-1.8 5-3.3 1.4-1.4 2.5-3.1 3.2-5.1.8-2 1.1-4.2 1.1-6.7s-.4-4.7-1.1-6.7c-.7-2-1.8-3.7-3.2-5.1zm-4.4 15.5c-.2 1.2-.6 2.2-1.2 3.2-.6.9-1.4 1.7-2.3 2.2-1 .6-2.2.8-3.6.8s-2.6-.3-3.6-.8c-1-.6-1.7-1.3-2.3-2.2-.6-.9-1-2-1.2-3.2-.2-1.2-.4-2.4-.4-3.6 0-1.2.1-2.4.4-3.6.2-1.2.6-2.2 1.2-3.2.6-.9 1.3-1.7 2.3-2.2 1-.6 2.2-.9 3.6-.9s2.6.3 3.6.9c1 .6 1.8 1.3 2.3 2.2.6.9 1 2 1.2 3.2.2 1.2.4 2.4.4 3.6-.1 1.2-.2 2.4-.4 3.6zm44.9 2h-.1l-7-21.2h-7.4v-.5c-.7-.2-1.3-.3-1.9-.3-1.1 0-2.1.2-3.1.5s-1.9.8-2.8 1.3c-.9.6-1.7 1.3-2.3 2.1-.7.8-1.2 1.7-1.6 2.7h-.1v-5.7h-8.1v30.9h8.5v-13.9c0-1.4.1-2.7.4-3.9.3-1.2.7-2.2 1.4-3.1.7-.9 1.5-1.6 2.6-2.1s2.4-.8 3.9-.8c.5 0 1.1 0 1.6.1.6.1 1 .1 1.4.2v-3.1l9.2 24.7c.2.6.4 1.2.4 1.9 0 .9-.3 1.8-.8 2.5-.5.8-1.4 1.2-2.5 1.3-.8 0-1.7 0-2.5-.1s-1.7-.2-2.4-.2v7c.7.1 1.3.1 2 .2h5.5c1.8-.2 3.3-.7 4.5-1.5 1.6-1.1 2.9-2.9 3.8-5.4l12.9-34.7h-8.8l-6.7 21.1z"/></g></svg>