<?xml version="1.0" encoding="UTF-8" standalone="no"?>
<svg
   xmlns:dc="http://purl.org/dc/elements/1.1/"
   xmlns:cc="http://creativecommons.org/ns#"
   xmlns:rdf="http://www.w3.org/1999/02/22-rdf-syntax-ns#"
   xmlns:svg="http://www.w3.org/2000/svg"
   xmlns="http://www.w3.org/2000/svg"
   viewBox="0 0 1200 1200"
   height="1200"
   width="1200"
   xml:space="preserve"
   id="svg2"
   version="1.1"><metadata
     id="metadata8"><rdf:RDF><cc:Work
         rdf:about=""><dc:format>image/svg+xml</dc:format><dc:type
           rdf:resource="http://purl.org/dc/dcmitype/StillImage" /></cc:Work></rdf:RDF></metadata><defs
     id="defs6"><clipPath
       id="clipPath22"
       clipPathUnits="userSpaceOnUse"><path
         id="path20"
         d="M 0,900 H 900 V 0 H 0 Z" /></clipPath></defs><g
     transform="matrix(1.3333333,0,0,-1.3333333,0,1200)"
     id="g10"><path
       id="path12"
       style="fill:#363e6c;fill-opacity:1;fill-rule:nonzero;stroke:none"
       d="M 650,250 H 250 v 399.999 h 400 z" /><path
       id="path14"
       style="fill:#ffffff;fill-opacity:1;fill-rule:nonzero;stroke:none"
       d="M 303.793,649.947 H 323.33 V 650 h -19.537 z" /><g
       id="g16"><g
         clip-path="url(#clipPath22)"
         id="g18"><g
           transform="translate(257.4375,567.8667)"
           id="g24"><path
             id="path26"
             style="fill:#ffffff;fill-opacity:1;fill-rule:nonzero;stroke:none"
             d="m 0,0 c 6.596,-5.809 15.907,-8.711 27.937,-8.711 11.864,0 21.157,2.924 27.876,8.773 6.72,5.849 10.08,14.788 10.08,26.818 v 55.2 H 46.355 v -55.2 c 0,-6.638 -1.328,-11.511 -3.982,-14.622 -2.656,-3.112 -7.466,-4.666 -14.436,-4.666 -3.982,0 -7.155,0.558 -9.52,1.679 -2.363,1.12 -4.211,2.571 -5.537,4.356 -1.328,1.783 -2.199,3.836 -2.613,6.16 -0.416,2.32 -0.622,4.686 -0.622,7.093 v 55.2 H -7.437 V 11.127 C -5.788,6.623 -3.311,2.914 0,0" /></g><path
           id="path28"
           style="fill:#ffffff;fill-opacity:1;fill-rule:nonzero;stroke:none"
           d="m 328.434,561.146 h 19.537 v 19.165 h -19.537 z" /><g
           transform="translate(265.8994,450.7378)"
           id="g30"><path
             id="path32"
             style="fill:#ffffff;fill-opacity:1;fill-rule:nonzero;stroke:none"
             d="m 0,0 c 4.604,-1.201 9.354,-1.805 14.249,-1.805 6.056,0 11.387,0.706 15.991,2.116 4.605,1.41 8.462,3.379 11.573,5.912 3.112,2.529 5.455,5.537 7.032,9.021 1.574,3.485 2.364,7.259 2.364,11.324 0,4.979 -1.058,9.064 -3.173,12.258 -2.116,3.194 -4.626,5.744 -7.529,7.654 -2.904,1.908 -5.83,3.297 -8.774,4.168 -2.946,0.872 -5.248,1.473 -6.907,1.805 -5.558,1.41 -10.059,2.57 -13.502,3.485 -3.443,0.912 -6.14,1.824 -8.089,2.738 -1.95,0.912 -3.256,1.907 -3.919,2.986 -0.666,1.078 -0.996,2.488 -0.996,4.231 0,1.908 0.414,3.484 1.244,4.73 0.829,1.244 1.887,2.28 3.174,3.11 1.285,0.829 2.716,1.41 4.293,1.743 1.575,0.331 3.153,0.497 4.729,0.497 2.406,0 4.624,-0.207 6.658,-0.621 2.032,-0.416 3.836,-1.122 5.414,-2.116 1.574,-0.996 2.84,-2.365 3.795,-4.107 0.953,-1.742 1.513,-3.941 1.68,-6.596 h 18.916 c 0,5.143 -0.976,9.52 -2.925,13.129 -1.95,3.609 -4.585,6.574 -7.902,8.899 -3.319,2.32 -7.115,4.001 -11.387,5.039 -4.274,1.037 -8.732,1.555 -13.378,1.555 -3.982,0 -7.964,-0.54 -11.946,-1.618 -3.982,-1.078 -7.55,-2.737 -10.703,-4.976 -2.276,-1.618 -4.233,-3.531 -5.881,-5.731 V 50.301 c 1.076,-1.329 2.28,-2.53 3.641,-3.572 2.489,-1.91 5.309,-3.465 8.463,-4.666 3.151,-1.205 6.387,-2.221 9.706,-3.049 3.235,-0.914 6.429,-1.743 9.582,-2.49 3.153,-0.747 5.974,-1.618 8.462,-2.613 2.49,-0.995 4.5,-2.24 6.036,-3.733 1.534,-1.493 2.303,-3.444 2.303,-5.849 0,-2.24 -0.582,-4.087 -1.742,-5.538 -1.164,-1.453 -2.615,-2.594 -4.357,-3.422 -1.742,-0.83 -3.608,-1.39 -5.599,-1.68 -1.992,-0.293 -3.858,-0.435 -5.6,-0.435 -2.573,0 -5.061,0.31 -7.467,0.933 -2.407,0.622 -4.502,1.575 -6.285,2.862 -1.785,1.285 -3.216,2.965 -4.293,5.04 -1.079,2.073 -1.617,4.604 -1.617,7.591 H -15.899 V 8.9 C -14.77,7.719 -13.535,6.639 -12.195,5.662 -8.67,3.09 -4.604,1.201 0,0" /></g><path
           id="path34"
           style="fill:#ffffff;fill-opacity:1;fill-rule:nonzero;stroke:none"
           d="m 320.691,450.924 h 19.538 v 19.165 h -19.538 z" /><g
           transform="translate(475.8643,414.105)"
           id="g36"><path
             id="path38"
             style="fill:#f47b4c;fill-opacity:1;fill-rule:nonzero;stroke:none"
             d="m 0,0 h -35.965 v 34.098 h -19.537 v -88.854 h 19.537 v 38.328 H 0 V -54.756 H 19.538 V 34.098 H 0 Z" /></g><path
           id="path40"
           style="fill:#f47b4c;fill-opacity:1;fill-rule:nonzero;stroke:none"
           d="m 503.341,433.642 h 17.671 v 14.561 h -17.671 z" /><path
           id="path42"
           style="fill:#f47b4c;fill-opacity:1;fill-rule:nonzero;stroke:none"
           d="m 503.341,359.349 h 17.671 v 64.338 h -17.671 z" /><g
           transform="translate(577.6338,392.6382)"
           id="g44"><path
             id="path46"
             style="fill:#f47b4c;fill-opacity:1;fill-rule:nonzero;stroke:none"
             d="m 0,0 c -1.91,1.369 -4.087,2.467 -6.533,3.297 -2.448,0.828 -4.958,1.535 -7.53,2.116 -2.489,0.579 -4.936,1.12 -7.341,1.618 -2.408,0.497 -4.542,1.057 -6.409,1.68 -1.868,0.622 -3.381,1.431 -4.543,2.426 -1.163,0.996 -1.742,2.281 -1.742,3.858 0,1.326 0.33,2.384 0.995,3.173 0.664,0.788 1.473,1.389 2.427,1.805 0.953,0.414 2.011,0.684 3.174,0.809 1.16,0.124 2.239,0.187 3.235,0.187 3.153,0 5.89,-0.604 8.213,-1.805 2.323,-1.203 3.61,-3.506 3.858,-6.906 h 16.8 c -0.332,3.982 -1.349,7.279 -3.048,9.892 -1.702,2.614 -3.839,4.708 -6.41,6.286 -2.572,1.574 -5.497,2.694 -8.773,3.359 -3.277,0.663 -6.658,0.996 -10.143,0.996 -3.484,0 -6.886,-0.311 -10.204,-0.934 -3.319,-0.622 -6.305,-1.701 -8.96,-3.235 -2.656,-1.536 -4.79,-3.63 -6.408,-6.284 -1.618,-2.656 -2.428,-6.057 -2.428,-10.205 0,-2.821 0.581,-5.207 1.744,-7.156 1.16,-1.95 2.694,-3.567 4.604,-4.853 1.907,-1.287 4.085,-2.323 6.533,-3.111 2.447,-0.79 4.956,-1.474 7.53,-2.054 6.303,-1.327 11.218,-2.655 14.746,-3.982 3.524,-1.328 5.288,-3.319 5.288,-5.973 0,-1.576 -0.373,-2.883 -1.119,-3.92 -0.747,-1.038 -1.681,-1.867 -2.801,-2.488 -1.119,-0.623 -2.364,-1.08 -3.733,-1.369 -1.37,-0.292 -2.675,-0.436 -3.919,-0.436 -1.744,0 -3.422,0.205 -5.04,0.622 -1.619,0.414 -3.049,1.058 -4.294,1.929 -1.245,0.871 -2.262,1.991 -3.048,3.36 -0.79,1.368 -1.183,3.006 -1.183,4.915 h -16.801 c 0.165,-4.314 1.14,-7.902 2.925,-10.763 1.783,-2.864 4.064,-5.166 6.845,-6.908 2.777,-1.742 5.951,-2.987 9.519,-3.733 3.567,-0.746 7.219,-1.119 10.952,-1.119 3.65,0 7.237,0.353 10.764,1.056 3.526,0.705 6.658,1.93 9.395,3.672 2.738,1.742 4.957,4.044 6.658,6.907 1.7,2.862 2.552,6.408 2.552,10.64 0,2.986 -0.581,5.494 -1.743,7.528 C 3.441,-3.07 1.908,-1.369 0,0" /></g><g
           transform="translate(611.0957,374.0327)"
           id="g48"><path
             id="path50"
             style="fill:#f47b4c;fill-opacity:1;fill-rule:nonzero;stroke:none"
             d="M 0,0 C -0.996,0.996 -1.493,2.987 -1.493,5.975 V 37.832 H 11.448 V 49.654 H -1.493 V 68.943 H -19.165 V 49.654 H -29.866 V 37.832 h 10.701 V -0.124 c 0,-3.235 0.539,-5.849 1.618,-7.84 1.078,-1.991 2.551,-3.527 4.418,-4.604 1.866,-1.079 4.023,-1.805 6.471,-2.178 2.446,-0.373 5.04,-0.561 7.777,-0.561 1.743,0 3.527,0.043 5.352,0.125 1.824,0.084 3.484,0.249 4.977,0.498 V -0.995 C 10.618,-1.162 9.747,-1.287 8.835,-1.368 7.922,-1.452 6.969,-1.492 5.974,-1.492 2.986,-1.492 0.995,-0.995 0,0" /></g><path
           id="path52"
           style="fill:#f47b4c;fill-opacity:1;fill-rule:nonzero;stroke:none"
           d="M 618.013,385.732 H 650 v 15.182 h -31.987 z" /><g
           transform="translate(464.6641,296.8149)"
           id="g54"><path
             id="path56"
             style="fill:#f47b4c;fill-opacity:1;fill-rule:nonzero;stroke:none"
             d="m 0,0 c -0.497,-2.447 -1.35,-4.646 -2.551,-6.595 -1.203,-1.95 -2.821,-3.507 -4.853,-4.667 -2.034,-1.163 -4.543,-1.742 -7.53,-1.742 -2.986,0 -5.475,0.579 -7.466,1.742 -1.992,1.16 -3.589,2.717 -4.791,4.667 -1.204,1.949 -2.053,4.148 -2.551,6.595 -0.498,2.447 -0.746,4.957 -0.746,7.529 0,2.571 0.248,5.103 0.746,7.592 0.498,2.488 1.347,4.686 2.551,6.596 1.202,1.907 2.799,3.463 4.791,4.666 1.991,1.202 4.48,1.804 7.466,1.804 2.987,0 5.496,-0.602 7.53,-1.804 2.032,-1.203 3.65,-2.759 4.853,-4.666 C -1.35,19.807 -0.497,17.609 0,15.121 0.497,12.632 0.746,10.1 0.746,7.529 0.746,4.957 0.497,2.447 0,0 m 9.333,32.231 c -2.905,2.944 -6.408,5.227 -10.516,6.845 -4.106,1.618 -8.691,2.427 -13.751,2.427 -5.061,0 -9.625,-0.809 -13.688,-2.427 -4.066,-1.618 -7.551,-3.901 -10.453,-6.845 -2.905,-2.945 -5.146,-6.513 -6.721,-10.702 -1.576,-4.19 -2.364,-8.857 -2.364,-14 0,-5.144 0.788,-9.79 2.364,-13.937 1.575,-4.15 3.816,-7.696 6.721,-10.64 2.902,-2.946 6.387,-5.208 10.453,-6.783 4.063,-1.575 8.627,-2.364 13.688,-2.364 5.06,0 9.645,0.789 13.751,2.364 4.108,1.575 7.611,3.837 10.516,6.783 2.904,2.944 5.144,6.49 6.72,10.64 1.576,4.147 2.365,8.793 2.365,13.937 0,5.143 -0.789,9.81 -2.365,14 -1.576,4.189 -3.816,7.757 -6.72,10.702" /></g><g
           transform="translate(528.0176,336.5757)"
           id="g58"><path
             id="path60"
             style="fill:#f47b4c;fill-opacity:1;fill-rule:nonzero;stroke:none"
             d="m 0,0 v 1.12 c -1.412,0.414 -2.696,0.622 -3.857,0.622 -2.241,0 -4.399,-0.332 -6.471,-0.996 -2.075,-0.664 -4.026,-1.598 -5.85,-2.8 -1.826,-1.204 -3.444,-2.655 -4.853,-4.355 -1.412,-1.701 -2.531,-3.546 -3.36,-5.538 H -24.64 V 0 h -16.799 v -64.339 h 17.669 v 28.996 c 0,2.904 0.291,5.601 0.873,8.09 0.579,2.488 1.555,4.666 2.923,6.533 1.37,1.866 3.173,3.338 5.413,4.418 2.242,1.076 4.979,1.617 8.214,1.617 1.077,0 2.198,-0.062 3.361,-0.186 1.16,-0.125 2.156,-0.271 2.986,-0.436 L 0,-8.84 -3.299,0 Z" /></g><g
           transform="translate(524.7187,336.5757)"
           id="g62"><path
             id="path64"
             style="fill:#f47b4c;fill-opacity:1;fill-rule:nonzero;stroke:none"
             d="M 0,0 3.299,-8.84 V 0 Z" /></g><g
           transform="translate(555.8301,253.0737)"
           id="g66"><path
             id="path68"
             style="fill:#f47b4c;fill-opacity:1;fill-rule:nonzero;stroke:none"
             d="M 0,0 C 3.4,2.239 6.056,5.973 7.964,11.199 L 34.845,83.502 H 16.551 L 2.489,39.448 h -0.25 l -14.558,44.054 h -15.493 v -8.84 L -8.587,23.146 c 0.498,-1.245 0.746,-2.573 0.746,-3.983 0,-1.906 -0.558,-3.648 -1.68,-5.226 -1.119,-1.575 -2.842,-2.489 -5.164,-2.738 -1.743,-0.081 -3.484,-0.041 -5.227,0.125 -1.741,0.167 -3.442,0.333 -5.102,0.497 V -2.738 c 1.404,-0.127 2.785,-0.234 4.163,-0.335 H -9.31 C -5.536,-2.614 -2.425,-1.597 0,0" /></g></g></g></g></svg>