<svg id="feature" xmlns="http://www.w3.org/2000/svg" viewBox="0 0 87.34 84.75"><defs><style>.cls-1{fill:none;}.cls-2{fill:#00246a;}</style></defs><title>book-mass-renewal-bucket</title><g id="SVGID"><rect class="cls-1" x="-15.85" y="-21.99" width="124.82" height="106.74"/></g><path class="cls-2" d="M3,84.75v-65H25.09v65h3V3H56v8.11H40.36a1.5,1.5,0,0,0,0,3H56V84.75h3V39.52H84.34V84.75h3V7.5A2.5,2.5,0,0,0,84.84,5H59V2.5A2.5,2.5,0,0,0,56.51,0H27.59a2.5,2.5,0,0,0-2.5,2.5V16.79H2.5A2.5,2.5,0,0,0,0,19.29V84.75H3ZM59,8H84.34V27.94H59V8Zm0,22.95H84.34v5.57H59V30.94Z"/></svg>