<svg xmlns="http://www.w3.org/2000/svg" width="196" height="31" viewBox="0 0 196 31">
    <g fill="none" fill-rule="evenodd">
        <path fill="#5E6062" d="M56.152 16.175c0 .44.07.854.212 1.242.14.39.346.729.617 1.016.27.287.598.516.98.685.384.17.812.254 1.287.254.473 0 .902-.085 1.285-.254.383-.17.71-.398.981-.685.272-.287.477-.626.618-1.016.14-.388.211-.802.211-1.242 0-.44-.07-.854-.211-1.244-.141-.388-.346-.727-.618-1.015-.27-.287-.598-.515-.98-.685-.384-.17-.813-.253-1.286-.253-.475 0-.903.083-1.287.253-.382.17-.71.398-.98.685-.27.288-.476.627-.617 1.015-.141.39-.212.804-.212 1.244m-1.015 0c0-.598.102-1.148.304-1.65.204-.502.485-.935.846-1.302s.796-.65 1.304-.854c.506-.204 1.059-.305 1.657-.305.597 0 1.146.101 1.648.305.502.203.936.487 1.303.854.366.367.652.8.854 1.302.204.502.305 1.052.305 1.65 0 .598-.101 1.147-.305 1.649-.202.503-.488.936-.854 1.302-.367.367-.8.652-1.303.855-.502.202-1.051.304-1.648.304-.598 0-1.15-.102-1.657-.304-.508-.203-.943-.488-1.304-.855-.36-.366-.642-.8-.846-1.302-.202-.502-.304-1.05-.304-1.649M66.318 16.175c0 .44.084.854.253 1.242.17.39.4.729.694 1.016.293.287.637.516 1.032.685.394.17.823.254 1.286.254.473 0 .901-.085 1.285-.254.383-.17.71-.398.98-.685.271-.287.477-.626.618-1.016.141-.388.212-.802.212-1.242 0-.44-.07-.854-.212-1.244-.141-.388-.347-.727-.618-1.015-.27-.287-.597-.515-.98-.685-.384-.17-.812-.253-1.285-.253-.463 0-.892.083-1.286.253-.395.17-.739.398-1.032.685-.294.288-.525.627-.694 1.015-.169.39-.253.804-.253 1.244zm-.914-3.908h1.015v1.37h.034c.158-.271.355-.505.592-.701.237-.197.493-.36.77-.492.276-.129.566-.225.87-.287.306-.062.604-.093.898-.093.596 0 1.147.101 1.649.305.5.203.935.487 1.302.854s.651.8.854 1.302c.203.502.305 1.052.305 1.65 0 .598-.102 1.147-.305 1.649-.203.503-.487.936-.854 1.302-.367.367-.801.652-1.302.855-.502.202-1.053.304-1.65.304-.293 0-.591-.03-.897-.094-.304-.061-.594-.156-.87-.286-.277-.13-.533-.294-.77-.491-.237-.196-.434-.43-.592-.702h-.034v5.226h-1.015v-11.67zM82.082 15.514c0-.349-.071-.676-.211-.98-.141-.304-.332-.572-.575-.804-.243-.23-.53-.414-.862-.549-.334-.136-.686-.203-1.058-.203-.553 0-1.012.112-1.38.338-.365.225-.656.484-.87.779-.214.292-.367.577-.457.854-.09.276-.135.464-.135.565h5.548zm.78 3.096c-.396.599-.884 1.027-1.465 1.286-.58.26-1.22.389-1.92.389-.597 0-1.139-.102-1.624-.305-.484-.202-.902-.487-1.25-.854-.351-.366-.618-.8-.804-1.303-.186-.502-.28-1.057-.28-1.666 0-.585.096-1.127.288-1.623.192-.496.462-.927.812-1.295.35-.366.76-.653 1.234-.862.474-.208.999-.312 1.573-.312.599 0 1.125.104 1.582.312.457.21.84.485 1.15.829.31.344.545.735.703 1.176.158.44.237.885.237 1.336v.71h-6.564c0 .214.042.489.127.82.085.334.24.659.465.973.225.317.527.586.905.812.378.225.866.339 1.464.339.518 0 1.02-.125 1.505-.373.484-.247.857-.586 1.116-1.015l.745.626zM85.364 14.466c0-.146-.006-.324-.017-.532-.011-.21-.02-.42-.026-.635-.006-.214-.014-.415-.025-.6-.011-.187-.017-.33-.017-.431h1.015c.011.292.02.574.026.845.006.27.019.445.042.525h.05c.203-.429.542-.798 1.015-1.109.474-.31 1.027-.465 1.658-.465.609 0 1.105.096 1.489.288.383.192.684.442.904.752.22.31.372.668.457 1.074.084.406.126.824.126 1.253v4.65h-1.014v-4.6c0-.315-.028-.623-.084-.922-.057-.298-.156-.566-.297-.803-.141-.237-.338-.426-.591-.567-.254-.142-.584-.212-.99-.212-.372 0-.725.066-1.057.195-.333.13-.62.327-.863.592-.242.266-.434.599-.575.999-.14.4-.211.87-.211 1.412v3.906h-1.015v-5.615zM98.895 14.212c-.395-.552-.924-.828-1.589-.828-.27 0-.537.067-.795.202-.26.136-.39.355-.39.66 0 .247.107.43.322.542.214.112.484.209.811.287.327.08.68.16 1.058.246.378.085.73.214 1.057.388.327.175.598.415.812.719.215.305.321.722.321 1.251 0 .485-.104.895-.313 1.227-.208.334-.48.6-.812.803-.332.204-.707.35-1.125.44-.416.09-.833.136-1.251.136-.632 0-1.212-.09-1.742-.27-.53-.18-1.004-.508-1.42-.982l1.352-1.269c.26.294.54.534.838.72.298.185.662.278 1.09.278.147 0 .3-.016.457-.05.159-.034.304-.09.44-.169.136-.079.245-.177.33-.296.084-.118.127-.256.127-.414 0-.283-.107-.49-.321-.626-.215-.137-.485-.247-.812-.33-.327-.085-.68-.164-1.058-.238-.378-.072-.73-.191-1.057-.355-.327-.163-.597-.391-.813-.685-.213-.293-.32-.7-.32-1.217 0-.451.093-.843.279-1.176.185-.333.43-.606.735-.82.305-.215.654-.372 1.05-.474.394-.102.794-.152 1.2-.152.542 0 1.076.094 1.607.279.53.186.958.504 1.286.955l-1.354 1.218zM101.129 13.688v-1.726h1.674v-2.35h2.03v2.35h2.232v1.726h-2.232v3.553c0 .405.076.727.228.964.151.236.454.355.905.355.18 0 .377-.02.591-.06.215-.04.384-.105.508-.194v1.708c-.214.102-.476.172-.786.212-.31.04-.584.059-.821.059-.541 0-.984-.06-1.328-.178-.345-.118-.614-.298-.812-.541-.197-.242-.332-.545-.406-.905-.073-.36-.11-.778-.11-1.251v-3.722h-1.673zM113.611 16.446h-.422c-.283 0-.598.01-.948.033s-.68.077-.99.16c-.31.086-.572.21-.786.373-.215.164-.322.392-.322.685 0 .192.043.352.128.481.084.132.194.241.33.331.135.089.287.155.456.194.17.04.339.06.507.06.7 0 1.216-.166 1.548-.5.332-.332.5-.786.5-1.362v-.455zm.119 2.52h-.05c-.296.462-.667.797-1.117 1.006-.451.209-.947.313-1.49.313-.371 0-.735-.05-1.09-.152-.355-.102-.671-.255-.947-.457-.277-.202-.499-.456-.668-.761-.17-.305-.254-.66-.254-1.065 0-.44.079-.815.236-1.125.159-.31.37-.57.635-.78.265-.208.572-.373.922-.498.349-.124.714-.217 1.09-.279.378-.061.759-.102 1.142-.118.384-.018.745-.026 1.083-.026h.508v-.22c0-.507-.175-.888-.525-1.141-.35-.254-.795-.381-1.336-.381-.429 0-.829.076-1.201.229-.372.152-.694.358-.964.616l-1.066-1.065c.452-.462.978-.794 1.582-.998.603-.203 1.226-.304 1.868-.304.575 0 1.06.064 1.455.194.396.13.722.297.981.5.26.203.46.437.601.702.14.265.242.532.304.803.063.27.1.532.11.786.012.254.017.477.017.668v4.668h-1.826v-1.115zM119.836 15.718L117.028 11.962 119.497 11.962 121.121 14.398 122.881 11.962 125.197 11.962 122.424 15.718 125.688 20.081 123.219 20.081 121.104 17.173 118.973 20.081 116.571 20.081z"/>
        <path fill="#77AF42" d="M47.806 6.61c-.04.863-.77 1.53-1.635 1.487L9.698 6.366c-.862-.043-1.526-.777-1.485-1.637l.155-3.24C8.406.628 9.14-.038 10 .003l36.474 1.733c.861.042 1.528.774 1.488 1.638l-.156 3.238z"/>
        <path fill="#5E6062" d="M35.82 18.463c0 .52-.42.94-.938.94H5.217c-.517 0-.937-.42-.937-.94v-4.638c0-.517.42-.935.937-.935h29.665c.517 0 .938.418.938.935v4.638z"/>
        <path fill="#F4CF18" d="M44.941 23.48c.017.516-.374.95-.876.968L10.597 25.49c-.5.014-.92-.394-.936-.91l-.087-2.755c-.016-.517.378-.95.88-.966l33.467-1.045c.502-.016.92.393.936.909l.084 2.756z"/>
        <path fill="#00246A" d="M40.447 29.08c0 .517-.395.938-.88.938H7.617c-.483 0-.878-.421-.878-.939v-1.84c0-.517.395-.938.879-.938h31.949c.485 0 .88.42.88.937v1.841z"/>
        <path fill="#F47541" d="M41.271 10.655c0 .38-.569.693-1.266.693H1.263c-.696 0-1.263-.312-1.263-.693V9.154c0-.382.567-.692 1.263-.692h38.742c.697 0 1.266.31 1.266.692v1.5zM137.742 12.776L135.068 12.776 135.068 19.977 134.107 19.977 134.107 12.776 131.432 12.776 131.432 11.884 137.742 11.884zM145.344 16.89c0 .443-.056.862-.166 1.259-.11.396-.286.744-.525 1.045-.241.302-.555.542-.944.72-.388.18-.861.27-1.417.27-.557 0-1.03-.09-1.418-.27-.389-.178-.703-.418-.942-.72-.24-.301-.416-.65-.526-1.045-.112-.397-.166-.816-.166-1.258v-5.006h.96v4.869c0 .327.034.644.103.949.068.305.182.575.343.811.16.236.373.425.64.566.267.141.602.212 1.006.212s.739-.071 1.005-.212c.268-.141.48-.33.64-.566.161-.236.275-.506.343-.811.07-.305.103-.622.103-.95v-4.868h.96v5.006zM153.151 12.776L150.476 12.776 150.476 19.977 149.516 19.977 149.516 12.776 146.841 12.776 146.841 11.884 153.151 11.884zM158.443 19.291c.473 0 .905-.087 1.298-.262.392-.175.729-.415 1.011-.72.282-.305.501-.661.658-1.07.156-.407.234-.843.234-1.308 0-.465-.078-.902-.234-1.309-.157-.407-.376-.764-.658-1.069-.282-.304-.619-.544-1.011-.72-.393-.175-.825-.263-1.298-.263-.472 0-.905.088-1.298.263-.392.176-.729.416-1.011.72-.282.305-.501.662-.658 1.069-.156.407-.234.844-.234 1.309 0 .465.078.901.234 1.309.157.408.376.764.658 1.068.282.306.619.546 1.011.72.393.176.826.263 1.298.263m0 .892c-.617 0-1.183-.107-1.698-.32-.514-.213-.96-.509-1.337-.886s-.67-.827-.88-1.349c-.21-.522-.315-1.088-.315-1.697 0-.61.106-1.175.315-1.698.21-.522.503-.972.88-1.349.378-.377.823-.672 1.337-.886.515-.213 1.081-.32 1.698-.32.618 0 1.183.107 1.697.32.515.214.961.51 1.338.886.377.377.67.827.88 1.35.21.522.315 1.087.315 1.697 0 .61-.106 1.175-.315 1.697-.21.522-.503.972-.88 1.349s-.823.673-1.338.886c-.514.213-1.08.32-1.697.32M165.576 15.45h.857c.267 0 .544-.007.83-.023.284-.015.548-.064.788-.148.24-.083.437-.216.594-.394.157-.18.235-.436.235-.772 0-.29-.057-.522-.172-.697-.114-.175-.265-.31-.451-.406-.188-.095-.396-.158-.629-.188-.233-.03-.467-.046-.703-.046h-1.349v2.675zm-.96-3.565h2.07c.388 0 .775.022 1.159.068.386.046.73.145 1.035.297.304.152.552.375.743.669.19.293.286.69.286 1.194 0 .595-.179 1.074-.538 1.44-.358.367-.854.599-1.485.698l2.297 3.726h-1.177l-2.195-3.635h-1.235v3.635h-.96v-8.092zM175.764 17.565c.2 0 .385-.034.554-.104.17-.07.317-.164.446-.283.127-.12.235-.264.321-.433.086-.17.143-.354.17-.555.027-.2.024-.384-.012-.554-.036-.168-.103-.313-.2-.433-.098-.119-.221-.214-.37-.283-.15-.07-.326-.104-.525-.104-.2 0-.385.035-.555.104-.169.07-.319.164-.45.283-.13.12-.237.265-.32.433-.083.17-.139.355-.167.554-.028.2-.023.385.013.555.036.169.1.313.195.433s.219.214.371.283c.152.07.329.104.53.104zm-1.25-5.698h.75l-.408 2.915h.017c.16-.204.375-.367.641-.487.267-.119.542-.179.825-.179.305 0 .573.053.804.158.23.106.42.252.57.438.15.186.255.405.313.658.059.253.068.526.03.82-.046.295-.131.567-.26.817-.127.25-.29.47-.49.658-.2.189-.433.336-.696.442-.264.105-.549.158-.855.158-.265 0-.517-.058-.753-.175-.236-.117-.412-.28-.53-.492h-.016l-.075.567h-.75l.884-6.298zM181.978 15.866c.017-.167.011-.32-.016-.458-.029-.139-.081-.26-.16-.363-.078-.102-.184-.183-.318-.241-.135-.059-.297-.088-.487-.088-.185 0-.358.035-.52.104-.163.07-.307.16-.432.271-.126.111-.228.235-.306.37-.079.137-.126.272-.144.405h2.383zm-2.465.6c-.023.172-.006.329.05.47.055.142.138.262.246.363.11.099.24.177.394.233.153.055.316.084.489.084.234 0 .445-.055.631-.163.187-.108.366-.252.539-.43l.5.434c-.49.538-1.109.808-1.858.808-.311 0-.584-.053-.82-.159-.236-.105-.43-.251-.58-.437-.15-.185-.255-.405-.316-.658-.062-.252-.07-.526-.025-.82.04-.295.128-.568.267-.82.138-.254.312-.473.52-.659.208-.186.444-.332.708-.437.264-.105.543-.159.838-.159.35 0 .637.061.862.184.224.122.4.282.529.479.128.197.208.419.24.666.035.247.035.499 0 .754l-.041.266h-3.173zM185.935 14.866h-1.079l-.246 1.791c-.015.111-.028.22-.036.329-.009.109-.002.206.02.292s.068.155.137.208c.07.053.177.08.321.08.089 0 .182-.01.28-.026.096-.016.186-.048.27-.092l-.1.684c-.051.028-.108.05-.172.066-.065.016-.128.03-.192.037-.064.009-.125.016-.185.021-.058.006-.107.009-.146.009-.29 0-.51-.04-.657-.121-.148-.08-.251-.185-.31-.312-.058-.128-.083-.271-.075-.43.009-.158.024-.317.046-.478l.292-2.058h-.867l.092-.65h.867l.158-1.108h.75l-.156 1.108h1.08l-.092.65zM188.833 16.266c-.178 0-.362.01-.552.029-.19.02-.365.057-.527.112-.161.056-.298.133-.41.234-.111.1-.178.227-.2.383-.034.227.019.391.158.491.14.1.34.15.603.15.206 0 .386-.035.539-.104.154-.07.283-.16.389-.27.106-.112.188-.235.247-.372.058-.135.096-.27.112-.403l.042-.25h-.401zm-1.898-1.566c.24-.195.505-.34.795-.438.292-.097.577-.146.855-.146.289 0 .533.036.732.108.2.073.36.17.475.292.118.123.195.263.234.42.039.159.046.325.025.497l-.283 2.015c-.023.14-.04.267-.05.384-.012.116-.017.227-.017.333h-.667c.006-.1.012-.2.022-.3.008-.1.02-.2.037-.3h-.017c-.205.256-.429.437-.67.542-.242.105-.513.158-.812.158-.184 0-.355-.025-.513-.075-.158-.05-.293-.125-.404-.225-.111-.1-.193-.224-.246-.37-.053-.148-.065-.318-.037-.513.033-.255.119-.47.258-.641.139-.172.315-.313.529-.421.214-.108.455-.187.725-.233.27-.047.554-.071.853-.071h.55l.026-.167c.015-.1.012-.2-.013-.3-.026-.1-.07-.19-.137-.27-.067-.08-.156-.145-.268-.192-.11-.047-.246-.071-.408-.071-.144 0-.273.014-.386.042-.115.028-.217.062-.309.104-.091.042-.178.09-.258.146-.08.055-.16.108-.238.158l-.383-.466zM191.936 12.351L191.28 12.351 191.28 12.092 192.868 12.092 192.868 12.351 192.212 12.351 192.212 14.13 191.936 14.13zM193.373 12.092L193.785 12.092 194.432 13.635 194.444 13.635 195.085 12.092 195.496 12.092 195.496 14.129 195.22 14.129 195.22 12.454 195.215 12.454 194.527 14.129 194.342 14.129 193.655 12.454 193.649 12.454 193.649 14.129 193.373 14.129z"/>
    </g>
</svg>
