<svg width="386" height="68" viewBox="0 0 386 68" fill="none" xmlns="http://www.w3.org/2000/svg">
<path d="M108.532 15.699C108.48 16.6211 108.061 17.4856 107.365 18.1038C106.668 18.722 105.753 19.0437 104.817 18.9987L22.0243 15.0885C21.0888 15.0373 20.2119 14.6235 19.5848 13.9373C18.9578 13.2511 18.6314 12.3483 18.6771 11.4258L18.9951 4.14985C19.047 3.22768 19.4668 2.36319 20.1628 1.745C20.8589 1.12682 21.7747 0.805118 22.7104 0.850103L105.436 4.72731C106.372 4.77849 107.248 5.19232 107.876 5.87851C108.503 6.5647 108.829 7.46754 108.783 8.39003L108.532 15.699Z" fill="#78B042"/>
<path d="M79.1945 29.6733H11.8491C10.6752 29.6733 9.72363 30.6115 9.72363 31.7687V42.1464C9.72363 43.3036 10.6752 44.2417 11.8491 44.2417H79.1945C80.3683 44.2417 81.3199 43.3036 81.3199 42.1464V31.7687C81.3199 30.6115 80.3683 29.6733 79.1945 29.6733Z" fill="#5F6062"/>
<path d="M102.089 53.3657C102.102 53.6366 102.062 53.9074 101.969 54.1628C101.876 54.4181 101.733 54.6529 101.548 54.8536C101.363 55.0544 101.14 55.2172 100.891 55.3328C100.642 55.4483 100.372 55.5143 100.097 55.527L24.1162 57.8698C23.8415 57.8742 23.5685 57.8252 23.313 57.7255C23.0575 57.6259 22.8244 57.4776 22.6271 57.2892C22.4297 57.1007 22.2719 56.8758 22.1627 56.6272C22.0535 56.3787 21.9951 56.1113 21.9907 55.8405L21.7564 49.67C21.7429 49.399 21.7838 49.1282 21.8766 48.8729C21.9694 48.6175 22.1124 48.3828 22.2974 48.182C22.4824 47.9812 22.7058 47.8184 22.9547 47.7029C23.2036 47.5873 23.4732 47.5213 23.748 47.5086L99.7291 45.1658C100.004 45.1614 100.277 45.2105 100.532 45.3101C100.788 45.4097 101.021 45.558 101.218 45.7464C101.416 45.9349 101.573 46.1598 101.683 46.4084C101.792 46.657 101.85 46.9243 101.855 47.1951L102.089 53.3657Z" fill="#F4CF1C"/>
<path d="M91.8304 65.9046C91.8393 66.1725 91.7943 66.4395 91.698 66.6901C91.6017 66.9407 91.456 67.1701 91.2692 67.3649C91.0825 67.5597 90.8585 67.7162 90.6101 67.8251C90.3617 67.9341 90.0939 67.9936 89.8221 67.9999H17.3053C17.0335 67.9936 16.7657 67.9341 16.5173 67.8251C16.2689 67.7162 16.0449 67.5597 15.8582 67.3649C15.6714 67.1701 15.5257 66.9407 15.4294 66.6901C15.3331 66.4395 15.2881 66.1725 15.297 65.9046V61.7799C15.2835 61.2401 15.487 60.7168 15.8632 60.3243C16.2394 59.9318 16.7578 59.7018 17.3053 59.6846H89.8221C90.3696 59.7018 90.888 59.9318 91.2642 60.3243C91.6404 60.7168 91.8439 61.2401 91.8304 61.7799V65.9046Z" fill="#242F66"/>
<path d="M93.7212 24.6907C93.7212 25.5487 92.4325 26.2416 90.8593 26.2416H2.86184C1.28867 26.2251 0 25.5981 0 24.6907V21.391C0 20.533 1.28867 19.8401 2.86184 19.8401H90.8259C92.4158 19.8401 93.6877 20.533 93.6877 21.391L93.7212 24.6907Z" fill="#F47641"/>
<path d="M134.573 27.8419C135.811 27.7862 137.047 27.9845 138.204 28.424C139.36 28.8636 140.411 29.535 141.29 30.3957C142.17 31.2564 142.858 32.2877 143.312 33.4243C143.767 34.5609 143.976 35.778 143.929 36.9987C143.982 38.2328 143.781 39.4648 143.339 40.6204C142.897 41.7761 142.222 42.8315 141.355 43.7233C140.488 44.6151 139.447 45.3247 138.294 45.8095C137.142 46.2942 135.902 46.5441 134.649 46.5441C133.396 46.5441 132.156 46.2942 131.003 45.8095C129.851 45.3247 128.81 44.6151 127.943 43.7233C127.076 42.8315 126.401 41.7761 125.959 40.6204C125.516 39.4648 125.316 38.2328 125.369 36.9987C125.322 35.791 125.528 34.5867 125.973 33.4606C126.418 32.3344 127.093 31.3104 127.956 30.4519C128.819 29.5934 129.852 28.9188 130.99 28.4699C132.128 28.0209 133.348 27.8072 134.573 27.8419ZM134.573 44.1097C135.517 44.1315 136.455 43.9609 137.328 43.6084C138.201 43.2559 138.991 42.7293 139.648 42.0615C140.305 41.3937 140.814 40.5993 141.145 39.7281C141.476 38.8568 141.62 37.9276 141.569 36.9987C141.615 36.0658 141.469 35.1333 141.139 34.2578C140.809 33.3824 140.301 32.5821 139.648 31.9057C138.995 31.2293 138.209 30.6907 137.338 30.3228C136.467 29.9548 135.529 29.7651 134.582 29.7651C133.634 29.7651 132.697 29.9548 131.826 30.3228C130.955 30.6907 130.169 31.2293 129.516 31.9057C128.862 32.5821 128.355 33.3824 128.025 34.2578C127.695 35.1333 127.548 36.0658 127.595 36.9987C127.544 37.9262 127.688 38.854 128.017 39.7241C128.347 40.5942 128.855 41.3878 129.51 42.0553C130.165 42.7228 130.953 43.2498 131.824 43.6033C132.696 43.9568 133.632 44.1292 134.573 44.1097Z" fill="#5F6062"/>
<path d="M148.48 28.304H150.773V31.3563C151.552 30.2295 152.609 29.3169 153.845 28.7049C155.08 28.0929 156.454 27.8016 157.836 27.8586C159.067 27.8124 160.294 28.0171 161.441 28.4598C162.588 28.9026 163.63 29.574 164.502 30.4319C165.374 31.2898 166.057 32.3158 166.508 33.4458C166.959 34.5757 167.169 35.7853 167.124 36.9989C167.171 38.2138 166.963 39.4252 166.513 40.5571C166.063 41.689 165.38 42.7171 164.508 43.5768C163.636 44.4365 162.593 45.1093 161.445 45.5531C160.297 45.9969 159.068 46.202 157.836 46.1557C156.454 46.2127 155.08 45.9214 153.845 45.3094C152.609 44.6973 151.552 43.7848 150.773 42.6579V54.2896H148.48V28.304ZM157.92 44.1098C158.863 44.1317 159.801 43.961 160.674 43.6085C161.547 43.256 162.337 42.7294 162.994 42.0616C163.651 41.3939 164.161 40.5994 164.491 39.7282C164.822 38.857 164.966 37.9277 164.915 36.9989C164.966 36.07 164.822 35.1408 164.491 34.2695C164.161 33.3983 163.651 32.6039 162.994 31.9361C162.337 31.2684 161.547 30.7417 160.674 30.3892C159.801 30.0368 158.863 29.8661 157.92 29.8879C156.004 29.8879 154.167 30.638 152.813 31.9731C151.459 33.3082 150.698 35.119 150.698 37.0071C150.698 38.8953 151.459 40.7061 152.813 42.0412C154.167 43.3763 156.004 44.1263 157.92 44.1263V44.1098Z" fill="#5F6062"/>
<path d="M187.895 42.427C187.056 43.6434 185.912 44.6258 184.575 45.279C183.238 45.9322 181.753 46.2342 180.263 46.1557C174.874 46.1557 171.326 42.361 171.326 36.9659C171.262 35.7881 171.443 34.6099 171.858 33.5038C172.274 32.3976 172.914 31.3869 173.74 30.5338C174.566 29.6807 175.561 29.0033 176.662 28.5432C177.764 28.0831 178.949 27.8501 180.146 27.8586C181.248 27.8104 182.348 27.987 183.378 28.3772C184.407 28.7673 185.344 29.3628 186.129 30.1263C186.915 30.8898 187.532 31.8048 187.942 32.8142C188.353 33.8236 188.547 34.9056 188.514 35.9925V37.6423H173.686C173.67 38.5133 173.832 39.3785 174.163 40.1863C174.494 40.994 174.986 41.7278 175.611 42.3438C176.236 42.9597 176.98 43.4453 177.8 43.7714C178.619 44.0975 179.497 44.2575 180.38 44.2418C181.549 44.2484 182.701 43.9702 183.735 43.432C184.769 42.8937 185.651 42.1121 186.305 41.1566L187.895 42.427ZM186.221 35.5305C186.164 33.9856 185.49 32.5255 184.346 31.4685C183.202 30.4115 181.68 29.8434 180.112 29.8879C178.524 29.8866 176.989 30.455 175.794 31.4872C174.599 32.5193 173.826 33.9447 173.619 35.4975L186.221 35.5305Z" fill="#5F6062"/>
<path d="M193.551 33.1876C193.551 31.9007 193.351 29.1949 193.351 28.238H195.643C195.643 29.5084 195.643 30.9438 195.794 31.2903H195.911C196.483 30.2065 197.353 29.3035 198.422 28.6849C199.49 28.0663 200.714 27.757 201.953 27.7925C207.459 27.7925 208.647 31.4883 208.647 35.283V45.6442H206.354V35.4975C206.354 32.6762 205.551 29.9209 201.919 29.9209C198.288 29.9209 195.811 32.1977 195.811 36.9988V45.6937H193.518L193.551 33.1876Z" fill="#5F6062"/>
<path d="M224.111 32.6265C223.721 32.0418 223.185 31.5652 222.556 31.2418C221.926 30.9184 221.223 30.759 220.513 30.7787C219.291 30.7787 217.835 31.3396 217.835 32.6925C217.835 35.9923 227.726 33.303 227.726 40.3314C227.726 44.6211 223.559 46.1225 219.827 46.1225C218.501 46.2087 217.171 46.0033 215.936 45.5211C214.7 45.0388 213.588 44.2919 212.681 43.3342L215.743 40.5129C216.251 41.184 216.906 41.733 217.66 42.1187C218.413 42.5045 219.246 42.717 220.095 42.7403C221.434 42.7403 223.157 42.0968 223.157 40.6614C223.157 36.9327 213.266 39.8695 213.266 32.973C213.266 28.9473 216.932 27.1325 220.63 27.1325C221.86 27.0603 223.091 27.2718 224.224 27.75C225.357 28.2283 226.361 28.9602 227.157 29.8877L224.111 32.6265Z" fill="#5F6062"/>
<path d="M229.148 31.4552V27.6275H232.931V22.3809H237.516V27.611H242.537V31.4552H237.516V39.3581C237.516 41.1729 238.052 42.2948 240.077 42.2948C240.939 42.333 241.795 42.139 242.554 41.7339V45.5451C241.394 45.976 240.161 46.1833 238.922 46.1555C234.069 46.1555 232.931 44.0107 232.931 39.754V31.5047L229.148 31.4552Z" fill="#5F6062"/>
<path d="M257.616 43.2187H257.498C256.866 44.1729 255.991 44.9465 254.96 45.4619C253.929 45.9774 252.778 46.2166 251.624 46.1555C248.277 46.1555 244.93 44.3076 244.93 40.7274C244.93 34.8538 251.875 34.4414 256.461 34.4414H257.616V33.9464C257.616 31.7191 255.858 30.5642 253.415 30.5642C251.604 30.5642 249.86 31.2356 248.528 32.445L246.118 30.0692C247.161 29.1142 248.386 28.373 249.722 27.8887C251.058 27.4044 252.478 27.1866 253.9 27.2479C261.733 27.2479 261.733 32.8245 261.733 35.3818V45.776H257.616V43.2187ZM257.348 37.6091H256.394C253.867 37.6091 249.515 37.7906 249.515 40.3974C249.515 42.0473 251.189 42.7732 252.729 42.7732C255.858 42.7732 257.348 41.1234 257.348 38.6321V37.6091Z" fill="#5F6062"/>
<path d="M271.406 35.9759L265.063 27.6111H270.636L274.301 33.0392L278.268 27.6111H283.506L277.247 35.9759L284.611 45.6937H279.038L274.268 39.2097L269.448 45.6937H264.025L271.406 35.9759Z" fill="#5F6062"/>
<path d="M311.991 29.5743H305.932V45.6276H303.757V29.5743H297.715V27.5945H311.991V29.5743Z" fill="#F47641"/>
<path d="M329.196 38.7971C329.203 39.7442 329.079 40.6878 328.828 41.6019C328.595 42.4484 328.191 43.2398 327.639 43.9282C327.074 44.6368 326.345 45.2024 325.514 45.5781C323.454 46.3755 321.164 46.3755 319.104 45.5781C318.272 45.2029 317.544 44.6373 316.979 43.9282C316.427 43.2398 316.023 42.4484 315.79 41.6019C315.539 40.6878 315.415 39.7442 315.422 38.7971V27.5945H317.598V38.4507C317.597 39.161 317.675 39.8692 317.832 40.5625C317.97 41.2099 318.232 41.8257 318.602 42.3774C318.969 42.9066 319.463 43.3376 320.041 43.6313C320.759 43.9421 321.534 44.1026 322.317 44.1026C323.101 44.1026 323.876 43.9421 324.593 43.6313C325.171 43.337 325.665 42.9062 326.033 42.3774C326.403 41.8255 326.664 41.2098 326.803 40.5625C326.959 39.8692 327.038 39.161 327.037 38.4507V27.5945H329.213L329.196 38.7971Z" fill="#F47641"/>
<path d="M346.886 29.5743H340.844V45.6276H338.669V29.5743H332.627V27.5945H346.903L346.886 29.5743Z" fill="#F47641"/>
<path d="M358.868 46.0898C357.556 46.106 356.253 45.8648 355.036 45.3804C353.902 44.9254 352.873 44.2524 352.006 43.4005C351.148 42.5579 350.471 41.5535 350.015 40.4472C349.067 38.0095 349.067 35.3121 350.015 32.8743C350.465 31.7504 351.143 30.7287 352.006 29.8716C352.873 29.0204 353.903 28.3474 355.036 27.8917C357.505 26.9394 360.248 26.9394 362.717 27.8917C363.85 28.3474 364.88 29.0204 365.747 29.8716C366.611 30.7287 367.288 31.7504 367.738 32.8743C368.686 35.3121 368.686 38.0095 367.738 40.4472C367.288 41.5712 366.611 42.5929 365.747 43.45C364.88 44.3019 363.851 44.9749 362.717 45.4299C361.491 45.8995 360.183 46.1239 358.868 46.0898ZM358.868 44.11C359.875 44.124 360.873 43.9272 361.797 43.5325C362.669 43.1444 363.449 42.5827 364.09 41.8826C364.736 41.1917 365.241 40.3852 365.579 39.5068C366.287 37.6224 366.287 35.5507 365.579 33.6663C365.242 32.7877 364.736 31.9811 364.09 31.2904C363.449 30.5904 362.669 30.0286 361.797 29.6406C360.868 29.2535 359.869 29.0541 358.86 29.0541C357.851 29.0541 356.852 29.2535 355.923 29.6406C355.051 30.0286 354.27 30.5904 353.63 31.2904C352.984 31.9811 352.478 32.7877 352.14 33.6663C351.433 35.5507 351.433 37.6224 352.14 39.5068C352.478 40.3852 352.984 41.1917 353.63 41.8826C354.27 42.5827 355.051 43.1444 355.923 43.5325C356.852 43.9295 357.856 44.1263 358.868 44.11Z" fill="#F47641"/>
<path d="M372.86 27.5945H377.546C378.424 27.593 379.301 27.6426 380.173 27.743C380.987 27.8272 381.78 28.0505 382.516 28.403C383.199 28.7406 383.778 29.2536 384.19 29.8878C384.661 30.6933 384.888 31.6153 384.843 32.5441C384.869 33.1338 384.774 33.7227 384.564 34.2755C384.354 34.8283 384.034 35.3337 383.621 35.7614C382.707 36.6252 381.531 37.1699 380.274 37.3123L385.462 45.5616H382.801L377.78 37.4608H374.985V45.5616H372.81L372.86 27.5945ZM375.035 35.5469H376.977C377.579 35.5469 378.199 35.5469 378.851 35.5469C379.461 35.5215 380.064 35.4104 380.642 35.2169C381.158 35.0466 381.62 34.745 381.981 34.3425C382.35 33.8714 382.539 33.2875 382.516 32.6926C382.543 32.1498 382.409 31.611 382.131 31.1417C381.879 30.7548 381.527 30.4415 381.111 30.2343C380.664 30.017 380.183 29.8774 379.688 29.8218C379.161 29.7544 378.63 29.7213 378.098 29.7229H375.052L375.035 35.5469Z" fill="#F47641"/>
</svg>
