<svg xmlns="http://www.w3.org/2000/svg" xmlns:xlink="http://www.w3.org/1999/xlink" width="1440" height="1124" viewBox="0 0 1440 1124">
    <defs>
        <path id="a" d="M0 0h1440v245H0z"/>
        <path id="c" d="M0 1024h1440v115H0z"/>
    </defs>
    <g fill="none" fill-rule="evenodd">
        <path fill="#FAFAFA" d="M1440 76H0v952h1440z"/>
        <mask id="b" fill="#fff">
            <use xlink:href="#a"/>
        </mask>
        <path fill="#FAFAFA" d="M896.87 30.067C829.02 42.582 740.9 41.77 663.65 35.243c-77.251-6.528-148.04-12.687-223.382-20.914C377.557 7.453 311.615 2.934 244.057.887 148.154-2.01 41.09 1.505-25.587 21.745c-74.46 22.52-68.732 63.155 11.75 83.82 40.975 10.506 94.58 15.682 141.283 23.871 46.703 8.189 90.029 21.824 86.063 37.66-3.671 14.679-46.556 25.92-90.91 32.988-34.219 5.446-76.516 11.433-80.628 22.712-3.965 10.932 31.43 19.507 65.355 24.374 110.59 15.914 246.733 15.76 356.881-.386 39.213-5.794 75.342-13.443 116.464-17.923 108.24-11.781 227.346.077 341.9 4.403 97.372 3.67 196.506 1.777 290.793-5.562 56.691-4.404 113.673-11.125 153.474-23.678 28.787-9.039 46.703-20.51 63.445-31.828 17.918-12.052 35.102-24.22 51.697-36.425 9.986-7.34 19.68-14.833 22.324-22.674 4.699-14.253-14.981-28.313-41.564-40.326-63.298-28.545-169.775-48.592-285.211-53.691-115.436-5.099-212.807-1.528-280.658 10.987z" mask="url(#b)"/>
        <mask id="d" fill="#fff">
            <use xlink:href="#c"/>
        </mask>
        <path fill="#FAFAFA" d="M909.977 471.324c-92.497 35.025-212.624 32.755-317.935 14.486-105.311-18.27-201.813-17.682-304.52-40.708-85.491-19.242-175.386-31.89-267.483-37.62-130.738-8.108-276.691 1.73-367.587 58.376-101.507 63.025-93.699 176.75 16.017 234.586 55.859 29.404.54 43.89 64.207 66.808 63.667 22.919 122.73 61.08 117.324 105.402-5.005 41.08-63.467 72.538-123.93 92.32-46.65 15.244 24.085 32 18.479 63.566-5.406 30.594 42.845 48.73 89.094 62.352 150.759 44.537 336.354 44.105 486.512-1.082 53.457-16.215 102.709-37.62 158.768-50.16 147.555-32.973 309.926.215 466.091 12.324 132.74 10.27 267.882 10.835 396.418-9.705 77.283-12.323 154.963-31.134 209.22-66.267 39.244-25.297 63.667-57.404 86.491-89.078 24.426-33.729 47.853-67.782 70.475-101.942 13.614-20.54 26.828-41.512 30.434-63.458 6.404-39.89-20.424-79.24-56.662-112.86-86.29-79.89-231.444-135.995-388.81-150.265-157.366-14.27-290.105-22.101-382.603 12.925z" mask="url(#d)"/>
    </g>
</svg>
