<svg xmlns="http://www.w3.org/2000/svg" xmlns:xlink="http://www.w3.org/1999/xlink" width="1440" height="1129" viewBox="0 0 1440 1129">
    <defs>
        <path id="a" d="M0 0h1440v123H0z"/>
        <path id="c" d="M0 1026h1440v111H0z"/>
    </defs>
    <g fill="none" fill-rule="evenodd" transform="translate(0 -1)">
        <path fill="#FAFAFA" d="M0 37h1440v989H0z"/>
        <mask id="b" fill="#fff">
            <use xlink:href="#a"/>
        </mask>
        <path fill="#FAFAFA" d="M896.87 15.975c-67.85 6.234-155.97 5.83-233.22 2.578-77.251-3.251-148.04-6.318-223.382-10.416-62.711-3.425-128.653-5.676-196.211-6.695C148.154-.001 41.09 1.75-25.587 11.83c-74.46 11.216-68.732 31.455 11.75 41.748 40.975 5.233 94.58 7.81 141.283 11.89 46.703 4.078 90.029 10.869 86.063 18.757-3.671 7.31-46.556 12.909-90.91 16.43-34.219 2.712-76.516 5.694-80.628 11.312-3.965 5.445 31.43 9.716 65.355 12.14 110.59 7.926 246.733 7.85 356.881-.193 39.213-2.885 75.342-6.695 116.464-8.926 108.24-5.868 227.346.038 341.9 2.193 97.372 1.828 196.506.885 290.793-2.77 56.691-2.194 113.673-5.541 153.474-11.794 28.787-4.502 46.703-10.216 63.445-15.853a1958.363 1958.363 0 0 0 51.697-18.142c9.986-3.655 19.68-7.387 22.324-11.293 4.699-7.099-14.981-14.102-41.564-20.085-63.298-14.217-169.775-24.202-285.211-26.742-115.436-2.54-212.807-.761-280.658 5.472z" mask="url(#b)"/>
        <mask id="d" fill="#fff">
            <use xlink:href="#c"/>
        </mask>
        <path fill="#FAFAFA" d="M909.977 478.231c-92.497 34.977-212.624 32.71-317.935 14.466s-201.813-17.656-304.52-40.65C202.03 432.83 112.135 420.2 20.038 414.477c-130.738-8.096-276.691 1.728-367.587 58.296-101.507 62.937-93.699 176.504 16.017 234.26 55.859 29.363.54 43.828 64.207 66.715 63.667 22.886 122.73 60.994 117.324 105.255-5.005 41.022-63.467 72.437-123.93 92.192-46.65 15.222 24.085 31.954 18.479 63.477-5.406 30.55 42.845 48.661 89.094 62.265 150.759 44.475 336.354 44.044 486.512-1.08 53.457-16.193 102.709-37.569 158.768-50.092 147.555-32.925 309.926.216 466.091 12.308 132.74 10.256 267.882 10.82 396.418-9.691 77.283-12.307 154.963-31.09 209.22-66.176 39.244-25.26 63.667-57.323 86.491-88.954 24.426-33.681 47.853-67.687 70.475-101.8 13.614-20.511 26.828-41.454 30.434-63.369 6.404-39.835-20.424-79.13-56.662-112.704-86.29-79.777-231.444-135.805-388.81-150.055s-290.105-22.07-382.603 12.906z" mask="url(#d)"/>
    </g>
</svg>
