<svg xmlns="http://www.w3.org/2000/svg" xmlns:xlink="http://www.w3.org/1999/xlink" viewBox="0 0 1502.8 634.23"><defs><style>.cls-1{fill:url(#linear-gradient);}.cls-2{fill:#e5e5e5;}.cls-3{opacity:0.5;}.cls-4{fill:#0dc0dc;}</style><linearGradient id="linear-gradient" x1="777.71" y1="602.05" x2="777.71" gradientUnits="userSpaceOnUse"><stop offset="0" stop-color="#fff"/><stop offset="0.74" stop-color="#e5e5e5"/></linearGradient></defs><title>technology-bearscape</title><g id="Layer_2" data-name="Layer 2"><g id="tutor"><polygon class="cls-1" points="77.7 289 247.71 213 374.35 275 611.83 157 813.01 231 1124.7 0 1251.7 83 1351.9 58.73 1477.7 140 1477.7 601.98 77.7 602.05 77.7 289"/><path class="cls-2" d="M115,621.89l-12.4-8L95.13,605l6.51,1h.07l11.34-.75a.18.18,0,0,0,.16-.19V605l0-.12a.18.18,0,0,0-.12-.22l-4-1.14L93.24,595l-2.31-3.57,2,.75.05.09a.18.18,0,0,0,.24.06l.05,0,.1,0a.18.18,0,0,0,.09-.09l0,0a.18.18,0,0,0,.07-.24h0v0a.18.18,0,0,0-.1-.23l-.08,0-.35-.58,2.38,1.6.09,0,.08,0,12.61.86.12.08a.18.18,0,0,0,.24-.05l.17-.27a.18.18,0,0,0,0-.24l-.09-.06,0-.05a.18.18,0,0,0-.12-.06l-5.3-3.51L95,579.4l3.43,1a.18.18,0,0,0,.18.12h.2a.16.16,0,0,0,.12,0L105,580a.18.18,0,0,0,.16-.19v-.14l0-.13a.18.18,0,0,0-.14-.2l-5.19-.94a.18.18,0,0,0-.07-.06l-7.93-4.07-.48-1.6L95.83,575a.17.17,0,0,0,.14,0h0a.17.17,0,0,0,.13,0l.25-.2a.18.18,0,0,0,0-.25l-.13-.16,7,1.06a.17.17,0,0,0,.13,0,.18.18,0,0,0,.07-.12l0-.14.05-.13a.18.18,0,0,0-.1-.23l-2.15-.84-9.94-7.69-.71-2.16,3.61-.07,4,1.4a.18.18,0,0,0,.22-.11l0-.12.08-.09a.18.18,0,0,0,0-.25l-9.93-9.14L87,550.29a.17.17,0,0,0,0-.08.18.18,0,0,0-.05-.08l-1.11-1a.18.18,0,0,0-.18,0l-2.7-11a.17.17,0,0,0-.08-.11.17.17,0,0,0-.13,0l-.12,0-.12,0a.17.17,0,0,0-.2.14L80,551.83,68,565.39a.18.18,0,0,0,0,.25l.07.06v.09a.17.17,0,0,0,.2.15l4-.55.08,0a.18.18,0,0,0,.13,0l.11-.07.31,0a.18.18,0,0,0,.15-.2v0L77,562.67l-12.8,11.75a.18.18,0,0,0,0,.25l.22.24a.18.18,0,0,0,.12.06h0a.18.18,0,0,0,.23.09l10.83-4.49-2,3.76L61,582.87a.18.18,0,0,0,0,.24l.06.09v.11a.17.17,0,0,0,.18.17l1.6-.06-2.78,5a.18.18,0,0,0,.07.24l.1.05.06.1a.18.18,0,0,0,.24.06l13.69-8.22-1.4,3.89-12.2,9.81a.18.18,0,0,0,0,.25l.2.25a.18.18,0,0,0,.25,0l.2-.16.07,0a.17.17,0,0,0,.14,0l13-5.77-2.29,3.3L58.86,600a.18.18,0,0,0-.07.07l-1.36.12a.18.18,0,0,0-.17.19l0,.31a.19.19,0,0,0,.07.12.21.21,0,0,0,.14,0l11.45-.79-2.18.94a.18.18,0,0,0-.09.23l0,.11v.12a.18.18,0,0,0,.17.18l2.7.1-5,2.93-13.68,3.61a.18.18,0,0,0-.12.22l.08.3a.17.17,0,0,0,.21.12h0l1,1a3.49,3.49,0,0,0,.23.09L59,610l-7.92,6.17a.18.18,0,0,0,0,.25l.08.1.05.12a.18.18,0,0,0,.23.1L65.74,611l-.85,2.93a.18.18,0,0,0,.12.22l.09,0,.06.08a.18.18,0,0,0,.25,0l10.11-7.35-4.9,11.87a.18.18,0,0,0,.09.23l.11,0,.08.09a.18.18,0,0,0,.12.06.21.21,0,0,0,.13,0l8-7.41v14.78a2.51,2.51,0,0,0,.33.33H85a.17.17,0,0,0,.15-.08h0a.18.18,0,0,0,.18-.18v-16l11.49,11a.19.19,0,0,1,.16.14.17.17,0,0,0,.13,0l.31,0a.18.18,0,0,0,.16-.18l-.33-6,6,4a.18.18,0,0,0,.23,0l11.21,3a.18.18,0,0,0,.22-.12l0-.13.07-.11A.18.18,0,0,0,115,621.89Z"/><path class="cls-2" d="M185.3,618.56l-12.4-8-7.44-8.92,6.51,1h.07L183.4,602a.18.18,0,0,0,.16-.19v-.13l0-.12a.18.18,0,0,0-.12-.22l-4-1.14-15.88-8.5-2.31-3.57,2,.75.05.09a.18.18,0,0,0,.24.06l.05,0,.1,0a.18.18,0,0,0,.09-.09l0,0a.18.18,0,0,0,.07-.24h0v0a.18.18,0,0,0-.1-.23l-.08,0-.35-.58,2.38,1.6.09,0,.08,0,12.61.86.12.08a.18.18,0,0,0,.24-.05l.17-.27a.18.18,0,0,0,0-.24l-.09-.06,0-.05a.18.18,0,0,0-.12-.06l-5.3-3.51-8.09-10,3.43,1a.18.18,0,0,0,.18.12h.2a.16.16,0,0,0,.12,0l6.07-.49a.18.18,0,0,0,.16-.19v-.14l0-.13a.18.18,0,0,0-.14-.2l-5.19-.94a.18.18,0,0,0-.07-.06l-7.93-4.07-.48-1.6,4.45,2.37a.17.17,0,0,0,.14,0h0a.17.17,0,0,0,.13,0l.25-.2a.18.18,0,0,0,0-.25l-.13-.16,7,1.06a.17.17,0,0,0,.13,0,.18.18,0,0,0,.07-.12l0-.14.05-.13a.18.18,0,0,0-.1-.23l-2.15-.84L161.65,563l-.71-2.16,3.61-.07,4,1.4a.18.18,0,0,0,.22-.11l0-.12.08-.09a.18.18,0,0,0,0-.25l-9.93-9.14L157.36,547a.17.17,0,0,0,0-.08.18.18,0,0,0-.05-.08l-1.11-1a.18.18,0,0,0-.18,0l-2.7-11a.17.17,0,0,0-.08-.11.17.17,0,0,0-.13,0l-.12,0-.12,0a.17.17,0,0,0-.2.14l-2.24,13.66-12.06,13.56a.18.18,0,0,0,0,.25l.07.06v.09a.17.17,0,0,0,.2.15l4-.55.08,0a.18.18,0,0,0,.13,0L143,562l.31,0a.18.18,0,0,0,.15-.2v0l3.89-2.41-12.8,11.75a.18.18,0,0,0,0,.25l.22.24a.18.18,0,0,0,.12.06h0a.18.18,0,0,0,.23.09l10.83-4.49-2,3.76-12.61,8.56a.18.18,0,0,0,0,.24l.06.09V580a.17.17,0,0,0,.18.17l1.6-.06-2.78,5a.18.18,0,0,0,.07.24l.1.05.06.1a.18.18,0,0,0,.24.06l13.69-8.22-1.4,3.89-12.2,9.81a.18.18,0,0,0,0,.25l.2.25a.18.18,0,0,0,.25,0l.2-.16.07,0a.17.17,0,0,0,.14,0l13-5.77-2.29,3.3-13.24,7.67a.18.18,0,0,0-.07.07l-1.36.12a.18.18,0,0,0-.17.19l0,.31a.19.19,0,0,0,.07.12.21.21,0,0,0,.14,0l11.45-.79-2.18.94a.18.18,0,0,0-.09.23l0,.11v.12a.18.18,0,0,0,.17.18l2.7.1-5,2.93L121.26,605a.18.18,0,0,0-.12.22l.08.3a.17.17,0,0,0,.21.12h0l1,1a3.49,3.49,0,0,0,.23.09l6.68.06-7.92,6.17a.18.18,0,0,0,0,.25l.08.1.05.12a.18.18,0,0,0,.23.1l14.28-5.79-.85,2.93a.18.18,0,0,0,.12.22l.09,0,.06.08a.18.18,0,0,0,.25,0l10.11-7.35-4.9,11.87a.18.18,0,0,0,.09.23l.11,0,.08.09a.18.18,0,0,0,.12.06.21.21,0,0,0,.13,0l8-7.41V623.2a2.51,2.51,0,0,0,.33.33h5.55a.17.17,0,0,0,.15-.08h0a.18.18,0,0,0,.18-.18v-16l11.49,11a.19.19,0,0,1,.16.14.17.17,0,0,0,.13,0l.31,0a.18.18,0,0,0,.16-.18l-.33-6,6,4a.18.18,0,0,0,.23,0l11.21,3a.18.18,0,0,0,.22-.12l0-.13.07-.11A.18.18,0,0,0,185.3,618.56Z"/><path class="cls-2" d="M233.62,626.33l-12.4-8-7.44-8.92,6.51,1h.07l11.34-.75a.18.18,0,0,0,.16-.19v-.13l0-.12a.18.18,0,0,0-.12-.22l-4-1.14-15.88-8.5-2.31-3.57,2,.75.05.09a.18.18,0,0,0,.24.06l.05,0,.1,0a.18.18,0,0,0,.09-.09l0,0a.18.18,0,0,0,.07-.24h0v0a.18.18,0,0,0-.1-.23l-.08,0-.35-.58,2.38,1.6.09,0,.08,0,12.61.86.12.08a.18.18,0,0,0,.24-.05l.17-.27a.18.18,0,0,0,0-.24l-.09-.06,0-.05a.18.18,0,0,0-.12-.06l-5.3-3.51-8.09-10,3.43,1a.18.18,0,0,0,.18.12h.2a.16.16,0,0,0,.12,0l6.07-.49a.18.18,0,0,0,.16-.19v-.14l0-.13a.18.18,0,0,0-.14-.2l-5.19-.94a.18.18,0,0,0-.07-.06l-7.93-4.07-.48-1.6,4.45,2.37a.17.17,0,0,0,.14,0h0a.17.17,0,0,0,.13,0l.25-.2a.18.18,0,0,0,0-.25l-.13-.16,7,1.06a.17.17,0,0,0,.13,0,.18.18,0,0,0,.07-.12l0-.14.05-.13a.18.18,0,0,0-.1-.23l-2.15-.84L210,570.73l-.71-2.16,3.61-.07,4,1.4a.18.18,0,0,0,.22-.11l0-.12.08-.09a.18.18,0,0,0,0-.25l-9.93-9.14-1.56-5.46a.17.17,0,0,0,0-.08.18.18,0,0,0-.05-.08l-1.11-1a.18.18,0,0,0-.18,0l-2.7-11a.17.17,0,0,0-.08-.11.17.17,0,0,0-.13,0l-.12,0-.12,0a.17.17,0,0,0-.2.14l-2.24,13.66-12.06,13.56a.18.18,0,0,0,0,.25l.07.06v.09a.17.17,0,0,0,.2.15l4-.55.08,0a.18.18,0,0,0,.13,0l.11-.07.31,0a.18.18,0,0,0,.15-.2v0l3.89-2.41-12.8,11.75a.18.18,0,0,0,0,.25l.22.24a.18.18,0,0,0,.12.06h0a.18.18,0,0,0,.23.09L194.27,575l-2,3.76-12.61,8.56a.18.18,0,0,0,0,.24l.06.09v.11a.17.17,0,0,0,.18.17l1.6-.06-2.78,5a.18.18,0,0,0,.07.24l.1.05.06.1a.18.18,0,0,0,.24.06l13.69-8.22-1.4,3.89-12.2,9.81a.18.18,0,0,0,0,.25l.2.25a.18.18,0,0,0,.25,0l.2-.16.07,0a.17.17,0,0,0,.14,0l13-5.77-2.29,3.3-13.24,7.67a.18.18,0,0,0-.07.07l-1.36.12a.18.18,0,0,0-.17.19l0,.31a.19.19,0,0,0,.07.12.21.21,0,0,0,.14,0l11.45-.79-2.18.94a.18.18,0,0,0-.09.23l0,.11v.12a.18.18,0,0,0,.17.18l2.7.1-5,2.93-13.68,3.61a.18.18,0,0,0-.12.22l.08.3a.17.17,0,0,0,.21.12h0l1,1a3.49,3.49,0,0,0,.23.09l6.68.06-7.92,6.17a.18.18,0,0,0,0,.25l.08.1.05.12a.18.18,0,0,0,.23.1l14.28-5.79-.85,2.93a.18.18,0,0,0,.12.22l.09,0,.06.08a.18.18,0,0,0,.25,0l10.11-7.35-4.9,11.87a.18.18,0,0,0,.09.23l.11,0,.08.09a.18.18,0,0,0,.12.06.21.21,0,0,0,.13,0l8-7.41V631a2.51,2.51,0,0,0,.33.33h5.55a.17.17,0,0,0,.15-.08h0a.18.18,0,0,0,.18-.18v-16l11.49,11a.19.19,0,0,1,.16.14.17.17,0,0,0,.13,0l.31,0a.18.18,0,0,0,.16-.18l-.33-6,6,4a.18.18,0,0,0,.23,0l11.21,3a.18.18,0,0,0,.22-.12l0-.13.07-.11A.18.18,0,0,0,233.62,626.33Z"/><path class="cls-2" d="M355,617.59l-12.4-8-7.44-8.92,6.51,1h.07l11.34-.75a.18.18,0,0,0,.16-.19v-.13l0-.12a.18.18,0,0,0-.12-.22l-4-1.14-15.88-8.5-2.31-3.57,2,.75.05.09a.18.18,0,0,0,.24.06l.05,0,.1,0a.18.18,0,0,0,.09-.09l0,0a.18.18,0,0,0,.07-.24h0v0a.18.18,0,0,0-.1-.23l-.08,0-.35-.58,2.38,1.6.09,0,.08,0,12.61.86.12.08a.18.18,0,0,0,.24-.05l.17-.27a.18.18,0,0,0,0-.24l-.09-.06,0-.05a.18.18,0,0,0-.12-.06l-5.3-3.51-8.09-10,3.43,1a.18.18,0,0,0,.18.12h.2a.16.16,0,0,0,.12,0l6.07-.49a.18.18,0,0,0,.16-.19v-.14l0-.13a.18.18,0,0,0-.14-.2l-5.19-.94a.18.18,0,0,0-.07-.06L331.88,570l-.48-1.6,4.45,2.37a.17.17,0,0,0,.14,0h0a.17.17,0,0,0,.13,0l.25-.2a.18.18,0,0,0,0-.25l-.13-.16,7,1.06a.17.17,0,0,0,.13,0,.18.18,0,0,0,.07-.12l0-.14.05-.13a.18.18,0,0,0-.1-.23l-2.15-.84L331.33,562l-.71-2.16,3.61-.07,4,1.4a.18.18,0,0,0,.22-.11l0-.12.08-.09a.18.18,0,0,0,0-.25l-9.93-9.14L327,546a.17.17,0,0,0,0-.08.18.18,0,0,0-.05-.08l-1.11-1a.18.18,0,0,0-.18,0l-2.7-11a.17.17,0,0,0-.08-.11.17.17,0,0,0-.13,0l-.12,0-.12,0a.17.17,0,0,0-.2.14l-2.24,13.66L308,561.09a.18.18,0,0,0,0,.25l.07.06v.09a.17.17,0,0,0,.2.15l4-.55.08,0a.18.18,0,0,0,.13,0l.11-.07.31,0a.18.18,0,0,0,.15-.2v0l3.89-2.41-12.8,11.75a.18.18,0,0,0,0,.25l.22.24a.18.18,0,0,0,.12.06h0a.18.18,0,0,0,.23.09l10.83-4.49-2,3.76L301,578.57a.18.18,0,0,0,0,.24l.06.09V579a.17.17,0,0,0,.18.17l1.6-.06-2.78,5a.18.18,0,0,0,.07.24l.1.05.06.1a.18.18,0,0,0,.24.06l13.69-8.22-1.4,3.89-12.2,9.81a.18.18,0,0,0,0,.25l.2.25a.18.18,0,0,0,.25,0l.2-.16.07,0a.17.17,0,0,0,.14,0l13-5.77-2.29,3.3-13.24,7.67a.18.18,0,0,0-.07.07l-1.36.12a.18.18,0,0,0-.17.19l0,.31a.19.19,0,0,0,.07.12.21.21,0,0,0,.14,0l11.45-.79-2.18.94a.18.18,0,0,0-.09.23l0,.11v.12a.18.18,0,0,0,.17.18l2.7.1-5,2.93L290.94,604a.18.18,0,0,0-.12.22l.08.3a.17.17,0,0,0,.21.12h0l1,1a3.49,3.49,0,0,0,.23.09l6.68.06-7.92,6.17a.18.18,0,0,0,0,.25l.08.1.05.12a.18.18,0,0,0,.23.1l14.28-5.79-.85,2.93a.18.18,0,0,0,.12.22l.09,0,.06.08a.18.18,0,0,0,.25,0l10.11-7.35-4.9,11.87a.18.18,0,0,0,.09.23l.11,0,.08.09a.18.18,0,0,0,.12.06.21.21,0,0,0,.13,0l8-7.41v14.78a2.51,2.51,0,0,0,.33.33h5.55a.17.17,0,0,0,.15-.08h0a.18.18,0,0,0,.18-.18v-16l11.49,11a.19.19,0,0,1,.16.14.17.17,0,0,0,.13,0l.31,0a.18.18,0,0,0,.16-.18l-.33-6,6,4a.18.18,0,0,0,.23,0l11.21,3a.18.18,0,0,0,.22-.12l0-.13.07-.11A.18.18,0,0,0,355,617.59Z"/><path class="cls-2" d="M141,625.26l-.22-.07a.18.18,0,0,0,0-.11l-12.06-17.8,7.64,2.29a.18.18,0,0,0,.22-.12l0-.16.14-.09a.18.18,0,0,0,.05-.24l-12-18.66,5.53,1.56a.18.18,0,0,0,.13,0,.18.18,0,0,0,.08-.11l0-.15.13-.09a.18.18,0,0,0,.05-.24l-13.4-20.44a.18.18,0,0,0-.24-.05l-.21.14-.21-.14a.18.18,0,0,0-.24.05l-13.4,20.44a.18.18,0,0,0,.05.24l.13.09,0,.15a.18.18,0,0,0,.08.11.18.18,0,0,0,.13,0l5.53-1.56L97.08,609a.18.18,0,0,0,.05.24l.14.09,0,.16a.18.18,0,0,0,.22.12l7.63-2.29-12.06,17.8a.18.18,0,0,0,0,.11l-.22.07a.18.18,0,0,0-.11.22l.14.43a.18.18,0,0,0,.22.11l20.59-6.71v14.5a.18.18,0,0,0,.18.18h0v.05a.18.18,0,0,0,.18.18h5.68a.18.18,0,0,0,.18-.18V634h0a.18.18,0,0,0,.18-.18v-14.5L140.79,626a.18.18,0,0,0,.22-.11l.14-.43a.18.18,0,0,0-.11-.22Z"/><path class="cls-2" d="M268.63,609.67l-.22-.07a.18.18,0,0,0,0-.11l-12.06-17.8L264,594a.18.18,0,0,0,.22-.12l0-.16.14-.09a.18.18,0,0,0,.05-.24l-12-18.66,5.53,1.56a.18.18,0,0,0,.13,0,.18.18,0,0,0,.08-.11l0-.15.13-.09a.18.18,0,0,0,.05-.24L245,555.21a.18.18,0,0,0-.24-.05l-.21.14-.21-.14a.18.18,0,0,0-.24.05l-13.4,20.44a.18.18,0,0,0,.05.24l.13.09,0,.15a.18.18,0,0,0,.08.11.18.18,0,0,0,.13,0l5.53-1.56-12,18.66a.18.18,0,0,0,.05.24l.14.09,0,.16a.18.18,0,0,0,.22.12l7.63-2.29-12.06,17.8a.18.18,0,0,0,0,.11l-.22.07a.18.18,0,0,0-.11.22l.14.43a.18.18,0,0,0,.22.11l20.59-6.71v14.5a.18.18,0,0,0,.18.18h0v.05a.18.18,0,0,0,.18.18h5.68a.18.18,0,0,0,.18-.18v-.05h0a.18.18,0,0,0,.18-.18v-14.5l20.59,6.71a.18.18,0,0,0,.22-.11l.14-.43a.18.18,0,0,0-.11-.22Z"/><path class="cls-2" d="M301.24,617.91l-.22-.07a.18.18,0,0,0,0-.11l-12.06-17.8,7.64,2.29a.18.18,0,0,0,.22-.12l0-.16.14-.09a.18.18,0,0,0,.05-.24l-12-18.66,5.53,1.56a.18.18,0,0,0,.13,0,.18.18,0,0,0,.08-.11l0-.15.13-.09a.18.18,0,0,0,.05-.24l-13.4-20.44a.18.18,0,0,0-.24-.05l-.21.14-.21-.14a.18.18,0,0,0-.24.05l-13.4,20.44a.18.18,0,0,0,.05.24l.13.09,0,.15a.18.18,0,0,0,.08.11.18.18,0,0,0,.13,0l5.53-1.56-12,18.66a.18.18,0,0,0,.05.24l.14.09,0,.16a.18.18,0,0,0,.22.12l7.63-2.29-12.06,17.8a.18.18,0,0,0,0,.11l-.22.07a.18.18,0,0,0-.11.22l.14.43a.18.18,0,0,0,.22.11L273.91,612v14.5a.18.18,0,0,0,.18.18h0v.05a.18.18,0,0,0,.18.18H280a.18.18,0,0,0,.18-.18v-.05h0a.18.18,0,0,0,.18-.18V612L301,618.67a.18.18,0,0,0,.22-.11l.14-.43a.18.18,0,0,0-.11-.22Z"/><path class="cls-2" d="M401.9,621.89l-12.4-8L382.07,605l6.51,1h.07l11.34-.75a.18.18,0,0,0,.16-.19V605l0-.12a.18.18,0,0,0-.12-.22l-4-1.14L380.17,595l-2.31-3.57,2,.75.05.09a.18.18,0,0,0,.24.06l.05,0,.1,0a.18.18,0,0,0,.09-.09l0,0a.18.18,0,0,0,.07-.24h0v0a.18.18,0,0,0-.1-.23l-.08,0-.35-.58,2.38,1.6.09,0,.08,0,12.61.86.12.08a.18.18,0,0,0,.24-.05l.17-.27a.18.18,0,0,0,0-.24l-.09-.06,0-.05a.18.18,0,0,0-.12-.06l-5.3-3.51-8.09-10,3.43,1a.18.18,0,0,0,.18.12h.2a.16.16,0,0,0,.12,0L392,580a.18.18,0,0,0,.16-.19v-.14l0-.13a.18.18,0,0,0-.14-.2l-5.19-.94a.18.18,0,0,0-.07-.06l-7.93-4.07-.48-1.6,4.45,2.37a.17.17,0,0,0,.14,0h0a.17.17,0,0,0,.13,0l.25-.2a.18.18,0,0,0,0-.25l-.13-.16,7,1.06a.17.17,0,0,0,.13,0,.18.18,0,0,0,.07-.12l0-.14.05-.13a.18.18,0,0,0-.1-.23l-2.15-.84-9.94-7.69-.71-2.16,3.61-.07,4,1.4a.18.18,0,0,0,.22-.11l0-.12.08-.09a.18.18,0,0,0,0-.25l-9.93-9.14L374,550.29a.17.17,0,0,0,0-.08.18.18,0,0,0-.05-.08l-1.11-1a.18.18,0,0,0-.18,0l-2.7-11a.17.17,0,0,0-.08-.11.17.17,0,0,0-.13,0l-.12,0-.12,0a.17.17,0,0,0-.2.14L367,551.83l-12.06,13.56a.18.18,0,0,0,0,.25l.07.06v.09a.17.17,0,0,0,.2.15l4-.55.08,0a.18.18,0,0,0,.13,0l.11-.07.31,0a.18.18,0,0,0,.15-.2v0l3.89-2.41-12.8,11.75a.18.18,0,0,0,0,.25l.22.24a.18.18,0,0,0,.12.06h0a.18.18,0,0,0,.23.09l10.83-4.49-2,3.76-12.61,8.56a.18.18,0,0,0,0,.24l.06.09v.11a.17.17,0,0,0,.18.17l1.6-.06-2.78,5a.18.18,0,0,0,.07.24l.1.05.06.1a.18.18,0,0,0,.24.06l13.69-8.22-1.4,3.89-12.2,9.81a.18.18,0,0,0,0,.25l.2.25a.18.18,0,0,0,.25,0l.2-.16.07,0a.17.17,0,0,0,.14,0l13-5.77-2.29,3.3L345.79,600a.18.18,0,0,0-.07.07l-1.36.12a.18.18,0,0,0-.17.19l0,.31a.19.19,0,0,0,.07.12.21.21,0,0,0,.14,0l11.45-.79-2.18.94a.18.18,0,0,0-.09.23l0,.11v.12a.18.18,0,0,0,.17.18l2.7.1-5,2.93-13.68,3.61a.18.18,0,0,0-.12.22l.08.3a.17.17,0,0,0,.21.12h0l1,1a3.49,3.49,0,0,0,.23.09L346,610l-7.92,6.17a.18.18,0,0,0,0,.25l.08.1.05.12a.18.18,0,0,0,.23.1L352.67,611l-.85,2.93a.18.18,0,0,0,.12.22l.09,0,.06.08a.18.18,0,0,0,.25,0l10.11-7.35-4.9,11.87a.18.18,0,0,0,.09.23l.11,0,.08.09a.18.18,0,0,0,.12.06.21.21,0,0,0,.13,0l8-7.41v14.78a2.51,2.51,0,0,0,.33.33H372a.17.17,0,0,0,.15-.08h0a.18.18,0,0,0,.18-.18v-16l11.49,11a.19.19,0,0,1,.16.14.17.17,0,0,0,.13,0l.31,0a.18.18,0,0,0,.16-.18l-.33-6,6,4a.18.18,0,0,0,.23,0l11.21,3a.18.18,0,0,0,.22-.12l0-.13.07-.11A.18.18,0,0,0,401.9,621.89Z"/><path class="cls-2" d="M472.24,618.56l-12.4-8-7.44-8.92,6.51,1H459l11.34-.75a.18.18,0,0,0,.16-.19v-.13l0-.12a.18.18,0,0,0-.12-.22l-4-1.14-15.88-8.5-2.31-3.57,2,.75.05.09a.18.18,0,0,0,.24.06l.05,0,.1,0a.18.18,0,0,0,.09-.09l0,0a.18.18,0,0,0,.07-.24h0v0a.18.18,0,0,0-.1-.23l-.08,0-.35-.58,2.38,1.6.09,0,.08,0,12.61.86.12.08a.18.18,0,0,0,.24-.05L466,590a.18.18,0,0,0,0-.24l-.09-.06,0-.05a.18.18,0,0,0-.12-.06l-5.3-3.51-8.09-10,3.43,1a.18.18,0,0,0,.18.12h.2a.16.16,0,0,0,.12,0l6.07-.49a.18.18,0,0,0,.16-.19v-.14l0-.13a.18.18,0,0,0-.14-.2l-5.19-.94a.18.18,0,0,0-.07-.06l-7.93-4.07-.48-1.6,4.45,2.37a.17.17,0,0,0,.14,0h0a.17.17,0,0,0,.13,0l.25-.2a.18.18,0,0,0,0-.25l-.13-.16,7,1.06a.17.17,0,0,0,.13,0,.18.18,0,0,0,.07-.12l0-.14.05-.13a.18.18,0,0,0-.1-.23l-2.15-.84L448.59,563l-.71-2.16,3.61-.07,4,1.4a.18.18,0,0,0,.22-.11l0-.12.08-.09a.18.18,0,0,0,0-.25l-9.93-9.14L444.3,547a.17.17,0,0,0,0-.08.18.18,0,0,0-.05-.08l-1.11-1a.18.18,0,0,0-.18,0l-2.7-11a.17.17,0,0,0-.08-.11.17.17,0,0,0-.13,0l-.12,0-.12,0a.17.17,0,0,0-.2.14L437.3,548.5l-12.06,13.56a.18.18,0,0,0,0,.25l.07.06v.09a.17.17,0,0,0,.2.15l4-.55.08,0a.18.18,0,0,0,.13,0l.11-.07.31,0a.18.18,0,0,0,.15-.2v0l3.89-2.41-12.8,11.75a.18.18,0,0,0,0,.25l.22.24a.18.18,0,0,0,.12.06h0a.18.18,0,0,0,.23.09l10.83-4.49-2,3.76-12.61,8.56a.18.18,0,0,0,0,.24l.06.09V580a.17.17,0,0,0,.18.17l1.6-.06-2.78,5a.18.18,0,0,0,.07.24l.1.05.06.1a.18.18,0,0,0,.24.06l13.69-8.22-1.4,3.89-12.2,9.81a.18.18,0,0,0,0,.25l.2.25a.18.18,0,0,0,.25,0l.2-.16.07,0a.17.17,0,0,0,.14,0l13-5.77-2.29,3.3-13.24,7.67a.18.18,0,0,0-.07.07l-1.36.12a.18.18,0,0,0-.17.19l0,.31a.19.19,0,0,0,.07.12.21.21,0,0,0,.14,0l11.45-.79-2.18.94a.18.18,0,0,0-.09.23l0,.11v.12a.18.18,0,0,0,.17.18l2.7.1-5,2.93L408.19,605a.18.18,0,0,0-.12.22l.08.3a.17.17,0,0,0,.21.12h0l1,1a3.49,3.49,0,0,0,.23.09l6.68.06-7.92,6.17a.18.18,0,0,0,0,.25l.08.1.05.12a.18.18,0,0,0,.23.1L423,607.65l-.85,2.93a.18.18,0,0,0,.12.22l.09,0,.06.08a.18.18,0,0,0,.25,0l10.11-7.35-4.9,11.87a.18.18,0,0,0,.09.23l.11,0,.08.09a.18.18,0,0,0,.12.06.21.21,0,0,0,.13,0l8-7.41V623.2a2.51,2.51,0,0,0,.33.33h5.55a.17.17,0,0,0,.15-.08h0a.18.18,0,0,0,.18-.18v-16l11.49,11a.19.19,0,0,1,.16.14.17.17,0,0,0,.13,0l.31,0a.18.18,0,0,0,.16-.18l-.33-6,6,4a.18.18,0,0,0,.23,0l11.21,3a.18.18,0,0,0,.22-.12l0-.13.07-.11A.18.18,0,0,0,472.24,618.56Z"/><path class="cls-2" d="M520.55,626.33l-12.4-8-7.44-8.92,6.51,1h.07l11.34-.75a.18.18,0,0,0,.16-.19v-.13l0-.12a.18.18,0,0,0-.12-.22l-4-1.14-15.88-8.5-2.31-3.57,2,.75.05.09a.18.18,0,0,0,.24.06l.05,0,.1,0a.18.18,0,0,0,.09-.09l0,0a.18.18,0,0,0,.07-.24h0v0a.18.18,0,0,0-.1-.23l-.08,0-.35-.58,2.38,1.6.09,0,.08,0,12.61.86.12.08a.18.18,0,0,0,.24-.05l.17-.27a.18.18,0,0,0,0-.24l-.09-.06,0-.05a.18.18,0,0,0-.12-.06l-5.3-3.51-8.09-10,3.43,1a.18.18,0,0,0,.18.12h.2a.16.16,0,0,0,.12,0l6.07-.49a.18.18,0,0,0,.16-.19v-.14l0-.13a.18.18,0,0,0-.14-.2l-5.19-.94a.18.18,0,0,0-.07-.06l-7.93-4.07-.48-1.6,4.45,2.37a.17.17,0,0,0,.14,0h0a.17.17,0,0,0,.13,0l.25-.2a.18.18,0,0,0,0-.25l-.13-.16,7,1.06a.17.17,0,0,0,.13,0,.18.18,0,0,0,.07-.12l0-.14.05-.13a.18.18,0,0,0-.1-.23l-2.15-.84-9.94-7.69-.71-2.16,3.61-.07,4,1.4a.18.18,0,0,0,.22-.11l0-.12.08-.09a.18.18,0,0,0,0-.25l-9.93-9.14-1.56-5.46a.17.17,0,0,0,0-.08.18.18,0,0,0-.05-.08l-1.11-1a.18.18,0,0,0-.18,0l-2.7-11a.17.17,0,0,0-.08-.11.17.17,0,0,0-.13,0l-.12,0-.12,0a.17.17,0,0,0-.2.14l-2.24,13.66-12.06,13.56a.18.18,0,0,0,0,.25l.07.06v.09a.17.17,0,0,0,.2.15l4-.55.08,0a.18.18,0,0,0,.13,0l.11-.07.31,0a.18.18,0,0,0,.15-.2v0l3.89-2.41-12.8,11.75a.18.18,0,0,0,0,.25l.22.24a.18.18,0,0,0,.12.06h0a.18.18,0,0,0,.23.09L481.2,575l-2,3.76-12.61,8.56a.18.18,0,0,0,0,.24l.06.09v.11a.17.17,0,0,0,.18.17l1.6-.06-2.78,5a.18.18,0,0,0,.07.24l.1.05.06.1a.18.18,0,0,0,.24.06l13.69-8.22-1.4,3.89-12.2,9.81a.18.18,0,0,0,0,.25l.2.25a.18.18,0,0,0,.25,0l.2-.16.07,0a.17.17,0,0,0,.14,0l13-5.77-2.29,3.3-13.24,7.67a.18.18,0,0,0-.07.07l-1.36.12a.18.18,0,0,0-.17.19l0,.31a.19.19,0,0,0,.07.12.21.21,0,0,0,.14,0l11.45-.79-2.18.94a.18.18,0,0,0-.09.23l0,.11v.12a.18.18,0,0,0,.17.18l2.7.1-5,2.93-13.68,3.61a.18.18,0,0,0-.12.22l.08.3a.17.17,0,0,0,.21.12h0l1,1a3.49,3.49,0,0,0,.23.09l6.68.06-7.92,6.17a.18.18,0,0,0,0,.25l.08.1.05.12a.18.18,0,0,0,.23.1l14.28-5.79-.85,2.93a.18.18,0,0,0,.12.22l.09,0,.06.08a.18.18,0,0,0,.25,0l10.11-7.35-4.9,11.87a.18.18,0,0,0,.09.23l.11,0,.08.09a.18.18,0,0,0,.12.06.21.21,0,0,0,.13,0l8-7.41V631a2.51,2.51,0,0,0,.33.33h5.55a.17.17,0,0,0,.15-.08h0a.18.18,0,0,0,.18-.18v-16l11.49,11a.19.19,0,0,1,.16.14.17.17,0,0,0,.13,0l.31,0a.18.18,0,0,0,.16-.18l-.33-6,6,4a.18.18,0,0,0,.23,0l11.21,3a.18.18,0,0,0,.22-.12l0-.13.07-.11A.18.18,0,0,0,520.55,626.33Z"/><path class="cls-2" d="M641.92,617.59l-12.4-8-7.44-8.92,6.51,1h.07L640,601a.18.18,0,0,0,.16-.19v-.13l0-.12a.18.18,0,0,0-.12-.22l-4-1.14-15.88-8.5-2.31-3.57,2,.75.05.09a.18.18,0,0,0,.24.06l.05,0,.1,0a.18.18,0,0,0,.09-.09l0,0a.18.18,0,0,0,.07-.24h0v0a.18.18,0,0,0-.1-.23l-.08,0-.35-.58,2.38,1.6.09,0,.08,0,12.61.86.12.08a.18.18,0,0,0,.24-.05l.17-.27a.18.18,0,0,0,0-.24l-.09-.06,0-.05a.18.18,0,0,0-.12-.06l-5.3-3.51-8.09-10,3.43,1a.18.18,0,0,0,.18.12h.2a.16.16,0,0,0,.12,0l6.07-.49a.18.18,0,0,0,.16-.19v-.14l0-.13a.18.18,0,0,0-.14-.2l-5.19-.94a.18.18,0,0,0-.07-.06L618.81,570l-.48-1.6,4.45,2.37a.17.17,0,0,0,.14,0h0a.17.17,0,0,0,.13,0l.25-.2a.18.18,0,0,0,0-.25l-.13-.16,7,1.06a.17.17,0,0,0,.13,0,.18.18,0,0,0,.07-.12l0-.14.05-.13a.18.18,0,0,0-.1-.23l-2.15-.84L618.27,562l-.71-2.16,3.61-.07,4,1.4a.18.18,0,0,0,.22-.11l0-.12.08-.09a.18.18,0,0,0,0-.25l-9.93-9.14L614,546a.17.17,0,0,0,0-.08.18.18,0,0,0-.05-.08l-1.11-1a.18.18,0,0,0-.18,0l-2.7-11a.17.17,0,0,0-.08-.11.17.17,0,0,0-.13,0l-.12,0-.12,0a.17.17,0,0,0-.2.14L607,547.53l-12.06,13.56a.18.18,0,0,0,0,.25l.07.06v.09a.17.17,0,0,0,.2.15l4-.55.08,0a.18.18,0,0,0,.13,0l.11-.07.31,0a.18.18,0,0,0,.15-.2v0l3.89-2.41-12.8,11.75a.18.18,0,0,0,0,.25l.22.24a.18.18,0,0,0,.12.06h0a.18.18,0,0,0,.23.09l10.83-4.49-2,3.76-12.61,8.56a.18.18,0,0,0,0,.24l.06.09V579a.17.17,0,0,0,.18.17l1.6-.06-2.78,5a.18.18,0,0,0,.07.24l.1.05.06.1a.18.18,0,0,0,.24.06l13.69-8.22-1.4,3.89-12.2,9.81a.18.18,0,0,0,0,.25l.2.25a.18.18,0,0,0,.25,0l.2-.16.07,0a.17.17,0,0,0,.14,0l13-5.77L599,588l-13.24,7.67a.18.18,0,0,0-.07.07l-1.36.12a.18.18,0,0,0-.17.19l0,.31a.19.19,0,0,0,.07.12.21.21,0,0,0,.14,0l11.45-.79-2.18.94a.18.18,0,0,0-.09.23l0,.11v.12a.18.18,0,0,0,.17.18l2.7.1-5,2.93L577.88,604a.18.18,0,0,0-.12.22l.08.3a.17.17,0,0,0,.21.12h0l1,1a3.49,3.49,0,0,0,.23.09l6.68.06-7.92,6.17a.18.18,0,0,0,0,.25l.08.1.05.12a.18.18,0,0,0,.23.1l14.28-5.79-.85,2.93a.18.18,0,0,0,.12.22l.09,0,.06.08a.18.18,0,0,0,.25,0l10.11-7.35-4.9,11.87a.18.18,0,0,0,.09.23l.11,0,.08.09a.18.18,0,0,0,.12.06.21.21,0,0,0,.13,0l8-7.41v14.78a2.51,2.51,0,0,0,.33.33H612a.17.17,0,0,0,.15-.08h0a.18.18,0,0,0,.18-.18v-16l11.49,11a.19.19,0,0,1,.16.14.17.17,0,0,0,.13,0l.31,0a.18.18,0,0,0,.16-.18l-.33-6,6,4a.18.18,0,0,0,.23,0l11.21,3a.18.18,0,0,0,.22-.12l0-.13.07-.11A.18.18,0,0,0,641.92,617.59Z"/><path class="cls-2" d="M428,625.26l-.22-.07a.18.18,0,0,0,0-.11l-12.06-17.8,7.64,2.29a.18.18,0,0,0,.22-.12l0-.16.14-.09a.18.18,0,0,0,.05-.24l-12-18.66,5.53,1.56a.18.18,0,0,0,.13,0,.18.18,0,0,0,.08-.11l0-.15.13-.09a.18.18,0,0,0,.05-.24l-13.4-20.44a.18.18,0,0,0-.24-.05l-.21.14-.21-.14a.18.18,0,0,0-.24.05L390,591.25a.18.18,0,0,0,.05.24l.13.09,0,.15a.18.18,0,0,0,.08.11.18.18,0,0,0,.13,0L396,590.3,384,609a.18.18,0,0,0,.05.24l.14.09,0,.16a.18.18,0,0,0,.22.12l7.63-2.29L380,625.08a.18.18,0,0,0,0,.11l-.22.07a.18.18,0,0,0-.11.22l.14.43a.18.18,0,0,0,.22.11l20.59-6.71v14.5a.18.18,0,0,0,.18.18h0v.05a.18.18,0,0,0,.18.18h5.68a.18.18,0,0,0,.18-.18V634h0a.18.18,0,0,0,.18-.18v-14.5L427.72,626a.18.18,0,0,0,.22-.11l.14-.43a.18.18,0,0,0-.11-.22Z"/><path class="cls-2" d="M555.57,609.67l-.22-.07a.18.18,0,0,0,0-.11l-12.06-17.8L550.9,594a.18.18,0,0,0,.22-.12l0-.16.14-.09a.18.18,0,0,0,.05-.24l-12-18.66,5.53,1.56a.18.18,0,0,0,.13,0,.18.18,0,0,0,.08-.11l0-.15.13-.09a.18.18,0,0,0,.05-.24l-13.4-20.44a.18.18,0,0,0-.24-.05l-.21.14-.21-.14a.18.18,0,0,0-.24.05l-13.4,20.44a.18.18,0,0,0,.05.24l.13.09,0,.15a.18.18,0,0,0,.08.11.18.18,0,0,0,.13,0l5.53-1.56-12,18.66a.18.18,0,0,0,.05.24l.14.09,0,.16a.18.18,0,0,0,.22.12l7.63-2.29-12.06,17.8a.18.18,0,0,0,0,.11l-.22.07a.18.18,0,0,0-.11.22l.14.43a.18.18,0,0,0,.22.11l20.59-6.71v14.5a.18.18,0,0,0,.18.18h0v.05a.18.18,0,0,0,.18.18h5.68a.18.18,0,0,0,.18-.18v-.05h0a.18.18,0,0,0,.18-.18v-14.5l20.59,6.71a.18.18,0,0,0,.22-.11l.14-.43a.18.18,0,0,0-.11-.22Z"/><path class="cls-2" d="M588.17,617.91l-.22-.07a.18.18,0,0,0,0-.11l-12.06-17.8,7.64,2.29a.18.18,0,0,0,.22-.12l0-.16.14-.09a.18.18,0,0,0,.05-.24l-12-18.66,5.53,1.56a.18.18,0,0,0,.13,0,.18.18,0,0,0,.08-.11l0-.15.13-.09a.18.18,0,0,0,.05-.24l-13.4-20.44a.18.18,0,0,0-.24-.05l-.21.14-.21-.14a.18.18,0,0,0-.24.05l-13.4,20.44a.18.18,0,0,0,.05.24l.13.09,0,.15a.18.18,0,0,0,.08.11.18.18,0,0,0,.13,0l5.53-1.56-12,18.66a.18.18,0,0,0,.05.24l.14.09,0,.16a.18.18,0,0,0,.22.12l7.63-2.29-12.06,17.8a.18.18,0,0,0,0,.11l-.22.07a.18.18,0,0,0-.11.22l.14.43a.18.18,0,0,0,.22.11L560.85,612v14.5a.18.18,0,0,0,.18.18h0v.05a.18.18,0,0,0,.18.18h5.68a.18.18,0,0,0,.18-.18v-.05h0a.18.18,0,0,0,.18-.18V612l20.59,6.71a.18.18,0,0,0,.22-.11l.14-.43a.18.18,0,0,0-.11-.22Z"/><path class="cls-2" d="M688.84,621.89l-12.4-8L669,605l6.51,1h.07l11.34-.75a.18.18,0,0,0,.16-.19V605l0-.12a.18.18,0,0,0-.12-.22l-4-1.14L667.11,595l-2.31-3.57,2,.75.05.09a.18.18,0,0,0,.24.06l.05,0,.1,0a.18.18,0,0,0,.09-.09l0,0a.18.18,0,0,0,.07-.24h0v0a.18.18,0,0,0-.1-.23l-.08,0-.35-.58,2.38,1.6.09,0,.08,0,12.61.86.12.08a.18.18,0,0,0,.24-.05l.17-.27a.18.18,0,0,0,0-.24l-.09-.06,0-.05a.18.18,0,0,0-.12-.06l-5.3-3.51-8.09-10,3.43,1a.18.18,0,0,0,.18.12h.2a.16.16,0,0,0,.12,0l6.07-.49a.18.18,0,0,0,.16-.19v-.14l0-.13a.18.18,0,0,0-.14-.2l-5.19-.94a.18.18,0,0,0-.07-.06l-7.93-4.07-.48-1.6L669.7,575a.17.17,0,0,0,.14,0h0a.17.17,0,0,0,.13,0l.25-.2a.18.18,0,0,0,0-.25l-.13-.16,7,1.06a.17.17,0,0,0,.13,0,.18.18,0,0,0,.07-.12l0-.14.05-.13a.18.18,0,0,0-.1-.23l-2.15-.84-9.94-7.69-.71-2.16,3.61-.07,4,1.4a.18.18,0,0,0,.22-.11l0-.12.08-.09a.18.18,0,0,0,0-.25l-9.93-9.14-1.56-5.46a.17.17,0,0,0,0-.08.18.18,0,0,0-.05-.08l-1.11-1a.18.18,0,0,0-.18,0l-2.7-11a.17.17,0,0,0-.08-.11.17.17,0,0,0-.13,0l-.12,0-.12,0a.17.17,0,0,0-.2.14l-2.24,13.66-12.06,13.56a.18.18,0,0,0,0,.25l.07.06v.09a.17.17,0,0,0,.2.15l4-.55.08,0a.18.18,0,0,0,.13,0l.11-.07.31,0a.18.18,0,0,0,.15-.2v0l3.89-2.41-12.8,11.75a.18.18,0,0,0,0,.25l.22.24a.18.18,0,0,0,.12.06h0a.18.18,0,0,0,.23.09l10.83-4.49-2,3.76-12.61,8.56a.18.18,0,0,0,0,.24l.06.09v.11a.17.17,0,0,0,.18.17l1.6-.06-2.78,5a.18.18,0,0,0,.07.24l.1.05.06.1a.18.18,0,0,0,.24.06L648,580.68l-1.4,3.89-12.2,9.81a.18.18,0,0,0,0,.25l.2.25a.18.18,0,0,0,.25,0l.2-.16.07,0a.17.17,0,0,0,.14,0l13-5.77-2.29,3.3L632.72,600a.18.18,0,0,0-.07.07l-1.36.12a.18.18,0,0,0-.17.19l0,.31a.19.19,0,0,0,.07.12.21.21,0,0,0,.14,0l11.45-.79-2.18.94a.18.18,0,0,0-.09.23l0,.11v.12a.18.18,0,0,0,.17.18l2.7.1-5,2.93-13.68,3.61a.18.18,0,0,0-.12.22l.08.3a.17.17,0,0,0,.21.12h0l1,1a3.49,3.49,0,0,0,.23.09l6.68.06L625,616.2a.18.18,0,0,0,0,.25l.08.1.05.12a.18.18,0,0,0,.23.1L639.6,611l-.85,2.93a.18.18,0,0,0,.12.22l.09,0,.06.08a.18.18,0,0,0,.25,0l10.11-7.35-4.9,11.87a.18.18,0,0,0,.09.23l.11,0,.08.09a.18.18,0,0,0,.12.06.21.21,0,0,0,.13,0l8-7.41v14.78a2.51,2.51,0,0,0,.33.33h5.55a.17.17,0,0,0,.15-.08h0a.18.18,0,0,0,.18-.18v-16l11.49,11a.19.19,0,0,1,.16.14.17.17,0,0,0,.13,0l.31,0a.18.18,0,0,0,.16-.18l-.33-6,6,4a.18.18,0,0,0,.23,0l11.21,3a.18.18,0,0,0,.22-.12l0-.13.07-.11A.18.18,0,0,0,688.84,621.89Z"/><path class="cls-2" d="M759.17,618.56l-12.4-8-7.44-8.92,6.51,1h.07l11.34-.75a.18.18,0,0,0,.16-.19v-.13l0-.12a.18.18,0,0,0-.12-.22l-4-1.14-15.88-8.5-2.31-3.57,2,.75.05.09a.18.18,0,0,0,.24.06l.05,0,.1,0a.18.18,0,0,0,.09-.09l0,0a.18.18,0,0,0,.07-.24h0v0a.18.18,0,0,0-.1-.23l-.08,0-.35-.58,2.38,1.6.09,0,.08,0,12.61.86.12.08a.18.18,0,0,0,.24-.05l.17-.27a.18.18,0,0,0,0-.24l-.09-.06,0-.05a.18.18,0,0,0-.12-.06l-5.3-3.51-8.09-10,3.43,1a.18.18,0,0,0,.18.12h.2a.16.16,0,0,0,.12,0l6.07-.49a.18.18,0,0,0,.16-.19v-.14l0-.13a.18.18,0,0,0-.14-.2l-5.19-.94A.18.18,0,0,0,744,575l-7.93-4.07-.48-1.6L740,571.7a.17.17,0,0,0,.14,0h0a.17.17,0,0,0,.13,0l.25-.2a.18.18,0,0,0,0-.25l-.13-.16,7,1.06a.17.17,0,0,0,.13,0,.18.18,0,0,0,.07-.12l0-.14.05-.13a.18.18,0,0,0-.1-.23l-2.15-.84L735.52,563l-.71-2.16,3.61-.07,4,1.4a.18.18,0,0,0,.22-.11l0-.12.08-.09a.18.18,0,0,0,0-.25l-9.93-9.14L731.23,547a.17.17,0,0,0,0-.08.18.18,0,0,0-.05-.08l-1.11-1a.18.18,0,0,0-.18,0l-2.7-11a.17.17,0,0,0-.08-.11.17.17,0,0,0-.13,0l-.12,0-.12,0a.17.17,0,0,0-.2.14l-2.24,13.66-12.06,13.56a.18.18,0,0,0,0,.25l.07.06v.09a.17.17,0,0,0,.2.15l4-.55.08,0a.18.18,0,0,0,.13,0l.11-.07.31,0a.18.18,0,0,0,.15-.2v0l3.89-2.41-12.8,11.75a.18.18,0,0,0,0,.25l.22.24a.18.18,0,0,0,.12.06h0a.18.18,0,0,0,.23.09l10.83-4.49-2,3.76-12.61,8.56a.18.18,0,0,0,0,.24l.06.09V580a.17.17,0,0,0,.18.17l1.6-.06-2.78,5a.18.18,0,0,0,.07.24l.1.05.06.1a.18.18,0,0,0,.24.06l13.69-8.22-1.4,3.89-12.2,9.81a.18.18,0,0,0,0,.25l.2.25a.18.18,0,0,0,.25,0l.2-.16.07,0a.17.17,0,0,0,.14,0l13-5.77L716.3,589l-13.24,7.67a.18.18,0,0,0-.07.07l-1.36.12a.18.18,0,0,0-.17.19l0,.31a.19.19,0,0,0,.07.12.21.21,0,0,0,.14,0l11.45-.79-2.18.94a.18.18,0,0,0-.09.23l0,.11v.12a.18.18,0,0,0,.17.18l2.7.1-5,2.93L695.13,605a.18.18,0,0,0-.12.22l.08.3a.17.17,0,0,0,.21.12h0l1,1a3.49,3.49,0,0,0,.23.09l6.68.06-7.92,6.17a.18.18,0,0,0,0,.25l.08.1.05.12a.18.18,0,0,0,.23.1l14.28-5.79-.85,2.93a.18.18,0,0,0,.12.22l.09,0,.06.08a.18.18,0,0,0,.25,0l10.11-7.35-4.9,11.87a.18.18,0,0,0,.09.23l.11,0,.08.09a.18.18,0,0,0,.12.06.21.21,0,0,0,.13,0l8-7.41V623.2a2.51,2.51,0,0,0,.33.33h5.55a.17.17,0,0,0,.15-.08h0a.18.18,0,0,0,.18-.18v-16l11.49,11a.19.19,0,0,1,.16.14.17.17,0,0,0,.13,0l.31,0a.18.18,0,0,0,.16-.18l-.33-6,6,4a.18.18,0,0,0,.23,0l11.21,3a.18.18,0,0,0,.22-.12l0-.13.07-.11A.18.18,0,0,0,759.17,618.56Z"/><path class="cls-2" d="M807.49,626.33l-12.4-8-7.44-8.92,6.51,1h.07l11.34-.75a.18.18,0,0,0,.16-.19v-.13l0-.12a.18.18,0,0,0-.12-.22l-4-1.14-15.88-8.5-2.31-3.57,2,.75.05.09a.18.18,0,0,0,.24.06l.05,0,.1,0a.18.18,0,0,0,.09-.09l0,0a.18.18,0,0,0,.07-.24h0v0a.18.18,0,0,0-.1-.23l-.08,0-.35-.58,2.38,1.6.09,0,.08,0,12.61.86.12.08a.18.18,0,0,0,.24-.05l.17-.27a.18.18,0,0,0,0-.24l-.09-.06,0-.05a.18.18,0,0,0-.12-.06l-5.3-3.51-8.09-10,3.43,1a.18.18,0,0,0,.18.12h.2a.16.16,0,0,0,.12,0l6.07-.49a.18.18,0,0,0,.16-.19v-.14l0-.13a.18.18,0,0,0-.14-.2l-5.19-.94a.18.18,0,0,0-.07-.06l-7.93-4.07-.48-1.6,4.45,2.37a.17.17,0,0,0,.14,0h0a.17.17,0,0,0,.13,0l.25-.2a.18.18,0,0,0,0-.25l-.13-.16,7,1.06a.17.17,0,0,0,.13,0,.18.18,0,0,0,.07-.12l0-.14.05-.13a.18.18,0,0,0-.1-.23l-2.15-.84-9.94-7.69-.71-2.16,3.61-.07,4,1.4a.18.18,0,0,0,.22-.11l0-.12.08-.09a.18.18,0,0,0,0-.25l-9.93-9.14-1.56-5.46a.17.17,0,0,0,0-.08.18.18,0,0,0-.05-.08l-1.11-1a.18.18,0,0,0-.18,0l-2.7-11a.17.17,0,0,0-.08-.11.17.17,0,0,0-.13,0l-.12,0-.12,0a.17.17,0,0,0-.2.14l-2.24,13.66-12.06,13.56a.18.18,0,0,0,0,.25l.07.06v.09a.17.17,0,0,0,.2.15l4-.55.08,0a.18.18,0,0,0,.13,0l.11-.07.31,0a.18.18,0,0,0,.15-.2v0l3.89-2.41-12.8,11.75a.18.18,0,0,0,0,.25l.22.24a.18.18,0,0,0,.12.06h0a.18.18,0,0,0,.23.09L768.13,575l-2,3.76-12.61,8.56a.18.18,0,0,0,0,.24l.06.09v.11a.17.17,0,0,0,.18.17l1.6-.06-2.78,5a.18.18,0,0,0,.07.24l.1.05.06.1a.18.18,0,0,0,.24.06l13.69-8.22-1.4,3.89-12.2,9.81a.18.18,0,0,0,0,.25l.2.25a.18.18,0,0,0,.25,0l.2-.16.07,0a.17.17,0,0,0,.14,0l13-5.77-2.29,3.3-13.24,7.67a.18.18,0,0,0-.07.07l-1.36.12a.18.18,0,0,0-.17.19l0,.31a.19.19,0,0,0,.07.12.21.21,0,0,0,.14,0l11.45-.79-2.18.94a.18.18,0,0,0-.09.23l0,.11v.12a.18.18,0,0,0,.17.18l2.7.1-5,2.93-13.68,3.61a.18.18,0,0,0-.12.22l.08.3a.17.17,0,0,0,.21.12h0l1,1a3.49,3.49,0,0,0,.23.09l6.68.06-7.92,6.17a.18.18,0,0,0,0,.25l.08.1.05.12a.18.18,0,0,0,.23.1l14.28-5.79-.85,2.93a.18.18,0,0,0,.12.22l.09,0,.06.08a.18.18,0,0,0,.25,0L768,611.36l-4.9,11.87a.18.18,0,0,0,.09.23l.11,0,.08.09a.18.18,0,0,0,.12.06.21.21,0,0,0,.13,0l8-7.41V631a2.51,2.51,0,0,0,.33.33h5.55a.17.17,0,0,0,.15-.08h0a.18.18,0,0,0,.18-.18v-16l11.49,11a.19.19,0,0,1,.16.14.17.17,0,0,0,.13,0l.31,0a.18.18,0,0,0,.16-.18l-.33-6,6,4a.18.18,0,0,0,.23,0l11.21,3a.18.18,0,0,0,.22-.12l0-.13.07-.11A.18.18,0,0,0,807.49,626.33Z"/><path class="cls-2" d="M928.85,617.59l-12.4-8L909,600.7l6.51,1h.07l11.34-.75a.18.18,0,0,0,.16-.19v-.13l0-.12a.18.18,0,0,0-.12-.22l-4-1.14-15.88-8.5-2.31-3.57,2,.75.05.09a.18.18,0,0,0,.24.06l.05,0,.1,0a.18.18,0,0,0,.09-.09l0,0a.18.18,0,0,0,.07-.24h0v0a.18.18,0,0,0-.1-.23l-.08,0-.35-.58,2.38,1.6.09,0,.08,0,12.61.86.12.08a.18.18,0,0,0,.24-.05l.17-.27a.18.18,0,0,0,0-.24l-.09-.06,0-.05a.18.18,0,0,0-.12-.06l-5.3-3.51-8.09-10,3.43,1a.18.18,0,0,0,.18.12h.2a.16.16,0,0,0,.12,0l6.07-.49a.18.18,0,0,0,.16-.19v-.14l0-.13a.18.18,0,0,0-.14-.2l-5.19-.94a.18.18,0,0,0-.07-.06L905.75,570l-.48-1.6,4.45,2.37a.17.17,0,0,0,.14,0h0a.17.17,0,0,0,.13,0l.25-.2a.18.18,0,0,0,0-.25l-.13-.16,7,1.06a.17.17,0,0,0,.13,0,.18.18,0,0,0,.07-.12l0-.14.05-.13a.18.18,0,0,0-.1-.23l-2.15-.84L905.2,562l-.71-2.16,3.61-.07,4,1.4a.18.18,0,0,0,.22-.11l0-.12.08-.09a.18.18,0,0,0,0-.25l-9.93-9.14L900.91,546a.17.17,0,0,0,0-.08.18.18,0,0,0-.05-.08l-1.11-1a.18.18,0,0,0-.18,0l-2.7-11a.17.17,0,0,0-.08-.11.17.17,0,0,0-.13,0l-.12,0-.12,0a.17.17,0,0,0-.2.14l-2.24,13.66-12.06,13.56a.18.18,0,0,0,0,.25l.07.06v.09a.17.17,0,0,0,.2.15l4-.55.08,0a.18.18,0,0,0,.13,0l.11-.07.31,0a.18.18,0,0,0,.15-.2v0l3.89-2.41-12.8,11.75a.18.18,0,0,0,0,.25l.22.24a.18.18,0,0,0,.12.06h0a.18.18,0,0,0,.23.09l10.83-4.49-2,3.76-12.61,8.56a.18.18,0,0,0,0,.24l.06.09V579a.17.17,0,0,0,.18.17l1.6-.06-2.78,5a.18.18,0,0,0,.07.24l.1.05.06.1a.18.18,0,0,0,.24.06L888,576.38l-1.4,3.89-12.2,9.81a.18.18,0,0,0,0,.25l.2.25a.18.18,0,0,0,.25,0l.2-.16.07,0a.17.17,0,0,0,.14,0l13-5.77L886,588l-13.24,7.67a.18.18,0,0,0-.07.07l-1.36.12a.18.18,0,0,0-.17.19l0,.31a.19.19,0,0,0,.07.12.21.21,0,0,0,.14,0l11.45-.79-2.18.94a.18.18,0,0,0-.09.23l0,.11v.12a.18.18,0,0,0,.17.18l2.7.1-5,2.93L864.81,604a.18.18,0,0,0-.12.22l.08.3a.17.17,0,0,0,.21.12h0l1,1a3.49,3.49,0,0,0,.23.09l6.68.06L865,611.9a.18.18,0,0,0,0,.25l.08.1.05.12a.18.18,0,0,0,.23.1l14.28-5.79-.85,2.93a.18.18,0,0,0,.12.22l.09,0,.06.08a.18.18,0,0,0,.25,0l10.11-7.35-4.9,11.87a.18.18,0,0,0,.09.23l.11,0,.08.09a.18.18,0,0,0,.12.06.21.21,0,0,0,.13,0l8-7.41v14.78a2.51,2.51,0,0,0,.33.33h5.55a.17.17,0,0,0,.15-.08h0a.18.18,0,0,0,.18-.18v-16l11.49,11a.19.19,0,0,1,.16.14.17.17,0,0,0,.13,0l.31,0a.18.18,0,0,0,.16-.18l-.33-6,6,4a.18.18,0,0,0,.23,0l11.21,3a.18.18,0,0,0,.22-.12l0-.13.07-.11A.18.18,0,0,0,928.85,617.59Z"/><path class="cls-2" d="M714.9,625.26l-.22-.07a.18.18,0,0,0,0-.11l-12.06-17.8,7.64,2.29a.18.18,0,0,0,.22-.12l0-.16.14-.09a.18.18,0,0,0,.05-.24l-12-18.66,5.53,1.56a.18.18,0,0,0,.13,0,.18.18,0,0,0,.08-.11l0-.15.13-.09a.18.18,0,0,0,.05-.24l-13.4-20.44a.18.18,0,0,0-.24-.05l-.21.14-.21-.14a.18.18,0,0,0-.24.05L677,591.25a.18.18,0,0,0,.05.24l.13.09,0,.15a.18.18,0,0,0,.08.11.18.18,0,0,0,.13,0l5.53-1.56-12,18.66a.18.18,0,0,0,.05.24l.14.09,0,.16a.18.18,0,0,0,.22.12l7.63-2.29L667,625.08a.18.18,0,0,0,0,.11l-.22.07a.18.18,0,0,0-.11.22l.14.43a.18.18,0,0,0,.22.11l20.59-6.71v14.5a.18.18,0,0,0,.18.18h0v.05a.18.18,0,0,0,.18.18h5.68a.18.18,0,0,0,.18-.18V634h0a.18.18,0,0,0,.18-.18v-14.5L714.65,626a.18.18,0,0,0,.22-.11l.14-.43a.18.18,0,0,0-.11-.22Z"/><path class="cls-2" d="M842.5,609.67l-.22-.07a.18.18,0,0,0,0-.11l-12.06-17.8,7.64,2.29a.18.18,0,0,0,.22-.12l0-.16.14-.09a.18.18,0,0,0,.05-.24l-12-18.66,5.53,1.56a.18.18,0,0,0,.13,0,.18.18,0,0,0,.08-.11l0-.15.13-.09a.18.18,0,0,0,.05-.24l-13.4-20.44a.18.18,0,0,0-.24-.05l-.21.14-.21-.14a.18.18,0,0,0-.24.05l-13.4,20.44a.18.18,0,0,0,.05.24l.13.09,0,.15a.18.18,0,0,0,.08.11.18.18,0,0,0,.13,0l5.53-1.56-12,18.66a.18.18,0,0,0,.05.24l.14.09,0,.16a.18.18,0,0,0,.22.12l7.63-2.29-12.06,17.8a.18.18,0,0,0,0,.11l-.22.07a.18.18,0,0,0-.11.22l.14.43a.18.18,0,0,0,.22.11l20.59-6.71v14.5a.18.18,0,0,0,.18.18h0v.05a.18.18,0,0,0,.18.18h5.68a.18.18,0,0,0,.18-.18v-.05h0a.18.18,0,0,0,.18-.18v-14.5l20.59,6.71a.18.18,0,0,0,.22-.11l.14-.43a.18.18,0,0,0-.11-.22Z"/><path class="cls-2" d="M875.11,617.91l-.22-.07a.18.18,0,0,0,0-.11l-12.06-17.8,7.64,2.29a.18.18,0,0,0,.22-.12l0-.16.14-.09a.18.18,0,0,0,.05-.24l-12-18.66,5.53,1.56a.18.18,0,0,0,.13,0,.18.18,0,0,0,.08-.11l0-.15.13-.09a.18.18,0,0,0,.05-.24l-13.4-20.44a.18.18,0,0,0-.24-.05l-.21.14-.21-.14a.18.18,0,0,0-.24.05l-13.4,20.44a.18.18,0,0,0,.05.24l.13.09,0,.15a.18.18,0,0,0,.08.11.18.18,0,0,0,.13,0l5.53-1.56-12,18.66a.18.18,0,0,0,.05.24l.14.09,0,.16a.18.18,0,0,0,.22.12l7.63-2.29-12.06,17.8a.18.18,0,0,0,0,.11l-.22.07a.18.18,0,0,0-.11.22l.14.43a.18.18,0,0,0,.22.11L847.78,612v14.5a.18.18,0,0,0,.18.18h0v.05a.18.18,0,0,0,.18.18h5.68a.18.18,0,0,0,.18-.18v-.05h0a.18.18,0,0,0,.18-.18V612l20.59,6.71a.18.18,0,0,0,.22-.11l.14-.43a.18.18,0,0,0-.11-.22Z"/><path class="cls-2" d="M975.77,621.89l-12.4-8L955.94,605l6.51,1h.07l11.34-.75a.18.18,0,0,0,.16-.19V605l0-.12a.18.18,0,0,0-.12-.22l-4-1.14L954,595l-2.31-3.57,2,.75.05.09a.18.18,0,0,0,.24.06l.05,0,.1,0a.18.18,0,0,0,.09-.09l0,0a.18.18,0,0,0,.07-.24h0v0a.18.18,0,0,0-.1-.23l-.08,0-.35-.58,2.38,1.6.09,0,.08,0,12.61.86.12.08a.18.18,0,0,0,.24-.05l.17-.27a.18.18,0,0,0,0-.24l-.09-.06,0-.05a.18.18,0,0,0-.12-.06l-5.3-3.51-8.09-10,3.43,1a.18.18,0,0,0,.18.12h.2a.16.16,0,0,0,.12,0l6.07-.49a.18.18,0,0,0,.16-.19v-.14l0-.13a.18.18,0,0,0-.14-.2l-5.19-.94a.18.18,0,0,0-.07-.06l-7.93-4.07-.48-1.6,4.45,2.37a.17.17,0,0,0,.14,0h0a.17.17,0,0,0,.13,0l.25-.2a.18.18,0,0,0,0-.25l-.13-.16,7,1.06a.17.17,0,0,0,.13,0,.18.18,0,0,0,.07-.12l0-.14.05-.13a.18.18,0,0,0-.1-.23l-2.15-.84-9.94-7.69-.71-2.16,3.61-.07,4,1.4a.18.18,0,0,0,.22-.11l0-.12.08-.09a.18.18,0,0,0,0-.25l-9.93-9.14-1.56-5.46a.17.17,0,0,0,0-.08.18.18,0,0,0-.05-.08l-1.11-1a.18.18,0,0,0-.18,0l-2.7-11a.17.17,0,0,0-.08-.11.17.17,0,0,0-.13,0l-.12,0-.12,0a.17.17,0,0,0-.2.14l-2.24,13.66-12.06,13.56a.18.18,0,0,0,0,.25l.07.06v.09a.17.17,0,0,0,.2.15l4-.55.08,0a.18.18,0,0,0,.13,0l.11-.07.31,0a.18.18,0,0,0,.15-.2v0l3.89-2.41L925,574.41a.18.18,0,0,0,0,.25l.22.24a.18.18,0,0,0,.12.06h0a.18.18,0,0,0,.23.09l10.83-4.49-2,3.76-12.61,8.56a.18.18,0,0,0,0,.24l.06.09v.11a.17.17,0,0,0,.18.17l1.6-.06-2.78,5a.18.18,0,0,0,.07.24l.1.05.06.1a.18.18,0,0,0,.24.06L935,580.68l-1.4,3.89-12.2,9.81a.18.18,0,0,0,0,.25l.2.25a.18.18,0,0,0,.25,0l.2-.16.07,0a.17.17,0,0,0,.14,0l13-5.77-2.29,3.3L919.66,600a.18.18,0,0,0-.07.07l-1.36.12a.18.18,0,0,0-.17.19l0,.31a.19.19,0,0,0,.07.12.21.21,0,0,0,.14,0l11.45-.79-2.18.94a.18.18,0,0,0-.09.23l0,.11v.12a.18.18,0,0,0,.17.18l2.7.1-5,2.93-13.68,3.61a.18.18,0,0,0-.12.22l.08.3a.17.17,0,0,0,.21.12h0l1,1a3.49,3.49,0,0,0,.23.09l6.68.06-7.92,6.17a.18.18,0,0,0,0,.25l.08.1.05.12a.18.18,0,0,0,.23.1L926.54,611l-.85,2.93a.18.18,0,0,0,.12.22l.09,0,.06.08a.18.18,0,0,0,.25,0l10.11-7.35-4.9,11.87a.18.18,0,0,0,.09.23l.11,0,.08.09a.18.18,0,0,0,.12.06.21.21,0,0,0,.13,0l8-7.41v14.78a2.51,2.51,0,0,0,.33.33h5.55a.17.17,0,0,0,.15-.08h0a.18.18,0,0,0,.18-.18v-16l11.49,11a.19.19,0,0,1,.16.14.17.17,0,0,0,.13,0l.31,0a.18.18,0,0,0,.16-.18l-.33-6,6,4a.18.18,0,0,0,.23,0l11.21,3a.18.18,0,0,0,.22-.12l0-.13.07-.11A.18.18,0,0,0,975.77,621.89Z"/><path class="cls-2" d="M1046.1,618.56l-12.4-8-7.44-8.92,6.51,1h.07l11.34-.75a.18.18,0,0,0,.16-.19v-.13l0-.12a.18.18,0,0,0-.12-.22l-4-1.14-15.88-8.5-2.31-3.57,2,.75.05.09a.18.18,0,0,0,.24.06l.05,0,.1,0a.18.18,0,0,0,.09-.09l0,0a.18.18,0,0,0,.07-.24h0v0a.18.18,0,0,0-.1-.23l-.08,0-.35-.58,2.38,1.6.09,0,.08,0,12.61.86.12.08a.18.18,0,0,0,.24-.05l.17-.27a.18.18,0,0,0,0-.24l-.09-.06,0-.05a.18.18,0,0,0-.12-.06l-5.3-3.51-8.09-10,3.43,1a.18.18,0,0,0,.18.12h.2a.16.16,0,0,0,.12,0l6.07-.49a.18.18,0,0,0,.16-.19v-.14l0-.13a.18.18,0,0,0-.14-.2l-5.19-.94a.18.18,0,0,0-.07-.06l-7.93-4.07-.48-1.6,4.45,2.37a.17.17,0,0,0,.14,0h0a.17.17,0,0,0,.13,0l.25-.2a.18.18,0,0,0,0-.25l-.13-.16,7,1.06a.17.17,0,0,0,.13,0,.18.18,0,0,0,.07-.12l0-.14.05-.13a.18.18,0,0,0-.1-.23l-2.15-.84-9.94-7.69-.71-2.16,3.61-.07,4,1.4a.18.18,0,0,0,.22-.11l0-.12.08-.09a.18.18,0,0,0,0-.25l-9.93-9.14-1.56-5.46a.17.17,0,0,0,0-.08.18.18,0,0,0-.05-.08l-1.11-1a.18.18,0,0,0-.18,0l-2.7-11a.17.17,0,0,0-.08-.11.17.17,0,0,0-.13,0l-.12,0-.12,0a.17.17,0,0,0-.2.14l-2.24,13.66-12.06,13.56a.18.18,0,0,0,0,.25l.07.06v.09a.17.17,0,0,0,.2.15l4-.55.08,0a.18.18,0,0,0,.13,0l.11-.07.31,0a.18.18,0,0,0,.15-.2v0l3.89-2.41-12.8,11.75a.18.18,0,0,0,0,.25l.22.24a.18.18,0,0,0,.12.06h0a.18.18,0,0,0,.23.09l10.83-4.49-2,3.76-12.61,8.56a.18.18,0,0,0,0,.24l.06.09V580a.17.17,0,0,0,.18.17l1.6-.06-2.78,5a.18.18,0,0,0,.07.24l.1.05.06.1a.18.18,0,0,0,.24.06l13.69-8.22-1.4,3.89-12.2,9.81a.18.18,0,0,0,0,.25l.2.25a.18.18,0,0,0,.25,0l.2-.16.07,0a.17.17,0,0,0,.14,0l13-5.77-2.29,3.3L990,596.66a.18.18,0,0,0-.07.07l-1.36.12a.18.18,0,0,0-.17.19l0,.31a.19.19,0,0,0,.07.12.21.21,0,0,0,.14,0l11.45-.79-2.18.94a.18.18,0,0,0-.09.23l0,.11v.12a.18.18,0,0,0,.17.18l2.7.1-5,2.93L982.06,605a.18.18,0,0,0-.12.22l.08.3a.17.17,0,0,0,.21.12h0l1,1a3.49,3.49,0,0,0,.23.09l6.68.06-7.92,6.17a.18.18,0,0,0,0,.25l.08.1.05.12a.18.18,0,0,0,.23.1l14.28-5.79-.85,2.93a.18.18,0,0,0,.12.22l.09,0,.06.08a.18.18,0,0,0,.25,0l10.11-7.35-4.9,11.87a.18.18,0,0,0,.09.23l.11,0,.08.09a.18.18,0,0,0,.12.06.21.21,0,0,0,.13,0l8-7.41V623.2a2.51,2.51,0,0,0,.33.33h5.55a.17.17,0,0,0,.15-.08h0a.18.18,0,0,0,.18-.18v-16l11.49,11a.19.19,0,0,1,.16.14.17.17,0,0,0,.13,0l.31,0a.18.18,0,0,0,.16-.18l-.33-6,6,4a.18.18,0,0,0,.23,0l11.21,3a.18.18,0,0,0,.22-.12l0-.13.07-.11A.18.18,0,0,0,1046.1,618.56Z"/><path class="cls-2" d="M1094.42,626.33l-12.4-8-7.44-8.92,6.51,1h.07l11.34-.75a.18.18,0,0,0,.16-.19v-.13l0-.12a.18.18,0,0,0-.12-.22l-4-1.14-15.88-8.5-2.31-3.57,2,.75.05.09a.18.18,0,0,0,.24.06l.05,0,.1,0a.18.18,0,0,0,.09-.09l0,0a.18.18,0,0,0,.07-.24h0v0a.18.18,0,0,0-.1-.23l-.08,0-.35-.58,2.38,1.6.09,0,.08,0,12.61.86.12.08a.18.18,0,0,0,.24-.05l.17-.27a.18.18,0,0,0,0-.24l-.09-.06,0-.05a.18.18,0,0,0-.12-.06l-5.3-3.51-8.09-10,3.43,1a.18.18,0,0,0,.18.12h.2a.16.16,0,0,0,.12,0l6.07-.49a.18.18,0,0,0,.16-.19v-.14l0-.13a.18.18,0,0,0-.14-.2l-5.19-.94a.18.18,0,0,0-.07-.06l-7.93-4.07-.48-1.6,4.45,2.37a.17.17,0,0,0,.14,0h0a.17.17,0,0,0,.13,0l.25-.2a.18.18,0,0,0,0-.25l-.13-.16,7,1.06a.17.17,0,0,0,.13,0,.18.18,0,0,0,.07-.12l0-.14.05-.13a.18.18,0,0,0-.1-.23l-2.15-.84-9.94-7.69-.71-2.16,3.61-.07,4,1.4a.18.18,0,0,0,.22-.11l0-.12.08-.09a.18.18,0,0,0,0-.25l-9.93-9.14-1.56-5.46a.17.17,0,0,0,0-.08.18.18,0,0,0-.05-.08l-1.11-1a.18.18,0,0,0-.18,0l-2.7-11a.17.17,0,0,0-.08-.11.17.17,0,0,0-.13,0l-.12,0-.12,0a.17.17,0,0,0-.2.14l-2.24,13.66-12.06,13.56a.18.18,0,0,0,0,.25l.07.06v.09a.17.17,0,0,0,.2.15l4-.55.08,0a.18.18,0,0,0,.13,0l.11-.07.31,0a.18.18,0,0,0,.15-.2v0l3.89-2.41-12.8,11.75a.18.18,0,0,0,0,.25l.22.24a.18.18,0,0,0,.12.06h0a.18.18,0,0,0,.23.09l10.83-4.49-2,3.76-12.61,8.56a.18.18,0,0,0,0,.24l.06.09v.11a.17.17,0,0,0,.18.17l1.6-.06-2.78,5a.18.18,0,0,0,.07.24l.1.05.06.1a.18.18,0,0,0,.24.06l13.69-8.22-1.4,3.89-12.2,9.81a.18.18,0,0,0,0,.25l.2.25a.18.18,0,0,0,.25,0l.2-.16.07,0a.17.17,0,0,0,.14,0l13-5.77-2.29,3.3-13.24,7.67a.18.18,0,0,0-.07.07l-1.36.12a.18.18,0,0,0-.17.19l0,.31a.19.19,0,0,0,.07.12.21.21,0,0,0,.14,0l11.45-.79-2.18.94a.18.18,0,0,0-.09.23l0,.11v.12a.18.18,0,0,0,.17.18l2.7.1-5,2.93-13.68,3.61a.18.18,0,0,0-.12.22l.08.3a.17.17,0,0,0,.21.12h0l1,1a3.49,3.49,0,0,0,.23.09l6.68.06-7.92,6.17a.18.18,0,0,0,0,.25l.08.1.05.12a.18.18,0,0,0,.23.1l14.28-5.79-.85,2.93a.18.18,0,0,0,.12.22l.09,0,.06.08a.18.18,0,0,0,.25,0l10.11-7.35-4.9,11.87a.18.18,0,0,0,.09.23l.11,0,.08.09a.18.18,0,0,0,.12.06.21.21,0,0,0,.13,0l8-7.41V631a2.51,2.51,0,0,0,.33.33h5.55a.17.17,0,0,0,.15-.08h0a.18.18,0,0,0,.18-.18v-16l11.49,11a.19.19,0,0,1,.16.14.17.17,0,0,0,.13,0l.31,0a.18.18,0,0,0,.16-.18l-.33-6,6,4a.18.18,0,0,0,.23,0l11.21,3a.18.18,0,0,0,.22-.12l0-.13.07-.11A.18.18,0,0,0,1094.42,626.33Z"/><path class="cls-2" d="M1215.78,617.59l-12.4-8L1196,600.7l6.51,1h.07l11.34-.75a.18.18,0,0,0,.16-.19v-.13l0-.12a.18.18,0,0,0-.12-.22l-4-1.14-15.88-8.5-2.31-3.57,2,.75.05.09a.18.18,0,0,0,.24.06l.05,0,.1,0a.18.18,0,0,0,.09-.09l0,0a.18.18,0,0,0,.07-.24h0v0a.18.18,0,0,0-.1-.23l-.08,0-.35-.58,2.38,1.6.09,0,.08,0,12.61.86.12.08a.18.18,0,0,0,.24-.05l.17-.27a.18.18,0,0,0,0-.24l-.09-.06,0-.05a.18.18,0,0,0-.12-.06l-5.3-3.51-8.09-10,3.43,1a.18.18,0,0,0,.18.12h.2a.16.16,0,0,0,.12,0l6.07-.49a.18.18,0,0,0,.16-.19v-.14l0-.13a.18.18,0,0,0-.14-.2l-5.19-.94a.18.18,0,0,0-.07-.06l-7.93-4.07-.48-1.6,4.45,2.37a.17.17,0,0,0,.14,0h0a.17.17,0,0,0,.13,0l.25-.2a.18.18,0,0,0,0-.25l-.13-.16,7,1.06a.17.17,0,0,0,.13,0,.18.18,0,0,0,.07-.12l0-.14.05-.13a.18.18,0,0,0-.1-.23l-2.15-.84-9.94-7.69-.71-2.16,3.61-.07,4,1.4a.18.18,0,0,0,.22-.11l0-.12.08-.09a.18.18,0,0,0,0-.25l-9.93-9.14-1.56-5.46a.17.17,0,0,0,0-.08.18.18,0,0,0-.05-.08l-1.11-1a.18.18,0,0,0-.18,0l-2.7-11a.17.17,0,0,0-.08-.11.17.17,0,0,0-.13,0l-.12,0-.12,0a.17.17,0,0,0-.2.14l-2.24,13.66-12.06,13.56a.18.18,0,0,0,0,.25l.07.06v.09a.17.17,0,0,0,.2.15l4-.55.08,0a.18.18,0,0,0,.13,0l.11-.07.31,0a.18.18,0,0,0,.15-.2v0l3.89-2.41L1165,570.11a.18.18,0,0,0,0,.25l.22.24a.18.18,0,0,0,.12.06h0a.18.18,0,0,0,.23.09l10.83-4.49-2,3.76-12.61,8.56a.18.18,0,0,0,0,.24l.06.09V579a.17.17,0,0,0,.18.17l1.6-.06-2.78,5a.18.18,0,0,0,.07.24l.1.05.06.1a.18.18,0,0,0,.24.06l13.69-8.22-1.4,3.89-12.2,9.81a.18.18,0,0,0,0,.25l.2.25a.18.18,0,0,0,.25,0l.2-.16.07,0a.17.17,0,0,0,.14,0l13-5.77-2.29,3.3-13.24,7.67a.18.18,0,0,0-.07.07l-1.36.12a.18.18,0,0,0-.17.19l0,.31a.19.19,0,0,0,.07.12.21.21,0,0,0,.14,0l11.45-.79-2.18.94a.18.18,0,0,0-.09.23l0,.11v.12a.18.18,0,0,0,.17.18l2.7.1-5,2.93L1151.74,604a.18.18,0,0,0-.12.22l.08.3a.17.17,0,0,0,.21.12h0l1,1a3.49,3.49,0,0,0,.23.09l6.68.06-7.92,6.17a.18.18,0,0,0,0,.25l.08.1.05.12a.18.18,0,0,0,.23.1l14.28-5.79-.85,2.93a.18.18,0,0,0,.12.22l.09,0,.06.08a.18.18,0,0,0,.25,0l10.11-7.35-4.9,11.87a.18.18,0,0,0,.09.23l.11,0,.08.09a.18.18,0,0,0,.12.06.21.21,0,0,0,.13,0l8-7.41v14.78a2.51,2.51,0,0,0,.33.33h5.55a.17.17,0,0,0,.15-.08h0a.18.18,0,0,0,.18-.18v-16l11.49,11a.19.19,0,0,1,.16.14.17.17,0,0,0,.13,0l.31,0a.18.18,0,0,0,.16-.18l-.33-6,6,4a.18.18,0,0,0,.23,0l11.21,3a.18.18,0,0,0,.22-.12l0-.13.07-.11A.18.18,0,0,0,1215.78,617.59Z"/><path class="cls-2" d="M1001.84,625.26l-.22-.07a.18.18,0,0,0,0-.11l-12.06-17.8,7.64,2.29a.18.18,0,0,0,.22-.12l0-.16.14-.09a.18.18,0,0,0,.05-.24l-12-18.66,5.53,1.56a.18.18,0,0,0,.13,0,.18.18,0,0,0,.08-.11l0-.15.13-.09a.18.18,0,0,0,.05-.24l-13.4-20.44a.18.18,0,0,0-.24-.05l-.21.14-.21-.14a.18.18,0,0,0-.24.05l-13.4,20.44a.18.18,0,0,0,.05.24l.13.09,0,.15a.18.18,0,0,0,.08.11.18.18,0,0,0,.13,0l5.53-1.56-12,18.66a.18.18,0,0,0,.05.24l.14.09,0,.16a.18.18,0,0,0,.22.12l7.63-2.29-12.06,17.8a.18.18,0,0,0,0,.11l-.22.07a.18.18,0,0,0-.11.22l.14.43a.18.18,0,0,0,.22.11l20.59-6.71v14.5a.18.18,0,0,0,.18.18h0v.05a.18.18,0,0,0,.18.18h5.68a.18.18,0,0,0,.18-.18V634h0a.18.18,0,0,0,.18-.18v-14.5l20.59,6.71a.18.18,0,0,0,.22-.11l.14-.43a.18.18,0,0,0-.11-.22Z"/><path class="cls-2" d="M1129.43,609.67l-.22-.07a.18.18,0,0,0,0-.11l-12.06-17.8,7.64,2.29a.18.18,0,0,0,.22-.12l0-.16.14-.09a.18.18,0,0,0,.05-.24l-12-18.66,5.53,1.56a.18.18,0,0,0,.13,0,.18.18,0,0,0,.08-.11l0-.15.13-.09a.18.18,0,0,0,.05-.24l-13.4-20.44a.18.18,0,0,0-.24-.05l-.21.14-.21-.14a.18.18,0,0,0-.24.05l-13.4,20.44a.18.18,0,0,0,.05.24l.13.09,0,.15a.18.18,0,0,0,.08.11.18.18,0,0,0,.13,0l5.53-1.56-12,18.66a.18.18,0,0,0,.05.24l.14.09,0,.16a.18.18,0,0,0,.22.12l7.63-2.29-12.06,17.8a.18.18,0,0,0,0,.11l-.22.07a.18.18,0,0,0-.11.22l.14.43a.18.18,0,0,0,.22.11l20.59-6.71v14.5a.18.18,0,0,0,.18.18h0v.05a.18.18,0,0,0,.18.18h5.68a.18.18,0,0,0,.18-.18v-.05h0a.18.18,0,0,0,.18-.18v-14.5l20.59,6.71a.18.18,0,0,0,.22-.11l.14-.43a.18.18,0,0,0-.11-.22Z"/><path class="cls-2" d="M1162,617.91l-.22-.07a.18.18,0,0,0,0-.11l-12.06-17.8,7.64,2.29a.18.18,0,0,0,.22-.12l0-.16.14-.09a.18.18,0,0,0,.05-.24l-12-18.66,5.53,1.56a.18.18,0,0,0,.13,0,.18.18,0,0,0,.08-.11l0-.15.13-.09a.18.18,0,0,0,.05-.24l-13.4-20.44a.18.18,0,0,0-.24-.05l-.21.14-.21-.14a.18.18,0,0,0-.24.05l-13.4,20.44a.18.18,0,0,0,.05.24l.13.09,0,.15a.18.18,0,0,0,.08.11.18.18,0,0,0,.13,0l5.53-1.56-12,18.66a.18.18,0,0,0,.05.24l.14.09,0,.16a.18.18,0,0,0,.22.12l7.63-2.29-12.06,17.8a.18.18,0,0,0,0,.11l-.22.07a.18.18,0,0,0-.11.22l.14.43a.18.18,0,0,0,.22.11l20.59-6.71v14.5a.18.18,0,0,0,.18.18h0v.05a.18.18,0,0,0,.18.18h5.68a.18.18,0,0,0,.18-.18v-.05h0a.18.18,0,0,0,.18-.18V612l20.59,6.71a.18.18,0,0,0,.22-.11l.14-.43a.18.18,0,0,0-.11-.22Z"/><path class="cls-2" d="M1262.7,621.89l-12.4-8-7.44-8.92,6.51,1h.07l11.34-.75a.18.18,0,0,0,.16-.19V605l0-.12a.18.18,0,0,0-.12-.22l-4-1.14L1241,595l-2.31-3.57,2,.75.05.09a.18.18,0,0,0,.24.06l.05,0,.1,0a.18.18,0,0,0,.09-.09l0,0a.18.18,0,0,0,.07-.24h0v0a.18.18,0,0,0-.1-.23l-.08,0-.35-.58,2.38,1.6.09,0,.08,0,12.61.86.12.08a.18.18,0,0,0,.24-.05l.17-.27a.18.18,0,0,0,0-.24l-.09-.06,0-.05a.18.18,0,0,0-.12-.06l-5.3-3.51-8.09-10,3.43,1a.18.18,0,0,0,.18.12h.2a.16.16,0,0,0,.12,0l6.07-.49a.18.18,0,0,0,.16-.19v-.14l0-.13a.18.18,0,0,0-.14-.2l-5.19-.94a.18.18,0,0,0-.07-.06l-7.93-4.07-.48-1.6,4.45,2.37a.17.17,0,0,0,.14,0h0a.17.17,0,0,0,.13,0l.25-.2a.18.18,0,0,0,0-.25l-.13-.16,7,1.06a.17.17,0,0,0,.13,0,.18.18,0,0,0,.07-.12l0-.14.05-.13a.18.18,0,0,0-.1-.23L1249,574l-9.94-7.69-.71-2.16,3.61-.07,4,1.4a.18.18,0,0,0,.22-.11l0-.12.08-.09a.18.18,0,0,0,0-.25l-9.93-9.14-1.56-5.46a.17.17,0,0,0,0-.08.18.18,0,0,0-.05-.08l-1.11-1a.18.18,0,0,0-.18,0l-2.7-11a.17.17,0,0,0-.08-.11.17.17,0,0,0-.13,0l-.12,0-.12,0a.17.17,0,0,0-.2.14l-2.24,13.66-12.06,13.56a.18.18,0,0,0,0,.25l.07.06v.09a.17.17,0,0,0,.2.15l4-.55.08,0a.18.18,0,0,0,.13,0l.11-.07.31,0a.18.18,0,0,0,.15-.2v0l3.89-2.41-12.8,11.75a.18.18,0,0,0,0,.25l.22.24a.18.18,0,0,0,.12.06h0a.18.18,0,0,0,.23.09l10.83-4.49-2,3.76-12.61,8.56a.18.18,0,0,0,0,.24l.06.09v.11a.17.17,0,0,0,.18.17l1.6-.06-2.78,5a.18.18,0,0,0,.07.24l.1.05.06.1a.18.18,0,0,0,.24.06l13.69-8.22-1.4,3.89-12.2,9.81a.18.18,0,0,0,0,.25l.2.25a.18.18,0,0,0,.25,0l.2-.16.07,0a.17.17,0,0,0,.14,0l13-5.77-2.29,3.3L1206.59,600a.18.18,0,0,0-.07.07l-1.36.12a.18.18,0,0,0-.17.19l0,.31a.19.19,0,0,0,.07.12.21.21,0,0,0,.14,0l11.45-.79-2.18.94a.18.18,0,0,0-.09.23l0,.11v.12a.18.18,0,0,0,.17.18l2.7.1-5,2.93-13.68,3.61a.18.18,0,0,0-.12.22l.08.3a.17.17,0,0,0,.21.12h0l1,1a3.49,3.49,0,0,0,.23.09l6.68.06-7.92,6.17a.18.18,0,0,0,0,.25l.08.1.05.12a.18.18,0,0,0,.23.1l14.28-5.79-.85,2.93a.18.18,0,0,0,.12.22l.09,0,.06.08a.18.18,0,0,0,.25,0l10.11-7.35-4.9,11.87a.18.18,0,0,0,.09.23l.11,0,.08.09a.18.18,0,0,0,.12.06.21.21,0,0,0,.13,0l8-7.41v14.78a2.51,2.51,0,0,0,.33.33h5.55a.17.17,0,0,0,.15-.08h0a.18.18,0,0,0,.18-.18v-16l11.49,11a.19.19,0,0,1,.16.14.17.17,0,0,0,.13,0l.31,0a.18.18,0,0,0,.16-.18l-.33-6,6,4a.18.18,0,0,0,.23,0l11.21,3a.18.18,0,0,0,.22-.12l0-.13.07-.11A.18.18,0,0,0,1262.7,621.89Z"/><path class="cls-2" d="M1333,618.56l-12.4-8-7.44-8.92,6.51,1h.07l11.34-.75a.18.18,0,0,0,.16-.19v-.13l0-.12a.18.18,0,0,0-.12-.22l-4-1.14-15.88-8.5L1309,588.1l2,.75.05.09a.18.18,0,0,0,.24.06l.05,0,.1,0a.18.18,0,0,0,.09-.09l0,0a.18.18,0,0,0,.07-.24h0v0a.18.18,0,0,0-.1-.23l-.08,0-.35-.58,2.38,1.6.09,0,.08,0,12.61.86.12.08a.18.18,0,0,0,.24-.05l.17-.27a.18.18,0,0,0,0-.24l-.09-.06,0-.05a.18.18,0,0,0-.12-.06l-5.3-3.51-8.09-10,3.43,1a.18.18,0,0,0,.18.12h.2a.16.16,0,0,0,.12,0l6.07-.49a.18.18,0,0,0,.16-.19v-.14l0-.13a.18.18,0,0,0-.14-.2l-5.19-.94a.18.18,0,0,0-.07-.06l-7.93-4.07-.48-1.6,4.45,2.37a.17.17,0,0,0,.14,0h0a.17.17,0,0,0,.13,0l.25-.2a.18.18,0,0,0,0-.25l-.13-.16,7,1.06a.17.17,0,0,0,.13,0,.18.18,0,0,0,.07-.12l0-.14.05-.13a.18.18,0,0,0-.1-.23l-2.15-.84-9.94-7.69-.71-2.16,3.61-.07,4,1.4a.18.18,0,0,0,.22-.11l0-.12.08-.09a.18.18,0,0,0,0-.25l-9.93-9.14L1305.1,547a.17.17,0,0,0,0-.08.18.18,0,0,0-.05-.08l-1.11-1a.18.18,0,0,0-.18,0l-2.7-11a.17.17,0,0,0-.08-.11.17.17,0,0,0-.13,0l-.12,0-.12,0a.17.17,0,0,0-.2.14l-2.24,13.66L1286,562.06a.18.18,0,0,0,0,.25l.07.06v.09a.17.17,0,0,0,.2.15l4-.55.08,0a.18.18,0,0,0,.13,0l.11-.07.31,0a.18.18,0,0,0,.15-.2v0l3.89-2.41-12.8,11.75a.18.18,0,0,0,0,.25l.22.24a.18.18,0,0,0,.12.06h0a.18.18,0,0,0,.23.09l10.83-4.49-2,3.76L1279,579.54a.18.18,0,0,0,0,.24l.06.09V580a.17.17,0,0,0,.18.17l1.6-.06-2.78,5a.18.18,0,0,0,.07.24l.1.05.06.1a.18.18,0,0,0,.24.06l13.69-8.22-1.4,3.89-12.2,9.81a.18.18,0,0,0,0,.25l.2.25a.18.18,0,0,0,.25,0l.2-.16.07,0a.17.17,0,0,0,.14,0l13-5.77-2.29,3.3-13.24,7.67a.18.18,0,0,0-.07.07l-1.36.12a.18.18,0,0,0-.17.19l0,.31a.19.19,0,0,0,.07.12.21.21,0,0,0,.14,0l11.45-.79-2.18.94a.18.18,0,0,0-.09.23l0,.11v.12a.18.18,0,0,0,.17.18l2.7.1-5,2.93L1269,605a.18.18,0,0,0-.12.22l.08.3a.17.17,0,0,0,.21.12h0l1,1a3.49,3.49,0,0,0,.23.09l6.68.06-7.92,6.17a.18.18,0,0,0,0,.25l.08.1.05.12a.18.18,0,0,0,.23.1l14.28-5.79-.85,2.93a.18.18,0,0,0,.12.22l.09,0,.06.08a.18.18,0,0,0,.25,0l10.11-7.35-4.9,11.87a.18.18,0,0,0,.09.23l.11,0,.08.09a.18.18,0,0,0,.12.06.21.21,0,0,0,.13,0l8-7.41V623.2a2.51,2.51,0,0,0,.33.33h5.55a.17.17,0,0,0,.15-.08h0a.18.18,0,0,0,.18-.18v-16l11.49,11a.19.19,0,0,1,.16.14.17.17,0,0,0,.13,0l.31,0a.18.18,0,0,0,.16-.18l-.33-6,6,4a.18.18,0,0,0,.23,0l11.21,3a.18.18,0,0,0,.22-.12l0-.13.07-.11A.18.18,0,0,0,1333,618.56Z"/><path class="cls-2" d="M1381.35,626.33l-12.4-8-7.44-8.92,6.51,1h.07l11.34-.75a.18.18,0,0,0,.16-.19v-.13l0-.12a.18.18,0,0,0-.12-.22l-4-1.14-15.88-8.5-2.31-3.57,2,.75.05.09a.18.18,0,0,0,.24.06l.05,0,.1,0a.18.18,0,0,0,.09-.09l0,0a.18.18,0,0,0,.07-.24h0v0a.18.18,0,0,0-.1-.23l-.08,0-.35-.58,2.38,1.6.09,0,.08,0,12.61.86.12.08a.18.18,0,0,0,.24-.05l.17-.27a.18.18,0,0,0,0-.24l-.09-.06,0-.05a.18.18,0,0,0-.12-.06l-5.3-3.51-8.09-10,3.43,1a.18.18,0,0,0,.18.12h.2a.16.16,0,0,0,.12,0l6.07-.49a.18.18,0,0,0,.16-.19v-.14l0-.13a.18.18,0,0,0-.14-.2l-5.19-.94a.18.18,0,0,0-.07-.06l-7.93-4.07-.48-1.6,4.45,2.37a.17.17,0,0,0,.14,0h0a.17.17,0,0,0,.13,0l.25-.2a.18.18,0,0,0,0-.25l-.13-.16,7,1.06a.17.17,0,0,0,.13,0,.18.18,0,0,0,.07-.12l0-.14.05-.13a.18.18,0,0,0-.1-.23l-2.15-.84-9.94-7.69-.71-2.16,3.61-.07,4,1.4a.18.18,0,0,0,.22-.11l0-.12.08-.09a.18.18,0,0,0,0-.25l-9.93-9.14-1.56-5.46a.17.17,0,0,0,0-.08.18.18,0,0,0-.05-.08l-1.11-1a.18.18,0,0,0-.18,0l-2.7-11a.17.17,0,0,0-.08-.11.17.17,0,0,0-.13,0l-.12,0-.12,0a.17.17,0,0,0-.2.14l-2.24,13.66-12.06,13.56a.18.18,0,0,0,0,.25l.07.06v.09a.17.17,0,0,0,.2.15l4-.55.08,0a.18.18,0,0,0,.13,0l.11-.07.31,0a.18.18,0,0,0,.15-.2v0l3.89-2.41-12.8,11.75a.18.18,0,0,0,0,.25l.22.24a.18.18,0,0,0,.12.06h0a.18.18,0,0,0,.23.09L1342,575l-2,3.76-12.61,8.56a.18.18,0,0,0,0,.24l.06.09v.11a.17.17,0,0,0,.18.17l1.6-.06-2.78,5a.18.18,0,0,0,.07.24l.1.05.06.1a.18.18,0,0,0,.24.06l13.69-8.22-1.4,3.89-12.2,9.81a.18.18,0,0,0,0,.25l.2.25a.18.18,0,0,0,.25,0l.2-.16.07,0a.17.17,0,0,0,.14,0l13-5.77-2.29,3.3-13.24,7.67a.18.18,0,0,0-.07.07l-1.36.12a.18.18,0,0,0-.17.19l0,.31a.19.19,0,0,0,.07.12.21.21,0,0,0,.14,0l11.45-.79-2.18.94a.18.18,0,0,0-.09.23l0,.11v.12a.18.18,0,0,0,.17.18l2.7.1-5,2.93-13.68,3.61a.18.18,0,0,0-.12.22l.08.3a.17.17,0,0,0,.21.12h0l1,1a3.49,3.49,0,0,0,.23.09l6.68.06-7.92,6.17a.18.18,0,0,0,0,.25l.08.1.05.12a.18.18,0,0,0,.23.1l14.28-5.79-.85,2.93a.18.18,0,0,0,.12.22l.09,0,.06.08a.18.18,0,0,0,.25,0l10.11-7.35-4.9,11.87a.18.18,0,0,0,.09.23l.11,0,.08.09a.18.18,0,0,0,.12.06.21.21,0,0,0,.13,0l8-7.41V631a2.51,2.51,0,0,0,.33.33h5.55a.17.17,0,0,0,.15-.08h0a.18.18,0,0,0,.18-.18v-16l11.49,11a.19.19,0,0,1,.16.14.17.17,0,0,0,.13,0l.31,0a.18.18,0,0,0,.16-.18l-.33-6,6,4a.18.18,0,0,0,.23,0l11.21,3a.18.18,0,0,0,.22-.12l0-.13.07-.11A.18.18,0,0,0,1381.35,626.33Z"/><path class="cls-2" d="M1502.72,617.59l-12.4-8-7.44-8.92,6.51,1h.07l11.34-.75a.18.18,0,0,0,.16-.19v-.13l0-.12a.18.18,0,0,0-.12-.22l-4-1.14L1481,590.7l-2.31-3.57,2,.75.05.09a.18.18,0,0,0,.24.06l.05,0,.1,0a.18.18,0,0,0,.09-.09l0,0a.18.18,0,0,0,.07-.24h0v0a.18.18,0,0,0-.1-.23l-.08,0-.35-.58,2.38,1.6.09,0,.08,0,12.61.86.12.08a.18.18,0,0,0,.24-.05l.17-.27a.18.18,0,0,0,0-.24l-.09-.06,0-.05a.18.18,0,0,0-.12-.06l-5.3-3.51-8.09-10,3.43,1a.18.18,0,0,0,.18.12h.2a.16.16,0,0,0,.12,0l6.07-.49a.18.18,0,0,0,.16-.19v-.14l0-.13a.18.18,0,0,0-.14-.2l-5.19-.94a.18.18,0,0,0-.07-.06l-7.93-4.07-.48-1.6,4.45,2.37a.17.17,0,0,0,.14,0h0a.17.17,0,0,0,.13,0l.25-.2a.18.18,0,0,0,0-.25l-.13-.16,7,1.06a.17.17,0,0,0,.13,0,.18.18,0,0,0,.07-.12l0-.14.05-.13a.18.18,0,0,0-.1-.23l-2.15-.84-9.94-7.69-.71-2.16,3.61-.07,4,1.4a.18.18,0,0,0,.22-.11l0-.12.08-.09a.18.18,0,0,0,0-.25l-9.93-9.14-1.56-5.46a.17.17,0,0,0,0-.08.18.18,0,0,0-.05-.08l-1.11-1a.18.18,0,0,0-.18,0l-2.7-11a.17.17,0,0,0-.08-.11.17.17,0,0,0-.13,0l-.12,0-.12,0a.17.17,0,0,0-.2.14l-2.24,13.66-12.06,13.56a.18.18,0,0,0,0,.25l.07.06v.09a.17.17,0,0,0,.2.15l4-.55.08,0a.18.18,0,0,0,.13,0l.11-.07.31,0a.18.18,0,0,0,.15-.2v0l3.89-2.41-12.8,11.75a.18.18,0,0,0,0,.25l.22.24a.18.18,0,0,0,.12.06h0a.18.18,0,0,0,.23.09l10.83-4.49-2,3.76-12.61,8.56a.18.18,0,0,0,0,.24l.06.09V579a.17.17,0,0,0,.18.17l1.6-.06-2.78,5a.18.18,0,0,0,.07.24l.1.05.06.1a.18.18,0,0,0,.24.06l13.69-8.22-1.4,3.89-12.2,9.81a.18.18,0,0,0,0,.25l.2.25a.18.18,0,0,0,.25,0l.2-.16.07,0a.17.17,0,0,0,.14,0l13-5.77-2.29,3.3-13.24,7.67a.18.18,0,0,0-.07.07l-1.36.12a.18.18,0,0,0-.17.19l0,.31a.19.19,0,0,0,.07.12.21.21,0,0,0,.14,0l11.45-.79-2.18.94a.18.18,0,0,0-.09.23l0,.11v.12a.18.18,0,0,0,.17.18l2.7.1-5,2.93L1438.68,604a.18.18,0,0,0-.12.22l.08.3a.17.17,0,0,0,.21.12h0l1,1a3.49,3.49,0,0,0,.23.09l6.68.06-7.92,6.17a.18.18,0,0,0,0,.25l.08.1.05.12a.18.18,0,0,0,.23.1l14.28-5.79-.85,2.93a.18.18,0,0,0,.12.22l.09,0,.06.08a.18.18,0,0,0,.25,0l10.11-7.35-4.9,11.87a.18.18,0,0,0,.09.23l.11,0,.08.09a.18.18,0,0,0,.12.06.21.21,0,0,0,.13,0l8-7.41v14.78a2.51,2.51,0,0,0,.33.33h5.55a.17.17,0,0,0,.15-.08h0a.18.18,0,0,0,.18-.18v-16l11.49,11a.19.19,0,0,1,.16.14.17.17,0,0,0,.13,0l.31,0a.18.18,0,0,0,.16-.18l-.33-6,6,4a.18.18,0,0,0,.23,0l11.21,3a.18.18,0,0,0,.22-.12l0-.13.07-.11A.18.18,0,0,0,1502.72,617.59Z"/><path class="cls-2" d="M1288.77,625.26l-.22-.07a.18.18,0,0,0,0-.11l-12.06-17.8,7.64,2.29a.18.18,0,0,0,.22-.12l0-.16.14-.09a.18.18,0,0,0,.05-.24l-12-18.66,5.53,1.56a.18.18,0,0,0,.13,0,.18.18,0,0,0,.08-.11l0-.15.13-.09a.18.18,0,0,0,.05-.24l-13.4-20.44a.18.18,0,0,0-.24-.05l-.21.14-.21-.14a.18.18,0,0,0-.24.05l-13.4,20.44a.18.18,0,0,0,.05.24l.13.09,0,.15a.18.18,0,0,0,.08.11.18.18,0,0,0,.13,0l5.53-1.56-12,18.66a.18.18,0,0,0,.05.24l.14.09,0,.16a.18.18,0,0,0,.22.12l7.63-2.29-12.06,17.8a.18.18,0,0,0,0,.11l-.22.07a.18.18,0,0,0-.11.22l.14.43a.18.18,0,0,0,.22.11l20.59-6.71v14.5a.18.18,0,0,0,.18.18h0v.05a.18.18,0,0,0,.18.18h5.68a.18.18,0,0,0,.18-.18V634h0a.18.18,0,0,0,.18-.18v-14.5l20.59,6.71a.18.18,0,0,0,.22-.11l.14-.43a.18.18,0,0,0-.11-.22Z"/><path class="cls-2" d="M1416.37,609.67l-.22-.07a.18.18,0,0,0,0-.11l-12.06-17.8,7.64,2.29a.18.18,0,0,0,.22-.12l0-.16.14-.09a.18.18,0,0,0,.05-.24l-12-18.66,5.53,1.56a.18.18,0,0,0,.13,0,.18.18,0,0,0,.08-.11l0-.15.13-.09a.18.18,0,0,0,.05-.24l-13.4-20.44a.18.18,0,0,0-.24-.05l-.21.14-.21-.14a.18.18,0,0,0-.24.05l-13.4,20.44a.18.18,0,0,0,.05.24l.13.09,0,.15a.18.18,0,0,0,.08.11.18.18,0,0,0,.13,0l5.53-1.56-12,18.66a.18.18,0,0,0,.05.24l.14.09,0,.16a.18.18,0,0,0,.22.12l7.63-2.29-12.06,17.8a.18.18,0,0,0,0,.11l-.22.07a.18.18,0,0,0-.11.22l.14.43a.18.18,0,0,0,.22.11l20.59-6.71v14.5a.18.18,0,0,0,.18.18h0v.05a.18.18,0,0,0,.18.18h5.68a.18.18,0,0,0,.18-.18v-.05h0a.18.18,0,0,0,.18-.18v-14.5l20.59,6.71a.18.18,0,0,0,.22-.11l.14-.43a.18.18,0,0,0-.11-.22Z"/><path class="cls-2" d="M1449,617.91l-.22-.07a.18.18,0,0,0,0-.11l-12.06-17.8,7.64,2.29a.18.18,0,0,0,.22-.12l0-.16.14-.09a.18.18,0,0,0,.05-.24l-12-18.66,5.53,1.56a.18.18,0,0,0,.13,0,.18.18,0,0,0,.08-.11l0-.15.13-.09a.18.18,0,0,0,.05-.24l-13.4-20.44a.18.18,0,0,0-.24-.05l-.21.14-.21-.14a.18.18,0,0,0-.24.05L1411,583.89a.18.18,0,0,0,.05.24l.13.09,0,.15a.18.18,0,0,0,.08.11.18.18,0,0,0,.13,0l5.53-1.56-12,18.66a.18.18,0,0,0,.05.24l.14.09,0,.16a.18.18,0,0,0,.22.12l7.63-2.29L1401,617.72a.18.18,0,0,0,0,.11l-.22.07a.18.18,0,0,0-.11.22l.14.43a.18.18,0,0,0,.22.11l20.59-6.71v14.5a.18.18,0,0,0,.18.18h0v.05a.18.18,0,0,0,.18.18h5.68a.18.18,0,0,0,.18-.18v-.05h0a.18.18,0,0,0,.18-.18V612l20.59,6.71a.18.18,0,0,0,.22-.11l.14-.43a.18.18,0,0,0-.11-.22Z"/><g class="cls-3"><path class="cls-4" d="M.53,542.58c1.6,8.11,3.72,16.18,5.76,24L7,569.32c1.54,6,3.14,12.14,6.21,17.55v0a8.78,8.78,0,0,0,2.43,4l.51,1.07.56-.26a5.34,5.34,0,0,0,2.71.8c2.57,0,5.19.16,7.72.3,2.31.13,4.69.26,7.06.3,3.52.06,7.13.32,10.62.57,4,.29,8.09.58,12.14.58a59.37,59.37,0,0,0,10.56-.85A2.48,2.48,0,0,0,69.6,591a2.89,2.89,0,0,0-2-2.93c-5.28-1.63-10.34-3.32-15-5l-1.18-.43a43.86,43.86,0,0,0-9.52-2.71v-.1a63.76,63.76,0,0,0,.54-13.25,12.21,12.21,0,0,0-.19-1.22c-.24-1.22-.32-1.83.39-2.45a32.3,32.3,0,0,1,3.79-2.8c.69-.46,1.37-.91,2.06-1.4,3.63-2.57,7.48-5,11.2-7.34s7.52-4.74,11.15-7.3c2.87-2,5.89-3.92,8.8-5.76,3.66-2.31,7.44-4.71,11-7.35a55.91,55.91,0,0,0,8.75-7.47c.6-.67,1.22-1.41,1.87-2.17a44.37,44.37,0,0,1,5.76-6l.13.14c2.4,2.6,4.77,5.23,7.14,7.87q3.13,3.47,6.28,6.93l6,7.34c.84,3,1.49,5.52,2,7.86,1,4.39,2.12,8.75,3.2,13.1,1.89,7.59,3.84,15.44,5.46,23.26,2.14,10.3,4.89,22.27,9.13,33.2a2.48,2.48,0,0,0,.07,2.53c1.56,2.45,4.51,3.06,7.11,3.6l1.28.28a97.42,97.42,0,0,0,11.1,2.07l.86.11a116.08,116.08,0,0,1,15.82,2.68c1.15.31,2.3.66,3.45,1a58,58,0,0,0,6.18,1.66l3,.9.17-.52.95,0,1.19,1.2,1.32-1.31c6.62-.65,13-4,18.67-6.88l.51-.26c1.94-1,3.91-2,5.87-2.91,6-2.89,12.13-5.88,17.45-10.24a2.48,2.48,0,0,0,.77-2.79,3,3,0,0,0-2.65-2l-.57,0c-1.75-.06-3.51-.29-5.21-.51a43.35,43.35,0,0,0-7.85-.52c-2.39.14-4.68-.94-7-2-.85-.38-1.69-.76-2.51-1.07a61.57,61.57,0,0,1-7.93-4,70.43,70.43,0,0,0-7.11-3.7,35.12,35.12,0,0,1-6.63-4,29.22,29.22,0,0,1-3.11-2.7c1.26-5,2.37-10.14,3.44-15.09,1.17-5.37,2.37-10.93,3.76-16.33a251.79,251.79,0,0,1,10-30.61l.22-.55a2.58,2.58,0,0,0-.56-2.63,43.15,43.15,0,0,0-2.17-6.11c-.36-.87-.71-1.73-1-2.57-1-2.67-2.17-5.46-3.72-8.88,7.93,1.75,16.77,3.28,27,4.66l8.67,1.16q7.9,1.06,15.82,2.14a79,79,0,0,0,11.19,1,34.61,34.61,0,0,0,8-.86,90.55,90.55,0,0,0,14-5c2.48-1,5-2.11,7.59-3,9-3.26,17-6.22,24.48-9.05l5.29-2c6.14-2.35,12.47-4.77,18.77-7.05a94.67,94.67,0,0,0-3.46,14.48c-.62,3.36-1.26,6.83-2.15,10.19-2.24,8.42-4.8,17.35-8.31,29l-.12.4c-1.14,3.71-2.33,7.55-1.47,11.66A105.56,105.56,0,0,0,330.91,565c1,2.77,2,5.59,2.91,8.42,1.75,5.2,3.55,10.57,5.75,15.66a1.87,1.87,0,0,0-.41.63,1.81,1.81,0,0,0,.31,1.85,4.22,4.22,0,0,1,.34.5v.46a1.85,1.85,0,0,0,.14,1.06c1.28,2.67,3.61,4.12,5.86,5.53l.74.46c3.39,2.16,7,4.49,10.51,6.85l1.28.87c4.43,3,9.45,6.45,15.15,6.62,1.91.06,3.86.09,5.83.09,4.35,0,8.21-.17,11.8-.52,1.74-.15,3.55-.38,5.36-.67,1.62-.26,3.31-.46,5-.66,4.25-.49,8.64-1,12.56-2.6.23-.09.48-.19.72-.31a3.73,3.73,0,0,0,.39.19,1.93,1.93,0,0,0,2.35-.68,1.84,1.84,0,0,0,.05-1.81c-3.54-7.46-10.42-10.85-16-13a71.75,71.75,0,0,0-13.37-3.75c-1.46-.24-2.92-.39-4.06-.49l-1.89-1a47.51,47.51,0,0,0-4-4.3c-.59-.59-1.17-1.17-1.71-1.73-.72-.76-1.46-1.52-2.2-2.27s-1.42-1.45-2.12-2.19a101.34,101.34,0,0,0,4.84-12.49c.37-1.09.73-2.18,1.11-3.25,1-2.89,2.26-5.75,3.47-8.51,1.3-3,2.65-6,3.72-9.22s2.26-6.14,3.44-9.11c1.43-3.6,2.91-7.32,4.09-11.09.34-1.11.65-2.24.94-3.36l1.26,1.76.09,0c8.73,11.21,17.34,22.44,25.6,33.39,2.2,2.9,4.37,5.84,6.55,8.79,2,2.74,4.06,5.49,6.12,8.22a1.33,1.33,0,0,0,.5,1.11l.82.63.39.52.16.16q4.22,3.34,8.37,6.74l.37.27,4.65,3.79-1.79-2.7a46.8,46.8,0,0,0,7.42,4.92l.39,1.62,1.83-.43,2.94,1.52.65.34c5.36,2.76,10.67,5.76,15.81,8.66l4,2.24c2.92,1.63,6,3.23,9.55,4.9L490,609l1.22-.48c2.35,1.09,4.83,2.2,7.57,3.37,2.52,1.08,5.06,2.14,7.6,3.21,3.68,1.54,7.48,3.13,11.2,4.77a2,2,0,0,0,.4.58c.23.44.49.85.74,1.27a12.17,12.17,0,0,1,.87,1.55,1.66,1.66,0,0,0,.79.84l-.17.58,3.16.89.16-.56a146.67,146.67,0,0,0,18.85,3.13l2.74.32a92.42,92.42,0,0,0,11,.89,36.57,36.57,0,0,0,4.36-.24,2.48,2.48,0,0,0,2.44.5l.24-.08h0l.07,0a19.65,19.65,0,0,0,4.44-2.3,22,22,0,0,1,3.37-1.87,3,3,0,0,0,1.83-3.18,2.73,2.73,0,0,0-2.63-2.26c-.13,0-.59-.21-1.86-1.65l-.55-.63a13.46,13.46,0,0,0-1.17-1.26c-1.29-1.08-2.68-2.22-4.13-3.24-3.37-2.37-6.72-4.52-10.24-6.6l-1.43-.84a164.76,164.76,0,0,0-16.22-8.72l-1.47-.64-.31-.52c-4.61-8-10.52-15.51-15.68-21.77a219.83,219.83,0,0,0-15.76-17.18c-1.25-1.22-2.6-2.46-4.23-3.9l0-.12c-2.67-6.92-5.75-14.2-9.13-21.63-2.38-5.22-4.9-10.45-7.34-15.52-1.5-3.12-3-6.24-4.48-9.37-.32-.67-.63-1.35-.94-2l-.59-1.28-.13-2.32c-.14-2.43-.28-4.87-.41-7.28-.41-6.75-.9-13.52-1.38-20.09l7.54,2c7.33,1.91,14.66,3.82,22,5.8,2.17.59,4.36,1.15,6.55,1.7,1.87,1.54,3.89,2.95,5.84,4.31,1.8,1.25,3.65,2.54,5.36,3.92l.68.56c4,3.3,7.56,6.3,10.89,9.57.88.86,1.81,1.68,2.73,2.5s1.94,1.72,2.86,2.64l.37.37a6.2,6.2,0,0,0,2.66,1.89l.39.08a11.53,11.53,0,0,0,3,0,13.8,13.8,0,0,1,2.06,0c1.46.1,2.86.08,4.28.06h.78a1.73,1.73,0,0,0,.38.15c2.09.74,4.25,1.55,6.43,2.36,8.62,3.21,17.53,6.52,26.74,7.57a2.11,2.11,0,0,0,2.79.71,5.22,5.22,0,0,0,1.7-1.9,4.21,4.21,0,0,1,.92-1.18,7.13,7.13,0,0,0,2.18-2.74,13.38,13.38,0,0,1,1.23-1.9,2.59,2.59,0,0,0,1.44-1.68,17,17,0,0,1,4.46-2.32c2.89-1.19,5.89-2.42,6.63-5.12.68-2.42-.61-4.29-1.74-5.94l-.35-.51c-1.72-2.58-3.48-5.24-5.35-7.81-2.73-3.72-5.21-7.76-7.61-11.65-1.49-2.43-3-4.94-4.64-7.36a107.3,107.3,0,0,1-5.91-10.6q-.67-1.31-1.35-2.63l-.27-.52c0-.06,0-.12,0-.18l.12-.69a6.74,6.74,0,0,1,.7-1.77,12.36,12.36,0,0,0,.64-1.42,19.74,19.74,0,0,1,1.51-3.14c.34-.61.68-1.23,1-1.89a2.79,2.79,0,0,0-.5-3.32c-3.55-3.27-4.76-8.21-5.93-13a58.94,58.94,0,0,0-1.8-6.32,15.78,15.78,0,0,1-.51-2.22c-.39-2.06-.79-4.18-1.9-5a23.39,23.39,0,0,1-4.41-5.51l-.73-1.11c-1.21-1.81-2.36-3.67-3.52-5.52A115.58,115.58,0,0,0,556,394l-.18-.23c2.57-4,4-9,5.35-13.9.55-2,1.07-3.81,1.65-5.54a2.66,2.66,0,0,0-1.23-3.08,80.24,80.24,0,0,0-9.76-4.64c-1.6-.62-3.64.14-5.28.86a11.45,11.45,0,0,1-2,.73c-5.51,1.17-11.78,2.72-16.73,5.33-4.52-1.19-9-2.71-13.36-4.19l-2.26-.77c-3.11-1-6.21-2.12-9.31-3.2l-3.09-1.07a1.43,1.43,0,0,0-.7-.82c-9.07-4.75-17.9-10.6-26.44-16.25-4.36-2.89-8.86-5.87-13.33-8.66-9-5.65-16-9.94-22.59-13.94-1.49-.9-3-1.81-4.46-2.73-3.35-2.07-6.82-4.2-10.32-6.13l-8.32-6,0,.05,0-.06-3.1,1.4c-1.19,0-2.38.18-3.53.32-.88.11-1.73.21-2.47.25-2.11.09-4.22.17-6.32.24-2.75.09-5.5.19-8.23.33l-3.6.14c-6.87.25-14.66.54-21.14,2.81a34.94,34.94,0,0,0-6.27,3.21,43.92,43.92,0,0,1-4.53,2.49c-4.28,1.92-8.92,3.85-14.16,5.92-3.08,1.23-6.35,2.31-9.51,3.36-1.63.54-3.25,1.08-4.87,1.64l-3.23-.49c-13.5-2-27.1-4.37-39.87-6.63l-4.08-.74c-5.67-1-11.33-2.15-17-3.26-6.45-1.27-13.12-2.58-19.7-3.75l-6.85-1.26c-10.83-2-22-4.09-33.08-4.66h0a1.92,1.92,0,0,0-1.13.33h-.35c-7.85,0-15.56,2-23,4l-2.45.64c-10.32,2.69-19.53,5.23-28.16,7.78-8.24,2.45-17,5.19-28.28,8.91-1.36.45-2.74.88-4.15,1.32a111.15,111.15,0,0,0-14.36,5.26,41.32,41.32,0,0,0-5.53,3.11C87.86,347,82.58,353.59,77.76,360l-.89,1.18c-5.25,6.93-10.69,14.1-15.51,21.45-5.66,8.64-9.93,18.05-13.5,26.2-3.31,7.6-6.36,15.15-7.32,24a2.73,2.73,0,0,0,2.06,2.77c2.26.56,4.53,0,6.89-1.81.23-.17.5-.41.81-.68l-.12,1.83c-3,12.11-5.25,24.76-7.4,37l-.48,2.79c-1.16,6.74-2.36,13.72-3.84,20.45a7.13,7.13,0,0,1-2,3.12c-.9.94-2,1.87-2.94,2.69-.74.63-1.42,1.22-2,1.75-3.26,3.19-6,5.85-8.94,8.49-4.52,4.1-9,8.42-13.24,12.59l-4.57,4.44a15.53,15.53,0,0,0-4.15,5.85C-.18,536.36-.2,538.89.53,542.58ZM100.3,341.27l-46.85,87-1.67,1.2a26.68,26.68,0,0,0-2.24,1.89c-.46.41-.86.78-1.17,1-1.92,1.45-3.61,1.92-5.37,1.49a.94.94,0,0,1-.66-.81c.93-8.6,3.93-16,7.18-23.47,3.54-8.08,7.78-17.41,13.35-25.93,4.79-7.3,10.21-14.44,15.44-21.35l.89-1.18c4.92-6.53,9.89-12.75,16.49-17.2A39.1,39.1,0,0,1,100.3,341.27Zm11.79,157.46,7.33-51.29,15.33-35.71-1.17,121.67ZM150.93,613l0,.24-.07.05-17.48-76,54,50-36,25.7Zm1.52,1.34,39.09-3L194,627ZM215.8,608l-23,1.78-3.44-21.8Zm-24.49,1.89-37.18,2.87L188,588.6ZM366.9,475.52l45.35,51.75L394.61,518Zm53.78,61.23L478,580.54l-34.36-3.37ZM443,578.9l-.59-.39.38,0ZM419.49,534l.34-.3-.25-.28.2-.25,53.07-30.94.11,1.36.51,1.1,6.37,75.41Zm.22-3.12.63-21.89,54.81-50ZM403.81,433.2l.33-.29,72.28,23-56.34,51.42Zm75.44,22-.67-.21,2.3-89.44,29.55,114.7L478.7,456.76l.7-.92-.44-.34Zm59.33-48.56-.66-1.29-14.49,7.36-12.51-4.24-1.37-10.3-.72.09c2.79-2.67,5.12-5.94,8-8.45,3.79-3.27,8.46-.91,12.84-1.35a4,4,0,0,1,3.22.86,27.17,27.17,0,0,0,1.79,3.78c.33,1.5.52,3.11.92,4.46a92.22,92.22,0,0,0,3,9.06l.11.28c.14.36.78.49.86,0s.12-.89.15-1.35l9.2,3.27-32,45-5.79-43.72,12.12,4.11.23-.69.33.65ZM565,508.59c-1.71-3.11-3.08-6.39-4.62-9.6l.1,0,14.2-34.16.26,0-.06-.44h0l-.38-2.74,24.63,38.72-9.51,4.91.42.81-.73-.56-5.92,7.75-18.38-4.76ZM543,467.19l.75-1,28.67-6.75.67,4.74-13.72,33Zm2.1-2.82,11.31-15.26,15.33,9Zm-2.21.54,9-54.5L573,449.1l-16.78-1.68-.07.73-.58-.44Zm9.58-56.41,1.55-9.56,18,45.17Zm-1.26-1.31-.68-.49-.66.92-9.18-3.26,12.07-8.61.22.56Zm-43.59-9.93L481.2,360l51.24,23.9c-1.86.17-3.95-.12-5.72-.12-2.06,0-4.09,0-6.14,0a5.78,5.78,0,0,0-3.94,1.55C512.48,387.76,509.81,393.16,507.58,397.25Zm-30.45,57.32-47.29-15,.44-.7.19-.09-.06-.12,48.82-77.13.3-.27ZM476,357.67l-95.41-30.3,32.34-14.7.35.77.5-.69ZM289,341.33l.78,1h0l55.11,68.8-42.3-4.68-24.31-78.84L289,341.33ZM278.38,325.8l.1,0-.37.29.13-.33Zm-2.34-.44.36,1.16-28.8,73.85h-.11l-67.1-82.56,89.89,6.48Zm-100.1-5.47L168.57,412l-.25-.1,9.7,71.44-40-74.08Zm-38.93,88-32.73-12.43,69.81-74.88Zm33.09,6.4L237,441.65l-57.18,44.24Zm7.5-97,.17,0,59,122.55.65-.31-.54.49.14.15-67-27.45Zm99.48,11.51L301,406.25l-51.9-5.73Zm25.54,79.15L346,412.69l-55.7,75.81Zm-11-65.51,85.85-13.13L346,410.17Zm87.37-13,22.17,101L348.29,412l.36-.48-1.57-.17Zm49.73,109.17-.36.57-23.73-7.54-1.59-.55,15.76-14.38ZM420,415.59l55.19-50.36-45.47,71.83Zm-17.46,14-20.9-95.18,36.6,80.85Zm-.33,3.14-39.65,36.18L362,468l-13.45-54.41,53,18.39.07.3.22-.2.22.07ZM478.71,360,419.36,414.2l-38.59-85.25ZM418.9,508.74l-.62,21.7-2.43-1.28-52.08-59.43,38.8-35.41Zm-40.79-13.4-34-14.14,18.43-9.72Zm-37.24-14.09-51.1,10.55,0-.2,57.25-77.94,13.56,54.82,0,0,.08.12.48,1.93ZM288.43,491l-.33.46-39.3-89.53,52.39,5.79Zm-1.1,2.32L250.13,504l-12-61.43.65-.51,46.92,51.1,1.07-1L238,439,181.33,321.23l66.23,81.5,39.26,89.46Zm-38.62,11L170.57,496l8.73-7.62-.13-.15,57.73-44.66Zm-80.06-8.59-28.11-78.62,38,70.35v.1l-.24-.28Zm.46,2.78,15.46,47.19L136,535.5ZM135,534.4l1.19-124.55.28-.22.24.44-.22.08,31,86.63-.51.44.67.78Zm-.25-125.48v.23l-25.29,20.63-5.32-32.87,31.13,11.82-.24.19Zm-32-14.08-.2-.07-.71-.94L54.74,428.89l46.07-85.53ZM108,429.5H56.35l46.06-34.24Zm24.81-16.84-14.16,33L110,431.19Zm-22,84.87-37.7-29.6-1-1.21,45.71-18.35Zm-40-31.86L55,431h53.15l.25,1.54.46-.38,8.75,14.75ZM54.41,429.5l.3-.56.42.56Zm93.1-104c8.26-2.44,17.08-4.88,26.89-7.44L104.2,393.36l-2-52.52.32-.59a123.52,123.52,0,0,1,12.62-4.51c1.41-.44,2.8-.88,4.17-1.33C130.58,330.7,139.29,328,147.51,325.51ZM258.4,322,181,316.37c6.44-1.65,13-3.14,19.65-3.14h1.18l.28-.4c10.86.61,22,2.68,32.78,4.68l6.86,1.26C247.28,319.78,252.89,320.87,258.4,322Zm148.83-8.65,1.1-.12-29.79,13.54-.08,0v.05l-1.24.57.22.49-86.82,13.28-11.88-15.21,3.72.68c12.79,2.26,26.4,4.64,39.92,6.64l3.68.56.21-.07c1.68-.58,3.37-1.14,5.05-1.7,3.19-1.05,6.48-2.14,9.61-3.39,5.27-2.07,9.93-4,14.24-5.95a45.29,45.29,0,0,0,4.73-2.59,33.56,33.56,0,0,1,5.93-3.05c6.22-2.18,13.86-2.46,20.61-2.71l3.62-.14c2.73-.14,5.47-.24,8.21-.33,2.12-.07,4.23-.14,6.34-.24C405.41,313.52,406.3,313.41,407.23,313.3ZM554.1,393.13l-.25.18,0,.87.19.23-.27,0-.28-.71-1.35.54.07.17-12.34,8.8c-.1-4.28-1.22-8.7-2-12.77a9.5,9.5,0,0,0-1.73-4.12,3,3,0,0,0-1-2.38l.14-.31L498.35,366.4l-17.65-8.23-.38.82-50.64-36.55,1.7,1c1.5.92,3,1.84,4.47,2.74,6.57,4,13.53,8.28,22.57,13.93,4.45,2.78,8.94,5.75,13.29,8.63,8.5,5.63,17.29,11.45,26.36,16.22l-.14.59,4.42,1.53c3.11,1.08,6.21,2.16,9.32,3.2l2.26.76c4.49,1.52,9.13,3.1,13.83,4.32l.35.09.32-.17c4.79-2.6,11.06-4.15,16.56-5.32a12.55,12.55,0,0,0,2.32-.85c1.4-.61,2.9-1.21,3.89-.83a78.41,78.41,0,0,1,9.53,4.53.86.86,0,0,1,.39.9c-.6,1.78-1.12,3.66-1.68,5.64C558.08,384.29,556.66,389.35,554.1,393.13Zm-32.23,97-.69-.56L540,467.94l.54-.28.34,38.93h1.45L542,468.52l22.57,41.32.13-.07-.14.53,19,4.91.23-.88.73.56,6.16-8.07,10.22-5.28-.42-.81.77-.49-27-42.4-.38.24-.11-.48-.84.2.28-.48-13.84-8.13,14.85,1.49.07-.62.3.76,1.35-.54-21.52-54.15.17-1h0a114.25,114.25,0,0,1,6.9,10.24c1.16,1.87,2.33,3.74,3.55,5.57l.72,1.1a24.73,24.73,0,0,0,4.8,5.94c.58.45,1,2.65,1.24,4a16.23,16.23,0,0,0,.6,2.52,57.09,57.09,0,0,1,1.73,6.11c1.24,5,2.52,10.27,6.47,13.91a1,1,0,0,1,.08,1.19c-.3.62-.62,1.21-.95,1.79a21.36,21.36,0,0,0-1.63,3.42,10.7,10.7,0,0,1-.55,1.21,8.25,8.25,0,0,0-.87,2.27l-.19,1,.05.2a1.31,1.31,0,0,1,0,.19V456l.11.2.35.68,1.35,2.63a108.73,108.73,0,0,0,6,10.78c1.58,2.4,3.12,4.9,4.61,7.32,2.42,3.93,4.92,8,7.68,11.77,1.84,2.54,3.6,5.18,5.29,7.73l.37.55c1,1.51,1.93,2.82,1.48,4.42-.5,1.84-3.07,2.9-5.56,3.92a16.56,16.56,0,0,0-5.24,2.89l-.23.22,0,.32a.78.78,0,0,1-.56.65l-.28.09-.17.24a16.2,16.2,0,0,0-1.56,2.39,5.28,5.28,0,0,1-1.67,2.11,5.86,5.86,0,0,0-1.35,1.66,3.59,3.59,0,0,1-1.09,1.29.28.28,0,0,1-.33-.22l-.15-.63L585,517c-9.16-1-18.13-4.29-26.81-7.52-2.19-.81-4.36-1.62-6.52-2.39l-.42-.24H549.9c-1.37,0-2.73,0-4.12-.05a15.75,15.75,0,0,0-2.32,0,10.32,10.32,0,0,1-2.48,0l-.33-.06a5.17,5.17,0,0,1-1.8-1.39l-.4-.4c-.94-.93-1.93-1.81-2.93-2.7s-1.8-1.6-2.66-2.44C529.49,496.5,525.89,493.48,521.87,490.15Zm-11.69-8.65.42-.56.2.79,1.41-.36-30.4-118,26.56,37.5.07,0,11.42,86.25,1.44-.19-1.37-10.31-2.84-21.44.44.32,33-46.36-9.24,56.11h-.77V466l-.68.35-.23-.21-.53.6-18.86,9.76.67,1.29,15.61-8.07L521.47,487,520,488.69l.21.19c-1.49-1.15-3-2.25-4.54-3.3C513.85,484.28,511.94,482.94,510.18,481.5ZM472,471.2l-1.28-.4.1,1.34c.51,7,1,14.18,1.47,21.35.13,2.37.27,4.76.41,7.16l-50.59,29.48,55.68-72.21,31,23c-2-.51-4-1-6-1.57-7.32-2-14.65-3.9-22-5.81l-7.42-1.93C472.79,471.41,472.4,471.31,472,471.2Zm23.31,81.94-.85-.34-11.63,29.26-.07,0,.1-1-1.52-.14v0l-6.11-72.37q1.9,4,3.82,8c2.43,5.05,4.95,10.28,7.32,15.48C489.7,539.21,492.71,546.34,495.34,553.14Zm-4.5,51.61,37.83-6.41L524.8,611.9l-33.49-6.53-.07.37Zm-.54-1.38-7.92-19.95,45.91,13.51ZM531,596.22l-46.78-13.76,11.37-28.59.05.14.16.14c1.68,1.48,3.06,2.75,4.33,4a217.86,217.86,0,0,1,15.63,17A162.94,162.94,0,0,1,531,596.22ZM523.13,623l2.7-9.42,41.45,8.09.28-1.42h-.09l-41.23-8,4-14.12,1.74-.29,1.95.84a163.33,163.33,0,0,1,16,8.62l1.43.84c3.48,2,6.79,4.18,10.12,6.52,1.39,1,2.75,2.09,4,3.13a12.6,12.6,0,0,1,1,1.06l.56.65c1.15,1.3,2.12,2.19,3.09,2.27.74.05.92.48,1,.73a1.12,1.12,0,0,1-.74,1.19,23.8,23.8,0,0,0-3.64,2,18.57,18.57,0,0,1-3.89,2.06h-.09l-.27.13a1.62,1.62,0,0,1-.35.05.55.55,0,0,1-.49-.28l-.32-.48-.57.08a34.16,34.16,0,0,1-4.61.29,91,91,0,0,1-10.82-.88l-2.76-.33A141.36,141.36,0,0,1,523.13,623Zm-30.68-15.94,31.95,6.24-2.66,9.33-.32-.06-.18-.14h-.09a7.92,7.92,0,0,0-.89-1.71c-.26-.41-.51-.82-.73-1.26l-.21-.28-.06-.52-.56-.33c-3.86-1.71-7.8-3.36-11.62-5-2.53-1.06-5.06-2.12-7.58-3.2S494.65,608.08,492.45,607.06ZM458,588.73l22.77-5.3,8.87,22.32c-3.23-1.55-6.16-3.05-8.87-4.57l-4-2.24C471.7,596,466.37,593,461,590.25l-.65-.34Zm-14.37-9.36.93-.53-.07-.13,35.26,3.46L456,587.74l0-.12-.36-.19a42.4,42.4,0,0,1-8.61-5.9c-1.14-.73-2.1-1.36-3.08-2Zm-47.45-58,.44-.29-.41-.62,18.68,9.85,1.23,1.4.86,1.5-.35.45,1.07.81,24.45,43-.08.8L440.18,577l.44.68q-2-1.63-4.08-3.26c-.12-.15-.24-.31-.34-.46l-.22-.23-.56-.42.12-.21-.37-.49c-2.15-2.84-4.26-5.7-6.38-8.56s-4.36-5.9-6.56-8.8C413.84,544.16,405.09,532.76,396.22,521.37Zm-25.8,56.4-28.77-7.46.08-1.87,48.66-51.18-1-1-47.53,50,3.34-83,34.27,14.25,0-.06,12.37,18.93,1,1.53-.5,1.94c-.37,1.43-.74,2.87-1.18,4.28-1.17,3.69-2.63,7.39-4,11-1.19,3-2.42,6.09-3.47,9.2s-2.38,6.14-3.66,9.07-2.49,5.68-3.52,8.64c-.38,1.08-.74,2.17-1.11,3.27A97.35,97.35,0,0,1,370.43,577.77Zm10.67,12.57-33.86-17.08,22.85,5.92.1-.38.26.28c.84.91,1.71,1.79,2.58,2.68s1.47,1.5,2.18,2.25c.56.58,1.15,1.17,1.75,1.77A41.76,41.76,0,0,1,381.1,590.34Zm-39.49,2.52.48-.48-.25-.41,40.42.88,8.66,18.49,1.31-.62-8.65-18.47v-.07l28.7,15.37.69-1.28-27-14.47c.62.07,1.27.16,1.92.27a69.9,69.9,0,0,1,13,3.66c5.27,2,11.75,5.17,15,12.05a1.25,1.25,0,0,1-.38-.16l-.32-.18-.4-.2-.4.19c-.34.16-.68.33-1,.45-3.71,1.52-8,2-12.1,2.49-1.73.2-3.44.4-5.09.67s-3.52.5-5.23.65c-3.54.34-7.34.51-11.63.51-2,0-3.89,0-5.78-.09-5.17-.15-10-3.42-14.17-6.3l-1.29-.88c-3.52-2.38-7.16-4.71-10.55-6.88l-.75-.47C344.66,596.28,342.65,595,341.61,592.86Zm2-106.41-3.27,81.38-.33.34.3.29-.14,3.45,1.32,0,38.43,19.38-39-.84,0-.05,1.22-.15-.53-1.16c-2.31-5.24-4.2-10.84-6-16.26-1-2.84-1.91-5.68-2.92-8.46a103.55,103.55,0,0,1-4.17-14.33c-.76-3.64.31-7.09,1.43-10.75l.12-.4c3.52-11.63,6.09-20.58,8.33-29,.91-3.43,1.55-6.93,2.18-10.32A101,101,0,0,1,343.58,486.46ZM200.05,500.63l-.23-.05H200l49,5.22.08-.72.2.7,40.16-11.52-.25-.85,51.65-10.67.09.15.53-.28,1.6-.33.33.14c-6.88,2.48-13.82,5.13-20.54,7.69l-5.29,2C310,495,302,497.94,293,501.19c-2.58.92-5.17,2-7.67,3.06a89.22,89.22,0,0,1-13.67,4.86,32.75,32.75,0,0,1-7.61.81,77.48,77.48,0,0,1-10.93-1q-7.93-1.09-15.83-2.14l-8.66-1.16C217.74,504.18,208.39,502.54,200.05,500.63Zm7.16,21.73-.15.37-.72-.64-20.42,23.06-15.64-47.72,28,3,.68,1.48c1.92,4.17,3.28,7.38,4.43,10.44.32.86.69,1.74,1,2.62a40,40,0,0,1,2.14,6.07l.06.27.21.19A.85.85,0,0,1,207.22,522.36Zm-17.6,63.28-.09.37.47.62-1-.75,0-.13-.13,0-.64-.49-.35.46-52.87-49,49.2,10.33-.35.39,1.09,1,.89-1,.92.2-.29-.89L206.58,524a252.85,252.85,0,0,0-9.63,29.68c-1.39,5.44-2.61,11-3.77,16.4C192.06,575.21,190.92,580.49,189.61,585.64Zm27,35.07c-5.26,2.72-11.18,5.75-17.16,6.55l18.19-18,21.25-1.64-.12-1.45L218,607.8h0L197.9,592.61a27.82,27.82,0,0,0,2.63,1.35,69.18,69.18,0,0,1,6.93,3.61,63,63,0,0,0,8.18,4.14c.8.31,1.61.67,2.42,1,2.51,1.12,5.09,2.29,7.84,2.13.41,0,.83,0,1.24,0a49,49,0,0,1,6.28.54c1.75.23,3.55.46,5.37.53l.62,0a1.17,1.17,0,0,1,.94.8.64.64,0,0,1-.2.78c-5.16,4.22-11,7-17.1,10-2,1-4,1.92-5.92,2.93ZM195,627.43l0-.14-.14,0,.64-.1-2.52-16,22.42-1.73-18.3,18.09-.06-.06h-.41C196,627.49,195.47,627.46,195,627.43ZM128,536l-.11-.38.07-.06-.14-.17-.2-.71-.23.18L77.21,473l33.57,26.34,21.33,34.4-1,.22L149.57,614l-.06.2-1.13.81.84,1.18.73-.52.07.33,1.41-.32,0-.2,24.37,7.43c-2.93-.48-5.88-.85-8.78-1.21l-.86-.11a95.62,95.62,0,0,1-10.91-2l-1.32-.29c-2.36-.49-4.8-1-5.94-2.79a.72.72,0,0,1,.12-.88l.32-.41-.19-.49c-4.28-10.93-7.06-23-9.22-33.34-1.63-7.85-3.59-15.72-5.48-23.33-1.08-4.35-2.16-8.7-3.2-13.07C129.72,542.35,129,539.49,128,536ZM17.81,590.17l.9-.43.15.55,1.39-.38L20,589.1l17.62-8.51L37,579.28l-17.39,8.39L6,538l31,41.25.82,1.09L39,579.5,5.41,534.82l.26-.27,35.24,24.92.84-1.19-35-24.77L46.85,493l-4.63,63.67-.41.71.35.21,0,.68,0,.52,1.45.1.13-1.78,14.44-24.67.26.54,46.83-22.15-.62-1.31L58.85,531.18l26.31-44.91-1.25-.74-40,68.34L52.59,434l-.33,0,.07-.27c.28-1.11.56-2.22.86-3.32V431h.26l16,35.27-.6.24,1.11.87.49,1.07.56-.25,1.05.83,13.67,16.84,19.1,23.54,5.92,7.3c-.75-.83-1.5-1.66-2.25-2.48l-.68-.74-1.14-1.24-1.57,1.55.44.36a49,49,0,0,0-5.68,6c-.63.75-1.25,1.48-1.84,2.14a54.42,54.42,0,0,1-8.47,7.22c-3.51,2.6-7.26,5-10.89,7.27-2.93,1.85-6,3.77-8.87,5.81-3.59,2.53-7.39,4.93-11.07,7.25s-7.61,4.8-11.29,7.4c-.67.48-1.34.93-2,1.37a34.12,34.12,0,0,0-4,3c-1.51,1.33-1.21,2.9-1,4.16a10.32,10.32,0,0,1,.17,1,62.26,62.26,0,0,1-.54,12.88c0,.34-.07.68-.12,1l-.12,1,1,.07c3.34.25,6.71,1.49,10,2.7l1.19.44c4.73,1.71,9.82,3.41,15.14,5.05a1.06,1.06,0,0,1,.67,1.09.65.65,0,0,1-.57.68,57.49,57.49,0,0,1-10.23.82c-4,0-8.07-.29-12-.58-3.51-.25-7.14-.51-10.72-.57-2.33,0-4.69-.17-7-.3-2.55-.14-5.19-.29-7.81-.31A3.54,3.54,0,0,1,17.81,590.17ZM2.35,534.73a13.86,13.86,0,0,1,3.71-5.16l4.58-4.45c4.27-4.17,8.7-8.47,13.19-12.54,3.21-2.87,6.42-6,9-8.54.51-.51,1.17-1.06,1.87-1.66,1-.85,2.11-1.81,3.08-2.82a8.78,8.78,0,0,0,2.47-4c1.48-6.77,2.69-13.76,3.85-20.53l.48-2.78c1.81-10.33,3.71-20.94,6.08-31.36l-3.73,51.3-.64-.63L38,499.87l-35,35.27L4,536l14.36,52.3-1.78.86a7.12,7.12,0,0,1-1.46-2.5l0-.13-.22-.43c-3-5.22-4.58-11.33-6.11-17.25l-.72-2.77C5.92,558,3.91,550.28,2.32,542.22,1.65,538.84,1.66,536.67,2.35,534.73Z"/></g></g></g></svg>