<svg xmlns="http://www.w3.org/2000/svg" width="452" height="286" viewBox="0 0 452 286">
    <defs>
        <linearGradient id="a" x1="49.923%" x2="49.923%" y1="100.083%" y2=".021%">
            <stop offset="0%" stop-color="gray" stop-opacity=".25"/>
            <stop offset="54%" stop-color="gray" stop-opacity=".12"/>
            <stop offset="100%" stop-color="gray" stop-opacity=".1"/>
        </linearGradient>
    </defs>
    <g fill="none" fill-rule="nonzero">
        <path fill="url(#a)" d="M449.449 115.19c.333-.942-2.274-6.322-2.274-6.6 0-.276-2.773-3.271-2.773-4.935 0-1.664-3.605-5.269-3.605-5.269s-4.88-1.996-5.38-6.433c-.499-4.437-5.657-4.492-5.823-4.492 0 0 0-.389.056-.999 0-1.386-.056-3.826-.666-5.157-.61-1.22-1.72-2.108-2.995-2.552 0 0-.554-3.438-1.608-4.492-1.22-1.275-1.664-3.05-1.22-4.77.277-.942.055-2.662-.666-4.104-.554-1.164-1.442-2.107-2.606-2.384h-.111c-2.551-.61-5.38-1.553-5.38-1.553s-.277.055-.72.11l-.334-.11c-.61.11-1.22.166-1.83.222a2.433 2.433 0 0 1-1.497-.5c-.888-.998-8.042-2.828-9.373-2.828-1.331 0-5.158-1.775-5.158-1.775l-3.771-2.884c-1.054-.832-3.05-4.104-3.328-4.603l-.055-.055c-.278-.61-.5-1.276-.721-1.941-.056-.111-.056-.222-.111-.389.776-.831 1.497-1.663 2.107-2.606.167-.222.333-.5.5-.777l.665-1.164c.11-.167.166-.333.277-.5.167 0 .389-.055.555-.11l.222-.111c.222-.111.443-.222.61-.389l.166-.166c.5-.499.888-1.054 1.11-1.72.055-.166.11-.387.166-.554 0-.055.055-.11.055-.222 0-.11.056-.277.111-.388l.056-.222c0-.11.055-.277.055-.388v-.222c0-.166.056-.332.056-.499.055-.61.166-1.22.277-1.83.277-1.165.72-2.33 1.33-3.383.555-1.054 1.166-2.108 1.665-3.217.166-.333.277-.61.388-.943.11-.332.222-.72.333-1.053 0-.111.055-.222.055-.333.056-.277.111-.5.167-.777.055-.11.055-.221.055-.332.055-.389.11-.721.166-1.11.167-2.107-.11-4.214-.887-6.156-.666-1.663-1.664-3.105-2.33-4.77-.998-2.495-1.275-5.323-2.55-7.708-2.108-3.993-6.988-5.99-11.037-4.492-1.941.72-3.605 2.107-5.546 2.717-2.607.832-5.435.222-8.097-.166s-5.713-.388-7.876 1.33c-2.495 2.053-3.216 5.88-5.546 8.098-.554.5-1.164.998-1.83 1.386-.499.333-.943.666-1.386.999-.721.554-1.276 1.33-1.664 2.218 0 .056-.056.111-.056.167 0 .055-.055.166-.055.221 0 .056 0 .167-.055.278-.056.11 0 .11 0 .166v.444c0 .166.055.277.055.443v.111c0 .056.055.278.11.389v.055c.056.111.112.277.167.388 0 .056.056.111.056.222.055.056.055.111.055.166.333.666.61 1.332.832 2.053.111.443.056.942-.11 1.33-.112.222-.223.389-.334.61-.166.222-.388.5-.61.666-1.774 1.83-3.105 3.993-3.993 6.378-.11.277-.166.555-.277.832l.11.055h.112c.222.056.443.111.665.111.167 0 .278.056.444.056.61.055 1.22 0 1.83-.167.111 0 .222-.055.277-.055h.167c.499-.111.998-.277 1.442-.5l.333-.166v2.053a20.947 20.947 0 0 0 10.648 16.97c.333.167.61.333.943.5 0 .166.055.388.055.554 0 .166.056.333.056.5l-.222-.223c-.222-.11-.444-.11-.666-.11-.388 0-.72.11-1.053.277-.555.332-1.054.776-1.387 1.33-1.497 2.275-4.326 3.328-4.326 3.328s-16.083 2.551-16.693 4.659l-7.543.444s-2.662.332-2.94 5.878v.111c-.055.666-.11 1.22-.166 1.775v.056c-.443 3.66-1.497 4.104-1.497 4.104s-3.106 5.435-2.829 8.263v.056c.056.388 0 .776-.055 1.109-.333 1.275-1.165 2.33-2.33 2.995l-.332 4.991s-2.94-.444-3.716 2.995c-.776 3.438-2.218 4.991-2.218 4.991s-4.88 4.049-5.103 7.487l-2.995 1.83s-6.987-1.608-8.596-4.38c0 0-.166-.167-.499-.444l-.055-.056v.056c-1.054-.999-3.273-3.05-2.94-2.552.222.444.277.943.167 1.442l-.5-.554-1.386-1.553s-1.997-1.886-4.77-4.104c-.665-.5-1.33-1.054-2.052-1.553-3.605-2.662-7.875-5.324-11.092-5.768-.055-.11-.332-1.11-.943-1.11-.277 0-.499.167-.665.334-3.771 3.438-3.993 9.262-.555 13.033l.5.499.72.665 2.274 2.108 7.598 7.099c.111.055.167.11.278.222l.443.554.333.444.61.776.888 1.11c-.056.11-.111.221-.111.332-.333.777-.61 1.553-.832 2.274v.056l-.167.499c0 .055-.055.11-.055.166l-.167.5c-.055.166-.055.221-.055.277 0 .055-.055.11-.055.166-.278.887-.389 1.553-.5 1.941l-.61-.166.555.277v.111l-.055.166c.166.056.332.167.554.222l.111.056 2.163.942c.444.222.943.389 1.442.61.5.222.887.389 1.386.61 5.657 2.552 13.644 6.157 14.198 6.878.888 1.164 6.71 4.492 12.035 1.663 5.324-2.828 6.433-7.098 6.433-7.098s5.158-7.1 5.325-8.153c.11-.832 2.495-1.72 3.605-2.108l.11-.055.444-.166v1.33c0 2.496-.055 7.876-.832 11.758v.056c-.166.998-.443 1.996-.887 2.939-2.052 4.326-5.823 23.349-5.823 23.349h.11c.222-.056.444-.056.666-.056-.055.333-.11.61-.166.832-.056.222-.056.278-.056.278h.056c.221-.056.443-.056.665-.056h.222c0 .111-.055.222-.055.388v.111s-.056.167-.056.277c-.444 3.162-1.775 11.425-1.775 11.425s-.554 4.548-1.442 6.156c-.388.666-.61 2.552-.72 4.437 0 .277-.056.555-.056.832-.166 2.33-.166 4.548-.166 4.548l-.056.166-1.275 5.934c0 .056.055.111.055.167.11.166.222.499.444.832l.055.166c.777 1.608 1.83 3.05 3.05 4.326.278.277.61.555.943.776 0 .056 0 .111-.055.167-.056.055-.056.222-.056.333-.11.776-.332 1.497-.61 2.218a7.519 7.519 0 0 0-.61 2.44c-.055.61-.11 1.22-.055 1.775l-.056.333c-.166.887-.72 3.55-1.053 5.712-.056.5-.111.998-.167 1.387a4.495 4.495 0 0 0 0 1.22c.056.72 0 1.386-.11 2.052 0 .222-.056.388-.056.61a48.825 48.825 0 0 1-.777 3.993l-1.608 15.251V233.986c0 .111 0 .278-.055.388 0 .389-.056.777-.111 1.276 0 .166 0 .388-.056.555 0 .166 0 .332-.055.554v1.553c-.056.832-.111 1.72-.167 2.607v.887c0 .277 0 .555-.055.832v5.657c0 .61.055 1.165.11 1.775.056.443.112.887.112 1.33V254.896a30.897 30.897 0 0 1-.444 3.716v.554c0 .111.055.333.055.5v.277c0 .11 0 .221.056.332.055.111 0 .111 0 .167 0 .222.055.388.055.61 0 .222.056.443.056.665l.055.444c0 .222.056.444.056.666v.221c0 .167.055.278.055.444l.056.666c0 .166.055.277.055.443v.222l.056.887v.444c0 .222.055.444.055.666 0 .221 0 .499.056.72.055.222 0 .444.055.666.055.61.055 1.276 0 1.886-.166.61-.61 2.385-.887 4.326 0 .166-.056.332-.056.499v.333l-.055.443c0 .333-.056.666-.056.999 0 .72.056 1.497.278 2.218.11.5.221.943.277 1.442v.222c0 .166.055.388.055.554 0 .167 0 .389.056.555 0 .388.055.776.055 1.22v.832c.056 2.33-.055 4.603-.11 5.213v.166s.554 9.873 1.164 12.978c.055.444.11.832.166 1.276v.499c.056 1.83-.055 3.66-.388 5.435 0 0-.61 6.766-.887 6.766-.111 0-.721 1.054-.777 2.607v.055c-.055 1.775.444 4.16 2.884 6.545l.278.277.332-.111a439.86 439.86 0 0 0 7.765-2.884c1.386-.555 2.717-1.054 4.104-1.608a415.466 415.466 0 0 0 9.983-4.104c-.167-.056-.278-.222-.333-.389-.5-1.386.277-5.546.388-6.211.111-.666 1.608-14.309 1.608-14.309s-.554-4.326.167-6.156c.72-1.83-.888-8.984-.888-8.984s-.554-.888.444-1.942c.998-1.053.61-10.426.61-10.426s-.11-4.77-.11-5.99c0-1.22 1.053-5.712 2.051-7.21.999-1.497.388-6.156.388-6.156l.056-.332c0-.111.055-.278.055-.5l.111-.443a75.857 75.857 0 0 1 1.72-7.654c1.164-3.715 2.495-10.204 2.495-10.204l7.765-20.742.277-.666.11-.277s3.772 7.043 3.772 13.532c0 0 .999 7.82.721 9.927-.277 2.108.777 12.035.777 12.035s1.164 14.253 1.164 14.864c0 .61 1.442 11.535 2.33 13.2.887 1.663-.888 6.765-1.387 7.32-.499.554.167 13.421.167 13.421s-1.332 10.205-1.609 12.312c-.055.389-.11.943-.222 1.664 8.874-4.27 17.637-8.763 26.122-13.643.388-.222.721-.388 1.11-.61l.055-12.59s.61-5.878-.111-8.263-1.442-6.933-.444-8.153c.998-1.22.111-6.932.111-6.932s0-12.035 1.331-15.03c1.331-2.995.887-21.851.887-21.851l.333-12.368s2.829-2.662 2.219-16.527v-.444c3.105-.166 6.544-.277 7.098.111.832.666 5.602 3.772 9.262 2.995a4.23 4.23 0 0 0 1.72-.72c.776-.334 4.436-3.44 4.436-3.44l-1.386-23.68-.166-2.663c.277.388.499.776.72 1.11.555.831.888 1.386.888 1.386 0-3.66 10.426-15.64 10.426-15.64s9.761-12.534 11.869-14.087c2.107-1.553 6.267-9.428 6.267-9.428a39.827 39.827 0 0 1 2.107-4.381c.777-1.276-2.44-5.547-2.107-6.49zm-31.113 16.86c-.167.888-.61 1.664-1.165 2.385-.055-.554-.11-1.053-.11-1.608v-.166c-.61-7.71-1.276-17.082-1-18.025.223-.72.334-2.662.39-4.548.055-2.107 0-4.16 0-4.16l.11-.11c1.775 5.546 7.32 12.035 7.32 12.035s.999 2.828 2.108 2.884c1.11.055.721 3.66.721 3.66-.554.111-1.054.277-1.497.555-.555.332-1.054.665-1.553 1.053-2.607 1.997-5.269 5.158-5.324 6.046z"/>
        <path fill="#65617D" d="M284.843 122.456s3.217-16.915 13.588-17.026l7.598 15.584-5.102 3.494s-10.981.333-16.084-2.052z"/>
        <path fill="#000" d="M305.973 121.014l-5.102 3.494s-7.709.222-13.255-1.11a15.393 15.393 0 0 1-2.828-.942s0-.111.055-.277v-.056c.5-2.107 1.11-4.215 1.941-6.211.333-.777.666-1.553 1.054-2.33 1.497-2.94 3.66-5.768 6.6-7.21 1.054-.554 2.274-.831 3.438-.887h.499l.167.333 2.551 5.269 4.88 9.927z" opacity=".1"/>
        <path fill="#65617D" d="M392.103 191.282s10.926-1.054 11.869-.277c.942.776 7.154 4.825 10.814 2.274 3.66-2.552 1.22-11.314 1.22-11.703 0-.388-.332-12.81-.332-12.81l-6.545-8.819-8.208-15.418-16.749-1.664.444 24.514-.111 12.534 7.598 11.369z"/>
        <path fill="#000" d="M392.103 191.282s10.926-1.054 11.869-.277c.942.776 7.154 4.825 10.814 2.274 3.66-2.552 1.22-11.314 1.22-11.703 0-.388-.332-12.81-.332-12.81l-6.545-8.819-8.208-15.418-16.749-1.664.444 24.514-.111 12.534 7.598 11.369z" opacity=".1"/>
        <path fill="#A5636D" d="M296.213 104.986s-.832 10.648-7.488 10.815c0 0-1.885-1.11-4.381-3.05-5.823-4.382-15.085-12.756-12.478-20.52 3.66-11.148 21.463 9.427 21.463 9.427l1.386 1.553 1.498 1.775z"/>
        <path fill="#000" d="M296.213 104.986s-.832 10.648-7.488 10.815c0 0-1.885-1.11-4.381-3.05l-.555-.722c1.11.61 2.385.943 3.605.999 1.664.055 3.55-.555 4.714-2.995a31.244 31.244 0 0 0 1.83-4.215c.333-.832.555-1.72.666-2.607l1.609 1.775z" opacity=".1"/>
        <path fill="#E7EFFD" d="M293.329 124.23l-1.498-1.94-4.991-6.434-2.607-3.327c1.11.61 2.385.942 3.605.998 1.664.055 3.55-.555 4.714-2.995a31.244 31.244 0 0 0 1.83-4.215c.832-2.33.832-3.55.5-3.993-.333-.444 1.83 1.608 2.883 2.551l.056.056.499.443.166.333 2.496 5.047v.222c.333 1.664 1.165 11.813-7.653 13.255z"/>
        <path fill="#3F3D56" d="M343.964 317.121c-.167-.11-.333-.277-.5-.333h-.055c-1.054-.443-.11-5.823.111-6.544.222-.721 1.553-14.198 1.553-14.198s-.5-4.27.166-6.1-.887-8.874-.887-8.874-.5-.887.444-1.941c.942-1.054.61-10.371.61-10.371s-.111-4.714-.111-5.934c0-1.22 1.053-5.657 1.996-7.155.943-1.497.333-6.1.333-6.1l.056-.333c0-.111.055-.278.055-.5l.11-.443c0-.111.056-.222.056-.333.056-.277.111-.554.167-.887.055-.222.055-.388.11-.61.112-.666.278-1.387.444-2.163.056-.222.111-.444.167-.721a4.62 4.62 0 0 1 .222-.832c.055-.166.11-.333.11-.5.111-.498.278-.997.444-1.497 1.11-3.66 2.44-10.093 2.44-10.093l8.098-21.297.11-.277.278.499c.832 1.72 3.494 7.487 3.494 12.922 0 0 .943 7.764.72 9.872-.221 2.107.777 11.924.777 11.924s1.11 14.142 1.11 14.752c0 .61 1.386 11.536 2.273 13.144.888 1.609-.887 6.711-1.386 7.21-.5.5.166 13.366.166 13.366s-1.33 10.094-1.553 12.201c-.055.5-.166 1.331-.277 2.385l.665-.333.111-.055c8.874-4.27 17.637-8.763 26.122-13.643l.056-13.366s.61-5.824-.111-8.208c-.721-2.385-1.387-6.877-.444-8.098.943-1.22.11-6.877.11-6.877s0-11.924 1.276-14.918c1.276-2.995.888-21.74.888-21.74l.333-12.313s2.828-2.717 2.163-16.86a88.512 88.512 0 0 0-.333-4.936c-.5-5.324-.998-10.149-1.442-14.364-.056-.388-.056-.72-.111-1.054-.056-.443-.111-.942-.166-1.386-.111-.943-.222-1.886-.333-2.718-.056-.277-.056-.499-.111-.776-.167-1.22-.277-2.385-.388-3.439-.056-.388-.111-.832-.167-1.22-.055-.554-.11-1.109-.222-1.608 0-.111-.055-.222-.055-.388 0-.222-.056-.444-.056-.61-.277-2.274-.443-3.494-.443-3.494h-.056l-8.762.055-19.134.166h-.555l-9.983.111h-.61l-4.77.056h-.831l-9.983.11h-.61l-4.104 16.916-8.374 19.19s-.111 2.107-.444 4.159v.11c0 .056 0 .112-.056.223-.055.11-.055.221-.055.332a9.388 9.388 0 0 1-.721 2.718c-.277.61-.444 1.275-.555 1.94-.11.722-.166 1.387-.11 2.108v.111s-.666 3.05-1.054 5.602c-.056.499-.111.998-.167 1.386-.055.555-.11 1.11-.055 1.609.055.554 0 1.109-.056 1.663 0 .222-.055.389-.055.61-.277 2.053-.832 4.326-.832 4.326l-1.553 15.196V234.374c0 .111 0 .278-.055.389 0 .388-.056.776-.111 1.275 0 .167 0 .389-.056.555 0 .166 0 .333-.055.554v1.553c-.056.832-.111 1.72-.111 2.607v.887c0 .278 0 .555-.056.832v5.713c0 .61.056 1.22.111 1.83.056.388.111.832.111 1.275V255.338a30.897 30.897 0 0 1-.443 3.716v.554c0 .112.055.334.055.5v.277c0 .111 0 .222.056.333.055.111 0 .111 0 .166 0 .222.055.389.055.61 0 .222.055.444.055.666l.056.444c0 .222.055.443.055.665v.222c0 .166.056.277.056.444l.055.665c0 .167.056.278.056.444v.222l.055.887v.444c0 .222.056.443.056.665 0 .222 0 .5.055.721.056.222 0 .444.056.666.055.61.055 1.22 0 1.83a38.298 38.298 0 0 0-.888 4.381c0 .167-.055.333-.055.5v.332l-.056.444c0 .333-.055.665-.055.998 0 .721.055 1.387.277 2.108.167.61.277 1.22.277 1.83.056.333.056.72.111 1.11.056.387.056.776.056 1.22v.831c.055 2.662-.111 5.158-.111 5.158v.111c.055 1.109.555 9.872 1.11 12.811.11.5.166 1.054.166 1.553v.5c.055 1.718-.111 3.438-.389 5.101 0 0-.832 6.767-1.053 6.767-.111 0-.777 1.22-.777 3.05v.055c0 1.72.666 3.883 2.884 6.101l.61.61a439.86 439.86 0 0 0 7.765-2.884c1.386-.554 2.717-1.054 4.104-1.608a415.466 415.466 0 0 0 9.982-4.104l.278-.333z"/>
        <path fill="#A5636D" d="M389.663 55.127l-12.922 13.81s-16.583-6.655-14.808-8.874c.665-.887.554-3.66.166-6.71-.61-4.825-1.941-10.371-1.941-10.371s28.95-4.715 26.51.166c-.887 1.775-.721 3.882-.166 5.768.72 2.218 1.83 4.27 3.16 6.211z"/>
        <path fill="#000" d="M386.723 43.093c-.887 1.774-1.33 1.94-.776 3.882-3.771 4.048-8.596 8.485-14.586 8.485-3.217 0-6.378-.72-9.262-2.163-.61-4.825-1.941-10.37-1.941-10.37s29.006-4.715 26.565.166z" opacity=".1"/>
        <path fill="#A5636D" d="M392.103 34.163c0 11.48-9.262 20.743-20.742 20.798-11.48 0-20.742-9.262-20.798-20.742v-.056-.277c.278-11.48 9.761-20.52 21.186-20.298 11.314.222 20.299 9.372 20.354 20.575z"/>
        <path fill="#000" d="M395.153 171.094c-2.773 0-11.924.111-22.128.278h-.111l-3.383.055h-.167c-12.145.167-24.07-2.163-28.894-1.719-10.205.943 3.66-9.428 3.66-9.428 7.598 1.83 15.418 2.662 23.238 2.33l2.94-.167c9.261-.5 18.578-1.387 23.459-2.829.388 2.662.887 6.6 1.386 11.48z" opacity=".1"/>
        <path fill="#5F5D7E" d="M395.153 170.54c-2.773 0-11.924.11-22.128.277h-.111l-3.383.056h-.167c-12.145.166-24.07-2.163-28.894-1.72-10.205.943 3.66-9.428 3.66-9.428a86.192 86.192 0 0 0 23.238 2.33l2.94-.167c9.261-.499 18.578-1.386 23.459-2.828.388 2.717.887 6.655 1.386 11.48z"/>
        <path fill="#000" d="M365.815 60.895l-16.028 7.487-12.368 95.725s7.321-3.328 11.536-1.22c4.215 2.107 17.082.166 17.082.166s9.428-.555 10.815.499c1.386 1.054 17.802-4.381 17.802-4.381s2.94-6.656.666-7.654c-2.274-.998.72-11.37.72-11.37L394.655 71.1l-2.773-8.874-7.487-4.547-7.653 6.1-3.66.555-7.266-3.439z" opacity=".1"/>
        <path fill="#E7EFFD" d="M365.815 59.786l-16.028 7.487-12.423 95.78s7.32-3.328 11.536-1.22c4.215 2.107 17.081.166 17.081.166s9.429-.5 10.815.5c1.387.997 17.803-4.382 17.803-4.382s2.94-6.6.665-7.654c-2.274-1.053.721-11.314.721-11.314L394.6 70.102l-2.773-8.874-7.487-4.548-7.654 6.1-3.66.5-7.21-3.494z"/>
        <path fill="#000" d="M365.538 64.278s4.603 5.49 4.547 6.655c-.055 1.165-.277 3.827-.277 3.827l-3.438 7.044s-1.942 8.818-1.942 10.648-3.05 17.692-3.05 17.692l-3.66 24.402-4.603 32 4.714 8.098 5.601-4.714 7.432-57.013 1.553-11.259s1.664-20.243 1.664-22.295c0-2.052-.943-7.598-.943-7.598s1.109-5.213 5.823-6.433c4.714-1.22-.333-.277-.333-.277l-2.717-2.163-2.33.943c-.055 0-6.655-1.997-8.041.443z" opacity=".1"/>
        <path fill="#FDBD3E" d="M365.039 63.724s4.603 5.49 4.547 6.6c-.055 1.109-.277 3.826-.277 3.826l-3.494 7.044s-1.941 8.818-1.941 10.648-3.05 17.692-3.05 17.692l-3.66 24.402-4.604 32 4.714 8.098 5.602-4.714 7.431-57.013 1.553-11.259s1.664-20.243 1.664-22.295c0-2.052-.943-7.598-.943-7.598s1.11-5.213 5.823-6.433c4.715-1.22-.332-.277-.332-.277l-2.718-2.163-2.33.943c-.055.055-6.599-1.942-7.985.499z"/>
        <path fill="#000" d="M361.988 54.573s-.72.499-.887 3.993c-.167 3.494-2.607 11.314-2.607 11.314s9.04-6.267 13.588-5.602l-10.094-9.705z" opacity=".1"/>
        <path fill="#E7EFFD" d="M361.988 53.519s-.72.555-.887 3.993c-.167 3.439-2.607 11.314-2.607 11.314s9.04-6.267 13.588-5.601l-10.094-9.706z"/>
        <path fill="#000" d="M386.723 51.8L372.47 64.334s12.035 7.154 13.588 8.873c1.553 1.72 3.161-17.081 3.161-17.081l-2.496-4.326z" opacity=".1"/>
        <path fill="#E7EFFD" d="M387.223 50.746l-14.31 12.534s12.036 7.154 13.589 8.874c1.552 1.719 3.16-17.082 3.16-17.082l-2.44-4.326z"/>
        <path fill="#000" d="M362.487 54.573s-1.553-.777-3.05 1.497c-1.497 2.274-4.27 3.328-4.27 3.328S339.305 61.949 338.695 64l-7.432.444s-2.606.332-2.884 5.878c-.277 5.546-1.663 5.99-1.663 5.99s-3.05 5.435-2.773 8.208c.277 2.773-2.33 4.16-2.33 4.16l10.926 28.284s.333 11.702-1.664 15.973c-1.996 4.27-5.768 23.182-5.768 23.182s1.553-.333 1.498.721c-.056 1.054-1.941 12.479-1.941 12.479s-.5 4.547-1.387 6.1-.943 9.761-.943 9.761l-1.442 5.935s3.328 7.431 8.375 6.377c5.047-1.053 14.198-20.853 14.198-20.853l5.823-21.352 4.548-21.075 1.33-14.308 2.108-31.668 3.05-20.908c-.055 0 3.383-11.259 2.163-12.756z" opacity=".1"/>
        <path fill="#65617D" d="M361.988 53.519s-1.553-.776-3.05 1.497c-1.498 2.274-4.27 3.328-4.27 3.328s-15.862 2.551-16.472 4.603l-7.432.444s-2.606.333-2.884 5.823c-.277 5.49-1.664 6.045-1.664 6.045s-3.05 5.435-2.773 8.208c.278 2.773-2.329 4.16-2.329 4.16l10.87 28.34s.333 11.702-1.664 15.973c-1.996 4.27-5.767 23.182-5.767 23.182s1.553-.333 1.497.72c-.055 1.055-1.941 12.48-1.941 12.48s-.5 4.547-1.387 6.1-.942 9.761-.942 9.761l-1.387 5.934s3.328 7.432 8.375 6.378c5.046-1.054 14.197-20.853 14.197-20.853l5.824-21.352 4.547-21.075 1.276-14.308 2.108-31.668 3.05-20.909s3.383-11.314 2.218-12.811z"/>
        <path fill="#000" d="M305.973 121.014l-5.102 3.494s-7.709.222-13.255-1.11l-2.828-1.22-.555-.277.555.167c2.94.887 5.213.832 6.988.277 7.154-2.385 6.378-14.198 6.1-16.915 0-.278-.055-.444-.055-.5v-.055l.055.056c.111.166.222.332.333.443l.333.333 2.496 5.047v.222l4.935 10.038z" opacity=".1"/>
        <path fill="#65617D" d="M323.499 86.961l-2.44.721-.333 4.992s-2.884-.444-3.66 2.995c-.777 3.438-2.163 4.991-2.163 4.991s-4.825 3.993-5.047 7.432l-2.94 1.83s-6.877-1.553-8.43-4.381c0 0 3.162 22.516-13.587 17.026 0 0 18.745 8.208 19.633 9.317.887 1.11 6.655 4.437 11.868 1.664 5.213-2.773 6.378-7.154 6.378-7.154s5.047-7.044 5.213-8.098c.167-1.053 4.104-2.273 4.104-2.273l7.487-18.136L323.5 86.961z"/>
        <path fill="#000" d="M384.727 62.226l2.551-11.535s1.11 3.77 2.274 4.603c1.165.887 3.771 2.884 3.771 2.884s3.771 1.719 5.047 1.719c1.276 0 8.375 1.83 9.262 2.773.887.943 4.381.277 4.381.277s2.884.943 5.435 1.553c2.552.61 3.772 4.77 3.217 6.433-.444 1.664.055 3.439 1.22 4.715 1.054 1.053 1.553 4.436 1.553 4.436 1.276.444 2.33 1.331 2.94 2.552.887 1.94.61 6.1.61 6.1l-12.978 18.302s.166 7.043-.333 8.652c-.5 1.608 1.83 28.229 1.83 28.229l2.718 45.866s-3.55 3.05-4.382 3.383c-.831.332-1.552-16.195-1.552-16.805 0-.61-20.132-30.17-20.132-30.17s-2.718-4.381-2.718-5.324c0-.943-2.551-9.761-2.551-9.761l-3.827-16.971 1.664-51.91z" opacity=".1"/>
        <path fill="#65617D" d="M427.986 87.849c0 .61-.056.998-.056.998l-12.977 18.302s.166 7.043-.333 8.652c-.333.887.388 10.315.998 18.024.444 5.546.832 10.26.832 10.26l1.165 19.467 1.553 26.399s-3.55 3.05-4.326 3.383c-.777.333-1.553-16.194-1.553-16.804 0-.61-20.132-30.17-20.132-30.17s-2.718-4.382-2.718-5.325c0-.943-2.55-9.76-2.55-9.76l-3.828-16.972 1.72-51.966 1.497-11.536s2.163 3.772 3.328 4.604c1.164.832 3.77 2.884 3.77 2.884s3.772 1.719 5.048 1.719c1.275 0 8.374 1.83 9.262 2.773.887.943 4.381.277 4.381.277s2.884.943 5.38 1.553c2.495.61 3.77 4.77 3.216 6.433-.443 1.664.056 3.439 1.22 4.715 1.054 1.053 1.553 4.436 1.553 4.436 1.276.444 2.33 1.331 2.94 2.552.61 1.33.665 3.715.61 5.102z"/>
        <path fill="#000" d="M375.021 274.75s10.371 2.44 10.981 4.103l-10.98-4.104zM335.035 282.237s-5.435 1.552-.167 4.714c5.269 3.16.167-4.714.167-4.714zM358.993 198.436c.61 0 10.094-3.16 13.422-1.719 3.327 1.442 7.431 1.387 7.431 1.387l-20.853.332zM360.269 208.42l-.111.887-8.153 21.24s-1.33 6.434-2.44 10.094a68.64 68.64 0 0 0-1.72 7.599l7.21-44.646 5.214 4.825z" opacity=".1"/>
        <path fill="#3F3D56" d="M372.858 170.817l-3.383.056h-.11l-1.997-8.819c.998-.055 1.941-.11 2.94-.166l2.55 8.93z"/>
        <path fill="#A5636D" d="M414.01 160.169l-2.163 1.775-7.21 5.99s-19.633 10.481-25.012.498c-4.77-8.762 17.47-15.03 22.85-16.36.72-.167 1.164-.278 1.164-.278l10.37 8.375z"/>
        <path fill="#000" d="M330.21 74.427s3.826 1.72 4.714 4.16c.887 2.44-4.714-4.16-4.714-4.16zM318.341 100.605s-5.601 6.821-3.328 9.428c2.274 2.607 3.328-9.428 3.328-9.428zM418.114 78.31s-5.213.499-5.435 5.047l5.435-5.047zM369.642 149.798c.554-.5 12.534-18.302 15.362-16.75l-15.362 16.75zM392.103 34.163c0 3.439-.832 6.767-2.44 9.817h-.167c-1.33-.277-1.996-1.83-2.994-2.773-1.276-1.22-3.162-1.442-4.715-.666-1.552.943-2.44 2.662-2.329 4.493-.665-2.773-.444-5.768-1.109-8.541-.666-2.773-2.607-5.602-5.269-5.657-1.164 0-2.495.444-3.327-.444-.5-.499-.61-1.33-.999-1.996-1.94-3.106-7.709-1.553-10.093.055-2.385 1.608-5.103 4.104-8.098 5.49.278-11.48 9.761-20.52 21.186-20.298 11.314.222 20.299 9.317 20.354 20.52z" opacity=".1"/>
        <path fill="#4C3E42" d="M368.81 27.841c.388.61.499 1.442.998 1.997.832.831 2.163.443 3.328.443 2.662.056 4.603 2.884 5.268 5.657.666 2.773.444 5.768 1.11 8.541-.167-1.83.776-3.55 2.329-4.492 1.553-.832 3.438-.555 4.714.665.998.943 1.664 2.496 2.995 2.773 1.33.278 2.607-.998 3.05-2.385.444-1.386.444-2.883.721-4.325.61-2.718 2.385-4.936 3.328-7.543 1.164-3.161 1.164-6.6-.111-9.761-.666-1.664-1.608-3.106-2.274-4.77-.998-2.495-1.276-5.268-2.496-7.653-2.052-3.938-6.877-5.934-10.87-4.437-1.886.721-3.55 2.108-5.49 2.718-2.552.832-5.325.222-7.987-.167-2.662-.388-5.601-.388-7.764 1.331-2.496 1.997-3.161 5.824-5.435 8.042-.998.943-2.163 1.553-3.217 2.385-.998.887-1.941 2.163-1.775 3.55.167 1.83 1.941 3.438 1.276 5.102-.222.499-.555.942-.998 1.275a18.217 18.217 0 0 0-4.215 7.21c4.658 1.442 9.705-3.66 13.366-6.1 2.44-1.609 8.263-3.162 10.149-.056z"/>
        <path fill="#000" d="M414.01 160.169l-2.163 1.775c-1.886-3.217-9.761-9.54-9.761-9.54l.333-.332c.72-.167 1.164-.278 1.164-.278l10.427 8.375z" opacity=".1"/>
        <path fill="#E7EFFD" d="M416.117 156.952s-.776 1.941-1.608 3.605c-.832 1.664-1.664 3.217-1.72 1.941-.11-2.44-10.204-10.648-10.204-10.648l1.387-1.331 1.608-1.553 10.537 7.986z"/>
        <path fill="#000" d="M416.45 144.03l1.165 19.466c-2.718-4.215-10.15-15.03-14.919-14.641l11.591-13.31c.5-.555.943-1.11 1.331-1.72.444 5.49.832 10.205.832 10.205z" opacity=".1"/>
        <path fill="#000" d="M416.117 156.952s-.776 1.941-1.608 3.605c-3.05-4.16-7.21-9.095-10.537-9.983l1.608-1.553 10.537 7.931z" opacity=".1"/>
        <path fill="#65617D" d="M424.825 86.407l3.16 2.44s5.214.111 5.769 4.437c.554 4.326 5.324 6.378 5.324 6.378s3.55 3.55 3.55 5.213c0 1.664 2.717 4.603 2.717 4.88 0 .278 2.606 5.602 2.274 6.545-.333.943 2.773 5.158 1.83 6.71a39.827 39.827 0 0 0-2.108 4.382s-4.104 7.82-6.211 9.317c-2.108 1.498-11.702 13.92-11.702 13.92s-10.316 11.87-10.316 15.53c0 0-10.038-16.75-15.972-16.306l11.59-13.31s1.997-2.163 2.108-3.494c.111-1.331 5.602-7.32 8.208-7.598 0 0 .444-3.605-.72-3.66-1.165-.056-2.108-2.884-2.108-2.884s-7.654-9.096-7.765-14.808c-.11-5.713 10.372-17.692 10.372-17.692z"/>
        <path fill="#000" d="M429.428 94.726s-7.321 5.38-5.768 7.154c1.553 1.775 5.768-7.154 5.768-7.154zM429.816 117.02s13.588-4.38 14.974 0h-14.974zM333.87 93.617s0 19.854-1.72 21.851c-1.719 1.997 1.72-21.851 1.72-21.851zM412.457 100.05l2.551 7.099c-.055 0 .943-6.988-2.551-7.099z" opacity=".1"/>
        <g fill="#000" opacity=".1">
            <path d="M350.84 23.848c.666-1.664-1.053-3.217-1.275-4.992-.222.5-.333 1.054-.277 1.553.11 1.331 1.11 2.551 1.33 3.772.112-.111.167-.222.223-.333zM379.735 42.593c-.61-2.773-.443-5.657-1.053-8.43-.61-2.773-2.607-5.656-5.269-5.656-1.165 0-2.496.443-3.328-.444-.499-.5-.61-1.331-.998-1.997-1.886-3.106-7.709-1.553-10.094.056-3.55 2.385-8.485 7.32-13.033 6.211-.222.555-.443 1.054-.61 1.609 4.659 1.442 9.706-3.66 13.366-6.101 2.385-1.608 8.208-3.161 10.094-.055.388.61.499 1.441.998 1.996.832.832 2.163.444 3.328.444 2.662.055 4.603 2.884 5.268 5.657.666 2.773.444 5.768 1.11 8.54-.056-.554 0-1.22.221-1.83zM392.824 39.321c-.5 1.387-1.72 2.662-3.05 2.385-1.331-.277-1.997-1.83-2.995-2.773-1.276-1.22-3.161-1.442-4.714-.666a4.719 4.719 0 0 0-2.33 4.215 4.343 4.343 0 0 1 2.052-2.495c1.553-.832 3.439-.555 4.715.665.998.943 1.663 2.496 2.994 2.773 1.331.278 2.607-.998 3.05-2.385.223-.831.389-1.663.5-2.495-.056.277-.111.554-.222.776zM396.928 27.453c-.998 2.606-2.773 4.825-3.328 7.542-.11.555-.166 1.11-.277 1.664.61-2.717 2.385-4.936 3.328-7.487.443-1.165.72-2.385.776-3.605-.055.61-.277 1.276-.499 1.886z"/>
        </g>
        <circle cx="270.923" cy="90.4" r="1" fill="#E6E8EC"/>
        <path fill="#3ACC6C" d="M287.062 76.757l-22.74-22.85c-4.658-4.77-12.311-4.825-17.08-.166l-.056.055-142.81 141.535-60.396-60.84c-4.659-4.714-12.312-4.77-17.026-.111l-22.96 22.739c-4.715 4.714-4.77 12.367-.112 17.137l91.676 92.396c4.714 4.714 12.367 4.77 17.137.111l174.2-172.924c4.77-4.66 4.88-12.313.222-17.082-.055.055-.055 0-.055 0z"/>
    </g>
</svg>
