<svg xmlns="http://www.w3.org/2000/svg" width="151" height="252" viewBox="0 0 151 252">
    <defs>
        <linearGradient id="a" x1=".003%" x2="99.999%" y1="50.005%" y2="50.005%">
            <stop offset="0%" stop-color="gray" stop-opacity=".25"/>
            <stop offset="54%" stop-color="gray" stop-opacity=".12"/>
            <stop offset="100%" stop-color="gray" stop-opacity=".1"/>
        </linearGradient>
    </defs>
    <g fill="none" fill-rule="evenodd">
        <path fill="#F5F5F5" fill-rule="nonzero" d="M150.526 37.02l-17.396-5.257-1.071 23.79 18.307 5.517zM28.069 0v24.206l103.99 31.346 1.07-23.79z"/>
        <path fill="#000" fill-rule="nonzero" d="M150.526 37.02l-17.396-5.257-1.071 23.79 18.307 5.517z" opacity=".1"/>
        <path fill="#3AD29F" fill-rule="nonzero" d="M150.526 82.586l-17.396-5.258-1.071 23.79 18.307 5.517zM28.069 45.565v24.206l103.99 31.346 1.07-23.789z"/>
        <path fill="#000" fill-rule="nonzero" d="M150.526 82.586l-17.396-5.258-1.071 23.79 18.307 5.517z" opacity=".1"/>
        <path stroke="#FFF" stroke-linecap="round" d="M137.551 90.973l2.847 4.27 5.697-7.12"/>
        <g stroke="#FFF" stroke-linecap="round" opacity=".4">
            <path d="M137.708 41.134l5.697 9.968M144.829 42.558l-7.12 7.12"/>
        </g>
        <path fill="#F5F5F5" fill-rule="nonzero" d="M150.526 125.304l-17.396-5.258-1.071 23.79 18.307 5.517zM28.069 88.283v24.206l103.99 31.347 1.07-23.79z"/>
        <path fill="#000" fill-rule="nonzero" d="M150.526 125.304l-17.396-5.258-1.071 23.79 18.307 5.517z" opacity=".1"/>
        <g stroke="#FFF" stroke-linecap="round" opacity=".4">
            <path d="M137.708 129.418l5.697 9.967M144.829 130.841l-7.12 7.121"/>
        </g>
        <ellipse cx="99.975" cy="78.158" fill="#000" fill-rule="nonzero" opacity=".3" rx="3.559" ry="7.121"/>
        <ellipse cx="99.975" cy="78.158" fill="#FDBD3E" fill-rule="nonzero" opacity=".1" rx="29.903" ry="59.804"/>
        <ellipse cx="99.975" cy="78.158" fill="#FFF" fill-rule="nonzero" opacity=".1" rx="16.374" ry="32.75"/>
        <path fill="url(#a)" fill-rule="nonzero" d="M102.416 41.291c-1.462-4.386-10.154 1.543-10.154 1.543l-.715.961-15.45 20.885-37.855-21.16v-9.462A13.145 13.145 0 0 0 49.75 18.756c1.905-.734 3.456-2.318 4.886-3.848 1.318-1.4 2.729-3.1 2.594-4.966a3.453 3.453 0 0 0-.051-.891c-.302-1.574-1.725-2.722-3.232-3.27-1.507-.549-3.136-.642-4.71-.962-3.751-.734-7.14-2.693-10.798-3.803a24.565 24.565 0 0 0-5.1-.961c-1.242-.103-2.534-.103-3.669.407-1.244.56-2.145 1.657-3.145 2.59a14.312 14.312 0 0 1-4.123 2.684c-2.267.962-4.81 1.356-6.851 2.715a4.043 4.043 0 0 0-1.382 1.385 3.764 3.764 0 0 0-.369 1.969c-.009.597.036 1.194.135 1.782.359 2.514.772 5.089 2.045 7.285 1.039 1.795 2.594 3.225 4.12 4.63l3.434 3.148c.696.641 1.465 1.43 2.363 1.747-.058-.417.18-.856.532-1.282l-1.113 7.778a22.526 22.526 0 0 0-6.399-1.01c-2.924-.036-5.883.493-7.162 2.484-.075.121-.14.248-.196.379-4.03 4.783-13.267 20.275-7.836 57.902-.465 4.604-.744 7.518-.744 7.518l.033.462-.033.35.065.05 3.023 41.542-5.848 40.942h1.298v4.55H.055v7.31s20.307-1.299 23.404-5.848c2.565-3.774-10.202-2.293-14.623-1.677v-2.799h.08v-1.542h1.542l5.848-27.781c6.012-10.391 2.93-36.402 2.93-36.402l7.31 4.386 5.836 30.56-4.38 45.328h1.299v3.168h-1.706v7.31s20.307-1.299 23.405-5.848c2.564-3.774-10.196-2.292-14.617-1.677l-.49-2.953h.894l5.854-40.942c2.886-11.093-1.048-43.641-1.568-47.809l7.24-47.886-.103-.138.103-.677 29.243 10.24s2.924 2.924 5.931-5.77C86.296 62.49 94 51.599 94.997 50.21l.106-.148s8.775-4.386 7.313-8.772z" opacity=".5" transform="translate(.878 37.832)"/>
        <path fill="#FDA57D" fill-rule="nonzero" d="M3.702 221.815v7.117h7.121v-9.965zM30.759 236.053v8.544l7.117-1.423-1.423-8.545z"/>
        <path fill="#F55F44" fill-rule="nonzero" d="M15.174 76.652s-16.992 12.734-8.621 62.573l8.62-62.573z"/>
        <path fill="#000" fill-rule="nonzero" d="M15.174 76.652s-16.992 12.734-8.621 62.573l8.62-62.573zM37.245 240.404l-.712-4.271-5.697 1.423v2.848zM3.783 224.742h7.12v-4.274l-7.12 2.85z" opacity=".05"/>
        <path fill="#FDA57D" fill-rule="nonzero" d="M28.069 68.19l-1.424 9.968 12.815 7.118V71.038z"/>
        <path fill="#FDBD3E" fill-rule="nonzero" d="M2.44 223.238l5.696-39.871-3.007-41.295 37.021 9.968s4.575 35.44 1.58 46.989l-5.693 39.87h-8.545l4.27-44.14-5.693-29.757-7.12-4.26s3.006 25.328-2.848 35.44l-5.681 27.056H2.44z"/>
        <path fill="#FDA57D" fill-rule="nonzero" d="M101.954 80.845c-1.424-4.27-9.888 1.504-9.888 1.504l-.696.942 3.36 6.243.106-.145s8.541-4.273 7.118-8.544z"/>
        <path fill="#000" fill-rule="nonzero" d="M27.909 77.363s-11.392-3.007-14.239 1.424c-2.847 4.43-8.544 64.093-8.544 64.093s16.928 14.238 37.02 9.968l7.122-46.989-21.36-28.496z" opacity=".05"/>
        <path fill="#F55F44" fill-rule="nonzero" d="M76.324 103.628L31.317 78.479a22.468 22.468 0 0 0-10.673-2.885c-2.848-.036-5.73.48-6.974 2.417-2.847 4.43-8.544 64.077-8.544 64.077s16.928 14.239 37.02 9.968l7.122-47.008 28.48 9.968s2.847 2.847 5.77-5.617c2.735-7.913 10.238-18.515 11.222-19.878l-3.36-6.242-15.056 20.349z"/>
        <path fill="#000" fill-rule="nonzero" d="M27.876 70.4a12.79 12.79 0 0 0 11.504 4.825v-2.767l-11.391-2.847-.113.789z" opacity=".05"/>
        <circle cx="38.037" cy="61.07" r="12.815" fill="#FDA57D" fill-rule="nonzero"/>
        <path fill="#333" fill-rule="nonzero" d="M2.279 227.666v7.12s19.775-1.266 22.783-5.697c3.007-4.43-15.662-1.423-15.662-1.423H2.279zM29.092 241.984v7.12s19.775-1.266 22.782-5.696c3.008-4.431-15.662-1.424-15.662-1.424h-7.12z"/>
        <path fill="#000" fill-rule="nonzero" d="M29.91 66.944l5.007-7.166c.74-1.061 1.5-2.142 2.54-2.918 1.038-.776 2.417-1.208 3.648-.81.744.24 1.362.753 1.994 1.211 1.87 1.36 4.168 2.37 6.454 1.959 2.382-.43 4.213-2.29 5.87-4.053 1.376-1.462 2.854-3.257 2.475-5.229-.294-1.532-1.68-2.648-3.148-3.183-1.468-.536-3.052-.622-4.585-.924-3.651-.715-6.954-2.622-10.516-3.703a23.92 23.92 0 0 0-4.97-.962c-1.208-.099-2.468-.099-3.57.398-1.213.545-2.091 1.603-3.063 2.523a13.937 13.937 0 0 1-4.014 2.61c-2.205.943-4.67 1.32-6.672 2.645a3.937 3.937 0 0 0-1.343 1.35c-.513.962-.381 2.11-.228 3.18.35 2.446.75 4.954 1.991 7.092 1.014 1.747 2.524 3.142 4.015 4.508l3.343 3.068c.677.622 1.427 1.392 2.302 1.703-.157-1.103 1.838-2.386 2.47-3.3z" opacity=".05"/>
        <path fill="#333" fill-rule="nonzero" d="M29.91 66.469l5.007-7.166c.74-1.06 1.5-2.141 2.54-2.917 1.038-.776 2.417-1.209 3.648-.811.744.24 1.362.753 1.994 1.212 1.87 1.359 4.168 2.369 6.454 1.958 2.382-.43 4.213-2.289 5.87-4.052 1.376-1.462 2.854-3.257 2.475-5.23-.294-1.532-1.68-2.647-3.148-3.183-1.468-.535-3.052-.622-4.585-.923-3.651-.715-6.954-2.623-10.516-3.703a23.92 23.92 0 0 0-4.97-.962c-1.208-.1-2.468-.1-3.57.397-1.213.546-2.091 1.604-3.063 2.524a13.937 13.937 0 0 1-4.014 2.613c-2.205.942-4.67 1.32-6.672 2.645a3.937 3.937 0 0 0-1.343 1.35c-.513.961-.381 2.11-.228 3.18.35 2.446.75 4.953 1.991 7.092 1.014 1.747 2.524 3.142 4.015 4.508l3.343 3.068c.677.622 1.427 1.391 2.302 1.702-.157-1.103 1.838-2.401 2.47-3.302z"/>
    </g>
</svg>
