<svg xmlns="http://www.w3.org/2000/svg" width="779" height="784" viewBox="0 0 779 784">
    <defs>
        <linearGradient id="a" x1="50%" x2="50%" y1="100%" y2="0%">
            <stop offset="0%" stop-color="gray" stop-opacity=".25"/>
            <stop offset="54%" stop-color="gray" stop-opacity=".12"/>
            <stop offset="100%" stop-color="gray" stop-opacity=".1"/>
        </linearGradient>
    </defs>
    <g fill="none" fill-rule="evenodd">
        <circle cx="378" cy="406" r="378" fill="#0DC0DC" fill-opacity=".1"/>
        <g transform="translate(71)">
            <path fill="#0DC0DC" fill-rule="nonzero" d="M386.5 690.5l-342.3-1.7-34-79.7 120.2-8.8-20.9-87.4L347.3 482l-227.7-79.1 20.1-4.8 366.2 59.7-20.1 136.5-28.9 75z"/>
            <path fill="#0DC0DC" fill-rule="nonzero" d="M49.4 655.4s21-3.4 33.6 11.5c0 0-9.2 7.3-29.1-2.8l-4.5-8.7zM47.2 655.1s-13.4 16.5-6.8 34.8c0 0 10.9-4.4 12.1-26.6l-5.3-8.2zM35.2 628s8.4-15.4 42 6.2c0 0-4.5 10.4-19.3 9.5-14.8-.9-18.8-7.6-22.7-15.7zM33 626.9s-17.4-2-19.1 37.9c0 0 11.1 2.3 18.9-10.3 7.8-12.6 4.6-19.8.2-27.6z"/>
            <path fill="#D5D6DB" fill-rule="nonzero" d="M581.7 626.9s-22.7 27.7-4.7 69.5l-181 78.5-17.4 3.6-8-35 5.3-44.2v-24.1l205.8-48.3z"/>
            <path fill="#0DC0DC" fill-rule="nonzero" d="M10.2 609.1l250.5-45.7 331.9 52.9-206.1 74.2z"/>
            <path fill="#0DC0DC" fill-rule="nonzero" d="M10.2 609.1l250.5-45.7 331.9 52.9-206.1 74.2z"/>
            <path fill="#0DC0DC" fill-rule="nonzero" d="M10.2 609s-23.4 44.4 3.6 85.4l371.5 80.5s-23.1-35.4 1.2-84.4L10.2 609z"/>
            <path fill="#000" fill-rule="nonzero" d="M10.2 609s-23.4 44.4 3.6 85.4l371.5 80.5s-23.1-35.4 1.2-84.4L10.2 609zM21.2 624.4s-13.4 32.5 0 53.5" opacity=".1"/>
            <path fill="#0DC0DC" fill-rule="nonzero" d="M385.2 774.9l207.4-88.5s11.6 2.5 4.1 11-207.5 86-207.5 86l-375.5-89 371.5 80.5z"/>
            <path fill="#000" fill-rule="nonzero" d="M385.2 774.9l207.4-88.5s11.6 2.5 4.1 11-207.5 86-207.5 86l-375.5-89 371.5 80.5zM368.2 699.4s-20 24 0 60" opacity=".1"/>
            <path fill="#000" fill-rule="nonzero" d="M375.386 729.006l89.738-29.94.317.948-89.738 29.94zM375.26 736.992l107.678-40.942.355.935-107.677 40.942zM375.893 746.56L499.54 695.95l.378.926-123.647 50.608zM377.418 754.874l140.067-63.278.411.912-140.066 63.278zM378.42 758.904l154.03-67.324.401.917-154.03 67.323zM380.727 765.815l184.702-79.776.396.918-184.702 79.776z" opacity=".1"/>
            <path fill="#FFF" fill-rule="nonzero" d="M103.2 613.9l176-37 107.3 20.5-144.3 46.5z" opacity=".3"/>
            <path fill="#0DC0DC" fill-rule="nonzero" d="M592.6 616.3s9.1 3.7 3.8 9.3c-5.3 5.6-210 64.9-210 64.9l206.2-74.2z"/>
            <path fill="#D5D6DB" fill-rule="nonzero" d="M681 530.8s-22.7 27.7-4.7 69.5l-181 78.5-17.4 3.7-8-35 5.4-44.2v-24.2L681 530.8z"/>
            <path fill="#3A3768" fill-rule="nonzero" d="M109.5 512.9L360 467.2l331.9 52.9-206.1 74.2zM109.4 512.9S86 557.3 113 598.3l371.5 80.5s-23-35.4 1.2-84.5l-376.3-81.4z"/>
            <path fill="#000" fill-rule="nonzero" d="M109.4 512.9S86 557.3 113 598.3l371.5 80.5s-23-35.4 1.2-84.5l-117.5-25.4-258.8-56zM120.5 528.3s-13.4 32.5 0 53.5" opacity=".1"/>
            <path fill="#3A3768" fill-rule="nonzero" d="M484.5 678.8l207.4-88.5s11.6 2.5 4.1 11-207.5 86-207.5 86l-375.5-89 371.5 80.5z"/>
            <path fill="#000" fill-rule="nonzero" d="M484.5 678.8l207.4-88.5s11.6 2.5 4.1 11-207.5 86-207.5 86l-375.5-89 371.5 80.5zM467.5 603.3s-20 24 0 60" opacity=".1"/>
            <path fill="#000" fill-rule="nonzero" d="M474.687 632.801l89.738-29.94.317.948-89.738 29.94zM474.557 640.792l107.677-40.942.355.935-107.677 40.941zM475.195 650.356l123.647-50.608.379.926-123.648 50.608zM476.715 658.674l140.066-63.279.412.912-140.067 63.278zM477.734 662.72l154.122-67.364.4.916-154.121 67.364zM480.024 669.618l184.702-79.776.396.918-184.702 79.776z" opacity=".1"/>
            <path fill="#FFF" fill-rule="nonzero" d="M202.5 517.8l176-37 107.3 20.5-144.3 46.5z" opacity=".45"/>
            <path fill="#3A3768" fill-rule="nonzero" d="M691.9 520.1s9.1 3.7 3.8 9.3c-5.3 5.6-209.9 64.9-209.9 64.9l206.1-74.2z"/>
            <path fill="#D5D6DB" fill-rule="nonzero" d="M690.4 420.7s-22.7 49.7-4.7 91.5l-181 56.5-17.3 3.7-8-35 5.3-44.2V469l205.7-48.3z"/>
            <path fill="#0DC0DC" fill-rule="nonzero" d="M118.9 402.9l250.5-45.7 332 52.9-206.2 74.2z"/>
            <path fill="#0DC0DC" fill-rule="nonzero" d="M118.9 402.8s-23.5 44.4 3.5 85.4l371.5 80.5s-23.1-35.4 1.2-84.4l-376.2-81.5z"/>
            <path fill="#000" fill-rule="nonzero" d="M118.9 402.8s-23.5 44.4 3.5 85.4l371.5 80.5s-23.1-35.4 1.2-84.4l-376.2-81.5zM130 418.2s-13.4 32.5 0 53.5" opacity=".1"/>
            <path fill="#0DC0DC" fill-rule="nonzero" d="M494 568.7l207.4-66.5s11.6 2.5 4.1 11-207.5 64-207.5 64l-375.5-89L494 568.7z"/>
            <path fill="#000" fill-rule="nonzero" d="M494 568.7l207.4-66.5s11.6 2.5 4.1 11-207.5 64-207.5 64l-375.5-89L494 568.7zM477 493.2s-20 24 0 60" opacity=".1"/>
            <path fill="#000" fill-rule="nonzero" d="M484.083 522.804l89.738-29.94.317.948-89.738 29.94zM484.067 530.795l107.677-40.942.355.934-107.677 40.942zM484.707 540.353l123.647-50.608.379.926-123.648 50.608zM486.11 548.681l140.066-63.278.411.912-140.066 63.278zM487.233 552.704l154.03-67.324.4.916-154.03 67.324zM489.526 559.506l184.702-79.776.396.918-184.702 79.776z" opacity=".1"/>
            <path fill="#FFF" fill-rule="nonzero" d="M212 407.7l176-37 107.2 20.5L351 437.7z" opacity=".3"/>
            <path fill="#0DC0DC" fill-rule="nonzero" d="M701.4 410.1s9.1 3.7 3.8 9.3c-5.3 5.6-209.9 64.9-209.9 64.9l206.1-74.2z"/>
            <path fill="url(#a)" fill-rule="nonzero" d="M666 377.3c-6.5-17.8-42.5-19.4-58.2-14.9-11.1 3.2-34.5 6.9-47 8.7l-.8-.8c1.6-.5 1.7-1.7 1.5-3.4-.1-2.3-.1-4.6.1-6.9 7.7 2.4 14.5-3.2 14.5-3.2 9-4 6.6-21.1 8.3-25.8 1.3-3.5 2.7-24.1 3.3-34.4h.1l.1-3.5c.1-1.5.1-2.4.1-2.4s.9-25.1 2.6-30.2c1.6-4.7 2.9-28.3 3.1-32v-.5l-.1-2.2c.1-1.6.1-3.4.1-5.2 0-8.6-.9-19.3-1-21.1v-.9c.1-3.6-.4-21.9-15.9-28.8-5.7-2.6-12.6-5.6-19.3-8.6-1.7-14.9-5.7-29.6-5.3-44.6 0-2.2.2-4.5.4-6.7 0 .6-.1 1.3-.1 2v4.4c.6-18.7 7.7-37.5 7-55.8-.1 1.8-.2 3.6-.4 5.4.3-6.2-.3-12.4-1.9-18.4-.6-2.1-1.4-4.3-3.1-5.7-1.6-1.1-3.5-1.9-5.5-2.2-4.7-1.2-9.5-2.1-14.4-2.7-.7-2.3-1.8-4.4-3.2-6.3-10.1-13.9-25.2-27-42.9-30-8.9-1.5-19.2-.2-25.2 6.1l-1.8 1.8c-3.3 3.9-4.7 9-8 12.9-.2.3-.5.5-.7.8-6.5 5.8-16.7 7.1-24 12.3-1.3.9-2.5 2-3.6 3.1-2.9 2.9-5.6 6.1-7.8 9.5-3.3 4.6-6.6 9.4-7.7 14.9-2.1 11 5.4 21.4 6.8 32.5 3.1 24.8-24.3 46.8-19.1 71.2 1.4 6 4.4 11.5 8.8 15.8-10.7 9.7-19.8 19.1-19.8 19.1v.6h-1.7l.2 2h-.2l.9 10.9-.9 15.8v1.5h.1c.3 5.8 1.5 26.6 3 31 1.7 5.1 2.6 30.2 2.6 30.2s1.9 35.5 3.6 40.2c1.7 4.7-.7 21.8 8.3 25.8 2.6 2 5.8 3.3 9.1 3.8-.5 3.7-.2 6.5 1.3 7.3.6.4 1.4.6 2.1.6-.6.9-1.2 1.9-1.6 2.9-3.6-.4-7.1-1.2-10.5-2.5-9.7-4-41.9-13-51.2-6.7-9.3 6.3-31.8 12.1-21.5 37.5s15.2 26.1 15.2 26.1c3.2 2.3 6 5.1 8.3 8.3 3.1 4.7 32.2 15.4 39.5 15.4 3.1 0 6.2.1 9.2.5 0 0-7.9 6.9-6.8 10.9 1 4-2.4 36.2-2.4 36.2s8 8.1 11.4-2.5l.1.2c.6.9 4.1 4.8 10.6-.2 2.7-2 5.5-3.8 8.5-5.4l31.5-4.5c3.3-.2 6.6-.2 9.9-.1 5 .4 9.9-2.5 13-4.8 6.5 2.5 13.9 5.2 17.4 6.2 7.1 2 39.6 10.7 47.2 8 1.6-.6 3-1.6 4.1-2.9l7.3.2-3.4.7s6.6.1 15.6.2l-.4.2 11.3-.1c16.5.2 35.1.2 37.5-.3 3.8-.8 23.7-.2 29.5 0h1.6s21.8-4.3 12.8-26.5c-6.9-17-28.2-21.9-37.6-23.3 2.7-.5 5-.9 6.5-1.2 6.6-1 19.4-7 20.4-9s11.8-8 14.5-11.4c2.7-3.4 10.6-27.3 4.1-45.1zM485.3 427l-1.1.3-.7.2-1.4 1.4c-1.1-.7-2.3-1.5-3.5-2.3 2.2.2 4.4.3 6.7.4z"/>
            <path fill="#BE6F72" fill-rule="nonzero" d="M549.1 321.6s15.3 40 24 36 6.3-21 8-25.7c1.7-4.7 3.5-40 3.5-40s.8-25 2.5-30.1c1.5-4.6 2.8-28.1 3-31.8v-.5l-1.7-29-9.3-2.3-21.7 8-3 17.1-1.2 6.7-.5 2.9-3.6 88.7z"/>
            <path fill="#000" fill-rule="nonzero" d="M554.1 314.9s14.6 12 19 13 7.1 10.4 7.1 10.4" opacity=".1"/>
            <path fill="#BE6F72" fill-rule="nonzero" d="M429.4 323.3s-15.3 40-24 36-6.3-21-8-25.7c-1.7-4.7-3.5-40-3.5-40s-.8-25-2.5-30.1c-1.5-4.6-2.8-28.1-3-31.8v-.5l1.7-29 9.3-2.3 21.7 8 3 17.1 1.2 6.7.5 2.9 3.6 88.7z"/>
            <path fill="#3E373A" fill-rule="nonzero" d="M494.9 109.3h34.2v53.2h-34.2z"/>
            <path fill="#000" fill-rule="nonzero" d="M494.9 109.3h34.2v53.2h-34.2z" opacity=".1"/>
            <path fill="#4B4B5B" fill-rule="nonzero" d="M423.4 363.2s-11.7 12.8-7.3 15.2c4.4 2.4 32.3 46 32.3 46s92 11.3 109.3-5.7c17.3-17 17-47.4 17-47.4s-13.9 3-15.5 1.4c-1.6-1.6-9.9-9.5-9.9-9.5s-117.9-7.2-125.9 0z"/>
            <path fill="#000" fill-rule="nonzero" d="M423.4 363.2s-11.7 12.8-7.3 15.2c4.4 2.4 32.3 46 32.3 46s92 11.3 109.3-5.7c17.3-17 17-47.4 17-47.4s-13.9 3-15.5 1.4c-1.6-1.6-9.9-9.5-9.9-9.5s-117.9-7.2-125.9 0z" opacity=".02"/>
            <path fill="#BE6F72" fill-rule="nonzero" d="M589 201l-30 24-9.1.7-3.3.2-55.9 4.1-58-4.2-8.6-.6-11-.8-23-22s16.3-17.4 30.5-29.2c5.6-4.6 10.9-8.4 14.8-9.9l.7-.2c2.4-.9 4.6-2.5 6.3-4.4 11.3-11.6 21.7-40.3 21.7-40.3s49.7-25.7 43.7 8 22.3 25.3 22.3 25.3l9.3 4.3 3.7 1.7 9.4 4.3 21.2 9.7C590.4 179.3 589 201 589 201z"/>
            <circle cx="488.4" cy="101.1" r="44.7" fill="#000" fill-rule="nonzero" opacity=".1"/>
            <path fill="#000" fill-rule="nonzero" d="M589.1 232.8H388.4v-.5l1.7-29s16.3-17.4 30.5-29.2l126-5 5.9-6.2 21.2 9.7C590.4 180.3 589 202 589 202s2.3 25.1.1 30.8z" opacity=".1"/>
            <path fill="#E7C7CA" fill-rule="nonzero" d="M589.1 231.8H388.4v-.5l1.7-29s16.3-17.4 30.5-29.2l126-5 5.9-6.2 21.2 9.7C590.4 179.3 589 201 589 201s2.3 25.1.1 30.8z"/>
            <path fill="#000" fill-rule="nonzero" d="M456.2 150.5s31.7 40.3 73.8-.8c42.1-41.1 4.7 91.8 4.7 91.8l-91 10.8 12.5-101.8z" opacity=".1"/>
            <path fill="#E7C7CA" fill-rule="nonzero" d="M456.2 152.5s31.7 40.3 73.8-.8c42.1-41.1 4.7 91.8 4.7 91.8l-91 10.8 12.5-101.8z"/>
            <path fill="#000" fill-rule="nonzero" d="M543.1 159.6l3.3 51.1 3.6 17 2.7 13s7 100 5 105 1 9 1.4 11.7c.4 2.7-.4 9.3-.1 12.3.3 3 0 4.3-7.7 3.3-7.7-1.1-18.3-2.9-18.3-2.9s-27 2-36.3-1.3c-9.3-3.3-27-3.3-27-3.3s-26.7.7-35.3-.3c-8.6-1-13.3 10.7-19 7.3-5.7-3.4 6.7-35.7 10.7-45 4-9.3-5.3-33-5.3-33l12-66.6 2.7-15.1v-47.4l.7-.2c2.4-.9 4.6-2.5 6.3-4.4l3 47.7 94 3.3v-53.7" opacity=".1"/>
            <path fill="#E7C7CA" fill-rule="nonzero" d="M543.1 157.6l3.3 51.1 3.6 17 2.7 13s7 100 5 105 1 9 1.4 11.7c.4 2.7-.4 9.3-.1 12.3.3 3 0 4.3-7.7 3.3-7.7-1.1-18.3-2.9-18.3-2.9s-27 2-36.3-1.3c-9.3-3.3-27-3.3-27-3.3s-26.7.7-35.3-.3c-8.6-1-13.3 10.7-19 7.3-5.7-3.4 6.7-35.7 10.7-45 4-9.3-5.3-33-5.3-33l12-66.6 2.7-15.1v-47.4l.7-.2c2.4-.9 4.6-2.5 6.3-4.4l3 47.7 94 3.3v-53.7"/>
            <path fill="#000" fill-rule="nonzero" d="M553.9 51c-.6-2.1-1.4-4.3-3-5.7-1.6-1.1-3.4-1.9-5.3-2.2-4.6-1.2-9.2-2.1-13.9-2.7-.7-2.2-1.7-4.3-3-6.2-9.8-13.8-24.3-26.9-41.4-29.8-8.9-1.5-19.3-.2-25 6.9-3.1 3.9-4.5 9-7.7 12.8-6.1 7.4-17.1 8.3-24.8 14-4.1 3-7.1 7.3-10 11.6-3.2 4.6-6.4 9.3-7.4 14.8-2 10.9 5.2 21.3 6.5 32.3 3 24.6-23.4 46.5-18.4 70.8 2.9 14.2 16 24.1 29.5 29.2 4.8 1.8 10.2 3.6 12.5 8.1 1 2 1.2 4.3 2.1 6.3 3.2 6.7 13.5 7 19.1 2.1 5.6-4.9 7.3-12.9 8-20.3 2.7-32.4-10.3-64.3-8.8-96.8.5-9.8 3.2-20.9 12-25.4 11.8-6 26.1 4 39.1 2.1 6.2 15 7.5 31.5 3.7 47.3-2.1 8.6-5.7 17-5.9 25.9-.4 13.6 6.9 25.9 13.2 37.9 1.4 2.2 2.3 4.7 2.7 7.3.1 2.6-.4 5.2-1.4 7.6-3.6 9.6-9.7 18.5-10.4 28.8-.2 1.2.1 2.4.8 3.4.7.7 1.6 1.1 2.6 1.2 10.8 1.9 20.1-7.7 25.4-17.3 5.9-10.6 9.3-22.4 10-34.5 1.1-20.4-6.2-40.4-5.8-60.8.6-23.1 11.1-46.4 5-68.7z" opacity=".1"/>
            <path fill="#3E373A" fill-rule="nonzero" d="M554.9 50c-.6-2.1-1.4-4.3-3-5.7-1.6-1.1-3.4-1.9-5.3-2.2-4.6-1.2-9.2-2.1-13.9-2.7-.7-2.2-1.7-4.3-3-6.2-9.8-13.8-24.3-26.9-41.4-29.8-8.9-1.5-19.3-.2-25 6.9-3.1 3.9-4.5 9-7.7 12.8-6.1 7.4-17.1 8.3-24.8 14-4.1 3-7.1 7.3-10 11.6-3.2 4.6-6.4 9.3-7.4 14.8-2 10.9 5.2 21.3 6.5 32.3 3 24.6-23.4 46.5-18.4 70.8 2.9 14.2 16 24.1 29.5 29.2 4.8 1.8 10.2 3.6 12.5 8.1 1 2 1.2 4.3 2.1 6.3 3.2 6.7 13.5 7 19.1 2.1 5.6-4.9 7.3-12.9 8-20.3 2.7-32.4-10.3-64.3-8.8-96.8.5-9.8 3.2-20.9 12-25.4 11.8-6 26.1 4 39.1 2.1 6.2 15 7.5 31.5 3.7 47.3-2.1 8.6-5.7 17-5.9 25.9-.4 13.6 6.9 25.9 13.2 37.9 1.4 2.2 2.3 4.7 2.7 7.3.1 2.6-.4 5.2-1.4 7.6-3.6 9.6-9.7 18.5-10.4 28.8-.2 1.2.1 2.4.8 3.4.7.7 1.6 1.1 2.6 1.2 10.8 1.9 20.1-7.7 25.4-17.3 5.9-10.6 9.3-22.4 10-34.5 1.1-20.4-6.2-40.4-5.8-60.8.6-23.1 11.1-46.4 5-68.7z"/>
            <path fill="#C3C7D9" fill-rule="nonzero" d="M532.8 492.7l39.7 1.3-5.7-29.4-30.4 2.9z"/>
            <path fill="#4B4B5B" fill-rule="nonzero" d="M655.7 423c-2.7 3.3-13 9.3-14 11.3s-13.3 8-19.7 9c-6.4 1-26.3 5.3-30 7.7-2.6 1.7-23.7 7-37.6 10-3.8.9-7.6 1.6-11.4 2-6 .3-71.7-22-71.7-22l12.7-13 .7-.2c3.6-1.2 20.1-6.8 29.3-9.5 10.3-3 22.3-15.3 22.3-15.3s17.7-6 20-6.7c2.3-.7-6-23.3-6-23.3s38.3-5.3 53.3-9.8c15-4.5 49.7-2.8 56 14.8 6.3 17.6-1.2 41.7-3.9 45z"/>
            <path fill="#E7C7CA" fill-rule="nonzero" d="M481 479.3s-7.7 8-15.3 7.3c-7.6-.7-34.5 2-34.5 2-4.9 1.9-9.4 4.6-13.5 7.8-6.3 4.9-9.6 1-10.2.2l-.1-.2c-3.3 10.5-11 2.5-11 2.5s3.3-32 2.3-36 6.6-10.9 6.6-10.9l9-2.3 22.8-5.8 32.7 11.3 11.2 24.1z"/>
            <path fill="#000" fill-rule="nonzero" d="M414.2 449.8l-6.8 46.8-.1-.2c-3.3 10.5-11 2.5-11 2.5s3.3-32 2.3-36 6.6-10.9 6.6-10.9l9-2.2zM461.4 316.7s17.7 6 33 0M521.7 328s7.3 3.7 13 0M521.7 336.7s12.3 1.7 14.7-1.7M517.7 355.3s23.2-3 28.9-7M447 348.3s13 7.3 22.7 7M554.4 461c-3.8.9-7.6 1.6-11.4 2-6 .3-71.7-22-71.7-22l12.7-13 .7-.2c2 1.4 3.6 2.6 4.8 3.5 5.5 4.3 10.8-1.3 12.8-1.3s19.3 14.3 19.3 14.3 16 3.7 18.7 7c2.7 3.3 12 2.7 13.7 5 .5.7.6 2.5.4 4.7z" opacity=".1"/>
            <path fill="#4B4B5B" fill-rule="nonzero" d="M431.2 374.3s-16.2.9-25.5-3-40.3-13-49.3-6.6-30.7 12-20.7 37.3c10 25.3 14.7 26 14.7 26 3.1 2.3 5.8 5.1 8 8.3 3 4.7 31 15.3 38 15.3s19.3 0 36.7 12c17.4 12 33 13.3 33 13.3s22 9 28.8 11c6.8 2 38.2 10.7 45.5 8 7.3-2.7 12-19.3 12-19.3s3.3-15 1.7-17.3c-1.7-2.3-11-1.7-13.7-5-2.7-3.3-18.7-7-18.7-7S504.4 433 502.4 433s-7.3 5.7-12.8 1.3c-11-8.1-22.5-15.5-34.5-22-12.7-6.6-23.9-38-23.9-38z"/>
            <path fill="#000" fill-rule="nonzero" d="M398.7 384c5.8-1.2 11.9.4 16.4 4.3 8 6.7 34.9 20.1 34.9 20.1M598.7 383.6s-35.7 5.4-42.3 12.7" opacity=".1"/>
            <path fill="#E7C7CA" fill-rule="nonzero" d="M639.7 494h-1.6c-5.6-.2-24.8-.8-28.4 0-4.3 1-61.7 0-61.7 0l11.2-2.3s-4.2-14.6-1.5-15.8c0 0-15-9.9-3.7-16.5s23.5-3.9 23.5-3.9l28.4-9.6 5.5-1.9s32 1.7 40.7 23.7c8.7 22-12.4 26.3-12.4 26.3z"/>
            <path fill="#000" fill-rule="nonzero" d="M639.7 494h-1.6c9.3-7.7 30.4-31.1-32.2-48.1l5.5-1.8s32 1.7 40.7 23.7c8.6 21.9-12.4 26.2-12.4 26.2z" opacity=".1"/>
            <circle cx="580.9" cy="466.3" r="1.8" fill="#4B4B5B" fill-rule="nonzero"/>
            <circle cx="570.7" cy="469.2" r="1.8" fill="#4B4B5B" fill-rule="nonzero"/>
            <g fill="#000" fill-rule="nonzero" opacity=".1">
                <path d="M521.2 99.4c.4-11-1.6-22-5.7-32.1-13 1.9-27.2-8.1-39.1-2.1-8.8 4.4-11.5 15.6-12 25.4-.1 2.6-.1 5.2-.1 7.8 0-.9 0-1.9.1-2.8.5-9.8 3.2-20.9 12-25.4 11.8-6 26.1 4 39.1 2.1 3.5 8.6 5.4 17.8 5.7 27.1zM420.4 97.6c.2-2.2.1-4.4-.1-6.5-1.1-8.8-5.9-17.2-6.7-25.8-1.1 10.3 5.5 20.3 6.7 30.8.1.5.1 1 .1 1.5zM473.1 187.3c-.6 7.4-2.4 15.4-8 20.3s-16 4.6-19.1-2.1c-1-2-1.2-4.3-2.1-6.3-2.2-4.6-7.7-6.4-12.5-8.1-13.5-5.1-26.6-15-29.5-29.2-.3-1.3-.4-2.6-.5-3.9-.2 3-.1 6 .5 8.9 2.9 14.2 16 24.1 29.5 29.2 4.8 1.8 10.2 3.6 12.5 8.1 1 2 1.2 4.3 2.1 6.3 3.2 6.7 13.5 7 19.1 2.1 5.6-4.9 7.3-12.9 8-20.3.3-3.9.4-7.8.3-11.7 0 2.3-.1 4.5-.3 6.7zM550.3 114.1v4.3c.6-18.6 7.4-37.3 6.7-55.5-.5 16.8-6.3 34-6.7 51.2zM528.9 189.3c.2-1.2.3-2.4.2-3.6-.4-2.6-1.3-5.1-2.7-7.3-5.8-11-12.4-22.3-13.2-34.5 0 .5-.1 1-.1 1.6-.4 13.5 6.9 25.9 13.2 37.9 1.2 1.8 2 3.8 2.6 5.9zM556.1 174.8c-.7 12.1-4.2 23.9-10.1 34.5-5.3 9.6-14.6 19.2-25.4 17.3-1-.1-1.9-.5-2.6-1.2-.2-.2-.4-.5-.5-.8l-.3 2.4c-.2 1.2.1 2.4.8 3.4.7.7 1.6 1.1 2.6 1.2 10.8 1.9 20.1-7.7 25.4-17.3 5.9-10.6 9.3-22.4 10.1-34.5.1-2.3.1-4.7.1-7-.1.7-.1 1.4-.1 2z"/>
            </g>
            <path stroke="#000" d="M557.7 475.9s25.3 10.6 42-12.9M562.7 494.4s20.7-13.4 47-.4M424.3 491.4s8.7-19.6 31.9-4.7" opacity=".1"/>
            <path fill="#000" fill-rule="nonzero" d="M396.2 201.8l17.7-16s68.6-4.5 71.5 18.8c0 0 24.3-27.7 75.5-21.5l21.7 17.2-59.8 26.3-58.2 20.2-42.8-19.2-25.6-25.8z" opacity=".1"/>
            <path fill="#D5D6DB" fill-rule="nonzero" d="M396.2 202.8l17.7-16s68.6-4.5 71.5 18.8c0 0 24.3-27.7 75.5-21.5l21.7 17.2-59.8 26.3-58.2 20.2-42.8-19.2-25.6-25.8z"/>
            <path fill="#000" fill-rule="nonzero" d="M388.4 204.8l7.8 93.7 83 4.2-3.6-93.3-.1-1.6z" opacity=".1"/>
            <path fill="#0DC0DC" fill-rule="nonzero" d="M388.4 202.8l7.8 93.7 83 4.2-3.6-93.3-.1-1.6z"/>
            <path fill="#000" fill-rule="nonzero" d="M586.3 202.8l-85.6 12.9v94.1l83.7-12.1z" opacity=".1"/>
            <path fill="#0DC0DC" fill-rule="nonzero" d="M586.3 200.8l-85.6 12.9v94.1l83.7-12.1z"/>
            <path fill="#FFF" fill-rule="nonzero" d="M566.1 223.8l-46.2 5.1 1 15.8 45.2-4.9z" opacity=".3"/>
            <path fill="#BE6F72" fill-rule="nonzero" d="M400.7 346.7l4.7 12.7s7 6 14.7 3c7.7-3 14.3-4.5 17.7-7.4 3.3-2.9 8-17.6 8-17.6s4.7-16 9.3-20c4.6-4 17-59.1 0-53.7-17 5.4-30 55.4-30 55.4s-3 3.7-7.3 4c-4.3.3-13-.7-14.7 3-1.7 3.6-7.4 13.2-2.4 20.6z"/>
            <path fill="#000" fill-rule="nonzero" d="M500.7 215.7c-8.9 2-18.2-.3-25.1-6.3l3.6 93.3s8.5 9.2 21.5 7.1v-94.1z" opacity=".1"/>
            <path fill="#0DC0DC" fill-rule="nonzero" d="M500.7 213.7c-8.9 2-18.2-.3-25.1-6.3l3.6 93.3s8.5 9.2 21.5 7.1v-94.1z"/>
            <path fill="#000" fill-rule="nonzero" d="M500.7 213.7c-8.9 2-18.2-.3-25.1-6.3l3.6 93.3s8.5 9.2 21.5 7.1v-94.1zM502.7 203.2s34.8-10.6 43.9-9.1M463.8 198.5s-33.8-8-39.4-5.7M524.7 204.5s23.3-8.5 31.7-4.5M512.9 418.7c3.6-2.7 7.5-5.1 11.5-7.1 6-2.9 17-10.4 17-10.4M424.3 316.7s-14.6 12-19 13-7.1 10.4-7.1 10.4" opacity=".1"/>
            <path fill="#BE6F72" fill-rule="nonzero" d="M577.7 344.9l-4.7 12.7s-7 6-14.7 3c-7.7-3-14.3-4.5-17.7-7.4-3.3-2.9-8-17.6-8-17.6s-4.7-16-9.3-20c-4.6-4-17-59.1 0-53.7 17 5.4 30 55.4 30 55.4s3 3.7 7.3 4c4.3.3 13-.7 14.7 3 1.8 3.6 7.4 13.3 2.4 20.6z"/>
            <path fill="#000" fill-rule="nonzero" d="M569.6 321.5s9.5 6.1 9.5 13.5" opacity=".1"/>
            <circle cx="488.5" cy="98.9" r="44.7" fill="#BE6F72" fill-rule="nonzero"/>
            <path fill="#3E373A" fill-rule="nonzero" d="M460.5 86.9c5.4-.9 10.2-4 15.3-5.8 11.6-4.1 24.4-1.3 36.1 2.4 4.5 1.4 9.1 3 13.8 3 4.7 0 9.7-1.9 12.1-6 2.2-3.7 1.8-8.6-.1-12.5-1.9-3.9-5-7.1-8.2-10.1-10.4-9.8-23.3-19-37.6-18-5.7.4-11.2 2.5-16.5 4.7-6.6 2.9-13.1 6.1-19.4 9.8-4.8 2.8-13.7 6.5-16.5 11.6-6.1 11.5 11.2 22.4 21 20.9z"/>
            <path fill="#000" fill-rule="nonzero" d="M537.9 76.3c-2.4 4.1-7.4 6-12.1 6-4.7 0-9.3-1.5-13.8-2.9-11.7-3.7-24.5-6.5-36.1-2.4-5.2 1.8-9.9 5-15.3 5.8-7.9 1.2-20.6-5.6-22-14.4-1.5 10.1 13.2 18.8 22 17.4 5.4-.9 10.2-4 15.3-5.8 11.6-4.1 24.4-1.3 36.1 2.4 4.5 1.4 9.1 3 13.8 2.9 4.7-.1 9.7-1.9 12.1-6 1.2-2.2 1.7-4.8 1.4-7.3-.1 1.5-.6 2.9-1.4 4.3z" opacity=".1"/>
        </g>
    </g>
</svg>
