<svg xmlns="http://www.w3.org/2000/svg" xmlns:xlink="http://www.w3.org/1999/xlink" width="760" height="624" viewBox="0 0 760 624">
    <defs>
        <path id="a" d="M0 0h760v624H0z"/>
        <linearGradient id="c" x1="51.78%" x2="51.78%" y1="70.81%" y2="31.11%">
            <stop offset="0%" stop-color="gray" stop-opacity=".25"/>
            <stop offset="54%" stop-color="gray" stop-opacity=".12"/>
            <stop offset="100%" stop-color="gray" stop-opacity=".1"/>
        </linearGradient>
        <linearGradient id="d" x1="47.5%" x2="47.5%" y1="71.11%" y2="29.58%">
            <stop offset="0%" stop-color="gray" stop-opacity=".25"/>
            <stop offset="54%" stop-color="gray" stop-opacity=".12"/>
            <stop offset="100%" stop-color="gray" stop-opacity=".1"/>
        </linearGradient>
    </defs>
    <g fill="none" fill-rule="evenodd">
        <mask id="b" fill="#fff">
            <use xlink:href="#a"/>
        </mask>
        <g fill-rule="nonzero" mask="url(#b)">
            <path fill="#4B4B5B" d="M235.007 127.144c25.702-22.967 66.161-27.61 102.972-25.786 115.574 5.72 219.873 61.52 310.077 124.617 32.666 22.884 64.834 47.426 86.059 78.933 43.195 64.008 30.344 152.807-29.681 205.54-20.396 17.992-45.185 31.672-70.555 43.943-45.185 21.723-93.935 39.135-145.255 44.027-36.563 3.565-73.623.663-109.937-4.312-101.562-13.846-201.3-44.275-284.872-96.427-36.729-22.8-71.301-51.24-86.39-88.219-15.09-36.979-5.39-83.824 32.002-105.713 15.504-9.037 33.992-13.183 52.066-16.997 26.697-5.638 53.808-11.193 77.851-22.718 24.872-11.857 54.305-34.823 49.33-61.106-5.223-28.108-9.368-52.899 16.333-75.782z"/>
            <path fill="#FF6584" d="M489.366 60.258v1.411c0 .415 0 .83-.082 1.245v.25c0 .331 0 .746-.083 1.078v.498c0 .332-.083.664-.083.996 0 .332-.083.498-.083.747-.083.664-.166 1.245-.25 1.91-.082.414-.165.83-.165 1.244v.083c0 .166-.083.415-.083.664 0 .25 0 .25-.083.332-.083.083 0 .25-.083.332-.083.083-.083.415-.166.664-.083.25-.083.415-.166.664-.083.25-.083.332-.083.498 0 .166-.166.581-.166.83v.083l-.166.581-.166.664c-.083.25-.166.581-.249.83 0 .083 0 .166-.083.25l-.248.83c-.25.912-.581 1.742-.83 2.655l-.332.83-.166.498a56.758 56.758 0 0 1-8.13 14.526 5.815 5.815 0 0 1-.664.83c-1.577 2.075-3.319 3.984-5.144 5.81L386.987 187l-84.791-84.826a60.677 60.677 0 0 1-6.637-7.885c-1.245-1.744-2.406-3.653-3.485-5.479-5.725-10.375-8.297-22.244-7.218-34.113.083-1.079.249-2.158.332-3.237.249-1.909.664-3.818 1.078-5.727.083-.415.166-.747.332-1.162.083-.166.083-.415.166-.58.083-.167.083-.25.083-.333l.25-.83c.165-.664.414-1.328.58-1.992l.332-.913a35.03 35.03 0 0 1 1.493-3.735l.332-.747c.166-.332.332-.747.498-1.079.249-.58.58-1.162.83-1.826l.082-.166c.166-.249.25-.498.415-.83l.498-.913c.166-.415.415-.747.664-1.079.083-.166.166-.332.332-.498.166-.166.166-.166.166-.332v-.083c.165-.249.248-.415.414-.664l.498-.747a10.57 10.57 0 0 1 1.079-1.577l.415-.58.497-.665c.166-.249.332-.498.498-.664l.664-.83c.166-.249.415-.498.58-.747l.167-.249.414-.498c.25-.249.415-.498.664-.747l.332-.332.083-.083.498-.58.58-.665a15.67 15.67 0 0 1 1.66-1.66l.664-.664.995-.996c.249-.166.415-.415.664-.58.249-.167.498-.499.83-.748l.497-.415c.166-.166.332-.332.498-.415.332-.332.747-.58 1.079-.83l.58-.415c.913-.664 1.826-1.41 2.738-1.992l.581-.415.58-.415.582-.332.83-.498.414-.249.58-.332c.747-.415 1.577-.913 2.324-1.328l.498-.249.746-.415.581-.332.58-.249.582-.249.58-.249.498-.249 2.49-.996.58-.332.664-.249.58-.166.498-.166 1.162-.332.58-.166.498-.166.498-.166c.249-.083.58-.166.83-.249l1.078-.249c1.162-.249 2.24-.498 3.402-.747l.498-.083.663-.083.664-.083.83-.083.498-.083c1.078-.166 2.157-.249 3.318-.332h7.799c.249 0 .58 0 .83.083h.58c.913.083 1.743.166 2.655.249l1.162.166.83.083.663.083.664.083.415.083c1.161.249 2.24.415 3.401.747l1.41.332.416.083.58.166c.415.083.747.249 1.162.332l.498.166c.83.249 1.659.498 2.489.83l.58.166.747.249 1.079.415c.414.166.83.332 1.244.581l.498.249.664.332.58.249.581.332.747.415.58.332c.498.249.913.498 1.411.747l.58.332 1.992 1.245.58.332.581.415.581.415.415.25c.83.58 1.576 1.161 2.323 1.742l.58.415c.333.25.748.581 1.08.83.165.166.331.25.497.415l.498.415.83.747c.249.166.414.415.663.581l.996.996.664.664.663-.664.996-.996c.249-.166.415-.415.664-.58.249-.167.497-.499.83-.748l.497-.415c.166-.166.332-.332.498-.415.332-.332.747-.58 1.079-.83l.58-.415c.913-.664 1.826-1.41 2.738-1.992l.58-.415.582-.415.58-.332.83-.498.415-.249.58-.332c.747-.415 1.577-.913 2.324-1.328l.497-.249.747-.415.58-.332.582-.249.58-.249.581-.249.581-.249 2.489-.996c.166-.083.415-.166.58-.249l.664-.249.581-.166.498-.166 1.162-.332.58-.166.498-.166.498-.166c.249-.083.58-.166.83-.249l1.078-.249c1.162-.249 2.24-.498 3.402-.747l.497-.083.664-.083.664-.083.83-.083.497-.083c1.079-.166 2.157-.249 3.319-.332h7.716c.249 0 .58 0 .83.083h.58c.913.083 1.743.166 2.655.249l1.162.166.83.083.663.083.664.083.415.083c1.161.249 2.24.415 3.401.747l1.41.332.415.083.581.166c.415.083.747.249 1.162.332l.497.166c.83.249 1.66.498 2.49.83l.58.166.747.249 1.078.415c.415.166.83.332 1.245.581l.498.249.663.332.581.249.581.332.747.415.58.332c.415.249.913.498 1.41.747l.582.332 1.99 1.245.582.332.58.415.581.415.415.25c.83.58 1.576 1.161 2.323 1.742l.58.415c.333.25.747.581 1.08.83.165.166.331.25.497.415l.498.415.664.581c.248.166.497.415.663.664l.415.332.083.083c.249.166.415.415.664.664l.332.25c.083.165.249.248.332.331l.663.664c.332.332.664.664.996 1.08l.58.58c.332.332.664.664.913 1.08l.996 1.161c1.078 1.411 2.157 2.822 3.153 4.233l.414.581c.166.25.25.415.415.664l.332.581c.166.332.415.664.58.996l.499.913c.083.166.249.332.331.581l.25.415.248.415.332.664.332.664a79.444 79.444 0 0 1 2.157 4.648l.249.664.747 1.992.166.581c.083.25.166.581.249.83l.248.747.166.498c.083.25.166.498.166.664 0 .166.166.581.25.83.165.498.248.913.331 1.411l.166.747c.083.332.166.664.249 1.08 0 .165.083.331.083.414 0 .083.083.415.083.581 0 .166.083.332.083.498l.083.415c0 .166 0 .25.083.332.083.083 0 .25.083.332l.166.747c0 .25.083.498.083.747 0 .25.083.581.083.83 0 .25.082.498.082.83l.083.498c0 .25.083.581.083.83v.415c0 .25.083.581.083.83V58.598c-.166.498-.166 1.08-.249 1.66z"/>
            <path fill="#000" d="M488.367 60.314v1.412c0 .416 0 .83-.083 1.246v.25c0 .332 0 .747-.083 1.08v.498c0 .332-.083.665-.083.997 0 .332-.082.498-.082.748-.083.664-.166 1.246-.249 1.91-.083.416-.165.831-.165 1.247v.083c0 .166-.083.415-.083.664 0 .25 0 .25-.083.333-.083.083 0 .249-.083.332-.083.083-.083.415-.166.664-.082.25-.082.416-.165.665-.083.25-.083.332-.083.499 0 .166-.166.581-.166.83v.083l-.165.582-.166.665c-.083.249-.166.581-.248.83 0 .083 0 .166-.083.25l-.249.83c-.248.914-.58 1.745-.828 2.659l-.331.83-.166.499c5.963-25.006-4.472-51.01-26.09-64.8-1.076-.665-2.153-1.33-3.23-1.91-23.356-12.878-52.427-8.724-71.227 10.3-2.237-2.242-4.721-4.32-7.289-6.23-1.988-1.412-4.058-2.742-6.212-3.905a59.728 59.728 0 0 0-57.645 0c-2.981 1.662-5.88 3.573-8.53 5.733-4.39 3.572-8.366 7.643-11.596 12.295-1.16 1.662-2.319 3.406-3.313 5.234v.083c-.91 1.662-1.822 3.406-2.567 5.15-.414.998-.828 1.912-1.243 2.908.083-.415.166-.747.332-1.163.083-.166.083-.415.165-.581.083-.166.083-.25.083-.332l.249-.831c.165-.665.414-1.33.58-1.994l.33-.914a35.117 35.117 0 0 1 1.491-3.738l.332-.748c.165-.332.331-.748.497-1.08.248-.582.58-1.163.828-1.828l.083-.166c.165-.25.248-.498.414-.83l.497-.915c.165-.415.414-.747.662-1.08.083-.166.166-.332.332-.498.165-.166.165-.166.165-.332v-.083c.166-.25.249-.416.414-.665l.497-.748c.332-.581.663-1.08 1.077-1.578l.414-.582.497-.664c.166-.25.331-.499.497-.665l.663-.83c.165-.25.414-.5.58-.748l.165-.25.414-.498c.249-.25.414-.499.663-.748l.331-.332.083-.083.497-.582.58-.664a15.663 15.663 0 0 1 1.656-1.662l.663-.664.994-.997c.248-.167.414-.416.662-.582.249-.166.497-.498.828-.748l.497-.415c.166-.166.332-.332.497-.415.332-.333.746-.582 1.077-.831l.58-.416c.91-.664 1.822-1.412 2.733-1.993l.58-.416.58-.415.58-.332.827-.499.415-.25.58-.331c.745-.416 1.573-.914 2.318-1.33l.497-.249.746-.415.58-.333.58-.249.579-.25.58-.248.497-.333 2.484-.997.58-.332.663-.25.58-.165.496-.166 1.16-.333.58-.166.497-.166.497-.166c.248-.083.58-.166.828-.25l1.077-.249c1.16-.249 2.236-.498 3.395-.747l.497-.083.663-.083.662-.084.829-.083.497-.083C337.214.166 338.29.083 339.45 0H347.236c.248 0 .58 0 .828.083h.58c.911.083 1.74.166 2.65.25l1.16.165.828.084.663.083.662.083.414.083c1.16.249 2.237.415 3.396.747l1.408.333.414.083.58.166c.414.083.745.25 1.16.332l.496.166c.829.25 1.657.499 2.485.831l.58.166.745.25 1.077.415c.414.166.828.332 1.242.582l.497.249.663.332.58.25.58.332.745.415.58.332c.497.25.91.499 1.408.748l.58.332 1.987 1.246.58.333.58.415.58.416.414.249c.828.581 1.573 1.163 2.319 1.744l.58.416c.33.249.745.581 1.076.83.166.167.331.25.497.416l.497.415.828.748c.249.166.414.415.663.582l.994.996.662.665.663-.665.994-.996c.248-.167.414-.416.662-.582.249-.166.497-.498.828-.748l.497-.415c.166-.166.332-.332.497-.415.332-.333.746-.582 1.077-.831l.58-.416c.91-.664 1.822-1.412 2.733-1.993l.58-.416.58-.415.58-.333.828-.498.414-.25.58-.332c.745-.415 1.573-.913 2.318-1.329l.497-.249.746-.415.58-.333.58-.249.58-.25.579-.248.58-.25 2.484-.997c.166-.083.414-.166.58-.249l.663-.249.58-.166.496-.166 1.16-.333.58-.166.497-.166.497-.166c.248-.083.58-.166.828-.25l1.076-.249c1.16-.249 2.237-.498 3.396-.747l.497-.083.663-.083.662-.083.829-.084.497-.083c1.076-.166 2.153-.249 3.312-.332h7.703c.249 0 .58 0 .828.083h.58c.911.083 1.74.166 2.65.25l1.16.166.828.083.663.083.662.083.414.083c1.16.25 2.237.415 3.396.748l1.408.332.414.083.58.166c.414.083.745.25 1.16.332l.497.167c.828.249 1.656.498 2.484.83l.58.166.745.25 1.077.415c.414.166.828.332 1.242.582l.497.249.663.332.58.25.58.332.745.415.58.332c.414.25.91.499 1.408.748l.58.332 1.987 1.247.58.332.58.415.58.416.414.249c.828.581 1.573 1.163 2.319 1.744l.58.416c.33.25.745.581 1.076.83.166.167.331.25.497.416l.497.415.663.582c.248.166.497.415.662.665l.414.332.083.083c.249.166.414.415.663.665l.331.249c.083.166.248.249.331.332l.663.665c.331.332.662.664.994 1.08l.58.581c.33.333.662.665.91 1.08l.994 1.163c1.077 1.413 2.154 2.825 3.148 4.237l.414.582c.166.249.248.415.414.664l.331.582c.166.332.414.665.58.997l.497.914c.083.166.248.332.331.581l.249.416.248.415.332.665.33.664a79.615 79.615 0 0 1 2.154 4.653l.249.664.745 1.994.166.582c.083.249.165.581.248.83l.249.748.165.498c.083.25.166.499.166.665 0 .166.166.582.248.83.166.5.249.915.332 1.413l.165.748c.083.332.166.664.249 1.08 0 .166.083.332.083.415 0 .083.083.416.083.582 0 .166.082.332.082.498l.083.416c0 .166 0 .249.083.332.083.083 0 .25.083.332l.165.748c0 .25.083.498.083.748 0 .249.083.581.083.83 0 .25.083.499.083.831l.083.499c0 .249.083.581.083.83v.416c0 .249.082.581.082.83v2.991c-.165.499-.165 1.08-.248 1.662z" opacity=".1"/>
            <path fill="#FF6584" d="M628.615 245.163V247.172l-.083.586c0 .167 0 .25-.084.418V249.013c0 .084 0 .168-.083.251l-.084.168-.083.167-.084.251v.084s-.083.167-.083.251c-.084.251-.167.586-.25.837 0 .084-.084.167-.084.251 0 .084 0 .084-.084.168a17.583 17.583 0 0 1-2.42 4.436l-.168.25c-.5.587-1.002 1.256-1.586 1.758L597.139 284l-26.05-26.115c-.751-.753-1.419-1.59-2.087-2.427-.417-.502-.751-1.088-1.085-1.674-1.754-3.18-2.505-6.863-2.255-10.462 0-.335.084-.67.084-1.005.083-.586.167-1.172.334-1.758 0-.083.083-.25.083-.334l.084-.168v-.083l.083-.252c.084-.167.167-.418.167-.585 0-.168.084-.168.084-.252.167-.418.25-.753.417-1.171l.084-.251.167-.335.25-.502.167-.252.167-.25c.084-.084.167-.252.167-.335l.084-.168.083-.084c0-.083.084-.167.084-.167 0-.084.083-.167.167-.251 0-.084.25-.335.334-.502l.083-.168.167-.167.167-.167.167-.252.167-.25.083-.084.167-.168.167-.25.084-.085.167-.167c.083-.084.083-.167.167-.167.083 0 .334-.335.5-.503l.168-.167.334-.335.167-.167.25-.251.167-.168.167-.167.334-.251.167-.168c.25-.167.585-.418.835-.585l.167-.084.167-.084.167-.084.25-.167.084-.084.167-.083c.25-.168.501-.251.751-.419l.167-.084.25-.083.168-.084.167-.084.167-.083.167-.084.167-.084.751-.335.167-.083.167-.084.167-.084.167-.083.334-.084.167-.084h.334l.25-.083.335-.084 1.001-.251h.919c.334 0 .668-.084 1.002-.084h2.755l.835.084.334.083H586.869l1.002.252.418.083h.083l.167.084.334.084h.167l.752.25.167.084.25.084.334.168.417.167.167.084.167.083.167.084.167.084.25.083.168.084.417.251.167.084c.167.084.418.251.585.418l.167.084.167.084.167.084.083.083.752.502.167.168.334.25.167.168.167.168.25.25.167.168.334.335c.083.084.167.084.167.167l.167-.167.334-.335.167-.167.25-.251.167-.168.167-.167.334-.251c.084 0 .084-.084.167-.168l.835-.585.167-.084.167-.084.167-.084.25-.167.168-.084.167-.083c.25-.168.5-.251.751-.419l.167-.084.25-.083.167-.084.167-.084.167-.083.167-.084.167-.084.752-.335.167-.083.167-.084.167-.084.167-.083.334-.084.167-.084h.334l.25-.083.334-.084c.334-.084.668-.168 1.086-.251h.918c.334 0 .668-.084 1.002-.084h2.755l.835.084c.167 0 .25 0 .334.083H612.501l1.002.252.418.083h.083l.167.084.334.084h.167l.752.25.167.084.25.084.334.168.418.167.167.084.166.083.167.084.167.084.25.083.168.084.417.251.167.084c.167.084.418.251.585.418l.167.084.167.084.167.084.083.083.752.502.167.168.334.25.167.168.167.168.25.167.167.168.084.083.167.168.083.083.084.084.167.167.333.335c.084.084.084.168.167.168l.25.334.335.335c.334.419.668.837 1.002 1.34l.167.167.167.167.083.168.167.334.167.252.084.167.083.167.084.168c0 .083.083.167.083.167l.084.168c.25.502.417.92.668 1.422 0 .084.083.168.083.168l.25.586c0 .083 0 .167.084.167s.084.168.084.251c0 .084.083.168.083.251l.084.168c0 .083 0 .167.083.25l.084.252c0 .167.083.251.083.418 0 .084.084.168.084.252 0 .083.083.25.083.334V244.577c0 .084 1.586.419 1.586.586z"/>
            <path fill="#000" d="M628.615 244.878v1.959l-.083.571c0 .163 0 .245-.084.408V248.633c0 .081 0 .163-.083.245l-.083.163-.084.163-.083.245v.082s-.084.163-.084.245c-.083.244-.167.57-.25.816 0 .081-.084.163-.084.245 0 .081 0 .081-.083.163.334-1.47.5-2.857.5-4.408-.083-6.123-3.254-11.755-8.51-15.102-.335-.245-.668-.408-1.002-.572a18.85 18.85 0 0 0-17.69 0c-.585.327-1.169.653-1.753 1.062a18.045 18.045 0 0 0-2.42 1.959 16.935 16.935 0 0 0-2.253-1.878 38.48 38.48 0 0 0-1.92-1.224c-6.508-3.51-14.519-2.857-20.36 1.714-.5.408-1.085.898-1.502 1.388-.75.734-1.418 1.47-2.002 2.367-.334.49-.668 1.061-1.002 1.551-.25.49-.584.98-.75 1.551-.168.327-.251.572-.335.898 0-.082.084-.245.084-.326l.083-.164v-.081l.084-.245c.083-.163.167-.408.167-.572 0-.163.083-.163.083-.245.167-.408.25-.734.417-1.142l.084-.245.167-.327c.083-.163.167-.326.25-.571l.167-.245.167-.245c.083-.082.167-.245.167-.327l.083-.163.084-.081c0-.082.083-.164.083-.164 0-.081.083-.163.167-.245 0-.081.25-.326.334-.49l.083-.163.167-.163.167-.163.167-.245.167-.245.083-.082.167-.163.167-.245.083-.081.167-.164.167-.163.5-.49.168-.163.333-.327.167-.163.25-.245.168-.163.166-.163.334-.245.167-.163c.25-.164.584-.409.835-.572l.166-.081.167-.082.167-.082.25-.163.084-.082.167-.081c.25-.164.5-.245.75-.408l.168-.082.25-.082.167-.081.167-.082.167-.082.167-.081.167-.082.75-.326.168-.082.166-.082.167-.081.167-.082.334-.082.167-.081h.334l.25-.082.334-.081 1.001-.245h.918c.334 0 .668-.082 1.001-.082h2.754l.835.082.333.081H587.393l1.002.245.417.082h.083l.167.081.334.082h.167l.75.245.168.082.25.081.334.163.417.164.167.081.167.082.167.082.167.081.25.082.167.082.417.244.167.082c.167.082.417.245.584.408l.167.082.167.082.167.081.083.082.751.49.167.163.334.245.167.163.167.163.25.245.167.163.334.327c.083.082.167.082.167.163l.167-.163.333-.327.167-.163.25-.245.167-.163.167-.163.334-.245c.084 0 .084-.082.167-.163l.834-.572.167-.081.167-.082.167-.082.25-.163.167-.082.167-.081c.25-.164.5-.245.751-.408l.167-.082.25-.082.167-.081.167-.082.167-.082.167-.081.167-.082.751-.326.167-.082.167-.082.167-.081.167-.082.333-.082.167-.081h.334l.25-.082.334-.081c.334-.082.668-.164 1.085-.245h.918c.334 0 .667-.082 1.001-.082h2.754l.834.082c.167 0 .25 0 .334.081H613.011l1.001.245.418.082h.083l.167.081.334.082h.167l.75.245.168.082.25.081.334.163.417.164.167.081.167.082.167.082.166.081.25.082.168.082.417.244.167.082c.167.082.417.245.584.408l.167.082.167.082.167.081.083.082.751.49.167.163.334.245.167.163.167.163.25.164.167.163.083.081.167.164.084.081.083.082.167.163.334.327.167.163.25.327.334.326c.333.408.667.816 1.001 1.306l.167.163.167.164.083.163.167.327.167.244.083.164.084.163.083.163c0 .082.084.163.084.163l.083.164c.25.49.417.898.668 1.388 0 .081.083.163.083.163l.25.571c0 .082 0 .082.084.163.083.082.083.164.083.245 0 .082.084.164.084.245l.083.164c0 .081 0 .163.084.244l.083.245c0 .164.084.245.084.408 0 .082.083.164.083.245 0 .082.084.245.084.327v3.347c0 .081 1.084.571 1.084.735z" opacity=".1"/>
            <path fill="#FF6584" d="M507.615 211.167v2.083c0 .167 0 .417-.084.583-.084.167 0 .25-.084.417v.5l-.084.167v.166c0 .084 0 .167-.084.25v.167c0 .083-.084.167-.084.25l-.084.25v.083l-.084.25c-.084.25-.168.5-.252.834 0 .083-.084.166-.084.25l-.084.166a17.448 17.448 0 0 1-2.438 4.417l-.168.25c-.504.667-1.008 1.25-1.597 1.75l-26.139 26-26.223-26a18.136 18.136 0 0 1-2.017-2.417c-.42-.5-.757-1.083-1.093-1.666-1.765-3.167-2.521-6.834-2.27-10.417 0-.333.085-.667.085-1 .084-.583.168-1.167.336-1.75 0-.083.084-.25.084-.333v-.167-.083l.084-.25c.084-.167.084-.417.168-.584l.084-.25c.168-.416.252-.75.42-1.166l.084-.25c.084-.084.084-.25.169-.334.084-.083.168-.333.252-.583l.168-.25.168-.25.168-.333c0-.084.084-.084.084-.167l.084-.083.168-.167c0-.083.084-.167.168-.25l.336-.5.169-.167.168-.166.168-.25.168-.25c.084-.084.084-.167.168-.25 0 0 0-.084.084-.084l.168-.166.168-.25.084-.084.168-.166.168-.167.505-.5.168-.167.336-.333.168-.167.252-.25.168-.166.168-.167.337-.25.168-.167c.252-.25.588-.416.84-.583l.168-.083.168-.084.169-.083.252-.167.084-.083.168-.083c.252-.167.504-.25.756-.417l.168-.083v-.167l.168-.083.169-.084.168-.083.168-.083.168-.084.756-.333.168-.083.169-.084.168-.083.168-.083.336-.084.168-.083h.336l.252-.083.337-.084 1.008-.25h.925c.336 0 .672-.083 1.008-.083h2.774c.252 0 .588 0 .84.083l.337.084H465.843l1.009.25.42.083h.084c.084 0 .084 0 .168.083l.336.084.168.083.757.25.168.083.252.084.336.166.42.167.169.083.168.084.168.083.168.083.252.084.168.083.42.25.168.083.589.417.168.083.168.084.168.083.084.083.757.5c.084 0 .084.084.168.167s.252.167.336.25l.168.167.168.166.252.25c.084.084.168.084.168.167l.336.333.169.167.168-.167.336-.333.168-.167.252-.25.168-.166.168-.167c.084-.083.252-.167.336-.25l.169-.167c.252-.25.588-.416.84-.583l.168-.083.168-.084.168-.083.253-.167.084-.083.168-.083c.252-.167.504-.25.756-.417l.168-.083.252-.084.168-.083.169-.083.168-.084.168-.083.168-.083.756-.334.168-.083.168-.083.169-.084.168-.083.336-.083.168-.084h.336l.252-.083.337-.083 1.008-.25h.925c.336 0 .672-.084 1.008-.084h2.774l.84.084.337.083H491.478l1.009.25.42.083h.084c.084 0 .084 0 .168.084l.336.083.168.083.757.25.168.084.252.083.336.167.42.166.168.084.169.083.168.083.168.084.252.083.168.083.42.25.168.084.589.416.168.084.168.083.168.083.084.084.756.5.169.166.336.25.168.167.168.167.168.166.252.167.084.083.168.167.084.083.084.084.169.166.336.334.168.166c.084.084.168.167.252.334l.336.333c.336.417.673.833 1.009 1.333l.168.167.168.167c0 .083.084.083.084.166.084.084.168.167.168.334 0 .166.084.166.168.25l.084.166.084.167.084.167.084.166c0 .084.084.167.084.167.253.5.42.917.673 1.417 0 .083.084.166.084.166.084.167.168.417.252.584 0 .083 0 .083.084.166l.084.25.084.25v.167c0 .083 0 .167.084.167l.084.25c0 .166.084.333.084.416l.084.25.084.334V210.5c1.597.25 1.597.5 1.597.667z"/>
            <path fill="#000" d="M507.615 210.736v2.033c0 .163 0 .407-.083.57-.082.163 0 .244-.082.407v.488l-.083.163v.162c0 .082 0 .163-.083.244v.163c0 .081-.083.163-.083.244l-.083.244v.082l-.083.244c-.083.244-.166.488-.248.813 0 .082-.083.163-.083.244l-.083.163c.746-2.929.663-5.939-.166-8.868-1.16-4.312-3.979-8.054-7.874-10.495-.332-.162-.663-.406-.995-.57a18.67 18.67 0 0 0-17.572 0c-.58.326-1.16.652-1.74 1.058-.83.57-1.659 1.22-2.405 1.953a16.835 16.835 0 0 0-2.238-1.871 14.651 14.651 0 0 0-1.906-1.14c-7.128-3.823-15.997-2.603-21.717 3.011-.828.732-1.657 1.464-2.32 2.36-.332.487-.664 1.057-.995 1.545-.249.488-.58.976-.746 1.546-.166.325-.249.57-.332.895 0-.082.083-.244.083-.326v-.162-.082l.083-.244c.083-.163.083-.407.166-.57l.083-.243c.166-.407.248-.733.414-1.14l.083-.243c.083-.082.083-.245.166-.326.083-.081.166-.325.249-.57l.165-.243.166-.244.166-.326c0-.081.083-.081.083-.163l.083-.081.165-.163c0-.081.083-.162.166-.244l.332-.488.166-.163.165-.162.166-.244.166-.244c.083-.082.083-.163.166-.245 0 0 0-.08.083-.08l.165-.164.166-.244.083-.081.166-.163.166-.162.497-.489.166-.162.331-.326.166-.162.249-.244.165-.163.166-.163.332-.244.166-.163c.248-.244.58-.406.828-.57l.166-.08.166-.082.166-.081.248-.163.083-.081.166-.082c.249-.162.497-.244.746-.406l.166-.082.331-.163.166-.08.166-.082.166-.082.165-.08.166-.082.746-.326.166-.081.166-.081.166-.082.165-.081.332-.082.166-.08h.331l.249-.082.331-.082.995-.244h.912c.331 0 .663-.081.994-.081H464.514c.248 0 .58 0 .829.081l.331.082H466.42l.995.244.414.081h.083c.083 0 .083 0 .166.081l.332.082.165.081.746.244.166.082.249.081.331.163.415.162.165.082.166.081.166.081.166.082.248.081.166.082.415.244.165.081.58.407.166.081.166.081.166.082.083.081.746.488c.083 0 .083.082.166.163s.248.163.331.244l.166.163.166.163.248.244c.083.08.166.08.166.162l.332.326.166.162.165-.162.332-.326.166-.162.248-.244.166-.163.166-.163c.083-.081.248-.163.331-.244l.166-.163c.249-.244.58-.406.829-.57l.166-.08.166-.082.165-.081.249-.163.083-.081.166-.082c.248-.162.497-.244.746-.406l.165-.082.25-.081.165-.082.166-.08.165-.082.166-.082.166-.08.746-.326.166-.082.166-.081.165-.081.166-.082.332-.081.165-.082h.332l.249-.08.331-.082.995-.244h.912c.331 0 .663-.082.994-.082H489.795l.828.082.332.081H491.701l.995.244.414.081h.083c.083 0 .083 0 .166.082l.331.081.166.082.746.244.166.081.248.081.332.163.414.163.166.081.166.081.166.082.166.081.248.082.166.08.414.245.166.081.58.407.166.081.166.082.166.081.083.082.746.488.165.162.332.244.166.163.165.163.166.163.249.162.083.082.166.162.082.082.083.081.166.163.332.325.165.163c.083.081.166.163.25.325l.33.326c.332.407.664.813.995 1.301l.166.163.166.163c0 .081.083.081.083.163.083.08.166.162.166.325s.082.163.165.244l.083.163.083.163.083.162.083.163c0 .081.083.163.083.163.248.488.414.895.663 1.383 0 .081.083.162.083.162.083.163.166.407.248.57 0 .081 0 .081.083.163l.083.244.083.244v.162c0 .082 0 .163.083.163l.083.244c0 .163.083.326.083.407l.083.244.083.326V210.085c1.574.244 1.574.488 1.574.65z" opacity=".1"/>
            <path fill="#FF6584" d="M263.615 229.22V231.225c0 .168 0 .419-.083.586 0 .167 0 .25-.084.418v.501l-.084.167v.168c0 .083 0 .167-.084.25v.167c0 .084-.084.168-.084.168l-.084.25v.084l-.083.25c-.084.251-.168.586-.252.836 0 .084-.084.168-.084.251l-.084.167a17.528 17.528 0 0 1-2.43 4.43l-.168.25c-.503.586-1.006 1.254-1.593 1.756L232.265 268l-26.154-26.076c-.754-.752-1.425-1.588-2.095-2.424a18.908 18.908 0 0 1-1.09-1.672c-1.76-3.176-2.515-6.853-2.263-10.447 0-.334.083-.668.083-1.003.084-.585.168-1.17.336-1.755 0-.083.083-.25.083-.334l.084-.167v-.084c0-.083 0-.167.084-.25.084-.168.084-.418.168-.586.084-.167.084-.167.084-.25.167-.418.251-.753.419-1.17l.084-.251c.083-.084.083-.25.167-.335.084-.083.168-.334.252-.501l.084-.25.167-.251.168-.335.084-.167.083-.083.084-.168c0-.083.084-.167.168-.25l.335-.502.084-.167.168-.167c.084-.084.084-.167.167-.167.084-.084.084-.167.168-.251l.168-.25.084-.084.083-.168.168-.25.084-.084.167-.167.168-.167.503-.502.168-.167.335-.334.168-.167.251-.251.168-.167.167-.167.336-.251.167-.167c.252-.167.587-.418.839-.585l.167-.084.168-.083.168-.084c.083-.084.167-.084.251-.167l.084-.084.168-.083c.251-.167.503-.251.754-.418l.168-.084.083-.083.168-.084.168-.083.167-.084.168-.084.168-.083.754-.334.168-.084.167-.084.168-.083.168-.084.335-.083.168-.084h.335l.251-.084.336-.083 1.006-.25h.922c.335 0 .67-.084 1.006-.084h2.766l.838.083h1.006l1.006.25.42.084h.083l.168.084.335.084h.168l.754.25.168.084.251.084.335.167.42.167.167.083.168.084.167.084.168.083.252.084.167.083.42.251.167.084c.168.083.42.25.587.417l.167.084.168.084.168.083c.084 0 .084.084.084.084l.754.501.168.167.335.251.168.167.167.167.252.251.167.167.336.335.167.167.168-.167.335-.335.168-.167.251-.25.168-.168.168-.167.335-.25.168-.168c.251-.167.586-.418.838-.585l.168-.083.167-.084.168-.084.251-.167.084-.083.168-.084c.251-.167.503-.25.754-.418.084 0 .084-.083.168-.083l.251-.084.168-.083.168-.084.167-.084.168-.083.168-.084.754-.334.168-.084.167-.083.168-.084.168-.083.335-.084.168-.084h.335l.251-.083.336-.084 1.006-.25h.922c.335 0 .67-.084 1.006-.084h2.766l.838.084h1.09l1.006.25.419.084h.084l.167.083.336.084h.167l.755.25.167.084.252.084.335.167.42.167.167.084.168.083.167.084.168.084.251.083.168.084.42.25.167.084c.167.084.419.25.587.418l.167.083.168.084.167.084.084.083.755.502.167.167.336.25.167.168.168.167.168.167c.083.084.167.084.167.167l.168.084.168.167.083.084.084.083.168.167.335.335.168.167.251.334.336.334c.335.418.67.836 1.006 1.338l.083.167.168.167c0 .083.084.083.084.167.084.084.084.167.167.334.084.168.084.168.168.251l.084.167.084.167.084.168.083.167c0 .083.084.167.084.167.252.501.42.92.67 1.42l.085.168c.083.167.167.418.251.585l.084.167c0 .084.084.167.084.25l.084.252v.167l.083.25c0 .084.084.168.084.251 0 .167.084.25.084.418l.084.25.084.335V228.467c0 .084 2.095.586 2.095.753z"/>
            <path fill="#000" d="M263.615 228.857v1.966c0 .163 0 .41-.083.573 0 .164 0 .246-.083.41v.491l-.083.164v.164c0 .081 0 .163-.083.245v.164c0 .082-.083.164-.083.164l-.083.246v.082l-.083.245c-.083.246-.166.574-.249.82 0 .081-.083.163-.083.245l-.083.164c.747-2.949.664-5.98-.083-8.928-1.245-4.424-4.233-8.191-8.216-10.485-.332-.246-.664-.41-.996-.573a18.605 18.605 0 0 0-17.596 0c-.581.327-1.162.655-1.743 1.064-.83.574-1.66 1.23-2.407 1.966a16.88 16.88 0 0 0-2.241-1.884 38.23 38.23 0 0 0-1.909-1.228 18.605 18.605 0 0 0-17.596 0c-.913.491-1.826 1.065-2.573 1.72-.498.41-1.079.9-1.577 1.31-.747.738-1.41 1.475-1.992 2.376-.332.491-.664 1.065-.996 1.556-.249.492-.58.983-.747 1.557a3.96 3.96 0 0 0-.332.9c0-.081.083-.245.083-.327l.083-.164v-.082c0-.082 0-.164.083-.246.083-.163.083-.41.166-.573.083-.164.083-.164.083-.246.166-.41.25-.737.415-1.146l.083-.246c.083-.082.083-.246.166-.328.083-.082.166-.327.25-.491l.082-.246.166-.246.166-.327.083-.164.083-.082.083-.164c0-.082.083-.164.166-.246l.332-.491.083-.164.166-.164c.083-.082.083-.164.166-.164.083-.082.083-.163.166-.245l.166-.246.083-.082.083-.164.166-.246.083-.081.166-.164.166-.164.498-.492.166-.163.332-.328.166-.164.25-.246.165-.163.166-.164.332-.246.166-.164c.25-.164.581-.41.83-.573l.166-.082.166-.082.166-.082c.083-.082.166-.082.25-.164l.082-.082.166-.082c.25-.163.498-.245.747-.41l.166-.081.415-.082.166-.082.166-.082.166-.082.166-.082.166-.082.747-.327.166-.082.166-.082.166-.082.166-.082.332-.082.166-.082h.332l.25-.082.331-.081.996-.246h.913c.332 0 .664-.082.996-.082h2.739l.83.082H222.2l.996.246.415.081h.083l.166.082.332.082h.166l.747.246.166.082.249.082.332.164.415.163.166.082.166.082.166.082.166.082.249.082.166.082.415.246.166.082c.166.082.415.245.581.41l.166.081.166.082.166.082c.083 0 .083.082.083.082l.747.491.166.164.332.246.166.164.166.163.249.246.166.164.332.328.166.163.166-.163.332-.328.166-.164.249-.246.166-.163.166-.164.332-.246.166-.164c.249-.164.58-.41.83-.573l.166-.082.166-.082.166-.082.249-.164.083-.082.166-.081c.249-.164.498-.246.747-.41.083 0 .083-.082.166-.082l.249-.082.166-.082.166-.082.166-.082.166-.082.166-.081.747-.328.166-.082.166-.082.166-.082.166-.082.332-.082.166-.082h.332l.249-.081.332-.082.996-.246h.913c.332 0 .664-.082.996-.082h2.739l.83.082h1.079l.996.246.415.082h.083l.166.081.332.082h.166l.747.246.166.082.249.082.332.164.415.164.166.081.166.082.166.082.166.082.249.082.166.082.415.246.166.082c.166.082.415.245.58.41l.167.081.166.082.166.082.083.082.747.491.166.164.332.246.166.164.166.164.166.163c.083.082.166.082.166.164l.166.082.165.164.083.082.083.082.166.164.332.327.166.164.25.328.331.327c.332.41.664.82.996 1.31l.083.165.166.164c0 .081.083.081.083.163.083.082.083.164.166.328s.083.164.166.246l.083.164.083.163.083.164.083.164c0 .082.083.164.083.164.25.491.415.9.664 1.392l.083.164c.083.164.166.41.25.574l.082.163c0 .082.083.164.083.246l.083.246v.164l.083.245c0 .082.083.164.083.246 0 .164.083.246.083.41l.083.245.083.328V228.12c0 .082 1.826.574 1.826.738z" opacity=".1"/>
            <path fill="#FF6584" d="M255.615 361.11V363.196l-.083.584c0 .084 0 .25-.084.418V365.032c0 .084 0 .167-.084.25l-.084.167-.084.25-.084.251v.084s-.083.167-.083.25c-.084.25-.168.5-.252.835l-.084.25c0 .083 0 .083-.084.167a17.495 17.495 0 0 1-2.43 4.423l-.168.25c-.503.585-1.006 1.252-1.593 1.753L224.265 400l-26.154-26.038c-.754-.751-1.425-1.586-2.095-2.42-.42-.501-.755-1.085-1.09-1.67-1.76-3.17-2.515-6.843-2.263-10.431 0-.334.083-.668.083-1.002.084-.584.168-1.168.336-1.752 0-.084.083-.25.083-.334l.084-.167v-.084l.084-.25c.084-.167.084-.417.168-.584l.084-.25c.167-.418.251-.752.419-1.169l-.084-.25.168-.334a4.06 4.06 0 0 0 .251-.584l.168-.25.167-.25c.084-.084.084-.251.168-.335l.084-.167.084-.083c0-.084.083-.167.083-.167.084-.083.084-.167.168-.25l.335-.501c0-.084.084-.084.084-.167l.168-.167.168-.25.167-.25.168-.251.084-.083.084-.167.167-.25.084-.084.168-.167.251-.167.503-.5.168-.168.335-.334.168-.166.251-.25.168-.168.167-.167c.084-.083.252-.167.336-.25l.167-.167c.252-.25.587-.417.839-.584l.167-.084c.084-.083.084-.083.168-.083l.168-.083.251-.167.084-.084.168-.083c.251-.167.503-.25.754-.418l.168-.083.251-.083.168-.084.167-.083.168-.084.168-.083.167-.084.755-.334.167-.083.168-.083.168-.084.167-.083.336-.084.167-.083h.336l.251-.084.335-.083 1.006-.25h.922c.336 0 .671-.084 1.006-.084H211.86l.838.083.335.084H213.787l1.005.25.42.084h.083l.168.083.335.084.168.083.754.25.168.084.252.083.335.167.419.167.168.084.167.083.168.084.168.083.251.083.168.084.419.25.167.084c.168.083.42.25.587.417l.168.083.168.084.167.083.084.084.754.5.168.167.335.25.168.168.168.167.251.25.168.167.335.334.168.167.167-.167.336-.334.167-.167.252-.25.168-.167.167-.167.335-.25.168-.167c.252-.25.587-.418.838-.585l.168-.083.168-.084.167-.083.252-.167.167-.083.168-.084.755-.417.167-.084.252-.083.167-.083.168-.084.168-.083.167-.084.168-.083.754-.334.168-.084.168-.083.167-.083.168-.084.335-.083.168-.084h.335l.252-.083.335-.084 1.006-.25h.922l1.006-.084h2.766c.252 0 .503 0 .838.084l.336.083H239.437l1.006.25.42.084h.083l.168.084.335.083.168.084.754.25.168.083.251.084.335.167.42.167.167.083.168.084.167.083.168.083.252.084.167.083c.168.084.252.167.42.25l.167.084.587.417.167.084.168.083.168.084.084.083.754.501.168.167.335.25.168.167.167.167.252.167.167.167.084.083.168.167.084.084.084.083.167.167.335.334.168.167.252.334.335.334c.335.417.67.834 1.006 1.335l.167.167.084.167.084.167.168.333.167.25.084.168.084.167s0 .083.084.166c0 .084.084.167.084.167 0 .084.084.167.084.167.251.501.419.918.67 1.419 0 .083.084.167.084.167l.251.584.084.167c0 .083.084.167.084.25 0 .084.084.167.084.25l.084.168.084.167.083.25c0 .167.084.25.084.417 0 .084.084.167.084.25 0 .084.084.167.084.334V360.61c0 .084 1.676.334 1.676.5z"/>
            <path fill="#000" d="M255.615 360.65v2.061l-.083.578c0 .082 0 .247-.083.412V364.526c0 .082 0 .165-.083.247l-.083.165-.083.248-.083.247v.082s-.083.165-.083.248c-.083.247-.167.495-.25.825l-.083.247c0 .083 0 .083-.083.165.333-1.485.499-2.887.499-4.371 0-1.567-.25-3.052-.665-4.536-1.164-4.371-3.99-8.165-7.896-10.64-.332-.164-.664-.412-.997-.577a18.54 18.54 0 0 0-17.62 0c-.581.33-1.163.66-1.745 1.072-.914.578-1.828 1.238-2.576 1.98a16.926 16.926 0 0 0-2.244-1.897 14.658 14.658 0 0 0-1.911-1.155 18.391 18.391 0 0 0-20.28 1.732c-.498.413-1.08.907-1.495 1.402-.748.743-1.413 1.485-1.995 2.392-.332.495-.665 1.072-.997 1.567-.25.495-.582.99-.748 1.567a4 4 0 0 0-.333.907c0-.082.083-.247.083-.33l.084-.165v-.082l.083-.247c.083-.165.083-.413.166-.578l.083-.247c.166-.413.25-.742.416-1.155l.083-.165.166-.33.25-.577.165-.247.167-.248c.083-.082.083-.247.166-.33l.083-.165.083-.082c0-.083.083-.165.083-.165.083-.083.083-.165.166-.248l.333-.494c0-.083.083-.083.083-.165l.166-.165.166-.248.167-.247.166-.248.083-.082.083-.165.166-.247.083-.083.167-.165.249-.165.499-.495.166-.165.332-.33.167-.164.249-.248.166-.165.166-.165c.083-.082.25-.165.333-.247l.166-.165c.25-.248.582-.412.831-.577l.166-.083c.083-.082.083-.082.166-.082l.167-.083.249-.165.083-.082.166-.083c.25-.165.499-.247.748-.412l.167-.083.249-.082.166-.083.166-.082.167-.082.166-.083.166-.082.748-.33.166-.083.166-.082.167-.083.166-.082.332-.083.167-.082h.332l.25-.083.332-.082.997-.248h.914c.333 0 .665-.082.998-.082h2.742l.831.082.333.083H214.31l.997.247.416.083h.083l.166.082.332.083.167.082.748.248.166.082.25.083.332.165.415.165.166.082.167.082.166.083.166.082.25.083.166.082.415.248.166.082c.167.083.416.248.582.413l.166.082.167.083.166.082.083.083.748.494.166.165.333.248.166.165.166.165.25.247.166.165.332.33.166.165.166-.165.333-.33.166-.165.25-.247.166-.165.166-.165.332-.248.166-.165c.25-.247.582-.412.832-.577l.166-.082.166-.083.166-.082.25-.165.166-.083.166-.082.748-.413.166-.082.25-.083.166-.082.166-.083.166-.082.166-.082.167-.083.748-.33.166-.082.166-.083.166-.082.167-.083.332-.082.166-.083h.333l.249-.082.332-.083.998-.247h.914l.997-.083h2.743c.25 0 .499 0 .831.083l.332.082H239.741l.998.248.415.082h.083l.167.083.332.082.166.083.748.247.166.083.25.082.332.165.416.165.166.082.166.083.166.082.167.083.249.082.166.083c.166.082.25.165.416.247l.166.083.582.412.166.083.166.082.166.083.084.082.748.495.166.165.332.247.166.165.167.165.249.165.166.165.083.083.166.164.084.083.083.082.166.165.332.33.167.165.249.33.332.33c.333.412.665.825.998 1.32l.166.165.083.164.083.165.166.33.167.248.083.165.083.165s0 .082.083.165c0 .082.083.165.083.165 0 .082.083.164.083.164.25.495.416.908.665 1.403 0 .082.083.164.083.164l.25.578.083.165c0 .082.083.165.083.247 0 .083.083.165.083.248l.083.165.083.165.083.247c0 .165.083.247.083.412 0 .083.083.165.083.248 0 .082.083.165.083.33V360.402c0 .083 1.496.083 1.496.247z" opacity=".1"/>
            <path fill="#FF6584" d="M324.122 276.086v1.317l-.083.412-.082.247v1.152l-.082.165-.083.164c-.082.165-.164.412-.164.576-.083.165 0 .165-.083.165v.082a13.035 13.035 0 0 1-1.728 3.128l-.165.164c-.329.412-.658.823-1.07 1.235L302.475 303l-18.108-18.107c-2.634-2.716-4.033-6.42-3.704-10.206 0-.247.082-.494.082-.658l.247-1.235c0-.082 0-.164.082-.247v-.164l.083-.165c0-.165.082-.33.164-.411l.083-.165c.082-.247.164-.576.329-.823l.082-.165c0-.082.082-.164.082-.247l.165-.411c0-.082.082-.082.082-.165l.083-.164c.082-.083.082-.165.164-.247 0 0 0-.083.083-.083l.082-.164.082-.165.247-.329.082-.165.083-.164.082-.165.165-.164c0-.083.082-.083.082-.165v-.082l.082-.083.165-.164.082-.083.083-.082.164-.164.33-.33.164-.164.247-.165c.082 0 .082-.082.165-.165l.164-.164.082-.082.083-.083.247-.164.082-.083.576-.411.165-.082.082-.083.082-.082.165-.082.082-.083.165-.082.494-.247.082-.082.165-.083.164-.082.165-.082.082-.082.165-.083.165-.082.576-.247.164-.082.165-.083.082-.082h.083l.246-.082h.33l.164-.082.247-.083c.247-.082.494-.082.741-.164h.658c.247 0 .494-.083.741-.083h1.976l.576.083H295.89c.247 0 .494.082.74.164l.33.083h.164l.247.082h.083l.576.164.082.083.165.082.247.082.247.083.082.082.165.082.164.083.165.082.164.082.083.082.329.165.165.082.411.247.082.083.083.082.164.082.083.083c.164.082.329.246.493.411l.083.082.247.165.082.082.082.083.165.164.165.165c.082.082.164.164.247.164l.164.165.165-.165c.082-.082.164-.164.247-.164l.164-.165.165-.164.082-.083.083-.082.246-.165.083-.082c.164-.165.411-.33.576-.411l.082-.083.083-.082.082-.082.164-.083.083-.082.164-.082.494-.247.083-.083.164-.082.082-.082.165-.082.165-.083.164-.082.165-.082.494-.247.164-.083.165-.082.165-.082h.082l.247-.082h.329l.165-.083.247-.082c.247-.082.493-.082.74-.165h.659c.247 0 .494-.082.658-.082h1.976l.576.082H314.08l.74.165.33.082h.247l.247.083h.082l.494.164.165.082.164.083.247.082.247.082.082.083.165.082.165.082.164.083.165.082.164.082.33.165.164.082c.165.082.247.165.412.247l.082.082.165.083.164.082.083.082c.164.083.329.247.494.412l.082.082c.082.082.164.082.247.165l.082.082.082.082.165.165.165.164.082.083.165.164.082.083.082.082.165.165.247.247.082.164.165.247.247.247c.246.33.493.576.658.905l.082.083c0 .082.083.082.083.164l.082.083c0 .082.082.164.165.164l.082.165.082.082.082.082.083.083.082.164.082.165c.165.33.33.658.412.988l.082.164c.083.165.083.247.165.412v.164c0 .083 0 .083.082.165l.082.164v.247l.083.165c0 .082.082.165.082.33v.164l.082.247v2.222l-.493.658z"/>
            <path fill="#000" d="M324.034 276.81V278.1l-.083.402-.083.242v1.128l-.083.161-.083.161c-.083.161-.166.403-.166.564-.083.161 0 .161-.083.161V281c.25-.967.332-2.014.332-3.062 0-1.047-.166-2.094-.415-3.142-.581-2.095-1.743-4.109-3.32-5.64a11.54 11.54 0 0 0-2.242-1.692c-.25-.16-.498-.241-.664-.402a13.124 13.124 0 0 0-12.453 0l-1.245.725c-.582.403-1.163.886-1.66 1.37a12.058 12.058 0 0 0-1.578-1.29c-.415-.322-.913-.564-1.328-.805a13.124 13.124 0 0 0-12.453 0c-.664.322-1.246.725-1.827 1.208-.415.322-.747.564-1.079.967a13.26 13.26 0 0 0-1.411 1.611 5.1 5.1 0 0 0-.664 1.128c-.166.323-.416.725-.582 1.048a5.45 5.45 0 0 0-.249.644c0-.08 0-.16.083-.241v-.161l.083-.162c0-.16.083-.322.166-.403l.083-.16c.083-.242.167-.565.333-.806l.083-.162c0-.08.083-.16.083-.241l.166-.403c0-.08.083-.08.083-.161l.083-.161c.083-.08.083-.162.166-.242 0 0 0-.08.083-.08v-.081l.083-.161.083-.161.249-.323.083-.16.083-.162.083-.161.166-.161c0-.08.083-.08.083-.161v-.081l.083-.08.166-.162.083-.08.083-.08.166-.162.332-.322.166-.161.25-.162c.082 0 .082-.08.165-.16l.166-.162.083-.08.083-.081.25-.161.082-.08.582-.404.166-.08.083-.08.083-.081.166-.08.083-.081.166-.08.498-.243.083-.08.166-.08.166-.081.166-.08.083-.081.166-.081.166-.08.581-.242.166-.08.166-.081.083-.081h.083l.25-.08h.331l.166-.081.25-.08c.249-.081.498-.081.747-.162h.664c.249 0 .498-.08.747-.08h1.992l.582.08H295.642c.249 0 .498.08.747.161l.332.08h.166l.25.081h.082l.581.162.083.08.166.08.25.081.248.08.083.081.167.081.166.08.166.081.166.08.083.081.332.161.166.08.415.243.083.08.083.08.166.081.083.08c.166.081.332.243.498.404l.083.08.25.161.082.081.083.08.166.162.166.16c.083.081.166.162.25.162l.165.161.166-.161c.083-.08.166-.161.25-.161l.165-.161.167-.161.083-.081.083-.08.249-.162.083-.08c.166-.161.415-.323.58-.403l.084-.08.083-.081.083-.08.166-.081.083-.08.166-.081.498-.242.083-.08.166-.081.083-.08.166-.081.166-.081.166-.08.166-.081.498-.242.166-.08.166-.081.166-.08h.083l.25-.081h.332l.166-.08.249-.081c.249-.08.498-.08.747-.161h.664c.25 0 .498-.081.664-.081h1.993l.58.08H313.99l.747.162.332.08h.249l.25.08h.082l.498.162.166.08.167.081.249.08.249.081.083.08.166.081.166.081.166.08.166.081.166.08.332.162.166.08c.166.08.249.162.415.242l.083.08.166.081.166.08.083.081c.166.08.332.242.498.403l.083.08c.083.081.166.081.25.162l.082.08.083.081.166.161.166.161.083.08.167.162.083.08.083.081.166.161.249.242.083.161.166.242.249.242c.249.322.498.564.664.886l.083.08c0 .08.083.08.083.162l.083.08c0 .08.083.161.166.161l.083.161.083.08.083.081.083.081.083.161.083.161c.166.323.332.645.415.967l.083.161c.083.161.083.242.166.403v.161c0 .08 0 .08.083.161l.083.162v.241l.083.161c0 .081.083.162.083.323v.16l.083.243V276.165l-.58.645z" opacity=".1"/>
            <path fill="#FF6584" d="M519.29 345.948v1.238l-.082.412v1.484l-.083.165v.083c0 .082-.083.082-.083.165-.083.165-.083.412-.166.577 0 .083-.083.083-.083.165v.083a13.047 13.047 0 0 1-1.739 3.134l-.165.165c-.332.412-.746.824-1.077 1.237L497.592 373l-18.219-18.144a13.474 13.474 0 0 1-1.408-1.65c-.248-.412-.497-.742-.745-1.154-1.242-2.227-1.74-4.784-1.574-7.34 0-.248 0-.496.083-.66l.249-1.238c0-.082 0-.165.082-.247v-.082-.083l.083-.165c0-.165.083-.247.166-.412 0-.083.083-.165.083-.165.082-.248.165-.578.33-.825l.084-.165c0-.082.083-.165.083-.247 0-.083.165-.248.165-.413l.083-.165.083-.165c.083-.082.083-.165.165-.247 0 0 0-.082.083-.082v-.083c0-.082.083-.082.083-.165l.083-.165.248-.33.083-.082.083-.165.083-.165.165-.165.166-.165v-.082l.083-.083.165-.165.083-.082.083-.165.166-.165c.083-.165.248-.248.331-.33l.166-.165c.082-.083.165-.165.248-.165l.166-.165.165-.165.083-.082.083-.083.248-.165.083-.082c.166-.165.414-.33.58-.413l.166-.082.165-.083.083-.082.166-.083.082-.082.166-.083.497-.247.083-.082.165-.083.166-.082.166-.083.165-.082.166-.083.166-.082.58-.248.165-.082.166-.083h.248l.248-.082h.332l.165-.083.249-.082c.248-.083.497-.083.745-.165h.663l.745-.083h1.988l.58.083H491.298c.248 0 .496.082.745.165l.331.082h.249l.248.083h.083l.497.165h.083l.165.082.249.083.248.082.083.083.166.082.165.083.166.082.165.083.166.082.248.165.166.082.414.248.083.082.166.083.082.082.083.083.497.412.166.083.248.165.083.082.083.083.166.164.165.165.249.165.165.165.166-.165.248-.165.166-.165.166-.164.082-.083.083-.082.249-.165.082-.083c.166-.165.415-.33.58-.412l.166-.083.165-.082.083-.083.166-.082.083-.083.165-.082.497-.247.083-.083.166-.082.165-.083.166-.082.166-.083.165-.082.166-.083.497-.247.165-.083.166-.082h.248l.249-.083h.331l.166-.082.248-.083c.249-.082.497-.082.746-.165h.662l.663-.082h1.987l.58.082H509.932c.249 0 .497.083.745.165l.332.083h.248l.249.082h.082l.497.165h.166l.166.083.248.082.248.083.083.082.166.083.166.082.165.083.166.082.165.083.332.165.165.082c.166.082.249.165.414.247l.083.083.166.082.166.083.082.082.497.413.083.082.249.165.082.083.083.082.166.165.165.165.083.082c0 .083.083.083.166.165l.083.083.082.082.166.165.249.248.082.165c.083.082.166.165.166.247l.248.248c.249.33.497.577.663.907 0 0 .083.082.083.165l.083.165.082.082c.083.083.083.165.166.165l.083.165.083.082.083.083.082.082.083.165.083.165c.166.33.331.66.414.99 0 .082.083.082.083.165.083.165.083.247.165.412l.083.165c0 .083 0 .083.083.165l.083.165v.248l.083.165c0 .082.083.164.083.33v.164l.082.248V345.454l-1.325.494z"/>
            <path fill="#000" d="M519.31 345.71V346.924l-.082.405V348.786l-.082.162v.08c0 .082-.082.082-.082.162-.081.162-.081.405-.163.567 0 .081-.082.081-.082.162V350c.245-.971.327-2.024.327-3.076-.082-4.29-2.286-8.257-5.878-10.524-.244-.162-.49-.324-.653-.405a12.662 12.662 0 0 0-12.245 0l-1.224.729c-.571.405-1.143.89-1.633 1.376-.49-.486-.98-.89-1.55-1.295-.409-.324-.899-.567-1.307-.81a12.662 12.662 0 0 0-12.245 0c-.653.324-1.224.729-1.796 1.215-.408.323-.734.647-1.06.971a13.24 13.24 0 0 0-1.389 1.619c-.244.324-.49.729-.734 1.133-.164.324-.408.729-.572 1.053a5.548 5.548 0 0 0-.245.647c0-.08 0-.162.082-.243v-.161-.081l.082-.162c0-.162.081-.243.163-.405 0-.081.082-.162.082-.162.081-.243.163-.486.326-.81l.082-.161c0-.081.081-.162.081-.243 0-.081.164-.243.164-.405l.081-.162.082-.162c.082-.08.082-.162.163-.243 0 0 0-.08.082-.08v-.082c0-.08.081-.08.081-.161l.082-.162.245-.324.082-.081.081-.162.082-.162.163-.162.163-.162v-.08l.082-.082.163-.162.082-.08.082-.081.163-.162.326-.324.164-.162c.081-.081.163-.162.244-.162l.164-.162.163-.162.082-.08.081-.082.245-.162.082-.08a2.48 2.48 0 0 1 .571-.405l.164-.081.163-.081.081-.081.164-.081.081-.081.164-.081.49-.243.081-.08.163-.082.164-.08.163-.082.163-.08.163-.082.164-.08.571-.243.163-.081.164-.081h.244l.245-.081h.327l.163-.081.245-.081c.245-.081.49-.081.735-.162h.653l.734-.081h1.96l.571.08H491.717c.245 0 .49.082.735.163l.327.08h.245l.244.082h.082l.49.162h.082l.163.08.245.082.245.08.081.081.163.081.164.081.163.081.163.081.164.081.244.162.164.081.408.243.081.08.164.082.081.08.082.082.49.404.163.081.245.162.082.081.081.081.164.162.163.162.245.162.163.162.163-.162.245-.162c.082-.08.082-.08.163-.162l.164-.162.081-.08.082-.082.245-.162.081-.08a2.48 2.48 0 0 1 .572-.405l.163-.081.163-.081.082-.081.163-.081.082-.081.163-.081.49-.243.082-.08.163-.082.163-.08.163-.082.164-.08.163-.082.163-.08.49-.243.163-.081.164-.081h.244l.245-.081h.327l.163-.081.245-.081c.245-.081.49-.081.735-.162h.653l.653-.081h1.959l.571.081H510.085c.245 0 .49.08.734.162l.327.08h.245l.245.082h.081l.49.162h.163l.164.08.245.082.245.08.081.081.163.081.164.081.163.081.163.081.164.081.326.162.163.081c.164.081.245.162.408.243l.082.08.163.082.164.08.081.082.49.405.082.08.245.162.081.081.082.081.163.162.163.162.082.081c0 .081.082.081.163.162l.082.08.082.082.163.162.245.243.081.162c.082.08.164.161.164.242l.245.243c.244.324.49.567.653.89 0 0 .081.082.081.163l.082.162.081.161c.082.081.082.162.164.162l.081.162.082.081.082.081.081.081.082.162.082.162c.163.324.326.648.408.971 0 .081.081.081.081.162.082.162.082.243.164.405l.081.162c0 .08 0 .08.082.162l.081.162v.243l.082.161c0 .081.082.162.082.324v.162l.081.243V345.305l-1.306.405z" opacity=".1"/>
            <circle cx="616.115" cy="79.5" r="17.5" fill="#4B4B5B"/>
            <circle cx="696.615" cy="123" r="14" fill="#4B4B5B"/>
            <circle cx="109.115" cy="123.5" r="45.5" fill="#4B4B5B"/>
            <circle cx="691.615" cy="60" r="5" fill="#4B4B5B"/>
            <path fill="#FF6584" d="M140.615 71.25v2.083l-.083.584c0 .166 0 .25-.084.416V75.167c0 .083 0 .166-.083.25v.166c0 .084 0 .167-.084.25 0 .084 0 .167-.084.25v.084c0 .083-.083.166-.083.25-.084.25-.167.583-.251.833 0 .083-.084.167-.084.25 0 .083 0 .083-.083.167a17.476 17.476 0 0 1-2.425 4.416l-.25.167c-.502.667-1.004 1.25-1.589 1.75l-26.335 26-26.084-26a18.114 18.114 0 0 1-2.006-2.417c-.418-.5-.753-1.083-1.087-1.666-1.756-3.167-2.508-6.834-2.258-10.417 0-.333.084-.667.084-1 .084-.583.167-1.167.334-1.75 0-.083.084-.25.084-.333l.084-.167v-.083l.083-.25c.084-.167.084-.417.167-.584.084-.166.084-.166.084-.25.167-.416.25-.75.418-1.166l.084-.25.167-.334.25-.583c0-.083.084-.167.168-.25.083-.083.083-.167.167-.25.084-.083.084-.25.167-.333 0-.084.084-.084.084-.167l.083-.083.084-.167c.084-.083.084-.167.167-.25l.335-.5.083-.167.168-.166.167-.25.167-.25.167-.25.084-.084.083-.166c.084-.084.168-.167.168-.25l.083-.084.167-.166.168-.167.501-.5.167-.167.335-.25.167-.166.25-.25.168-.167.167-.167.335-.25.167-.166c.25-.25.585-.417.836-.584L85.52 56l.167-.083.167-.084.251-.166.084-.084.167-.083c.25-.167.502-.25.753-.417l.167-.083.25-.083.168-.084.167-.083.167-.083.167-.084.168-.083c.25-.083.501-.167.752-.333l.167-.084.167-.083.168-.083.167-.084.334-.083.251-.167.167-.083h.167l.251-.083.335-.084 1.003-.25h.92c.334 0 .668-.083 1.003-.083h2.759c.25 0 .501.083.836.083l.334.084H98.898l1.003.25.418.083h.083l.168.083.334.084.167.083.753.25.167.083.25.084.335.166.418.167.167.083.251.084.167.083.168.083.25.167.168.083.418.25.167.084.585.333.167.083.167.084.168.083.083.083.753.5.167.167.334.25.167.167.168.166.25.25.168.167.334.25.167.167.167-.167c.084-.083.168-.167.335-.25l.167-.167.25-.25.168-.166.167-.167.335-.25.167-.167c.25-.25.585-.416.836-.583l.167-.083.167-.084.168-.083.25-.167.084-.083.167-.083c.251-.167.502-.25.753-.417l.167-.083.25-.084.168-.083.167-.083.167-.084.167-.083.168-.083c.25-.084.501-.167.752-.334l.167-.083.168-.083.167-.084.167-.083.334-.083.168-.084.167-.083h.167l.25-.083.335-.084c.335-.083.669-.166 1.087-.25h.92c.334 0 .668-.083 1.003-.083h2.759l.836.083.334.084H124.564l1.003.25.418.083h.083l.168.083.334.084.167.083.753.25.167.083.25.084.335.166.418.167.167.083.168.084.167.083.167.083.25.167.168.083.418.25.167.084.585.333.168.083.167.084.167.166.084.084.752.5c.084 0 .084.083.167.166.084.084.251.167.335.25l.167.167.167.167.25.166.168.167.084.083.167.167.084.083.083.084.167.166.335.334.167.166.334.334.335.333c.334.417.669.833.92 1.333l.167.167.167.167.083.166.168.25.167.25.083.167.084.167.084.166.083.167.084.167c.25.5.418.916.669 1.416l.083.167c.084.167.168.417.251.583 0 .084.084.084.084.167s.083.167.083.25l.084.25.084.167c0 .083 0 .166.083.166l.084.25c0 .167.083.25.083.417 0 .167 0 .167.084.25.084.083 0 .167.084.333V70.583l1.504.667z"/>
            <path fill="#000" d="M140.615 71.736v2.033l-.083.57c0 .163 0 .244-.083.407V75.559c0 .082 0 .163-.083.244v.163c0 .081 0 .163-.083.244 0 .082 0 .163-.083.244v.082c0 .08-.083.162-.083.244-.083.244-.166.57-.25.813 0 .082-.083.163-.083.244 0 .082 0 .082-.083.163 1.496-6.102-.332-12.447-4.903-16.922-.915-.895-1.995-1.709-3.158-2.44-.333-.163-.665-.407-.998-.57-6.233-3.417-13.88-3.01-19.614 1.057-.83.57-1.662 1.22-2.41 1.953a16.87 16.87 0 0 0-2.244-1.871 14.699 14.699 0 0 0-1.911-1.14 18.764 18.764 0 0 0-17.62 0c-.914.489-1.828 1.058-2.576 1.71-1.33 1.057-2.577 2.277-3.574 3.66-.332.488-.748 1.058-.997 1.546-.25.488-.582.976-.748 1.546-.166.244-.25.57-.333.895 0-.082.083-.244.083-.326l.084-.162v-.082l.083-.244c.083-.163.083-.407.166-.57.083-.162.083-.162.083-.243.166-.407.25-.733.416-1.14l.083-.243.166-.326.25-.57c0-.08.082-.162.165-.243.084-.082.084-.163.167-.244.083-.082.083-.245.166-.326 0-.081.083-.081.083-.163l.083-.081.083-.163c.083-.081.083-.162.166-.244l.333-.488.083-.163.166-.162.166-.244.167-.244.166-.245.083-.08.083-.164c.083-.08.166-.162.166-.244l.083-.081.167-.163.166-.162.499-.489.166-.162.332-.244.166-.163.25-.244.166-.163.166-.163.333-.244.166-.162c.25-.244.582-.407.83-.57l.167-.081.166-.082.167-.08.249-.164.083-.081.166-.081c.25-.163.499-.244.748-.407l.166-.081.25-.082.166-.081.166-.082.166-.08.167-.082.166-.082c.25-.08.499-.162.748-.325l.166-.081.166-.082.167-.081.166-.081.332-.082.25-.163.166-.08h.166l.25-.082.332-.082c.332-.08.665-.162.997-.244h.914c.333 0 .665-.081.998-.081h2.742c.25 0 .499.081.831.081l.333.082H99.31l.997.244.416.081h.083l.166.081.332.082.167.081.748.244.166.082.25.081.332.163.415.162.166.082.25.081.166.081.166.082.25.163.166.08.415.245.166.081.582.326.166.081.167.081.166.082.083.081.748.488.166.163.333.244.166.163.166.163.25.244.166.162.332.244.166.163.167-.163c.083-.081.166-.162.332-.244l.166-.162.25-.244.166-.163.166-.163.332-.244.167-.163c.249-.244.581-.406.83-.57l.167-.08.166-.082.166-.081.25-.163.083-.081.166-.082c.25-.162.499-.244.748-.406l.166-.082.25-.081.166-.082.166-.08.166-.082.166-.082.167-.08c.249-.082.498-.164.748-.326l.166-.082.166-.081.166-.081.167-.082.332-.081.166-.082.166-.08h.167l.249-.082.332-.082c.333-.08.665-.162 1.08-.244h.915c.332 0 .665-.081.997-.081h2.743l.831.081.333.082H124.824l.998.244.415.081h.083l.167.081.332.082.166.081.748.244.167.082.249.081.332.163.416.162.166.082.166.081.167.081.166.082.25.163.165.08.416.245.166.081.582.326.166.081.166.081.167.163.083.082.748.488c.083 0 .083.081.166.162.083.082.25.163.332.244l.166.163.167.163.249.163.166.162.083.082.167.162.083.082.083.081.166.163.332.325a252372.728 252372.728 0 0 1 .5.488l.332.326c.332.407.664.813.914 1.301l.166.163.166.163.083.163.167.244.166.244.083.162.083.163.083.163.083.163.083.162c.25.488.416.895.665 1.383l.083.163c.083.163.167.407.25.57 0 .08.083.08.083.162s.083.163.083.244l.083.244.083.163c0 .081 0 .163.083.163l.083.244c0 .163.083.244.083.407 0 .162 0 .162.084.244.083.081 0 .162.083.325v3.417l1.33.57z" opacity=".1"/>
            <path fill="url(#c)" d="M74.681 141.685v-.33.33z" transform="translate(134.615 386)"/>
            <path fill="url(#d)" d="M74.681 141.355v-.331.33z" transform="translate(134.615 386)"/>
            <g transform="translate(442.955 422.393)">
                <path fill="#F7D6C8" d="M94.906.248C88.026 0 80.4.91 75.759 5.955c-3.564 3.888-4.725 9.43-8.04 13.565-4.642 5.873-12.765 7.858-17.904 13.234-4.559 4.88-6.134 11.745-4.227 18.114.746 2.316 1.906 4.466 2.652 6.7 3.15 9.594-.994 19.85-3.564 29.61-.249.827-.331 1.655-.166 2.482.415 1.158 1.658 1.82 2.653 2.564 3.398 2.316 5.139 6.534 5.47 10.587.332 4.135-.58 8.188-1.575 12.158-2.486 10.588-5.636 22.002-14.256 28.702-3.647 2.894-8.538 5.128-9.45 9.677-1.077 5.293 3.98 9.843 8.87 12.241 14.34 7.113 31 7.196 46.665 10.34 13.842 2.811 27.601 8.022 41.61 6.203 6.216-.828 12.184-2.978 18.069-5.129l36.719-13.482c1.077-.33 1.989-.827 2.9-1.488 2.239-1.82 2.322-5.377 1.078-7.94-1.243-2.648-3.398-4.633-5.305-6.783-4.227-4.715-7.376-11.332-5.056-17.122 1.492-3.887 5.14-6.616 6.383-10.587 2.403-7.361-4.062-14.226-7.957-20.843-3.648-6.12-5.222-13.234-4.725-20.347.58-7.61 3.73-14.971 3.979-22.58.248-7.114-2.073-14.062-4.393-20.844-1.907-5.624-3.813-11.249-7.046-16.211-6.05-9.347-16.743-15.302-27.767-16.295-5.222-.496-10.278 1.241-15.417.58-7.128-.745-13.842-2.565-21.053-2.813z"/>
                <path fill="#EFB7B9" d="M105.184 200.742s-41.61-26.055-25.447-56.079c3.73-6.948 5.388-13.482 5.72-19.52a44.725 44.725 0 0 0 0-4.715v-.248c-.083-.827-.166-1.654-.25-2.398-1.906-15.881-12.1-26.22-12.1-26.22s69.044-20.099 57.523-1.985c-5.388 8.437-3.73 16.708-.166 25.227.415.91.746 1.82 1.244 2.73 4.144 9.015 9.946 18.362 11.52 28.452 3.233 20.761-38.044 54.756-38.044 54.756z"/>
                <path fill="#000" d="M130.547 89.577c-5.388 8.437-3.73 16.708-.166 25.227-13.51 8.685-30.668 9.843-45.173 2.978-1.907-15.881-12.102-26.22-12.102-26.22s69.045-20.099 57.441-1.985z" opacity=".1"/>
                <ellipse cx="105.184" cy="74.772" fill="#EFB7B9" rx="46.583" ry="46.484"/>
                <path fill="#000" d="M85.457 120.428v-.248l.082-.082c-.082.082-.082.248-.082.33zM105.184 200.742s-41.61-26.055-25.447-56.079c3.73-6.948 5.388-13.482 5.72-19.52.911 7.444 6.05 16.625 15.417 29.363 4.061 5.541 5.802 13.316 6.382 21.091l.912.662 4.558-2.73c.498-8.602 2.238-17.286 6.383-23.407 10.858-16.129 13.427-24.235 12.599-32.588 4.144 9.015 9.946 18.362 11.52 28.452 3.233 20.761-38.044 54.756-38.044 54.756z" opacity=".1"/>
                <path fill="#0DC0DC" d="M171.908 138.129c-24.783-1.82-40.532-21.009-40.532-21.009 1.326 9.016-.829 17.039-12.433 34.325-4.062 6.121-5.802 14.806-6.3 23.408l-4.558 2.73-.912-.662c-.58-7.775-2.32-15.55-6.382-21.092-11.605-15.798-16.744-26.22-15.334-34.49 0 0-12.682 20.595-37.465 22.249-24.784 1.654-45.588 19.106-47.578 51.116l7.958 10.918h78.245v.165h125.077l7.957-11.91c-2.155-34.822-22.96-53.929-47.743-55.748z"/>
                <path fill="#000" d="M171.908 138.129c-24.783-1.82-40.532-21.009-40.532-21.009 1.326 9.016-.829 17.039-12.433 34.325-4.062 6.121-5.802 14.806-6.3 23.408l-4.558 2.73-.912-.662c-.58-7.775-2.32-15.55-6.382-21.092-11.605-15.798-16.744-26.22-15.334-34.49 0 0-12.682 20.595-37.465 22.249-24.784 1.654-45.588 19.106-47.578 51.116l7.958 10.918h78.245v.165h125.077l7.957-11.91c-2.155-34.822-22.96-53.929-47.743-55.748z" opacity=".05"/>
                <path fill="#000" d="M136.68 52.274c-1.989 4.963-5.636 9.264-9.531 12.903-5.388 5.128-12.268 9.677-19.727 9.264 4.061-3.805 7.045-8.602 8.537-13.979-4.725 2.73-8.289 7.114-12.765 10.174-4.476 3.06-10.858 4.715-15.25 1.489 7.956-3.97 14.587-10.257 19.063-17.949C96.315 56.906 90.844 68.9 81.23 74.358c-4.476 2.564-9.78 3.474-14.92 3.391-3.646-.083-7.79-.91-9.78-3.97-1.16-1.737-1.492-3.97-1.492-6.12-.249-9.678 3.73-19.19 9.78-26.717 6.051-7.526 14.174-13.316 22.795-17.7 3.066-1.571 6.299-3.06 9.697-3.557 4.228-.579 8.62.249 12.765 1.241 5.47 1.24 10.941 2.647 15.914 5.046 10.693 5.21 15.334 14.805 10.693 26.302z" opacity=".1"/>
                <path fill="#F7D6C8" d="M136.68 51.612c-1.989 4.963-5.636 9.264-9.531 12.903-5.388 5.128-12.268 9.678-19.727 9.264 4.061-3.805 7.045-8.602 8.537-13.978-4.725 2.73-8.289 7.113-12.765 10.173-4.476 3.06-10.858 4.715-15.25 1.49 7.956-3.971 14.587-10.257 19.063-17.95-10.692 2.73-16.163 14.723-25.778 20.182-4.476 2.564-9.78 3.474-14.92 3.391-3.646-.082-7.79-.91-9.78-3.97-1.16-1.737-1.492-3.97-1.492-6.12-.249-9.678 3.73-19.19 9.78-26.716 6.051-7.527 14.174-13.317 22.795-17.7 3.066-1.572 6.299-3.061 9.697-3.557 4.228-.58 8.62.248 12.765 1.24 5.47 1.241 10.941 2.647 15.914 5.046 10.693 5.21 15.334 14.805 10.693 26.302z"/>
            </g>
            <g transform="translate(134.615 386)">
                <path fill="#0DC0DC" d="M175.472 243.421c-2.155-11.58-7.046-30.355-11.687-47.063-5.885-21.34-43.101-36.145-65.232-36.145H77.168c-22.297 0-59.513 14.888-65.315 36.31-4.476 16.295-9.2 34.326-11.521 44.83"/>
                <ellipse cx="88.192" cy="79.9" fill="#ACB0B7" rx="59.927" ry="59.801"/>
                <path fill="#000" d="M68.796 129.775h38.46v30.686c0 10.587-8.62 19.19-19.23 19.19-10.61 0-19.23-8.603-19.23-19.19v-30.686z" opacity=".1"/>
                <path fill="#EFD7AF" d="M74.35 128.286h27.352a5.548 5.548 0 0 1 5.554 5.542v25.144c0 10.587-8.62 19.19-19.23 19.19-10.61 0-19.23-8.603-19.23-19.19v-25.144a5.548 5.548 0 0 1 5.554-5.542z"/>
                <path fill="#000" d="M68.88 144.25c12.35 4.631 26.026 4.631 38.459.082v-4.714h-38.46v4.631z" opacity=".1"/>
                <ellipse cx="88.192" cy="91.893" fill="#EFD7AF" rx="55.037" ry="54.921"/>
                <path fill="#000" d="M48.903 41.852s23.209 46.98 88.69 19.686L122.34 37.717l-27.02-9.595-46.418 13.73z" opacity=".1"/>
                <path fill="#ACB0B7" d="M48.903 41.19s23.209 46.98 88.69 19.686L122.34 37.055l-27.02-9.677L48.902 41.19z"/>
                <path fill="#ACB0B7" d="M48.738 38.047c1.574-4.88 4.31-9.18 7.874-12.82C67.47 14.557 85.208 12.324 94.325.083c2.156 3.39.498 8.602-3.232 10.008 8.703-.083 18.815-.827 23.788-7.94a16.318 16.318 0 0 1-2.735 17.204c7.709.33 15.997 5.624 16.495 13.316.331 5.128-2.901 10.008-7.129 12.903-4.227 2.895-9.366 4.301-14.422 5.377-14.754 3.225-67.967 16.873-58.352-12.904z"/>
                <ellipse cx="33.072" cy="91.81" fill="#EFD7AF" rx="5.139" ry="9.595"/>
                <ellipse cx="143.229" cy="91.81" fill="#EFD7AF" rx="5.139" ry="9.595"/>
            </g>
            <g transform="translate(269.721 418.258)">
                <path fill="#463A3E" d="M48.157 67.576h115.959v99.254H48.157z"/>
                <path fill="#000" d="M48.157 67.576h115.959v99.254H48.157z" opacity=".05"/>
                <path fill="#C17174" d="M147.539 210.336H48.323c1.243-7.196 5.056-15.136 12.35-23.655 5.802-6.7 10.444-14.227 14.008-22.333.912-2.15 1.824-4.3 2.57-6.534a102.072 102.072 0 0 0 4.476-19.933c0-.166.083-.414.083-.58.497-4.714.745-9.428.58-14.143v-.993a125.422 125.422 0 0 0-5.72-34.077l-.165-.413c-1.078-3.392-1.907-5.294-1.907-5.294s1.99-1.075 5.222-2.647l.249-.165c11.936-5.707 40.283-17.7 52.716-9.181l.166.165c4.393 3.143 6.714 8.768 5.636 18.28v.082c0 .166 0 .331-.083.497-.663 6.534-.994 13.068-.912 19.685v.992c0 1.572 0 3.06.083 4.715v.662c.083 5.128.332 10.339.663 15.715.415 7.444 1.078 14.97 1.824 22.332l.995 9.43c0 .33.083.744.083 1.075.414 3.804.828 7.444 1.326 11.083v.248c1.74 14.392 3.647 26.799 4.973 34.987z"/>
                <path fill="#000" d="M138.587 88.998v.083a164.55 164.55 0 0 0-.995 20.181v.993c-13.676 15.798-35.972 21.091-55.285 12.986v-.993c-.332-11.662-2.321-23.325-5.802-34.49-1.078-3.392-1.907-5.294-1.907-5.294s1.99-1.076 5.222-2.647c11.853-5.707 40.698-18.031 53.214-9.181 4.31 3.226 6.63 8.933 5.553 18.362z" opacity=".1"/>
                <ellipse cx="101.039" cy="77.915" fill="#C17174" rx="48.24" ry="48.138"/>
                <path fill="#000" d="M103.609 210.005H.58s4.642-22.414 5.305-27.046c.332-2.564 4.559-11.58 11.356-19.52 8.703-6.948 19.56-10.753 30.75-10.918 19.728-.331 25.447 6.451 26.939 11.497.58 1.654.663 3.474.414 5.21l3.73 5.377 24.535 35.4z" opacity=".1"/>
                <path fill="#0DC0DC" d="M103.277 210.336H.25s4.641-22.415 5.304-27.047c.332-2.564 4.56-11.58 11.356-19.52 8.703-6.947 19.561-10.752 30.751-10.917 19.727-.331 25.446 6.451 26.938 11.496.58 1.655.663 3.474.415 5.211l3.73 5.377 24.534 35.4z"/>
                <path fill="#000" d="M215.59 210.005H107.752c5.14-10.918 18.65-40.032 19.396-46.814.248-2.647 3.067-5.046 6.796-7.114 1.16-.661 2.321-1.24 3.565-1.82l.248-.082c.663-.33 1.326-.58 2.072-.827 9.367-3.391 19.562-3.309 28.845.248 8.869 3.391 20.225 7.858 29.093 12.159h.083a222.95 222.95 0 0 1 6.3 3.143c3.73 2.067 6.465 3.887 7.543 5.376.497.662.994 3.805 1.574 8.602.663 6.534 1.492 16.211 2.321 27.13z" opacity=".1"/>
                <path fill="#0DC0DC" d="M215.92 210.336H108.086c5.139-10.918 18.65-40.032 19.395-46.815.249-2.646 3.067-5.045 6.797-7.113 1.16-.662 2.32-1.24 3.564-1.82l.249-.082c.663-.331 1.326-.58 2.072-.827 9.366-3.392 19.561-3.309 28.845.248 8.869 3.391 20.224 7.857 29.093 12.158h.083a222.946 222.946 0 0 1 6.3 3.143c3.73 2.068 6.465 3.888 7.542 5.377.497.661.995 3.804 1.575 8.602.663 6.534 1.492 16.211 2.32 27.13z"/>
                <path fill="#000" d="M198.597 157.566c0 1.572-.083 3.143-.165 4.632-.083.744-.083 1.489-.166 2.233-.083.58-.083 1.075-.166 1.654l-.083.662c-.829 7.361-2.32 14.64-2.57 22.001v1.076c0 6.948 1.078 13.73 2.653 20.512h-62.082c-.083-1.24-.166-2.564-.166-3.804 0-1.158.083-2.234.166-3.392.994-9.263 5.719-18.03 6.465-27.212v-.413c.083-.662.083-1.407.083-2.068v-.166a36.54 36.54 0 0 0-1.41-9.015c0-.166-.082-.331-.082-.414-.83-2.895-1.907-5.79-3.067-8.602l-.249-.579c-1.657-4.218-3.481-8.354-4.641-12.572-.995-3.143-1.41-6.369-1.492-9.595 0-.579 0-1.158.083-1.737 0-.496.082-.91.165-1.406.083-.744.249-1.488.415-2.233.994-3.97 3.15-7.692 5.222-11.414 2.32-4.136 4.476-8.189 4.89-12.49.083-.579.083-1.075.083-1.654 0-.744-.083-1.406-.166-2.15-.497-3.06-2.155-5.873-3.398-8.685-.166-.248-.249-.58-.415-.91 0-.083 0-.083-.083-.165-2.57-5.873-3.978-12.076-5.553-18.28-.083-.248-.166-.496-.166-.827-.414-1.489-.746-3.06-1.16-4.549-2.238-8.271-5.47-16.625-11.604-22.58-6.134-5.956-15.915-9.016-23.623-5.211-6.631 3.308-10.278 10.752-11.853 17.948-1.658 7.196-1.74 14.806-3.896 21.919-.166.496-.331 1.075-.497 1.572-.083.248-.166.496-.249.827a75.971 75.971 0 0 1-3.232 7.692l-.166.248c-3.813 8.188-8.289 16.212-8.455 24.4v.744c0 1.985.332 3.888.912 5.79.995 3.391 2.818 6.286 4.973 9.099.415.579.83 1.075 1.327 1.654 2.155 2.647 4.475 5.128 6.465 7.857l.083.083c1.574 1.985 2.818 4.136 3.895 6.452 2.487 5.79 2.487 12.324.083 18.114a34.347 34.347 0 0 1-1.99 3.887c-1.325 2.233-2.734 4.466-3.895 6.782a12.196 12.196 0 0 0-.994 2.399c-2.57 6.534-3.067 13.73-5.14 20.43a45.212 45.212 0 0 1-7.376 14.309H.497c.746-3.722 4.56-22.25 5.14-26.385.33-2.564 4.558-11.58 11.355-19.52-.58.413-1.16.91-1.658 1.323A55.347 55.347 0 0 0 4.31 178.492c.166-.413.332-.91.415-1.406.911-2.73 1.906-5.459 2.983-8.188 2.984-7.775 6.217-15.716 12.102-21.588 3.315-3.309 7.377-5.873 10.527-9.347 5.553-6.12 7.874-14.557 7.791-22.828 0-.827 0-1.737-.083-2.564-.58-9.098-3.73-17.783-7.128-26.303-1.824-4.549-3.73-9.346-3.647-14.143 0-.662.083-1.324.166-1.985 1.409-10.008 11.52-15.964 17.572-24.07 9.034-11.993 9.697-29.776 21.55-39.04 9.118-7.113 21.8-6.616 33.238-5.872 10.692.744 20.39 2.068 31 3.557 10.61 1.488 21.385 4.3 29.922 10.835 5.47 4.218 9.78 9.76 13.593 15.55 5.14 7.775 9.532 16.294 10.196 25.558.082.661.082 1.323.082 1.985.083 10.835-4.558 21.257-5.221 32.175 0 .496-.083.992-.083 1.488v.083c-.083 9.43 3.48 19.272 8.454 27.295 7.046 11.414 10.775 24.483 10.858 37.882z" opacity=".1"/>
                <path fill="#463A3E" d="M198.597 157.566c0 1.323-.083 2.647-.165 3.97-.083.745-.083 1.49-.166 2.233l-.249 2.234c-.829 7.361-2.32 14.64-2.57 22.001v1.737c0 6.948 1.244 13.73 2.736 20.513h-62.248c-.083-1.241-.166-2.565-.166-3.805 0-1.324.083-2.73.166-4.053.994-9.264 5.719-18.031 6.465-27.212.083-.662.083-1.324.083-1.985v-.497a38.006 38.006 0 0 0-1.492-9.677c-.829-2.895-1.907-5.79-3.067-8.602-1.74-4.384-3.647-8.767-4.89-13.151a33.05 33.05 0 0 1-1.492-8.933c0-.827 0-1.572.083-2.399 0-.496.083-.91.165-1.406.083-.744.25-1.489.415-2.233.994-3.97 3.15-7.692 5.222-11.414 2.32-4.136 4.476-8.189 4.89-12.572 0-.331.083-.662.083-.993 0-.91-.083-1.82-.166-2.812-.497-3.06-2.155-5.873-3.398-8.685-.166-.248-.249-.579-.415-.91-2.57-5.872-4.061-12.158-5.636-18.362-.414-1.82-.912-3.556-1.409-5.376-2.238-8.271-5.47-16.625-11.604-22.58-6.134-5.956-15.915-8.933-23.623-5.129-6.631 3.309-10.278 10.753-11.853 17.949-1.658 7.196-1.74 14.805-3.896 21.919-.248.744-.497 1.571-.746 2.316-.911 2.646-2.155 5.293-3.315 7.94-3.979 8.354-8.537 16.625-8.455 25.062v.082c0 1.985.332 3.888.912 5.79.995 3.391 2.818 6.286 4.973 9.098.415.58.83 1.076 1.327 1.655 2.155 2.646 4.476 5.21 6.548 7.94 1.575 1.985 2.818 4.136 3.895 6.452 2.487 5.79 2.487 12.324.083 18.113a34.347 34.347 0 0 1-1.989 3.888c-1.326 2.233-2.735 4.466-3.896 6.782a12.196 12.196 0 0 0-.994 2.399c-2.57 6.534-3.067 13.73-5.14 20.43a44.779 44.779 0 0 1-7.874 14.97H.25s4.641-22.414 5.304-27.046c.332-2.316 3.896-10.091 9.698-17.535.498-.662 1.078-1.324 1.658-1.985-4.725 3.722-8.869 8.271-12.184 13.316l-.415.745a326.599 326.599 0 0 1 3.398-9.595c2.984-7.775 6.217-15.715 12.102-21.588 3.315-3.308 7.377-5.872 10.527-9.346 5.387-5.955 7.708-14.144 7.791-22.25 0-1.075 0-2.15-.083-3.225-.58-9.099-3.73-17.783-7.128-26.303-1.74-4.383-3.564-8.933-3.647-13.482 0-.91 0-1.82.166-2.646 1.409-9.926 11.52-15.881 17.572-23.987 9.034-11.993 9.697-29.776 21.55-39.04C75.676-.827 88.358-.33 99.796.414c10.692.744 20.39 2.067 31 3.556 10.61 1.489 21.385 4.301 29.922 10.753 5.47 4.218 9.78 9.76 13.593 15.55 5.14 7.774 9.532 16.294 10.196 25.558.082.91.082 1.736.082 2.646-.082 10.587-4.641 20.844-5.221 31.514 0 .744-.083 1.406-.083 2.15v.083c.083 9.18 3.647 18.858 8.454 26.633 7.128 11.745 10.858 25.062 10.858 38.71z"/>
            </g>
            <path fill="#ACB0B7" d="M277.844 478.885h-1.492l-28.43 25.228c-27.353-12.82-47.494 0-47.494 0l-29.84-24.235-2.984.33c.83 30.356 26.193 54.26 56.53 53.433 29.922-.745 53.627-24.98 53.71-54.756zm-55.203 34.905c-10.692 0-19.395-2.15-19.395-4.88 0-2.647 8.703-4.88 19.395-4.88 10.693 0 19.396 2.15 19.396 4.88s-8.703 4.88-19.396 4.88z"/>
        </g>
    </g>
</svg>
