<svg xmlns="http://www.w3.org/2000/svg" xmlns:xlink="http://www.w3.org/1999/xlink" width="1425" height="1024" viewBox="0 0 1425 1024">
    <defs>
        <path id="a" d="M0 0h1440v1024H0z"/>
    </defs>
    <g fill="none" fill-rule="evenodd">
        <mask id="b" fill="#fff">
            <use xlink:href="#a"/>
        </mask>
        <path fill="#0DC0DC" fill-opacity=".1" d="M1424.02 657.625c.272-97.224-46.765-188.5-126.09-244.675a307.18 307.18 0 0 0 1.659-31.15c0-164.546-131.515-297.887-293.657-297.887a289.059 289.059 0 0 0-142.531 37.41C748.592 45.74 598.728 0 434.778 0c-266.68 0-496.23 121.074-598.032 294.696a291.511 291.511 0 0 0-17.088-.513C-342.501 294.183-474 427.573-474 592.116a299.71 299.71 0 0 0 48.312 163.763c0 148.046 139.678 268.06 311.907 268.06h1249.518c135.282 0 244.947-94.237 244.947-210.483a299.724 299.724 0 0 0 43.335-155.831" mask="url(#b)"/>
    </g>
</svg>
